%TF.GenerationSoftware,KiCad,Pcbnew,(5.1.10)-1*%
%TF.CreationDate,2021-10-15T07:56:21+02:00*%
%TF.ProjectId,BTS-LogicBoard,4254532d-4c6f-4676-9963-426f6172642e,rev?*%
%TF.SameCoordinates,Original*%
%TF.FileFunction,Copper,L1,Top*%
%TF.FilePolarity,Positive*%
%FSLAX46Y46*%
G04 Gerber Fmt 4.6, Leading zero omitted, Abs format (unit mm)*
G04 Created by KiCad (PCBNEW (5.1.10)-1) date 2021-10-15 07:56:21*
%MOMM*%
%LPD*%
G01*
G04 APERTURE LIST*
%TA.AperFunction,EtchedComponent*%
%ADD10C,0.100000*%
%TD*%
%TA.AperFunction,ComponentPad*%
%ADD11C,1.150000*%
%TD*%
%TA.AperFunction,ComponentPad*%
%ADD12R,1.150000X1.150000*%
%TD*%
%TA.AperFunction,SMDPad,CuDef*%
%ADD13R,1.750000X3.450000*%
%TD*%
%TA.AperFunction,SMDPad,CuDef*%
%ADD14R,1.000000X2.500000*%
%TD*%
%TA.AperFunction,ComponentPad*%
%ADD15O,1.200000X1.650000*%
%TD*%
%TA.AperFunction,ConnectorPad*%
%ADD16C,5.600000*%
%TD*%
%TA.AperFunction,ComponentPad*%
%ADD17C,3.600000*%
%TD*%
%TA.AperFunction,SMDPad,CuDef*%
%ADD18R,1.060000X0.650000*%
%TD*%
%TA.AperFunction,SMDPad,CuDef*%
%ADD19C,2.000000*%
%TD*%
%TA.AperFunction,ComponentPad*%
%ADD20C,1.800000*%
%TD*%
%TA.AperFunction,ComponentPad*%
%ADD21R,1.800000X1.800000*%
%TD*%
%TA.AperFunction,ComponentPad*%
%ADD22O,1.700000X1.700000*%
%TD*%
%TA.AperFunction,ComponentPad*%
%ADD23R,1.700000X1.700000*%
%TD*%
%TA.AperFunction,ViaPad*%
%ADD24C,0.800000*%
%TD*%
%TA.AperFunction,Conductor*%
%ADD25C,0.250000*%
%TD*%
%TA.AperFunction,Conductor*%
%ADD26C,0.254000*%
%TD*%
%TA.AperFunction,Conductor*%
%ADD27C,0.100000*%
%TD*%
G04 APERTURE END LIST*
D10*
%TO.C,J5*%
G36*
X139025000Y-70120000D02*
G01*
X141025000Y-70120000D01*
X141025000Y-74120000D01*
X139025000Y-74120000D01*
X139025000Y-70120000D01*
G37*
X139025000Y-70120000D02*
X141025000Y-70120000D01*
X141025000Y-74120000D01*
X139025000Y-74120000D01*
X139025000Y-70120000D01*
G36*
X124025000Y-70120000D02*
G01*
X126025000Y-70120000D01*
X126025000Y-74120000D01*
X124025000Y-74120000D01*
X124025000Y-70120000D01*
G37*
X124025000Y-70120000D02*
X126025000Y-70120000D01*
X126025000Y-74120000D01*
X124025000Y-74120000D01*
X124025000Y-70120000D01*
%TD*%
D11*
%TO.P,J2,3*%
%TO.N,GND*%
X134175000Y-111760000D03*
%TO.P,J2,2*%
%TO.N,/PSU_ON*%
X132175001Y-111760000D03*
D12*
%TO.P,J2,1*%
%TO.N,+5V*%
X130175000Y-111760000D03*
%TD*%
D13*
%TO.P,J5,7*%
%TO.N,N/C*%
X125025000Y-72120000D03*
X140025000Y-72120000D03*
D14*
%TO.P,J5,1*%
X137525000Y-76120000D03*
%TO.P,J5,2*%
%TO.N,/FAN_TRIGGER*%
X135525000Y-76120000D03*
%TO.P,J5,3*%
%TO.N,/IN+*%
X133525000Y-76120000D03*
%TO.P,J5,4*%
%TO.N,/IN-*%
X131525000Y-76120000D03*
%TO.P,J5,5*%
%TO.N,/VSense*%
X129525000Y-76120000D03*
%TO.P,J5,6*%
%TO.N,GND*%
X127525000Y-76120000D03*
%TD*%
D15*
%TO.P,J4,6*%
%TO.N,GND*%
X119475000Y-85090000D03*
%TO.P,J4,4*%
%TO.N,/IN-*%
X117475000Y-85090000D03*
%TO.P,J4,2*%
%TO.N,/COMP_PWM*%
X115475000Y-85090000D03*
%TO.P,J4,5*%
%TO.N,GND*%
X119475000Y-83090000D03*
%TO.P,J4,3*%
%TO.N,/IN+*%
X117475000Y-83090000D03*
%TO.P,J4,1*%
%TO.N,/COMP_PWM*%
%TA.AperFunction,ComponentPad*%
G36*
G01*
X114875000Y-83665001D02*
X114875000Y-82514999D01*
G75*
G02*
X115124999Y-82265000I249999J0D01*
G01*
X115825001Y-82265000D01*
G75*
G02*
X116075000Y-82514999I0J-249999D01*
G01*
X116075000Y-83665001D01*
G75*
G02*
X115825001Y-83915000I-249999J0D01*
G01*
X115124999Y-83915000D01*
G75*
G02*
X114875000Y-83665001I0J249999D01*
G01*
G37*
%TD.AperFunction*%
%TD*%
%TO.P,J1,6*%
%TO.N,GND*%
X119570000Y-92678000D03*
%TO.P,J1,4*%
X117570000Y-92678000D03*
%TO.P,J1,2*%
%TO.N,/PSU_ON*%
X115570000Y-92678000D03*
%TO.P,J1,5*%
%TO.N,/-Potentiometer*%
X119570000Y-90678000D03*
%TO.P,J1,3*%
%TO.N,/PWM_DCycle_Ref*%
X117570000Y-90678000D03*
%TO.P,J1,1*%
%TO.N,/+Potentiometer*%
%TA.AperFunction,ComponentPad*%
G36*
G01*
X114970000Y-91253001D02*
X114970000Y-90102999D01*
G75*
G02*
X115219999Y-89853000I249999J0D01*
G01*
X115920001Y-89853000D01*
G75*
G02*
X116170000Y-90102999I0J-249999D01*
G01*
X116170000Y-91253001D01*
G75*
G02*
X115920001Y-91503000I-249999J0D01*
G01*
X115219999Y-91503000D01*
G75*
G02*
X114970000Y-91253001I0J249999D01*
G01*
G37*
%TD.AperFunction*%
%TD*%
D16*
%TO.P,H4,1*%
%TO.N,GND*%
X149225000Y-117475000D03*
D17*
X149225000Y-117475000D03*
%TD*%
D18*
%TO.P,U6,5*%
%TO.N,VCC*%
X128735000Y-96205000D03*
%TO.P,U6,4*%
%TO.N,Net-(C12-Pad1)*%
X128735000Y-98105000D03*
%TO.P,U6,3*%
%TO.N,Net-(C8-Pad1)*%
X126535000Y-98105000D03*
%TO.P,U6,2*%
%TO.N,GND*%
X126535000Y-97155000D03*
%TO.P,U6,1*%
%TO.N,/FAN_TRIGGER*%
X126535000Y-96205000D03*
%TD*%
D19*
%TO.P,TP5,1*%
%TO.N,/VSense*%
X129540000Y-78994000D03*
%TD*%
%TO.P,TP4,1*%
%TO.N,/FAN_TRIGGER*%
X123698000Y-95250000D03*
%TD*%
%TO.P,TP3,1*%
%TO.N,/PWM_DCycle_Ref*%
X118872000Y-79248000D03*
%TD*%
%TO.P,TP2,1*%
%TO.N,/COMP_PWM*%
X115570000Y-79248000D03*
%TD*%
%TO.P,TP1,1*%
%TO.N,/NE_OUT*%
X123952000Y-90678000D03*
%TD*%
%TO.P,R14,2*%
%TO.N,Net-(Q1-Pad1)*%
%TA.AperFunction,SMDPad,CuDef*%
G36*
G01*
X137018000Y-98923000D02*
X137018000Y-97673000D01*
G75*
G02*
X137268000Y-97423000I250000J0D01*
G01*
X138068000Y-97423000D01*
G75*
G02*
X138318000Y-97673000I0J-250000D01*
G01*
X138318000Y-98923000D01*
G75*
G02*
X138068000Y-99173000I-250000J0D01*
G01*
X137268000Y-99173000D01*
G75*
G02*
X137018000Y-98923000I0J250000D01*
G01*
G37*
%TD.AperFunction*%
%TO.P,R14,1*%
%TO.N,GND*%
%TA.AperFunction,SMDPad,CuDef*%
G36*
G01*
X133918000Y-98923000D02*
X133918000Y-97673000D01*
G75*
G02*
X134168000Y-97423000I250000J0D01*
G01*
X134968000Y-97423000D01*
G75*
G02*
X135218000Y-97673000I0J-250000D01*
G01*
X135218000Y-98923000D01*
G75*
G02*
X134968000Y-99173000I-250000J0D01*
G01*
X134168000Y-99173000D01*
G75*
G02*
X133918000Y-98923000I0J250000D01*
G01*
G37*
%TD.AperFunction*%
%TD*%
%TO.P,R13,2*%
%TO.N,Net-(Q1-Pad1)*%
%TA.AperFunction,SMDPad,CuDef*%
G36*
G01*
X137044000Y-96637000D02*
X137044000Y-95387000D01*
G75*
G02*
X137294000Y-95137000I250000J0D01*
G01*
X138094000Y-95137000D01*
G75*
G02*
X138344000Y-95387000I0J-250000D01*
G01*
X138344000Y-96637000D01*
G75*
G02*
X138094000Y-96887000I-250000J0D01*
G01*
X137294000Y-96887000D01*
G75*
G02*
X137044000Y-96637000I0J250000D01*
G01*
G37*
%TD.AperFunction*%
%TO.P,R13,1*%
%TO.N,/COMP_PWM*%
%TA.AperFunction,SMDPad,CuDef*%
G36*
G01*
X133944000Y-96637000D02*
X133944000Y-95387000D01*
G75*
G02*
X134194000Y-95137000I250000J0D01*
G01*
X134994000Y-95137000D01*
G75*
G02*
X135244000Y-95387000I0J-250000D01*
G01*
X135244000Y-96637000D01*
G75*
G02*
X134994000Y-96887000I-250000J0D01*
G01*
X134194000Y-96887000D01*
G75*
G02*
X133944000Y-96637000I0J250000D01*
G01*
G37*
%TD.AperFunction*%
%TD*%
%TO.P,R5,2*%
%TO.N,/FAN_TRIGGER*%
%TA.AperFunction,SMDPad,CuDef*%
G36*
G01*
X130693000Y-95388000D02*
X131943000Y-95388000D01*
G75*
G02*
X132193000Y-95638000I0J-250000D01*
G01*
X132193000Y-96438000D01*
G75*
G02*
X131943000Y-96688000I-250000J0D01*
G01*
X130693000Y-96688000D01*
G75*
G02*
X130443000Y-96438000I0J250000D01*
G01*
X130443000Y-95638000D01*
G75*
G02*
X130693000Y-95388000I250000J0D01*
G01*
G37*
%TD.AperFunction*%
%TO.P,R5,1*%
%TO.N,VCC*%
%TA.AperFunction,SMDPad,CuDef*%
G36*
G01*
X130693000Y-92288000D02*
X131943000Y-92288000D01*
G75*
G02*
X132193000Y-92538000I0J-250000D01*
G01*
X132193000Y-93338000D01*
G75*
G02*
X131943000Y-93588000I-250000J0D01*
G01*
X130693000Y-93588000D01*
G75*
G02*
X130443000Y-93338000I0J250000D01*
G01*
X130443000Y-92538000D01*
G75*
G02*
X130693000Y-92288000I250000J0D01*
G01*
G37*
%TD.AperFunction*%
%TD*%
%TO.P,R4,2*%
%TO.N,/COMP_PWM*%
%TA.AperFunction,SMDPad,CuDef*%
G36*
G01*
X126608000Y-103261000D02*
X126608000Y-104511000D01*
G75*
G02*
X126358000Y-104761000I-250000J0D01*
G01*
X125558000Y-104761000D01*
G75*
G02*
X125308000Y-104511000I0J250000D01*
G01*
X125308000Y-103261000D01*
G75*
G02*
X125558000Y-103011000I250000J0D01*
G01*
X126358000Y-103011000D01*
G75*
G02*
X126608000Y-103261000I0J-250000D01*
G01*
G37*
%TD.AperFunction*%
%TO.P,R4,1*%
%TO.N,VCC*%
%TA.AperFunction,SMDPad,CuDef*%
G36*
G01*
X129708000Y-103261000D02*
X129708000Y-104511000D01*
G75*
G02*
X129458000Y-104761000I-250000J0D01*
G01*
X128658000Y-104761000D01*
G75*
G02*
X128408000Y-104511000I0J250000D01*
G01*
X128408000Y-103261000D01*
G75*
G02*
X128658000Y-103011000I250000J0D01*
G01*
X129458000Y-103011000D01*
G75*
G02*
X129708000Y-103261000I0J-250000D01*
G01*
G37*
%TD.AperFunction*%
%TD*%
D20*
%TO.P,D4,2*%
%TO.N,Net-(D4-Pad2)*%
X117094000Y-102870000D03*
D21*
%TO.P,D4,1*%
%TO.N,Net-(D4-Pad1)*%
X114554000Y-102870000D03*
%TD*%
D20*
%TO.P,D3,2*%
%TO.N,Net-(D3-Pad2)*%
X117094000Y-112014000D03*
D21*
%TO.P,D3,1*%
%TO.N,GND*%
X114554000Y-112014000D03*
%TD*%
%TO.P,C11,2*%
%TO.N,GND*%
%TA.AperFunction,SMDPad,CuDef*%
G36*
G01*
X126735000Y-93329999D02*
X126735000Y-94630001D01*
G75*
G02*
X126485001Y-94880000I-249999J0D01*
G01*
X125659999Y-94880000D01*
G75*
G02*
X125410000Y-94630001I0J249999D01*
G01*
X125410000Y-93329999D01*
G75*
G02*
X125659999Y-93080000I249999J0D01*
G01*
X126485001Y-93080000D01*
G75*
G02*
X126735000Y-93329999I0J-249999D01*
G01*
G37*
%TD.AperFunction*%
%TO.P,C11,1*%
%TO.N,VCC*%
%TA.AperFunction,SMDPad,CuDef*%
G36*
G01*
X129860000Y-93329999D02*
X129860000Y-94630001D01*
G75*
G02*
X129610001Y-94880000I-249999J0D01*
G01*
X128784999Y-94880000D01*
G75*
G02*
X128535000Y-94630001I0J249999D01*
G01*
X128535000Y-93329999D01*
G75*
G02*
X128784999Y-93080000I249999J0D01*
G01*
X129610001Y-93080000D01*
G75*
G02*
X129860000Y-93329999I0J-249999D01*
G01*
G37*
%TD.AperFunction*%
%TD*%
%TO.P,C9,2*%
%TO.N,GND*%
%TA.AperFunction,SMDPad,CuDef*%
G36*
G01*
X130545000Y-84185999D02*
X130545000Y-85486001D01*
G75*
G02*
X130295001Y-85736000I-249999J0D01*
G01*
X129469999Y-85736000D01*
G75*
G02*
X129220000Y-85486001I0J249999D01*
G01*
X129220000Y-84185999D01*
G75*
G02*
X129469999Y-83936000I249999J0D01*
G01*
X130295001Y-83936000D01*
G75*
G02*
X130545000Y-84185999I0J-249999D01*
G01*
G37*
%TD.AperFunction*%
%TO.P,C9,1*%
%TO.N,VCC*%
%TA.AperFunction,SMDPad,CuDef*%
G36*
G01*
X133670000Y-84185999D02*
X133670000Y-85486001D01*
G75*
G02*
X133420001Y-85736000I-249999J0D01*
G01*
X132594999Y-85736000D01*
G75*
G02*
X132345000Y-85486001I0J249999D01*
G01*
X132345000Y-84185999D01*
G75*
G02*
X132594999Y-83936000I249999J0D01*
G01*
X133420001Y-83936000D01*
G75*
G02*
X133670000Y-84185999I0J-249999D01*
G01*
G37*
%TD.AperFunction*%
%TD*%
%TO.P,C8,2*%
%TO.N,GND*%
%TA.AperFunction,SMDPad,CuDef*%
G36*
G01*
X148050000Y-104505000D02*
X148050000Y-102505000D01*
G75*
G02*
X148300000Y-102255000I250000J0D01*
G01*
X151800000Y-102255000D01*
G75*
G02*
X152050000Y-102505000I0J-250000D01*
G01*
X152050000Y-104505000D01*
G75*
G02*
X151800000Y-104755000I-250000J0D01*
G01*
X148300000Y-104755000D01*
G75*
G02*
X148050000Y-104505000I0J250000D01*
G01*
G37*
%TD.AperFunction*%
%TO.P,C8,1*%
%TO.N,Net-(C8-Pad1)*%
%TA.AperFunction,SMDPad,CuDef*%
G36*
G01*
X140050000Y-104505000D02*
X140050000Y-102505000D01*
G75*
G02*
X140300000Y-102255000I250000J0D01*
G01*
X143800000Y-102255000D01*
G75*
G02*
X144050000Y-102505000I0J-250000D01*
G01*
X144050000Y-104505000D01*
G75*
G02*
X143800000Y-104755000I-250000J0D01*
G01*
X140300000Y-104755000D01*
G75*
G02*
X140050000Y-104505000I0J250000D01*
G01*
G37*
%TD.AperFunction*%
%TD*%
D16*
%TO.P,H3,1*%
%TO.N,GND*%
X116205000Y-117475000D03*
D17*
X116205000Y-117475000D03*
%TD*%
D16*
%TO.P,H2,1*%
%TO.N,GND*%
X148844000Y-70866000D03*
D17*
X148844000Y-70866000D03*
%TD*%
D16*
%TO.P,H1,1*%
%TO.N,GND*%
X116840000Y-70866000D03*
D17*
X116840000Y-70866000D03*
%TD*%
%TO.P,U2,8*%
%TO.N,VCC*%
%TA.AperFunction,SMDPad,CuDef*%
G36*
G01*
X132945000Y-87145000D02*
X132945000Y-86845000D01*
G75*
G02*
X133095000Y-86695000I150000J0D01*
G01*
X134745000Y-86695000D01*
G75*
G02*
X134895000Y-86845000I0J-150000D01*
G01*
X134895000Y-87145000D01*
G75*
G02*
X134745000Y-87295000I-150000J0D01*
G01*
X133095000Y-87295000D01*
G75*
G02*
X132945000Y-87145000I0J150000D01*
G01*
G37*
%TD.AperFunction*%
%TO.P,U2,7*%
%TO.N,Net-(R12-Pad2)*%
%TA.AperFunction,SMDPad,CuDef*%
G36*
G01*
X132945000Y-88415000D02*
X132945000Y-88115000D01*
G75*
G02*
X133095000Y-87965000I150000J0D01*
G01*
X134745000Y-87965000D01*
G75*
G02*
X134895000Y-88115000I0J-150000D01*
G01*
X134895000Y-88415000D01*
G75*
G02*
X134745000Y-88565000I-150000J0D01*
G01*
X133095000Y-88565000D01*
G75*
G02*
X132945000Y-88415000I0J150000D01*
G01*
G37*
%TD.AperFunction*%
%TO.P,U2,6*%
%TO.N,/Threshold*%
%TA.AperFunction,SMDPad,CuDef*%
G36*
G01*
X132945000Y-89685000D02*
X132945000Y-89385000D01*
G75*
G02*
X133095000Y-89235000I150000J0D01*
G01*
X134745000Y-89235000D01*
G75*
G02*
X134895000Y-89385000I0J-150000D01*
G01*
X134895000Y-89685000D01*
G75*
G02*
X134745000Y-89835000I-150000J0D01*
G01*
X133095000Y-89835000D01*
G75*
G02*
X132945000Y-89685000I0J150000D01*
G01*
G37*
%TD.AperFunction*%
%TO.P,U2,5*%
%TO.N,Net-(C6-Pad1)*%
%TA.AperFunction,SMDPad,CuDef*%
G36*
G01*
X132945000Y-90955000D02*
X132945000Y-90655000D01*
G75*
G02*
X133095000Y-90505000I150000J0D01*
G01*
X134745000Y-90505000D01*
G75*
G02*
X134895000Y-90655000I0J-150000D01*
G01*
X134895000Y-90955000D01*
G75*
G02*
X134745000Y-91105000I-150000J0D01*
G01*
X133095000Y-91105000D01*
G75*
G02*
X132945000Y-90955000I0J150000D01*
G01*
G37*
%TD.AperFunction*%
%TO.P,U2,4*%
%TO.N,/NE555_RST*%
%TA.AperFunction,SMDPad,CuDef*%
G36*
G01*
X127995000Y-90955000D02*
X127995000Y-90655000D01*
G75*
G02*
X128145000Y-90505000I150000J0D01*
G01*
X129795000Y-90505000D01*
G75*
G02*
X129945000Y-90655000I0J-150000D01*
G01*
X129945000Y-90955000D01*
G75*
G02*
X129795000Y-91105000I-150000J0D01*
G01*
X128145000Y-91105000D01*
G75*
G02*
X127995000Y-90955000I0J150000D01*
G01*
G37*
%TD.AperFunction*%
%TO.P,U2,3*%
%TO.N,/NE_OUT*%
%TA.AperFunction,SMDPad,CuDef*%
G36*
G01*
X127995000Y-89685000D02*
X127995000Y-89385000D01*
G75*
G02*
X128145000Y-89235000I150000J0D01*
G01*
X129795000Y-89235000D01*
G75*
G02*
X129945000Y-89385000I0J-150000D01*
G01*
X129945000Y-89685000D01*
G75*
G02*
X129795000Y-89835000I-150000J0D01*
G01*
X128145000Y-89835000D01*
G75*
G02*
X127995000Y-89685000I0J150000D01*
G01*
G37*
%TD.AperFunction*%
%TO.P,U2,2*%
%TO.N,/Threshold*%
%TA.AperFunction,SMDPad,CuDef*%
G36*
G01*
X127995000Y-88415000D02*
X127995000Y-88115000D01*
G75*
G02*
X128145000Y-87965000I150000J0D01*
G01*
X129795000Y-87965000D01*
G75*
G02*
X129945000Y-88115000I0J-150000D01*
G01*
X129945000Y-88415000D01*
G75*
G02*
X129795000Y-88565000I-150000J0D01*
G01*
X128145000Y-88565000D01*
G75*
G02*
X127995000Y-88415000I0J150000D01*
G01*
G37*
%TD.AperFunction*%
%TO.P,U2,1*%
%TO.N,GND*%
%TA.AperFunction,SMDPad,CuDef*%
G36*
G01*
X127995000Y-87145000D02*
X127995000Y-86845000D01*
G75*
G02*
X128145000Y-86695000I150000J0D01*
G01*
X129795000Y-86695000D01*
G75*
G02*
X129945000Y-86845000I0J-150000D01*
G01*
X129945000Y-87145000D01*
G75*
G02*
X129795000Y-87295000I-150000J0D01*
G01*
X128145000Y-87295000D01*
G75*
G02*
X127995000Y-87145000I0J150000D01*
G01*
G37*
%TD.AperFunction*%
%TD*%
D18*
%TO.P,U1,5*%
%TO.N,VCC*%
X128735000Y-99888000D03*
%TO.P,U1,4*%
%TO.N,/PWM_DCycle_Ref*%
X128735000Y-101788000D03*
%TO.P,U1,3*%
%TO.N,/Sawtooth*%
X126535000Y-101788000D03*
%TO.P,U1,2*%
%TO.N,GND*%
X126535000Y-100838000D03*
%TO.P,U1,1*%
%TO.N,/COMP_PWM*%
X126535000Y-99888000D03*
%TD*%
D22*
%TO.P,J3,2*%
%TO.N,GND1*%
X114808000Y-97536000D03*
D23*
%TO.P,J3,1*%
%TO.N,/EnableSignal*%
X117348000Y-97536000D03*
%TD*%
D20*
%TO.P,D1,2*%
%TO.N,Net-(D1-Pad2)*%
X117094000Y-107442000D03*
D21*
%TO.P,D1,1*%
%TO.N,Net-(D1-Pad1)*%
X114554000Y-107442000D03*
%TD*%
%TO.P,C7,2*%
%TO.N,GND*%
%TA.AperFunction,SMDPad,CuDef*%
G36*
G01*
X127015003Y-85460000D02*
X125714997Y-85460000D01*
G75*
G02*
X125465000Y-85210003I0J249997D01*
G01*
X125465000Y-84384997D01*
G75*
G02*
X125714997Y-84135000I249997J0D01*
G01*
X127015003Y-84135000D01*
G75*
G02*
X127265000Y-84384997I0J-249997D01*
G01*
X127265000Y-85210003D01*
G75*
G02*
X127015003Y-85460000I-249997J0D01*
G01*
G37*
%TD.AperFunction*%
%TO.P,C7,1*%
%TO.N,/Threshold*%
%TA.AperFunction,SMDPad,CuDef*%
G36*
G01*
X127015003Y-88585000D02*
X125714997Y-88585000D01*
G75*
G02*
X125465000Y-88335003I0J249997D01*
G01*
X125465000Y-87509997D01*
G75*
G02*
X125714997Y-87260000I249997J0D01*
G01*
X127015003Y-87260000D01*
G75*
G02*
X127265000Y-87509997I0J-249997D01*
G01*
X127265000Y-88335003D01*
G75*
G02*
X127015003Y-88585000I-249997J0D01*
G01*
G37*
%TD.AperFunction*%
%TD*%
%TO.P,C5,2*%
%TO.N,GND*%
%TA.AperFunction,SMDPad,CuDef*%
G36*
G01*
X148050000Y-88630000D02*
X148050000Y-86630000D01*
G75*
G02*
X148300000Y-86380000I250000J0D01*
G01*
X151800000Y-86380000D01*
G75*
G02*
X152050000Y-86630000I0J-250000D01*
G01*
X152050000Y-88630000D01*
G75*
G02*
X151800000Y-88880000I-250000J0D01*
G01*
X148300000Y-88880000D01*
G75*
G02*
X148050000Y-88630000I0J250000D01*
G01*
G37*
%TD.AperFunction*%
%TO.P,C5,1*%
%TO.N,VCC*%
%TA.AperFunction,SMDPad,CuDef*%
G36*
G01*
X140050000Y-88630000D02*
X140050000Y-86630000D01*
G75*
G02*
X140300000Y-86380000I250000J0D01*
G01*
X143800000Y-86380000D01*
G75*
G02*
X144050000Y-86630000I0J-250000D01*
G01*
X144050000Y-88630000D01*
G75*
G02*
X143800000Y-88880000I-250000J0D01*
G01*
X140300000Y-88880000D01*
G75*
G02*
X140050000Y-88630000I0J250000D01*
G01*
G37*
%TD.AperFunction*%
%TD*%
D24*
%TO.N,GND*%
X149860000Y-103886000D03*
X124460000Y-84836000D03*
X126746000Y-86614000D03*
X126212714Y-93980000D03*
X134620000Y-98044000D03*
X124414990Y-88392000D03*
X127762000Y-93980000D03*
X130598425Y-101962746D03*
X126534968Y-100838000D03*
X126535001Y-97155000D03*
X133350000Y-101854000D03*
X123699918Y-107293575D03*
%TO.N,+5V*%
X142748000Y-90170000D03*
%TO.N,Net-(C6-Pad1)*%
X134112000Y-90932000D03*
%TO.N,/Threshold*%
X135890000Y-87630000D03*
%TO.N,Net-(D4-Pad1)*%
X122174000Y-105664000D03*
X120146705Y-105327159D03*
X137668000Y-101854000D03*
X137668000Y-104394000D03*
%TO.N,/FAN_TRIGGER*%
X131064000Y-96012000D03*
X135382000Y-79248000D03*
X127000000Y-95504000D03*
X121539000Y-94859694D03*
X120015000Y-98425000D03*
X123669690Y-106294020D03*
%TO.N,Net-(Q1-Pad1)*%
X137668000Y-96012000D03*
%TO.N,/2.5V*%
X134874000Y-94488000D03*
X132334000Y-94742000D03*
X138684000Y-101854010D03*
X138684000Y-104394000D03*
%TO.N,Net-(C8-Pad1)*%
X141224000Y-103886000D03*
X130810000Y-99060000D03*
X127604966Y-97790000D03*
%TO.N,Net-(R20-Pad1)*%
X124187304Y-103302225D03*
X122428000Y-101346000D03*
%TO.N,VCC*%
X129032000Y-103886000D03*
X118872000Y-88138000D03*
X134112000Y-87122000D03*
X144780000Y-89916000D03*
X128735000Y-99888016D03*
X120904000Y-110580010D03*
X120788403Y-107859990D03*
%TO.N,/PWM_DCycle_Ref*%
X118872000Y-79248000D03*
X133350000Y-107188000D03*
X122174000Y-97790000D03*
%TO.N,/COMP_PWM*%
X127508000Y-99822000D03*
X131800000Y-107315000D03*
X127517749Y-103290182D03*
%TO.N,Net-(R12-Pad2)*%
X133858000Y-88138000D03*
%TO.N,/Sawtooth*%
X138176000Y-91694000D03*
X134874000Y-104140000D03*
X130810000Y-104902000D03*
X127407408Y-104284088D03*
X126558031Y-101854000D03*
X134874000Y-101854000D03*
%TO.N,/NE_OUT*%
X125476000Y-91948000D03*
X126492000Y-90170000D03*
%TO.N,/NE555_RST*%
X129286000Y-90932000D03*
%TO.N,Net-(C12-Pad1)*%
X127522445Y-98818260D03*
X129032000Y-107188000D03*
X128778000Y-97744962D03*
X124206000Y-104394000D03*
%TD*%
D25*
%TO.N,GND*%
X149860000Y-103695000D02*
X150050000Y-103505000D01*
X149860000Y-103886000D02*
X149860000Y-103695000D01*
X126326500Y-84836000D02*
X126365000Y-84797500D01*
X124460000Y-84836000D02*
X126326500Y-84836000D01*
X128589000Y-86614000D02*
X128970000Y-86995000D01*
X126746000Y-86614000D02*
X128589000Y-86614000D01*
X134568000Y-98298000D02*
X134568000Y-98096000D01*
X134568000Y-98096000D02*
X134620000Y-98044000D01*
X122626999Y-91314001D02*
X122626999Y-89463001D01*
X125292998Y-93980000D02*
X122626999Y-91314001D01*
X126212714Y-93980000D02*
X125292998Y-93980000D01*
X123698000Y-88392000D02*
X124414990Y-88392000D01*
X122626999Y-89463001D02*
X123698000Y-88392000D01*
X126212714Y-93980000D02*
X127762000Y-93980000D01*
X126535000Y-97155000D02*
X127025002Y-97155000D01*
X134175000Y-111760000D02*
X134175000Y-105539321D01*
X134175000Y-105539321D02*
X130598425Y-101962746D01*
X126535000Y-100838000D02*
X126534968Y-100838000D01*
X129773678Y-101137999D02*
X126834967Y-101137999D01*
X126834967Y-101137999D02*
X126534968Y-100838000D01*
X130598425Y-101962746D02*
X129773678Y-101137999D01*
X126535000Y-97155000D02*
X126535001Y-97155000D01*
X134568000Y-98298000D02*
X134568000Y-100636000D01*
X134568000Y-100636000D02*
X133350000Y-101854000D01*
X130598425Y-101962746D02*
X134075001Y-105439322D01*
X134075001Y-107536001D02*
X133571001Y-108040001D01*
X133571001Y-108040001D02*
X124446344Y-108040001D01*
X134075001Y-105439322D02*
X134075001Y-107536001D01*
X124446344Y-108040001D02*
X123699918Y-107293575D01*
%TO.N,+5V*%
X144375010Y-91797010D02*
X142748000Y-90170000D01*
X144375010Y-104743180D02*
X144375010Y-91797010D01*
X136458189Y-112660001D02*
X144375010Y-104743180D01*
X131075001Y-112660001D02*
X136458189Y-112660001D01*
X130175000Y-111760000D02*
X131075001Y-112660001D01*
%TO.N,Net-(C6-Pad1)*%
X133985000Y-90805000D02*
X134112000Y-90932000D01*
X133920000Y-90805000D02*
X133985000Y-90805000D01*
%TO.N,/Threshold*%
X134550685Y-89535000D02*
X133920000Y-89535000D01*
X135890000Y-88195685D02*
X134550685Y-89535000D01*
X135890000Y-87630000D02*
X135890000Y-88195685D01*
X128627500Y-87922500D02*
X128970000Y-88265000D01*
X126365000Y-87922500D02*
X128627500Y-87922500D01*
X131215000Y-89535000D02*
X133920000Y-89535000D01*
X129945000Y-88265000D02*
X131215000Y-89535000D01*
X128970000Y-88265000D02*
X129945000Y-88265000D01*
%TO.N,Net-(D4-Pad1)*%
X120483546Y-105664000D02*
X120146705Y-105327159D01*
X122174000Y-105664000D02*
X120483546Y-105664000D01*
X137668000Y-101854000D02*
X137668000Y-104394000D01*
%TO.N,/FAN_TRIGGER*%
X135525000Y-76120000D02*
X135525000Y-79105000D01*
X135525000Y-79105000D02*
X135382000Y-79248000D01*
X126535000Y-96205000D02*
X127000000Y-95740000D01*
X127000000Y-95740000D02*
X127000000Y-95504000D01*
X126321213Y-96205000D02*
X126535000Y-96205000D01*
X125366213Y-95250000D02*
X126321213Y-96205000D01*
X123698000Y-95250000D02*
X125366213Y-95250000D01*
X121929306Y-95250000D02*
X121539000Y-94859694D01*
X123698000Y-95250000D02*
X121929306Y-95250000D01*
X123669690Y-105889690D02*
X123669690Y-106294020D01*
X120015000Y-98425000D02*
X120015000Y-102235000D01*
X120015000Y-102235000D02*
X123669690Y-105889690D01*
%TO.N,/IN+*%
X117761000Y-82804000D02*
X117475000Y-83090000D01*
X118227839Y-82804000D02*
X117761000Y-82804000D01*
X126486840Y-74544999D02*
X118227839Y-82804000D01*
X133449999Y-74544999D02*
X126486840Y-74544999D01*
X133525000Y-74620000D02*
X133449999Y-74544999D01*
X133525000Y-76120000D02*
X133525000Y-74620000D01*
%TO.N,/IN-*%
X118625010Y-86240010D02*
X117475000Y-85090000D01*
X119858151Y-86240010D02*
X118625010Y-86240010D01*
X122288171Y-83809990D02*
X119858151Y-86240010D01*
X126685012Y-83809990D02*
X122288171Y-83809990D01*
X131525000Y-78970002D02*
X126685012Y-83809990D01*
X131525000Y-76120000D02*
X131525000Y-78970002D01*
%TO.N,/VSense*%
X129525000Y-78979000D02*
X129540000Y-78994000D01*
X129525000Y-76120000D02*
X129525000Y-78979000D01*
%TO.N,/PSU_ON*%
X129482996Y-109220000D02*
X131447997Y-111185001D01*
X131600002Y-111185001D02*
X132175001Y-111760000D01*
X123221417Y-109220000D02*
X129482996Y-109220000D01*
X119037986Y-107134988D02*
X121136405Y-107134988D01*
X121136405Y-107134988D02*
X123221417Y-109220000D01*
X115868999Y-103966001D02*
X119037986Y-107134988D01*
X115868999Y-98214003D02*
X115868999Y-103966001D01*
X115983001Y-98100001D02*
X115868999Y-98214003D01*
X115983001Y-96971999D02*
X115983001Y-98100001D01*
X115570000Y-96558998D02*
X115983001Y-96971999D01*
X131447997Y-111185001D02*
X131600002Y-111185001D01*
X115570000Y-92678000D02*
X115570000Y-96558998D01*
%TO.N,Net-(Q1-Pad1)*%
X137668000Y-96012000D02*
X137668000Y-98298000D01*
X137668000Y-96038000D02*
X137694000Y-96012000D01*
X137668000Y-98298000D02*
X137668000Y-96038000D01*
%TO.N,/2.5V*%
X134874000Y-94488000D02*
X132588000Y-94488000D01*
X132588000Y-94488000D02*
X132334000Y-94742000D01*
X138684000Y-101854010D02*
X138684000Y-104394000D01*
%TO.N,Net-(C8-Pad1)*%
X141669000Y-103886000D02*
X141224000Y-103886000D01*
X142050000Y-103505000D02*
X141669000Y-103886000D01*
X135288000Y-105627002D02*
X130810000Y-101149002D01*
X142050000Y-103505000D02*
X139927998Y-105627002D01*
X139927998Y-105627002D02*
X135288000Y-105627002D01*
X130810000Y-101149002D02*
X130810000Y-99060000D01*
X127289966Y-98105000D02*
X127604966Y-97790000D01*
X126535000Y-98105000D02*
X127289966Y-98105000D01*
%TO.N,Net-(R20-Pad1)*%
X122428000Y-101542921D02*
X122428000Y-101346000D01*
X124187304Y-103302225D02*
X122428000Y-101542921D01*
%TO.N,VCC*%
X128735000Y-94442500D02*
X129197500Y-93980000D01*
X128735000Y-96205000D02*
X128735000Y-94442500D01*
X118872000Y-88138000D02*
X121224990Y-85785010D01*
X133007500Y-86082500D02*
X133920000Y-86995000D01*
X133007500Y-85090000D02*
X133007500Y-86082500D01*
X133985000Y-86995000D02*
X134112000Y-87122000D01*
X133920000Y-86995000D02*
X133985000Y-86995000D01*
X144336000Y-89916000D02*
X144780000Y-89916000D01*
X142050000Y-87630000D02*
X144336000Y-89916000D01*
X140780000Y-86360000D02*
X134555000Y-86360000D01*
X134555000Y-86360000D02*
X133920000Y-86995000D01*
X142050000Y-87630000D02*
X140780000Y-86360000D01*
X121224990Y-85785010D02*
X125155010Y-85785010D01*
X125139990Y-85800030D02*
X125155010Y-85785010D01*
X125139990Y-90087990D02*
X125139990Y-85800030D01*
X127806990Y-92754990D02*
X125139990Y-90087990D01*
X131318000Y-92938000D02*
X131134990Y-92754990D01*
X127590010Y-85007990D02*
X129032000Y-83566000D01*
X129032000Y-83566000D02*
X131483500Y-83566000D01*
X127590010Y-85448180D02*
X127590010Y-85007990D01*
X131483500Y-83566000D02*
X133007500Y-85090000D01*
X127253180Y-85785010D02*
X127590010Y-85448180D01*
X125155010Y-85785010D02*
X127253180Y-85785010D01*
X128860010Y-93642510D02*
X129197500Y-93980000D01*
X128860010Y-92754990D02*
X128860010Y-93642510D01*
X131134990Y-92754990D02*
X128860010Y-92754990D01*
X128860010Y-92754990D02*
X127806990Y-92754990D01*
X120904000Y-110580010D02*
X120904000Y-107975587D01*
X120904000Y-107975587D02*
X120788403Y-107859990D01*
X129515000Y-96205000D02*
X129634988Y-96324988D01*
X128735000Y-96205000D02*
X129515000Y-96205000D01*
X129634988Y-96324988D02*
X129634987Y-98988029D01*
X129634987Y-98988029D02*
X128735000Y-99888016D01*
%TO.N,/PWM_DCycle_Ref*%
X133350000Y-106198000D02*
X133350000Y-107188000D01*
X128940000Y-101788000D02*
X133350000Y-106198000D01*
X128735000Y-101788000D02*
X128940000Y-101788000D01*
X122174000Y-99822000D02*
X122174000Y-97790000D01*
X124931001Y-102579001D02*
X122174000Y-99822000D01*
X127155928Y-102579001D02*
X124931001Y-102579001D01*
X127946929Y-101788000D02*
X127155928Y-102579001D01*
X128735000Y-101788000D02*
X127946929Y-101788000D01*
%TO.N,/COMP_PWM*%
X115475000Y-83090000D02*
X115475000Y-85090000D01*
X115570000Y-84995000D02*
X115475000Y-85090000D01*
X115570000Y-79248000D02*
X115570000Y-84995000D01*
X126601000Y-99822000D02*
X126535000Y-99888000D01*
X127508000Y-99822000D02*
X126601000Y-99822000D01*
X129387983Y-100613017D02*
X130084998Y-99916002D01*
X127508000Y-99822000D02*
X127508000Y-100387685D01*
X130084998Y-99916002D02*
X130084998Y-98711998D01*
X127733332Y-100613017D02*
X129387983Y-100613017D01*
X131875002Y-98080998D02*
X133944000Y-96012000D01*
X130715998Y-98080998D02*
X131875002Y-98080998D01*
X133944000Y-96012000D02*
X134594000Y-96012000D01*
X127508000Y-100387685D02*
X127733332Y-100613017D01*
X130084998Y-98711998D02*
X130715998Y-98080998D01*
X126553818Y-103290182D02*
X127517749Y-103290182D01*
X125958000Y-103886000D02*
X126553818Y-103290182D01*
X131150000Y-107315000D02*
X131800000Y-107315000D01*
X125958000Y-103886000D02*
X128534998Y-106462998D01*
X130297998Y-106462998D02*
X131150000Y-107315000D01*
X128534998Y-106462998D02*
X130297998Y-106462998D01*
X115475000Y-86165000D02*
X115475000Y-85090000D01*
X120495010Y-90069849D02*
X119288162Y-88863001D01*
X118173001Y-88863001D02*
X115475000Y-86165000D01*
X120495010Y-94841010D02*
X120495010Y-90069849D01*
X119288162Y-88863001D02*
X118173001Y-88863001D01*
X122916997Y-96429999D02*
X122083999Y-96429999D01*
X123061999Y-96575001D02*
X122916997Y-96429999D01*
X123245001Y-96575001D02*
X123061999Y-96575001D01*
X122083999Y-96429999D02*
X120495010Y-94841010D01*
X126535000Y-99865000D02*
X123245001Y-96575001D01*
X126535000Y-99888000D02*
X126535000Y-99865000D01*
%TO.N,/Sawtooth*%
X130410001Y-105301999D02*
X128425319Y-105301999D01*
X128425319Y-105301999D02*
X127407408Y-104284088D01*
X130810000Y-104902000D02*
X130410001Y-105301999D01*
X134874000Y-104140000D02*
X134874000Y-101854000D01*
X136692990Y-93177010D02*
X136692990Y-100035010D01*
X138176000Y-91694000D02*
X136692990Y-93177010D01*
X136692990Y-100035010D02*
X134874000Y-101854000D01*
%TO.N,/NE_OUT*%
X123952000Y-90678000D02*
X125222000Y-91948000D01*
X125222000Y-91948000D02*
X125476000Y-91948000D01*
X127127000Y-89535000D02*
X126492000Y-90170000D01*
X128970000Y-89535000D02*
X127127000Y-89535000D01*
%TO.N,/NE555_RST*%
X129097000Y-90932000D02*
X128970000Y-90805000D01*
X129286000Y-90932000D02*
X129097000Y-90932000D01*
%TO.N,Net-(C12-Pad1)*%
X128021740Y-98818260D02*
X127522445Y-98818260D01*
X128735000Y-98105000D02*
X128021740Y-98818260D01*
X128735000Y-97787962D02*
X128778000Y-97744962D01*
X128735000Y-98105000D02*
X128735000Y-97787962D01*
X127000000Y-107188000D02*
X124206000Y-104394000D01*
X129032000Y-107188000D02*
X127000000Y-107188000D01*
%TD*%
D26*
%TO.N,GND*%
X150880551Y-66753421D02*
X151373580Y-66902275D01*
X151828313Y-67144061D01*
X152227410Y-67469557D01*
X152555694Y-67866384D01*
X152800644Y-68319410D01*
X152952938Y-68811392D01*
X153010000Y-69354295D01*
X153010001Y-118585711D01*
X152956579Y-119130552D01*
X152807724Y-119623584D01*
X152565939Y-120078313D01*
X152240443Y-120477410D01*
X151843616Y-120805694D01*
X151390590Y-121050644D01*
X150898608Y-121202938D01*
X150355704Y-121260000D01*
X115094279Y-121260000D01*
X114549448Y-121206579D01*
X114056416Y-121057724D01*
X113601687Y-120815939D01*
X113202590Y-120490443D01*
X112874306Y-120093616D01*
X112765013Y-119891481D01*
X113968124Y-119891481D01*
X114280308Y-120340177D01*
X114876259Y-120660612D01*
X115523273Y-120858626D01*
X116196484Y-120926610D01*
X116870023Y-120861949D01*
X117518006Y-120667130D01*
X118115530Y-120349639D01*
X118129692Y-120340177D01*
X118441876Y-119891481D01*
X146988124Y-119891481D01*
X147300308Y-120340177D01*
X147896259Y-120660612D01*
X148543273Y-120858626D01*
X149216484Y-120926610D01*
X149890023Y-120861949D01*
X150538006Y-120667130D01*
X151135530Y-120349639D01*
X151149692Y-120340177D01*
X151461876Y-119891481D01*
X149225000Y-117654605D01*
X146988124Y-119891481D01*
X118441876Y-119891481D01*
X116205000Y-117654605D01*
X113968124Y-119891481D01*
X112765013Y-119891481D01*
X112629356Y-119640590D01*
X112477062Y-119148608D01*
X112420000Y-118605704D01*
X112420000Y-117466484D01*
X112753390Y-117466484D01*
X112818051Y-118140023D01*
X113012870Y-118788006D01*
X113330361Y-119385530D01*
X113339823Y-119399692D01*
X113788519Y-119711876D01*
X116025395Y-117475000D01*
X116384605Y-117475000D01*
X118621481Y-119711876D01*
X119070177Y-119399692D01*
X119390612Y-118803741D01*
X119588626Y-118156727D01*
X119656610Y-117483516D01*
X119654975Y-117466484D01*
X145773390Y-117466484D01*
X145838051Y-118140023D01*
X146032870Y-118788006D01*
X146350361Y-119385530D01*
X146359823Y-119399692D01*
X146808519Y-119711876D01*
X149045395Y-117475000D01*
X149404605Y-117475000D01*
X151641481Y-119711876D01*
X152090177Y-119399692D01*
X152410612Y-118803741D01*
X152608626Y-118156727D01*
X152676610Y-117483516D01*
X152611949Y-116809977D01*
X152417130Y-116161994D01*
X152099639Y-115564470D01*
X152090177Y-115550308D01*
X151641481Y-115238124D01*
X149404605Y-117475000D01*
X149045395Y-117475000D01*
X146808519Y-115238124D01*
X146359823Y-115550308D01*
X146039388Y-116146259D01*
X145841374Y-116793273D01*
X145773390Y-117466484D01*
X119654975Y-117466484D01*
X119591949Y-116809977D01*
X119397130Y-116161994D01*
X119079639Y-115564470D01*
X119070177Y-115550308D01*
X118621481Y-115238124D01*
X116384605Y-117475000D01*
X116025395Y-117475000D01*
X113788519Y-115238124D01*
X113339823Y-115550308D01*
X113019388Y-116146259D01*
X112821374Y-116793273D01*
X112753390Y-117466484D01*
X112420000Y-117466484D01*
X112420000Y-115058519D01*
X113968124Y-115058519D01*
X116205000Y-117295395D01*
X118441876Y-115058519D01*
X118129692Y-114609823D01*
X117533741Y-114289388D01*
X116886727Y-114091374D01*
X116361787Y-114038363D01*
X126940002Y-114038363D01*
X126940002Y-114281637D01*
X126987462Y-114520236D01*
X127080559Y-114744992D01*
X127215715Y-114947267D01*
X127387735Y-115119287D01*
X127590010Y-115254443D01*
X127814766Y-115347540D01*
X128053365Y-115395000D01*
X128296639Y-115395000D01*
X128535238Y-115347540D01*
X128759994Y-115254443D01*
X128962269Y-115119287D01*
X129134289Y-114947267D01*
X129269445Y-114744992D01*
X129362542Y-114520236D01*
X129410002Y-114281637D01*
X129410002Y-114038363D01*
X129362542Y-113799764D01*
X129269445Y-113575008D01*
X129134289Y-113372733D01*
X128962269Y-113200713D01*
X128759994Y-113065557D01*
X128535238Y-112972460D01*
X128296639Y-112925000D01*
X128053365Y-112925000D01*
X127814766Y-112972460D01*
X127590010Y-113065557D01*
X127387735Y-113200713D01*
X127215715Y-113372733D01*
X127080559Y-113575008D01*
X126987462Y-113799764D01*
X126940002Y-114038363D01*
X116361787Y-114038363D01*
X116213516Y-114023390D01*
X115539977Y-114088051D01*
X114891994Y-114282870D01*
X114294470Y-114600361D01*
X114280308Y-114609823D01*
X113968124Y-115058519D01*
X112420000Y-115058519D01*
X112420000Y-112914000D01*
X113015928Y-112914000D01*
X113028188Y-113038482D01*
X113064498Y-113158180D01*
X113123463Y-113268494D01*
X113202815Y-113365185D01*
X113299506Y-113444537D01*
X113409820Y-113503502D01*
X113529518Y-113539812D01*
X113654000Y-113552072D01*
X114268250Y-113549000D01*
X114427000Y-113390250D01*
X114427000Y-112141000D01*
X113177750Y-112141000D01*
X113019000Y-112299750D01*
X113015928Y-112914000D01*
X112420000Y-112914000D01*
X112420000Y-111114000D01*
X113015928Y-111114000D01*
X113019000Y-111728250D01*
X113177750Y-111887000D01*
X114427000Y-111887000D01*
X114427000Y-110637750D01*
X114681000Y-110637750D01*
X114681000Y-111887000D01*
X114701000Y-111887000D01*
X114701000Y-112141000D01*
X114681000Y-112141000D01*
X114681000Y-113390250D01*
X114839750Y-113549000D01*
X115454000Y-113552072D01*
X115578482Y-113539812D01*
X115698180Y-113503502D01*
X115808494Y-113444537D01*
X115905185Y-113365185D01*
X115984537Y-113268494D01*
X116043502Y-113158180D01*
X116049056Y-113139873D01*
X116115495Y-113206312D01*
X116366905Y-113374299D01*
X116646257Y-113490011D01*
X116942816Y-113549000D01*
X117245184Y-113549000D01*
X117541743Y-113490011D01*
X117821095Y-113374299D01*
X118072505Y-113206312D01*
X118286312Y-112992505D01*
X118454299Y-112741095D01*
X118570011Y-112461743D01*
X118629000Y-112165184D01*
X118629000Y-111862816D01*
X118570011Y-111566257D01*
X118454299Y-111286905D01*
X118286312Y-111035495D01*
X118072505Y-110821688D01*
X117821095Y-110653701D01*
X117541743Y-110537989D01*
X117245184Y-110479000D01*
X116942816Y-110479000D01*
X116646257Y-110537989D01*
X116366905Y-110653701D01*
X116115495Y-110821688D01*
X116049056Y-110888127D01*
X116043502Y-110869820D01*
X115984537Y-110759506D01*
X115905185Y-110662815D01*
X115808494Y-110583463D01*
X115698180Y-110524498D01*
X115578482Y-110488188D01*
X115454000Y-110475928D01*
X114839750Y-110479000D01*
X114681000Y-110637750D01*
X114427000Y-110637750D01*
X114268250Y-110479000D01*
X113654000Y-110475928D01*
X113529518Y-110488188D01*
X113409820Y-110524498D01*
X113299506Y-110583463D01*
X113202815Y-110662815D01*
X113123463Y-110759506D01*
X113064498Y-110869820D01*
X113028188Y-110989518D01*
X113015928Y-111114000D01*
X112420000Y-111114000D01*
X112420000Y-101970000D01*
X113015928Y-101970000D01*
X113015928Y-103770000D01*
X113028188Y-103894482D01*
X113064498Y-104014180D01*
X113123463Y-104124494D01*
X113202815Y-104221185D01*
X113299506Y-104300537D01*
X113409820Y-104359502D01*
X113529518Y-104395812D01*
X113654000Y-104408072D01*
X115248629Y-104408072D01*
X115305200Y-104477003D01*
X115328999Y-104506002D01*
X115357997Y-104529800D01*
X116769642Y-105941446D01*
X116646257Y-105965989D01*
X116366905Y-106081701D01*
X116115495Y-106249688D01*
X116049056Y-106316127D01*
X116043502Y-106297820D01*
X115984537Y-106187506D01*
X115905185Y-106090815D01*
X115808494Y-106011463D01*
X115698180Y-105952498D01*
X115578482Y-105916188D01*
X115454000Y-105903928D01*
X113654000Y-105903928D01*
X113529518Y-105916188D01*
X113409820Y-105952498D01*
X113299506Y-106011463D01*
X113202815Y-106090815D01*
X113123463Y-106187506D01*
X113064498Y-106297820D01*
X113028188Y-106417518D01*
X113015928Y-106542000D01*
X113015928Y-108342000D01*
X113028188Y-108466482D01*
X113064498Y-108586180D01*
X113123463Y-108696494D01*
X113202815Y-108793185D01*
X113299506Y-108872537D01*
X113409820Y-108931502D01*
X113529518Y-108967812D01*
X113654000Y-108980072D01*
X115454000Y-108980072D01*
X115578482Y-108967812D01*
X115698180Y-108931502D01*
X115808494Y-108872537D01*
X115905185Y-108793185D01*
X115984537Y-108696494D01*
X116043502Y-108586180D01*
X116049056Y-108567873D01*
X116115495Y-108634312D01*
X116366905Y-108802299D01*
X116646257Y-108918011D01*
X116942816Y-108977000D01*
X117245184Y-108977000D01*
X117541743Y-108918011D01*
X117821095Y-108802299D01*
X118072505Y-108634312D01*
X118286312Y-108420505D01*
X118454299Y-108169095D01*
X118570011Y-107889743D01*
X118596626Y-107755941D01*
X118613710Y-107769962D01*
X118745739Y-107840534D01*
X118889000Y-107883991D01*
X119000653Y-107894988D01*
X119000662Y-107894988D01*
X119037985Y-107898664D01*
X119075308Y-107894988D01*
X119753403Y-107894988D01*
X119753403Y-107961929D01*
X119793177Y-108161888D01*
X119871198Y-108350246D01*
X119984466Y-108519764D01*
X120128629Y-108663927D01*
X120144001Y-108674198D01*
X120144000Y-109876299D01*
X120100063Y-109920236D01*
X119986795Y-110089754D01*
X119908774Y-110278112D01*
X119869000Y-110478071D01*
X119869000Y-110681949D01*
X119908774Y-110881908D01*
X119986795Y-111070266D01*
X120100063Y-111239784D01*
X120244226Y-111383947D01*
X120413744Y-111497215D01*
X120602102Y-111575236D01*
X120802061Y-111615010D01*
X121005939Y-111615010D01*
X121205898Y-111575236D01*
X121394256Y-111497215D01*
X121563774Y-111383947D01*
X121707937Y-111239784D01*
X121821205Y-111070266D01*
X121899226Y-110881908D01*
X121939000Y-110681949D01*
X121939000Y-110478071D01*
X121899226Y-110278112D01*
X121821205Y-110089754D01*
X121707937Y-109920236D01*
X121664000Y-109876299D01*
X121664000Y-108737385D01*
X122657617Y-109731002D01*
X122681416Y-109760001D01*
X122797141Y-109854974D01*
X122929170Y-109925546D01*
X123072431Y-109969003D01*
X123184084Y-109980000D01*
X123184093Y-109980000D01*
X123221416Y-109983676D01*
X123258739Y-109980000D01*
X129168195Y-109980000D01*
X129735123Y-110546928D01*
X129600000Y-110546928D01*
X129475518Y-110559188D01*
X129355820Y-110595498D01*
X129245506Y-110654463D01*
X129148815Y-110733815D01*
X129069463Y-110830506D01*
X129010498Y-110940820D01*
X128974188Y-111060518D01*
X128961928Y-111185000D01*
X128961928Y-112335000D01*
X128974188Y-112459482D01*
X129010498Y-112579180D01*
X129069463Y-112689494D01*
X129148815Y-112786185D01*
X129245506Y-112865537D01*
X129355820Y-112924502D01*
X129475518Y-112960812D01*
X129600000Y-112973072D01*
X130313270Y-112973072D01*
X130511202Y-113171004D01*
X130535000Y-113200002D01*
X130563998Y-113223800D01*
X130650725Y-113294975D01*
X130782754Y-113365547D01*
X130926015Y-113409004D01*
X131075001Y-113423678D01*
X131112334Y-113420001D01*
X135184114Y-113420001D01*
X135080542Y-113575008D01*
X134987445Y-113799764D01*
X134939985Y-114038363D01*
X134939985Y-114281637D01*
X134987445Y-114520236D01*
X135080542Y-114744992D01*
X135215698Y-114947267D01*
X135387718Y-115119287D01*
X135589993Y-115254443D01*
X135814749Y-115347540D01*
X136053348Y-115395000D01*
X136296622Y-115395000D01*
X136535221Y-115347540D01*
X136759977Y-115254443D01*
X136962252Y-115119287D01*
X137023020Y-115058519D01*
X146988124Y-115058519D01*
X149225000Y-117295395D01*
X151461876Y-115058519D01*
X151149692Y-114609823D01*
X150553741Y-114289388D01*
X149906727Y-114091374D01*
X149233516Y-114023390D01*
X148559977Y-114088051D01*
X147911994Y-114282870D01*
X147314470Y-114600361D01*
X147300308Y-114609823D01*
X146988124Y-115058519D01*
X137023020Y-115058519D01*
X137134272Y-114947267D01*
X137269428Y-114744992D01*
X137362525Y-114520236D01*
X137409985Y-114281637D01*
X137409985Y-114038363D01*
X137362525Y-113799764D01*
X137269428Y-113575008D01*
X137134272Y-113372733D01*
X136978061Y-113216522D01*
X136998190Y-113200002D01*
X137021993Y-113170998D01*
X144886014Y-105306978D01*
X144915011Y-105283181D01*
X145009984Y-105167456D01*
X145080556Y-105035427D01*
X145124013Y-104892166D01*
X145135010Y-104780513D01*
X145135010Y-104780512D01*
X145137522Y-104755000D01*
X147411928Y-104755000D01*
X147424188Y-104879482D01*
X147460498Y-104999180D01*
X147519463Y-105109494D01*
X147598815Y-105206185D01*
X147695506Y-105285537D01*
X147805820Y-105344502D01*
X147925518Y-105380812D01*
X148050000Y-105393072D01*
X149764250Y-105390000D01*
X149923000Y-105231250D01*
X149923000Y-103632000D01*
X150177000Y-103632000D01*
X150177000Y-105231250D01*
X150335750Y-105390000D01*
X152050000Y-105393072D01*
X152174482Y-105380812D01*
X152294180Y-105344502D01*
X152404494Y-105285537D01*
X152501185Y-105206185D01*
X152580537Y-105109494D01*
X152639502Y-104999180D01*
X152675812Y-104879482D01*
X152688072Y-104755000D01*
X152685000Y-103790750D01*
X152526250Y-103632000D01*
X150177000Y-103632000D01*
X149923000Y-103632000D01*
X147573750Y-103632000D01*
X147415000Y-103790750D01*
X147411928Y-104755000D01*
X145137522Y-104755000D01*
X145138687Y-104743180D01*
X145135010Y-104705847D01*
X145135010Y-102255000D01*
X147411928Y-102255000D01*
X147415000Y-103219250D01*
X147573750Y-103378000D01*
X149923000Y-103378000D01*
X149923000Y-101778750D01*
X150177000Y-101778750D01*
X150177000Y-103378000D01*
X152526250Y-103378000D01*
X152685000Y-103219250D01*
X152688072Y-102255000D01*
X152675812Y-102130518D01*
X152639502Y-102010820D01*
X152580537Y-101900506D01*
X152501185Y-101803815D01*
X152404494Y-101724463D01*
X152294180Y-101665498D01*
X152174482Y-101629188D01*
X152050000Y-101616928D01*
X150335750Y-101620000D01*
X150177000Y-101778750D01*
X149923000Y-101778750D01*
X149764250Y-101620000D01*
X148050000Y-101616928D01*
X147925518Y-101629188D01*
X147805820Y-101665498D01*
X147695506Y-101724463D01*
X147598815Y-101803815D01*
X147519463Y-101900506D01*
X147460498Y-102010820D01*
X147424188Y-102130518D01*
X147411928Y-102255000D01*
X145135010Y-102255000D01*
X145135010Y-91834343D01*
X145138687Y-91797010D01*
X145124013Y-91648024D01*
X145080556Y-91504763D01*
X145009984Y-91372734D01*
X144938809Y-91286007D01*
X144915011Y-91257009D01*
X144886013Y-91233211D01*
X144585363Y-90932561D01*
X144678061Y-90951000D01*
X144881939Y-90951000D01*
X145081898Y-90911226D01*
X145270256Y-90833205D01*
X145439774Y-90719937D01*
X145583937Y-90575774D01*
X145697205Y-90406256D01*
X145775226Y-90217898D01*
X145815000Y-90017939D01*
X145815000Y-89814061D01*
X145775226Y-89614102D01*
X145697205Y-89425744D01*
X145583937Y-89256226D01*
X145439774Y-89112063D01*
X145270256Y-88998795D01*
X145081898Y-88920774D01*
X144881939Y-88881000D01*
X144678061Y-88881000D01*
X144645457Y-88887485D01*
X144647727Y-88880000D01*
X147411928Y-88880000D01*
X147424188Y-89004482D01*
X147460498Y-89124180D01*
X147519463Y-89234494D01*
X147598815Y-89331185D01*
X147695506Y-89410537D01*
X147805820Y-89469502D01*
X147925518Y-89505812D01*
X148050000Y-89518072D01*
X149764250Y-89515000D01*
X149923000Y-89356250D01*
X149923000Y-87757000D01*
X150177000Y-87757000D01*
X150177000Y-89356250D01*
X150335750Y-89515000D01*
X152050000Y-89518072D01*
X152174482Y-89505812D01*
X152294180Y-89469502D01*
X152404494Y-89410537D01*
X152501185Y-89331185D01*
X152580537Y-89234494D01*
X152639502Y-89124180D01*
X152675812Y-89004482D01*
X152688072Y-88880000D01*
X152685000Y-87915750D01*
X152526250Y-87757000D01*
X150177000Y-87757000D01*
X149923000Y-87757000D01*
X147573750Y-87757000D01*
X147415000Y-87915750D01*
X147411928Y-88880000D01*
X144647727Y-88880000D01*
X144671008Y-88803254D01*
X144688072Y-88630000D01*
X144688072Y-86630000D01*
X144671008Y-86456746D01*
X144647728Y-86380000D01*
X147411928Y-86380000D01*
X147415000Y-87344250D01*
X147573750Y-87503000D01*
X149923000Y-87503000D01*
X149923000Y-85903750D01*
X150177000Y-85903750D01*
X150177000Y-87503000D01*
X152526250Y-87503000D01*
X152685000Y-87344250D01*
X152688072Y-86380000D01*
X152675812Y-86255518D01*
X152639502Y-86135820D01*
X152580537Y-86025506D01*
X152501185Y-85928815D01*
X152404494Y-85849463D01*
X152294180Y-85790498D01*
X152174482Y-85754188D01*
X152050000Y-85741928D01*
X150335750Y-85745000D01*
X150177000Y-85903750D01*
X149923000Y-85903750D01*
X149764250Y-85745000D01*
X148050000Y-85741928D01*
X147925518Y-85754188D01*
X147805820Y-85790498D01*
X147695506Y-85849463D01*
X147598815Y-85928815D01*
X147519463Y-86025506D01*
X147460498Y-86135820D01*
X147424188Y-86255518D01*
X147411928Y-86380000D01*
X144647728Y-86380000D01*
X144620472Y-86290150D01*
X144538405Y-86136614D01*
X144427962Y-86002038D01*
X144293386Y-85891595D01*
X144139850Y-85809528D01*
X143973254Y-85758992D01*
X143800000Y-85741928D01*
X141224871Y-85741928D01*
X141204276Y-85725026D01*
X141072247Y-85654454D01*
X140928986Y-85610997D01*
X140817333Y-85600000D01*
X140817322Y-85600000D01*
X140780000Y-85596324D01*
X140742678Y-85600000D01*
X134592333Y-85600000D01*
X134555000Y-85596323D01*
X134517667Y-85600000D01*
X134406014Y-85610997D01*
X134292366Y-85645471D01*
X134308072Y-85486001D01*
X134308072Y-84185999D01*
X134291008Y-84012745D01*
X134240472Y-83846149D01*
X134158405Y-83692613D01*
X134047962Y-83558038D01*
X133913387Y-83447595D01*
X133759851Y-83365528D01*
X133593255Y-83314992D01*
X133420001Y-83297928D01*
X132594999Y-83297928D01*
X132421745Y-83314992D01*
X132333931Y-83341630D01*
X132047303Y-83055002D01*
X132023501Y-83025999D01*
X131907776Y-82931026D01*
X131775747Y-82860454D01*
X131632486Y-82816997D01*
X131520833Y-82806000D01*
X131520822Y-82806000D01*
X131483500Y-82802324D01*
X131446178Y-82806000D01*
X129069323Y-82806000D01*
X129032000Y-82802324D01*
X128994677Y-82806000D01*
X128994667Y-82806000D01*
X128883014Y-82816997D01*
X128739753Y-82860454D01*
X128674436Y-82895367D01*
X132036003Y-79533801D01*
X132065001Y-79510003D01*
X132159974Y-79394278D01*
X132230546Y-79262249D01*
X132274003Y-79118988D01*
X132285000Y-79007335D01*
X132285000Y-79007327D01*
X132288676Y-78970002D01*
X132285000Y-78932677D01*
X132285000Y-77951046D01*
X132379494Y-77900537D01*
X132476185Y-77821185D01*
X132525000Y-77761704D01*
X132573815Y-77821185D01*
X132670506Y-77900537D01*
X132780820Y-77959502D01*
X132900518Y-77995812D01*
X133025000Y-78008072D01*
X134025000Y-78008072D01*
X134149482Y-77995812D01*
X134269180Y-77959502D01*
X134379494Y-77900537D01*
X134476185Y-77821185D01*
X134525000Y-77761704D01*
X134573815Y-77821185D01*
X134670506Y-77900537D01*
X134765001Y-77951046D01*
X134765001Y-78415482D01*
X134722226Y-78444063D01*
X134578063Y-78588226D01*
X134464795Y-78757744D01*
X134386774Y-78946102D01*
X134347000Y-79146061D01*
X134347000Y-79349939D01*
X134386774Y-79549898D01*
X134464795Y-79738256D01*
X134578063Y-79907774D01*
X134722226Y-80051937D01*
X134891744Y-80165205D01*
X135080102Y-80243226D01*
X135280061Y-80283000D01*
X135483939Y-80283000D01*
X135683898Y-80243226D01*
X135872256Y-80165205D01*
X136041774Y-80051937D01*
X136185937Y-79907774D01*
X136299205Y-79738256D01*
X136377226Y-79549898D01*
X136417000Y-79349939D01*
X136417000Y-79146061D01*
X136377226Y-78946102D01*
X136299205Y-78757744D01*
X136285000Y-78736485D01*
X136285000Y-77951046D01*
X136379494Y-77900537D01*
X136476185Y-77821185D01*
X136525000Y-77761704D01*
X136573815Y-77821185D01*
X136670506Y-77900537D01*
X136780820Y-77959502D01*
X136900518Y-77995812D01*
X137025000Y-78008072D01*
X138025000Y-78008072D01*
X138149482Y-77995812D01*
X138269180Y-77959502D01*
X138379494Y-77900537D01*
X138476185Y-77821185D01*
X138555537Y-77724494D01*
X138614502Y-77614180D01*
X138650812Y-77494482D01*
X138663072Y-77370000D01*
X138663072Y-74870000D01*
X138650812Y-74745518D01*
X138630644Y-74679032D01*
X138637998Y-74685203D01*
X138640102Y-74686360D01*
X138641953Y-74687891D01*
X138698639Y-74718541D01*
X138755150Y-74749608D01*
X138757442Y-74750335D01*
X138759552Y-74751476D01*
X138821084Y-74770524D01*
X138882580Y-74790031D01*
X138884968Y-74790299D01*
X138887262Y-74791009D01*
X138951366Y-74797746D01*
X139015436Y-74804933D01*
X139020050Y-74804965D01*
X139020218Y-74804983D01*
X139020386Y-74804968D01*
X139025000Y-74805000D01*
X141025000Y-74805000D01*
X141089145Y-74798710D01*
X141153356Y-74792867D01*
X141155662Y-74792188D01*
X141158051Y-74791954D01*
X141219723Y-74773334D01*
X141281606Y-74755121D01*
X141283736Y-74754008D01*
X141286033Y-74753314D01*
X141342886Y-74723084D01*
X141400081Y-74693184D01*
X141401955Y-74691677D01*
X141404073Y-74690551D01*
X141453986Y-74649843D01*
X141504269Y-74609414D01*
X141505813Y-74607573D01*
X141507674Y-74606056D01*
X141548766Y-74556384D01*
X141590203Y-74507002D01*
X141591360Y-74504898D01*
X141592891Y-74503047D01*
X141623541Y-74446361D01*
X141654608Y-74389850D01*
X141655335Y-74387558D01*
X141656476Y-74385448D01*
X141675524Y-74323916D01*
X141695031Y-74262420D01*
X141695299Y-74260032D01*
X141696009Y-74257738D01*
X141702746Y-74193634D01*
X141709933Y-74129564D01*
X141709965Y-74124950D01*
X141709983Y-74124782D01*
X141709968Y-74124614D01*
X141710000Y-74120000D01*
X141710000Y-73282481D01*
X146607124Y-73282481D01*
X146919308Y-73731177D01*
X147515259Y-74051612D01*
X148162273Y-74249626D01*
X148835484Y-74317610D01*
X149509023Y-74252949D01*
X150157006Y-74058130D01*
X150754530Y-73740639D01*
X150768692Y-73731177D01*
X151080876Y-73282481D01*
X148844000Y-71045605D01*
X146607124Y-73282481D01*
X141710000Y-73282481D01*
X141710000Y-70857484D01*
X145392390Y-70857484D01*
X145457051Y-71531023D01*
X145651870Y-72179006D01*
X145969361Y-72776530D01*
X145978823Y-72790692D01*
X146427519Y-73102876D01*
X148664395Y-70866000D01*
X149023605Y-70866000D01*
X151260481Y-73102876D01*
X151709177Y-72790692D01*
X152029612Y-72194741D01*
X152227626Y-71547727D01*
X152295610Y-70874516D01*
X152230949Y-70200977D01*
X152036130Y-69552994D01*
X151718639Y-68955470D01*
X151709177Y-68941308D01*
X151260481Y-68629124D01*
X149023605Y-70866000D01*
X148664395Y-70866000D01*
X146427519Y-68629124D01*
X145978823Y-68941308D01*
X145658388Y-69537259D01*
X145460374Y-70184273D01*
X145392390Y-70857484D01*
X141710000Y-70857484D01*
X141710000Y-70120000D01*
X141703710Y-70055855D01*
X141697867Y-69991644D01*
X141697188Y-69989338D01*
X141696954Y-69986949D01*
X141678334Y-69925277D01*
X141660121Y-69863394D01*
X141659008Y-69861264D01*
X141658314Y-69858967D01*
X141628084Y-69802114D01*
X141598184Y-69744919D01*
X141596677Y-69743045D01*
X141595551Y-69740927D01*
X141554843Y-69691014D01*
X141514414Y-69640731D01*
X141512573Y-69639187D01*
X141511056Y-69637326D01*
X141461384Y-69596234D01*
X141412002Y-69554797D01*
X141409898Y-69553640D01*
X141408047Y-69552109D01*
X141351361Y-69521459D01*
X141294850Y-69490392D01*
X141292558Y-69489665D01*
X141290448Y-69488524D01*
X141228916Y-69469476D01*
X141167420Y-69449969D01*
X141165032Y-69449701D01*
X141162738Y-69448991D01*
X141098634Y-69442254D01*
X141034564Y-69435067D01*
X141029950Y-69435035D01*
X141029782Y-69435017D01*
X141029614Y-69435032D01*
X141025000Y-69435000D01*
X139025000Y-69435000D01*
X138960855Y-69441290D01*
X138896644Y-69447133D01*
X138894338Y-69447812D01*
X138891949Y-69448046D01*
X138830277Y-69466666D01*
X138768394Y-69484879D01*
X138766264Y-69485992D01*
X138763967Y-69486686D01*
X138707114Y-69516916D01*
X138649919Y-69546816D01*
X138648045Y-69548323D01*
X138645927Y-69549449D01*
X138596014Y-69590157D01*
X138545731Y-69630586D01*
X138544187Y-69632427D01*
X138542326Y-69633944D01*
X138501234Y-69683616D01*
X138459797Y-69732998D01*
X138458640Y-69735102D01*
X138457109Y-69736953D01*
X138426459Y-69793639D01*
X138395392Y-69850150D01*
X138394665Y-69852442D01*
X138393524Y-69854552D01*
X138374476Y-69916084D01*
X138354969Y-69977580D01*
X138354701Y-69979968D01*
X138353991Y-69982262D01*
X138347254Y-70046366D01*
X138340067Y-70110436D01*
X138340035Y-70115050D01*
X138340017Y-70115218D01*
X138340032Y-70115386D01*
X138340000Y-70120000D01*
X138340000Y-74120000D01*
X138346290Y-74184145D01*
X138352133Y-74248356D01*
X138352812Y-74250662D01*
X138353046Y-74253051D01*
X138371666Y-74314723D01*
X138378845Y-74339116D01*
X138269180Y-74280498D01*
X138149482Y-74244188D01*
X138025000Y-74231928D01*
X137025000Y-74231928D01*
X136900518Y-74244188D01*
X136780820Y-74280498D01*
X136670506Y-74339463D01*
X136573815Y-74418815D01*
X136525000Y-74478296D01*
X136476185Y-74418815D01*
X136379494Y-74339463D01*
X136269180Y-74280498D01*
X136149482Y-74244188D01*
X136025000Y-74231928D01*
X135025000Y-74231928D01*
X134900518Y-74244188D01*
X134780820Y-74280498D01*
X134670506Y-74339463D01*
X134573815Y-74418815D01*
X134525000Y-74478296D01*
X134476185Y-74418815D01*
X134379494Y-74339463D01*
X134269180Y-74280498D01*
X134192923Y-74257366D01*
X134159974Y-74195724D01*
X134065001Y-74079999D01*
X134036001Y-74056199D01*
X134013801Y-74033999D01*
X133990000Y-74004998D01*
X133874275Y-73910025D01*
X133742246Y-73839453D01*
X133598985Y-73795996D01*
X133487332Y-73784999D01*
X133487321Y-73784999D01*
X133449999Y-73781323D01*
X133412677Y-73784999D01*
X126710000Y-73784999D01*
X126710000Y-70120000D01*
X126703710Y-70055855D01*
X126697867Y-69991644D01*
X126697188Y-69989338D01*
X126696954Y-69986949D01*
X126678334Y-69925277D01*
X126660121Y-69863394D01*
X126659008Y-69861264D01*
X126658314Y-69858967D01*
X126628084Y-69802114D01*
X126598184Y-69744919D01*
X126596677Y-69743045D01*
X126595551Y-69740927D01*
X126554843Y-69691014D01*
X126514414Y-69640731D01*
X126512573Y-69639187D01*
X126511056Y-69637326D01*
X126461384Y-69596234D01*
X126412002Y-69554797D01*
X126409898Y-69553640D01*
X126408047Y-69552109D01*
X126351361Y-69521459D01*
X126294850Y-69490392D01*
X126292558Y-69489665D01*
X126290448Y-69488524D01*
X126228916Y-69469476D01*
X126167420Y-69449969D01*
X126165032Y-69449701D01*
X126162738Y-69448991D01*
X126098634Y-69442254D01*
X126034564Y-69435067D01*
X126029950Y-69435035D01*
X126029782Y-69435017D01*
X126029614Y-69435032D01*
X126025000Y-69435000D01*
X124025000Y-69435000D01*
X123960855Y-69441290D01*
X123896644Y-69447133D01*
X123894338Y-69447812D01*
X123891949Y-69448046D01*
X123830277Y-69466666D01*
X123768394Y-69484879D01*
X123766264Y-69485992D01*
X123763967Y-69486686D01*
X123707114Y-69516916D01*
X123649919Y-69546816D01*
X123648045Y-69548323D01*
X123645927Y-69549449D01*
X123596014Y-69590157D01*
X123545731Y-69630586D01*
X123544187Y-69632427D01*
X123542326Y-69633944D01*
X123501234Y-69683616D01*
X123459797Y-69732998D01*
X123458640Y-69735102D01*
X123457109Y-69736953D01*
X123426459Y-69793639D01*
X123395392Y-69850150D01*
X123394665Y-69852442D01*
X123393524Y-69854552D01*
X123374476Y-69916084D01*
X123354969Y-69977580D01*
X123354701Y-69979968D01*
X123353991Y-69982262D01*
X123347254Y-70046366D01*
X123340067Y-70110436D01*
X123340035Y-70115050D01*
X123340017Y-70115218D01*
X123340032Y-70115386D01*
X123340000Y-70120000D01*
X123340000Y-74120000D01*
X123346290Y-74184145D01*
X123352133Y-74248356D01*
X123352812Y-74250662D01*
X123353046Y-74253051D01*
X123371666Y-74314723D01*
X123389879Y-74376606D01*
X123390992Y-74378736D01*
X123391686Y-74381033D01*
X123421916Y-74437886D01*
X123451816Y-74495081D01*
X123453323Y-74496955D01*
X123454449Y-74499073D01*
X123495157Y-74548986D01*
X123535586Y-74599269D01*
X123537427Y-74600813D01*
X123538944Y-74602674D01*
X123588616Y-74643766D01*
X123637998Y-74685203D01*
X123640102Y-74686360D01*
X123641953Y-74687891D01*
X123698639Y-74718541D01*
X123755150Y-74749608D01*
X123757442Y-74750335D01*
X123759552Y-74751476D01*
X123821084Y-74770524D01*
X123882580Y-74790031D01*
X123884968Y-74790299D01*
X123887262Y-74791009D01*
X123951366Y-74797746D01*
X124015436Y-74804933D01*
X124020050Y-74804965D01*
X124020218Y-74804983D01*
X124020386Y-74804968D01*
X124025000Y-74805000D01*
X125152037Y-74805000D01*
X120496818Y-79460219D01*
X120507000Y-79409033D01*
X120507000Y-79086967D01*
X120444168Y-78771088D01*
X120320918Y-78473537D01*
X120141987Y-78205748D01*
X119914252Y-77978013D01*
X119646463Y-77799082D01*
X119348912Y-77675832D01*
X119033033Y-77613000D01*
X118710967Y-77613000D01*
X118395088Y-77675832D01*
X118097537Y-77799082D01*
X117829748Y-77978013D01*
X117602013Y-78205748D01*
X117423082Y-78473537D01*
X117299832Y-78771088D01*
X117237000Y-79086967D01*
X117237000Y-79409033D01*
X117299832Y-79724912D01*
X117423082Y-80022463D01*
X117602013Y-80290252D01*
X117829748Y-80517987D01*
X118097537Y-80696918D01*
X118395088Y-80820168D01*
X118710967Y-80883000D01*
X119033033Y-80883000D01*
X119084219Y-80872818D01*
X118138005Y-81819033D01*
X117949900Y-81718489D01*
X117717101Y-81647870D01*
X117475000Y-81624025D01*
X117232898Y-81647870D01*
X117000099Y-81718489D01*
X116785551Y-81833167D01*
X116597498Y-81987498D01*
X116565809Y-82026111D01*
X116563405Y-82021613D01*
X116452962Y-81887038D01*
X116330000Y-81786126D01*
X116330000Y-80702909D01*
X116344463Y-80696918D01*
X116612252Y-80517987D01*
X116839987Y-80290252D01*
X117018918Y-80022463D01*
X117142168Y-79724912D01*
X117205000Y-79409033D01*
X117205000Y-79086967D01*
X117142168Y-78771088D01*
X117018918Y-78473537D01*
X116839987Y-78205748D01*
X116612252Y-77978013D01*
X116344463Y-77799082D01*
X116046912Y-77675832D01*
X115731033Y-77613000D01*
X115408967Y-77613000D01*
X115093088Y-77675832D01*
X114795537Y-77799082D01*
X114527748Y-77978013D01*
X114300013Y-78205748D01*
X114121082Y-78473537D01*
X113997832Y-78771088D01*
X113935000Y-79086967D01*
X113935000Y-79409033D01*
X113997832Y-79724912D01*
X114121082Y-80022463D01*
X114300013Y-80290252D01*
X114527748Y-80517987D01*
X114795537Y-80696918D01*
X114810000Y-80702909D01*
X114810000Y-81686989D01*
X114785149Y-81694528D01*
X114631613Y-81776595D01*
X114497038Y-81887038D01*
X114386595Y-82021613D01*
X114304528Y-82175149D01*
X114253992Y-82341745D01*
X114236928Y-82514999D01*
X114236928Y-83665001D01*
X114253992Y-83838255D01*
X114304528Y-84004851D01*
X114386595Y-84158387D01*
X114426410Y-84206902D01*
X114328489Y-84390100D01*
X114257870Y-84622899D01*
X114240000Y-84804336D01*
X114240000Y-85375665D01*
X114257870Y-85557102D01*
X114328489Y-85789901D01*
X114443168Y-86004449D01*
X114597499Y-86192502D01*
X114724280Y-86296548D01*
X114725997Y-86313985D01*
X114762707Y-86435004D01*
X114769454Y-86457246D01*
X114840026Y-86589276D01*
X114873448Y-86630000D01*
X114934999Y-86705001D01*
X114964003Y-86728804D01*
X117458231Y-89223033D01*
X117327898Y-89235870D01*
X117095099Y-89306489D01*
X116880551Y-89421167D01*
X116692498Y-89575498D01*
X116660809Y-89614111D01*
X116658405Y-89609613D01*
X116547962Y-89475038D01*
X116413387Y-89364595D01*
X116259851Y-89282528D01*
X116093255Y-89231992D01*
X115920001Y-89214928D01*
X115219999Y-89214928D01*
X115046745Y-89231992D01*
X114880149Y-89282528D01*
X114726613Y-89364595D01*
X114592038Y-89475038D01*
X114481595Y-89609613D01*
X114399528Y-89763149D01*
X114348992Y-89929745D01*
X114331928Y-90102999D01*
X114331928Y-91253001D01*
X114348992Y-91426255D01*
X114399528Y-91592851D01*
X114481595Y-91746387D01*
X114521410Y-91794902D01*
X114423489Y-91978100D01*
X114352870Y-92210899D01*
X114335000Y-92392336D01*
X114335000Y-92963665D01*
X114352870Y-93145102D01*
X114423489Y-93377901D01*
X114538168Y-93592449D01*
X114692499Y-93780502D01*
X114810000Y-93876933D01*
X114810001Y-96051000D01*
X114661740Y-96051000D01*
X114374842Y-96108068D01*
X114104589Y-96220010D01*
X113861368Y-96382525D01*
X113654525Y-96589368D01*
X113492010Y-96832589D01*
X113380068Y-97102842D01*
X113323000Y-97389740D01*
X113323000Y-97682260D01*
X113380068Y-97969158D01*
X113492010Y-98239411D01*
X113654525Y-98482632D01*
X113861368Y-98689475D01*
X114104589Y-98851990D01*
X114374842Y-98963932D01*
X114661740Y-99021000D01*
X114954260Y-99021000D01*
X115108999Y-98990220D01*
X115109000Y-101331928D01*
X113654000Y-101331928D01*
X113529518Y-101344188D01*
X113409820Y-101380498D01*
X113299506Y-101439463D01*
X113202815Y-101518815D01*
X113123463Y-101615506D01*
X113064498Y-101725820D01*
X113028188Y-101845518D01*
X113015928Y-101970000D01*
X112420000Y-101970000D01*
X112420000Y-73282481D01*
X114603124Y-73282481D01*
X114915308Y-73731177D01*
X115511259Y-74051612D01*
X116158273Y-74249626D01*
X116831484Y-74317610D01*
X117505023Y-74252949D01*
X118153006Y-74058130D01*
X118750530Y-73740639D01*
X118764692Y-73731177D01*
X119076876Y-73282481D01*
X116840000Y-71045605D01*
X114603124Y-73282481D01*
X112420000Y-73282481D01*
X112420000Y-70857484D01*
X113388390Y-70857484D01*
X113453051Y-71531023D01*
X113647870Y-72179006D01*
X113965361Y-72776530D01*
X113974823Y-72790692D01*
X114423519Y-73102876D01*
X116660395Y-70866000D01*
X117019605Y-70866000D01*
X119256481Y-73102876D01*
X119705177Y-72790692D01*
X120025612Y-72194741D01*
X120223626Y-71547727D01*
X120291610Y-70874516D01*
X120226949Y-70200977D01*
X120032130Y-69552994D01*
X119714639Y-68955470D01*
X119705177Y-68941308D01*
X119256481Y-68629124D01*
X117019605Y-70866000D01*
X116660395Y-70866000D01*
X114423519Y-68629124D01*
X113974823Y-68941308D01*
X113654388Y-69537259D01*
X113456374Y-70184273D01*
X113388390Y-70857484D01*
X112420000Y-70857484D01*
X112420000Y-69374279D01*
X112473421Y-68829449D01*
X112588128Y-68449519D01*
X114603124Y-68449519D01*
X116840000Y-70686395D01*
X119076876Y-68449519D01*
X146607124Y-68449519D01*
X148844000Y-70686395D01*
X151080876Y-68449519D01*
X150768692Y-68000823D01*
X150172741Y-67680388D01*
X149525727Y-67482374D01*
X148852516Y-67414390D01*
X148178977Y-67479051D01*
X147530994Y-67673870D01*
X146933470Y-67991361D01*
X146919308Y-68000823D01*
X146607124Y-68449519D01*
X119076876Y-68449519D01*
X118764692Y-68000823D01*
X118168741Y-67680388D01*
X117521727Y-67482374D01*
X116848516Y-67414390D01*
X116174977Y-67479051D01*
X115526994Y-67673870D01*
X114929470Y-67991361D01*
X114915308Y-68000823D01*
X114603124Y-68449519D01*
X112588128Y-68449519D01*
X112622275Y-68336420D01*
X112864061Y-67881687D01*
X113189557Y-67482590D01*
X113586384Y-67154306D01*
X114039410Y-66909356D01*
X114531392Y-66757062D01*
X115074295Y-66700000D01*
X150335721Y-66700000D01*
X150880551Y-66753421D01*
%TA.AperFunction,Conductor*%
D27*
G36*
X150880551Y-66753421D02*
G01*
X151373580Y-66902275D01*
X151828313Y-67144061D01*
X152227410Y-67469557D01*
X152555694Y-67866384D01*
X152800644Y-68319410D01*
X152952938Y-68811392D01*
X153010000Y-69354295D01*
X153010001Y-118585711D01*
X152956579Y-119130552D01*
X152807724Y-119623584D01*
X152565939Y-120078313D01*
X152240443Y-120477410D01*
X151843616Y-120805694D01*
X151390590Y-121050644D01*
X150898608Y-121202938D01*
X150355704Y-121260000D01*
X115094279Y-121260000D01*
X114549448Y-121206579D01*
X114056416Y-121057724D01*
X113601687Y-120815939D01*
X113202590Y-120490443D01*
X112874306Y-120093616D01*
X112765013Y-119891481D01*
X113968124Y-119891481D01*
X114280308Y-120340177D01*
X114876259Y-120660612D01*
X115523273Y-120858626D01*
X116196484Y-120926610D01*
X116870023Y-120861949D01*
X117518006Y-120667130D01*
X118115530Y-120349639D01*
X118129692Y-120340177D01*
X118441876Y-119891481D01*
X146988124Y-119891481D01*
X147300308Y-120340177D01*
X147896259Y-120660612D01*
X148543273Y-120858626D01*
X149216484Y-120926610D01*
X149890023Y-120861949D01*
X150538006Y-120667130D01*
X151135530Y-120349639D01*
X151149692Y-120340177D01*
X151461876Y-119891481D01*
X149225000Y-117654605D01*
X146988124Y-119891481D01*
X118441876Y-119891481D01*
X116205000Y-117654605D01*
X113968124Y-119891481D01*
X112765013Y-119891481D01*
X112629356Y-119640590D01*
X112477062Y-119148608D01*
X112420000Y-118605704D01*
X112420000Y-117466484D01*
X112753390Y-117466484D01*
X112818051Y-118140023D01*
X113012870Y-118788006D01*
X113330361Y-119385530D01*
X113339823Y-119399692D01*
X113788519Y-119711876D01*
X116025395Y-117475000D01*
X116384605Y-117475000D01*
X118621481Y-119711876D01*
X119070177Y-119399692D01*
X119390612Y-118803741D01*
X119588626Y-118156727D01*
X119656610Y-117483516D01*
X119654975Y-117466484D01*
X145773390Y-117466484D01*
X145838051Y-118140023D01*
X146032870Y-118788006D01*
X146350361Y-119385530D01*
X146359823Y-119399692D01*
X146808519Y-119711876D01*
X149045395Y-117475000D01*
X149404605Y-117475000D01*
X151641481Y-119711876D01*
X152090177Y-119399692D01*
X152410612Y-118803741D01*
X152608626Y-118156727D01*
X152676610Y-117483516D01*
X152611949Y-116809977D01*
X152417130Y-116161994D01*
X152099639Y-115564470D01*
X152090177Y-115550308D01*
X151641481Y-115238124D01*
X149404605Y-117475000D01*
X149045395Y-117475000D01*
X146808519Y-115238124D01*
X146359823Y-115550308D01*
X146039388Y-116146259D01*
X145841374Y-116793273D01*
X145773390Y-117466484D01*
X119654975Y-117466484D01*
X119591949Y-116809977D01*
X119397130Y-116161994D01*
X119079639Y-115564470D01*
X119070177Y-115550308D01*
X118621481Y-115238124D01*
X116384605Y-117475000D01*
X116025395Y-117475000D01*
X113788519Y-115238124D01*
X113339823Y-115550308D01*
X113019388Y-116146259D01*
X112821374Y-116793273D01*
X112753390Y-117466484D01*
X112420000Y-117466484D01*
X112420000Y-115058519D01*
X113968124Y-115058519D01*
X116205000Y-117295395D01*
X118441876Y-115058519D01*
X118129692Y-114609823D01*
X117533741Y-114289388D01*
X116886727Y-114091374D01*
X116361787Y-114038363D01*
X126940002Y-114038363D01*
X126940002Y-114281637D01*
X126987462Y-114520236D01*
X127080559Y-114744992D01*
X127215715Y-114947267D01*
X127387735Y-115119287D01*
X127590010Y-115254443D01*
X127814766Y-115347540D01*
X128053365Y-115395000D01*
X128296639Y-115395000D01*
X128535238Y-115347540D01*
X128759994Y-115254443D01*
X128962269Y-115119287D01*
X129134289Y-114947267D01*
X129269445Y-114744992D01*
X129362542Y-114520236D01*
X129410002Y-114281637D01*
X129410002Y-114038363D01*
X129362542Y-113799764D01*
X129269445Y-113575008D01*
X129134289Y-113372733D01*
X128962269Y-113200713D01*
X128759994Y-113065557D01*
X128535238Y-112972460D01*
X128296639Y-112925000D01*
X128053365Y-112925000D01*
X127814766Y-112972460D01*
X127590010Y-113065557D01*
X127387735Y-113200713D01*
X127215715Y-113372733D01*
X127080559Y-113575008D01*
X126987462Y-113799764D01*
X126940002Y-114038363D01*
X116361787Y-114038363D01*
X116213516Y-114023390D01*
X115539977Y-114088051D01*
X114891994Y-114282870D01*
X114294470Y-114600361D01*
X114280308Y-114609823D01*
X113968124Y-115058519D01*
X112420000Y-115058519D01*
X112420000Y-112914000D01*
X113015928Y-112914000D01*
X113028188Y-113038482D01*
X113064498Y-113158180D01*
X113123463Y-113268494D01*
X113202815Y-113365185D01*
X113299506Y-113444537D01*
X113409820Y-113503502D01*
X113529518Y-113539812D01*
X113654000Y-113552072D01*
X114268250Y-113549000D01*
X114427000Y-113390250D01*
X114427000Y-112141000D01*
X113177750Y-112141000D01*
X113019000Y-112299750D01*
X113015928Y-112914000D01*
X112420000Y-112914000D01*
X112420000Y-111114000D01*
X113015928Y-111114000D01*
X113019000Y-111728250D01*
X113177750Y-111887000D01*
X114427000Y-111887000D01*
X114427000Y-110637750D01*
X114681000Y-110637750D01*
X114681000Y-111887000D01*
X114701000Y-111887000D01*
X114701000Y-112141000D01*
X114681000Y-112141000D01*
X114681000Y-113390250D01*
X114839750Y-113549000D01*
X115454000Y-113552072D01*
X115578482Y-113539812D01*
X115698180Y-113503502D01*
X115808494Y-113444537D01*
X115905185Y-113365185D01*
X115984537Y-113268494D01*
X116043502Y-113158180D01*
X116049056Y-113139873D01*
X116115495Y-113206312D01*
X116366905Y-113374299D01*
X116646257Y-113490011D01*
X116942816Y-113549000D01*
X117245184Y-113549000D01*
X117541743Y-113490011D01*
X117821095Y-113374299D01*
X118072505Y-113206312D01*
X118286312Y-112992505D01*
X118454299Y-112741095D01*
X118570011Y-112461743D01*
X118629000Y-112165184D01*
X118629000Y-111862816D01*
X118570011Y-111566257D01*
X118454299Y-111286905D01*
X118286312Y-111035495D01*
X118072505Y-110821688D01*
X117821095Y-110653701D01*
X117541743Y-110537989D01*
X117245184Y-110479000D01*
X116942816Y-110479000D01*
X116646257Y-110537989D01*
X116366905Y-110653701D01*
X116115495Y-110821688D01*
X116049056Y-110888127D01*
X116043502Y-110869820D01*
X115984537Y-110759506D01*
X115905185Y-110662815D01*
X115808494Y-110583463D01*
X115698180Y-110524498D01*
X115578482Y-110488188D01*
X115454000Y-110475928D01*
X114839750Y-110479000D01*
X114681000Y-110637750D01*
X114427000Y-110637750D01*
X114268250Y-110479000D01*
X113654000Y-110475928D01*
X113529518Y-110488188D01*
X113409820Y-110524498D01*
X113299506Y-110583463D01*
X113202815Y-110662815D01*
X113123463Y-110759506D01*
X113064498Y-110869820D01*
X113028188Y-110989518D01*
X113015928Y-111114000D01*
X112420000Y-111114000D01*
X112420000Y-101970000D01*
X113015928Y-101970000D01*
X113015928Y-103770000D01*
X113028188Y-103894482D01*
X113064498Y-104014180D01*
X113123463Y-104124494D01*
X113202815Y-104221185D01*
X113299506Y-104300537D01*
X113409820Y-104359502D01*
X113529518Y-104395812D01*
X113654000Y-104408072D01*
X115248629Y-104408072D01*
X115305200Y-104477003D01*
X115328999Y-104506002D01*
X115357997Y-104529800D01*
X116769642Y-105941446D01*
X116646257Y-105965989D01*
X116366905Y-106081701D01*
X116115495Y-106249688D01*
X116049056Y-106316127D01*
X116043502Y-106297820D01*
X115984537Y-106187506D01*
X115905185Y-106090815D01*
X115808494Y-106011463D01*
X115698180Y-105952498D01*
X115578482Y-105916188D01*
X115454000Y-105903928D01*
X113654000Y-105903928D01*
X113529518Y-105916188D01*
X113409820Y-105952498D01*
X113299506Y-106011463D01*
X113202815Y-106090815D01*
X113123463Y-106187506D01*
X113064498Y-106297820D01*
X113028188Y-106417518D01*
X113015928Y-106542000D01*
X113015928Y-108342000D01*
X113028188Y-108466482D01*
X113064498Y-108586180D01*
X113123463Y-108696494D01*
X113202815Y-108793185D01*
X113299506Y-108872537D01*
X113409820Y-108931502D01*
X113529518Y-108967812D01*
X113654000Y-108980072D01*
X115454000Y-108980072D01*
X115578482Y-108967812D01*
X115698180Y-108931502D01*
X115808494Y-108872537D01*
X115905185Y-108793185D01*
X115984537Y-108696494D01*
X116043502Y-108586180D01*
X116049056Y-108567873D01*
X116115495Y-108634312D01*
X116366905Y-108802299D01*
X116646257Y-108918011D01*
X116942816Y-108977000D01*
X117245184Y-108977000D01*
X117541743Y-108918011D01*
X117821095Y-108802299D01*
X118072505Y-108634312D01*
X118286312Y-108420505D01*
X118454299Y-108169095D01*
X118570011Y-107889743D01*
X118596626Y-107755941D01*
X118613710Y-107769962D01*
X118745739Y-107840534D01*
X118889000Y-107883991D01*
X119000653Y-107894988D01*
X119000662Y-107894988D01*
X119037985Y-107898664D01*
X119075308Y-107894988D01*
X119753403Y-107894988D01*
X119753403Y-107961929D01*
X119793177Y-108161888D01*
X119871198Y-108350246D01*
X119984466Y-108519764D01*
X120128629Y-108663927D01*
X120144001Y-108674198D01*
X120144000Y-109876299D01*
X120100063Y-109920236D01*
X119986795Y-110089754D01*
X119908774Y-110278112D01*
X119869000Y-110478071D01*
X119869000Y-110681949D01*
X119908774Y-110881908D01*
X119986795Y-111070266D01*
X120100063Y-111239784D01*
X120244226Y-111383947D01*
X120413744Y-111497215D01*
X120602102Y-111575236D01*
X120802061Y-111615010D01*
X121005939Y-111615010D01*
X121205898Y-111575236D01*
X121394256Y-111497215D01*
X121563774Y-111383947D01*
X121707937Y-111239784D01*
X121821205Y-111070266D01*
X121899226Y-110881908D01*
X121939000Y-110681949D01*
X121939000Y-110478071D01*
X121899226Y-110278112D01*
X121821205Y-110089754D01*
X121707937Y-109920236D01*
X121664000Y-109876299D01*
X121664000Y-108737385D01*
X122657617Y-109731002D01*
X122681416Y-109760001D01*
X122797141Y-109854974D01*
X122929170Y-109925546D01*
X123072431Y-109969003D01*
X123184084Y-109980000D01*
X123184093Y-109980000D01*
X123221416Y-109983676D01*
X123258739Y-109980000D01*
X129168195Y-109980000D01*
X129735123Y-110546928D01*
X129600000Y-110546928D01*
X129475518Y-110559188D01*
X129355820Y-110595498D01*
X129245506Y-110654463D01*
X129148815Y-110733815D01*
X129069463Y-110830506D01*
X129010498Y-110940820D01*
X128974188Y-111060518D01*
X128961928Y-111185000D01*
X128961928Y-112335000D01*
X128974188Y-112459482D01*
X129010498Y-112579180D01*
X129069463Y-112689494D01*
X129148815Y-112786185D01*
X129245506Y-112865537D01*
X129355820Y-112924502D01*
X129475518Y-112960812D01*
X129600000Y-112973072D01*
X130313270Y-112973072D01*
X130511202Y-113171004D01*
X130535000Y-113200002D01*
X130563998Y-113223800D01*
X130650725Y-113294975D01*
X130782754Y-113365547D01*
X130926015Y-113409004D01*
X131075001Y-113423678D01*
X131112334Y-113420001D01*
X135184114Y-113420001D01*
X135080542Y-113575008D01*
X134987445Y-113799764D01*
X134939985Y-114038363D01*
X134939985Y-114281637D01*
X134987445Y-114520236D01*
X135080542Y-114744992D01*
X135215698Y-114947267D01*
X135387718Y-115119287D01*
X135589993Y-115254443D01*
X135814749Y-115347540D01*
X136053348Y-115395000D01*
X136296622Y-115395000D01*
X136535221Y-115347540D01*
X136759977Y-115254443D01*
X136962252Y-115119287D01*
X137023020Y-115058519D01*
X146988124Y-115058519D01*
X149225000Y-117295395D01*
X151461876Y-115058519D01*
X151149692Y-114609823D01*
X150553741Y-114289388D01*
X149906727Y-114091374D01*
X149233516Y-114023390D01*
X148559977Y-114088051D01*
X147911994Y-114282870D01*
X147314470Y-114600361D01*
X147300308Y-114609823D01*
X146988124Y-115058519D01*
X137023020Y-115058519D01*
X137134272Y-114947267D01*
X137269428Y-114744992D01*
X137362525Y-114520236D01*
X137409985Y-114281637D01*
X137409985Y-114038363D01*
X137362525Y-113799764D01*
X137269428Y-113575008D01*
X137134272Y-113372733D01*
X136978061Y-113216522D01*
X136998190Y-113200002D01*
X137021993Y-113170998D01*
X144886014Y-105306978D01*
X144915011Y-105283181D01*
X145009984Y-105167456D01*
X145080556Y-105035427D01*
X145124013Y-104892166D01*
X145135010Y-104780513D01*
X145135010Y-104780512D01*
X145137522Y-104755000D01*
X147411928Y-104755000D01*
X147424188Y-104879482D01*
X147460498Y-104999180D01*
X147519463Y-105109494D01*
X147598815Y-105206185D01*
X147695506Y-105285537D01*
X147805820Y-105344502D01*
X147925518Y-105380812D01*
X148050000Y-105393072D01*
X149764250Y-105390000D01*
X149923000Y-105231250D01*
X149923000Y-103632000D01*
X150177000Y-103632000D01*
X150177000Y-105231250D01*
X150335750Y-105390000D01*
X152050000Y-105393072D01*
X152174482Y-105380812D01*
X152294180Y-105344502D01*
X152404494Y-105285537D01*
X152501185Y-105206185D01*
X152580537Y-105109494D01*
X152639502Y-104999180D01*
X152675812Y-104879482D01*
X152688072Y-104755000D01*
X152685000Y-103790750D01*
X152526250Y-103632000D01*
X150177000Y-103632000D01*
X149923000Y-103632000D01*
X147573750Y-103632000D01*
X147415000Y-103790750D01*
X147411928Y-104755000D01*
X145137522Y-104755000D01*
X145138687Y-104743180D01*
X145135010Y-104705847D01*
X145135010Y-102255000D01*
X147411928Y-102255000D01*
X147415000Y-103219250D01*
X147573750Y-103378000D01*
X149923000Y-103378000D01*
X149923000Y-101778750D01*
X150177000Y-101778750D01*
X150177000Y-103378000D01*
X152526250Y-103378000D01*
X152685000Y-103219250D01*
X152688072Y-102255000D01*
X152675812Y-102130518D01*
X152639502Y-102010820D01*
X152580537Y-101900506D01*
X152501185Y-101803815D01*
X152404494Y-101724463D01*
X152294180Y-101665498D01*
X152174482Y-101629188D01*
X152050000Y-101616928D01*
X150335750Y-101620000D01*
X150177000Y-101778750D01*
X149923000Y-101778750D01*
X149764250Y-101620000D01*
X148050000Y-101616928D01*
X147925518Y-101629188D01*
X147805820Y-101665498D01*
X147695506Y-101724463D01*
X147598815Y-101803815D01*
X147519463Y-101900506D01*
X147460498Y-102010820D01*
X147424188Y-102130518D01*
X147411928Y-102255000D01*
X145135010Y-102255000D01*
X145135010Y-91834343D01*
X145138687Y-91797010D01*
X145124013Y-91648024D01*
X145080556Y-91504763D01*
X145009984Y-91372734D01*
X144938809Y-91286007D01*
X144915011Y-91257009D01*
X144886013Y-91233211D01*
X144585363Y-90932561D01*
X144678061Y-90951000D01*
X144881939Y-90951000D01*
X145081898Y-90911226D01*
X145270256Y-90833205D01*
X145439774Y-90719937D01*
X145583937Y-90575774D01*
X145697205Y-90406256D01*
X145775226Y-90217898D01*
X145815000Y-90017939D01*
X145815000Y-89814061D01*
X145775226Y-89614102D01*
X145697205Y-89425744D01*
X145583937Y-89256226D01*
X145439774Y-89112063D01*
X145270256Y-88998795D01*
X145081898Y-88920774D01*
X144881939Y-88881000D01*
X144678061Y-88881000D01*
X144645457Y-88887485D01*
X144647727Y-88880000D01*
X147411928Y-88880000D01*
X147424188Y-89004482D01*
X147460498Y-89124180D01*
X147519463Y-89234494D01*
X147598815Y-89331185D01*
X147695506Y-89410537D01*
X147805820Y-89469502D01*
X147925518Y-89505812D01*
X148050000Y-89518072D01*
X149764250Y-89515000D01*
X149923000Y-89356250D01*
X149923000Y-87757000D01*
X150177000Y-87757000D01*
X150177000Y-89356250D01*
X150335750Y-89515000D01*
X152050000Y-89518072D01*
X152174482Y-89505812D01*
X152294180Y-89469502D01*
X152404494Y-89410537D01*
X152501185Y-89331185D01*
X152580537Y-89234494D01*
X152639502Y-89124180D01*
X152675812Y-89004482D01*
X152688072Y-88880000D01*
X152685000Y-87915750D01*
X152526250Y-87757000D01*
X150177000Y-87757000D01*
X149923000Y-87757000D01*
X147573750Y-87757000D01*
X147415000Y-87915750D01*
X147411928Y-88880000D01*
X144647727Y-88880000D01*
X144671008Y-88803254D01*
X144688072Y-88630000D01*
X144688072Y-86630000D01*
X144671008Y-86456746D01*
X144647728Y-86380000D01*
X147411928Y-86380000D01*
X147415000Y-87344250D01*
X147573750Y-87503000D01*
X149923000Y-87503000D01*
X149923000Y-85903750D01*
X150177000Y-85903750D01*
X150177000Y-87503000D01*
X152526250Y-87503000D01*
X152685000Y-87344250D01*
X152688072Y-86380000D01*
X152675812Y-86255518D01*
X152639502Y-86135820D01*
X152580537Y-86025506D01*
X152501185Y-85928815D01*
X152404494Y-85849463D01*
X152294180Y-85790498D01*
X152174482Y-85754188D01*
X152050000Y-85741928D01*
X150335750Y-85745000D01*
X150177000Y-85903750D01*
X149923000Y-85903750D01*
X149764250Y-85745000D01*
X148050000Y-85741928D01*
X147925518Y-85754188D01*
X147805820Y-85790498D01*
X147695506Y-85849463D01*
X147598815Y-85928815D01*
X147519463Y-86025506D01*
X147460498Y-86135820D01*
X147424188Y-86255518D01*
X147411928Y-86380000D01*
X144647728Y-86380000D01*
X144620472Y-86290150D01*
X144538405Y-86136614D01*
X144427962Y-86002038D01*
X144293386Y-85891595D01*
X144139850Y-85809528D01*
X143973254Y-85758992D01*
X143800000Y-85741928D01*
X141224871Y-85741928D01*
X141204276Y-85725026D01*
X141072247Y-85654454D01*
X140928986Y-85610997D01*
X140817333Y-85600000D01*
X140817322Y-85600000D01*
X140780000Y-85596324D01*
X140742678Y-85600000D01*
X134592333Y-85600000D01*
X134555000Y-85596323D01*
X134517667Y-85600000D01*
X134406014Y-85610997D01*
X134292366Y-85645471D01*
X134308072Y-85486001D01*
X134308072Y-84185999D01*
X134291008Y-84012745D01*
X134240472Y-83846149D01*
X134158405Y-83692613D01*
X134047962Y-83558038D01*
X133913387Y-83447595D01*
X133759851Y-83365528D01*
X133593255Y-83314992D01*
X133420001Y-83297928D01*
X132594999Y-83297928D01*
X132421745Y-83314992D01*
X132333931Y-83341630D01*
X132047303Y-83055002D01*
X132023501Y-83025999D01*
X131907776Y-82931026D01*
X131775747Y-82860454D01*
X131632486Y-82816997D01*
X131520833Y-82806000D01*
X131520822Y-82806000D01*
X131483500Y-82802324D01*
X131446178Y-82806000D01*
X129069323Y-82806000D01*
X129032000Y-82802324D01*
X128994677Y-82806000D01*
X128994667Y-82806000D01*
X128883014Y-82816997D01*
X128739753Y-82860454D01*
X128674436Y-82895367D01*
X132036003Y-79533801D01*
X132065001Y-79510003D01*
X132159974Y-79394278D01*
X132230546Y-79262249D01*
X132274003Y-79118988D01*
X132285000Y-79007335D01*
X132285000Y-79007327D01*
X132288676Y-78970002D01*
X132285000Y-78932677D01*
X132285000Y-77951046D01*
X132379494Y-77900537D01*
X132476185Y-77821185D01*
X132525000Y-77761704D01*
X132573815Y-77821185D01*
X132670506Y-77900537D01*
X132780820Y-77959502D01*
X132900518Y-77995812D01*
X133025000Y-78008072D01*
X134025000Y-78008072D01*
X134149482Y-77995812D01*
X134269180Y-77959502D01*
X134379494Y-77900537D01*
X134476185Y-77821185D01*
X134525000Y-77761704D01*
X134573815Y-77821185D01*
X134670506Y-77900537D01*
X134765001Y-77951046D01*
X134765001Y-78415482D01*
X134722226Y-78444063D01*
X134578063Y-78588226D01*
X134464795Y-78757744D01*
X134386774Y-78946102D01*
X134347000Y-79146061D01*
X134347000Y-79349939D01*
X134386774Y-79549898D01*
X134464795Y-79738256D01*
X134578063Y-79907774D01*
X134722226Y-80051937D01*
X134891744Y-80165205D01*
X135080102Y-80243226D01*
X135280061Y-80283000D01*
X135483939Y-80283000D01*
X135683898Y-80243226D01*
X135872256Y-80165205D01*
X136041774Y-80051937D01*
X136185937Y-79907774D01*
X136299205Y-79738256D01*
X136377226Y-79549898D01*
X136417000Y-79349939D01*
X136417000Y-79146061D01*
X136377226Y-78946102D01*
X136299205Y-78757744D01*
X136285000Y-78736485D01*
X136285000Y-77951046D01*
X136379494Y-77900537D01*
X136476185Y-77821185D01*
X136525000Y-77761704D01*
X136573815Y-77821185D01*
X136670506Y-77900537D01*
X136780820Y-77959502D01*
X136900518Y-77995812D01*
X137025000Y-78008072D01*
X138025000Y-78008072D01*
X138149482Y-77995812D01*
X138269180Y-77959502D01*
X138379494Y-77900537D01*
X138476185Y-77821185D01*
X138555537Y-77724494D01*
X138614502Y-77614180D01*
X138650812Y-77494482D01*
X138663072Y-77370000D01*
X138663072Y-74870000D01*
X138650812Y-74745518D01*
X138630644Y-74679032D01*
X138637998Y-74685203D01*
X138640102Y-74686360D01*
X138641953Y-74687891D01*
X138698639Y-74718541D01*
X138755150Y-74749608D01*
X138757442Y-74750335D01*
X138759552Y-74751476D01*
X138821084Y-74770524D01*
X138882580Y-74790031D01*
X138884968Y-74790299D01*
X138887262Y-74791009D01*
X138951366Y-74797746D01*
X139015436Y-74804933D01*
X139020050Y-74804965D01*
X139020218Y-74804983D01*
X139020386Y-74804968D01*
X139025000Y-74805000D01*
X141025000Y-74805000D01*
X141089145Y-74798710D01*
X141153356Y-74792867D01*
X141155662Y-74792188D01*
X141158051Y-74791954D01*
X141219723Y-74773334D01*
X141281606Y-74755121D01*
X141283736Y-74754008D01*
X141286033Y-74753314D01*
X141342886Y-74723084D01*
X141400081Y-74693184D01*
X141401955Y-74691677D01*
X141404073Y-74690551D01*
X141453986Y-74649843D01*
X141504269Y-74609414D01*
X141505813Y-74607573D01*
X141507674Y-74606056D01*
X141548766Y-74556384D01*
X141590203Y-74507002D01*
X141591360Y-74504898D01*
X141592891Y-74503047D01*
X141623541Y-74446361D01*
X141654608Y-74389850D01*
X141655335Y-74387558D01*
X141656476Y-74385448D01*
X141675524Y-74323916D01*
X141695031Y-74262420D01*
X141695299Y-74260032D01*
X141696009Y-74257738D01*
X141702746Y-74193634D01*
X141709933Y-74129564D01*
X141709965Y-74124950D01*
X141709983Y-74124782D01*
X141709968Y-74124614D01*
X141710000Y-74120000D01*
X141710000Y-73282481D01*
X146607124Y-73282481D01*
X146919308Y-73731177D01*
X147515259Y-74051612D01*
X148162273Y-74249626D01*
X148835484Y-74317610D01*
X149509023Y-74252949D01*
X150157006Y-74058130D01*
X150754530Y-73740639D01*
X150768692Y-73731177D01*
X151080876Y-73282481D01*
X148844000Y-71045605D01*
X146607124Y-73282481D01*
X141710000Y-73282481D01*
X141710000Y-70857484D01*
X145392390Y-70857484D01*
X145457051Y-71531023D01*
X145651870Y-72179006D01*
X145969361Y-72776530D01*
X145978823Y-72790692D01*
X146427519Y-73102876D01*
X148664395Y-70866000D01*
X149023605Y-70866000D01*
X151260481Y-73102876D01*
X151709177Y-72790692D01*
X152029612Y-72194741D01*
X152227626Y-71547727D01*
X152295610Y-70874516D01*
X152230949Y-70200977D01*
X152036130Y-69552994D01*
X151718639Y-68955470D01*
X151709177Y-68941308D01*
X151260481Y-68629124D01*
X149023605Y-70866000D01*
X148664395Y-70866000D01*
X146427519Y-68629124D01*
X145978823Y-68941308D01*
X145658388Y-69537259D01*
X145460374Y-70184273D01*
X145392390Y-70857484D01*
X141710000Y-70857484D01*
X141710000Y-70120000D01*
X141703710Y-70055855D01*
X141697867Y-69991644D01*
X141697188Y-69989338D01*
X141696954Y-69986949D01*
X141678334Y-69925277D01*
X141660121Y-69863394D01*
X141659008Y-69861264D01*
X141658314Y-69858967D01*
X141628084Y-69802114D01*
X141598184Y-69744919D01*
X141596677Y-69743045D01*
X141595551Y-69740927D01*
X141554843Y-69691014D01*
X141514414Y-69640731D01*
X141512573Y-69639187D01*
X141511056Y-69637326D01*
X141461384Y-69596234D01*
X141412002Y-69554797D01*
X141409898Y-69553640D01*
X141408047Y-69552109D01*
X141351361Y-69521459D01*
X141294850Y-69490392D01*
X141292558Y-69489665D01*
X141290448Y-69488524D01*
X141228916Y-69469476D01*
X141167420Y-69449969D01*
X141165032Y-69449701D01*
X141162738Y-69448991D01*
X141098634Y-69442254D01*
X141034564Y-69435067D01*
X141029950Y-69435035D01*
X141029782Y-69435017D01*
X141029614Y-69435032D01*
X141025000Y-69435000D01*
X139025000Y-69435000D01*
X138960855Y-69441290D01*
X138896644Y-69447133D01*
X138894338Y-69447812D01*
X138891949Y-69448046D01*
X138830277Y-69466666D01*
X138768394Y-69484879D01*
X138766264Y-69485992D01*
X138763967Y-69486686D01*
X138707114Y-69516916D01*
X138649919Y-69546816D01*
X138648045Y-69548323D01*
X138645927Y-69549449D01*
X138596014Y-69590157D01*
X138545731Y-69630586D01*
X138544187Y-69632427D01*
X138542326Y-69633944D01*
X138501234Y-69683616D01*
X138459797Y-69732998D01*
X138458640Y-69735102D01*
X138457109Y-69736953D01*
X138426459Y-69793639D01*
X138395392Y-69850150D01*
X138394665Y-69852442D01*
X138393524Y-69854552D01*
X138374476Y-69916084D01*
X138354969Y-69977580D01*
X138354701Y-69979968D01*
X138353991Y-69982262D01*
X138347254Y-70046366D01*
X138340067Y-70110436D01*
X138340035Y-70115050D01*
X138340017Y-70115218D01*
X138340032Y-70115386D01*
X138340000Y-70120000D01*
X138340000Y-74120000D01*
X138346290Y-74184145D01*
X138352133Y-74248356D01*
X138352812Y-74250662D01*
X138353046Y-74253051D01*
X138371666Y-74314723D01*
X138378845Y-74339116D01*
X138269180Y-74280498D01*
X138149482Y-74244188D01*
X138025000Y-74231928D01*
X137025000Y-74231928D01*
X136900518Y-74244188D01*
X136780820Y-74280498D01*
X136670506Y-74339463D01*
X136573815Y-74418815D01*
X136525000Y-74478296D01*
X136476185Y-74418815D01*
X136379494Y-74339463D01*
X136269180Y-74280498D01*
X136149482Y-74244188D01*
X136025000Y-74231928D01*
X135025000Y-74231928D01*
X134900518Y-74244188D01*
X134780820Y-74280498D01*
X134670506Y-74339463D01*
X134573815Y-74418815D01*
X134525000Y-74478296D01*
X134476185Y-74418815D01*
X134379494Y-74339463D01*
X134269180Y-74280498D01*
X134192923Y-74257366D01*
X134159974Y-74195724D01*
X134065001Y-74079999D01*
X134036001Y-74056199D01*
X134013801Y-74033999D01*
X133990000Y-74004998D01*
X133874275Y-73910025D01*
X133742246Y-73839453D01*
X133598985Y-73795996D01*
X133487332Y-73784999D01*
X133487321Y-73784999D01*
X133449999Y-73781323D01*
X133412677Y-73784999D01*
X126710000Y-73784999D01*
X126710000Y-70120000D01*
X126703710Y-70055855D01*
X126697867Y-69991644D01*
X126697188Y-69989338D01*
X126696954Y-69986949D01*
X126678334Y-69925277D01*
X126660121Y-69863394D01*
X126659008Y-69861264D01*
X126658314Y-69858967D01*
X126628084Y-69802114D01*
X126598184Y-69744919D01*
X126596677Y-69743045D01*
X126595551Y-69740927D01*
X126554843Y-69691014D01*
X126514414Y-69640731D01*
X126512573Y-69639187D01*
X126511056Y-69637326D01*
X126461384Y-69596234D01*
X126412002Y-69554797D01*
X126409898Y-69553640D01*
X126408047Y-69552109D01*
X126351361Y-69521459D01*
X126294850Y-69490392D01*
X126292558Y-69489665D01*
X126290448Y-69488524D01*
X126228916Y-69469476D01*
X126167420Y-69449969D01*
X126165032Y-69449701D01*
X126162738Y-69448991D01*
X126098634Y-69442254D01*
X126034564Y-69435067D01*
X126029950Y-69435035D01*
X126029782Y-69435017D01*
X126029614Y-69435032D01*
X126025000Y-69435000D01*
X124025000Y-69435000D01*
X123960855Y-69441290D01*
X123896644Y-69447133D01*
X123894338Y-69447812D01*
X123891949Y-69448046D01*
X123830277Y-69466666D01*
X123768394Y-69484879D01*
X123766264Y-69485992D01*
X123763967Y-69486686D01*
X123707114Y-69516916D01*
X123649919Y-69546816D01*
X123648045Y-69548323D01*
X123645927Y-69549449D01*
X123596014Y-69590157D01*
X123545731Y-69630586D01*
X123544187Y-69632427D01*
X123542326Y-69633944D01*
X123501234Y-69683616D01*
X123459797Y-69732998D01*
X123458640Y-69735102D01*
X123457109Y-69736953D01*
X123426459Y-69793639D01*
X123395392Y-69850150D01*
X123394665Y-69852442D01*
X123393524Y-69854552D01*
X123374476Y-69916084D01*
X123354969Y-69977580D01*
X123354701Y-69979968D01*
X123353991Y-69982262D01*
X123347254Y-70046366D01*
X123340067Y-70110436D01*
X123340035Y-70115050D01*
X123340017Y-70115218D01*
X123340032Y-70115386D01*
X123340000Y-70120000D01*
X123340000Y-74120000D01*
X123346290Y-74184145D01*
X123352133Y-74248356D01*
X123352812Y-74250662D01*
X123353046Y-74253051D01*
X123371666Y-74314723D01*
X123389879Y-74376606D01*
X123390992Y-74378736D01*
X123391686Y-74381033D01*
X123421916Y-74437886D01*
X123451816Y-74495081D01*
X123453323Y-74496955D01*
X123454449Y-74499073D01*
X123495157Y-74548986D01*
X123535586Y-74599269D01*
X123537427Y-74600813D01*
X123538944Y-74602674D01*
X123588616Y-74643766D01*
X123637998Y-74685203D01*
X123640102Y-74686360D01*
X123641953Y-74687891D01*
X123698639Y-74718541D01*
X123755150Y-74749608D01*
X123757442Y-74750335D01*
X123759552Y-74751476D01*
X123821084Y-74770524D01*
X123882580Y-74790031D01*
X123884968Y-74790299D01*
X123887262Y-74791009D01*
X123951366Y-74797746D01*
X124015436Y-74804933D01*
X124020050Y-74804965D01*
X124020218Y-74804983D01*
X124020386Y-74804968D01*
X124025000Y-74805000D01*
X125152037Y-74805000D01*
X120496818Y-79460219D01*
X120507000Y-79409033D01*
X120507000Y-79086967D01*
X120444168Y-78771088D01*
X120320918Y-78473537D01*
X120141987Y-78205748D01*
X119914252Y-77978013D01*
X119646463Y-77799082D01*
X119348912Y-77675832D01*
X119033033Y-77613000D01*
X118710967Y-77613000D01*
X118395088Y-77675832D01*
X118097537Y-77799082D01*
X117829748Y-77978013D01*
X117602013Y-78205748D01*
X117423082Y-78473537D01*
X117299832Y-78771088D01*
X117237000Y-79086967D01*
X117237000Y-79409033D01*
X117299832Y-79724912D01*
X117423082Y-80022463D01*
X117602013Y-80290252D01*
X117829748Y-80517987D01*
X118097537Y-80696918D01*
X118395088Y-80820168D01*
X118710967Y-80883000D01*
X119033033Y-80883000D01*
X119084219Y-80872818D01*
X118138005Y-81819033D01*
X117949900Y-81718489D01*
X117717101Y-81647870D01*
X117475000Y-81624025D01*
X117232898Y-81647870D01*
X117000099Y-81718489D01*
X116785551Y-81833167D01*
X116597498Y-81987498D01*
X116565809Y-82026111D01*
X116563405Y-82021613D01*
X116452962Y-81887038D01*
X116330000Y-81786126D01*
X116330000Y-80702909D01*
X116344463Y-80696918D01*
X116612252Y-80517987D01*
X116839987Y-80290252D01*
X117018918Y-80022463D01*
X117142168Y-79724912D01*
X117205000Y-79409033D01*
X117205000Y-79086967D01*
X117142168Y-78771088D01*
X117018918Y-78473537D01*
X116839987Y-78205748D01*
X116612252Y-77978013D01*
X116344463Y-77799082D01*
X116046912Y-77675832D01*
X115731033Y-77613000D01*
X115408967Y-77613000D01*
X115093088Y-77675832D01*
X114795537Y-77799082D01*
X114527748Y-77978013D01*
X114300013Y-78205748D01*
X114121082Y-78473537D01*
X113997832Y-78771088D01*
X113935000Y-79086967D01*
X113935000Y-79409033D01*
X113997832Y-79724912D01*
X114121082Y-80022463D01*
X114300013Y-80290252D01*
X114527748Y-80517987D01*
X114795537Y-80696918D01*
X114810000Y-80702909D01*
X114810000Y-81686989D01*
X114785149Y-81694528D01*
X114631613Y-81776595D01*
X114497038Y-81887038D01*
X114386595Y-82021613D01*
X114304528Y-82175149D01*
X114253992Y-82341745D01*
X114236928Y-82514999D01*
X114236928Y-83665001D01*
X114253992Y-83838255D01*
X114304528Y-84004851D01*
X114386595Y-84158387D01*
X114426410Y-84206902D01*
X114328489Y-84390100D01*
X114257870Y-84622899D01*
X114240000Y-84804336D01*
X114240000Y-85375665D01*
X114257870Y-85557102D01*
X114328489Y-85789901D01*
X114443168Y-86004449D01*
X114597499Y-86192502D01*
X114724280Y-86296548D01*
X114725997Y-86313985D01*
X114762707Y-86435004D01*
X114769454Y-86457246D01*
X114840026Y-86589276D01*
X114873448Y-86630000D01*
X114934999Y-86705001D01*
X114964003Y-86728804D01*
X117458231Y-89223033D01*
X117327898Y-89235870D01*
X117095099Y-89306489D01*
X116880551Y-89421167D01*
X116692498Y-89575498D01*
X116660809Y-89614111D01*
X116658405Y-89609613D01*
X116547962Y-89475038D01*
X116413387Y-89364595D01*
X116259851Y-89282528D01*
X116093255Y-89231992D01*
X115920001Y-89214928D01*
X115219999Y-89214928D01*
X115046745Y-89231992D01*
X114880149Y-89282528D01*
X114726613Y-89364595D01*
X114592038Y-89475038D01*
X114481595Y-89609613D01*
X114399528Y-89763149D01*
X114348992Y-89929745D01*
X114331928Y-90102999D01*
X114331928Y-91253001D01*
X114348992Y-91426255D01*
X114399528Y-91592851D01*
X114481595Y-91746387D01*
X114521410Y-91794902D01*
X114423489Y-91978100D01*
X114352870Y-92210899D01*
X114335000Y-92392336D01*
X114335000Y-92963665D01*
X114352870Y-93145102D01*
X114423489Y-93377901D01*
X114538168Y-93592449D01*
X114692499Y-93780502D01*
X114810000Y-93876933D01*
X114810001Y-96051000D01*
X114661740Y-96051000D01*
X114374842Y-96108068D01*
X114104589Y-96220010D01*
X113861368Y-96382525D01*
X113654525Y-96589368D01*
X113492010Y-96832589D01*
X113380068Y-97102842D01*
X113323000Y-97389740D01*
X113323000Y-97682260D01*
X113380068Y-97969158D01*
X113492010Y-98239411D01*
X113654525Y-98482632D01*
X113861368Y-98689475D01*
X114104589Y-98851990D01*
X114374842Y-98963932D01*
X114661740Y-99021000D01*
X114954260Y-99021000D01*
X115108999Y-98990220D01*
X115109000Y-101331928D01*
X113654000Y-101331928D01*
X113529518Y-101344188D01*
X113409820Y-101380498D01*
X113299506Y-101439463D01*
X113202815Y-101518815D01*
X113123463Y-101615506D01*
X113064498Y-101725820D01*
X113028188Y-101845518D01*
X113015928Y-101970000D01*
X112420000Y-101970000D01*
X112420000Y-73282481D01*
X114603124Y-73282481D01*
X114915308Y-73731177D01*
X115511259Y-74051612D01*
X116158273Y-74249626D01*
X116831484Y-74317610D01*
X117505023Y-74252949D01*
X118153006Y-74058130D01*
X118750530Y-73740639D01*
X118764692Y-73731177D01*
X119076876Y-73282481D01*
X116840000Y-71045605D01*
X114603124Y-73282481D01*
X112420000Y-73282481D01*
X112420000Y-70857484D01*
X113388390Y-70857484D01*
X113453051Y-71531023D01*
X113647870Y-72179006D01*
X113965361Y-72776530D01*
X113974823Y-72790692D01*
X114423519Y-73102876D01*
X116660395Y-70866000D01*
X117019605Y-70866000D01*
X119256481Y-73102876D01*
X119705177Y-72790692D01*
X120025612Y-72194741D01*
X120223626Y-71547727D01*
X120291610Y-70874516D01*
X120226949Y-70200977D01*
X120032130Y-69552994D01*
X119714639Y-68955470D01*
X119705177Y-68941308D01*
X119256481Y-68629124D01*
X117019605Y-70866000D01*
X116660395Y-70866000D01*
X114423519Y-68629124D01*
X113974823Y-68941308D01*
X113654388Y-69537259D01*
X113456374Y-70184273D01*
X113388390Y-70857484D01*
X112420000Y-70857484D01*
X112420000Y-69374279D01*
X112473421Y-68829449D01*
X112588128Y-68449519D01*
X114603124Y-68449519D01*
X116840000Y-70686395D01*
X119076876Y-68449519D01*
X146607124Y-68449519D01*
X148844000Y-70686395D01*
X151080876Y-68449519D01*
X150768692Y-68000823D01*
X150172741Y-67680388D01*
X149525727Y-67482374D01*
X148852516Y-67414390D01*
X148178977Y-67479051D01*
X147530994Y-67673870D01*
X146933470Y-67991361D01*
X146919308Y-68000823D01*
X146607124Y-68449519D01*
X119076876Y-68449519D01*
X118764692Y-68000823D01*
X118168741Y-67680388D01*
X117521727Y-67482374D01*
X116848516Y-67414390D01*
X116174977Y-67479051D01*
X115526994Y-67673870D01*
X114929470Y-67991361D01*
X114915308Y-68000823D01*
X114603124Y-68449519D01*
X112588128Y-68449519D01*
X112622275Y-68336420D01*
X112864061Y-67881687D01*
X113189557Y-67482590D01*
X113586384Y-67154306D01*
X114039410Y-66909356D01*
X114531392Y-66757062D01*
X115074295Y-66700000D01*
X150335721Y-66700000D01*
X150880551Y-66753421D01*
G37*
%TD.AperFunction*%
D26*
X130050000Y-101111679D02*
X130046324Y-101149002D01*
X130050000Y-101186324D01*
X130050000Y-101186334D01*
X130060997Y-101297987D01*
X130094120Y-101407180D01*
X130104454Y-101441248D01*
X130175026Y-101573278D01*
X130196978Y-101600026D01*
X130269999Y-101689003D01*
X130299003Y-101712806D01*
X134724201Y-106138005D01*
X134747999Y-106167003D01*
X134863724Y-106261976D01*
X134995753Y-106332548D01*
X135139014Y-106376005D01*
X135250667Y-106387002D01*
X135250676Y-106387002D01*
X135287999Y-106390678D01*
X135325322Y-106387002D01*
X139890676Y-106387002D01*
X139927998Y-106390678D01*
X139965320Y-106387002D01*
X139965331Y-106387002D01*
X140076984Y-106376005D01*
X140220245Y-106332548D01*
X140352274Y-106261976D01*
X140467999Y-106167003D01*
X140491802Y-106137999D01*
X141236729Y-105393072D01*
X142650316Y-105393072D01*
X136143388Y-111900001D01*
X135381059Y-111900001D01*
X135388258Y-111680571D01*
X135349450Y-111445402D01*
X135265509Y-111222323D01*
X135227916Y-111151993D01*
X135006874Y-111107731D01*
X134354605Y-111760000D01*
X134368748Y-111774143D01*
X134242889Y-111900001D01*
X134107111Y-111900001D01*
X133981253Y-111774143D01*
X133995395Y-111760000D01*
X133343126Y-111107731D01*
X133211972Y-111133994D01*
X133114870Y-110988670D01*
X133054326Y-110928126D01*
X133522731Y-110928126D01*
X134175000Y-111580395D01*
X134827269Y-110928126D01*
X134783007Y-110707084D01*
X134565911Y-110608699D01*
X134333792Y-110554558D01*
X134095571Y-110546742D01*
X133860402Y-110585550D01*
X133637323Y-110669491D01*
X133566993Y-110707084D01*
X133522731Y-110928126D01*
X133054326Y-110928126D01*
X132946331Y-110820131D01*
X132748151Y-110687712D01*
X132527945Y-110596499D01*
X132294176Y-110550000D01*
X132055826Y-110550000D01*
X132030406Y-110555056D01*
X132024278Y-110550027D01*
X131892249Y-110479455D01*
X131784598Y-110446800D01*
X130046800Y-108709003D01*
X130022997Y-108679999D01*
X129907272Y-108585026D01*
X129775243Y-108514454D01*
X129631982Y-108470997D01*
X129520329Y-108460000D01*
X129520318Y-108460000D01*
X129482996Y-108456324D01*
X129445674Y-108460000D01*
X123536219Y-108460000D01*
X121700209Y-106623991D01*
X121676406Y-106594987D01*
X121560681Y-106500014D01*
X121428652Y-106429442D01*
X121410712Y-106424000D01*
X121470289Y-106424000D01*
X121514226Y-106467937D01*
X121683744Y-106581205D01*
X121872102Y-106659226D01*
X122072061Y-106699000D01*
X122275939Y-106699000D01*
X122475898Y-106659226D01*
X122664256Y-106581205D01*
X122670683Y-106576910D01*
X122674464Y-106595918D01*
X122752485Y-106784276D01*
X122865753Y-106953794D01*
X123009916Y-107097957D01*
X123179434Y-107211225D01*
X123367792Y-107289246D01*
X123567751Y-107329020D01*
X123771629Y-107329020D01*
X123971588Y-107289246D01*
X124159946Y-107211225D01*
X124329464Y-107097957D01*
X124473627Y-106953794D01*
X124586895Y-106784276D01*
X124664916Y-106595918D01*
X124704690Y-106395959D01*
X124704690Y-106192081D01*
X124664916Y-105992122D01*
X124619374Y-105882176D01*
X126436201Y-107699003D01*
X126459999Y-107728001D01*
X126575724Y-107822974D01*
X126707753Y-107893546D01*
X126851014Y-107937003D01*
X126962667Y-107948000D01*
X126962675Y-107948000D01*
X127000000Y-107951676D01*
X127037325Y-107948000D01*
X128328289Y-107948000D01*
X128372226Y-107991937D01*
X128541744Y-108105205D01*
X128730102Y-108183226D01*
X128930061Y-108223000D01*
X129133939Y-108223000D01*
X129333898Y-108183226D01*
X129522256Y-108105205D01*
X129691774Y-107991937D01*
X129835937Y-107847774D01*
X129949205Y-107678256D01*
X130027226Y-107489898D01*
X130064202Y-107304004D01*
X130586201Y-107826003D01*
X130609999Y-107855001D01*
X130725724Y-107949974D01*
X130857753Y-108020546D01*
X131001014Y-108064003D01*
X131094500Y-108073211D01*
X131140226Y-108118937D01*
X131309744Y-108232205D01*
X131498102Y-108310226D01*
X131698061Y-108350000D01*
X131901939Y-108350000D01*
X132101898Y-108310226D01*
X132290256Y-108232205D01*
X132459774Y-108118937D01*
X132603937Y-107974774D01*
X132631625Y-107933336D01*
X132690226Y-107991937D01*
X132859744Y-108105205D01*
X133048102Y-108183226D01*
X133248061Y-108223000D01*
X133451939Y-108223000D01*
X133651898Y-108183226D01*
X133840256Y-108105205D01*
X134009774Y-107991937D01*
X134153937Y-107847774D01*
X134267205Y-107678256D01*
X134345226Y-107489898D01*
X134385000Y-107289939D01*
X134385000Y-107086061D01*
X134345226Y-106886102D01*
X134267205Y-106697744D01*
X134153937Y-106528226D01*
X134110000Y-106484289D01*
X134110000Y-106235323D01*
X134113676Y-106198000D01*
X134110000Y-106160677D01*
X134110000Y-106160667D01*
X134099003Y-106049014D01*
X134055546Y-105905753D01*
X133984974Y-105773724D01*
X133890001Y-105657999D01*
X133861004Y-105634202D01*
X129903072Y-101676271D01*
X129903072Y-101463000D01*
X129890812Y-101338518D01*
X129854502Y-101218820D01*
X129852460Y-101214999D01*
X129927984Y-101153018D01*
X129951786Y-101124015D01*
X130050000Y-101025801D01*
X130050000Y-101111679D01*
%TA.AperFunction,Conductor*%
D27*
G36*
X130050000Y-101111679D02*
G01*
X130046324Y-101149002D01*
X130050000Y-101186324D01*
X130050000Y-101186334D01*
X130060997Y-101297987D01*
X130094120Y-101407180D01*
X130104454Y-101441248D01*
X130175026Y-101573278D01*
X130196978Y-101600026D01*
X130269999Y-101689003D01*
X130299003Y-101712806D01*
X134724201Y-106138005D01*
X134747999Y-106167003D01*
X134863724Y-106261976D01*
X134995753Y-106332548D01*
X135139014Y-106376005D01*
X135250667Y-106387002D01*
X135250676Y-106387002D01*
X135287999Y-106390678D01*
X135325322Y-106387002D01*
X139890676Y-106387002D01*
X139927998Y-106390678D01*
X139965320Y-106387002D01*
X139965331Y-106387002D01*
X140076984Y-106376005D01*
X140220245Y-106332548D01*
X140352274Y-106261976D01*
X140467999Y-106167003D01*
X140491802Y-106137999D01*
X141236729Y-105393072D01*
X142650316Y-105393072D01*
X136143388Y-111900001D01*
X135381059Y-111900001D01*
X135388258Y-111680571D01*
X135349450Y-111445402D01*
X135265509Y-111222323D01*
X135227916Y-111151993D01*
X135006874Y-111107731D01*
X134354605Y-111760000D01*
X134368748Y-111774143D01*
X134242889Y-111900001D01*
X134107111Y-111900001D01*
X133981253Y-111774143D01*
X133995395Y-111760000D01*
X133343126Y-111107731D01*
X133211972Y-111133994D01*
X133114870Y-110988670D01*
X133054326Y-110928126D01*
X133522731Y-110928126D01*
X134175000Y-111580395D01*
X134827269Y-110928126D01*
X134783007Y-110707084D01*
X134565911Y-110608699D01*
X134333792Y-110554558D01*
X134095571Y-110546742D01*
X133860402Y-110585550D01*
X133637323Y-110669491D01*
X133566993Y-110707084D01*
X133522731Y-110928126D01*
X133054326Y-110928126D01*
X132946331Y-110820131D01*
X132748151Y-110687712D01*
X132527945Y-110596499D01*
X132294176Y-110550000D01*
X132055826Y-110550000D01*
X132030406Y-110555056D01*
X132024278Y-110550027D01*
X131892249Y-110479455D01*
X131784598Y-110446800D01*
X130046800Y-108709003D01*
X130022997Y-108679999D01*
X129907272Y-108585026D01*
X129775243Y-108514454D01*
X129631982Y-108470997D01*
X129520329Y-108460000D01*
X129520318Y-108460000D01*
X129482996Y-108456324D01*
X129445674Y-108460000D01*
X123536219Y-108460000D01*
X121700209Y-106623991D01*
X121676406Y-106594987D01*
X121560681Y-106500014D01*
X121428652Y-106429442D01*
X121410712Y-106424000D01*
X121470289Y-106424000D01*
X121514226Y-106467937D01*
X121683744Y-106581205D01*
X121872102Y-106659226D01*
X122072061Y-106699000D01*
X122275939Y-106699000D01*
X122475898Y-106659226D01*
X122664256Y-106581205D01*
X122670683Y-106576910D01*
X122674464Y-106595918D01*
X122752485Y-106784276D01*
X122865753Y-106953794D01*
X123009916Y-107097957D01*
X123179434Y-107211225D01*
X123367792Y-107289246D01*
X123567751Y-107329020D01*
X123771629Y-107329020D01*
X123971588Y-107289246D01*
X124159946Y-107211225D01*
X124329464Y-107097957D01*
X124473627Y-106953794D01*
X124586895Y-106784276D01*
X124664916Y-106595918D01*
X124704690Y-106395959D01*
X124704690Y-106192081D01*
X124664916Y-105992122D01*
X124619374Y-105882176D01*
X126436201Y-107699003D01*
X126459999Y-107728001D01*
X126575724Y-107822974D01*
X126707753Y-107893546D01*
X126851014Y-107937003D01*
X126962667Y-107948000D01*
X126962675Y-107948000D01*
X127000000Y-107951676D01*
X127037325Y-107948000D01*
X128328289Y-107948000D01*
X128372226Y-107991937D01*
X128541744Y-108105205D01*
X128730102Y-108183226D01*
X128930061Y-108223000D01*
X129133939Y-108223000D01*
X129333898Y-108183226D01*
X129522256Y-108105205D01*
X129691774Y-107991937D01*
X129835937Y-107847774D01*
X129949205Y-107678256D01*
X130027226Y-107489898D01*
X130064202Y-107304004D01*
X130586201Y-107826003D01*
X130609999Y-107855001D01*
X130725724Y-107949974D01*
X130857753Y-108020546D01*
X131001014Y-108064003D01*
X131094500Y-108073211D01*
X131140226Y-108118937D01*
X131309744Y-108232205D01*
X131498102Y-108310226D01*
X131698061Y-108350000D01*
X131901939Y-108350000D01*
X132101898Y-108310226D01*
X132290256Y-108232205D01*
X132459774Y-108118937D01*
X132603937Y-107974774D01*
X132631625Y-107933336D01*
X132690226Y-107991937D01*
X132859744Y-108105205D01*
X133048102Y-108183226D01*
X133248061Y-108223000D01*
X133451939Y-108223000D01*
X133651898Y-108183226D01*
X133840256Y-108105205D01*
X134009774Y-107991937D01*
X134153937Y-107847774D01*
X134267205Y-107678256D01*
X134345226Y-107489898D01*
X134385000Y-107289939D01*
X134385000Y-107086061D01*
X134345226Y-106886102D01*
X134267205Y-106697744D01*
X134153937Y-106528226D01*
X134110000Y-106484289D01*
X134110000Y-106235323D01*
X134113676Y-106198000D01*
X134110000Y-106160677D01*
X134110000Y-106160667D01*
X134099003Y-106049014D01*
X134055546Y-105905753D01*
X133984974Y-105773724D01*
X133890001Y-105657999D01*
X133861004Y-105634202D01*
X129903072Y-101676271D01*
X129903072Y-101463000D01*
X129890812Y-101338518D01*
X129854502Y-101218820D01*
X129852460Y-101214999D01*
X129927984Y-101153018D01*
X129951786Y-101124015D01*
X130050000Y-101025801D01*
X130050000Y-101111679D01*
G37*
%TD.AperFunction*%
D26*
X117697000Y-92551000D02*
X119443000Y-92551000D01*
X119443000Y-92531000D01*
X119697000Y-92531000D01*
X119697000Y-92551000D01*
X119717000Y-92551000D01*
X119717000Y-92805000D01*
X119697000Y-92805000D01*
X119697000Y-93971731D01*
X119735010Y-93996604D01*
X119735010Y-94803687D01*
X119731334Y-94841010D01*
X119735010Y-94878332D01*
X119735010Y-94878342D01*
X119746007Y-94989995D01*
X119779684Y-95101014D01*
X119789464Y-95133256D01*
X119860036Y-95265286D01*
X119887007Y-95298150D01*
X119955009Y-95381011D01*
X119984013Y-95404814D01*
X121520199Y-96941001D01*
X121541968Y-96967526D01*
X121514226Y-96986063D01*
X121370063Y-97130226D01*
X121256795Y-97299744D01*
X121178774Y-97488102D01*
X121139000Y-97688061D01*
X121139000Y-97891939D01*
X121178774Y-98091898D01*
X121256795Y-98280256D01*
X121370063Y-98449774D01*
X121414001Y-98493712D01*
X121414000Y-99784677D01*
X121410324Y-99822000D01*
X121414000Y-99859322D01*
X121414000Y-99859332D01*
X121424997Y-99970985D01*
X121462616Y-100095000D01*
X121468454Y-100114246D01*
X121539026Y-100246276D01*
X121557528Y-100268820D01*
X121633999Y-100362001D01*
X121663003Y-100385804D01*
X121798820Y-100521621D01*
X121768226Y-100542063D01*
X121624063Y-100686226D01*
X121510795Y-100855744D01*
X121432774Y-101044102D01*
X121393000Y-101244061D01*
X121393000Y-101447939D01*
X121432774Y-101647898D01*
X121510795Y-101836256D01*
X121624063Y-102005774D01*
X121768226Y-102149937D01*
X121937744Y-102263205D01*
X122126102Y-102341226D01*
X122157811Y-102347533D01*
X123152304Y-103342027D01*
X123152304Y-103404164D01*
X123192078Y-103604123D01*
X123270099Y-103792481D01*
X123316619Y-103862103D01*
X123288795Y-103903744D01*
X123210774Y-104092102D01*
X123171000Y-104292061D01*
X123171000Y-104316198D01*
X120775000Y-101920199D01*
X120775000Y-99128711D01*
X120818937Y-99084774D01*
X120932205Y-98915256D01*
X121010226Y-98726898D01*
X121050000Y-98526939D01*
X121050000Y-98323061D01*
X121010226Y-98123102D01*
X120932205Y-97934744D01*
X120818937Y-97765226D01*
X120674774Y-97621063D01*
X120505256Y-97507795D01*
X120316898Y-97429774D01*
X120116939Y-97390000D01*
X119913061Y-97390000D01*
X119713102Y-97429774D01*
X119524744Y-97507795D01*
X119355226Y-97621063D01*
X119211063Y-97765226D01*
X119097795Y-97934744D01*
X119019774Y-98123102D01*
X118980000Y-98323061D01*
X118980000Y-98526939D01*
X119019774Y-98726898D01*
X119097795Y-98915256D01*
X119211063Y-99084774D01*
X119255000Y-99128711D01*
X119255001Y-102197668D01*
X119251324Y-102235000D01*
X119255001Y-102272333D01*
X119261787Y-102341226D01*
X119265998Y-102383985D01*
X119309454Y-102527246D01*
X119380026Y-102659276D01*
X119445300Y-102738812D01*
X119475000Y-102775001D01*
X119503998Y-102798799D01*
X121544820Y-104839621D01*
X121514226Y-104860063D01*
X121470289Y-104904000D01*
X121091703Y-104904000D01*
X121063910Y-104836903D01*
X120950642Y-104667385D01*
X120806479Y-104523222D01*
X120636961Y-104409954D01*
X120448603Y-104331933D01*
X120248644Y-104292159D01*
X120044766Y-104292159D01*
X119844807Y-104331933D01*
X119656449Y-104409954D01*
X119486931Y-104523222D01*
X119342768Y-104667385D01*
X119229500Y-104836903D01*
X119151479Y-105025261D01*
X119111705Y-105225220D01*
X119111705Y-105429098D01*
X119151479Y-105629057D01*
X119229500Y-105817415D01*
X119342768Y-105986933D01*
X119486931Y-106131096D01*
X119656449Y-106244364D01*
X119844807Y-106322385D01*
X120044766Y-106362159D01*
X120177479Y-106362159D01*
X120191299Y-106369546D01*
X120209239Y-106374988D01*
X119352789Y-106374988D01*
X117359968Y-104382168D01*
X117541743Y-104346011D01*
X117821095Y-104230299D01*
X118072505Y-104062312D01*
X118286312Y-103848505D01*
X118454299Y-103597095D01*
X118570011Y-103317743D01*
X118629000Y-103021184D01*
X118629000Y-102718816D01*
X118570011Y-102422257D01*
X118454299Y-102142905D01*
X118286312Y-101891495D01*
X118072505Y-101677688D01*
X117821095Y-101509701D01*
X117541743Y-101393989D01*
X117245184Y-101335000D01*
X116942816Y-101335000D01*
X116646257Y-101393989D01*
X116628999Y-101401138D01*
X116628999Y-99024072D01*
X118198000Y-99024072D01*
X118322482Y-99011812D01*
X118442180Y-98975502D01*
X118552494Y-98916537D01*
X118649185Y-98837185D01*
X118728537Y-98740494D01*
X118787502Y-98630180D01*
X118823812Y-98510482D01*
X118836072Y-98386000D01*
X118836072Y-96686000D01*
X118823812Y-96561518D01*
X118787502Y-96441820D01*
X118728537Y-96331506D01*
X118649185Y-96234815D01*
X118552494Y-96155463D01*
X118442180Y-96096498D01*
X118322482Y-96060188D01*
X118198000Y-96047928D01*
X116498000Y-96047928D01*
X116373518Y-96060188D01*
X116330000Y-96073389D01*
X116330000Y-93876933D01*
X116447502Y-93780502D01*
X116567940Y-93633747D01*
X116592900Y-93672766D01*
X116761849Y-93848598D01*
X116961854Y-93988091D01*
X117185230Y-94085885D01*
X117252391Y-94096462D01*
X117443000Y-93971731D01*
X117443000Y-92805000D01*
X117697000Y-92805000D01*
X117697000Y-93971731D01*
X117887609Y-94096462D01*
X117954770Y-94085885D01*
X118178146Y-93988091D01*
X118378151Y-93848598D01*
X118547100Y-93672766D01*
X118570000Y-93636967D01*
X118592900Y-93672766D01*
X118761849Y-93848598D01*
X118961854Y-93988091D01*
X119185230Y-94085885D01*
X119252391Y-94096462D01*
X119443000Y-93971731D01*
X119443000Y-92805000D01*
X117697000Y-92805000D01*
X117443000Y-92805000D01*
X117423000Y-92805000D01*
X117423000Y-92551000D01*
X117443000Y-92551000D01*
X117443000Y-92531000D01*
X117697000Y-92531000D01*
X117697000Y-92551000D01*
%TA.AperFunction,Conductor*%
D27*
G36*
X117697000Y-92551000D02*
G01*
X119443000Y-92551000D01*
X119443000Y-92531000D01*
X119697000Y-92531000D01*
X119697000Y-92551000D01*
X119717000Y-92551000D01*
X119717000Y-92805000D01*
X119697000Y-92805000D01*
X119697000Y-93971731D01*
X119735010Y-93996604D01*
X119735010Y-94803687D01*
X119731334Y-94841010D01*
X119735010Y-94878332D01*
X119735010Y-94878342D01*
X119746007Y-94989995D01*
X119779684Y-95101014D01*
X119789464Y-95133256D01*
X119860036Y-95265286D01*
X119887007Y-95298150D01*
X119955009Y-95381011D01*
X119984013Y-95404814D01*
X121520199Y-96941001D01*
X121541968Y-96967526D01*
X121514226Y-96986063D01*
X121370063Y-97130226D01*
X121256795Y-97299744D01*
X121178774Y-97488102D01*
X121139000Y-97688061D01*
X121139000Y-97891939D01*
X121178774Y-98091898D01*
X121256795Y-98280256D01*
X121370063Y-98449774D01*
X121414001Y-98493712D01*
X121414000Y-99784677D01*
X121410324Y-99822000D01*
X121414000Y-99859322D01*
X121414000Y-99859332D01*
X121424997Y-99970985D01*
X121462616Y-100095000D01*
X121468454Y-100114246D01*
X121539026Y-100246276D01*
X121557528Y-100268820D01*
X121633999Y-100362001D01*
X121663003Y-100385804D01*
X121798820Y-100521621D01*
X121768226Y-100542063D01*
X121624063Y-100686226D01*
X121510795Y-100855744D01*
X121432774Y-101044102D01*
X121393000Y-101244061D01*
X121393000Y-101447939D01*
X121432774Y-101647898D01*
X121510795Y-101836256D01*
X121624063Y-102005774D01*
X121768226Y-102149937D01*
X121937744Y-102263205D01*
X122126102Y-102341226D01*
X122157811Y-102347533D01*
X123152304Y-103342027D01*
X123152304Y-103404164D01*
X123192078Y-103604123D01*
X123270099Y-103792481D01*
X123316619Y-103862103D01*
X123288795Y-103903744D01*
X123210774Y-104092102D01*
X123171000Y-104292061D01*
X123171000Y-104316198D01*
X120775000Y-101920199D01*
X120775000Y-99128711D01*
X120818937Y-99084774D01*
X120932205Y-98915256D01*
X121010226Y-98726898D01*
X121050000Y-98526939D01*
X121050000Y-98323061D01*
X121010226Y-98123102D01*
X120932205Y-97934744D01*
X120818937Y-97765226D01*
X120674774Y-97621063D01*
X120505256Y-97507795D01*
X120316898Y-97429774D01*
X120116939Y-97390000D01*
X119913061Y-97390000D01*
X119713102Y-97429774D01*
X119524744Y-97507795D01*
X119355226Y-97621063D01*
X119211063Y-97765226D01*
X119097795Y-97934744D01*
X119019774Y-98123102D01*
X118980000Y-98323061D01*
X118980000Y-98526939D01*
X119019774Y-98726898D01*
X119097795Y-98915256D01*
X119211063Y-99084774D01*
X119255000Y-99128711D01*
X119255001Y-102197668D01*
X119251324Y-102235000D01*
X119255001Y-102272333D01*
X119261787Y-102341226D01*
X119265998Y-102383985D01*
X119309454Y-102527246D01*
X119380026Y-102659276D01*
X119445300Y-102738812D01*
X119475000Y-102775001D01*
X119503998Y-102798799D01*
X121544820Y-104839621D01*
X121514226Y-104860063D01*
X121470289Y-104904000D01*
X121091703Y-104904000D01*
X121063910Y-104836903D01*
X120950642Y-104667385D01*
X120806479Y-104523222D01*
X120636961Y-104409954D01*
X120448603Y-104331933D01*
X120248644Y-104292159D01*
X120044766Y-104292159D01*
X119844807Y-104331933D01*
X119656449Y-104409954D01*
X119486931Y-104523222D01*
X119342768Y-104667385D01*
X119229500Y-104836903D01*
X119151479Y-105025261D01*
X119111705Y-105225220D01*
X119111705Y-105429098D01*
X119151479Y-105629057D01*
X119229500Y-105817415D01*
X119342768Y-105986933D01*
X119486931Y-106131096D01*
X119656449Y-106244364D01*
X119844807Y-106322385D01*
X120044766Y-106362159D01*
X120177479Y-106362159D01*
X120191299Y-106369546D01*
X120209239Y-106374988D01*
X119352789Y-106374988D01*
X117359968Y-104382168D01*
X117541743Y-104346011D01*
X117821095Y-104230299D01*
X118072505Y-104062312D01*
X118286312Y-103848505D01*
X118454299Y-103597095D01*
X118570011Y-103317743D01*
X118629000Y-103021184D01*
X118629000Y-102718816D01*
X118570011Y-102422257D01*
X118454299Y-102142905D01*
X118286312Y-101891495D01*
X118072505Y-101677688D01*
X117821095Y-101509701D01*
X117541743Y-101393989D01*
X117245184Y-101335000D01*
X116942816Y-101335000D01*
X116646257Y-101393989D01*
X116628999Y-101401138D01*
X116628999Y-99024072D01*
X118198000Y-99024072D01*
X118322482Y-99011812D01*
X118442180Y-98975502D01*
X118552494Y-98916537D01*
X118649185Y-98837185D01*
X118728537Y-98740494D01*
X118787502Y-98630180D01*
X118823812Y-98510482D01*
X118836072Y-98386000D01*
X118836072Y-96686000D01*
X118823812Y-96561518D01*
X118787502Y-96441820D01*
X118728537Y-96331506D01*
X118649185Y-96234815D01*
X118552494Y-96155463D01*
X118442180Y-96096498D01*
X118322482Y-96060188D01*
X118198000Y-96047928D01*
X116498000Y-96047928D01*
X116373518Y-96060188D01*
X116330000Y-96073389D01*
X116330000Y-93876933D01*
X116447502Y-93780502D01*
X116567940Y-93633747D01*
X116592900Y-93672766D01*
X116761849Y-93848598D01*
X116961854Y-93988091D01*
X117185230Y-94085885D01*
X117252391Y-94096462D01*
X117443000Y-93971731D01*
X117443000Y-92805000D01*
X117697000Y-92805000D01*
X117697000Y-93971731D01*
X117887609Y-94096462D01*
X117954770Y-94085885D01*
X118178146Y-93988091D01*
X118378151Y-93848598D01*
X118547100Y-93672766D01*
X118570000Y-93636967D01*
X118592900Y-93672766D01*
X118761849Y-93848598D01*
X118961854Y-93988091D01*
X119185230Y-94085885D01*
X119252391Y-94096462D01*
X119443000Y-93971731D01*
X119443000Y-92805000D01*
X117697000Y-92805000D01*
X117443000Y-92805000D01*
X117423000Y-92805000D01*
X117423000Y-92551000D01*
X117443000Y-92551000D01*
X117443000Y-92531000D01*
X117697000Y-92531000D01*
X117697000Y-92551000D01*
G37*
%TD.AperFunction*%
D26*
X139411928Y-88630000D02*
X139428992Y-88803254D01*
X139479528Y-88969850D01*
X139561595Y-89123386D01*
X139672038Y-89257962D01*
X139806614Y-89368405D01*
X139960150Y-89450472D01*
X140126746Y-89501008D01*
X140300000Y-89518072D01*
X141938820Y-89518072D01*
X141830795Y-89679744D01*
X141752774Y-89868102D01*
X141713000Y-90068061D01*
X141713000Y-90271939D01*
X141752774Y-90471898D01*
X141830795Y-90660256D01*
X141944063Y-90829774D01*
X142088226Y-90973937D01*
X142257744Y-91087205D01*
X142446102Y-91165226D01*
X142646061Y-91205000D01*
X142708199Y-91205000D01*
X143615011Y-92111813D01*
X143615010Y-101616928D01*
X140300000Y-101616928D01*
X140126746Y-101633992D01*
X139960150Y-101684528D01*
X139806614Y-101766595D01*
X139719000Y-101838498D01*
X139719000Y-101752071D01*
X139679226Y-101552112D01*
X139601205Y-101363754D01*
X139487937Y-101194236D01*
X139343774Y-101050073D01*
X139174256Y-100936805D01*
X138985898Y-100858784D01*
X138785939Y-100819010D01*
X138582061Y-100819010D01*
X138382102Y-100858784D01*
X138193744Y-100936805D01*
X138176007Y-100948656D01*
X138158256Y-100936795D01*
X137969898Y-100858774D01*
X137769939Y-100819000D01*
X137566061Y-100819000D01*
X137366102Y-100858774D01*
X137177744Y-100936795D01*
X137008226Y-101050063D01*
X136864063Y-101194226D01*
X136750795Y-101363744D01*
X136672774Y-101552102D01*
X136633000Y-101752061D01*
X136633000Y-101955939D01*
X136672774Y-102155898D01*
X136750795Y-102344256D01*
X136864063Y-102513774D01*
X136908000Y-102557711D01*
X136908001Y-103690288D01*
X136864063Y-103734226D01*
X136750795Y-103903744D01*
X136672774Y-104092102D01*
X136633000Y-104292061D01*
X136633000Y-104495939D01*
X136672774Y-104695898D01*
X136743648Y-104867002D01*
X135610709Y-104867002D01*
X135677937Y-104799774D01*
X135791205Y-104630256D01*
X135869226Y-104441898D01*
X135909000Y-104241939D01*
X135909000Y-104038061D01*
X135869226Y-103838102D01*
X135791205Y-103649744D01*
X135677937Y-103480226D01*
X135634000Y-103436289D01*
X135634000Y-102557711D01*
X135677937Y-102513774D01*
X135791205Y-102344256D01*
X135869226Y-102155898D01*
X135909000Y-101955939D01*
X135909000Y-101893801D01*
X137203993Y-100598809D01*
X137232991Y-100575011D01*
X137327964Y-100459286D01*
X137398536Y-100327257D01*
X137441993Y-100183996D01*
X137452990Y-100072343D01*
X137452990Y-100072334D01*
X137456666Y-100035011D01*
X137452990Y-99997688D01*
X137452990Y-99811072D01*
X138068000Y-99811072D01*
X138241254Y-99794008D01*
X138407850Y-99743472D01*
X138561386Y-99661405D01*
X138695962Y-99550962D01*
X138806405Y-99416386D01*
X138888472Y-99262850D01*
X138939008Y-99096254D01*
X138956072Y-98923000D01*
X138956072Y-97673000D01*
X138939008Y-97499746D01*
X138888472Y-97333150D01*
X138806405Y-97179614D01*
X138799205Y-97170841D01*
X138832405Y-97130386D01*
X138914472Y-96976850D01*
X138965008Y-96810254D01*
X138982072Y-96637000D01*
X138982072Y-95387000D01*
X138965008Y-95213746D01*
X138914472Y-95047150D01*
X138832405Y-94893614D01*
X138721962Y-94759038D01*
X138587386Y-94648595D01*
X138433850Y-94566528D01*
X138267254Y-94515992D01*
X138094000Y-94498928D01*
X137452990Y-94498928D01*
X137452990Y-93491811D01*
X138215802Y-92729000D01*
X138277939Y-92729000D01*
X138477898Y-92689226D01*
X138666256Y-92611205D01*
X138835774Y-92497937D01*
X138979937Y-92353774D01*
X139093205Y-92184256D01*
X139171226Y-91995898D01*
X139211000Y-91795939D01*
X139211000Y-91592061D01*
X139171226Y-91392102D01*
X139093205Y-91203744D01*
X138979937Y-91034226D01*
X138835774Y-90890063D01*
X138666256Y-90776795D01*
X138477898Y-90698774D01*
X138277939Y-90659000D01*
X138074061Y-90659000D01*
X137874102Y-90698774D01*
X137685744Y-90776795D01*
X137516226Y-90890063D01*
X137372063Y-91034226D01*
X137258795Y-91203744D01*
X137180774Y-91392102D01*
X137141000Y-91592061D01*
X137141000Y-91654198D01*
X136181993Y-92613206D01*
X136152989Y-92637009D01*
X136103754Y-92697003D01*
X136058016Y-92752734D01*
X135997899Y-92865205D01*
X135987444Y-92884764D01*
X135943987Y-93028025D01*
X135932990Y-93139678D01*
X135932990Y-93139688D01*
X135929314Y-93177010D01*
X135932990Y-93214333D01*
X135932991Y-99720207D01*
X134834199Y-100819000D01*
X134772061Y-100819000D01*
X134572102Y-100858774D01*
X134383744Y-100936795D01*
X134214226Y-101050063D01*
X134070063Y-101194226D01*
X133956795Y-101363744D01*
X133878774Y-101552102D01*
X133839000Y-101752061D01*
X133839000Y-101955939D01*
X133878774Y-102155898D01*
X133956795Y-102344256D01*
X134070063Y-102513774D01*
X134114001Y-102557712D01*
X134114000Y-103378201D01*
X131570000Y-100834201D01*
X131570000Y-99763711D01*
X131613937Y-99719774D01*
X131727205Y-99550256D01*
X131805226Y-99361898D01*
X131842799Y-99173000D01*
X133279928Y-99173000D01*
X133292188Y-99297482D01*
X133328498Y-99417180D01*
X133387463Y-99527494D01*
X133466815Y-99624185D01*
X133563506Y-99703537D01*
X133673820Y-99762502D01*
X133793518Y-99798812D01*
X133918000Y-99811072D01*
X134282250Y-99808000D01*
X134441000Y-99649250D01*
X134441000Y-98425000D01*
X134695000Y-98425000D01*
X134695000Y-99649250D01*
X134853750Y-99808000D01*
X135218000Y-99811072D01*
X135342482Y-99798812D01*
X135462180Y-99762502D01*
X135572494Y-99703537D01*
X135669185Y-99624185D01*
X135748537Y-99527494D01*
X135807502Y-99417180D01*
X135843812Y-99297482D01*
X135856072Y-99173000D01*
X135853000Y-98583750D01*
X135694250Y-98425000D01*
X134695000Y-98425000D01*
X134441000Y-98425000D01*
X133441750Y-98425000D01*
X133283000Y-98583750D01*
X133279928Y-99173000D01*
X131842799Y-99173000D01*
X131845000Y-99161939D01*
X131845000Y-98958061D01*
X131821715Y-98840998D01*
X131837680Y-98840998D01*
X131875002Y-98844674D01*
X131912324Y-98840998D01*
X131912335Y-98840998D01*
X132023988Y-98830001D01*
X132167249Y-98786544D01*
X132299278Y-98715972D01*
X132415003Y-98620999D01*
X132438806Y-98591995D01*
X133281628Y-97749173D01*
X133283000Y-98012250D01*
X133441750Y-98171000D01*
X134441000Y-98171000D01*
X134441000Y-98151000D01*
X134695000Y-98151000D01*
X134695000Y-98171000D01*
X135694250Y-98171000D01*
X135853000Y-98012250D01*
X135856072Y-97423000D01*
X135843812Y-97298518D01*
X135807502Y-97178820D01*
X135757009Y-97084356D01*
X135814472Y-96976850D01*
X135865008Y-96810254D01*
X135882072Y-96637000D01*
X135882072Y-95387000D01*
X135865008Y-95213746D01*
X135814472Y-95047150D01*
X135783673Y-94989529D01*
X135791205Y-94978256D01*
X135869226Y-94789898D01*
X135909000Y-94589939D01*
X135909000Y-94386061D01*
X135869226Y-94186102D01*
X135791205Y-93997744D01*
X135677937Y-93828226D01*
X135533774Y-93684063D01*
X135364256Y-93570795D01*
X135175898Y-93492774D01*
X134975939Y-93453000D01*
X134772061Y-93453000D01*
X134572102Y-93492774D01*
X134383744Y-93570795D01*
X134214226Y-93684063D01*
X134170289Y-93728000D01*
X132736666Y-93728000D01*
X132763472Y-93677850D01*
X132814008Y-93511254D01*
X132831072Y-93338000D01*
X132831072Y-92538000D01*
X132814008Y-92364746D01*
X132763472Y-92198150D01*
X132681405Y-92044614D01*
X132570962Y-91910038D01*
X132436386Y-91799595D01*
X132282850Y-91717528D01*
X132116254Y-91666992D01*
X131943000Y-91649928D01*
X130693000Y-91649928D01*
X130519746Y-91666992D01*
X130353150Y-91717528D01*
X130199614Y-91799595D01*
X130065038Y-91910038D01*
X129995320Y-91994990D01*
X128897343Y-91994990D01*
X128860010Y-91991313D01*
X128822677Y-91994990D01*
X128121792Y-91994990D01*
X127771381Y-91644579D01*
X127843418Y-91683084D01*
X127991255Y-91727929D01*
X128145000Y-91743072D01*
X128636904Y-91743072D01*
X128795744Y-91849205D01*
X128984102Y-91927226D01*
X129184061Y-91967000D01*
X129387939Y-91967000D01*
X129587898Y-91927226D01*
X129776256Y-91849205D01*
X129945774Y-91735937D01*
X129955975Y-91725736D01*
X130096582Y-91683084D01*
X130232829Y-91610258D01*
X130352251Y-91512251D01*
X130450258Y-91392829D01*
X130523084Y-91256582D01*
X130567929Y-91108745D01*
X130583072Y-90955000D01*
X130583072Y-90655000D01*
X130567929Y-90501255D01*
X130523084Y-90353418D01*
X130450258Y-90217171D01*
X130411546Y-90170000D01*
X130450258Y-90122829D01*
X130523084Y-89986582D01*
X130539072Y-89933874D01*
X130651201Y-90046003D01*
X130674999Y-90075001D01*
X130790724Y-90169974D01*
X130922753Y-90240546D01*
X131066014Y-90284003D01*
X131177667Y-90295000D01*
X131177676Y-90295000D01*
X131214999Y-90298676D01*
X131252322Y-90295000D01*
X132398141Y-90295000D01*
X132366916Y-90353418D01*
X132322071Y-90501255D01*
X132306928Y-90655000D01*
X132306928Y-90955000D01*
X132322071Y-91108745D01*
X132366916Y-91256582D01*
X132439742Y-91392829D01*
X132537749Y-91512251D01*
X132657171Y-91610258D01*
X132793418Y-91683084D01*
X132941255Y-91727929D01*
X133095000Y-91743072D01*
X133462904Y-91743072D01*
X133621744Y-91849205D01*
X133810102Y-91927226D01*
X134010061Y-91967000D01*
X134213939Y-91967000D01*
X134413898Y-91927226D01*
X134602256Y-91849205D01*
X134763879Y-91741213D01*
X134898745Y-91727929D01*
X135046582Y-91683084D01*
X135182829Y-91610258D01*
X135302251Y-91512251D01*
X135400258Y-91392829D01*
X135473084Y-91256582D01*
X135517929Y-91108745D01*
X135533072Y-90955000D01*
X135533072Y-90655000D01*
X135517929Y-90501255D01*
X135473084Y-90353418D01*
X135400258Y-90217171D01*
X135361546Y-90170000D01*
X135400258Y-90122829D01*
X135473084Y-89986582D01*
X135517929Y-89838745D01*
X135533072Y-89685000D01*
X135533072Y-89627415D01*
X136401008Y-88759480D01*
X136430001Y-88735686D01*
X136453795Y-88706693D01*
X136453799Y-88706689D01*
X136524973Y-88619962D01*
X136529191Y-88612071D01*
X136595546Y-88487932D01*
X136638987Y-88344724D01*
X136693937Y-88289774D01*
X136807205Y-88120256D01*
X136885226Y-87931898D01*
X136925000Y-87731939D01*
X136925000Y-87528061D01*
X136885226Y-87328102D01*
X136807205Y-87139744D01*
X136794013Y-87120000D01*
X139411928Y-87120000D01*
X139411928Y-88630000D01*
%TA.AperFunction,Conductor*%
D27*
G36*
X139411928Y-88630000D02*
G01*
X139428992Y-88803254D01*
X139479528Y-88969850D01*
X139561595Y-89123386D01*
X139672038Y-89257962D01*
X139806614Y-89368405D01*
X139960150Y-89450472D01*
X140126746Y-89501008D01*
X140300000Y-89518072D01*
X141938820Y-89518072D01*
X141830795Y-89679744D01*
X141752774Y-89868102D01*
X141713000Y-90068061D01*
X141713000Y-90271939D01*
X141752774Y-90471898D01*
X141830795Y-90660256D01*
X141944063Y-90829774D01*
X142088226Y-90973937D01*
X142257744Y-91087205D01*
X142446102Y-91165226D01*
X142646061Y-91205000D01*
X142708199Y-91205000D01*
X143615011Y-92111813D01*
X143615010Y-101616928D01*
X140300000Y-101616928D01*
X140126746Y-101633992D01*
X139960150Y-101684528D01*
X139806614Y-101766595D01*
X139719000Y-101838498D01*
X139719000Y-101752071D01*
X139679226Y-101552112D01*
X139601205Y-101363754D01*
X139487937Y-101194236D01*
X139343774Y-101050073D01*
X139174256Y-100936805D01*
X138985898Y-100858784D01*
X138785939Y-100819010D01*
X138582061Y-100819010D01*
X138382102Y-100858784D01*
X138193744Y-100936805D01*
X138176007Y-100948656D01*
X138158256Y-100936795D01*
X137969898Y-100858774D01*
X137769939Y-100819000D01*
X137566061Y-100819000D01*
X137366102Y-100858774D01*
X137177744Y-100936795D01*
X137008226Y-101050063D01*
X136864063Y-101194226D01*
X136750795Y-101363744D01*
X136672774Y-101552102D01*
X136633000Y-101752061D01*
X136633000Y-101955939D01*
X136672774Y-102155898D01*
X136750795Y-102344256D01*
X136864063Y-102513774D01*
X136908000Y-102557711D01*
X136908001Y-103690288D01*
X136864063Y-103734226D01*
X136750795Y-103903744D01*
X136672774Y-104092102D01*
X136633000Y-104292061D01*
X136633000Y-104495939D01*
X136672774Y-104695898D01*
X136743648Y-104867002D01*
X135610709Y-104867002D01*
X135677937Y-104799774D01*
X135791205Y-104630256D01*
X135869226Y-104441898D01*
X135909000Y-104241939D01*
X135909000Y-104038061D01*
X135869226Y-103838102D01*
X135791205Y-103649744D01*
X135677937Y-103480226D01*
X135634000Y-103436289D01*
X135634000Y-102557711D01*
X135677937Y-102513774D01*
X135791205Y-102344256D01*
X135869226Y-102155898D01*
X135909000Y-101955939D01*
X135909000Y-101893801D01*
X137203993Y-100598809D01*
X137232991Y-100575011D01*
X137327964Y-100459286D01*
X137398536Y-100327257D01*
X137441993Y-100183996D01*
X137452990Y-100072343D01*
X137452990Y-100072334D01*
X137456666Y-100035011D01*
X137452990Y-99997688D01*
X137452990Y-99811072D01*
X138068000Y-99811072D01*
X138241254Y-99794008D01*
X138407850Y-99743472D01*
X138561386Y-99661405D01*
X138695962Y-99550962D01*
X138806405Y-99416386D01*
X138888472Y-99262850D01*
X138939008Y-99096254D01*
X138956072Y-98923000D01*
X138956072Y-97673000D01*
X138939008Y-97499746D01*
X138888472Y-97333150D01*
X138806405Y-97179614D01*
X138799205Y-97170841D01*
X138832405Y-97130386D01*
X138914472Y-96976850D01*
X138965008Y-96810254D01*
X138982072Y-96637000D01*
X138982072Y-95387000D01*
X138965008Y-95213746D01*
X138914472Y-95047150D01*
X138832405Y-94893614D01*
X138721962Y-94759038D01*
X138587386Y-94648595D01*
X138433850Y-94566528D01*
X138267254Y-94515992D01*
X138094000Y-94498928D01*
X137452990Y-94498928D01*
X137452990Y-93491811D01*
X138215802Y-92729000D01*
X138277939Y-92729000D01*
X138477898Y-92689226D01*
X138666256Y-92611205D01*
X138835774Y-92497937D01*
X138979937Y-92353774D01*
X139093205Y-92184256D01*
X139171226Y-91995898D01*
X139211000Y-91795939D01*
X139211000Y-91592061D01*
X139171226Y-91392102D01*
X139093205Y-91203744D01*
X138979937Y-91034226D01*
X138835774Y-90890063D01*
X138666256Y-90776795D01*
X138477898Y-90698774D01*
X138277939Y-90659000D01*
X138074061Y-90659000D01*
X137874102Y-90698774D01*
X137685744Y-90776795D01*
X137516226Y-90890063D01*
X137372063Y-91034226D01*
X137258795Y-91203744D01*
X137180774Y-91392102D01*
X137141000Y-91592061D01*
X137141000Y-91654198D01*
X136181993Y-92613206D01*
X136152989Y-92637009D01*
X136103754Y-92697003D01*
X136058016Y-92752734D01*
X135997899Y-92865205D01*
X135987444Y-92884764D01*
X135943987Y-93028025D01*
X135932990Y-93139678D01*
X135932990Y-93139688D01*
X135929314Y-93177010D01*
X135932990Y-93214333D01*
X135932991Y-99720207D01*
X134834199Y-100819000D01*
X134772061Y-100819000D01*
X134572102Y-100858774D01*
X134383744Y-100936795D01*
X134214226Y-101050063D01*
X134070063Y-101194226D01*
X133956795Y-101363744D01*
X133878774Y-101552102D01*
X133839000Y-101752061D01*
X133839000Y-101955939D01*
X133878774Y-102155898D01*
X133956795Y-102344256D01*
X134070063Y-102513774D01*
X134114001Y-102557712D01*
X134114000Y-103378201D01*
X131570000Y-100834201D01*
X131570000Y-99763711D01*
X131613937Y-99719774D01*
X131727205Y-99550256D01*
X131805226Y-99361898D01*
X131842799Y-99173000D01*
X133279928Y-99173000D01*
X133292188Y-99297482D01*
X133328498Y-99417180D01*
X133387463Y-99527494D01*
X133466815Y-99624185D01*
X133563506Y-99703537D01*
X133673820Y-99762502D01*
X133793518Y-99798812D01*
X133918000Y-99811072D01*
X134282250Y-99808000D01*
X134441000Y-99649250D01*
X134441000Y-98425000D01*
X134695000Y-98425000D01*
X134695000Y-99649250D01*
X134853750Y-99808000D01*
X135218000Y-99811072D01*
X135342482Y-99798812D01*
X135462180Y-99762502D01*
X135572494Y-99703537D01*
X135669185Y-99624185D01*
X135748537Y-99527494D01*
X135807502Y-99417180D01*
X135843812Y-99297482D01*
X135856072Y-99173000D01*
X135853000Y-98583750D01*
X135694250Y-98425000D01*
X134695000Y-98425000D01*
X134441000Y-98425000D01*
X133441750Y-98425000D01*
X133283000Y-98583750D01*
X133279928Y-99173000D01*
X131842799Y-99173000D01*
X131845000Y-99161939D01*
X131845000Y-98958061D01*
X131821715Y-98840998D01*
X131837680Y-98840998D01*
X131875002Y-98844674D01*
X131912324Y-98840998D01*
X131912335Y-98840998D01*
X132023988Y-98830001D01*
X132167249Y-98786544D01*
X132299278Y-98715972D01*
X132415003Y-98620999D01*
X132438806Y-98591995D01*
X133281628Y-97749173D01*
X133283000Y-98012250D01*
X133441750Y-98171000D01*
X134441000Y-98171000D01*
X134441000Y-98151000D01*
X134695000Y-98151000D01*
X134695000Y-98171000D01*
X135694250Y-98171000D01*
X135853000Y-98012250D01*
X135856072Y-97423000D01*
X135843812Y-97298518D01*
X135807502Y-97178820D01*
X135757009Y-97084356D01*
X135814472Y-96976850D01*
X135865008Y-96810254D01*
X135882072Y-96637000D01*
X135882072Y-95387000D01*
X135865008Y-95213746D01*
X135814472Y-95047150D01*
X135783673Y-94989529D01*
X135791205Y-94978256D01*
X135869226Y-94789898D01*
X135909000Y-94589939D01*
X135909000Y-94386061D01*
X135869226Y-94186102D01*
X135791205Y-93997744D01*
X135677937Y-93828226D01*
X135533774Y-93684063D01*
X135364256Y-93570795D01*
X135175898Y-93492774D01*
X134975939Y-93453000D01*
X134772061Y-93453000D01*
X134572102Y-93492774D01*
X134383744Y-93570795D01*
X134214226Y-93684063D01*
X134170289Y-93728000D01*
X132736666Y-93728000D01*
X132763472Y-93677850D01*
X132814008Y-93511254D01*
X132831072Y-93338000D01*
X132831072Y-92538000D01*
X132814008Y-92364746D01*
X132763472Y-92198150D01*
X132681405Y-92044614D01*
X132570962Y-91910038D01*
X132436386Y-91799595D01*
X132282850Y-91717528D01*
X132116254Y-91666992D01*
X131943000Y-91649928D01*
X130693000Y-91649928D01*
X130519746Y-91666992D01*
X130353150Y-91717528D01*
X130199614Y-91799595D01*
X130065038Y-91910038D01*
X129995320Y-91994990D01*
X128897343Y-91994990D01*
X128860010Y-91991313D01*
X128822677Y-91994990D01*
X128121792Y-91994990D01*
X127771381Y-91644579D01*
X127843418Y-91683084D01*
X127991255Y-91727929D01*
X128145000Y-91743072D01*
X128636904Y-91743072D01*
X128795744Y-91849205D01*
X128984102Y-91927226D01*
X129184061Y-91967000D01*
X129387939Y-91967000D01*
X129587898Y-91927226D01*
X129776256Y-91849205D01*
X129945774Y-91735937D01*
X129955975Y-91725736D01*
X130096582Y-91683084D01*
X130232829Y-91610258D01*
X130352251Y-91512251D01*
X130450258Y-91392829D01*
X130523084Y-91256582D01*
X130567929Y-91108745D01*
X130583072Y-90955000D01*
X130583072Y-90655000D01*
X130567929Y-90501255D01*
X130523084Y-90353418D01*
X130450258Y-90217171D01*
X130411546Y-90170000D01*
X130450258Y-90122829D01*
X130523084Y-89986582D01*
X130539072Y-89933874D01*
X130651201Y-90046003D01*
X130674999Y-90075001D01*
X130790724Y-90169974D01*
X130922753Y-90240546D01*
X131066014Y-90284003D01*
X131177667Y-90295000D01*
X131177676Y-90295000D01*
X131214999Y-90298676D01*
X131252322Y-90295000D01*
X132398141Y-90295000D01*
X132366916Y-90353418D01*
X132322071Y-90501255D01*
X132306928Y-90655000D01*
X132306928Y-90955000D01*
X132322071Y-91108745D01*
X132366916Y-91256582D01*
X132439742Y-91392829D01*
X132537749Y-91512251D01*
X132657171Y-91610258D01*
X132793418Y-91683084D01*
X132941255Y-91727929D01*
X133095000Y-91743072D01*
X133462904Y-91743072D01*
X133621744Y-91849205D01*
X133810102Y-91927226D01*
X134010061Y-91967000D01*
X134213939Y-91967000D01*
X134413898Y-91927226D01*
X134602256Y-91849205D01*
X134763879Y-91741213D01*
X134898745Y-91727929D01*
X135046582Y-91683084D01*
X135182829Y-91610258D01*
X135302251Y-91512251D01*
X135400258Y-91392829D01*
X135473084Y-91256582D01*
X135517929Y-91108745D01*
X135533072Y-90955000D01*
X135533072Y-90655000D01*
X135517929Y-90501255D01*
X135473084Y-90353418D01*
X135400258Y-90217171D01*
X135361546Y-90170000D01*
X135400258Y-90122829D01*
X135473084Y-89986582D01*
X135517929Y-89838745D01*
X135533072Y-89685000D01*
X135533072Y-89627415D01*
X136401008Y-88759480D01*
X136430001Y-88735686D01*
X136453795Y-88706693D01*
X136453799Y-88706689D01*
X136524973Y-88619962D01*
X136529191Y-88612071D01*
X136595546Y-88487932D01*
X136638987Y-88344724D01*
X136693937Y-88289774D01*
X136807205Y-88120256D01*
X136885226Y-87931898D01*
X136925000Y-87731939D01*
X136925000Y-87528061D01*
X136885226Y-87328102D01*
X136807205Y-87139744D01*
X136794013Y-87120000D01*
X139411928Y-87120000D01*
X139411928Y-88630000D01*
G37*
%TD.AperFunction*%
D26*
X124379990Y-89096101D02*
X124113033Y-89043000D01*
X123790967Y-89043000D01*
X123475088Y-89105832D01*
X123177537Y-89229082D01*
X122909748Y-89408013D01*
X122682013Y-89635748D01*
X122503082Y-89903537D01*
X122379832Y-90201088D01*
X122317000Y-90516967D01*
X122317000Y-90839033D01*
X122379832Y-91154912D01*
X122503082Y-91452463D01*
X122682013Y-91720252D01*
X122909748Y-91947987D01*
X123177537Y-92126918D01*
X123475088Y-92250168D01*
X123790967Y-92313000D01*
X124113033Y-92313000D01*
X124428912Y-92250168D01*
X124443375Y-92244177D01*
X124503174Y-92303976D01*
X124558795Y-92438256D01*
X124672063Y-92607774D01*
X124816226Y-92751937D01*
X124852411Y-92776115D01*
X124820498Y-92835820D01*
X124784188Y-92955518D01*
X124771928Y-93080000D01*
X124775000Y-93694250D01*
X124933750Y-93853000D01*
X125945500Y-93853000D01*
X125945500Y-93833000D01*
X126199500Y-93833000D01*
X126199500Y-93853000D01*
X127211250Y-93853000D01*
X127370000Y-93694250D01*
X127371568Y-93380816D01*
X127382714Y-93389964D01*
X127514743Y-93460536D01*
X127658004Y-93503993D01*
X127806990Y-93518667D01*
X127844323Y-93514990D01*
X127896928Y-93514990D01*
X127896928Y-94630001D01*
X127913992Y-94803255D01*
X127964528Y-94969851D01*
X127975001Y-94989444D01*
X127975001Y-95153274D01*
X127917205Y-95013744D01*
X127803937Y-94844226D01*
X127659774Y-94700063D01*
X127490256Y-94586795D01*
X127371359Y-94537546D01*
X127370000Y-94265750D01*
X127211250Y-94107000D01*
X126199500Y-94107000D01*
X126199500Y-94127000D01*
X125945500Y-94127000D01*
X125945500Y-94107000D01*
X124933750Y-94107000D01*
X124900495Y-94140256D01*
X124740252Y-93980013D01*
X124472463Y-93801082D01*
X124174912Y-93677832D01*
X123859033Y-93615000D01*
X123536967Y-93615000D01*
X123221088Y-93677832D01*
X122923537Y-93801082D01*
X122655748Y-93980013D01*
X122428013Y-94207748D01*
X122388090Y-94267497D01*
X122342937Y-94199920D01*
X122198774Y-94055757D01*
X122029256Y-93942489D01*
X121840898Y-93864468D01*
X121640939Y-93824694D01*
X121437061Y-93824694D01*
X121255010Y-93860906D01*
X121255010Y-90107172D01*
X121258686Y-90069849D01*
X121255010Y-90032526D01*
X121255010Y-90032516D01*
X121244013Y-89920863D01*
X121200556Y-89777602D01*
X121129984Y-89645573D01*
X121035011Y-89529848D01*
X121006013Y-89506050D01*
X119879277Y-88379315D01*
X119907000Y-88239939D01*
X119907000Y-88177801D01*
X121539792Y-86545010D01*
X124379991Y-86545010D01*
X124379990Y-89096101D01*
%TA.AperFunction,Conductor*%
D27*
G36*
X124379990Y-89096101D02*
G01*
X124113033Y-89043000D01*
X123790967Y-89043000D01*
X123475088Y-89105832D01*
X123177537Y-89229082D01*
X122909748Y-89408013D01*
X122682013Y-89635748D01*
X122503082Y-89903537D01*
X122379832Y-90201088D01*
X122317000Y-90516967D01*
X122317000Y-90839033D01*
X122379832Y-91154912D01*
X122503082Y-91452463D01*
X122682013Y-91720252D01*
X122909748Y-91947987D01*
X123177537Y-92126918D01*
X123475088Y-92250168D01*
X123790967Y-92313000D01*
X124113033Y-92313000D01*
X124428912Y-92250168D01*
X124443375Y-92244177D01*
X124503174Y-92303976D01*
X124558795Y-92438256D01*
X124672063Y-92607774D01*
X124816226Y-92751937D01*
X124852411Y-92776115D01*
X124820498Y-92835820D01*
X124784188Y-92955518D01*
X124771928Y-93080000D01*
X124775000Y-93694250D01*
X124933750Y-93853000D01*
X125945500Y-93853000D01*
X125945500Y-93833000D01*
X126199500Y-93833000D01*
X126199500Y-93853000D01*
X127211250Y-93853000D01*
X127370000Y-93694250D01*
X127371568Y-93380816D01*
X127382714Y-93389964D01*
X127514743Y-93460536D01*
X127658004Y-93503993D01*
X127806990Y-93518667D01*
X127844323Y-93514990D01*
X127896928Y-93514990D01*
X127896928Y-94630001D01*
X127913992Y-94803255D01*
X127964528Y-94969851D01*
X127975001Y-94989444D01*
X127975001Y-95153274D01*
X127917205Y-95013744D01*
X127803937Y-94844226D01*
X127659774Y-94700063D01*
X127490256Y-94586795D01*
X127371359Y-94537546D01*
X127370000Y-94265750D01*
X127211250Y-94107000D01*
X126199500Y-94107000D01*
X126199500Y-94127000D01*
X125945500Y-94127000D01*
X125945500Y-94107000D01*
X124933750Y-94107000D01*
X124900495Y-94140256D01*
X124740252Y-93980013D01*
X124472463Y-93801082D01*
X124174912Y-93677832D01*
X123859033Y-93615000D01*
X123536967Y-93615000D01*
X123221088Y-93677832D01*
X122923537Y-93801082D01*
X122655748Y-93980013D01*
X122428013Y-94207748D01*
X122388090Y-94267497D01*
X122342937Y-94199920D01*
X122198774Y-94055757D01*
X122029256Y-93942489D01*
X121840898Y-93864468D01*
X121640939Y-93824694D01*
X121437061Y-93824694D01*
X121255010Y-93860906D01*
X121255010Y-90107172D01*
X121258686Y-90069849D01*
X121255010Y-90032526D01*
X121255010Y-90032516D01*
X121244013Y-89920863D01*
X121200556Y-89777602D01*
X121129984Y-89645573D01*
X121035011Y-89529848D01*
X121006013Y-89506050D01*
X119879277Y-88379315D01*
X119907000Y-88239939D01*
X119907000Y-88177801D01*
X121539792Y-86545010D01*
X124379991Y-86545010D01*
X124379990Y-89096101D01*
G37*
%TD.AperFunction*%
D26*
X131706928Y-84864230D02*
X131706928Y-85486001D01*
X131723992Y-85659255D01*
X131774528Y-85825851D01*
X131856595Y-85979387D01*
X131967038Y-86113962D01*
X132101613Y-86224405D01*
X132255149Y-86306472D01*
X132283889Y-86315190D01*
X132301954Y-86374746D01*
X132372526Y-86506776D01*
X132380989Y-86517089D01*
X132366916Y-86543418D01*
X132322071Y-86691255D01*
X132306928Y-86845000D01*
X132306928Y-87145000D01*
X132322071Y-87298745D01*
X132366916Y-87446582D01*
X132439742Y-87582829D01*
X132478454Y-87630000D01*
X132439742Y-87677171D01*
X132366916Y-87813418D01*
X132322071Y-87961255D01*
X132306928Y-88115000D01*
X132306928Y-88415000D01*
X132322071Y-88568745D01*
X132366916Y-88716582D01*
X132398141Y-88775000D01*
X131529802Y-88775000D01*
X130508804Y-87754003D01*
X130485001Y-87724999D01*
X130468650Y-87711580D01*
X130451270Y-87679064D01*
X130475537Y-87649494D01*
X130534502Y-87539180D01*
X130570812Y-87419482D01*
X130583072Y-87295000D01*
X130580000Y-87280750D01*
X130421250Y-87122000D01*
X129097000Y-87122000D01*
X129097000Y-87142000D01*
X128843000Y-87142000D01*
X128843000Y-87122000D01*
X128823000Y-87122000D01*
X128823000Y-86868000D01*
X128843000Y-86868000D01*
X128843000Y-86848000D01*
X129097000Y-86848000D01*
X129097000Y-86868000D01*
X130421250Y-86868000D01*
X130580000Y-86709250D01*
X130583072Y-86695000D01*
X130570812Y-86570518D01*
X130534502Y-86450820D01*
X130493253Y-86373650D01*
X130545000Y-86374072D01*
X130669482Y-86361812D01*
X130789180Y-86325502D01*
X130899494Y-86266537D01*
X130996185Y-86187185D01*
X131075537Y-86090494D01*
X131134502Y-85980180D01*
X131170812Y-85860482D01*
X131183072Y-85736000D01*
X131180000Y-85121750D01*
X131021250Y-84963000D01*
X130009500Y-84963000D01*
X130009500Y-84983000D01*
X129755500Y-84983000D01*
X129755500Y-84963000D01*
X129735500Y-84963000D01*
X129735500Y-84709000D01*
X129755500Y-84709000D01*
X129755500Y-84689000D01*
X130009500Y-84689000D01*
X130009500Y-84709000D01*
X131021250Y-84709000D01*
X131180000Y-84550250D01*
X131181060Y-84338361D01*
X131706928Y-84864230D01*
%TA.AperFunction,Conductor*%
D27*
G36*
X131706928Y-84864230D02*
G01*
X131706928Y-85486001D01*
X131723992Y-85659255D01*
X131774528Y-85825851D01*
X131856595Y-85979387D01*
X131967038Y-86113962D01*
X132101613Y-86224405D01*
X132255149Y-86306472D01*
X132283889Y-86315190D01*
X132301954Y-86374746D01*
X132372526Y-86506776D01*
X132380989Y-86517089D01*
X132366916Y-86543418D01*
X132322071Y-86691255D01*
X132306928Y-86845000D01*
X132306928Y-87145000D01*
X132322071Y-87298745D01*
X132366916Y-87446582D01*
X132439742Y-87582829D01*
X132478454Y-87630000D01*
X132439742Y-87677171D01*
X132366916Y-87813418D01*
X132322071Y-87961255D01*
X132306928Y-88115000D01*
X132306928Y-88415000D01*
X132322071Y-88568745D01*
X132366916Y-88716582D01*
X132398141Y-88775000D01*
X131529802Y-88775000D01*
X130508804Y-87754003D01*
X130485001Y-87724999D01*
X130468650Y-87711580D01*
X130451270Y-87679064D01*
X130475537Y-87649494D01*
X130534502Y-87539180D01*
X130570812Y-87419482D01*
X130583072Y-87295000D01*
X130580000Y-87280750D01*
X130421250Y-87122000D01*
X129097000Y-87122000D01*
X129097000Y-87142000D01*
X128843000Y-87142000D01*
X128843000Y-87122000D01*
X128823000Y-87122000D01*
X128823000Y-86868000D01*
X128843000Y-86868000D01*
X128843000Y-86848000D01*
X129097000Y-86848000D01*
X129097000Y-86868000D01*
X130421250Y-86868000D01*
X130580000Y-86709250D01*
X130583072Y-86695000D01*
X130570812Y-86570518D01*
X130534502Y-86450820D01*
X130493253Y-86373650D01*
X130545000Y-86374072D01*
X130669482Y-86361812D01*
X130789180Y-86325502D01*
X130899494Y-86266537D01*
X130996185Y-86187185D01*
X131075537Y-86090494D01*
X131134502Y-85980180D01*
X131170812Y-85860482D01*
X131183072Y-85736000D01*
X131180000Y-85121750D01*
X131021250Y-84963000D01*
X130009500Y-84963000D01*
X130009500Y-84983000D01*
X129755500Y-84983000D01*
X129755500Y-84963000D01*
X129735500Y-84963000D01*
X129735500Y-84709000D01*
X129755500Y-84709000D01*
X129755500Y-84689000D01*
X130009500Y-84689000D01*
X130009500Y-84709000D01*
X131021250Y-84709000D01*
X131180000Y-84550250D01*
X131181060Y-84338361D01*
X131706928Y-84864230D01*
G37*
%TD.AperFunction*%
D26*
X127369188Y-86570518D02*
X127357336Y-86690856D01*
X127354852Y-86689528D01*
X127188257Y-86638992D01*
X127015003Y-86621928D01*
X125899990Y-86621928D01*
X125899990Y-86545010D01*
X127215858Y-86545010D01*
X127253180Y-86548686D01*
X127290502Y-86545010D01*
X127290513Y-86545010D01*
X127379587Y-86536237D01*
X127369188Y-86570518D01*
%TA.AperFunction,Conductor*%
D27*
G36*
X127369188Y-86570518D02*
G01*
X127357336Y-86690856D01*
X127354852Y-86689528D01*
X127188257Y-86638992D01*
X127015003Y-86621928D01*
X125899990Y-86621928D01*
X125899990Y-86545010D01*
X127215858Y-86545010D01*
X127253180Y-86548686D01*
X127290502Y-86545010D01*
X127290513Y-86545010D01*
X127379587Y-86536237D01*
X127369188Y-86570518D01*
G37*
%TD.AperFunction*%
D26*
X126390000Y-75834250D02*
X126548750Y-75993000D01*
X127398000Y-75993000D01*
X127398000Y-75973000D01*
X127652000Y-75973000D01*
X127652000Y-75993000D01*
X127672000Y-75993000D01*
X127672000Y-76247000D01*
X127652000Y-76247000D01*
X127652000Y-77846250D01*
X127810750Y-78005000D01*
X128025000Y-78008072D01*
X128149482Y-77995812D01*
X128263727Y-77961156D01*
X128091082Y-78219537D01*
X127967832Y-78517088D01*
X127905000Y-78832967D01*
X127905000Y-79155033D01*
X127967832Y-79470912D01*
X128091082Y-79768463D01*
X128270013Y-80036252D01*
X128497748Y-80263987D01*
X128765537Y-80442918D01*
X128915264Y-80504937D01*
X126370211Y-83049990D01*
X122325493Y-83049990D01*
X122288170Y-83046314D01*
X122250847Y-83049990D01*
X122250838Y-83049990D01*
X122139185Y-83060987D01*
X121995924Y-83104444D01*
X121863895Y-83175016D01*
X121748170Y-83269989D01*
X121724372Y-83298987D01*
X120622632Y-84400728D01*
X120583499Y-84300648D01*
X120452100Y-84095234D01*
X120447071Y-84090000D01*
X120452100Y-84084766D01*
X120583499Y-83879352D01*
X120672299Y-83652251D01*
X120715088Y-83412189D01*
X120556274Y-83217000D01*
X119602000Y-83217000D01*
X119602000Y-84963000D01*
X119622000Y-84963000D01*
X119622000Y-85217000D01*
X119602000Y-85217000D01*
X119602000Y-85237000D01*
X119348000Y-85237000D01*
X119348000Y-85217000D01*
X119328000Y-85217000D01*
X119328000Y-84963000D01*
X119348000Y-84963000D01*
X119348000Y-83217000D01*
X119328000Y-83217000D01*
X119328000Y-82963000D01*
X119348000Y-82963000D01*
X119348000Y-82943000D01*
X119602000Y-82943000D01*
X119602000Y-82963000D01*
X120556274Y-82963000D01*
X120715088Y-82767811D01*
X120672299Y-82527749D01*
X120583499Y-82300648D01*
X120452100Y-82095234D01*
X120283151Y-81919402D01*
X120226647Y-81879993D01*
X124736640Y-77370000D01*
X126386928Y-77370000D01*
X126399188Y-77494482D01*
X126435498Y-77614180D01*
X126494463Y-77724494D01*
X126573815Y-77821185D01*
X126670506Y-77900537D01*
X126780820Y-77959502D01*
X126900518Y-77995812D01*
X127025000Y-78008072D01*
X127239250Y-78005000D01*
X127398000Y-77846250D01*
X127398000Y-76247000D01*
X126548750Y-76247000D01*
X126390000Y-76405750D01*
X126386928Y-77370000D01*
X124736640Y-77370000D01*
X126389626Y-75717014D01*
X126390000Y-75834250D01*
%TA.AperFunction,Conductor*%
D27*
G36*
X126390000Y-75834250D02*
G01*
X126548750Y-75993000D01*
X127398000Y-75993000D01*
X127398000Y-75973000D01*
X127652000Y-75973000D01*
X127652000Y-75993000D01*
X127672000Y-75993000D01*
X127672000Y-76247000D01*
X127652000Y-76247000D01*
X127652000Y-77846250D01*
X127810750Y-78005000D01*
X128025000Y-78008072D01*
X128149482Y-77995812D01*
X128263727Y-77961156D01*
X128091082Y-78219537D01*
X127967832Y-78517088D01*
X127905000Y-78832967D01*
X127905000Y-79155033D01*
X127967832Y-79470912D01*
X128091082Y-79768463D01*
X128270013Y-80036252D01*
X128497748Y-80263987D01*
X128765537Y-80442918D01*
X128915264Y-80504937D01*
X126370211Y-83049990D01*
X122325493Y-83049990D01*
X122288170Y-83046314D01*
X122250847Y-83049990D01*
X122250838Y-83049990D01*
X122139185Y-83060987D01*
X121995924Y-83104444D01*
X121863895Y-83175016D01*
X121748170Y-83269989D01*
X121724372Y-83298987D01*
X120622632Y-84400728D01*
X120583499Y-84300648D01*
X120452100Y-84095234D01*
X120447071Y-84090000D01*
X120452100Y-84084766D01*
X120583499Y-83879352D01*
X120672299Y-83652251D01*
X120715088Y-83412189D01*
X120556274Y-83217000D01*
X119602000Y-83217000D01*
X119602000Y-84963000D01*
X119622000Y-84963000D01*
X119622000Y-85217000D01*
X119602000Y-85217000D01*
X119602000Y-85237000D01*
X119348000Y-85237000D01*
X119348000Y-85217000D01*
X119328000Y-85217000D01*
X119328000Y-84963000D01*
X119348000Y-84963000D01*
X119348000Y-83217000D01*
X119328000Y-83217000D01*
X119328000Y-82963000D01*
X119348000Y-82963000D01*
X119348000Y-82943000D01*
X119602000Y-82943000D01*
X119602000Y-82963000D01*
X120556274Y-82963000D01*
X120715088Y-82767811D01*
X120672299Y-82527749D01*
X120583499Y-82300648D01*
X120452100Y-82095234D01*
X120283151Y-81919402D01*
X120226647Y-81879993D01*
X124736640Y-77370000D01*
X126386928Y-77370000D01*
X126399188Y-77494482D01*
X126435498Y-77614180D01*
X126494463Y-77724494D01*
X126573815Y-77821185D01*
X126670506Y-77900537D01*
X126780820Y-77959502D01*
X126900518Y-77995812D01*
X127025000Y-78008072D01*
X127239250Y-78005000D01*
X127398000Y-77846250D01*
X127398000Y-76247000D01*
X126548750Y-76247000D01*
X126390000Y-76405750D01*
X126386928Y-77370000D01*
X124736640Y-77370000D01*
X126389626Y-75717014D01*
X126390000Y-75834250D01*
G37*
%TD.AperFunction*%
D26*
X124988750Y-84670500D02*
X126238000Y-84670500D01*
X126238000Y-84650500D01*
X126492000Y-84650500D01*
X126492000Y-84670500D01*
X126512000Y-84670500D01*
X126512000Y-84924500D01*
X126492000Y-84924500D01*
X126492000Y-84944500D01*
X126238000Y-84944500D01*
X126238000Y-84924500D01*
X124988750Y-84924500D01*
X124888240Y-85025010D01*
X122147953Y-85025010D01*
X122602973Y-84569990D01*
X124888240Y-84569990D01*
X124988750Y-84670500D01*
%TA.AperFunction,Conductor*%
D27*
G36*
X124988750Y-84670500D02*
G01*
X126238000Y-84670500D01*
X126238000Y-84650500D01*
X126492000Y-84650500D01*
X126492000Y-84670500D01*
X126512000Y-84670500D01*
X126512000Y-84924500D01*
X126492000Y-84924500D01*
X126492000Y-84944500D01*
X126238000Y-84944500D01*
X126238000Y-84924500D01*
X124988750Y-84924500D01*
X124888240Y-85025010D01*
X122147953Y-85025010D01*
X122602973Y-84569990D01*
X124888240Y-84569990D01*
X124988750Y-84670500D01*
G37*
%TD.AperFunction*%
%TD*%
M02*
