%TF.GenerationSoftware,KiCad,Pcbnew,5.1.10*%
%TF.CreationDate,2021-10-10T20:51:37+02:00*%
%TF.ProjectId,BTS-LogicBoard,4254532d-4c6f-4676-9963-426f6172642e,rev?*%
%TF.SameCoordinates,Original*%
%TF.FileFunction,Legend,Top*%
%TF.FilePolarity,Positive*%
%FSLAX46Y46*%
G04 Gerber Fmt 4.6, Leading zero omitted, Abs format (unit mm)*
G04 Created by KiCad (PCBNEW 5.1.10) date 2021-10-10 20:51:37*
%MOMM*%
%LPD*%
G01*
G04 APERTURE LIST*
%ADD10C,0.120000*%
%ADD11C,0.070000*%
%ADD12C,0.100000*%
%ADD13C,0.010000*%
%ADD14C,0.150000*%
G04 APERTURE END LIST*
D10*
X121666000Y-95250000D02*
X122428000Y-95250000D01*
X121666000Y-95504000D02*
X121666000Y-95250000D01*
X122682000Y-89662000D02*
X122936000Y-89916000D01*
X122682000Y-87884000D02*
X122682000Y-89662000D01*
D11*
X128530476Y-80552952D02*
X128663809Y-80952952D01*
X128797142Y-80552952D01*
X128911428Y-80933904D02*
X128968571Y-80952952D01*
X129063809Y-80952952D01*
X129101904Y-80933904D01*
X129120952Y-80914857D01*
X129140000Y-80876761D01*
X129140000Y-80838666D01*
X129120952Y-80800571D01*
X129101904Y-80781523D01*
X129063809Y-80762476D01*
X128987619Y-80743428D01*
X128949523Y-80724380D01*
X128930476Y-80705333D01*
X128911428Y-80667238D01*
X128911428Y-80629142D01*
X128930476Y-80591047D01*
X128949523Y-80572000D01*
X128987619Y-80552952D01*
X129082857Y-80552952D01*
X129140000Y-80572000D01*
X129463809Y-80933904D02*
X129425714Y-80952952D01*
X129349523Y-80952952D01*
X129311428Y-80933904D01*
X129292380Y-80895809D01*
X129292380Y-80743428D01*
X129311428Y-80705333D01*
X129349523Y-80686285D01*
X129425714Y-80686285D01*
X129463809Y-80705333D01*
X129482857Y-80743428D01*
X129482857Y-80781523D01*
X129292380Y-80819619D01*
X129654285Y-80686285D02*
X129654285Y-80952952D01*
X129654285Y-80724380D02*
X129673333Y-80705333D01*
X129711428Y-80686285D01*
X129768571Y-80686285D01*
X129806666Y-80705333D01*
X129825714Y-80743428D01*
X129825714Y-80952952D01*
X129997142Y-80933904D02*
X130035238Y-80952952D01*
X130111428Y-80952952D01*
X130149523Y-80933904D01*
X130168571Y-80895809D01*
X130168571Y-80876761D01*
X130149523Y-80838666D01*
X130111428Y-80819619D01*
X130054285Y-80819619D01*
X130016190Y-80800571D01*
X129997142Y-80762476D01*
X129997142Y-80743428D01*
X130016190Y-80705333D01*
X130054285Y-80686285D01*
X130111428Y-80686285D01*
X130149523Y-80705333D01*
X130492380Y-80933904D02*
X130454285Y-80952952D01*
X130378095Y-80952952D01*
X130340000Y-80933904D01*
X130320952Y-80895809D01*
X130320952Y-80743428D01*
X130340000Y-80705333D01*
X130378095Y-80686285D01*
X130454285Y-80686285D01*
X130492380Y-80705333D01*
X130511428Y-80743428D01*
X130511428Y-80781523D01*
X130320952Y-80819619D01*
D10*
X121412000Y-79248000D02*
X120396000Y-79248000D01*
X121412000Y-75438000D02*
X121412000Y-79248000D01*
X120396000Y-75438000D02*
X121412000Y-75438000D01*
X112776000Y-79248000D02*
X114046000Y-79248000D01*
X112776000Y-75438000D02*
X112776000Y-79248000D01*
X114046000Y-75438000D02*
X112776000Y-75438000D01*
D11*
X119075238Y-80826000D02*
X119037142Y-80806952D01*
X118980000Y-80806952D01*
X118922857Y-80826000D01*
X118884761Y-80864095D01*
X118865714Y-80902190D01*
X118846666Y-80978380D01*
X118846666Y-81035523D01*
X118865714Y-81111714D01*
X118884761Y-81149809D01*
X118922857Y-81187904D01*
X118980000Y-81206952D01*
X119018095Y-81206952D01*
X119075238Y-81187904D01*
X119094285Y-81168857D01*
X119094285Y-81035523D01*
X119018095Y-81035523D01*
X119265714Y-81206952D02*
X119265714Y-80806952D01*
X119494285Y-81206952D01*
X119494285Y-80806952D01*
X119684761Y-81206952D02*
X119684761Y-80806952D01*
X119780000Y-80806952D01*
X119837142Y-80826000D01*
X119875238Y-80864095D01*
X119894285Y-80902190D01*
X119913333Y-80978380D01*
X119913333Y-81035523D01*
X119894285Y-81111714D01*
X119875238Y-81149809D01*
X119837142Y-81187904D01*
X119780000Y-81206952D01*
X119684761Y-81206952D01*
X117144857Y-81206952D02*
X117144857Y-80806952D01*
X117335333Y-81206952D02*
X117335333Y-80806952D01*
X117563904Y-81206952D01*
X117563904Y-80806952D01*
X117754380Y-81054571D02*
X118059142Y-81054571D01*
X117906761Y-81206952D02*
X117906761Y-80902190D01*
X115319238Y-81168857D02*
X115300190Y-81187904D01*
X115243047Y-81206952D01*
X115204952Y-81206952D01*
X115147809Y-81187904D01*
X115109714Y-81149809D01*
X115090666Y-81111714D01*
X115071619Y-81035523D01*
X115071619Y-80978380D01*
X115090666Y-80902190D01*
X115109714Y-80864095D01*
X115147809Y-80826000D01*
X115204952Y-80806952D01*
X115243047Y-80806952D01*
X115300190Y-80826000D01*
X115319238Y-80845047D01*
X115547809Y-81206952D02*
X115509714Y-81187904D01*
X115490666Y-81168857D01*
X115471619Y-81130761D01*
X115471619Y-81016476D01*
X115490666Y-80978380D01*
X115509714Y-80959333D01*
X115547809Y-80940285D01*
X115604952Y-80940285D01*
X115643047Y-80959333D01*
X115662095Y-80978380D01*
X115681142Y-81016476D01*
X115681142Y-81130761D01*
X115662095Y-81168857D01*
X115643047Y-81187904D01*
X115604952Y-81206952D01*
X115547809Y-81206952D01*
X115852571Y-81206952D02*
X115852571Y-80940285D01*
X115852571Y-80978380D02*
X115871619Y-80959333D01*
X115909714Y-80940285D01*
X115966857Y-80940285D01*
X116004952Y-80959333D01*
X116024000Y-80997428D01*
X116024000Y-81206952D01*
X116024000Y-80997428D02*
X116043047Y-80959333D01*
X116081142Y-80940285D01*
X116138285Y-80940285D01*
X116176380Y-80959333D01*
X116195428Y-80997428D01*
X116195428Y-81206952D01*
X116385904Y-80940285D02*
X116385904Y-81340285D01*
X116385904Y-80959333D02*
X116424000Y-80940285D01*
X116500190Y-80940285D01*
X116538285Y-80959333D01*
X116557333Y-80978380D01*
X116576380Y-81016476D01*
X116576380Y-81130761D01*
X116557333Y-81168857D01*
X116538285Y-81187904D01*
X116500190Y-81206952D01*
X116424000Y-81206952D01*
X116385904Y-81187904D01*
X119075238Y-86922000D02*
X119037142Y-86902952D01*
X118980000Y-86902952D01*
X118922857Y-86922000D01*
X118884761Y-86960095D01*
X118865714Y-86998190D01*
X118846666Y-87074380D01*
X118846666Y-87131523D01*
X118865714Y-87207714D01*
X118884761Y-87245809D01*
X118922857Y-87283904D01*
X118980000Y-87302952D01*
X119018095Y-87302952D01*
X119075238Y-87283904D01*
X119094285Y-87264857D01*
X119094285Y-87131523D01*
X119018095Y-87131523D01*
X119265714Y-87302952D02*
X119265714Y-86902952D01*
X119494285Y-87302952D01*
X119494285Y-86902952D01*
X119684761Y-87302952D02*
X119684761Y-86902952D01*
X119780000Y-86902952D01*
X119837142Y-86922000D01*
X119875238Y-86960095D01*
X119894285Y-86998190D01*
X119913333Y-87074380D01*
X119913333Y-87131523D01*
X119894285Y-87207714D01*
X119875238Y-87245809D01*
X119837142Y-87283904D01*
X119780000Y-87302952D01*
X119684761Y-87302952D01*
X115065238Y-87264857D02*
X115046190Y-87283904D01*
X114989047Y-87302952D01*
X114950952Y-87302952D01*
X114893809Y-87283904D01*
X114855714Y-87245809D01*
X114836666Y-87207714D01*
X114817619Y-87131523D01*
X114817619Y-87074380D01*
X114836666Y-86998190D01*
X114855714Y-86960095D01*
X114893809Y-86922000D01*
X114950952Y-86902952D01*
X114989047Y-86902952D01*
X115046190Y-86922000D01*
X115065238Y-86941047D01*
X115293809Y-87302952D02*
X115255714Y-87283904D01*
X115236666Y-87264857D01*
X115217619Y-87226761D01*
X115217619Y-87112476D01*
X115236666Y-87074380D01*
X115255714Y-87055333D01*
X115293809Y-87036285D01*
X115350952Y-87036285D01*
X115389047Y-87055333D01*
X115408095Y-87074380D01*
X115427142Y-87112476D01*
X115427142Y-87226761D01*
X115408095Y-87264857D01*
X115389047Y-87283904D01*
X115350952Y-87302952D01*
X115293809Y-87302952D01*
X115598571Y-87302952D02*
X115598571Y-87036285D01*
X115598571Y-87074380D02*
X115617619Y-87055333D01*
X115655714Y-87036285D01*
X115712857Y-87036285D01*
X115750952Y-87055333D01*
X115770000Y-87093428D01*
X115770000Y-87302952D01*
X115770000Y-87093428D02*
X115789047Y-87055333D01*
X115827142Y-87036285D01*
X115884285Y-87036285D01*
X115922380Y-87055333D01*
X115941428Y-87093428D01*
X115941428Y-87302952D01*
X116131904Y-87036285D02*
X116131904Y-87436285D01*
X116131904Y-87055333D02*
X116170000Y-87036285D01*
X116246190Y-87036285D01*
X116284285Y-87055333D01*
X116303333Y-87074380D01*
X116322380Y-87112476D01*
X116322380Y-87226761D01*
X116303333Y-87264857D01*
X116284285Y-87283904D01*
X116246190Y-87302952D01*
X116170000Y-87302952D01*
X116131904Y-87283904D01*
X117144857Y-87302952D02*
X117144857Y-86902952D01*
X117335333Y-87302952D02*
X117335333Y-86902952D01*
X117563904Y-87302952D01*
X117563904Y-86902952D01*
X117754380Y-87150571D02*
X118059142Y-87150571D01*
X117040095Y-87971285D02*
X117040095Y-88371285D01*
X117040095Y-87990333D02*
X117078190Y-87971285D01*
X117154380Y-87971285D01*
X117192476Y-87990333D01*
X117211523Y-88009380D01*
X117230571Y-88047476D01*
X117230571Y-88161761D01*
X117211523Y-88199857D01*
X117192476Y-88218904D01*
X117154380Y-88237952D01*
X117078190Y-88237952D01*
X117040095Y-88218904D01*
X117363904Y-87971285D02*
X117440095Y-88237952D01*
X117516285Y-88047476D01*
X117592476Y-88237952D01*
X117668666Y-87971285D01*
X117821047Y-88237952D02*
X117821047Y-87971285D01*
X117821047Y-88009380D02*
X117840095Y-87990333D01*
X117878190Y-87971285D01*
X117935333Y-87971285D01*
X117973428Y-87990333D01*
X117992476Y-88028428D01*
X117992476Y-88237952D01*
X117992476Y-88028428D02*
X118011523Y-87990333D01*
X118049619Y-87971285D01*
X118106761Y-87971285D01*
X118144857Y-87990333D01*
X118163904Y-88028428D01*
X118163904Y-88237952D01*
X117240095Y-88907952D02*
X117240095Y-88507952D01*
X117240095Y-88888904D02*
X117202000Y-88907952D01*
X117125809Y-88907952D01*
X117087714Y-88888904D01*
X117068666Y-88869857D01*
X117049619Y-88831761D01*
X117049619Y-88717476D01*
X117068666Y-88679380D01*
X117087714Y-88660333D01*
X117125809Y-88641285D01*
X117202000Y-88641285D01*
X117240095Y-88660333D01*
X117602000Y-88641285D02*
X117602000Y-88907952D01*
X117430571Y-88641285D02*
X117430571Y-88850809D01*
X117449619Y-88888904D01*
X117487714Y-88907952D01*
X117544857Y-88907952D01*
X117582952Y-88888904D01*
X117602000Y-88869857D01*
X117735333Y-88641285D02*
X117887714Y-88641285D01*
X117792476Y-88507952D02*
X117792476Y-88850809D01*
X117811523Y-88888904D01*
X117849619Y-88907952D01*
X117887714Y-88907952D01*
X117982952Y-88641285D02*
X118078190Y-88907952D01*
X118173428Y-88641285D02*
X118078190Y-88907952D01*
X118040095Y-89003190D01*
X118021047Y-89022238D01*
X117982952Y-89041285D01*
X118986380Y-88674571D02*
X119291142Y-88674571D01*
X119481619Y-88826952D02*
X119481619Y-88426952D01*
X119634000Y-88426952D01*
X119672095Y-88446000D01*
X119691142Y-88465047D01*
X119710190Y-88503142D01*
X119710190Y-88560285D01*
X119691142Y-88598380D01*
X119672095Y-88617428D01*
X119634000Y-88636476D01*
X119481619Y-88636476D01*
X119938761Y-88826952D02*
X119900666Y-88807904D01*
X119881619Y-88788857D01*
X119862571Y-88750761D01*
X119862571Y-88636476D01*
X119881619Y-88598380D01*
X119900666Y-88579333D01*
X119938761Y-88560285D01*
X119995904Y-88560285D01*
X120034000Y-88579333D01*
X120053047Y-88598380D01*
X120072095Y-88636476D01*
X120072095Y-88750761D01*
X120053047Y-88788857D01*
X120034000Y-88807904D01*
X119995904Y-88826952D01*
X119938761Y-88826952D01*
X120186380Y-88560285D02*
X120338761Y-88560285D01*
X120243523Y-88426952D02*
X120243523Y-88769809D01*
X120262571Y-88807904D01*
X120300666Y-88826952D01*
X120338761Y-88826952D01*
X114922380Y-88420571D02*
X115227142Y-88420571D01*
X115074761Y-88572952D02*
X115074761Y-88268190D01*
X115417619Y-88572952D02*
X115417619Y-88172952D01*
X115570000Y-88172952D01*
X115608095Y-88192000D01*
X115627142Y-88211047D01*
X115646190Y-88249142D01*
X115646190Y-88306285D01*
X115627142Y-88344380D01*
X115608095Y-88363428D01*
X115570000Y-88382476D01*
X115417619Y-88382476D01*
X115874761Y-88572952D02*
X115836666Y-88553904D01*
X115817619Y-88534857D01*
X115798571Y-88496761D01*
X115798571Y-88382476D01*
X115817619Y-88344380D01*
X115836666Y-88325333D01*
X115874761Y-88306285D01*
X115931904Y-88306285D01*
X115970000Y-88325333D01*
X115989047Y-88344380D01*
X116008095Y-88382476D01*
X116008095Y-88496761D01*
X115989047Y-88534857D01*
X115970000Y-88553904D01*
X115931904Y-88572952D01*
X115874761Y-88572952D01*
X116122380Y-88306285D02*
X116274761Y-88306285D01*
X116179523Y-88172952D02*
X116179523Y-88515809D01*
X116198571Y-88553904D01*
X116236666Y-88572952D01*
X116274761Y-88572952D01*
X115065238Y-94841952D02*
X115065238Y-94441952D01*
X115217619Y-94441952D01*
X115255714Y-94461000D01*
X115274761Y-94480047D01*
X115293809Y-94518142D01*
X115293809Y-94575285D01*
X115274761Y-94613380D01*
X115255714Y-94632428D01*
X115217619Y-94651476D01*
X115065238Y-94651476D01*
X115446190Y-94822904D02*
X115503333Y-94841952D01*
X115598571Y-94841952D01*
X115636666Y-94822904D01*
X115655714Y-94803857D01*
X115674761Y-94765761D01*
X115674761Y-94727666D01*
X115655714Y-94689571D01*
X115636666Y-94670523D01*
X115598571Y-94651476D01*
X115522380Y-94632428D01*
X115484285Y-94613380D01*
X115465238Y-94594333D01*
X115446190Y-94556238D01*
X115446190Y-94518142D01*
X115465238Y-94480047D01*
X115484285Y-94461000D01*
X115522380Y-94441952D01*
X115617619Y-94441952D01*
X115674761Y-94461000D01*
X115846190Y-94441952D02*
X115846190Y-94765761D01*
X115865238Y-94803857D01*
X115884285Y-94822904D01*
X115922380Y-94841952D01*
X115998571Y-94841952D01*
X116036666Y-94822904D01*
X116055714Y-94803857D01*
X116074761Y-94765761D01*
X116074761Y-94441952D01*
X115322380Y-95111952D02*
X115398571Y-95111952D01*
X115436666Y-95131000D01*
X115474761Y-95169095D01*
X115493809Y-95245285D01*
X115493809Y-95378619D01*
X115474761Y-95454809D01*
X115436666Y-95492904D01*
X115398571Y-95511952D01*
X115322380Y-95511952D01*
X115284285Y-95492904D01*
X115246190Y-95454809D01*
X115227142Y-95378619D01*
X115227142Y-95245285D01*
X115246190Y-95169095D01*
X115284285Y-95131000D01*
X115322380Y-95111952D01*
X115665238Y-95511952D02*
X115665238Y-95111952D01*
X115893809Y-95511952D01*
X115893809Y-95111952D01*
X119329238Y-94796000D02*
X119291142Y-94776952D01*
X119234000Y-94776952D01*
X119176857Y-94796000D01*
X119138761Y-94834095D01*
X119119714Y-94872190D01*
X119100666Y-94948380D01*
X119100666Y-95005523D01*
X119119714Y-95081714D01*
X119138761Y-95119809D01*
X119176857Y-95157904D01*
X119234000Y-95176952D01*
X119272095Y-95176952D01*
X119329238Y-95157904D01*
X119348285Y-95138857D01*
X119348285Y-95005523D01*
X119272095Y-95005523D01*
X119519714Y-95176952D02*
X119519714Y-94776952D01*
X119748285Y-95176952D01*
X119748285Y-94776952D01*
X119938761Y-95176952D02*
X119938761Y-94776952D01*
X120034000Y-94776952D01*
X120091142Y-94796000D01*
X120129238Y-94834095D01*
X120148285Y-94872190D01*
X120167333Y-94948380D01*
X120167333Y-95005523D01*
X120148285Y-95081714D01*
X120129238Y-95119809D01*
X120091142Y-95157904D01*
X120034000Y-95176952D01*
X119938761Y-95176952D01*
X117297238Y-94796000D02*
X117259142Y-94776952D01*
X117202000Y-94776952D01*
X117144857Y-94796000D01*
X117106761Y-94834095D01*
X117087714Y-94872190D01*
X117068666Y-94948380D01*
X117068666Y-95005523D01*
X117087714Y-95081714D01*
X117106761Y-95119809D01*
X117144857Y-95157904D01*
X117202000Y-95176952D01*
X117240095Y-95176952D01*
X117297238Y-95157904D01*
X117316285Y-95138857D01*
X117316285Y-95005523D01*
X117240095Y-95005523D01*
X117487714Y-95176952D02*
X117487714Y-94776952D01*
X117716285Y-95176952D01*
X117716285Y-94776952D01*
X117906761Y-95176952D02*
X117906761Y-94776952D01*
X118002000Y-94776952D01*
X118059142Y-94796000D01*
X118097238Y-94834095D01*
X118116285Y-94872190D01*
X118135333Y-94948380D01*
X118135333Y-95005523D01*
X118116285Y-95081714D01*
X118097238Y-95119809D01*
X118059142Y-95157904D01*
X118002000Y-95176952D01*
X117906761Y-95176952D01*
X116244857Y-99532285D02*
X116411523Y-99532285D01*
X116482952Y-99794190D02*
X116244857Y-99794190D01*
X116244857Y-99294190D01*
X116482952Y-99294190D01*
X116697238Y-99460857D02*
X116697238Y-99794190D01*
X116697238Y-99508476D02*
X116721047Y-99484666D01*
X116768666Y-99460857D01*
X116840095Y-99460857D01*
X116887714Y-99484666D01*
X116911523Y-99532285D01*
X116911523Y-99794190D01*
X117363904Y-99794190D02*
X117363904Y-99532285D01*
X117340095Y-99484666D01*
X117292476Y-99460857D01*
X117197238Y-99460857D01*
X117149619Y-99484666D01*
X117363904Y-99770380D02*
X117316285Y-99794190D01*
X117197238Y-99794190D01*
X117149619Y-99770380D01*
X117125809Y-99722761D01*
X117125809Y-99675142D01*
X117149619Y-99627523D01*
X117197238Y-99603714D01*
X117316285Y-99603714D01*
X117363904Y-99579904D01*
X117602000Y-99794190D02*
X117602000Y-99294190D01*
X117602000Y-99484666D02*
X117649619Y-99460857D01*
X117744857Y-99460857D01*
X117792476Y-99484666D01*
X117816285Y-99508476D01*
X117840095Y-99556095D01*
X117840095Y-99698952D01*
X117816285Y-99746571D01*
X117792476Y-99770380D01*
X117744857Y-99794190D01*
X117649619Y-99794190D01*
X117602000Y-99770380D01*
X118125809Y-99794190D02*
X118078190Y-99770380D01*
X118054380Y-99722761D01*
X118054380Y-99294190D01*
X118506761Y-99770380D02*
X118459142Y-99794190D01*
X118363904Y-99794190D01*
X118316285Y-99770380D01*
X118292476Y-99722761D01*
X118292476Y-99532285D01*
X118316285Y-99484666D01*
X118363904Y-99460857D01*
X118459142Y-99460857D01*
X118506761Y-99484666D01*
X118530571Y-99532285D01*
X118530571Y-99579904D01*
X118292476Y-99627523D01*
X118959142Y-99794190D02*
X118959142Y-99294190D01*
X118959142Y-99770380D02*
X118911523Y-99794190D01*
X118816285Y-99794190D01*
X118768666Y-99770380D01*
X118744857Y-99746571D01*
X118721047Y-99698952D01*
X118721047Y-99556095D01*
X118744857Y-99508476D01*
X118768666Y-99484666D01*
X118816285Y-99460857D01*
X118911523Y-99460857D01*
X118959142Y-99484666D01*
X114188952Y-99318000D02*
X114141333Y-99294190D01*
X114069904Y-99294190D01*
X113998476Y-99318000D01*
X113950857Y-99365619D01*
X113927047Y-99413238D01*
X113903238Y-99508476D01*
X113903238Y-99579904D01*
X113927047Y-99675142D01*
X113950857Y-99722761D01*
X113998476Y-99770380D01*
X114069904Y-99794190D01*
X114117523Y-99794190D01*
X114188952Y-99770380D01*
X114212761Y-99746571D01*
X114212761Y-99579904D01*
X114117523Y-99579904D01*
X114427047Y-99794190D02*
X114427047Y-99294190D01*
X114712761Y-99794190D01*
X114712761Y-99294190D01*
X114950857Y-99794190D02*
X114950857Y-99294190D01*
X115069904Y-99294190D01*
X115141333Y-99318000D01*
X115188952Y-99365619D01*
X115212761Y-99413238D01*
X115236571Y-99508476D01*
X115236571Y-99579904D01*
X115212761Y-99675142D01*
X115188952Y-99722761D01*
X115141333Y-99770380D01*
X115069904Y-99794190D01*
X114950857Y-99794190D01*
X115712761Y-99794190D02*
X115427047Y-99794190D01*
X115569904Y-99794190D02*
X115569904Y-99294190D01*
X115522285Y-99365619D01*
X115474666Y-99413238D01*
X115427047Y-99437047D01*
D10*
X118981285Y-104648547D02*
X118981285Y-103998547D01*
X119228904Y-103998547D01*
X119290809Y-104029500D01*
X119321761Y-104060452D01*
X119352714Y-104122357D01*
X119352714Y-104215214D01*
X119321761Y-104277119D01*
X119290809Y-104308071D01*
X119228904Y-104339023D01*
X118981285Y-104339023D01*
X119569380Y-103998547D02*
X119724142Y-104648547D01*
X119847952Y-104184261D01*
X119971761Y-104648547D01*
X120126523Y-103998547D01*
X120374142Y-104648547D02*
X120374142Y-103998547D01*
X120590809Y-104462833D01*
X120807476Y-103998547D01*
X120807476Y-104648547D01*
X118238428Y-105743547D02*
X118238428Y-105093547D01*
X118547952Y-105310214D02*
X118547952Y-105743547D01*
X118547952Y-105372119D02*
X118578904Y-105341166D01*
X118640809Y-105310214D01*
X118733666Y-105310214D01*
X118795571Y-105341166D01*
X118826523Y-105403071D01*
X118826523Y-105743547D01*
X119043190Y-105310214D02*
X119290809Y-105310214D01*
X119136047Y-105093547D02*
X119136047Y-105650690D01*
X119167000Y-105712595D01*
X119228904Y-105743547D01*
X119290809Y-105743547D01*
X119755095Y-105712595D02*
X119693190Y-105743547D01*
X119569380Y-105743547D01*
X119507476Y-105712595D01*
X119476523Y-105650690D01*
X119476523Y-105403071D01*
X119507476Y-105341166D01*
X119569380Y-105310214D01*
X119693190Y-105310214D01*
X119755095Y-105341166D01*
X119786047Y-105403071D01*
X119786047Y-105464976D01*
X119476523Y-105526880D01*
X120064619Y-105310214D02*
X120064619Y-105743547D01*
X120064619Y-105372119D02*
X120095571Y-105341166D01*
X120157476Y-105310214D01*
X120250333Y-105310214D01*
X120312238Y-105341166D01*
X120343190Y-105403071D01*
X120343190Y-105743547D01*
X120621761Y-105712595D02*
X120683666Y-105743547D01*
X120807476Y-105743547D01*
X120869380Y-105712595D01*
X120900333Y-105650690D01*
X120900333Y-105619738D01*
X120869380Y-105557833D01*
X120807476Y-105526880D01*
X120714619Y-105526880D01*
X120652714Y-105495928D01*
X120621761Y-105434023D01*
X120621761Y-105403071D01*
X120652714Y-105341166D01*
X120714619Y-105310214D01*
X120807476Y-105310214D01*
X120869380Y-105341166D01*
X121178904Y-105743547D02*
X121178904Y-105310214D01*
X121178904Y-105093547D02*
X121147952Y-105124500D01*
X121178904Y-105155452D01*
X121209857Y-105124500D01*
X121178904Y-105093547D01*
X121178904Y-105155452D01*
X121395571Y-105310214D02*
X121643190Y-105310214D01*
X121488428Y-105093547D02*
X121488428Y-105650690D01*
X121519380Y-105712595D01*
X121581285Y-105743547D01*
X121643190Y-105743547D01*
X121797952Y-105310214D02*
X121952714Y-105743547D01*
X122107476Y-105310214D02*
X121952714Y-105743547D01*
X121890809Y-105898309D01*
X121859857Y-105929261D01*
X121797952Y-105960214D01*
D11*
X121285047Y-95820285D02*
X121118380Y-95820285D01*
X121118380Y-96082190D02*
X121118380Y-95582190D01*
X121356476Y-95582190D01*
X121761238Y-96082190D02*
X121761238Y-95820285D01*
X121737428Y-95772666D01*
X121689809Y-95748857D01*
X121594571Y-95748857D01*
X121546952Y-95772666D01*
X121761238Y-96058380D02*
X121713619Y-96082190D01*
X121594571Y-96082190D01*
X121546952Y-96058380D01*
X121523142Y-96010761D01*
X121523142Y-95963142D01*
X121546952Y-95915523D01*
X121594571Y-95891714D01*
X121713619Y-95891714D01*
X121761238Y-95867904D01*
X121999333Y-95748857D02*
X121999333Y-96082190D01*
X121999333Y-95796476D02*
X122023142Y-95772666D01*
X122070761Y-95748857D01*
X122142190Y-95748857D01*
X122189809Y-95772666D01*
X122213619Y-95820285D01*
X122213619Y-96082190D01*
X120427904Y-96402190D02*
X120713619Y-96402190D01*
X120570761Y-96902190D02*
X120570761Y-96402190D01*
X120880285Y-96902190D02*
X120880285Y-96568857D01*
X120880285Y-96664095D02*
X120904095Y-96616476D01*
X120927904Y-96592666D01*
X120975523Y-96568857D01*
X121023142Y-96568857D01*
X121189809Y-96902190D02*
X121189809Y-96568857D01*
X121189809Y-96402190D02*
X121166000Y-96426000D01*
X121189809Y-96449809D01*
X121213619Y-96426000D01*
X121189809Y-96402190D01*
X121189809Y-96449809D01*
X121642190Y-96568857D02*
X121642190Y-96973619D01*
X121618380Y-97021238D01*
X121594571Y-97045047D01*
X121546952Y-97068857D01*
X121475523Y-97068857D01*
X121427904Y-97045047D01*
X121642190Y-96878380D02*
X121594571Y-96902190D01*
X121499333Y-96902190D01*
X121451714Y-96878380D01*
X121427904Y-96854571D01*
X121404095Y-96806952D01*
X121404095Y-96664095D01*
X121427904Y-96616476D01*
X121451714Y-96592666D01*
X121499333Y-96568857D01*
X121594571Y-96568857D01*
X121642190Y-96592666D01*
X122094571Y-96568857D02*
X122094571Y-96973619D01*
X122070761Y-97021238D01*
X122046952Y-97045047D01*
X121999333Y-97068857D01*
X121927904Y-97068857D01*
X121880285Y-97045047D01*
X122094571Y-96878380D02*
X122046952Y-96902190D01*
X121951714Y-96902190D01*
X121904095Y-96878380D01*
X121880285Y-96854571D01*
X121856476Y-96806952D01*
X121856476Y-96664095D01*
X121880285Y-96616476D01*
X121904095Y-96592666D01*
X121951714Y-96568857D01*
X122046952Y-96568857D01*
X122094571Y-96592666D01*
X122523142Y-96878380D02*
X122475523Y-96902190D01*
X122380285Y-96902190D01*
X122332666Y-96878380D01*
X122308857Y-96830761D01*
X122308857Y-96640285D01*
X122332666Y-96592666D01*
X122380285Y-96568857D01*
X122475523Y-96568857D01*
X122523142Y-96592666D01*
X122546952Y-96640285D01*
X122546952Y-96687904D01*
X122308857Y-96735523D01*
X122761238Y-96902190D02*
X122761238Y-96568857D01*
X122761238Y-96664095D02*
X122785047Y-96616476D01*
X122808857Y-96592666D01*
X122856476Y-96568857D01*
X122904095Y-96568857D01*
X122507523Y-87602190D02*
X122507523Y-87102190D01*
X122793238Y-87602190D01*
X122793238Y-87102190D01*
X123031333Y-87340285D02*
X123198000Y-87340285D01*
X123269428Y-87602190D02*
X123031333Y-87602190D01*
X123031333Y-87102190D01*
X123269428Y-87102190D01*
X123364666Y-87649809D02*
X123745619Y-87649809D01*
X123959904Y-87102190D02*
X124055142Y-87102190D01*
X124102761Y-87126000D01*
X124150380Y-87173619D01*
X124174190Y-87268857D01*
X124174190Y-87435523D01*
X124150380Y-87530761D01*
X124102761Y-87578380D01*
X124055142Y-87602190D01*
X123959904Y-87602190D01*
X123912285Y-87578380D01*
X123864666Y-87530761D01*
X123840857Y-87435523D01*
X123840857Y-87268857D01*
X123864666Y-87173619D01*
X123912285Y-87126000D01*
X123959904Y-87102190D01*
X124602761Y-87268857D02*
X124602761Y-87602190D01*
X124388476Y-87268857D02*
X124388476Y-87530761D01*
X124412285Y-87578380D01*
X124459904Y-87602190D01*
X124531333Y-87602190D01*
X124578952Y-87578380D01*
X124602761Y-87554571D01*
X124769428Y-87268857D02*
X124959904Y-87268857D01*
X124840857Y-87102190D02*
X124840857Y-87530761D01*
X124864666Y-87578380D01*
X124912285Y-87602190D01*
X124959904Y-87602190D01*
X122244190Y-85427142D02*
X121744190Y-85427142D01*
X121982285Y-85427142D02*
X121982285Y-85141428D01*
X122244190Y-85141428D02*
X121744190Y-85141428D01*
X122244190Y-84831904D02*
X122220380Y-84879523D01*
X122196571Y-84903333D01*
X122148952Y-84927142D01*
X122006095Y-84927142D01*
X121958476Y-84903333D01*
X121934666Y-84879523D01*
X121910857Y-84831904D01*
X121910857Y-84760476D01*
X121934666Y-84712857D01*
X121958476Y-84689047D01*
X122006095Y-84665238D01*
X122148952Y-84665238D01*
X122196571Y-84689047D01*
X122220380Y-84712857D01*
X122244190Y-84760476D01*
X122244190Y-84831904D01*
X121910857Y-84522380D02*
X121910857Y-84331904D01*
X121744190Y-84450952D02*
X122172761Y-84450952D01*
X122220380Y-84427142D01*
X122244190Y-84379523D01*
X122244190Y-84331904D01*
X121720380Y-83808095D02*
X122363238Y-84236666D01*
X122196571Y-83355714D02*
X122220380Y-83379523D01*
X122244190Y-83450952D01*
X122244190Y-83498571D01*
X122220380Y-83570000D01*
X122172761Y-83617619D01*
X122125142Y-83641428D01*
X122029904Y-83665238D01*
X121958476Y-83665238D01*
X121863238Y-83641428D01*
X121815619Y-83617619D01*
X121768000Y-83570000D01*
X121744190Y-83498571D01*
X121744190Y-83450952D01*
X121768000Y-83379523D01*
X121791809Y-83355714D01*
X122244190Y-83070000D02*
X122220380Y-83117619D01*
X122196571Y-83141428D01*
X122148952Y-83165238D01*
X122006095Y-83165238D01*
X121958476Y-83141428D01*
X121934666Y-83117619D01*
X121910857Y-83070000D01*
X121910857Y-82998571D01*
X121934666Y-82950952D01*
X121958476Y-82927142D01*
X122006095Y-82903333D01*
X122148952Y-82903333D01*
X122196571Y-82927142D01*
X122220380Y-82950952D01*
X122244190Y-82998571D01*
X122244190Y-83070000D01*
X122244190Y-82617619D02*
X122220380Y-82665238D01*
X122172761Y-82689047D01*
X121744190Y-82689047D01*
X122244190Y-82212857D02*
X121744190Y-82212857D01*
X122220380Y-82212857D02*
X122244190Y-82260476D01*
X122244190Y-82355714D01*
X122220380Y-82403333D01*
X122196571Y-82427142D01*
X122148952Y-82450952D01*
X122006095Y-82450952D01*
X121958476Y-82427142D01*
X121934666Y-82403333D01*
X121910857Y-82355714D01*
X121910857Y-82260476D01*
X121934666Y-82212857D01*
X123040380Y-84891428D02*
X123064190Y-84843809D01*
X123064190Y-84748571D01*
X123040380Y-84700952D01*
X122992761Y-84677142D01*
X122968952Y-84677142D01*
X122921333Y-84700952D01*
X122897523Y-84748571D01*
X122897523Y-84820000D01*
X122873714Y-84867619D01*
X122826095Y-84891428D01*
X122802285Y-84891428D01*
X122754666Y-84867619D01*
X122730857Y-84820000D01*
X122730857Y-84748571D01*
X122754666Y-84700952D01*
X122730857Y-84510476D02*
X123064190Y-84415238D01*
X122826095Y-84320000D01*
X123064190Y-84224761D01*
X122730857Y-84129523D01*
X123064190Y-83939047D02*
X122730857Y-83939047D01*
X122564190Y-83939047D02*
X122588000Y-83962857D01*
X122611809Y-83939047D01*
X122588000Y-83915238D01*
X122564190Y-83939047D01*
X122611809Y-83939047D01*
X122730857Y-83772380D02*
X122730857Y-83581904D01*
X122564190Y-83700952D02*
X122992761Y-83700952D01*
X123040380Y-83677142D01*
X123064190Y-83629523D01*
X123064190Y-83581904D01*
X123040380Y-83200952D02*
X123064190Y-83248571D01*
X123064190Y-83343809D01*
X123040380Y-83391428D01*
X123016571Y-83415238D01*
X122968952Y-83439047D01*
X122826095Y-83439047D01*
X122778476Y-83415238D01*
X122754666Y-83391428D01*
X122730857Y-83343809D01*
X122730857Y-83248571D01*
X122754666Y-83200952D01*
X123064190Y-82986666D02*
X122564190Y-82986666D01*
X123064190Y-82772380D02*
X122802285Y-82772380D01*
X122754666Y-82796190D01*
X122730857Y-82843809D01*
X122730857Y-82915238D01*
X122754666Y-82962857D01*
X122778476Y-82986666D01*
X118181523Y-75254190D02*
X118181523Y-74754190D01*
X118300571Y-74754190D01*
X118372000Y-74778000D01*
X118419619Y-74825619D01*
X118443428Y-74873238D01*
X118467238Y-74968476D01*
X118467238Y-75039904D01*
X118443428Y-75135142D01*
X118419619Y-75182761D01*
X118372000Y-75230380D01*
X118300571Y-75254190D01*
X118181523Y-75254190D01*
X118895809Y-74920857D02*
X118895809Y-75254190D01*
X118681523Y-74920857D02*
X118681523Y-75182761D01*
X118705333Y-75230380D01*
X118752952Y-75254190D01*
X118824380Y-75254190D01*
X118872000Y-75230380D01*
X118895809Y-75206571D01*
X119062476Y-74920857D02*
X119252952Y-74920857D01*
X119133904Y-74754190D02*
X119133904Y-75182761D01*
X119157714Y-75230380D01*
X119205333Y-75254190D01*
X119252952Y-75254190D01*
X119372000Y-74920857D02*
X119491047Y-75254190D01*
X119610095Y-74920857D02*
X119491047Y-75254190D01*
X119443428Y-75373238D01*
X119419619Y-75397047D01*
X119372000Y-75420857D01*
X118276761Y-76026571D02*
X118252952Y-76050380D01*
X118181523Y-76074190D01*
X118133904Y-76074190D01*
X118062476Y-76050380D01*
X118014857Y-76002761D01*
X117991047Y-75955142D01*
X117967238Y-75859904D01*
X117967238Y-75788476D01*
X117991047Y-75693238D01*
X118014857Y-75645619D01*
X118062476Y-75598000D01*
X118133904Y-75574190D01*
X118181523Y-75574190D01*
X118252952Y-75598000D01*
X118276761Y-75621809D01*
X118443428Y-75740857D02*
X118562476Y-76074190D01*
X118681523Y-75740857D02*
X118562476Y-76074190D01*
X118514857Y-76193238D01*
X118491047Y-76217047D01*
X118443428Y-76240857D01*
X119086285Y-76050380D02*
X119038666Y-76074190D01*
X118943428Y-76074190D01*
X118895809Y-76050380D01*
X118872000Y-76026571D01*
X118848190Y-75978952D01*
X118848190Y-75836095D01*
X118872000Y-75788476D01*
X118895809Y-75764666D01*
X118943428Y-75740857D01*
X119038666Y-75740857D01*
X119086285Y-75764666D01*
X119372000Y-76074190D02*
X119324380Y-76050380D01*
X119300571Y-76002761D01*
X119300571Y-75574190D01*
X119752952Y-76050380D02*
X119705333Y-76074190D01*
X119610095Y-76074190D01*
X119562476Y-76050380D01*
X119538666Y-76002761D01*
X119538666Y-75812285D01*
X119562476Y-75764666D01*
X119610095Y-75740857D01*
X119705333Y-75740857D01*
X119752952Y-75764666D01*
X119776761Y-75812285D01*
X119776761Y-75859904D01*
X119538666Y-75907523D01*
X114685047Y-75206571D02*
X114661238Y-75230380D01*
X114589809Y-75254190D01*
X114542190Y-75254190D01*
X114470761Y-75230380D01*
X114423142Y-75182761D01*
X114399333Y-75135142D01*
X114375523Y-75039904D01*
X114375523Y-74968476D01*
X114399333Y-74873238D01*
X114423142Y-74825619D01*
X114470761Y-74778000D01*
X114542190Y-74754190D01*
X114589809Y-74754190D01*
X114661238Y-74778000D01*
X114685047Y-74801809D01*
X114970761Y-75254190D02*
X114923142Y-75230380D01*
X114899333Y-75206571D01*
X114875523Y-75158952D01*
X114875523Y-75016095D01*
X114899333Y-74968476D01*
X114923142Y-74944666D01*
X114970761Y-74920857D01*
X115042190Y-74920857D01*
X115089809Y-74944666D01*
X115113619Y-74968476D01*
X115137428Y-75016095D01*
X115137428Y-75158952D01*
X115113619Y-75206571D01*
X115089809Y-75230380D01*
X115042190Y-75254190D01*
X114970761Y-75254190D01*
X115351714Y-75254190D02*
X115351714Y-74920857D01*
X115351714Y-74968476D02*
X115375523Y-74944666D01*
X115423142Y-74920857D01*
X115494571Y-74920857D01*
X115542190Y-74944666D01*
X115566000Y-74992285D01*
X115566000Y-75254190D01*
X115566000Y-74992285D02*
X115589809Y-74944666D01*
X115637428Y-74920857D01*
X115708857Y-74920857D01*
X115756476Y-74944666D01*
X115780285Y-74992285D01*
X115780285Y-75254190D01*
X116018380Y-74920857D02*
X116018380Y-75420857D01*
X116018380Y-74944666D02*
X116066000Y-74920857D01*
X116161238Y-74920857D01*
X116208857Y-74944666D01*
X116232666Y-74968476D01*
X116256476Y-75016095D01*
X116256476Y-75158952D01*
X116232666Y-75206571D01*
X116208857Y-75230380D01*
X116161238Y-75254190D01*
X116066000Y-75254190D01*
X116018380Y-75230380D01*
X114589809Y-76074190D02*
X114589809Y-75574190D01*
X114780285Y-75574190D01*
X114827904Y-75598000D01*
X114851714Y-75621809D01*
X114875523Y-75669428D01*
X114875523Y-75740857D01*
X114851714Y-75788476D01*
X114827904Y-75812285D01*
X114780285Y-75836095D01*
X114589809Y-75836095D01*
X115042190Y-75740857D02*
X115137428Y-76074190D01*
X115232666Y-75836095D01*
X115327904Y-76074190D01*
X115423142Y-75740857D01*
X115613619Y-76074190D02*
X115613619Y-75740857D01*
X115613619Y-75788476D02*
X115637428Y-75764666D01*
X115685047Y-75740857D01*
X115756476Y-75740857D01*
X115804095Y-75764666D01*
X115827904Y-75812285D01*
X115827904Y-76074190D01*
X115827904Y-75812285D02*
X115851714Y-75764666D01*
X115899333Y-75740857D01*
X115970761Y-75740857D01*
X116018380Y-75764666D01*
X116042190Y-75812285D01*
X116042190Y-76074190D01*
D10*
X118182904Y-113578047D02*
X118182904Y-112928047D01*
X118430523Y-112928047D01*
X118492428Y-112959000D01*
X118523380Y-112989952D01*
X118554333Y-113051857D01*
X118554333Y-113144714D01*
X118523380Y-113206619D01*
X118492428Y-113237571D01*
X118430523Y-113268523D01*
X118182904Y-113268523D01*
X118925761Y-113578047D02*
X118863857Y-113547095D01*
X118832904Y-113516142D01*
X118801952Y-113454238D01*
X118801952Y-113268523D01*
X118832904Y-113206619D01*
X118863857Y-113175666D01*
X118925761Y-113144714D01*
X119018619Y-113144714D01*
X119080523Y-113175666D01*
X119111476Y-113206619D01*
X119142428Y-113268523D01*
X119142428Y-113454238D01*
X119111476Y-113516142D01*
X119080523Y-113547095D01*
X119018619Y-113578047D01*
X118925761Y-113578047D01*
X119359095Y-113144714D02*
X119482904Y-113578047D01*
X119606714Y-113268523D01*
X119730523Y-113578047D01*
X119854333Y-113144714D01*
X120349571Y-113547095D02*
X120287666Y-113578047D01*
X120163857Y-113578047D01*
X120101952Y-113547095D01*
X120071000Y-113485190D01*
X120071000Y-113237571D01*
X120101952Y-113175666D01*
X120163857Y-113144714D01*
X120287666Y-113144714D01*
X120349571Y-113175666D01*
X120380523Y-113237571D01*
X120380523Y-113299476D01*
X120071000Y-113361380D01*
X120659095Y-113578047D02*
X120659095Y-113144714D01*
X120659095Y-113268523D02*
X120690047Y-113206619D01*
X120721000Y-113175666D01*
X120782904Y-113144714D01*
X120844809Y-113144714D01*
X121680523Y-112928047D02*
X121804333Y-112928047D01*
X121866238Y-112959000D01*
X121928142Y-113020904D01*
X121959095Y-113144714D01*
X121959095Y-113361380D01*
X121928142Y-113485190D01*
X121866238Y-113547095D01*
X121804333Y-113578047D01*
X121680523Y-113578047D01*
X121618619Y-113547095D01*
X121556714Y-113485190D01*
X121525761Y-113361380D01*
X121525761Y-113144714D01*
X121556714Y-113020904D01*
X121618619Y-112959000D01*
X121680523Y-112928047D01*
X122237666Y-113578047D02*
X122237666Y-112928047D01*
X122609095Y-113578047D01*
X122609095Y-112928047D01*
X118346761Y-109260047D02*
X118346761Y-108610047D01*
X118594380Y-108610047D01*
X118656285Y-108641000D01*
X118687238Y-108671952D01*
X118718190Y-108733857D01*
X118718190Y-108826714D01*
X118687238Y-108888619D01*
X118656285Y-108919571D01*
X118594380Y-108950523D01*
X118346761Y-108950523D01*
X118934857Y-108610047D02*
X119089619Y-109260047D01*
X119213428Y-108795761D01*
X119337238Y-109260047D01*
X119492000Y-108610047D01*
X119739619Y-109260047D02*
X119739619Y-108610047D01*
X119956285Y-109074333D01*
X120172952Y-108610047D01*
X120172952Y-109260047D01*
X121101523Y-108610047D02*
X121225333Y-108610047D01*
X121287238Y-108641000D01*
X121349142Y-108702904D01*
X121380095Y-108826714D01*
X121380095Y-109043380D01*
X121349142Y-109167190D01*
X121287238Y-109229095D01*
X121225333Y-109260047D01*
X121101523Y-109260047D01*
X121039619Y-109229095D01*
X120977714Y-109167190D01*
X120946761Y-109043380D01*
X120946761Y-108826714D01*
X120977714Y-108702904D01*
X121039619Y-108641000D01*
X121101523Y-108610047D01*
X121658666Y-108826714D02*
X121658666Y-109260047D01*
X121658666Y-108888619D02*
X121689619Y-108857666D01*
X121751523Y-108826714D01*
X121844380Y-108826714D01*
X121906285Y-108857666D01*
X121937238Y-108919571D01*
X121937238Y-109260047D01*
D12*
X139496666Y-112472000D02*
X139596666Y-112505333D01*
X139630000Y-112538666D01*
X139663333Y-112605333D01*
X139663333Y-112705333D01*
X139630000Y-112772000D01*
X139596666Y-112805333D01*
X139530000Y-112838666D01*
X139263333Y-112838666D01*
X139263333Y-112138666D01*
X139496666Y-112138666D01*
X139563333Y-112172000D01*
X139596666Y-112205333D01*
X139630000Y-112272000D01*
X139630000Y-112338666D01*
X139596666Y-112405333D01*
X139563333Y-112438666D01*
X139496666Y-112472000D01*
X139263333Y-112472000D01*
X139863333Y-112138666D02*
X140263333Y-112138666D01*
X140063333Y-112838666D02*
X140063333Y-112138666D01*
X140463333Y-112805333D02*
X140563333Y-112838666D01*
X140730000Y-112838666D01*
X140796666Y-112805333D01*
X140830000Y-112772000D01*
X140863333Y-112705333D01*
X140863333Y-112638666D01*
X140830000Y-112572000D01*
X140796666Y-112538666D01*
X140730000Y-112505333D01*
X140596666Y-112472000D01*
X140530000Y-112438666D01*
X140496666Y-112405333D01*
X140463333Y-112338666D01*
X140463333Y-112272000D01*
X140496666Y-112205333D01*
X140530000Y-112172000D01*
X140596666Y-112138666D01*
X140763333Y-112138666D01*
X140863333Y-112172000D01*
X141163333Y-112572000D02*
X141696666Y-112572000D01*
X142363333Y-112838666D02*
X142030000Y-112838666D01*
X142030000Y-112138666D01*
X142696666Y-112838666D02*
X142630000Y-112805333D01*
X142596666Y-112772000D01*
X142563333Y-112705333D01*
X142563333Y-112505333D01*
X142596666Y-112438666D01*
X142630000Y-112405333D01*
X142696666Y-112372000D01*
X142796666Y-112372000D01*
X142863333Y-112405333D01*
X142896666Y-112438666D01*
X142930000Y-112505333D01*
X142930000Y-112705333D01*
X142896666Y-112772000D01*
X142863333Y-112805333D01*
X142796666Y-112838666D01*
X142696666Y-112838666D01*
X143530000Y-112372000D02*
X143530000Y-112938666D01*
X143496666Y-113005333D01*
X143463333Y-113038666D01*
X143396666Y-113072000D01*
X143296666Y-113072000D01*
X143230000Y-113038666D01*
X143530000Y-112805333D02*
X143463333Y-112838666D01*
X143330000Y-112838666D01*
X143263333Y-112805333D01*
X143230000Y-112772000D01*
X143196666Y-112705333D01*
X143196666Y-112505333D01*
X143230000Y-112438666D01*
X143263333Y-112405333D01*
X143330000Y-112372000D01*
X143463333Y-112372000D01*
X143530000Y-112405333D01*
X143863333Y-112838666D02*
X143863333Y-112372000D01*
X143863333Y-112138666D02*
X143830000Y-112172000D01*
X143863333Y-112205333D01*
X143896666Y-112172000D01*
X143863333Y-112138666D01*
X143863333Y-112205333D01*
X144496666Y-112805333D02*
X144430000Y-112838666D01*
X144296666Y-112838666D01*
X144230000Y-112805333D01*
X144196666Y-112772000D01*
X144163333Y-112705333D01*
X144163333Y-112505333D01*
X144196666Y-112438666D01*
X144230000Y-112405333D01*
X144296666Y-112372000D01*
X144430000Y-112372000D01*
X144496666Y-112405333D01*
X145030000Y-112472000D02*
X145130000Y-112505333D01*
X145163333Y-112538666D01*
X145196666Y-112605333D01*
X145196666Y-112705333D01*
X145163333Y-112772000D01*
X145130000Y-112805333D01*
X145063333Y-112838666D01*
X144796666Y-112838666D01*
X144796666Y-112138666D01*
X145030000Y-112138666D01*
X145096666Y-112172000D01*
X145130000Y-112205333D01*
X145163333Y-112272000D01*
X145163333Y-112338666D01*
X145130000Y-112405333D01*
X145096666Y-112438666D01*
X145030000Y-112472000D01*
X144796666Y-112472000D01*
X145596666Y-112838666D02*
X145530000Y-112805333D01*
X145496666Y-112772000D01*
X145463333Y-112705333D01*
X145463333Y-112505333D01*
X145496666Y-112438666D01*
X145530000Y-112405333D01*
X145596666Y-112372000D01*
X145696666Y-112372000D01*
X145763333Y-112405333D01*
X145796666Y-112438666D01*
X145830000Y-112505333D01*
X145830000Y-112705333D01*
X145796666Y-112772000D01*
X145763333Y-112805333D01*
X145696666Y-112838666D01*
X145596666Y-112838666D01*
X146430000Y-112838666D02*
X146430000Y-112472000D01*
X146396666Y-112405333D01*
X146330000Y-112372000D01*
X146196666Y-112372000D01*
X146130000Y-112405333D01*
X146430000Y-112805333D02*
X146363333Y-112838666D01*
X146196666Y-112838666D01*
X146130000Y-112805333D01*
X146096666Y-112738666D01*
X146096666Y-112672000D01*
X146130000Y-112605333D01*
X146196666Y-112572000D01*
X146363333Y-112572000D01*
X146430000Y-112538666D01*
X146763333Y-112838666D02*
X146763333Y-112372000D01*
X146763333Y-112505333D02*
X146796666Y-112438666D01*
X146830000Y-112405333D01*
X146896666Y-112372000D01*
X146963333Y-112372000D01*
X147496666Y-112838666D02*
X147496666Y-112138666D01*
X147496666Y-112805333D02*
X147430000Y-112838666D01*
X147296666Y-112838666D01*
X147230000Y-112805333D01*
X147196666Y-112772000D01*
X147163333Y-112705333D01*
X147163333Y-112505333D01*
X147196666Y-112438666D01*
X147230000Y-112405333D01*
X147296666Y-112372000D01*
X147430000Y-112372000D01*
X147496666Y-112405333D01*
X148263333Y-112138666D02*
X148496666Y-112838666D01*
X148730000Y-112138666D01*
X149330000Y-112838666D02*
X148930000Y-112838666D01*
X149130000Y-112838666D02*
X149130000Y-112138666D01*
X149063333Y-112238666D01*
X148996666Y-112305333D01*
X148930000Y-112338666D01*
X149630000Y-112772000D02*
X149663333Y-112805333D01*
X149630000Y-112838666D01*
X149596666Y-112805333D01*
X149630000Y-112772000D01*
X149630000Y-112838666D01*
X150330000Y-112838666D02*
X149930000Y-112838666D01*
X150130000Y-112838666D02*
X150130000Y-112138666D01*
X150063333Y-112238666D01*
X149996666Y-112305333D01*
X149930000Y-112338666D01*
D13*
%TO.C,REF\u002A\u002A*%
G36*
X142818886Y-80308505D02*
G01*
X142893539Y-80345727D01*
X142959431Y-80414261D01*
X142977577Y-80439648D01*
X142997345Y-80472866D01*
X143010172Y-80508945D01*
X143017510Y-80557098D01*
X143020813Y-80626536D01*
X143021538Y-80718206D01*
X143018263Y-80843830D01*
X143006877Y-80938154D01*
X142985041Y-81008523D01*
X142950419Y-81062286D01*
X142900670Y-81106788D01*
X142897014Y-81109423D01*
X142847985Y-81136377D01*
X142788945Y-81149712D01*
X142713859Y-81153000D01*
X142591795Y-81153000D01*
X142591744Y-81271497D01*
X142590608Y-81337492D01*
X142583686Y-81376202D01*
X142565598Y-81399419D01*
X142530962Y-81418933D01*
X142522645Y-81422920D01*
X142483720Y-81441603D01*
X142453583Y-81453403D01*
X142431174Y-81454422D01*
X142415433Y-81440761D01*
X142405302Y-81408522D01*
X142399723Y-81353804D01*
X142397635Y-81272711D01*
X142397981Y-81161344D01*
X142399700Y-81015802D01*
X142400237Y-80972269D01*
X142402172Y-80822205D01*
X142403904Y-80724042D01*
X142591692Y-80724042D01*
X142592748Y-80807364D01*
X142597438Y-80861880D01*
X142608051Y-80897837D01*
X142626872Y-80925482D01*
X142639650Y-80938965D01*
X142691890Y-80978417D01*
X142738142Y-80981628D01*
X142785867Y-80949049D01*
X142787077Y-80947846D01*
X142806494Y-80922668D01*
X142818307Y-80888447D01*
X142824265Y-80835748D01*
X142826120Y-80755131D01*
X142826154Y-80737271D01*
X142821670Y-80626175D01*
X142807074Y-80549161D01*
X142780650Y-80502147D01*
X142740683Y-80481050D01*
X142717584Y-80478923D01*
X142662762Y-80488900D01*
X142625158Y-80521752D01*
X142602523Y-80581857D01*
X142592606Y-80673598D01*
X142591692Y-80724042D01*
X142403904Y-80724042D01*
X142404222Y-80706060D01*
X142406873Y-80618679D01*
X142410606Y-80554905D01*
X142415907Y-80509582D01*
X142423258Y-80477555D01*
X142433143Y-80453668D01*
X142446046Y-80432764D01*
X142451579Y-80424898D01*
X142524969Y-80350595D01*
X142617760Y-80308467D01*
X142725096Y-80296722D01*
X142818886Y-80308505D01*
G37*
X142818886Y-80308505D02*
X142893539Y-80345727D01*
X142959431Y-80414261D01*
X142977577Y-80439648D01*
X142997345Y-80472866D01*
X143010172Y-80508945D01*
X143017510Y-80557098D01*
X143020813Y-80626536D01*
X143021538Y-80718206D01*
X143018263Y-80843830D01*
X143006877Y-80938154D01*
X142985041Y-81008523D01*
X142950419Y-81062286D01*
X142900670Y-81106788D01*
X142897014Y-81109423D01*
X142847985Y-81136377D01*
X142788945Y-81149712D01*
X142713859Y-81153000D01*
X142591795Y-81153000D01*
X142591744Y-81271497D01*
X142590608Y-81337492D01*
X142583686Y-81376202D01*
X142565598Y-81399419D01*
X142530962Y-81418933D01*
X142522645Y-81422920D01*
X142483720Y-81441603D01*
X142453583Y-81453403D01*
X142431174Y-81454422D01*
X142415433Y-81440761D01*
X142405302Y-81408522D01*
X142399723Y-81353804D01*
X142397635Y-81272711D01*
X142397981Y-81161344D01*
X142399700Y-81015802D01*
X142400237Y-80972269D01*
X142402172Y-80822205D01*
X142403904Y-80724042D01*
X142591692Y-80724042D01*
X142592748Y-80807364D01*
X142597438Y-80861880D01*
X142608051Y-80897837D01*
X142626872Y-80925482D01*
X142639650Y-80938965D01*
X142691890Y-80978417D01*
X142738142Y-80981628D01*
X142785867Y-80949049D01*
X142787077Y-80947846D01*
X142806494Y-80922668D01*
X142818307Y-80888447D01*
X142824265Y-80835748D01*
X142826120Y-80755131D01*
X142826154Y-80737271D01*
X142821670Y-80626175D01*
X142807074Y-80549161D01*
X142780650Y-80502147D01*
X142740683Y-80481050D01*
X142717584Y-80478923D01*
X142662762Y-80488900D01*
X142625158Y-80521752D01*
X142602523Y-80581857D01*
X142592606Y-80673598D01*
X142591692Y-80724042D01*
X142403904Y-80724042D01*
X142404222Y-80706060D01*
X142406873Y-80618679D01*
X142410606Y-80554905D01*
X142415907Y-80509582D01*
X142423258Y-80477555D01*
X142433143Y-80453668D01*
X142446046Y-80432764D01*
X142451579Y-80424898D01*
X142524969Y-80350595D01*
X142617760Y-80308467D01*
X142725096Y-80296722D01*
X142818886Y-80308505D01*
G36*
X144321664Y-80319089D02*
G01*
X144384367Y-80355358D01*
X144427961Y-80391358D01*
X144459845Y-80429075D01*
X144481810Y-80475199D01*
X144495649Y-80536421D01*
X144503153Y-80619431D01*
X144506117Y-80730919D01*
X144506461Y-80811062D01*
X144506461Y-81106065D01*
X144340385Y-81180515D01*
X144330615Y-80857402D01*
X144326579Y-80736729D01*
X144322344Y-80649141D01*
X144317097Y-80588650D01*
X144310025Y-80549268D01*
X144300311Y-80525007D01*
X144287144Y-80509880D01*
X144282919Y-80506606D01*
X144218909Y-80481034D01*
X144154208Y-80491153D01*
X144115692Y-80518000D01*
X144100025Y-80537024D01*
X144089180Y-80561988D01*
X144082288Y-80599834D01*
X144078479Y-80657502D01*
X144076883Y-80741935D01*
X144076615Y-80829928D01*
X144076563Y-80940323D01*
X144074672Y-81018463D01*
X144068345Y-81071165D01*
X144054983Y-81105242D01*
X144031985Y-81127511D01*
X143996754Y-81144787D01*
X143949697Y-81162738D01*
X143898303Y-81182278D01*
X143904421Y-80835485D01*
X143906884Y-80710468D01*
X143909767Y-80618082D01*
X143913898Y-80551881D01*
X143920107Y-80505420D01*
X143929226Y-80472256D01*
X143942083Y-80445944D01*
X143957584Y-80422729D01*
X144032371Y-80348569D01*
X144123628Y-80305684D01*
X144222883Y-80295412D01*
X144321664Y-80319089D01*
G37*
X144321664Y-80319089D02*
X144384367Y-80355358D01*
X144427961Y-80391358D01*
X144459845Y-80429075D01*
X144481810Y-80475199D01*
X144495649Y-80536421D01*
X144503153Y-80619431D01*
X144506117Y-80730919D01*
X144506461Y-80811062D01*
X144506461Y-81106065D01*
X144340385Y-81180515D01*
X144330615Y-80857402D01*
X144326579Y-80736729D01*
X144322344Y-80649141D01*
X144317097Y-80588650D01*
X144310025Y-80549268D01*
X144300311Y-80525007D01*
X144287144Y-80509880D01*
X144282919Y-80506606D01*
X144218909Y-80481034D01*
X144154208Y-80491153D01*
X144115692Y-80518000D01*
X144100025Y-80537024D01*
X144089180Y-80561988D01*
X144082288Y-80599834D01*
X144078479Y-80657502D01*
X144076883Y-80741935D01*
X144076615Y-80829928D01*
X144076563Y-80940323D01*
X144074672Y-81018463D01*
X144068345Y-81071165D01*
X144054983Y-81105242D01*
X144031985Y-81127511D01*
X143996754Y-81144787D01*
X143949697Y-81162738D01*
X143898303Y-81182278D01*
X143904421Y-80835485D01*
X143906884Y-80710468D01*
X143909767Y-80618082D01*
X143913898Y-80551881D01*
X143920107Y-80505420D01*
X143929226Y-80472256D01*
X143942083Y-80445944D01*
X143957584Y-80422729D01*
X144032371Y-80348569D01*
X144123628Y-80305684D01*
X144222883Y-80295412D01*
X144321664Y-80319089D01*
G36*
X142066886Y-80311256D02*
G01*
X142158464Y-80359409D01*
X142226049Y-80436905D01*
X142250057Y-80486727D01*
X142268738Y-80561533D01*
X142278301Y-80656052D01*
X142279208Y-80759210D01*
X142271921Y-80859935D01*
X142256903Y-80947153D01*
X142234615Y-81009791D01*
X142227765Y-81020579D01*
X142146632Y-81101105D01*
X142050266Y-81149336D01*
X141945701Y-81163450D01*
X141839968Y-81141629D01*
X141810543Y-81128547D01*
X141753241Y-81088231D01*
X141702950Y-81034775D01*
X141698197Y-81027995D01*
X141678878Y-80995321D01*
X141666108Y-80960394D01*
X141658564Y-80914414D01*
X141654924Y-80848584D01*
X141653865Y-80754105D01*
X141653846Y-80732923D01*
X141653894Y-80726182D01*
X141849231Y-80726182D01*
X141850368Y-80815349D01*
X141854841Y-80874520D01*
X141864246Y-80912741D01*
X141880176Y-80939053D01*
X141888308Y-80947846D01*
X141935058Y-80981261D01*
X141980447Y-80979737D01*
X142026340Y-80950752D01*
X142053712Y-80919809D01*
X142069923Y-80874643D01*
X142079026Y-80803420D01*
X142079651Y-80795114D01*
X142081204Y-80666037D01*
X142064965Y-80570172D01*
X142031152Y-80508107D01*
X141979984Y-80480432D01*
X141961720Y-80478923D01*
X141913760Y-80486513D01*
X141880953Y-80512808D01*
X141860895Y-80563095D01*
X141851178Y-80642664D01*
X141849231Y-80726182D01*
X141653894Y-80726182D01*
X141654574Y-80632249D01*
X141657629Y-80561906D01*
X141664322Y-80513163D01*
X141675960Y-80477288D01*
X141693853Y-80445548D01*
X141697808Y-80439648D01*
X141764267Y-80360104D01*
X141836685Y-80313929D01*
X141924849Y-80295599D01*
X141954787Y-80294703D01*
X142066886Y-80311256D01*
G37*
X142066886Y-80311256D02*
X142158464Y-80359409D01*
X142226049Y-80436905D01*
X142250057Y-80486727D01*
X142268738Y-80561533D01*
X142278301Y-80656052D01*
X142279208Y-80759210D01*
X142271921Y-80859935D01*
X142256903Y-80947153D01*
X142234615Y-81009791D01*
X142227765Y-81020579D01*
X142146632Y-81101105D01*
X142050266Y-81149336D01*
X141945701Y-81163450D01*
X141839968Y-81141629D01*
X141810543Y-81128547D01*
X141753241Y-81088231D01*
X141702950Y-81034775D01*
X141698197Y-81027995D01*
X141678878Y-80995321D01*
X141666108Y-80960394D01*
X141658564Y-80914414D01*
X141654924Y-80848584D01*
X141653865Y-80754105D01*
X141653846Y-80732923D01*
X141653894Y-80726182D01*
X141849231Y-80726182D01*
X141850368Y-80815349D01*
X141854841Y-80874520D01*
X141864246Y-80912741D01*
X141880176Y-80939053D01*
X141888308Y-80947846D01*
X141935058Y-80981261D01*
X141980447Y-80979737D01*
X142026340Y-80950752D01*
X142053712Y-80919809D01*
X142069923Y-80874643D01*
X142079026Y-80803420D01*
X142079651Y-80795114D01*
X142081204Y-80666037D01*
X142064965Y-80570172D01*
X142031152Y-80508107D01*
X141979984Y-80480432D01*
X141961720Y-80478923D01*
X141913760Y-80486513D01*
X141880953Y-80512808D01*
X141860895Y-80563095D01*
X141851178Y-80642664D01*
X141849231Y-80726182D01*
X141653894Y-80726182D01*
X141654574Y-80632249D01*
X141657629Y-80561906D01*
X141664322Y-80513163D01*
X141675960Y-80477288D01*
X141693853Y-80445548D01*
X141697808Y-80439648D01*
X141764267Y-80360104D01*
X141836685Y-80313929D01*
X141924849Y-80295599D01*
X141954787Y-80294703D01*
X142066886Y-80311256D01*
G36*
X143584254Y-80323745D02*
G01*
X143661286Y-80375567D01*
X143720816Y-80450412D01*
X143756378Y-80545654D01*
X143763571Y-80615756D01*
X143762754Y-80645009D01*
X143755914Y-80667407D01*
X143737112Y-80687474D01*
X143700408Y-80709733D01*
X143639862Y-80738709D01*
X143549534Y-80778927D01*
X143549077Y-80779129D01*
X143465933Y-80817210D01*
X143397753Y-80851025D01*
X143351505Y-80876933D01*
X143334158Y-80891295D01*
X143334154Y-80891411D01*
X143349443Y-80922685D01*
X143385196Y-80957157D01*
X143426242Y-80981990D01*
X143447037Y-80986923D01*
X143503770Y-80969862D01*
X143552627Y-80927133D01*
X143576465Y-80880155D01*
X143599397Y-80845522D01*
X143644318Y-80806081D01*
X143697123Y-80772009D01*
X143743710Y-80753480D01*
X143753452Y-80752462D01*
X143764418Y-80769215D01*
X143765079Y-80812039D01*
X143757020Y-80869781D01*
X143741827Y-80931289D01*
X143721086Y-80985409D01*
X143720038Y-80987510D01*
X143657621Y-81074660D01*
X143576726Y-81133939D01*
X143484856Y-81163034D01*
X143389513Y-81159634D01*
X143298198Y-81121428D01*
X143294138Y-81118741D01*
X143222306Y-81053642D01*
X143175073Y-80968705D01*
X143148934Y-80857021D01*
X143145426Y-80825643D01*
X143139213Y-80677536D01*
X143146661Y-80608468D01*
X143334154Y-80608468D01*
X143336590Y-80651552D01*
X143349914Y-80664126D01*
X143383132Y-80654719D01*
X143435494Y-80632483D01*
X143494024Y-80604610D01*
X143495479Y-80603872D01*
X143545089Y-80577777D01*
X143565000Y-80560363D01*
X143560090Y-80542107D01*
X143539416Y-80518120D01*
X143486819Y-80483406D01*
X143430177Y-80480856D01*
X143379369Y-80506119D01*
X143344276Y-80554847D01*
X143334154Y-80608468D01*
X143146661Y-80608468D01*
X143151992Y-80559036D01*
X143184778Y-80465055D01*
X143230421Y-80399215D01*
X143312802Y-80332681D01*
X143403546Y-80299676D01*
X143496185Y-80297573D01*
X143584254Y-80323745D01*
G37*
X143584254Y-80323745D02*
X143661286Y-80375567D01*
X143720816Y-80450412D01*
X143756378Y-80545654D01*
X143763571Y-80615756D01*
X143762754Y-80645009D01*
X143755914Y-80667407D01*
X143737112Y-80687474D01*
X143700408Y-80709733D01*
X143639862Y-80738709D01*
X143549534Y-80778927D01*
X143549077Y-80779129D01*
X143465933Y-80817210D01*
X143397753Y-80851025D01*
X143351505Y-80876933D01*
X143334158Y-80891295D01*
X143334154Y-80891411D01*
X143349443Y-80922685D01*
X143385196Y-80957157D01*
X143426242Y-80981990D01*
X143447037Y-80986923D01*
X143503770Y-80969862D01*
X143552627Y-80927133D01*
X143576465Y-80880155D01*
X143599397Y-80845522D01*
X143644318Y-80806081D01*
X143697123Y-80772009D01*
X143743710Y-80753480D01*
X143753452Y-80752462D01*
X143764418Y-80769215D01*
X143765079Y-80812039D01*
X143757020Y-80869781D01*
X143741827Y-80931289D01*
X143721086Y-80985409D01*
X143720038Y-80987510D01*
X143657621Y-81074660D01*
X143576726Y-81133939D01*
X143484856Y-81163034D01*
X143389513Y-81159634D01*
X143298198Y-81121428D01*
X143294138Y-81118741D01*
X143222306Y-81053642D01*
X143175073Y-80968705D01*
X143148934Y-80857021D01*
X143145426Y-80825643D01*
X143139213Y-80677536D01*
X143146661Y-80608468D01*
X143334154Y-80608468D01*
X143336590Y-80651552D01*
X143349914Y-80664126D01*
X143383132Y-80654719D01*
X143435494Y-80632483D01*
X143494024Y-80604610D01*
X143495479Y-80603872D01*
X143545089Y-80577777D01*
X143565000Y-80560363D01*
X143560090Y-80542107D01*
X143539416Y-80518120D01*
X143486819Y-80483406D01*
X143430177Y-80480856D01*
X143379369Y-80506119D01*
X143344276Y-80554847D01*
X143334154Y-80608468D01*
X143146661Y-80608468D01*
X143151992Y-80559036D01*
X143184778Y-80465055D01*
X143230421Y-80399215D01*
X143312802Y-80332681D01*
X143403546Y-80299676D01*
X143496185Y-80297573D01*
X143584254Y-80323745D01*
G36*
X145209846Y-80216120D02*
G01*
X145215572Y-80295980D01*
X145222149Y-80343039D01*
X145231262Y-80363566D01*
X145244598Y-80363829D01*
X145248923Y-80361378D01*
X145306444Y-80343636D01*
X145381268Y-80344672D01*
X145457339Y-80362910D01*
X145504918Y-80386505D01*
X145553702Y-80424198D01*
X145589364Y-80466855D01*
X145613845Y-80521057D01*
X145629087Y-80593384D01*
X145637030Y-80690419D01*
X145639616Y-80818742D01*
X145639662Y-80843358D01*
X145639692Y-81119870D01*
X145578161Y-81141320D01*
X145534459Y-81155912D01*
X145510482Y-81162706D01*
X145509777Y-81162769D01*
X145507415Y-81144345D01*
X145505406Y-81093526D01*
X145503901Y-81016993D01*
X145503053Y-80921430D01*
X145502923Y-80863329D01*
X145502651Y-80748771D01*
X145501252Y-80666667D01*
X145497849Y-80610393D01*
X145491567Y-80573326D01*
X145481529Y-80548844D01*
X145466861Y-80530325D01*
X145457702Y-80521406D01*
X145394789Y-80485466D01*
X145326136Y-80482775D01*
X145263848Y-80513170D01*
X145252329Y-80524144D01*
X145235433Y-80544779D01*
X145223714Y-80569256D01*
X145216233Y-80604647D01*
X145212054Y-80658026D01*
X145210237Y-80736466D01*
X145209846Y-80844617D01*
X145209846Y-81119870D01*
X145148315Y-81141320D01*
X145104613Y-81155912D01*
X145080636Y-81162706D01*
X145079930Y-81162769D01*
X145078126Y-81144069D01*
X145076500Y-81091322D01*
X145075117Y-81009557D01*
X145074042Y-80903805D01*
X145073340Y-80779094D01*
X145073077Y-80640455D01*
X145073077Y-80105806D01*
X145200077Y-80052236D01*
X145209846Y-80216120D01*
G37*
X145209846Y-80216120D02*
X145215572Y-80295980D01*
X145222149Y-80343039D01*
X145231262Y-80363566D01*
X145244598Y-80363829D01*
X145248923Y-80361378D01*
X145306444Y-80343636D01*
X145381268Y-80344672D01*
X145457339Y-80362910D01*
X145504918Y-80386505D01*
X145553702Y-80424198D01*
X145589364Y-80466855D01*
X145613845Y-80521057D01*
X145629087Y-80593384D01*
X145637030Y-80690419D01*
X145639616Y-80818742D01*
X145639662Y-80843358D01*
X145639692Y-81119870D01*
X145578161Y-81141320D01*
X145534459Y-81155912D01*
X145510482Y-81162706D01*
X145509777Y-81162769D01*
X145507415Y-81144345D01*
X145505406Y-81093526D01*
X145503901Y-81016993D01*
X145503053Y-80921430D01*
X145502923Y-80863329D01*
X145502651Y-80748771D01*
X145501252Y-80666667D01*
X145497849Y-80610393D01*
X145491567Y-80573326D01*
X145481529Y-80548844D01*
X145466861Y-80530325D01*
X145457702Y-80521406D01*
X145394789Y-80485466D01*
X145326136Y-80482775D01*
X145263848Y-80513170D01*
X145252329Y-80524144D01*
X145235433Y-80544779D01*
X145223714Y-80569256D01*
X145216233Y-80604647D01*
X145212054Y-80658026D01*
X145210237Y-80736466D01*
X145209846Y-80844617D01*
X145209846Y-81119870D01*
X145148315Y-81141320D01*
X145104613Y-81155912D01*
X145080636Y-81162706D01*
X145079930Y-81162769D01*
X145078126Y-81144069D01*
X145076500Y-81091322D01*
X145075117Y-81009557D01*
X145074042Y-80903805D01*
X145073340Y-80779094D01*
X145073077Y-80640455D01*
X145073077Y-80105806D01*
X145200077Y-80052236D01*
X145209846Y-80216120D01*
G36*
X146103501Y-80350303D02*
G01*
X146180060Y-80378733D01*
X146180936Y-80379279D01*
X146228285Y-80414127D01*
X146263241Y-80454852D01*
X146287825Y-80507925D01*
X146304062Y-80579814D01*
X146313975Y-80676992D01*
X146319586Y-80805928D01*
X146320077Y-80824298D01*
X146327141Y-81101287D01*
X146267695Y-81132028D01*
X146224681Y-81152802D01*
X146198710Y-81162646D01*
X146197509Y-81162769D01*
X146193014Y-81144606D01*
X146189444Y-81095612D01*
X146187248Y-81024031D01*
X146186769Y-80966068D01*
X146186758Y-80872170D01*
X146182466Y-80813203D01*
X146167503Y-80785079D01*
X146135482Y-80783706D01*
X146080014Y-80804998D01*
X145996269Y-80844136D01*
X145934689Y-80876643D01*
X145903017Y-80904845D01*
X145893706Y-80935582D01*
X145893692Y-80937104D01*
X145909057Y-80990054D01*
X145954547Y-81018660D01*
X146024166Y-81022803D01*
X146074313Y-81022084D01*
X146100754Y-81036527D01*
X146117243Y-81071218D01*
X146126733Y-81115416D01*
X146113057Y-81140493D01*
X146107907Y-81144082D01*
X146059425Y-81158496D01*
X145991531Y-81160537D01*
X145921612Y-81150983D01*
X145872068Y-81133522D01*
X145803570Y-81075364D01*
X145764634Y-80994408D01*
X145756923Y-80931160D01*
X145762807Y-80874111D01*
X145784101Y-80827542D01*
X145826265Y-80786181D01*
X145894759Y-80744755D01*
X145995044Y-80697993D01*
X146001154Y-80695350D01*
X146091490Y-80653617D01*
X146147235Y-80619391D01*
X146171129Y-80588635D01*
X146165913Y-80557311D01*
X146134328Y-80521383D01*
X146124883Y-80513116D01*
X146061617Y-80481058D01*
X145996064Y-80482407D01*
X145938972Y-80513838D01*
X145901093Y-80572024D01*
X145897574Y-80583446D01*
X145863300Y-80638837D01*
X145819809Y-80665518D01*
X145756923Y-80691960D01*
X145756923Y-80623548D01*
X145776052Y-80524110D01*
X145832831Y-80432902D01*
X145862378Y-80402389D01*
X145929542Y-80363228D01*
X146014956Y-80345500D01*
X146103501Y-80350303D01*
G37*
X146103501Y-80350303D02*
X146180060Y-80378733D01*
X146180936Y-80379279D01*
X146228285Y-80414127D01*
X146263241Y-80454852D01*
X146287825Y-80507925D01*
X146304062Y-80579814D01*
X146313975Y-80676992D01*
X146319586Y-80805928D01*
X146320077Y-80824298D01*
X146327141Y-81101287D01*
X146267695Y-81132028D01*
X146224681Y-81152802D01*
X146198710Y-81162646D01*
X146197509Y-81162769D01*
X146193014Y-81144606D01*
X146189444Y-81095612D01*
X146187248Y-81024031D01*
X146186769Y-80966068D01*
X146186758Y-80872170D01*
X146182466Y-80813203D01*
X146167503Y-80785079D01*
X146135482Y-80783706D01*
X146080014Y-80804998D01*
X145996269Y-80844136D01*
X145934689Y-80876643D01*
X145903017Y-80904845D01*
X145893706Y-80935582D01*
X145893692Y-80937104D01*
X145909057Y-80990054D01*
X145954547Y-81018660D01*
X146024166Y-81022803D01*
X146074313Y-81022084D01*
X146100754Y-81036527D01*
X146117243Y-81071218D01*
X146126733Y-81115416D01*
X146113057Y-81140493D01*
X146107907Y-81144082D01*
X146059425Y-81158496D01*
X145991531Y-81160537D01*
X145921612Y-81150983D01*
X145872068Y-81133522D01*
X145803570Y-81075364D01*
X145764634Y-80994408D01*
X145756923Y-80931160D01*
X145762807Y-80874111D01*
X145784101Y-80827542D01*
X145826265Y-80786181D01*
X145894759Y-80744755D01*
X145995044Y-80697993D01*
X146001154Y-80695350D01*
X146091490Y-80653617D01*
X146147235Y-80619391D01*
X146171129Y-80588635D01*
X146165913Y-80557311D01*
X146134328Y-80521383D01*
X146124883Y-80513116D01*
X146061617Y-80481058D01*
X145996064Y-80482407D01*
X145938972Y-80513838D01*
X145901093Y-80572024D01*
X145897574Y-80583446D01*
X145863300Y-80638837D01*
X145819809Y-80665518D01*
X145756923Y-80691960D01*
X145756923Y-80623548D01*
X145776052Y-80524110D01*
X145832831Y-80432902D01*
X145862378Y-80402389D01*
X145929542Y-80363228D01*
X146014956Y-80345500D01*
X146103501Y-80350303D01*
G36*
X146763362Y-80348670D02*
G01*
X146852117Y-80381421D01*
X146924022Y-80439350D01*
X146952144Y-80480128D01*
X146982802Y-80554954D01*
X146982165Y-80609058D01*
X146949987Y-80645446D01*
X146938081Y-80651633D01*
X146886675Y-80670925D01*
X146860422Y-80665982D01*
X146851530Y-80633587D01*
X146851077Y-80615692D01*
X146834797Y-80549859D01*
X146792365Y-80503807D01*
X146733388Y-80481564D01*
X146667475Y-80487161D01*
X146613895Y-80516229D01*
X146595798Y-80532810D01*
X146582971Y-80552925D01*
X146574306Y-80583332D01*
X146568696Y-80630788D01*
X146565035Y-80702050D01*
X146562215Y-80803875D01*
X146561484Y-80836115D01*
X146558820Y-80946410D01*
X146555792Y-81024036D01*
X146551250Y-81075396D01*
X146544046Y-81106890D01*
X146533033Y-81124920D01*
X146517060Y-81135888D01*
X146506834Y-81140733D01*
X146463406Y-81157301D01*
X146437842Y-81162769D01*
X146429395Y-81144507D01*
X146424239Y-81089296D01*
X146422346Y-80996499D01*
X146423689Y-80865478D01*
X146424107Y-80845269D01*
X146427058Y-80725733D01*
X146430548Y-80638449D01*
X146435514Y-80576591D01*
X146442893Y-80533336D01*
X146453624Y-80501860D01*
X146468645Y-80475339D01*
X146476502Y-80463975D01*
X146521553Y-80413692D01*
X146571940Y-80374581D01*
X146578108Y-80371167D01*
X146668458Y-80344212D01*
X146763362Y-80348670D01*
G37*
X146763362Y-80348670D02*
X146852117Y-80381421D01*
X146924022Y-80439350D01*
X146952144Y-80480128D01*
X146982802Y-80554954D01*
X146982165Y-80609058D01*
X146949987Y-80645446D01*
X146938081Y-80651633D01*
X146886675Y-80670925D01*
X146860422Y-80665982D01*
X146851530Y-80633587D01*
X146851077Y-80615692D01*
X146834797Y-80549859D01*
X146792365Y-80503807D01*
X146733388Y-80481564D01*
X146667475Y-80487161D01*
X146613895Y-80516229D01*
X146595798Y-80532810D01*
X146582971Y-80552925D01*
X146574306Y-80583332D01*
X146568696Y-80630788D01*
X146565035Y-80702050D01*
X146562215Y-80803875D01*
X146561484Y-80836115D01*
X146558820Y-80946410D01*
X146555792Y-81024036D01*
X146551250Y-81075396D01*
X146544046Y-81106890D01*
X146533033Y-81124920D01*
X146517060Y-81135888D01*
X146506834Y-81140733D01*
X146463406Y-81157301D01*
X146437842Y-81162769D01*
X146429395Y-81144507D01*
X146424239Y-81089296D01*
X146422346Y-80996499D01*
X146423689Y-80865478D01*
X146424107Y-80845269D01*
X146427058Y-80725733D01*
X146430548Y-80638449D01*
X146435514Y-80576591D01*
X146442893Y-80533336D01*
X146453624Y-80501860D01*
X146468645Y-80475339D01*
X146476502Y-80463975D01*
X146521553Y-80413692D01*
X146571940Y-80374581D01*
X146578108Y-80371167D01*
X146668458Y-80344212D01*
X146763362Y-80348670D01*
G36*
X147652081Y-80504289D02*
G01*
X147651833Y-80650320D01*
X147650872Y-80762655D01*
X147648794Y-80846678D01*
X147645193Y-80907769D01*
X147639665Y-80951309D01*
X147631804Y-80982679D01*
X147621207Y-81007262D01*
X147613182Y-81021294D01*
X147546728Y-81097388D01*
X147462470Y-81145084D01*
X147369249Y-81162199D01*
X147275900Y-81146546D01*
X147220312Y-81118418D01*
X147161957Y-81069760D01*
X147122186Y-81010333D01*
X147098190Y-80932507D01*
X147087161Y-80828652D01*
X147085599Y-80752462D01*
X147085809Y-80746986D01*
X147222308Y-80746986D01*
X147223141Y-80834355D01*
X147226961Y-80892192D01*
X147235746Y-80930029D01*
X147251474Y-80957398D01*
X147270266Y-80978042D01*
X147333375Y-81017890D01*
X147401137Y-81021295D01*
X147465179Y-80988025D01*
X147470164Y-80983517D01*
X147491439Y-80960067D01*
X147504779Y-80932166D01*
X147512001Y-80890641D01*
X147514923Y-80826316D01*
X147515385Y-80755200D01*
X147514383Y-80665858D01*
X147510238Y-80606258D01*
X147501236Y-80567089D01*
X147485667Y-80539040D01*
X147472902Y-80524144D01*
X147413600Y-80486575D01*
X147345301Y-80482057D01*
X147280110Y-80510753D01*
X147267528Y-80521406D01*
X147246111Y-80545063D01*
X147232744Y-80573251D01*
X147225566Y-80615245D01*
X147222719Y-80680319D01*
X147222308Y-80746986D01*
X147085809Y-80746986D01*
X147090322Y-80629765D01*
X147106362Y-80537577D01*
X147136528Y-80468269D01*
X147183629Y-80414211D01*
X147220312Y-80386505D01*
X147286990Y-80356572D01*
X147364272Y-80342678D01*
X147436110Y-80346397D01*
X147476308Y-80361400D01*
X147492082Y-80365670D01*
X147502550Y-80349750D01*
X147509856Y-80307089D01*
X147515385Y-80242106D01*
X147521437Y-80169732D01*
X147529844Y-80126187D01*
X147545141Y-80101287D01*
X147571864Y-80084845D01*
X147588654Y-80077564D01*
X147652154Y-80050963D01*
X147652081Y-80504289D01*
G37*
X147652081Y-80504289D02*
X147651833Y-80650320D01*
X147650872Y-80762655D01*
X147648794Y-80846678D01*
X147645193Y-80907769D01*
X147639665Y-80951309D01*
X147631804Y-80982679D01*
X147621207Y-81007262D01*
X147613182Y-81021294D01*
X147546728Y-81097388D01*
X147462470Y-81145084D01*
X147369249Y-81162199D01*
X147275900Y-81146546D01*
X147220312Y-81118418D01*
X147161957Y-81069760D01*
X147122186Y-81010333D01*
X147098190Y-80932507D01*
X147087161Y-80828652D01*
X147085599Y-80752462D01*
X147085809Y-80746986D01*
X147222308Y-80746986D01*
X147223141Y-80834355D01*
X147226961Y-80892192D01*
X147235746Y-80930029D01*
X147251474Y-80957398D01*
X147270266Y-80978042D01*
X147333375Y-81017890D01*
X147401137Y-81021295D01*
X147465179Y-80988025D01*
X147470164Y-80983517D01*
X147491439Y-80960067D01*
X147504779Y-80932166D01*
X147512001Y-80890641D01*
X147514923Y-80826316D01*
X147515385Y-80755200D01*
X147514383Y-80665858D01*
X147510238Y-80606258D01*
X147501236Y-80567089D01*
X147485667Y-80539040D01*
X147472902Y-80524144D01*
X147413600Y-80486575D01*
X147345301Y-80482057D01*
X147280110Y-80510753D01*
X147267528Y-80521406D01*
X147246111Y-80545063D01*
X147232744Y-80573251D01*
X147225566Y-80615245D01*
X147222719Y-80680319D01*
X147222308Y-80746986D01*
X147085809Y-80746986D01*
X147090322Y-80629765D01*
X147106362Y-80537577D01*
X147136528Y-80468269D01*
X147183629Y-80414211D01*
X147220312Y-80386505D01*
X147286990Y-80356572D01*
X147364272Y-80342678D01*
X147436110Y-80346397D01*
X147476308Y-80361400D01*
X147492082Y-80365670D01*
X147502550Y-80349750D01*
X147509856Y-80307089D01*
X147515385Y-80242106D01*
X147521437Y-80169732D01*
X147529844Y-80126187D01*
X147545141Y-80101287D01*
X147571864Y-80084845D01*
X147588654Y-80077564D01*
X147652154Y-80050963D01*
X147652081Y-80504289D01*
G36*
X148445929Y-80360662D02*
G01*
X148448911Y-80412068D01*
X148451247Y-80490192D01*
X148452749Y-80588857D01*
X148453231Y-80692343D01*
X148453231Y-81042533D01*
X148391401Y-81104363D01*
X148348793Y-81142462D01*
X148311390Y-81157895D01*
X148260270Y-81156918D01*
X148239978Y-81154433D01*
X148176554Y-81147200D01*
X148124095Y-81143055D01*
X148111308Y-81142672D01*
X148068199Y-81145176D01*
X148006544Y-81151462D01*
X147982638Y-81154433D01*
X147923922Y-81159028D01*
X147884464Y-81149046D01*
X147845338Y-81118228D01*
X147831215Y-81104363D01*
X147769385Y-81042533D01*
X147769385Y-80387503D01*
X147819150Y-80364829D01*
X147862002Y-80348034D01*
X147887073Y-80342154D01*
X147893501Y-80360736D01*
X147899509Y-80412655D01*
X147904697Y-80492172D01*
X147908664Y-80593546D01*
X147910577Y-80679192D01*
X147915923Y-81016231D01*
X147962560Y-81022825D01*
X148004976Y-81018214D01*
X148025760Y-81003287D01*
X148031570Y-80975377D01*
X148036530Y-80915925D01*
X148040246Y-80832466D01*
X148042324Y-80732532D01*
X148042624Y-80681104D01*
X148042923Y-80385054D01*
X148104454Y-80363604D01*
X148148004Y-80349020D01*
X148171694Y-80342219D01*
X148172377Y-80342154D01*
X148174754Y-80360642D01*
X148177366Y-80411906D01*
X148179995Y-80489649D01*
X148182421Y-80587574D01*
X148184115Y-80679192D01*
X148189461Y-81016231D01*
X148306692Y-81016231D01*
X148312072Y-80708746D01*
X148317451Y-80401261D01*
X148374601Y-80371707D01*
X148416797Y-80351413D01*
X148441770Y-80342204D01*
X148442491Y-80342154D01*
X148445929Y-80360662D01*
G37*
X148445929Y-80360662D02*
X148448911Y-80412068D01*
X148451247Y-80490192D01*
X148452749Y-80588857D01*
X148453231Y-80692343D01*
X148453231Y-81042533D01*
X148391401Y-81104363D01*
X148348793Y-81142462D01*
X148311390Y-81157895D01*
X148260270Y-81156918D01*
X148239978Y-81154433D01*
X148176554Y-81147200D01*
X148124095Y-81143055D01*
X148111308Y-81142672D01*
X148068199Y-81145176D01*
X148006544Y-81151462D01*
X147982638Y-81154433D01*
X147923922Y-81159028D01*
X147884464Y-81149046D01*
X147845338Y-81118228D01*
X147831215Y-81104363D01*
X147769385Y-81042533D01*
X147769385Y-80387503D01*
X147819150Y-80364829D01*
X147862002Y-80348034D01*
X147887073Y-80342154D01*
X147893501Y-80360736D01*
X147899509Y-80412655D01*
X147904697Y-80492172D01*
X147908664Y-80593546D01*
X147910577Y-80679192D01*
X147915923Y-81016231D01*
X147962560Y-81022825D01*
X148004976Y-81018214D01*
X148025760Y-81003287D01*
X148031570Y-80975377D01*
X148036530Y-80915925D01*
X148040246Y-80832466D01*
X148042324Y-80732532D01*
X148042624Y-80681104D01*
X148042923Y-80385054D01*
X148104454Y-80363604D01*
X148148004Y-80349020D01*
X148171694Y-80342219D01*
X148172377Y-80342154D01*
X148174754Y-80360642D01*
X148177366Y-80411906D01*
X148179995Y-80489649D01*
X148182421Y-80587574D01*
X148184115Y-80679192D01*
X148189461Y-81016231D01*
X148306692Y-81016231D01*
X148312072Y-80708746D01*
X148317451Y-80401261D01*
X148374601Y-80371707D01*
X148416797Y-80351413D01*
X148441770Y-80342204D01*
X148442491Y-80342154D01*
X148445929Y-80360662D01*
G36*
X148937333Y-80357528D02*
G01*
X148993590Y-80383117D01*
X149037747Y-80414124D01*
X149070101Y-80448795D01*
X149092438Y-80493520D01*
X149106546Y-80554692D01*
X149114211Y-80638701D01*
X149117220Y-80751940D01*
X149117538Y-80826509D01*
X149117538Y-81117420D01*
X149067773Y-81140095D01*
X149028576Y-81156667D01*
X149009157Y-81162769D01*
X149005442Y-81144610D01*
X149002495Y-81095648D01*
X149000691Y-81024153D01*
X149000308Y-80967385D01*
X148998661Y-80885371D01*
X148994222Y-80820309D01*
X148987740Y-80780467D01*
X148982590Y-80772000D01*
X148947977Y-80780646D01*
X148893640Y-80802823D01*
X148830722Y-80832886D01*
X148770368Y-80865192D01*
X148723721Y-80894098D01*
X148701926Y-80913961D01*
X148701839Y-80914175D01*
X148703714Y-80950935D01*
X148720525Y-80986026D01*
X148750039Y-81014528D01*
X148793116Y-81024061D01*
X148829932Y-81022950D01*
X148882074Y-81022133D01*
X148909444Y-81034349D01*
X148925882Y-81066624D01*
X148927955Y-81072710D01*
X148935081Y-81118739D01*
X148916024Y-81146687D01*
X148866353Y-81160007D01*
X148812697Y-81162470D01*
X148716142Y-81144210D01*
X148666159Y-81118131D01*
X148604429Y-81056868D01*
X148571690Y-80981670D01*
X148568753Y-80902211D01*
X148596424Y-80828167D01*
X148638047Y-80781769D01*
X148679604Y-80755793D01*
X148744922Y-80722907D01*
X148821038Y-80689557D01*
X148833726Y-80684461D01*
X148917333Y-80647565D01*
X148965530Y-80615046D01*
X148981030Y-80582718D01*
X148966550Y-80546394D01*
X148941692Y-80518000D01*
X148882939Y-80483039D01*
X148818293Y-80480417D01*
X148759008Y-80507358D01*
X148716339Y-80561088D01*
X148710739Y-80574950D01*
X148678133Y-80625936D01*
X148630530Y-80663787D01*
X148570461Y-80694850D01*
X148570461Y-80606768D01*
X148573997Y-80552951D01*
X148589156Y-80510534D01*
X148622768Y-80465279D01*
X148655035Y-80430420D01*
X148705209Y-80381062D01*
X148744193Y-80354547D01*
X148786064Y-80343911D01*
X148833460Y-80342154D01*
X148937333Y-80357528D01*
G37*
X148937333Y-80357528D02*
X148993590Y-80383117D01*
X149037747Y-80414124D01*
X149070101Y-80448795D01*
X149092438Y-80493520D01*
X149106546Y-80554692D01*
X149114211Y-80638701D01*
X149117220Y-80751940D01*
X149117538Y-80826509D01*
X149117538Y-81117420D01*
X149067773Y-81140095D01*
X149028576Y-81156667D01*
X149009157Y-81162769D01*
X149005442Y-81144610D01*
X149002495Y-81095648D01*
X149000691Y-81024153D01*
X149000308Y-80967385D01*
X148998661Y-80885371D01*
X148994222Y-80820309D01*
X148987740Y-80780467D01*
X148982590Y-80772000D01*
X148947977Y-80780646D01*
X148893640Y-80802823D01*
X148830722Y-80832886D01*
X148770368Y-80865192D01*
X148723721Y-80894098D01*
X148701926Y-80913961D01*
X148701839Y-80914175D01*
X148703714Y-80950935D01*
X148720525Y-80986026D01*
X148750039Y-81014528D01*
X148793116Y-81024061D01*
X148829932Y-81022950D01*
X148882074Y-81022133D01*
X148909444Y-81034349D01*
X148925882Y-81066624D01*
X148927955Y-81072710D01*
X148935081Y-81118739D01*
X148916024Y-81146687D01*
X148866353Y-81160007D01*
X148812697Y-81162470D01*
X148716142Y-81144210D01*
X148666159Y-81118131D01*
X148604429Y-81056868D01*
X148571690Y-80981670D01*
X148568753Y-80902211D01*
X148596424Y-80828167D01*
X148638047Y-80781769D01*
X148679604Y-80755793D01*
X148744922Y-80722907D01*
X148821038Y-80689557D01*
X148833726Y-80684461D01*
X148917333Y-80647565D01*
X148965530Y-80615046D01*
X148981030Y-80582718D01*
X148966550Y-80546394D01*
X148941692Y-80518000D01*
X148882939Y-80483039D01*
X148818293Y-80480417D01*
X148759008Y-80507358D01*
X148716339Y-80561088D01*
X148710739Y-80574950D01*
X148678133Y-80625936D01*
X148630530Y-80663787D01*
X148570461Y-80694850D01*
X148570461Y-80606768D01*
X148573997Y-80552951D01*
X148589156Y-80510534D01*
X148622768Y-80465279D01*
X148655035Y-80430420D01*
X148705209Y-80381062D01*
X148744193Y-80354547D01*
X148786064Y-80343911D01*
X148833460Y-80342154D01*
X148937333Y-80357528D01*
G36*
X149620807Y-80360782D02*
G01*
X149644161Y-80370988D01*
X149699902Y-80415134D01*
X149747569Y-80478967D01*
X149777048Y-80547087D01*
X149781846Y-80580670D01*
X149765760Y-80627556D01*
X149730475Y-80652365D01*
X149692644Y-80667387D01*
X149675321Y-80670155D01*
X149666886Y-80650066D01*
X149650230Y-80606351D01*
X149642923Y-80586598D01*
X149601948Y-80518271D01*
X149542622Y-80484191D01*
X149466552Y-80485239D01*
X149460918Y-80486581D01*
X149420305Y-80505836D01*
X149390448Y-80543375D01*
X149370055Y-80603809D01*
X149357836Y-80691751D01*
X149352500Y-80811813D01*
X149352000Y-80875698D01*
X149351752Y-80976403D01*
X149350126Y-81045054D01*
X149345801Y-81088673D01*
X149337454Y-81114282D01*
X149323765Y-81128903D01*
X149303411Y-81139558D01*
X149302234Y-81140095D01*
X149263038Y-81156667D01*
X149243619Y-81162769D01*
X149240635Y-81144319D01*
X149238081Y-81093323D01*
X149236140Y-81016308D01*
X149234997Y-80919805D01*
X149234769Y-80849184D01*
X149235932Y-80712525D01*
X149240479Y-80608851D01*
X149249999Y-80532108D01*
X149266081Y-80476246D01*
X149290313Y-80435212D01*
X149324286Y-80402954D01*
X149357833Y-80380440D01*
X149438499Y-80350476D01*
X149532381Y-80343718D01*
X149620807Y-80360782D01*
G37*
X149620807Y-80360782D02*
X149644161Y-80370988D01*
X149699902Y-80415134D01*
X149747569Y-80478967D01*
X149777048Y-80547087D01*
X149781846Y-80580670D01*
X149765760Y-80627556D01*
X149730475Y-80652365D01*
X149692644Y-80667387D01*
X149675321Y-80670155D01*
X149666886Y-80650066D01*
X149650230Y-80606351D01*
X149642923Y-80586598D01*
X149601948Y-80518271D01*
X149542622Y-80484191D01*
X149466552Y-80485239D01*
X149460918Y-80486581D01*
X149420305Y-80505836D01*
X149390448Y-80543375D01*
X149370055Y-80603809D01*
X149357836Y-80691751D01*
X149352500Y-80811813D01*
X149352000Y-80875698D01*
X149351752Y-80976403D01*
X149350126Y-81045054D01*
X149345801Y-81088673D01*
X149337454Y-81114282D01*
X149323765Y-81128903D01*
X149303411Y-81139558D01*
X149302234Y-81140095D01*
X149263038Y-81156667D01*
X149243619Y-81162769D01*
X149240635Y-81144319D01*
X149238081Y-81093323D01*
X149236140Y-81016308D01*
X149234997Y-80919805D01*
X149234769Y-80849184D01*
X149235932Y-80712525D01*
X149240479Y-80608851D01*
X149249999Y-80532108D01*
X149266081Y-80476246D01*
X149290313Y-80435212D01*
X149324286Y-80402954D01*
X149357833Y-80380440D01*
X149438499Y-80350476D01*
X149532381Y-80343718D01*
X149620807Y-80360782D01*
G36*
X150295224Y-80371838D02*
G01*
X150372528Y-80422361D01*
X150409814Y-80467590D01*
X150439353Y-80549663D01*
X150441699Y-80614607D01*
X150436385Y-80701445D01*
X150236115Y-80789103D01*
X150138739Y-80833887D01*
X150075113Y-80869913D01*
X150042029Y-80901117D01*
X150036280Y-80931436D01*
X150054658Y-80964805D01*
X150074923Y-80986923D01*
X150133889Y-81022393D01*
X150198024Y-81024879D01*
X150256926Y-80997235D01*
X150300197Y-80942320D01*
X150307936Y-80922928D01*
X150345006Y-80862364D01*
X150387654Y-80836552D01*
X150446154Y-80814471D01*
X150446154Y-80898184D01*
X150440982Y-80955150D01*
X150420723Y-81003189D01*
X150378262Y-81058346D01*
X150371951Y-81065514D01*
X150324720Y-81114585D01*
X150284121Y-81140920D01*
X150233328Y-81153035D01*
X150191220Y-81157003D01*
X150115902Y-81157991D01*
X150062286Y-81145466D01*
X150028838Y-81126869D01*
X149976268Y-81085975D01*
X149939879Y-81041748D01*
X149916850Y-80986126D01*
X149904359Y-80911047D01*
X149899587Y-80808449D01*
X149899206Y-80756376D01*
X149900501Y-80693948D01*
X150018471Y-80693948D01*
X150019839Y-80727438D01*
X150023249Y-80732923D01*
X150045753Y-80725472D01*
X150094182Y-80705753D01*
X150158908Y-80677718D01*
X150172443Y-80671692D01*
X150254244Y-80630096D01*
X150299312Y-80593538D01*
X150309217Y-80559296D01*
X150285526Y-80524648D01*
X150265960Y-80509339D01*
X150195360Y-80478721D01*
X150129280Y-80483780D01*
X150073959Y-80521151D01*
X150035636Y-80587473D01*
X150023349Y-80640116D01*
X150018471Y-80693948D01*
X149900501Y-80693948D01*
X149901730Y-80634720D01*
X149911032Y-80544710D01*
X149929460Y-80479167D01*
X149959360Y-80430912D01*
X150003080Y-80392767D01*
X150022141Y-80380440D01*
X150108726Y-80348336D01*
X150203522Y-80346316D01*
X150295224Y-80371838D01*
G37*
X150295224Y-80371838D02*
X150372528Y-80422361D01*
X150409814Y-80467590D01*
X150439353Y-80549663D01*
X150441699Y-80614607D01*
X150436385Y-80701445D01*
X150236115Y-80789103D01*
X150138739Y-80833887D01*
X150075113Y-80869913D01*
X150042029Y-80901117D01*
X150036280Y-80931436D01*
X150054658Y-80964805D01*
X150074923Y-80986923D01*
X150133889Y-81022393D01*
X150198024Y-81024879D01*
X150256926Y-80997235D01*
X150300197Y-80942320D01*
X150307936Y-80922928D01*
X150345006Y-80862364D01*
X150387654Y-80836552D01*
X150446154Y-80814471D01*
X150446154Y-80898184D01*
X150440982Y-80955150D01*
X150420723Y-81003189D01*
X150378262Y-81058346D01*
X150371951Y-81065514D01*
X150324720Y-81114585D01*
X150284121Y-81140920D01*
X150233328Y-81153035D01*
X150191220Y-81157003D01*
X150115902Y-81157991D01*
X150062286Y-81145466D01*
X150028838Y-81126869D01*
X149976268Y-81085975D01*
X149939879Y-81041748D01*
X149916850Y-80986126D01*
X149904359Y-80911047D01*
X149899587Y-80808449D01*
X149899206Y-80756376D01*
X149900501Y-80693948D01*
X150018471Y-80693948D01*
X150019839Y-80727438D01*
X150023249Y-80732923D01*
X150045753Y-80725472D01*
X150094182Y-80705753D01*
X150158908Y-80677718D01*
X150172443Y-80671692D01*
X150254244Y-80630096D01*
X150299312Y-80593538D01*
X150309217Y-80559296D01*
X150285526Y-80524648D01*
X150265960Y-80509339D01*
X150195360Y-80478721D01*
X150129280Y-80483780D01*
X150073959Y-80521151D01*
X150035636Y-80587473D01*
X150023349Y-80640116D01*
X150018471Y-80693948D01*
X149900501Y-80693948D01*
X149901730Y-80634720D01*
X149911032Y-80544710D01*
X149929460Y-80479167D01*
X149959360Y-80430912D01*
X150003080Y-80392767D01*
X150022141Y-80380440D01*
X150108726Y-80348336D01*
X150203522Y-80346316D01*
X150295224Y-80371838D01*
G36*
X146189878Y-74011776D02*
G01*
X146295612Y-74012355D01*
X146372132Y-74013922D01*
X146424372Y-74016972D01*
X146457263Y-74021996D01*
X146475737Y-74029489D01*
X146484727Y-74039944D01*
X146489163Y-74053853D01*
X146489594Y-74055654D01*
X146496333Y-74088145D01*
X146508808Y-74152252D01*
X146525719Y-74241151D01*
X146545771Y-74348019D01*
X146567664Y-74466033D01*
X146568429Y-74470178D01*
X146590359Y-74585831D01*
X146610877Y-74688014D01*
X146628659Y-74770598D01*
X146642381Y-74827456D01*
X146650718Y-74852458D01*
X146651116Y-74852901D01*
X146675677Y-74865110D01*
X146726315Y-74885456D01*
X146792095Y-74909545D01*
X146792461Y-74909674D01*
X146875317Y-74940818D01*
X146973000Y-74980491D01*
X147065077Y-75020381D01*
X147069434Y-75022353D01*
X147219407Y-75090420D01*
X147551498Y-74863639D01*
X147653374Y-74794504D01*
X147745657Y-74732697D01*
X147823003Y-74681733D01*
X147880064Y-74645127D01*
X147911495Y-74626394D01*
X147914479Y-74625004D01*
X147937321Y-74631190D01*
X147979982Y-74661035D01*
X148044128Y-74715947D01*
X148131421Y-74797334D01*
X148220535Y-74883922D01*
X148306441Y-74969247D01*
X148383327Y-75047108D01*
X148446564Y-75112697D01*
X148491523Y-75161205D01*
X148513576Y-75187825D01*
X148514396Y-75189195D01*
X148516834Y-75207463D01*
X148507650Y-75237295D01*
X148484574Y-75282721D01*
X148445337Y-75347770D01*
X148387670Y-75436470D01*
X148310795Y-75550657D01*
X148242570Y-75651162D01*
X148181582Y-75741303D01*
X148131356Y-75815849D01*
X148095416Y-75869565D01*
X148077287Y-75897218D01*
X148076146Y-75899095D01*
X148078359Y-75925590D01*
X148095138Y-75977086D01*
X148123142Y-76043851D01*
X148133122Y-76065172D01*
X148176672Y-76160159D01*
X148223134Y-76267937D01*
X148260877Y-76361192D01*
X148288073Y-76430406D01*
X148309675Y-76483006D01*
X148322158Y-76510497D01*
X148323709Y-76512616D01*
X148346668Y-76516124D01*
X148400786Y-76525738D01*
X148478868Y-76540089D01*
X148573719Y-76557807D01*
X148678143Y-76577525D01*
X148784944Y-76597874D01*
X148886926Y-76617486D01*
X148976894Y-76634991D01*
X149047653Y-76649022D01*
X149092006Y-76658209D01*
X149102885Y-76660807D01*
X149114122Y-76667218D01*
X149122605Y-76681697D01*
X149128714Y-76709133D01*
X149132832Y-76754411D01*
X149135341Y-76822420D01*
X149136621Y-76918047D01*
X149137054Y-77046180D01*
X149137077Y-77098701D01*
X149137077Y-77525845D01*
X149034500Y-77546091D01*
X148977431Y-77557070D01*
X148892269Y-77573095D01*
X148789372Y-77592233D01*
X148679096Y-77612551D01*
X148648615Y-77618132D01*
X148546855Y-77637917D01*
X148458205Y-77657373D01*
X148390108Y-77674697D01*
X148350004Y-77688088D01*
X148343323Y-77692079D01*
X148326919Y-77720342D01*
X148303399Y-77775109D01*
X148277316Y-77845588D01*
X148272142Y-77860769D01*
X148237956Y-77954896D01*
X148195523Y-78061101D01*
X148153997Y-78156473D01*
X148153792Y-78156916D01*
X148084640Y-78306525D01*
X148539512Y-78975617D01*
X148247500Y-79268116D01*
X148159180Y-79355170D01*
X148078625Y-79431909D01*
X148010360Y-79494237D01*
X147958908Y-79538056D01*
X147928794Y-79559270D01*
X147924474Y-79560616D01*
X147899111Y-79550016D01*
X147847358Y-79520547D01*
X147774868Y-79475705D01*
X147687294Y-79418984D01*
X147592612Y-79355462D01*
X147496516Y-79290668D01*
X147410837Y-79234287D01*
X147341016Y-79189788D01*
X147292494Y-79160639D01*
X147270782Y-79150308D01*
X147244293Y-79159050D01*
X147194062Y-79182087D01*
X147130451Y-79214631D01*
X147123708Y-79218249D01*
X147038046Y-79261210D01*
X146979306Y-79282279D01*
X146942772Y-79282503D01*
X146923731Y-79262928D01*
X146923620Y-79262654D01*
X146914102Y-79239472D01*
X146891403Y-79184441D01*
X146857282Y-79101822D01*
X146813500Y-78995872D01*
X146761816Y-78870852D01*
X146703992Y-78731020D01*
X146647991Y-78595637D01*
X146586447Y-78446234D01*
X146529939Y-78307832D01*
X146480161Y-78184673D01*
X146438806Y-78081002D01*
X146407568Y-78001059D01*
X146388141Y-77949088D01*
X146382154Y-77929692D01*
X146397168Y-77907443D01*
X146436439Y-77871982D01*
X146488807Y-77832887D01*
X146637941Y-77709245D01*
X146754511Y-77567522D01*
X146837118Y-77410704D01*
X146884366Y-77241775D01*
X146894857Y-77063722D01*
X146887231Y-76981539D01*
X146845682Y-76811031D01*
X146774123Y-76660459D01*
X146676995Y-76531309D01*
X146558734Y-76425064D01*
X146423780Y-76343210D01*
X146276571Y-76287232D01*
X146121544Y-76258615D01*
X145963139Y-76258844D01*
X145805794Y-76289405D01*
X145653946Y-76351782D01*
X145512035Y-76447460D01*
X145452803Y-76501572D01*
X145339203Y-76640520D01*
X145260106Y-76792361D01*
X145214986Y-76952667D01*
X145203316Y-77117012D01*
X145224569Y-77280971D01*
X145278220Y-77440118D01*
X145363740Y-77590025D01*
X145480605Y-77726267D01*
X145611193Y-77832887D01*
X145665588Y-77873642D01*
X145704014Y-77908718D01*
X145717846Y-77929726D01*
X145710603Y-77952635D01*
X145690005Y-78007365D01*
X145657746Y-78089672D01*
X145615521Y-78195315D01*
X145565023Y-78320050D01*
X145507948Y-78459636D01*
X145451854Y-78595670D01*
X145389967Y-78745201D01*
X145332644Y-78883767D01*
X145281644Y-79007107D01*
X145238727Y-79110964D01*
X145205653Y-79191080D01*
X145184181Y-79243195D01*
X145176225Y-79262654D01*
X145157429Y-79282423D01*
X145121074Y-79282365D01*
X145062479Y-79261441D01*
X144976968Y-79218613D01*
X144976292Y-79218249D01*
X144911907Y-79185012D01*
X144859861Y-79160802D01*
X144830512Y-79150404D01*
X144829217Y-79150308D01*
X144807124Y-79160855D01*
X144758348Y-79190184D01*
X144688331Y-79234827D01*
X144602514Y-79291314D01*
X144507388Y-79355462D01*
X144410540Y-79420411D01*
X144323253Y-79476896D01*
X144251181Y-79521421D01*
X144199977Y-79550490D01*
X144175526Y-79560616D01*
X144153010Y-79547307D01*
X144107742Y-79510112D01*
X144044244Y-79453128D01*
X143967039Y-79380449D01*
X143880651Y-79296171D01*
X143852399Y-79268016D01*
X143560287Y-78975416D01*
X143782631Y-78649104D01*
X143850202Y-78548897D01*
X143909507Y-78458963D01*
X143957217Y-78384510D01*
X143990007Y-78330751D01*
X144004548Y-78302894D01*
X144004974Y-78300912D01*
X143997308Y-78274655D01*
X143976689Y-78221837D01*
X143946685Y-78151310D01*
X143925625Y-78104093D01*
X143886248Y-78013694D01*
X143849165Y-77922366D01*
X143820415Y-77845200D01*
X143812605Y-77821692D01*
X143790417Y-77758916D01*
X143768727Y-77710411D01*
X143756813Y-77692079D01*
X143730523Y-77680859D01*
X143673142Y-77664954D01*
X143592118Y-77646167D01*
X143494895Y-77626299D01*
X143451385Y-77618132D01*
X143340896Y-77597829D01*
X143234916Y-77578170D01*
X143143801Y-77561088D01*
X143077908Y-77548518D01*
X143065500Y-77546091D01*
X142962923Y-77525845D01*
X142962923Y-77098701D01*
X142963153Y-76958246D01*
X142964099Y-76851979D01*
X142966141Y-76775013D01*
X142969662Y-76722460D01*
X142975043Y-76689433D01*
X142982666Y-76671045D01*
X142992912Y-76662408D01*
X142997115Y-76660807D01*
X143022470Y-76655127D01*
X143078484Y-76643795D01*
X143157964Y-76628179D01*
X143253712Y-76609647D01*
X143358533Y-76589569D01*
X143465232Y-76569312D01*
X143566613Y-76550246D01*
X143655479Y-76533739D01*
X143724637Y-76521159D01*
X143766889Y-76513875D01*
X143776290Y-76512616D01*
X143784807Y-76495763D01*
X143803660Y-76450870D01*
X143829324Y-76386430D01*
X143839123Y-76361192D01*
X143878648Y-76263686D01*
X143925192Y-76155959D01*
X143966877Y-76065172D01*
X143997550Y-75995753D01*
X144017956Y-75938710D01*
X144024768Y-75903777D01*
X144023682Y-75899095D01*
X144009285Y-75876991D01*
X143976412Y-75827831D01*
X143928590Y-75756848D01*
X143869348Y-75669278D01*
X143802215Y-75570357D01*
X143788941Y-75550830D01*
X143711046Y-75435140D01*
X143653787Y-75347044D01*
X143614881Y-75282486D01*
X143592044Y-75237411D01*
X143582994Y-75207763D01*
X143585448Y-75189485D01*
X143585511Y-75189369D01*
X143604827Y-75165361D01*
X143647551Y-75118947D01*
X143709051Y-75054937D01*
X143784698Y-74978145D01*
X143869861Y-74893382D01*
X143879465Y-74883922D01*
X143986790Y-74779989D01*
X144069615Y-74703675D01*
X144129605Y-74653571D01*
X144168423Y-74628270D01*
X144185520Y-74625004D01*
X144210473Y-74639250D01*
X144262255Y-74672156D01*
X144335520Y-74720208D01*
X144424920Y-74779890D01*
X144525111Y-74847688D01*
X144548501Y-74863639D01*
X144880593Y-75090420D01*
X145030565Y-75022353D01*
X145121770Y-74982685D01*
X145219669Y-74942791D01*
X145303831Y-74910983D01*
X145307538Y-74909674D01*
X145373369Y-74885576D01*
X145424116Y-74865200D01*
X145448842Y-74852936D01*
X145448884Y-74852901D01*
X145456729Y-74830734D01*
X145470066Y-74776217D01*
X145487570Y-74695480D01*
X145507917Y-74594650D01*
X145529782Y-74479856D01*
X145531571Y-74470178D01*
X145553504Y-74351904D01*
X145573640Y-74244542D01*
X145590680Y-74154917D01*
X145603328Y-74089851D01*
X145610284Y-74056168D01*
X145610406Y-74055654D01*
X145614639Y-74041325D01*
X145622871Y-74030507D01*
X145640033Y-74022706D01*
X145671058Y-74017429D01*
X145720878Y-74014182D01*
X145794424Y-74012472D01*
X145896629Y-74011807D01*
X146032425Y-74011693D01*
X146050000Y-74011692D01*
X146189878Y-74011776D01*
G37*
X146189878Y-74011776D02*
X146295612Y-74012355D01*
X146372132Y-74013922D01*
X146424372Y-74016972D01*
X146457263Y-74021996D01*
X146475737Y-74029489D01*
X146484727Y-74039944D01*
X146489163Y-74053853D01*
X146489594Y-74055654D01*
X146496333Y-74088145D01*
X146508808Y-74152252D01*
X146525719Y-74241151D01*
X146545771Y-74348019D01*
X146567664Y-74466033D01*
X146568429Y-74470178D01*
X146590359Y-74585831D01*
X146610877Y-74688014D01*
X146628659Y-74770598D01*
X146642381Y-74827456D01*
X146650718Y-74852458D01*
X146651116Y-74852901D01*
X146675677Y-74865110D01*
X146726315Y-74885456D01*
X146792095Y-74909545D01*
X146792461Y-74909674D01*
X146875317Y-74940818D01*
X146973000Y-74980491D01*
X147065077Y-75020381D01*
X147069434Y-75022353D01*
X147219407Y-75090420D01*
X147551498Y-74863639D01*
X147653374Y-74794504D01*
X147745657Y-74732697D01*
X147823003Y-74681733D01*
X147880064Y-74645127D01*
X147911495Y-74626394D01*
X147914479Y-74625004D01*
X147937321Y-74631190D01*
X147979982Y-74661035D01*
X148044128Y-74715947D01*
X148131421Y-74797334D01*
X148220535Y-74883922D01*
X148306441Y-74969247D01*
X148383327Y-75047108D01*
X148446564Y-75112697D01*
X148491523Y-75161205D01*
X148513576Y-75187825D01*
X148514396Y-75189195D01*
X148516834Y-75207463D01*
X148507650Y-75237295D01*
X148484574Y-75282721D01*
X148445337Y-75347770D01*
X148387670Y-75436470D01*
X148310795Y-75550657D01*
X148242570Y-75651162D01*
X148181582Y-75741303D01*
X148131356Y-75815849D01*
X148095416Y-75869565D01*
X148077287Y-75897218D01*
X148076146Y-75899095D01*
X148078359Y-75925590D01*
X148095138Y-75977086D01*
X148123142Y-76043851D01*
X148133122Y-76065172D01*
X148176672Y-76160159D01*
X148223134Y-76267937D01*
X148260877Y-76361192D01*
X148288073Y-76430406D01*
X148309675Y-76483006D01*
X148322158Y-76510497D01*
X148323709Y-76512616D01*
X148346668Y-76516124D01*
X148400786Y-76525738D01*
X148478868Y-76540089D01*
X148573719Y-76557807D01*
X148678143Y-76577525D01*
X148784944Y-76597874D01*
X148886926Y-76617486D01*
X148976894Y-76634991D01*
X149047653Y-76649022D01*
X149092006Y-76658209D01*
X149102885Y-76660807D01*
X149114122Y-76667218D01*
X149122605Y-76681697D01*
X149128714Y-76709133D01*
X149132832Y-76754411D01*
X149135341Y-76822420D01*
X149136621Y-76918047D01*
X149137054Y-77046180D01*
X149137077Y-77098701D01*
X149137077Y-77525845D01*
X149034500Y-77546091D01*
X148977431Y-77557070D01*
X148892269Y-77573095D01*
X148789372Y-77592233D01*
X148679096Y-77612551D01*
X148648615Y-77618132D01*
X148546855Y-77637917D01*
X148458205Y-77657373D01*
X148390108Y-77674697D01*
X148350004Y-77688088D01*
X148343323Y-77692079D01*
X148326919Y-77720342D01*
X148303399Y-77775109D01*
X148277316Y-77845588D01*
X148272142Y-77860769D01*
X148237956Y-77954896D01*
X148195523Y-78061101D01*
X148153997Y-78156473D01*
X148153792Y-78156916D01*
X148084640Y-78306525D01*
X148539512Y-78975617D01*
X148247500Y-79268116D01*
X148159180Y-79355170D01*
X148078625Y-79431909D01*
X148010360Y-79494237D01*
X147958908Y-79538056D01*
X147928794Y-79559270D01*
X147924474Y-79560616D01*
X147899111Y-79550016D01*
X147847358Y-79520547D01*
X147774868Y-79475705D01*
X147687294Y-79418984D01*
X147592612Y-79355462D01*
X147496516Y-79290668D01*
X147410837Y-79234287D01*
X147341016Y-79189788D01*
X147292494Y-79160639D01*
X147270782Y-79150308D01*
X147244293Y-79159050D01*
X147194062Y-79182087D01*
X147130451Y-79214631D01*
X147123708Y-79218249D01*
X147038046Y-79261210D01*
X146979306Y-79282279D01*
X146942772Y-79282503D01*
X146923731Y-79262928D01*
X146923620Y-79262654D01*
X146914102Y-79239472D01*
X146891403Y-79184441D01*
X146857282Y-79101822D01*
X146813500Y-78995872D01*
X146761816Y-78870852D01*
X146703992Y-78731020D01*
X146647991Y-78595637D01*
X146586447Y-78446234D01*
X146529939Y-78307832D01*
X146480161Y-78184673D01*
X146438806Y-78081002D01*
X146407568Y-78001059D01*
X146388141Y-77949088D01*
X146382154Y-77929692D01*
X146397168Y-77907443D01*
X146436439Y-77871982D01*
X146488807Y-77832887D01*
X146637941Y-77709245D01*
X146754511Y-77567522D01*
X146837118Y-77410704D01*
X146884366Y-77241775D01*
X146894857Y-77063722D01*
X146887231Y-76981539D01*
X146845682Y-76811031D01*
X146774123Y-76660459D01*
X146676995Y-76531309D01*
X146558734Y-76425064D01*
X146423780Y-76343210D01*
X146276571Y-76287232D01*
X146121544Y-76258615D01*
X145963139Y-76258844D01*
X145805794Y-76289405D01*
X145653946Y-76351782D01*
X145512035Y-76447460D01*
X145452803Y-76501572D01*
X145339203Y-76640520D01*
X145260106Y-76792361D01*
X145214986Y-76952667D01*
X145203316Y-77117012D01*
X145224569Y-77280971D01*
X145278220Y-77440118D01*
X145363740Y-77590025D01*
X145480605Y-77726267D01*
X145611193Y-77832887D01*
X145665588Y-77873642D01*
X145704014Y-77908718D01*
X145717846Y-77929726D01*
X145710603Y-77952635D01*
X145690005Y-78007365D01*
X145657746Y-78089672D01*
X145615521Y-78195315D01*
X145565023Y-78320050D01*
X145507948Y-78459636D01*
X145451854Y-78595670D01*
X145389967Y-78745201D01*
X145332644Y-78883767D01*
X145281644Y-79007107D01*
X145238727Y-79110964D01*
X145205653Y-79191080D01*
X145184181Y-79243195D01*
X145176225Y-79262654D01*
X145157429Y-79282423D01*
X145121074Y-79282365D01*
X145062479Y-79261441D01*
X144976968Y-79218613D01*
X144976292Y-79218249D01*
X144911907Y-79185012D01*
X144859861Y-79160802D01*
X144830512Y-79150404D01*
X144829217Y-79150308D01*
X144807124Y-79160855D01*
X144758348Y-79190184D01*
X144688331Y-79234827D01*
X144602514Y-79291314D01*
X144507388Y-79355462D01*
X144410540Y-79420411D01*
X144323253Y-79476896D01*
X144251181Y-79521421D01*
X144199977Y-79550490D01*
X144175526Y-79560616D01*
X144153010Y-79547307D01*
X144107742Y-79510112D01*
X144044244Y-79453128D01*
X143967039Y-79380449D01*
X143880651Y-79296171D01*
X143852399Y-79268016D01*
X143560287Y-78975416D01*
X143782631Y-78649104D01*
X143850202Y-78548897D01*
X143909507Y-78458963D01*
X143957217Y-78384510D01*
X143990007Y-78330751D01*
X144004548Y-78302894D01*
X144004974Y-78300912D01*
X143997308Y-78274655D01*
X143976689Y-78221837D01*
X143946685Y-78151310D01*
X143925625Y-78104093D01*
X143886248Y-78013694D01*
X143849165Y-77922366D01*
X143820415Y-77845200D01*
X143812605Y-77821692D01*
X143790417Y-77758916D01*
X143768727Y-77710411D01*
X143756813Y-77692079D01*
X143730523Y-77680859D01*
X143673142Y-77664954D01*
X143592118Y-77646167D01*
X143494895Y-77626299D01*
X143451385Y-77618132D01*
X143340896Y-77597829D01*
X143234916Y-77578170D01*
X143143801Y-77561088D01*
X143077908Y-77548518D01*
X143065500Y-77546091D01*
X142962923Y-77525845D01*
X142962923Y-77098701D01*
X142963153Y-76958246D01*
X142964099Y-76851979D01*
X142966141Y-76775013D01*
X142969662Y-76722460D01*
X142975043Y-76689433D01*
X142982666Y-76671045D01*
X142992912Y-76662408D01*
X142997115Y-76660807D01*
X143022470Y-76655127D01*
X143078484Y-76643795D01*
X143157964Y-76628179D01*
X143253712Y-76609647D01*
X143358533Y-76589569D01*
X143465232Y-76569312D01*
X143566613Y-76550246D01*
X143655479Y-76533739D01*
X143724637Y-76521159D01*
X143766889Y-76513875D01*
X143776290Y-76512616D01*
X143784807Y-76495763D01*
X143803660Y-76450870D01*
X143829324Y-76386430D01*
X143839123Y-76361192D01*
X143878648Y-76263686D01*
X143925192Y-76155959D01*
X143966877Y-76065172D01*
X143997550Y-75995753D01*
X144017956Y-75938710D01*
X144024768Y-75903777D01*
X144023682Y-75899095D01*
X144009285Y-75876991D01*
X143976412Y-75827831D01*
X143928590Y-75756848D01*
X143869348Y-75669278D01*
X143802215Y-75570357D01*
X143788941Y-75550830D01*
X143711046Y-75435140D01*
X143653787Y-75347044D01*
X143614881Y-75282486D01*
X143592044Y-75237411D01*
X143582994Y-75207763D01*
X143585448Y-75189485D01*
X143585511Y-75189369D01*
X143604827Y-75165361D01*
X143647551Y-75118947D01*
X143709051Y-75054937D01*
X143784698Y-74978145D01*
X143869861Y-74893382D01*
X143879465Y-74883922D01*
X143986790Y-74779989D01*
X144069615Y-74703675D01*
X144129605Y-74653571D01*
X144168423Y-74628270D01*
X144185520Y-74625004D01*
X144210473Y-74639250D01*
X144262255Y-74672156D01*
X144335520Y-74720208D01*
X144424920Y-74779890D01*
X144525111Y-74847688D01*
X144548501Y-74863639D01*
X144880593Y-75090420D01*
X145030565Y-75022353D01*
X145121770Y-74982685D01*
X145219669Y-74942791D01*
X145303831Y-74910983D01*
X145307538Y-74909674D01*
X145373369Y-74885576D01*
X145424116Y-74865200D01*
X145448842Y-74852936D01*
X145448884Y-74852901D01*
X145456729Y-74830734D01*
X145470066Y-74776217D01*
X145487570Y-74695480D01*
X145507917Y-74594650D01*
X145529782Y-74479856D01*
X145531571Y-74470178D01*
X145553504Y-74351904D01*
X145573640Y-74244542D01*
X145590680Y-74154917D01*
X145603328Y-74089851D01*
X145610284Y-74056168D01*
X145610406Y-74055654D01*
X145614639Y-74041325D01*
X145622871Y-74030507D01*
X145640033Y-74022706D01*
X145671058Y-74017429D01*
X145720878Y-74014182D01*
X145794424Y-74012472D01*
X145896629Y-74011807D01*
X146032425Y-74011693D01*
X146050000Y-74011692D01*
X146189878Y-74011776D01*
D10*
%TO.C,J2*%
X137174988Y-109710001D02*
X127175009Y-109710001D01*
X137174988Y-121460001D02*
X137174988Y-109710001D01*
X127175009Y-121460001D02*
X137174988Y-121460001D01*
X127175009Y-109710001D02*
X127175009Y-121460001D01*
X129540000Y-107932001D02*
X130175000Y-109456001D01*
X130810000Y-107932001D02*
X129540000Y-107932001D01*
X130175000Y-109456001D02*
X130810000Y-107932001D01*
%TO.C,J5*%
X141525000Y-76870000D02*
X138525000Y-76870000D01*
X138525000Y-76870000D02*
X138525000Y-77620000D01*
X138525000Y-77620000D02*
X126525000Y-77620000D01*
X126525000Y-77620000D02*
X126525000Y-76870000D01*
X126525000Y-76870000D02*
X123525000Y-76870000D01*
X123525000Y-76870000D02*
X123525000Y-68120000D01*
X123525000Y-68120000D02*
X124525000Y-66620000D01*
X124525000Y-66620000D02*
X140275000Y-66620000D01*
X140275000Y-66620000D02*
X141525000Y-68370000D01*
X141525000Y-68370000D02*
X141525000Y-76870000D01*
%TO.C,J4*%
X117975000Y-81890000D02*
X117975000Y-81490000D01*
X116975000Y-81890000D02*
X117975000Y-81890000D01*
X116975000Y-81490000D02*
X116975000Y-81890000D01*
X118975000Y-81890000D02*
X118975000Y-81490000D01*
X121175000Y-81890000D02*
X118975000Y-81890000D01*
X121175000Y-84090000D02*
X121175000Y-81890000D01*
X121575000Y-84090000D02*
X121175000Y-84090000D01*
X115975000Y-81890000D02*
X115975000Y-81490000D01*
X113775000Y-81890000D02*
X115975000Y-81890000D01*
X113775000Y-84090000D02*
X113775000Y-81890000D01*
X113375000Y-84090000D02*
X113775000Y-84090000D01*
X121175000Y-85090000D02*
X121575000Y-85090000D01*
X121175000Y-86290000D02*
X121175000Y-85090000D01*
X113775000Y-86290000D02*
X121175000Y-86290000D01*
X113775000Y-85090000D02*
X113775000Y-86290000D01*
X113375000Y-85090000D02*
X113775000Y-85090000D01*
X113065000Y-81180000D02*
X114975000Y-81180000D01*
X113065000Y-83090000D02*
X113065000Y-81180000D01*
X121575000Y-81490000D02*
X113375000Y-81490000D01*
X121575000Y-86690000D02*
X121575000Y-81490000D01*
X113375000Y-86690000D02*
X121575000Y-86690000D01*
X113375000Y-81490000D02*
X113375000Y-86690000D01*
%TO.C,J1*%
X118070000Y-89478000D02*
X118070000Y-89078000D01*
X117070000Y-89478000D02*
X118070000Y-89478000D01*
X117070000Y-89078000D02*
X117070000Y-89478000D01*
X119070000Y-89478000D02*
X119070000Y-89078000D01*
X121270000Y-89478000D02*
X119070000Y-89478000D01*
X121270000Y-91678000D02*
X121270000Y-89478000D01*
X121670000Y-91678000D02*
X121270000Y-91678000D01*
X116070000Y-89478000D02*
X116070000Y-89078000D01*
X113870000Y-89478000D02*
X116070000Y-89478000D01*
X113870000Y-91678000D02*
X113870000Y-89478000D01*
X113470000Y-91678000D02*
X113870000Y-91678000D01*
X121270000Y-92678000D02*
X121670000Y-92678000D01*
X121270000Y-93878000D02*
X121270000Y-92678000D01*
X113870000Y-93878000D02*
X121270000Y-93878000D01*
X113870000Y-92678000D02*
X113870000Y-93878000D01*
X113470000Y-92678000D02*
X113870000Y-92678000D01*
X113160000Y-88768000D02*
X115070000Y-88768000D01*
X113160000Y-90678000D02*
X113160000Y-88768000D01*
X121670000Y-89078000D02*
X113470000Y-89078000D01*
X121670000Y-94278000D02*
X121670000Y-89078000D01*
X113470000Y-94278000D02*
X121670000Y-94278000D01*
X113470000Y-89078000D02*
X113470000Y-94278000D01*
%TO.C,U6*%
X126735000Y-98765000D02*
X128535000Y-98765000D01*
X128535000Y-95545000D02*
X126085000Y-95545000D01*
%TO.C,TP5*%
X130740000Y-78994000D02*
G75*
G03*
X130740000Y-78994000I-1200000J0D01*
G01*
%TO.C,TP4*%
X124898000Y-95250000D02*
G75*
G03*
X124898000Y-95250000I-1200000J0D01*
G01*
%TO.C,TP3*%
X120072000Y-79248000D02*
G75*
G03*
X120072000Y-79248000I-1200000J0D01*
G01*
%TO.C,TP2*%
X116770000Y-79248000D02*
G75*
G03*
X116770000Y-79248000I-1200000J0D01*
G01*
%TO.C,TP1*%
X125152000Y-90678000D02*
G75*
G03*
X125152000Y-90678000I-1200000J0D01*
G01*
%TO.C,R14*%
X135390936Y-97388000D02*
X136845064Y-97388000D01*
X135390936Y-99208000D02*
X136845064Y-99208000D01*
%TO.C,R13*%
X135416936Y-95102000D02*
X136871064Y-95102000D01*
X135416936Y-96922000D02*
X136871064Y-96922000D01*
%TO.C,R5*%
X132228000Y-93760936D02*
X132228000Y-95215064D01*
X130408000Y-93760936D02*
X130408000Y-95215064D01*
%TO.C,R4*%
X128235064Y-104796000D02*
X126780936Y-104796000D01*
X128235064Y-102976000D02*
X126780936Y-102976000D01*
%TO.C,D4*%
X114264000Y-101634000D02*
X114264000Y-101790000D01*
X114264000Y-103950000D02*
X114264000Y-104106000D01*
X116865130Y-103949837D02*
G75*
G02*
X114783039Y-103950000I-1041130J1079837D01*
G01*
X116865130Y-101790163D02*
G75*
G03*
X114783039Y-101790000I-1041130J-1079837D01*
G01*
X117496335Y-103948608D02*
G75*
G02*
X114264000Y-104105516I-1672335J1078608D01*
G01*
X117496335Y-101791392D02*
G75*
G03*
X114264000Y-101634484I-1672335J-1078608D01*
G01*
%TO.C,D3*%
X114264000Y-110778000D02*
X114264000Y-110934000D01*
X114264000Y-113094000D02*
X114264000Y-113250000D01*
X116865130Y-113093837D02*
G75*
G02*
X114783039Y-113094000I-1041130J1079837D01*
G01*
X116865130Y-110934163D02*
G75*
G03*
X114783039Y-110934000I-1041130J-1079837D01*
G01*
X117496335Y-113092608D02*
G75*
G02*
X114264000Y-113249516I-1672335J1078608D01*
G01*
X117496335Y-110935392D02*
G75*
G03*
X114264000Y-110778484I-1672335J-1078608D01*
G01*
%TO.C,C11*%
X128346252Y-94890000D02*
X126923748Y-94890000D01*
X128346252Y-93070000D02*
X126923748Y-93070000D01*
%TO.C,C9*%
X132156252Y-85746000D02*
X130733748Y-85746000D01*
X132156252Y-83926000D02*
X130733748Y-83926000D01*
%TO.C,C8*%
X151310000Y-108765000D02*
X151310000Y-105015000D01*
X151310000Y-98245000D02*
X151310000Y-101995000D01*
X141854437Y-98245000D02*
X151310000Y-98245000D01*
X141854437Y-108765000D02*
X151310000Y-108765000D01*
X140790000Y-107700563D02*
X140790000Y-105015000D01*
X140790000Y-99309437D02*
X140790000Y-101995000D01*
X140790000Y-99309437D02*
X141854437Y-98245000D01*
X140790000Y-107700563D02*
X141854437Y-108765000D01*
X139300000Y-100745000D02*
X140550000Y-100745000D01*
X139925000Y-100120000D02*
X139925000Y-101370000D01*
%TO.C,U2*%
X131445000Y-86340000D02*
X127995000Y-86340000D01*
X131445000Y-86340000D02*
X133395000Y-86340000D01*
X131445000Y-91460000D02*
X129495000Y-91460000D01*
X131445000Y-91460000D02*
X133395000Y-91460000D01*
%TO.C,U1*%
X128535000Y-99228000D02*
X126085000Y-99228000D01*
X126735000Y-102448000D02*
X128535000Y-102448000D01*
%TO.C,J3*%
X118678000Y-97536000D02*
X118678000Y-98866000D01*
X118678000Y-98866000D02*
X117348000Y-98866000D01*
X116078000Y-98866000D02*
X113478000Y-98866000D01*
X113478000Y-96206000D02*
X113478000Y-98866000D01*
X116078000Y-96206000D02*
X113478000Y-96206000D01*
X116078000Y-96206000D02*
X116078000Y-98866000D01*
%TO.C,D1*%
X114264000Y-108522000D02*
X114264000Y-108678000D01*
X114264000Y-106206000D02*
X114264000Y-106362000D01*
X116865130Y-108521837D02*
G75*
G02*
X114783039Y-108522000I-1041130J1079837D01*
G01*
X116865130Y-106362163D02*
G75*
G03*
X114783039Y-106362000I-1041130J-1079837D01*
G01*
X117496335Y-108520608D02*
G75*
G02*
X114264000Y-108677516I-1672335J1078608D01*
G01*
X117496335Y-106363392D02*
G75*
G03*
X114264000Y-106206484I-1672335J-1078608D01*
G01*
%TO.C,C7*%
X127275000Y-87071252D02*
X127275000Y-85648748D01*
X125455000Y-87071252D02*
X125455000Y-85648748D01*
%TO.C,C5*%
X139925000Y-84245000D02*
X139925000Y-85495000D01*
X139300000Y-84870000D02*
X140550000Y-84870000D01*
X140790000Y-91825563D02*
X141854437Y-92890000D01*
X140790000Y-83434437D02*
X141854437Y-82370000D01*
X140790000Y-83434437D02*
X140790000Y-86120000D01*
X140790000Y-91825563D02*
X140790000Y-89140000D01*
X141854437Y-92890000D02*
X151310000Y-92890000D01*
X141854437Y-82370000D02*
X151310000Y-82370000D01*
X151310000Y-82370000D02*
X151310000Y-86120000D01*
X151310000Y-92890000D02*
X151310000Y-89140000D01*
%TO.C,J2*%
D14*
X132508666Y-106386380D02*
X132508666Y-107100666D01*
X132461047Y-107243523D01*
X132365809Y-107338761D01*
X132222952Y-107386380D01*
X132127714Y-107386380D01*
X132937238Y-106481619D02*
X132984857Y-106434000D01*
X133080095Y-106386380D01*
X133318190Y-106386380D01*
X133413428Y-106434000D01*
X133461047Y-106481619D01*
X133508666Y-106576857D01*
X133508666Y-106672095D01*
X133461047Y-106814952D01*
X132889619Y-107386380D01*
X133508666Y-107386380D01*
D12*
X126046666Y-119171666D02*
X125346666Y-119171666D01*
X125346666Y-118905000D01*
X125380000Y-118838333D01*
X125413333Y-118805000D01*
X125480000Y-118771666D01*
X125580000Y-118771666D01*
X125646666Y-118805000D01*
X125680000Y-118838333D01*
X125713333Y-118905000D01*
X125713333Y-119171666D01*
X126046666Y-118371666D02*
X126013333Y-118438333D01*
X125980000Y-118471666D01*
X125913333Y-118505000D01*
X125713333Y-118505000D01*
X125646666Y-118471666D01*
X125613333Y-118438333D01*
X125580000Y-118371666D01*
X125580000Y-118271666D01*
X125613333Y-118205000D01*
X125646666Y-118171666D01*
X125713333Y-118138333D01*
X125913333Y-118138333D01*
X125980000Y-118171666D01*
X126013333Y-118205000D01*
X126046666Y-118271666D01*
X126046666Y-118371666D01*
X125580000Y-117905000D02*
X126046666Y-117771666D01*
X125713333Y-117638333D01*
X126046666Y-117505000D01*
X125580000Y-117371666D01*
X126013333Y-116838333D02*
X126046666Y-116905000D01*
X126046666Y-117038333D01*
X126013333Y-117105000D01*
X125946666Y-117138333D01*
X125680000Y-117138333D01*
X125613333Y-117105000D01*
X125580000Y-117038333D01*
X125580000Y-116905000D01*
X125613333Y-116838333D01*
X125680000Y-116805000D01*
X125746666Y-116805000D01*
X125813333Y-117138333D01*
X126046666Y-116505000D02*
X125580000Y-116505000D01*
X125713333Y-116505000D02*
X125646666Y-116471666D01*
X125613333Y-116438333D01*
X125580000Y-116371666D01*
X125580000Y-116305000D01*
X126046666Y-115538333D02*
X125580000Y-115538333D01*
X125346666Y-115538333D02*
X125380000Y-115571666D01*
X125413333Y-115538333D01*
X125380000Y-115505000D01*
X125346666Y-115538333D01*
X125413333Y-115538333D01*
X125580000Y-115205000D02*
X126046666Y-115205000D01*
X125646666Y-115205000D02*
X125613333Y-115171666D01*
X125580000Y-115105000D01*
X125580000Y-115005000D01*
X125613333Y-114938333D01*
X125680000Y-114905000D01*
X126046666Y-114905000D01*
X125580000Y-114571666D02*
X126280000Y-114571666D01*
X125613333Y-114571666D02*
X125580000Y-114505000D01*
X125580000Y-114371666D01*
X125613333Y-114305000D01*
X125646666Y-114271666D01*
X125713333Y-114238333D01*
X125913333Y-114238333D01*
X125980000Y-114271666D01*
X126013333Y-114305000D01*
X126046666Y-114371666D01*
X126046666Y-114505000D01*
X126013333Y-114571666D01*
X125580000Y-113638333D02*
X126046666Y-113638333D01*
X125580000Y-113938333D02*
X125946666Y-113938333D01*
X126013333Y-113905000D01*
X126046666Y-113838333D01*
X126046666Y-113738333D01*
X126013333Y-113671666D01*
X125980000Y-113638333D01*
X125580000Y-113405000D02*
X125580000Y-113138333D01*
X125346666Y-113305000D02*
X125946666Y-113305000D01*
X126013333Y-113271666D01*
X126046666Y-113205000D01*
X126046666Y-113138333D01*
%TO.C,J5*%
D14*
X142287666Y-70318380D02*
X142287666Y-71032666D01*
X142240047Y-71175523D01*
X142144809Y-71270761D01*
X142001952Y-71318380D01*
X141906714Y-71318380D01*
X143240047Y-70318380D02*
X142763857Y-70318380D01*
X142716238Y-70794571D01*
X142763857Y-70746952D01*
X142859095Y-70699333D01*
X143097190Y-70699333D01*
X143192428Y-70746952D01*
X143240047Y-70794571D01*
X143287666Y-70889809D01*
X143287666Y-71127904D01*
X143240047Y-71223142D01*
X143192428Y-71270761D01*
X143097190Y-71318380D01*
X142859095Y-71318380D01*
X142763857Y-71270761D01*
X142716238Y-71223142D01*
%TO.C,J4*%
X122348666Y-80478380D02*
X122348666Y-81192666D01*
X122301047Y-81335523D01*
X122205809Y-81430761D01*
X122062952Y-81478380D01*
X121967714Y-81478380D01*
X123253428Y-80811714D02*
X123253428Y-81478380D01*
X123015333Y-80430761D02*
X122777238Y-81145047D01*
X123396285Y-81145047D01*
%TO.C,J1*%
X113458666Y-87336380D02*
X113458666Y-88050666D01*
X113411047Y-88193523D01*
X113315809Y-88288761D01*
X113172952Y-88336380D01*
X113077714Y-88336380D01*
X114458666Y-88336380D02*
X113887238Y-88336380D01*
X114172952Y-88336380D02*
X114172952Y-87336380D01*
X114077714Y-87479238D01*
X113982476Y-87574476D01*
X113887238Y-87622095D01*
%TO.C,H4*%
X152273095Y-116022380D02*
X152273095Y-115022380D01*
X152273095Y-115498571D02*
X152844523Y-115498571D01*
X152844523Y-116022380D02*
X152844523Y-115022380D01*
X153749285Y-115355714D02*
X153749285Y-116022380D01*
X153511190Y-114974761D02*
X153273095Y-115689047D01*
X153892142Y-115689047D01*
%TO.C,U6*%
X123698095Y-97242380D02*
X123698095Y-98051904D01*
X123745714Y-98147142D01*
X123793333Y-98194761D01*
X123888571Y-98242380D01*
X124079047Y-98242380D01*
X124174285Y-98194761D01*
X124221904Y-98147142D01*
X124269523Y-98051904D01*
X124269523Y-97242380D01*
X125174285Y-97242380D02*
X124983809Y-97242380D01*
X124888571Y-97290000D01*
X124840952Y-97337619D01*
X124745714Y-97480476D01*
X124698095Y-97670952D01*
X124698095Y-98051904D01*
X124745714Y-98147142D01*
X124793333Y-98194761D01*
X124888571Y-98242380D01*
X125079047Y-98242380D01*
X125174285Y-98194761D01*
X125221904Y-98147142D01*
X125269523Y-98051904D01*
X125269523Y-97813809D01*
X125221904Y-97718571D01*
X125174285Y-97670952D01*
X125079047Y-97623333D01*
X124888571Y-97623333D01*
X124793333Y-97670952D01*
X124745714Y-97718571D01*
X124698095Y-97813809D01*
%TO.C,TP5*%
X131326095Y-78446380D02*
X131897523Y-78446380D01*
X131611809Y-79446380D02*
X131611809Y-78446380D01*
X132230857Y-79446380D02*
X132230857Y-78446380D01*
X132611809Y-78446380D01*
X132707047Y-78494000D01*
X132754666Y-78541619D01*
X132802285Y-78636857D01*
X132802285Y-78779714D01*
X132754666Y-78874952D01*
X132707047Y-78922571D01*
X132611809Y-78970190D01*
X132230857Y-78970190D01*
X133707047Y-78446380D02*
X133230857Y-78446380D01*
X133183238Y-78922571D01*
X133230857Y-78874952D01*
X133326095Y-78827333D01*
X133564190Y-78827333D01*
X133659428Y-78874952D01*
X133707047Y-78922571D01*
X133754666Y-79017809D01*
X133754666Y-79255904D01*
X133707047Y-79351142D01*
X133659428Y-79398761D01*
X133564190Y-79446380D01*
X133326095Y-79446380D01*
X133230857Y-79398761D01*
X133183238Y-79351142D01*
%TO.C,TP4*%
D12*
X122814666Y-92868666D02*
X123214666Y-92868666D01*
X123014666Y-93568666D02*
X123014666Y-92868666D01*
X123448000Y-93568666D02*
X123448000Y-92868666D01*
X123714666Y-92868666D01*
X123781333Y-92902000D01*
X123814666Y-92935333D01*
X123848000Y-93002000D01*
X123848000Y-93102000D01*
X123814666Y-93168666D01*
X123781333Y-93202000D01*
X123714666Y-93235333D01*
X123448000Y-93235333D01*
X124448000Y-93102000D02*
X124448000Y-93568666D01*
X124281333Y-92835333D02*
X124114666Y-93335333D01*
X124548000Y-93335333D01*
%TO.C,TP3*%
X117988666Y-76866666D02*
X118388666Y-76866666D01*
X118188666Y-77566666D02*
X118188666Y-76866666D01*
X118622000Y-77566666D02*
X118622000Y-76866666D01*
X118888666Y-76866666D01*
X118955333Y-76900000D01*
X118988666Y-76933333D01*
X119022000Y-77000000D01*
X119022000Y-77100000D01*
X118988666Y-77166666D01*
X118955333Y-77200000D01*
X118888666Y-77233333D01*
X118622000Y-77233333D01*
X119255333Y-76866666D02*
X119688666Y-76866666D01*
X119455333Y-77133333D01*
X119555333Y-77133333D01*
X119622000Y-77166666D01*
X119655333Y-77200000D01*
X119688666Y-77266666D01*
X119688666Y-77433333D01*
X119655333Y-77500000D01*
X119622000Y-77533333D01*
X119555333Y-77566666D01*
X119355333Y-77566666D01*
X119288666Y-77533333D01*
X119255333Y-77500000D01*
%TO.C,TP2*%
X114686666Y-76866666D02*
X115086666Y-76866666D01*
X114886666Y-77566666D02*
X114886666Y-76866666D01*
X115320000Y-77566666D02*
X115320000Y-76866666D01*
X115586666Y-76866666D01*
X115653333Y-76900000D01*
X115686666Y-76933333D01*
X115720000Y-77000000D01*
X115720000Y-77100000D01*
X115686666Y-77166666D01*
X115653333Y-77200000D01*
X115586666Y-77233333D01*
X115320000Y-77233333D01*
X115986666Y-76933333D02*
X116020000Y-76900000D01*
X116086666Y-76866666D01*
X116253333Y-76866666D01*
X116320000Y-76900000D01*
X116353333Y-76933333D01*
X116386666Y-77000000D01*
X116386666Y-77066666D01*
X116353333Y-77166666D01*
X115953333Y-77566666D01*
X116386666Y-77566666D01*
%TO.C,TP1*%
X123068666Y-88008666D02*
X123468666Y-88008666D01*
X123268666Y-88708666D02*
X123268666Y-88008666D01*
X123702000Y-88708666D02*
X123702000Y-88008666D01*
X123968666Y-88008666D01*
X124035333Y-88042000D01*
X124068666Y-88075333D01*
X124102000Y-88142000D01*
X124102000Y-88242000D01*
X124068666Y-88308666D01*
X124035333Y-88342000D01*
X123968666Y-88375333D01*
X123702000Y-88375333D01*
X124768666Y-88708666D02*
X124368666Y-88708666D01*
X124568666Y-88708666D02*
X124568666Y-88008666D01*
X124502000Y-88108666D01*
X124435333Y-88175333D01*
X124368666Y-88208666D01*
%TO.C,R14*%
D14*
X135755142Y-100528380D02*
X135421809Y-100052190D01*
X135183714Y-100528380D02*
X135183714Y-99528380D01*
X135564666Y-99528380D01*
X135659904Y-99576000D01*
X135707523Y-99623619D01*
X135755142Y-99718857D01*
X135755142Y-99861714D01*
X135707523Y-99956952D01*
X135659904Y-100004571D01*
X135564666Y-100052190D01*
X135183714Y-100052190D01*
X136707523Y-100528380D02*
X136136095Y-100528380D01*
X136421809Y-100528380D02*
X136421809Y-99528380D01*
X136326571Y-99671238D01*
X136231333Y-99766476D01*
X136136095Y-99814095D01*
X137564666Y-99861714D02*
X137564666Y-100528380D01*
X137326571Y-99480761D02*
X137088476Y-100195047D01*
X137707523Y-100195047D01*
%TO.C,R13*%
X135501142Y-94644380D02*
X135167809Y-94168190D01*
X134929714Y-94644380D02*
X134929714Y-93644380D01*
X135310666Y-93644380D01*
X135405904Y-93692000D01*
X135453523Y-93739619D01*
X135501142Y-93834857D01*
X135501142Y-93977714D01*
X135453523Y-94072952D01*
X135405904Y-94120571D01*
X135310666Y-94168190D01*
X134929714Y-94168190D01*
X136453523Y-94644380D02*
X135882095Y-94644380D01*
X136167809Y-94644380D02*
X136167809Y-93644380D01*
X136072571Y-93787238D01*
X135977333Y-93882476D01*
X135882095Y-93930095D01*
X136786857Y-93644380D02*
X137405904Y-93644380D01*
X137072571Y-94025333D01*
X137215428Y-94025333D01*
X137310666Y-94072952D01*
X137358285Y-94120571D01*
X137405904Y-94215809D01*
X137405904Y-94453904D01*
X137358285Y-94549142D01*
X137310666Y-94596761D01*
X137215428Y-94644380D01*
X136929714Y-94644380D01*
X136834476Y-94596761D01*
X136786857Y-94549142D01*
%TO.C,R5*%
X133437333Y-93162380D02*
X133104000Y-92686190D01*
X132865904Y-93162380D02*
X132865904Y-92162380D01*
X133246857Y-92162380D01*
X133342095Y-92210000D01*
X133389714Y-92257619D01*
X133437333Y-92352857D01*
X133437333Y-92495714D01*
X133389714Y-92590952D01*
X133342095Y-92638571D01*
X133246857Y-92686190D01*
X132865904Y-92686190D01*
X134342095Y-92162380D02*
X133865904Y-92162380D01*
X133818285Y-92638571D01*
X133865904Y-92590952D01*
X133961142Y-92543333D01*
X134199238Y-92543333D01*
X134294476Y-92590952D01*
X134342095Y-92638571D01*
X134389714Y-92733809D01*
X134389714Y-92971904D01*
X134342095Y-93067142D01*
X134294476Y-93114761D01*
X134199238Y-93162380D01*
X133961142Y-93162380D01*
X133865904Y-93114761D01*
X133818285Y-93067142D01*
%TO.C,R4*%
X127341333Y-106158380D02*
X127008000Y-105682190D01*
X126769904Y-106158380D02*
X126769904Y-105158380D01*
X127150857Y-105158380D01*
X127246095Y-105206000D01*
X127293714Y-105253619D01*
X127341333Y-105348857D01*
X127341333Y-105491714D01*
X127293714Y-105586952D01*
X127246095Y-105634571D01*
X127150857Y-105682190D01*
X126769904Y-105682190D01*
X128198476Y-105491714D02*
X128198476Y-106158380D01*
X127960380Y-105110761D02*
X127722285Y-105825047D01*
X128341333Y-105825047D01*
%TO.C,D4*%
X118895904Y-103322380D02*
X118895904Y-102322380D01*
X119134000Y-102322380D01*
X119276857Y-102370000D01*
X119372095Y-102465238D01*
X119419714Y-102560476D01*
X119467333Y-102750952D01*
X119467333Y-102893809D01*
X119419714Y-103084285D01*
X119372095Y-103179523D01*
X119276857Y-103274761D01*
X119134000Y-103322380D01*
X118895904Y-103322380D01*
X120324476Y-102655714D02*
X120324476Y-103322380D01*
X120086380Y-102274761D02*
X119848285Y-102989047D01*
X120467333Y-102989047D01*
%TO.C,D3*%
X118895904Y-112466380D02*
X118895904Y-111466380D01*
X119134000Y-111466380D01*
X119276857Y-111514000D01*
X119372095Y-111609238D01*
X119419714Y-111704476D01*
X119467333Y-111894952D01*
X119467333Y-112037809D01*
X119419714Y-112228285D01*
X119372095Y-112323523D01*
X119276857Y-112418761D01*
X119134000Y-112466380D01*
X118895904Y-112466380D01*
X119800666Y-111466380D02*
X120419714Y-111466380D01*
X120086380Y-111847333D01*
X120229238Y-111847333D01*
X120324476Y-111894952D01*
X120372095Y-111942571D01*
X120419714Y-112037809D01*
X120419714Y-112275904D01*
X120372095Y-112371142D01*
X120324476Y-112418761D01*
X120229238Y-112466380D01*
X119943523Y-112466380D01*
X119848285Y-112418761D01*
X119800666Y-112371142D01*
%TO.C,C11*%
X126992142Y-92432142D02*
X126944523Y-92479761D01*
X126801666Y-92527380D01*
X126706428Y-92527380D01*
X126563571Y-92479761D01*
X126468333Y-92384523D01*
X126420714Y-92289285D01*
X126373095Y-92098809D01*
X126373095Y-91955952D01*
X126420714Y-91765476D01*
X126468333Y-91670238D01*
X126563571Y-91575000D01*
X126706428Y-91527380D01*
X126801666Y-91527380D01*
X126944523Y-91575000D01*
X126992142Y-91622619D01*
X127944523Y-92527380D02*
X127373095Y-92527380D01*
X127658809Y-92527380D02*
X127658809Y-91527380D01*
X127563571Y-91670238D01*
X127468333Y-91765476D01*
X127373095Y-91813095D01*
X128896904Y-92527380D02*
X128325476Y-92527380D01*
X128611190Y-92527380D02*
X128611190Y-91527380D01*
X128515952Y-91670238D01*
X128420714Y-91765476D01*
X128325476Y-91813095D01*
%TO.C,C9*%
X128627142Y-85002666D02*
X128674761Y-85050285D01*
X128722380Y-85193142D01*
X128722380Y-85288380D01*
X128674761Y-85431238D01*
X128579523Y-85526476D01*
X128484285Y-85574095D01*
X128293809Y-85621714D01*
X128150952Y-85621714D01*
X127960476Y-85574095D01*
X127865238Y-85526476D01*
X127770000Y-85431238D01*
X127722380Y-85288380D01*
X127722380Y-85193142D01*
X127770000Y-85050285D01*
X127817619Y-85002666D01*
X128722380Y-84526476D02*
X128722380Y-84336000D01*
X128674761Y-84240761D01*
X128627142Y-84193142D01*
X128484285Y-84097904D01*
X128293809Y-84050285D01*
X127912857Y-84050285D01*
X127817619Y-84097904D01*
X127770000Y-84145523D01*
X127722380Y-84240761D01*
X127722380Y-84431238D01*
X127770000Y-84526476D01*
X127817619Y-84574095D01*
X127912857Y-84621714D01*
X128150952Y-84621714D01*
X128246190Y-84574095D01*
X128293809Y-84526476D01*
X128341428Y-84431238D01*
X128341428Y-84240761D01*
X128293809Y-84145523D01*
X128246190Y-84097904D01*
X128150952Y-84050285D01*
%TO.C,C8*%
X145883333Y-97662142D02*
X145835714Y-97709761D01*
X145692857Y-97757380D01*
X145597619Y-97757380D01*
X145454761Y-97709761D01*
X145359523Y-97614523D01*
X145311904Y-97519285D01*
X145264285Y-97328809D01*
X145264285Y-97185952D01*
X145311904Y-96995476D01*
X145359523Y-96900238D01*
X145454761Y-96805000D01*
X145597619Y-96757380D01*
X145692857Y-96757380D01*
X145835714Y-96805000D01*
X145883333Y-96852619D01*
X146454761Y-97185952D02*
X146359523Y-97138333D01*
X146311904Y-97090714D01*
X146264285Y-96995476D01*
X146264285Y-96947857D01*
X146311904Y-96852619D01*
X146359523Y-96805000D01*
X146454761Y-96757380D01*
X146645238Y-96757380D01*
X146740476Y-96805000D01*
X146788095Y-96852619D01*
X146835714Y-96947857D01*
X146835714Y-96995476D01*
X146788095Y-97090714D01*
X146740476Y-97138333D01*
X146645238Y-97185952D01*
X146454761Y-97185952D01*
X146359523Y-97233571D01*
X146311904Y-97281190D01*
X146264285Y-97376428D01*
X146264285Y-97566904D01*
X146311904Y-97662142D01*
X146359523Y-97709761D01*
X146454761Y-97757380D01*
X146645238Y-97757380D01*
X146740476Y-97709761D01*
X146788095Y-97662142D01*
X146835714Y-97566904D01*
X146835714Y-97376428D01*
X146788095Y-97281190D01*
X146740476Y-97233571D01*
X146645238Y-97185952D01*
%TO.C,H3*%
X112212380Y-118236904D02*
X111212380Y-118236904D01*
X111688571Y-118236904D02*
X111688571Y-117665476D01*
X112212380Y-117665476D02*
X111212380Y-117665476D01*
X111212380Y-117284523D02*
X111212380Y-116665476D01*
X111593333Y-116998809D01*
X111593333Y-116855952D01*
X111640952Y-116760714D01*
X111688571Y-116713095D01*
X111783809Y-116665476D01*
X112021904Y-116665476D01*
X112117142Y-116713095D01*
X112164761Y-116760714D01*
X112212380Y-116855952D01*
X112212380Y-117141666D01*
X112164761Y-117236904D01*
X112117142Y-117284523D01*
%TO.C,H2*%
X148082095Y-67518380D02*
X148082095Y-66518380D01*
X148082095Y-66994571D02*
X148653523Y-66994571D01*
X148653523Y-67518380D02*
X148653523Y-66518380D01*
X149082095Y-66613619D02*
X149129714Y-66566000D01*
X149224952Y-66518380D01*
X149463047Y-66518380D01*
X149558285Y-66566000D01*
X149605904Y-66613619D01*
X149653523Y-66708857D01*
X149653523Y-66804095D01*
X149605904Y-66946952D01*
X149034476Y-67518380D01*
X149653523Y-67518380D01*
%TO.C,H1*%
X116078095Y-67518380D02*
X116078095Y-66518380D01*
X116078095Y-66994571D02*
X116649523Y-66994571D01*
X116649523Y-67518380D02*
X116649523Y-66518380D01*
X117649523Y-67518380D02*
X117078095Y-67518380D01*
X117363809Y-67518380D02*
X117363809Y-66518380D01*
X117268571Y-66661238D01*
X117173333Y-66756476D01*
X117078095Y-66804095D01*
%TO.C,U2*%
X134493095Y-84542380D02*
X134493095Y-85351904D01*
X134540714Y-85447142D01*
X134588333Y-85494761D01*
X134683571Y-85542380D01*
X134874047Y-85542380D01*
X134969285Y-85494761D01*
X135016904Y-85447142D01*
X135064523Y-85351904D01*
X135064523Y-84542380D01*
X135493095Y-84637619D02*
X135540714Y-84590000D01*
X135635952Y-84542380D01*
X135874047Y-84542380D01*
X135969285Y-84590000D01*
X136016904Y-84637619D01*
X136064523Y-84732857D01*
X136064523Y-84828095D01*
X136016904Y-84970952D01*
X135445476Y-85542380D01*
X136064523Y-85542380D01*
%TO.C,U1*%
X123698095Y-100036380D02*
X123698095Y-100845904D01*
X123745714Y-100941142D01*
X123793333Y-100988761D01*
X123888571Y-101036380D01*
X124079047Y-101036380D01*
X124174285Y-100988761D01*
X124221904Y-100941142D01*
X124269523Y-100845904D01*
X124269523Y-100036380D01*
X125269523Y-101036380D02*
X124698095Y-101036380D01*
X124983809Y-101036380D02*
X124983809Y-100036380D01*
X124888571Y-100179238D01*
X124793333Y-100274476D01*
X124698095Y-100322095D01*
%TO.C,J3*%
X119554666Y-97496380D02*
X119554666Y-98210666D01*
X119507047Y-98353523D01*
X119411809Y-98448761D01*
X119268952Y-98496380D01*
X119173714Y-98496380D01*
X119935619Y-97496380D02*
X120554666Y-97496380D01*
X120221333Y-97877333D01*
X120364190Y-97877333D01*
X120459428Y-97924952D01*
X120507047Y-97972571D01*
X120554666Y-98067809D01*
X120554666Y-98305904D01*
X120507047Y-98401142D01*
X120459428Y-98448761D01*
X120364190Y-98496380D01*
X120078476Y-98496380D01*
X119983238Y-98448761D01*
X119935619Y-98401142D01*
%TO.C,D1*%
X118895904Y-107894380D02*
X118895904Y-106894380D01*
X119134000Y-106894380D01*
X119276857Y-106942000D01*
X119372095Y-107037238D01*
X119419714Y-107132476D01*
X119467333Y-107322952D01*
X119467333Y-107465809D01*
X119419714Y-107656285D01*
X119372095Y-107751523D01*
X119276857Y-107846761D01*
X119134000Y-107894380D01*
X118895904Y-107894380D01*
X120419714Y-107894380D02*
X119848285Y-107894380D01*
X120134000Y-107894380D02*
X120134000Y-106894380D01*
X120038761Y-107037238D01*
X119943523Y-107132476D01*
X119848285Y-107180095D01*
%TO.C,C7*%
X126325333Y-82907142D02*
X126277714Y-82954761D01*
X126134857Y-83002380D01*
X126039619Y-83002380D01*
X125896761Y-82954761D01*
X125801523Y-82859523D01*
X125753904Y-82764285D01*
X125706285Y-82573809D01*
X125706285Y-82430952D01*
X125753904Y-82240476D01*
X125801523Y-82145238D01*
X125896761Y-82050000D01*
X126039619Y-82002380D01*
X126134857Y-82002380D01*
X126277714Y-82050000D01*
X126325333Y-82097619D01*
X126658666Y-82002380D02*
X127325333Y-82002380D01*
X126896761Y-83002380D01*
%TO.C,C5*%
X152233333Y-84177142D02*
X152185714Y-84224761D01*
X152042857Y-84272380D01*
X151947619Y-84272380D01*
X151804761Y-84224761D01*
X151709523Y-84129523D01*
X151661904Y-84034285D01*
X151614285Y-83843809D01*
X151614285Y-83700952D01*
X151661904Y-83510476D01*
X151709523Y-83415238D01*
X151804761Y-83320000D01*
X151947619Y-83272380D01*
X152042857Y-83272380D01*
X152185714Y-83320000D01*
X152233333Y-83367619D01*
X153138095Y-83272380D02*
X152661904Y-83272380D01*
X152614285Y-83748571D01*
X152661904Y-83700952D01*
X152757142Y-83653333D01*
X152995238Y-83653333D01*
X153090476Y-83700952D01*
X153138095Y-83748571D01*
X153185714Y-83843809D01*
X153185714Y-84081904D01*
X153138095Y-84177142D01*
X153090476Y-84224761D01*
X152995238Y-84272380D01*
X152757142Y-84272380D01*
X152661904Y-84224761D01*
X152614285Y-84177142D01*
%TD*%
M02*
