%TF.GenerationSoftware,KiCad,Pcbnew,5.1.10*%
%TF.CreationDate,2021-10-03T11:14:29+02:00*%
%TF.ProjectId,BTS-LogicBoard,4254532d-4c6f-4676-9963-426f6172642e,rev?*%
%TF.SameCoordinates,Original*%
%TF.FileFunction,Paste,Bot*%
%TF.FilePolarity,Positive*%
%FSLAX46Y46*%
G04 Gerber Fmt 4.6, Leading zero omitted, Abs format (unit mm)*
G04 Created by KiCad (PCBNEW 5.1.10) date 2021-10-03 11:14:29*
%MOMM*%
%LPD*%
G01*
G04 APERTURE LIST*
%ADD10R,0.800000X0.900000*%
G04 APERTURE END LIST*
%TO.C,U4*%
G36*
G01*
X130720000Y-102372500D02*
X130720000Y-102097500D01*
G75*
G02*
X130857500Y-101960000I137500J0D01*
G01*
X132182500Y-101960000D01*
G75*
G02*
X132320000Y-102097500I0J-137500D01*
G01*
X132320000Y-102372500D01*
G75*
G02*
X132182500Y-102510000I-137500J0D01*
G01*
X130857500Y-102510000D01*
G75*
G02*
X130720000Y-102372500I0J137500D01*
G01*
G37*
G36*
G01*
X130720000Y-101102500D02*
X130720000Y-100827500D01*
G75*
G02*
X130857500Y-100690000I137500J0D01*
G01*
X132182500Y-100690000D01*
G75*
G02*
X132320000Y-100827500I0J-137500D01*
G01*
X132320000Y-101102500D01*
G75*
G02*
X132182500Y-101240000I-137500J0D01*
G01*
X130857500Y-101240000D01*
G75*
G02*
X130720000Y-101102500I0J137500D01*
G01*
G37*
G36*
G01*
X124220000Y-101102500D02*
X124220000Y-100827500D01*
G75*
G02*
X124357500Y-100690000I137500J0D01*
G01*
X125682500Y-100690000D01*
G75*
G02*
X125820000Y-100827500I0J-137500D01*
G01*
X125820000Y-101102500D01*
G75*
G02*
X125682500Y-101240000I-137500J0D01*
G01*
X124357500Y-101240000D01*
G75*
G02*
X124220000Y-101102500I0J137500D01*
G01*
G37*
G36*
G01*
X124220000Y-102372500D02*
X124220000Y-102097500D01*
G75*
G02*
X124357500Y-101960000I137500J0D01*
G01*
X125682500Y-101960000D01*
G75*
G02*
X125820000Y-102097500I0J-137500D01*
G01*
X125820000Y-102372500D01*
G75*
G02*
X125682500Y-102510000I-137500J0D01*
G01*
X124357500Y-102510000D01*
G75*
G02*
X124220000Y-102372500I0J137500D01*
G01*
G37*
%TD*%
%TO.C,R20*%
G36*
G01*
X122798000Y-105039000D02*
X122798000Y-106289000D01*
G75*
G02*
X122548000Y-106539000I-250000J0D01*
G01*
X121748000Y-106539000D01*
G75*
G02*
X121498000Y-106289000I0J250000D01*
G01*
X121498000Y-105039000D01*
G75*
G02*
X121748000Y-104789000I250000J0D01*
G01*
X122548000Y-104789000D01*
G75*
G02*
X122798000Y-105039000I0J-250000D01*
G01*
G37*
G36*
G01*
X125898000Y-105039000D02*
X125898000Y-106289000D01*
G75*
G02*
X125648000Y-106539000I-250000J0D01*
G01*
X124848000Y-106539000D01*
G75*
G02*
X124598000Y-106289000I0J250000D01*
G01*
X124598000Y-105039000D01*
G75*
G02*
X124848000Y-104789000I250000J0D01*
G01*
X125648000Y-104789000D01*
G75*
G02*
X125898000Y-105039000I0J-250000D01*
G01*
G37*
%TD*%
%TO.C,R19*%
G36*
G01*
X135112599Y-109612000D02*
X136362601Y-109612000D01*
G75*
G02*
X136612600Y-109861999I0J-249999D01*
G01*
X136612600Y-110662001D01*
G75*
G02*
X136362601Y-110912000I-249999J0D01*
G01*
X135112599Y-110912000D01*
G75*
G02*
X134862600Y-110662001I0J249999D01*
G01*
X134862600Y-109861999D01*
G75*
G02*
X135112599Y-109612000I249999J0D01*
G01*
G37*
G36*
G01*
X135112599Y-106512000D02*
X136362601Y-106512000D01*
G75*
G02*
X136612600Y-106761999I0J-249999D01*
G01*
X136612600Y-107562001D01*
G75*
G02*
X136362601Y-107812000I-249999J0D01*
G01*
X135112599Y-107812000D01*
G75*
G02*
X134862600Y-107562001I0J249999D01*
G01*
X134862600Y-106761999D01*
G75*
G02*
X135112599Y-106512000I249999J0D01*
G01*
G37*
%TD*%
%TO.C,R18*%
G36*
G01*
X138648601Y-107812000D02*
X137398599Y-107812000D01*
G75*
G02*
X137148600Y-107562001I0J249999D01*
G01*
X137148600Y-106761999D01*
G75*
G02*
X137398599Y-106512000I249999J0D01*
G01*
X138648601Y-106512000D01*
G75*
G02*
X138898600Y-106761999I0J-249999D01*
G01*
X138898600Y-107562001D01*
G75*
G02*
X138648601Y-107812000I-249999J0D01*
G01*
G37*
G36*
G01*
X138648601Y-110912000D02*
X137398599Y-110912000D01*
G75*
G02*
X137148600Y-110662001I0J249999D01*
G01*
X137148600Y-109861999D01*
G75*
G02*
X137398599Y-109612000I249999J0D01*
G01*
X138648601Y-109612000D01*
G75*
G02*
X138898600Y-109861999I0J-249999D01*
G01*
X138898600Y-110662001D01*
G75*
G02*
X138648601Y-110912000I-249999J0D01*
G01*
G37*
%TD*%
%TO.C,R16*%
G36*
G01*
X134504000Y-84445001D02*
X134504000Y-83194999D01*
G75*
G02*
X134753999Y-82945000I249999J0D01*
G01*
X135554001Y-82945000D01*
G75*
G02*
X135804000Y-83194999I0J-249999D01*
G01*
X135804000Y-84445001D01*
G75*
G02*
X135554001Y-84695000I-249999J0D01*
G01*
X134753999Y-84695000D01*
G75*
G02*
X134504000Y-84445001I0J249999D01*
G01*
G37*
G36*
G01*
X131404000Y-84445001D02*
X131404000Y-83194999D01*
G75*
G02*
X131653999Y-82945000I249999J0D01*
G01*
X132454001Y-82945000D01*
G75*
G02*
X132704000Y-83194999I0J-249999D01*
G01*
X132704000Y-84445001D01*
G75*
G02*
X132454001Y-84695000I-249999J0D01*
G01*
X131653999Y-84695000D01*
G75*
G02*
X131404000Y-84445001I0J249999D01*
G01*
G37*
%TD*%
%TO.C,R15*%
G36*
G01*
X132704000Y-85480999D02*
X132704000Y-86731001D01*
G75*
G02*
X132454001Y-86981000I-249999J0D01*
G01*
X131653999Y-86981000D01*
G75*
G02*
X131404000Y-86731001I0J249999D01*
G01*
X131404000Y-85480999D01*
G75*
G02*
X131653999Y-85231000I249999J0D01*
G01*
X132454001Y-85231000D01*
G75*
G02*
X132704000Y-85480999I0J-249999D01*
G01*
G37*
G36*
G01*
X135804000Y-85480999D02*
X135804000Y-86731001D01*
G75*
G02*
X135554001Y-86981000I-249999J0D01*
G01*
X134753999Y-86981000D01*
G75*
G02*
X134504000Y-86731001I0J249999D01*
G01*
X134504000Y-85480999D01*
G75*
G02*
X134753999Y-85231000I249999J0D01*
G01*
X135554001Y-85231000D01*
G75*
G02*
X135804000Y-85480999I0J-249999D01*
G01*
G37*
%TD*%
%TO.C,R14*%
G36*
G01*
X136514000Y-93862999D02*
X136514000Y-95113001D01*
G75*
G02*
X136264001Y-95363000I-249999J0D01*
G01*
X135463999Y-95363000D01*
G75*
G02*
X135214000Y-95113001I0J249999D01*
G01*
X135214000Y-93862999D01*
G75*
G02*
X135463999Y-93613000I249999J0D01*
G01*
X136264001Y-93613000D01*
G75*
G02*
X136514000Y-93862999I0J-249999D01*
G01*
G37*
G36*
G01*
X139614000Y-93862999D02*
X139614000Y-95113001D01*
G75*
G02*
X139364001Y-95363000I-249999J0D01*
G01*
X138563999Y-95363000D01*
G75*
G02*
X138314000Y-95113001I0J249999D01*
G01*
X138314000Y-93862999D01*
G75*
G02*
X138563999Y-93613000I249999J0D01*
G01*
X139364001Y-93613000D01*
G75*
G02*
X139614000Y-93862999I0J-249999D01*
G01*
G37*
%TD*%
%TO.C,R13*%
G36*
G01*
X126100000Y-83194999D02*
X126100000Y-84445001D01*
G75*
G02*
X125850001Y-84695000I-249999J0D01*
G01*
X125049999Y-84695000D01*
G75*
G02*
X124800000Y-84445001I0J249999D01*
G01*
X124800000Y-83194999D01*
G75*
G02*
X125049999Y-82945000I249999J0D01*
G01*
X125850001Y-82945000D01*
G75*
G02*
X126100000Y-83194999I0J-249999D01*
G01*
G37*
G36*
G01*
X129200000Y-83194999D02*
X129200000Y-84445001D01*
G75*
G02*
X128950001Y-84695000I-249999J0D01*
G01*
X128149999Y-84695000D01*
G75*
G02*
X127900000Y-84445001I0J249999D01*
G01*
X127900000Y-83194999D01*
G75*
G02*
X128149999Y-82945000I249999J0D01*
G01*
X128950001Y-82945000D01*
G75*
G02*
X129200000Y-83194999I0J-249999D01*
G01*
G37*
%TD*%
%TO.C,R11*%
G36*
G01*
X149998000Y-102733001D02*
X149998000Y-101482999D01*
G75*
G02*
X150247999Y-101233000I249999J0D01*
G01*
X151048001Y-101233000D01*
G75*
G02*
X151298000Y-101482999I0J-249999D01*
G01*
X151298000Y-102733001D01*
G75*
G02*
X151048001Y-102983000I-249999J0D01*
G01*
X150247999Y-102983000D01*
G75*
G02*
X149998000Y-102733001I0J249999D01*
G01*
G37*
G36*
G01*
X146898000Y-102733001D02*
X146898000Y-101482999D01*
G75*
G02*
X147147999Y-101233000I249999J0D01*
G01*
X147948001Y-101233000D01*
G75*
G02*
X148198000Y-101482999I0J-249999D01*
G01*
X148198000Y-102733001D01*
G75*
G02*
X147948001Y-102983000I-249999J0D01*
G01*
X147147999Y-102983000D01*
G75*
G02*
X146898000Y-102733001I0J249999D01*
G01*
G37*
%TD*%
%TO.C,R10*%
G36*
G01*
X144918000Y-102733001D02*
X144918000Y-101482999D01*
G75*
G02*
X145167999Y-101233000I249999J0D01*
G01*
X145968001Y-101233000D01*
G75*
G02*
X146218000Y-101482999I0J-249999D01*
G01*
X146218000Y-102733001D01*
G75*
G02*
X145968001Y-102983000I-249999J0D01*
G01*
X145167999Y-102983000D01*
G75*
G02*
X144918000Y-102733001I0J249999D01*
G01*
G37*
G36*
G01*
X141818000Y-102733001D02*
X141818000Y-101482999D01*
G75*
G02*
X142067999Y-101233000I249999J0D01*
G01*
X142868001Y-101233000D01*
G75*
G02*
X143118000Y-101482999I0J-249999D01*
G01*
X143118000Y-102733001D01*
G75*
G02*
X142868001Y-102983000I-249999J0D01*
G01*
X142067999Y-102983000D01*
G75*
G02*
X141818000Y-102733001I0J249999D01*
G01*
G37*
%TD*%
%TO.C,R9*%
G36*
G01*
X129300400Y-74304999D02*
X129300400Y-75555001D01*
G75*
G02*
X129050401Y-75805000I-249999J0D01*
G01*
X128250399Y-75805000D01*
G75*
G02*
X128000400Y-75555001I0J249999D01*
G01*
X128000400Y-74304999D01*
G75*
G02*
X128250399Y-74055000I249999J0D01*
G01*
X129050401Y-74055000D01*
G75*
G02*
X129300400Y-74304999I0J-249999D01*
G01*
G37*
G36*
G01*
X132400400Y-74304999D02*
X132400400Y-75555001D01*
G75*
G02*
X132150401Y-75805000I-249999J0D01*
G01*
X131350399Y-75805000D01*
G75*
G02*
X131100400Y-75555001I0J249999D01*
G01*
X131100400Y-74304999D01*
G75*
G02*
X131350399Y-74055000I249999J0D01*
G01*
X132150401Y-74055000D01*
G75*
G02*
X132400400Y-74304999I0J-249999D01*
G01*
G37*
%TD*%
%TO.C,R8*%
G36*
G01*
X127900000Y-81143001D02*
X127900000Y-79892999D01*
G75*
G02*
X128149999Y-79643000I249999J0D01*
G01*
X128950001Y-79643000D01*
G75*
G02*
X129200000Y-79892999I0J-249999D01*
G01*
X129200000Y-81143001D01*
G75*
G02*
X128950001Y-81393000I-249999J0D01*
G01*
X128149999Y-81393000D01*
G75*
G02*
X127900000Y-81143001I0J249999D01*
G01*
G37*
G36*
G01*
X124800000Y-81143001D02*
X124800000Y-79892999D01*
G75*
G02*
X125049999Y-79643000I249999J0D01*
G01*
X125850001Y-79643000D01*
G75*
G02*
X126100000Y-79892999I0J-249999D01*
G01*
X126100000Y-81143001D01*
G75*
G02*
X125850001Y-81393000I-249999J0D01*
G01*
X125049999Y-81393000D01*
G75*
G02*
X124800000Y-81143001I0J249999D01*
G01*
G37*
%TD*%
%TO.C,R7*%
G36*
G01*
X131100400Y-78552201D02*
X131100400Y-77302199D01*
G75*
G02*
X131350399Y-77052200I249999J0D01*
G01*
X132150401Y-77052200D01*
G75*
G02*
X132400400Y-77302199I0J-249999D01*
G01*
X132400400Y-78552201D01*
G75*
G02*
X132150401Y-78802200I-249999J0D01*
G01*
X131350399Y-78802200D01*
G75*
G02*
X131100400Y-78552201I0J249999D01*
G01*
G37*
G36*
G01*
X128000400Y-78552201D02*
X128000400Y-77302199D01*
G75*
G02*
X128250399Y-77052200I249999J0D01*
G01*
X129050401Y-77052200D01*
G75*
G02*
X129300400Y-77302199I0J-249999D01*
G01*
X129300400Y-78552201D01*
G75*
G02*
X129050401Y-78802200I-249999J0D01*
G01*
X128250399Y-78802200D01*
G75*
G02*
X128000400Y-78552201I0J249999D01*
G01*
G37*
%TD*%
%TO.C,R6*%
G36*
G01*
X127900000Y-111115001D02*
X127900000Y-109864999D01*
G75*
G02*
X128149999Y-109615000I249999J0D01*
G01*
X128950001Y-109615000D01*
G75*
G02*
X129200000Y-109864999I0J-249999D01*
G01*
X129200000Y-111115001D01*
G75*
G02*
X128950001Y-111365000I-249999J0D01*
G01*
X128149999Y-111365000D01*
G75*
G02*
X127900000Y-111115001I0J249999D01*
G01*
G37*
G36*
G01*
X124800000Y-111115001D02*
X124800000Y-109864999D01*
G75*
G02*
X125049999Y-109615000I249999J0D01*
G01*
X125850001Y-109615000D01*
G75*
G02*
X126100000Y-109864999I0J-249999D01*
G01*
X126100000Y-111115001D01*
G75*
G02*
X125850001Y-111365000I-249999J0D01*
G01*
X125049999Y-111365000D01*
G75*
G02*
X124800000Y-111115001I0J249999D01*
G01*
G37*
%TD*%
%TO.C,R5*%
G36*
G01*
X137296999Y-114565000D02*
X138547001Y-114565000D01*
G75*
G02*
X138797000Y-114814999I0J-249999D01*
G01*
X138797000Y-115615001D01*
G75*
G02*
X138547001Y-115865000I-249999J0D01*
G01*
X137296999Y-115865000D01*
G75*
G02*
X137047000Y-115615001I0J249999D01*
G01*
X137047000Y-114814999D01*
G75*
G02*
X137296999Y-114565000I249999J0D01*
G01*
G37*
G36*
G01*
X137296999Y-111465000D02*
X138547001Y-111465000D01*
G75*
G02*
X138797000Y-111714999I0J-249999D01*
G01*
X138797000Y-112515001D01*
G75*
G02*
X138547001Y-112765000I-249999J0D01*
G01*
X137296999Y-112765000D01*
G75*
G02*
X137047000Y-112515001I0J249999D01*
G01*
X137047000Y-111714999D01*
G75*
G02*
X137296999Y-111465000I249999J0D01*
G01*
G37*
%TD*%
%TO.C,R3*%
G36*
G01*
X131456000Y-108575001D02*
X131456000Y-107324999D01*
G75*
G02*
X131705999Y-107075000I249999J0D01*
G01*
X132506001Y-107075000D01*
G75*
G02*
X132756000Y-107324999I0J-249999D01*
G01*
X132756000Y-108575001D01*
G75*
G02*
X132506001Y-108825000I-249999J0D01*
G01*
X131705999Y-108825000D01*
G75*
G02*
X131456000Y-108575001I0J249999D01*
G01*
G37*
G36*
G01*
X128356000Y-108575001D02*
X128356000Y-107324999D01*
G75*
G02*
X128605999Y-107075000I249999J0D01*
G01*
X129406001Y-107075000D01*
G75*
G02*
X129656000Y-107324999I0J-249999D01*
G01*
X129656000Y-108575001D01*
G75*
G02*
X129406001Y-108825000I-249999J0D01*
G01*
X128605999Y-108825000D01*
G75*
G02*
X128356000Y-108575001I0J249999D01*
G01*
G37*
%TD*%
D10*
%TO.C,Q5*%
X132892800Y-79924400D03*
X131942800Y-81924400D03*
X133842800Y-81924400D03*
%TD*%
%TO.C,Q3*%
X125730000Y-76470000D03*
X124780000Y-78470000D03*
X126680000Y-78470000D03*
%TD*%
%TO.C,Q1*%
X130556000Y-104054400D03*
X129606000Y-106054400D03*
X131506000Y-106054400D03*
%TD*%
%TO.C,D3*%
G36*
G01*
X132855000Y-111115000D02*
X132855000Y-109865000D01*
G75*
G02*
X133105000Y-109615000I250000J0D01*
G01*
X134030000Y-109615000D01*
G75*
G02*
X134280000Y-109865000I0J-250000D01*
G01*
X134280000Y-111115000D01*
G75*
G02*
X134030000Y-111365000I-250000J0D01*
G01*
X133105000Y-111365000D01*
G75*
G02*
X132855000Y-111115000I0J250000D01*
G01*
G37*
G36*
G01*
X129880000Y-111115000D02*
X129880000Y-109865000D01*
G75*
G02*
X130130000Y-109615000I250000J0D01*
G01*
X131055000Y-109615000D01*
G75*
G02*
X131305000Y-109865000I0J-250000D01*
G01*
X131305000Y-111115000D01*
G75*
G02*
X131055000Y-111365000I-250000J0D01*
G01*
X130130000Y-111365000D01*
G75*
G02*
X129880000Y-111115000I0J250000D01*
G01*
G37*
%TD*%
%TO.C,C7*%
G36*
G01*
X138314000Y-90058003D02*
X138314000Y-88757997D01*
G75*
G02*
X138563997Y-88508000I249997J0D01*
G01*
X139389003Y-88508000D01*
G75*
G02*
X139639000Y-88757997I0J-249997D01*
G01*
X139639000Y-90058003D01*
G75*
G02*
X139389003Y-90308000I-249997J0D01*
G01*
X138563997Y-90308000D01*
G75*
G02*
X138314000Y-90058003I0J249997D01*
G01*
G37*
G36*
G01*
X135189000Y-90058003D02*
X135189000Y-88757997D01*
G75*
G02*
X135438997Y-88508000I249997J0D01*
G01*
X136264003Y-88508000D01*
G75*
G02*
X136514000Y-88757997I0J-249997D01*
G01*
X136514000Y-90058003D01*
G75*
G02*
X136264003Y-90308000I-249997J0D01*
G01*
X135438997Y-90308000D01*
G75*
G02*
X135189000Y-90058003I0J249997D01*
G01*
G37*
%TD*%
%TO.C,C6*%
G36*
G01*
X138314000Y-92598003D02*
X138314000Y-91297997D01*
G75*
G02*
X138563997Y-91048000I249997J0D01*
G01*
X139389003Y-91048000D01*
G75*
G02*
X139639000Y-91297997I0J-249997D01*
G01*
X139639000Y-92598003D01*
G75*
G02*
X139389003Y-92848000I-249997J0D01*
G01*
X138563997Y-92848000D01*
G75*
G02*
X138314000Y-92598003I0J249997D01*
G01*
G37*
G36*
G01*
X135189000Y-92598003D02*
X135189000Y-91297997D01*
G75*
G02*
X135438997Y-91048000I249997J0D01*
G01*
X136264003Y-91048000D01*
G75*
G02*
X136514000Y-91297997I0J-249997D01*
G01*
X136514000Y-92598003D01*
G75*
G02*
X136264003Y-92848000I-249997J0D01*
G01*
X135438997Y-92848000D01*
G75*
G02*
X135189000Y-92598003I0J249997D01*
G01*
G37*
%TD*%
%TO.C,C4*%
G36*
G01*
X144918000Y-105044003D02*
X144918000Y-103743997D01*
G75*
G02*
X145167997Y-103494000I249997J0D01*
G01*
X145993003Y-103494000D01*
G75*
G02*
X146243000Y-103743997I0J-249997D01*
G01*
X146243000Y-105044003D01*
G75*
G02*
X145993003Y-105294000I-249997J0D01*
G01*
X145167997Y-105294000D01*
G75*
G02*
X144918000Y-105044003I0J249997D01*
G01*
G37*
G36*
G01*
X141793000Y-105044003D02*
X141793000Y-103743997D01*
G75*
G02*
X142042997Y-103494000I249997J0D01*
G01*
X142868003Y-103494000D01*
G75*
G02*
X143118000Y-103743997I0J-249997D01*
G01*
X143118000Y-105044003D01*
G75*
G02*
X142868003Y-105294000I-249997J0D01*
G01*
X142042997Y-105294000D01*
G75*
G02*
X141793000Y-105044003I0J249997D01*
G01*
G37*
%TD*%
M02*
