%TF.GenerationSoftware,KiCad,Pcbnew,5.1.10*%
%TF.CreationDate,2021-10-03T15:02:46+02:00*%
%TF.ProjectId,BTS-LogicBoard,4254532d-4c6f-4676-9963-426f6172642e,rev?*%
%TF.SameCoordinates,Original*%
%TF.FileFunction,Legend,Bot*%
%TF.FilePolarity,Positive*%
%FSLAX46Y46*%
G04 Gerber Fmt 4.6, Leading zero omitted, Abs format (unit mm)*
G04 Created by KiCad (PCBNEW 5.1.10) date 2021-10-03 15:02:46*
%MOMM*%
%LPD*%
G01*
G04 APERTURE LIST*
%ADD10C,0.150000*%
%ADD11C,0.120000*%
G04 APERTURE END LIST*
D10*
X148027380Y-77291919D02*
X147027380Y-77416919D01*
X147027380Y-77655014D01*
X147075000Y-77791919D01*
X147170238Y-77875252D01*
X147265476Y-77910967D01*
X147455952Y-77934776D01*
X147598809Y-77916919D01*
X147789285Y-77845491D01*
X147884523Y-77785967D01*
X147979761Y-77678824D01*
X148027380Y-77530014D01*
X148027380Y-77291919D01*
X147979761Y-78678824D02*
X148027380Y-78577633D01*
X148027380Y-78387157D01*
X147979761Y-78297872D01*
X147884523Y-78262157D01*
X147503571Y-78309776D01*
X147408333Y-78369300D01*
X147360714Y-78470491D01*
X147360714Y-78660967D01*
X147408333Y-78750252D01*
X147503571Y-78785967D01*
X147598809Y-78774062D01*
X147694047Y-78285967D01*
X147979761Y-79107395D02*
X148027380Y-79196681D01*
X148027380Y-79387157D01*
X147979761Y-79488348D01*
X147884523Y-79547872D01*
X147836904Y-79553824D01*
X147741666Y-79518110D01*
X147694047Y-79428824D01*
X147694047Y-79285967D01*
X147646428Y-79196681D01*
X147551190Y-79160967D01*
X147503571Y-79166919D01*
X147408333Y-79226443D01*
X147360714Y-79327633D01*
X147360714Y-79470491D01*
X147408333Y-79559776D01*
X148027380Y-79958586D02*
X147360714Y-80041919D01*
X147027380Y-80083586D02*
X147075000Y-80030014D01*
X147122619Y-80071681D01*
X147075000Y-80125252D01*
X147027380Y-80083586D01*
X147122619Y-80071681D01*
X147360714Y-80946681D02*
X148170238Y-80845491D01*
X148265476Y-80785967D01*
X148313095Y-80732395D01*
X148360714Y-80631205D01*
X148360714Y-80488348D01*
X148313095Y-80399062D01*
X147979761Y-80869300D02*
X148027380Y-80768110D01*
X148027380Y-80577633D01*
X147979761Y-80488348D01*
X147932142Y-80446681D01*
X147836904Y-80410967D01*
X147551190Y-80446681D01*
X147455952Y-80506205D01*
X147408333Y-80559776D01*
X147360714Y-80660967D01*
X147360714Y-80851443D01*
X147408333Y-80940729D01*
X147360714Y-81422872D02*
X148027380Y-81339538D01*
X147455952Y-81410967D02*
X147408333Y-81464538D01*
X147360714Y-81565729D01*
X147360714Y-81708586D01*
X147408333Y-81797872D01*
X147503571Y-81833586D01*
X148027380Y-81768110D01*
X147979761Y-82631205D02*
X148027380Y-82530014D01*
X148027380Y-82339538D01*
X147979761Y-82250252D01*
X147884523Y-82214538D01*
X147503571Y-82262157D01*
X147408333Y-82321681D01*
X147360714Y-82422872D01*
X147360714Y-82613348D01*
X147408333Y-82702633D01*
X147503571Y-82738348D01*
X147598809Y-82726443D01*
X147694047Y-82238348D01*
X148027380Y-83530014D02*
X147027380Y-83655014D01*
X147979761Y-83535967D02*
X148027380Y-83434776D01*
X148027380Y-83244300D01*
X147979761Y-83155014D01*
X147932142Y-83113348D01*
X147836904Y-83077633D01*
X147551190Y-83113348D01*
X147455952Y-83172872D01*
X147408333Y-83226443D01*
X147360714Y-83327633D01*
X147360714Y-83518110D01*
X147408333Y-83607395D01*
X148027380Y-84768110D02*
X147027380Y-84893110D01*
X147408333Y-84845491D02*
X147360714Y-84946681D01*
X147360714Y-85137157D01*
X147408333Y-85226443D01*
X147455952Y-85268110D01*
X147551190Y-85303824D01*
X147836904Y-85268110D01*
X147932142Y-85208586D01*
X147979761Y-85155014D01*
X148027380Y-85053824D01*
X148027380Y-84863348D01*
X147979761Y-84774062D01*
X147360714Y-85660967D02*
X148027380Y-85815729D01*
X147360714Y-86137157D02*
X148027380Y-85815729D01*
X148265476Y-85690729D01*
X148313095Y-85637157D01*
X148360714Y-85535967D01*
X147503571Y-87595491D02*
X147551190Y-87732395D01*
X147598809Y-87774062D01*
X147694047Y-87809776D01*
X147836904Y-87791919D01*
X147932142Y-87732395D01*
X147979761Y-87678824D01*
X148027380Y-87577633D01*
X148027380Y-87196681D01*
X147027380Y-87321681D01*
X147027380Y-87655014D01*
X147075000Y-87744300D01*
X147122619Y-87785967D01*
X147217857Y-87821681D01*
X147313095Y-87809776D01*
X147408333Y-87750252D01*
X147455952Y-87696681D01*
X147503571Y-87595491D01*
X147503571Y-87262157D01*
X147979761Y-88583586D02*
X148027380Y-88482395D01*
X148027380Y-88291919D01*
X147979761Y-88202633D01*
X147884523Y-88166919D01*
X147503571Y-88214538D01*
X147408333Y-88274062D01*
X147360714Y-88375252D01*
X147360714Y-88565729D01*
X147408333Y-88655014D01*
X147503571Y-88690729D01*
X147598809Y-88678824D01*
X147694047Y-88190729D01*
X147360714Y-89137157D02*
X148027380Y-89053824D01*
X147455952Y-89125252D02*
X147408333Y-89178824D01*
X147360714Y-89280014D01*
X147360714Y-89422872D01*
X147408333Y-89512157D01*
X147503571Y-89547872D01*
X148027380Y-89482395D01*
X148027380Y-90101443D02*
X147979761Y-90012157D01*
X147932142Y-89970491D01*
X147836904Y-89934776D01*
X147551190Y-89970491D01*
X147455952Y-90030014D01*
X147408333Y-90083586D01*
X147360714Y-90184776D01*
X147360714Y-90327633D01*
X147408333Y-90416919D01*
X147455952Y-90458586D01*
X147551190Y-90494300D01*
X147836904Y-90458586D01*
X147932142Y-90399062D01*
X147979761Y-90345491D01*
X148027380Y-90244300D01*
X148027380Y-90101443D01*
X148027380Y-90863348D02*
X147360714Y-90946681D01*
X147027380Y-90988348D02*
X147075000Y-90934776D01*
X147122619Y-90976443D01*
X147075000Y-91030014D01*
X147027380Y-90988348D01*
X147122619Y-90976443D01*
X147360714Y-91280014D02*
X147360714Y-91660967D01*
X147027380Y-91464538D02*
X147884523Y-91357395D01*
X147979761Y-91393110D01*
X148027380Y-91482395D01*
X148027380Y-91577633D01*
X147027380Y-92655014D02*
X147027380Y-93226443D01*
X148027380Y-92815729D02*
X147027380Y-92940729D01*
X148027380Y-93863348D02*
X147503571Y-93928824D01*
X147408333Y-93893110D01*
X147360714Y-93803824D01*
X147360714Y-93613348D01*
X147408333Y-93512157D01*
X147979761Y-93869300D02*
X148027380Y-93768110D01*
X148027380Y-93530014D01*
X147979761Y-93440729D01*
X147884523Y-93405014D01*
X147789285Y-93416919D01*
X147694047Y-93476443D01*
X147646428Y-93577633D01*
X147646428Y-93815729D01*
X147598809Y-93916919D01*
X148027380Y-94339538D02*
X147360714Y-94422872D01*
X147551190Y-94399062D02*
X147455952Y-94458586D01*
X147408333Y-94512157D01*
X147360714Y-94613348D01*
X147360714Y-94708586D01*
X148027380Y-94958586D02*
X147360714Y-95041919D01*
X147551190Y-95018110D02*
X147455952Y-95077633D01*
X147408333Y-95131205D01*
X147360714Y-95232395D01*
X147360714Y-95327633D01*
X148027380Y-96006205D02*
X147503571Y-96071681D01*
X147408333Y-96035967D01*
X147360714Y-95946681D01*
X147360714Y-95756205D01*
X147408333Y-95655014D01*
X147979761Y-96012157D02*
X148027380Y-95910967D01*
X148027380Y-95672872D01*
X147979761Y-95583586D01*
X147884523Y-95547872D01*
X147789285Y-95559776D01*
X147694047Y-95619300D01*
X147646428Y-95720491D01*
X147646428Y-95958586D01*
X147598809Y-96059776D01*
X148027380Y-96910967D02*
X147027380Y-97035967D01*
X147979761Y-96916919D02*
X148027380Y-96815729D01*
X148027380Y-96625252D01*
X147979761Y-96535967D01*
X147932142Y-96494300D01*
X147836904Y-96458586D01*
X147551190Y-96494300D01*
X147455952Y-96553824D01*
X147408333Y-96607395D01*
X147360714Y-96708586D01*
X147360714Y-96899062D01*
X147408333Y-96988348D01*
X147979761Y-97774062D02*
X148027380Y-97672872D01*
X148027380Y-97482395D01*
X147979761Y-97393110D01*
X147884523Y-97357395D01*
X147503571Y-97405014D01*
X147408333Y-97464538D01*
X147360714Y-97565729D01*
X147360714Y-97756205D01*
X147408333Y-97845491D01*
X147503571Y-97881205D01*
X147598809Y-97869300D01*
X147694047Y-97381205D01*
X150058333Y-79649062D02*
X150010714Y-79607395D01*
X149867857Y-79530014D01*
X149772619Y-79494300D01*
X149629761Y-79464538D01*
X149391666Y-79446681D01*
X149201190Y-79470491D01*
X148963095Y-79547872D01*
X148820238Y-79613348D01*
X148725000Y-79672872D01*
X148582142Y-79785967D01*
X148534523Y-79839538D01*
X149677380Y-80506205D02*
X149153571Y-80571681D01*
X149058333Y-80535967D01*
X149010714Y-80446681D01*
X149010714Y-80256205D01*
X149058333Y-80155014D01*
X149629761Y-80512157D02*
X149677380Y-80410967D01*
X149677380Y-80172872D01*
X149629761Y-80083586D01*
X149534523Y-80047872D01*
X149439285Y-80059776D01*
X149344047Y-80119300D01*
X149296428Y-80220491D01*
X149296428Y-80458586D01*
X149248809Y-80559776D01*
X149677380Y-81125252D02*
X149629761Y-81035967D01*
X149534523Y-81000252D01*
X148677380Y-81107395D01*
X149677380Y-81506205D02*
X149010714Y-81589538D01*
X148677380Y-81631205D02*
X148725000Y-81577633D01*
X148772619Y-81619300D01*
X148725000Y-81672872D01*
X148677380Y-81631205D01*
X148772619Y-81619300D01*
X149677380Y-82410967D02*
X149153571Y-82476443D01*
X149058333Y-82440729D01*
X149010714Y-82351443D01*
X149010714Y-82160967D01*
X149058333Y-82059776D01*
X149629761Y-82416919D02*
X149677380Y-82315729D01*
X149677380Y-82077633D01*
X149629761Y-81988348D01*
X149534523Y-81952633D01*
X149439285Y-81964538D01*
X149344047Y-82024062D01*
X149296428Y-82125252D01*
X149296428Y-82363348D01*
X149248809Y-82464538D01*
X149629761Y-82845491D02*
X149677380Y-82934776D01*
X149677380Y-83125252D01*
X149629761Y-83226443D01*
X149534523Y-83285967D01*
X149486904Y-83291919D01*
X149391666Y-83256205D01*
X149344047Y-83166919D01*
X149344047Y-83024062D01*
X149296428Y-82934776D01*
X149201190Y-82899062D01*
X149153571Y-82905014D01*
X149058333Y-82964538D01*
X149010714Y-83065729D01*
X149010714Y-83208586D01*
X149058333Y-83297872D01*
X149677380Y-84458586D02*
X148677380Y-84583586D01*
X149058333Y-84535967D02*
X149010714Y-84637157D01*
X149010714Y-84827633D01*
X149058333Y-84916919D01*
X149105952Y-84958586D01*
X149201190Y-84994300D01*
X149486904Y-84958586D01*
X149582142Y-84899062D01*
X149629761Y-84845491D01*
X149677380Y-84744300D01*
X149677380Y-84553824D01*
X149629761Y-84464538D01*
X149629761Y-85750252D02*
X149677380Y-85649062D01*
X149677380Y-85458586D01*
X149629761Y-85369300D01*
X149534523Y-85333586D01*
X149153571Y-85381205D01*
X149058333Y-85440729D01*
X149010714Y-85541919D01*
X149010714Y-85732395D01*
X149058333Y-85821681D01*
X149153571Y-85857395D01*
X149248809Y-85845491D01*
X149344047Y-85357395D01*
X149677380Y-86220491D02*
X148677380Y-86345491D01*
X149058333Y-86297872D02*
X149010714Y-86399062D01*
X149010714Y-86589538D01*
X149058333Y-86678824D01*
X149105952Y-86720491D01*
X149201190Y-86756205D01*
X149486904Y-86720491D01*
X149582142Y-86660967D01*
X149629761Y-86607395D01*
X149677380Y-86506205D01*
X149677380Y-86315729D01*
X149629761Y-86226443D01*
X149629761Y-87512157D02*
X149677380Y-87410967D01*
X149677380Y-87220491D01*
X149629761Y-87131205D01*
X149534523Y-87095491D01*
X149153571Y-87143110D01*
X149058333Y-87202633D01*
X149010714Y-87303824D01*
X149010714Y-87494300D01*
X149058333Y-87583586D01*
X149153571Y-87619300D01*
X149248809Y-87607395D01*
X149344047Y-87119300D01*
X149010714Y-88065729D02*
X149677380Y-87982395D01*
X149105952Y-88053824D02*
X149058333Y-88107395D01*
X149010714Y-88208586D01*
X149010714Y-88351443D01*
X149058333Y-88440729D01*
X149153571Y-88476443D01*
X149677380Y-88410967D01*
X149677380Y-89030014D02*
X149629761Y-88940729D01*
X149534523Y-88905014D01*
X148677380Y-89012157D01*
X149629761Y-89797872D02*
X149677380Y-89696681D01*
X149677380Y-89506205D01*
X149629761Y-89416919D01*
X149534523Y-89381205D01*
X149153571Y-89428824D01*
X149058333Y-89488348D01*
X149010714Y-89589538D01*
X149010714Y-89780014D01*
X149058333Y-89869300D01*
X149153571Y-89905014D01*
X149248809Y-89893110D01*
X149344047Y-89405014D01*
X149677380Y-90268110D02*
X148677380Y-90393110D01*
X149058333Y-90345491D02*
X149010714Y-90446681D01*
X149010714Y-90637157D01*
X149058333Y-90726443D01*
X149105952Y-90768110D01*
X149201190Y-90803824D01*
X149486904Y-90768110D01*
X149582142Y-90708586D01*
X149629761Y-90655014D01*
X149677380Y-90553824D01*
X149677380Y-90363348D01*
X149629761Y-90274062D01*
X149677380Y-91172872D02*
X149010714Y-91256205D01*
X149201190Y-91232395D02*
X149105952Y-91291919D01*
X149058333Y-91345491D01*
X149010714Y-91446681D01*
X149010714Y-91541919D01*
X149677380Y-91791919D02*
X149010714Y-91875252D01*
X148677380Y-91916919D02*
X148725000Y-91863348D01*
X148772619Y-91905014D01*
X148725000Y-91958586D01*
X148677380Y-91916919D01*
X148772619Y-91905014D01*
X149629761Y-92702633D02*
X149677380Y-92601443D01*
X149677380Y-92410967D01*
X149629761Y-92321681D01*
X149582142Y-92280014D01*
X149486904Y-92244300D01*
X149201190Y-92280014D01*
X149105952Y-92339538D01*
X149058333Y-92393110D01*
X149010714Y-92494300D01*
X149010714Y-92684776D01*
X149058333Y-92774062D01*
X149677380Y-93268110D02*
X149629761Y-93178824D01*
X149582142Y-93137157D01*
X149486904Y-93101443D01*
X149201190Y-93137157D01*
X149105952Y-93196681D01*
X149058333Y-93250252D01*
X149010714Y-93351443D01*
X149010714Y-93494300D01*
X149058333Y-93583586D01*
X149105952Y-93625252D01*
X149201190Y-93660967D01*
X149486904Y-93625252D01*
X149582142Y-93565729D01*
X149629761Y-93512157D01*
X149677380Y-93410967D01*
X149677380Y-93268110D01*
X149677380Y-94172872D02*
X149629761Y-94083586D01*
X149534523Y-94047872D01*
X148677380Y-94155014D01*
X149677380Y-94696681D02*
X149629761Y-94607395D01*
X149582142Y-94565729D01*
X149486904Y-94530014D01*
X149201190Y-94565729D01*
X149105952Y-94625252D01*
X149058333Y-94678824D01*
X149010714Y-94780014D01*
X149010714Y-94922872D01*
X149058333Y-95012157D01*
X149105952Y-95053824D01*
X149201190Y-95089538D01*
X149486904Y-95053824D01*
X149582142Y-94994300D01*
X149629761Y-94940729D01*
X149677380Y-94839538D01*
X149677380Y-94696681D01*
X150058333Y-95315729D02*
X150010714Y-95369300D01*
X149867857Y-95482395D01*
X149772619Y-95541919D01*
X149629761Y-95607395D01*
X149391666Y-95684776D01*
X149201190Y-95708586D01*
X148963095Y-95690729D01*
X148820238Y-95660967D01*
X148725000Y-95625252D01*
X148582142Y-95547872D01*
X148534523Y-95506205D01*
X151327380Y-74458586D02*
X150327380Y-74583586D01*
X151327380Y-74887157D02*
X150803571Y-74952633D01*
X150708333Y-74916919D01*
X150660714Y-74827633D01*
X150660714Y-74684776D01*
X150708333Y-74583586D01*
X150755952Y-74530014D01*
X150660714Y-75303824D02*
X150660714Y-75684776D01*
X150327380Y-75488348D02*
X151184523Y-75381205D01*
X151279761Y-75416919D01*
X151327380Y-75506205D01*
X151327380Y-75601443D01*
X150660714Y-75875252D02*
X150660714Y-76256205D01*
X150327380Y-76059776D02*
X151184523Y-75952633D01*
X151279761Y-75988348D01*
X151327380Y-76077633D01*
X151327380Y-76172872D01*
X150660714Y-76589538D02*
X151660714Y-76464538D01*
X150708333Y-76583586D02*
X150660714Y-76684776D01*
X150660714Y-76875252D01*
X150708333Y-76964538D01*
X150755952Y-77006205D01*
X150851190Y-77041919D01*
X151136904Y-77006205D01*
X151232142Y-76946681D01*
X151279761Y-76893110D01*
X151327380Y-76791919D01*
X151327380Y-76601443D01*
X151279761Y-76512157D01*
X151279761Y-77369300D02*
X151327380Y-77458586D01*
X151327380Y-77649062D01*
X151279761Y-77750252D01*
X151184523Y-77809776D01*
X151136904Y-77815729D01*
X151041666Y-77780014D01*
X150994047Y-77690729D01*
X150994047Y-77547872D01*
X150946428Y-77458586D01*
X150851190Y-77422872D01*
X150803571Y-77428824D01*
X150708333Y-77488348D01*
X150660714Y-77589538D01*
X150660714Y-77732395D01*
X150708333Y-77821681D01*
X151232142Y-78232395D02*
X151279761Y-78274062D01*
X151327380Y-78220491D01*
X151279761Y-78178824D01*
X151232142Y-78232395D01*
X151327380Y-78220491D01*
X150708333Y-78297872D02*
X150755952Y-78339538D01*
X150803571Y-78285967D01*
X150755952Y-78244300D01*
X150708333Y-78297872D01*
X150803571Y-78285967D01*
X150279761Y-79541919D02*
X151565476Y-78524062D01*
X150279761Y-80589538D02*
X151565476Y-79571681D01*
X150660714Y-81303824D02*
X151470238Y-81202633D01*
X151565476Y-81143110D01*
X151613095Y-81089538D01*
X151660714Y-80988348D01*
X151660714Y-80845491D01*
X151613095Y-80756205D01*
X151279761Y-81226443D02*
X151327380Y-81125252D01*
X151327380Y-80934776D01*
X151279761Y-80845491D01*
X151232142Y-80803824D01*
X151136904Y-80768110D01*
X150851190Y-80803824D01*
X150755952Y-80863348D01*
X150708333Y-80916919D01*
X150660714Y-81018110D01*
X150660714Y-81208586D01*
X150708333Y-81297872D01*
X151327380Y-81696681D02*
X150660714Y-81780014D01*
X150327380Y-81821681D02*
X150375000Y-81768110D01*
X150422619Y-81809776D01*
X150375000Y-81863348D01*
X150327380Y-81821681D01*
X150422619Y-81809776D01*
X150660714Y-82113348D02*
X150660714Y-82494300D01*
X150327380Y-82297872D02*
X151184523Y-82190729D01*
X151279761Y-82226443D01*
X151327380Y-82315729D01*
X151327380Y-82410967D01*
X151327380Y-82744300D02*
X150327380Y-82869300D01*
X151327380Y-83172872D02*
X150803571Y-83238348D01*
X150708333Y-83202633D01*
X150660714Y-83113348D01*
X150660714Y-82970491D01*
X150708333Y-82869300D01*
X150755952Y-82815729D01*
X150660714Y-84160967D02*
X151327380Y-84077633D01*
X150660714Y-83732395D02*
X151184523Y-83666919D01*
X151279761Y-83702633D01*
X151327380Y-83791919D01*
X151327380Y-83934776D01*
X151279761Y-84035967D01*
X151232142Y-84089538D01*
X151327380Y-84553824D02*
X150327380Y-84678824D01*
X150708333Y-84631205D02*
X150660714Y-84732395D01*
X150660714Y-84922872D01*
X150708333Y-85012157D01*
X150755952Y-85053824D01*
X150851190Y-85089538D01*
X151136904Y-85053824D01*
X151232142Y-84994300D01*
X151279761Y-84940729D01*
X151327380Y-84839538D01*
X151327380Y-84649062D01*
X151279761Y-84559776D01*
X151232142Y-85470491D02*
X151279761Y-85512157D01*
X151327380Y-85458586D01*
X151279761Y-85416919D01*
X151232142Y-85470491D01*
X151327380Y-85458586D01*
X151279761Y-86369300D02*
X151327380Y-86268110D01*
X151327380Y-86077633D01*
X151279761Y-85988348D01*
X151232142Y-85946681D01*
X151136904Y-85910967D01*
X150851190Y-85946681D01*
X150755952Y-86006205D01*
X150708333Y-86059776D01*
X150660714Y-86160967D01*
X150660714Y-86351443D01*
X150708333Y-86440729D01*
X151327380Y-86934776D02*
X151279761Y-86845491D01*
X151232142Y-86803824D01*
X151136904Y-86768110D01*
X150851190Y-86803824D01*
X150755952Y-86863348D01*
X150708333Y-86916919D01*
X150660714Y-87018110D01*
X150660714Y-87160967D01*
X150708333Y-87250252D01*
X150755952Y-87291919D01*
X150851190Y-87327633D01*
X151136904Y-87291919D01*
X151232142Y-87232395D01*
X151279761Y-87178824D01*
X151327380Y-87077633D01*
X151327380Y-86934776D01*
X151327380Y-87696681D02*
X150660714Y-87780014D01*
X150755952Y-87768110D02*
X150708333Y-87821681D01*
X150660714Y-87922872D01*
X150660714Y-88065729D01*
X150708333Y-88155014D01*
X150803571Y-88190729D01*
X151327380Y-88125252D01*
X150803571Y-88190729D02*
X150708333Y-88250252D01*
X150660714Y-88351443D01*
X150660714Y-88494300D01*
X150708333Y-88583586D01*
X150803571Y-88619300D01*
X151327380Y-88553824D01*
X150279761Y-89875252D02*
X151565476Y-88857395D01*
X151327380Y-90077633D02*
X150327380Y-90202633D01*
X150708333Y-90155014D02*
X150660714Y-90256205D01*
X150660714Y-90446681D01*
X150708333Y-90535967D01*
X150755952Y-90577633D01*
X150851190Y-90613348D01*
X151136904Y-90577633D01*
X151232142Y-90518110D01*
X151279761Y-90464538D01*
X151327380Y-90363348D01*
X151327380Y-90172872D01*
X151279761Y-90083586D01*
X151279761Y-91369300D02*
X151327380Y-91268110D01*
X151327380Y-91077633D01*
X151279761Y-90988348D01*
X151184523Y-90952633D01*
X150803571Y-91000252D01*
X150708333Y-91059776D01*
X150660714Y-91160967D01*
X150660714Y-91351443D01*
X150708333Y-91440729D01*
X150803571Y-91476443D01*
X150898809Y-91464538D01*
X150994047Y-90976443D01*
X151327380Y-91839538D02*
X150327380Y-91964538D01*
X150708333Y-91916919D02*
X150660714Y-92018110D01*
X150660714Y-92208586D01*
X150708333Y-92297872D01*
X150755952Y-92339538D01*
X150851190Y-92375252D01*
X151136904Y-92339538D01*
X151232142Y-92280014D01*
X151279761Y-92226443D01*
X151327380Y-92125252D01*
X151327380Y-91934776D01*
X151279761Y-91845491D01*
X151279761Y-93131205D02*
X151327380Y-93030014D01*
X151327380Y-92839538D01*
X151279761Y-92750252D01*
X151184523Y-92714538D01*
X150803571Y-92762157D01*
X150708333Y-92821681D01*
X150660714Y-92922872D01*
X150660714Y-93113348D01*
X150708333Y-93202633D01*
X150803571Y-93238348D01*
X150898809Y-93226443D01*
X150994047Y-92738348D01*
X150660714Y-93684776D02*
X151327380Y-93601443D01*
X150755952Y-93672872D02*
X150708333Y-93726443D01*
X150660714Y-93827633D01*
X150660714Y-93970491D01*
X150708333Y-94059776D01*
X150803571Y-94095491D01*
X151327380Y-94030014D01*
X151327380Y-94649062D02*
X151279761Y-94559776D01*
X151184523Y-94524062D01*
X150327380Y-94631205D01*
X151279761Y-95416919D02*
X151327380Y-95315729D01*
X151327380Y-95125252D01*
X151279761Y-95035967D01*
X151184523Y-95000252D01*
X150803571Y-95047872D01*
X150708333Y-95107395D01*
X150660714Y-95208586D01*
X150660714Y-95399062D01*
X150708333Y-95488348D01*
X150803571Y-95524062D01*
X150898809Y-95512157D01*
X150994047Y-95024062D01*
X151327380Y-95887157D02*
X150327380Y-96012157D01*
X150708333Y-95964538D02*
X150660714Y-96065729D01*
X150660714Y-96256205D01*
X150708333Y-96345491D01*
X150755952Y-96387157D01*
X150851190Y-96422872D01*
X151136904Y-96387157D01*
X151232142Y-96327633D01*
X151279761Y-96274062D01*
X151327380Y-96172872D01*
X151327380Y-95982395D01*
X151279761Y-95893110D01*
X151327380Y-96791919D02*
X150660714Y-96875252D01*
X150851190Y-96851443D02*
X150755952Y-96910967D01*
X150708333Y-96964538D01*
X150660714Y-97065729D01*
X150660714Y-97160967D01*
X151327380Y-97410967D02*
X150660714Y-97494300D01*
X150327380Y-97535967D02*
X150375000Y-97482395D01*
X150422619Y-97524062D01*
X150375000Y-97577633D01*
X150327380Y-97535967D01*
X150422619Y-97524062D01*
X151279761Y-98321681D02*
X151327380Y-98220491D01*
X151327380Y-98030014D01*
X151279761Y-97940729D01*
X151232142Y-97899062D01*
X151136904Y-97863348D01*
X150851190Y-97899062D01*
X150755952Y-97958586D01*
X150708333Y-98012157D01*
X150660714Y-98113348D01*
X150660714Y-98303824D01*
X150708333Y-98393110D01*
X151327380Y-98887157D02*
X151279761Y-98797872D01*
X151232142Y-98756205D01*
X151136904Y-98720491D01*
X150851190Y-98756205D01*
X150755952Y-98815729D01*
X150708333Y-98869300D01*
X150660714Y-98970491D01*
X150660714Y-99113348D01*
X150708333Y-99202633D01*
X150755952Y-99244300D01*
X150851190Y-99280014D01*
X151136904Y-99244300D01*
X151232142Y-99184776D01*
X151279761Y-99131205D01*
X151327380Y-99030014D01*
X151327380Y-98887157D01*
X151327380Y-99791919D02*
X151279761Y-99702633D01*
X151184523Y-99666919D01*
X150327380Y-99774062D01*
X151327380Y-100315729D02*
X151279761Y-100226443D01*
X151232142Y-100184776D01*
X151136904Y-100149062D01*
X150851190Y-100184776D01*
X150755952Y-100244300D01*
X150708333Y-100297872D01*
X150660714Y-100399062D01*
X150660714Y-100541919D01*
X150708333Y-100631205D01*
X150755952Y-100672872D01*
X150851190Y-100708586D01*
X151136904Y-100672872D01*
X151232142Y-100613348D01*
X151279761Y-100559776D01*
X151327380Y-100458586D01*
X151327380Y-100315729D01*
D11*
%TO.C,U4*%
X128270000Y-100190000D02*
X130655000Y-100190000D01*
X130655000Y-100190000D02*
X130655000Y-100430000D01*
X128270000Y-100190000D02*
X125885000Y-100190000D01*
X125885000Y-100190000D02*
X125885000Y-100430000D01*
X128270000Y-103010000D02*
X130655000Y-103010000D01*
X130655000Y-103010000D02*
X130655000Y-102770000D01*
X128270000Y-103010000D02*
X125885000Y-103010000D01*
X125885000Y-103010000D02*
X125885000Y-102770000D01*
X125885000Y-102770000D02*
X124220000Y-102770000D01*
%TO.C,R20*%
X124425064Y-104754000D02*
X122970936Y-104754000D01*
X124425064Y-106574000D02*
X122970936Y-106574000D01*
%TO.C,R19*%
X136647600Y-107984936D02*
X136647600Y-109439064D01*
X134827600Y-107984936D02*
X134827600Y-109439064D01*
%TO.C,R18*%
X137113600Y-109439064D02*
X137113600Y-107984936D01*
X138933600Y-109439064D02*
X138933600Y-107984936D01*
%TO.C,R16*%
X132876936Y-84730000D02*
X134331064Y-84730000D01*
X132876936Y-82910000D02*
X134331064Y-82910000D01*
%TO.C,R15*%
X134331064Y-85196000D02*
X132876936Y-85196000D01*
X134331064Y-87016000D02*
X132876936Y-87016000D01*
%TO.C,R14*%
X138141064Y-93578000D02*
X136686936Y-93578000D01*
X138141064Y-95398000D02*
X136686936Y-95398000D01*
%TO.C,R13*%
X127727064Y-82910000D02*
X126272936Y-82910000D01*
X127727064Y-84730000D02*
X126272936Y-84730000D01*
%TO.C,R11*%
X148370936Y-103018000D02*
X149825064Y-103018000D01*
X148370936Y-101198000D02*
X149825064Y-101198000D01*
%TO.C,R10*%
X143290936Y-103018000D02*
X144745064Y-103018000D01*
X143290936Y-101198000D02*
X144745064Y-101198000D01*
%TO.C,R9*%
X130927464Y-74020000D02*
X129473336Y-74020000D01*
X130927464Y-75840000D02*
X129473336Y-75840000D01*
%TO.C,R8*%
X126272936Y-81428000D02*
X127727064Y-81428000D01*
X126272936Y-79608000D02*
X127727064Y-79608000D01*
%TO.C,R7*%
X129473336Y-78837200D02*
X130927464Y-78837200D01*
X129473336Y-77017200D02*
X130927464Y-77017200D01*
%TO.C,R6*%
X126272936Y-111400000D02*
X127727064Y-111400000D01*
X126272936Y-109580000D02*
X127727064Y-109580000D01*
%TO.C,R5*%
X137012000Y-112937936D02*
X137012000Y-114392064D01*
X138832000Y-112937936D02*
X138832000Y-114392064D01*
%TO.C,R3*%
X129828936Y-108860000D02*
X131283064Y-108860000D01*
X129828936Y-107040000D02*
X131283064Y-107040000D01*
%TO.C,Q5*%
X131312800Y-80164400D02*
X132242800Y-80164400D01*
X134472800Y-80164400D02*
X133542800Y-80164400D01*
X134472800Y-80164400D02*
X134472800Y-82324400D01*
X131312800Y-80164400D02*
X131312800Y-81624400D01*
%TO.C,Q3*%
X124150000Y-76710000D02*
X125080000Y-76710000D01*
X127310000Y-76710000D02*
X126380000Y-76710000D01*
X127310000Y-76710000D02*
X127310000Y-78870000D01*
X124150000Y-76710000D02*
X124150000Y-78170000D01*
%TO.C,Q1*%
X128976000Y-104294400D02*
X129906000Y-104294400D01*
X132136000Y-104294400D02*
X131206000Y-104294400D01*
X132136000Y-104294400D02*
X132136000Y-106454400D01*
X128976000Y-104294400D02*
X128976000Y-105754400D01*
%TO.C,D3*%
X133680000Y-111625000D02*
X129620000Y-111625000D01*
X129620000Y-111625000D02*
X129620000Y-109355000D01*
X129620000Y-109355000D02*
X133680000Y-109355000D01*
%TO.C,C7*%
X136702748Y-90318000D02*
X138125252Y-90318000D01*
X136702748Y-88498000D02*
X138125252Y-88498000D01*
%TO.C,C6*%
X136702748Y-92858000D02*
X138125252Y-92858000D01*
X136702748Y-91038000D02*
X138125252Y-91038000D01*
%TO.C,C4*%
X143306748Y-105304000D02*
X144729252Y-105304000D01*
X143306748Y-103484000D02*
X144729252Y-103484000D01*
%TO.C,U4*%
D10*
X129031904Y-103302380D02*
X129031904Y-104111904D01*
X128984285Y-104207142D01*
X128936666Y-104254761D01*
X128841428Y-104302380D01*
X128650952Y-104302380D01*
X128555714Y-104254761D01*
X128508095Y-104207142D01*
X128460476Y-104111904D01*
X128460476Y-103302380D01*
X127555714Y-103635714D02*
X127555714Y-104302380D01*
X127793809Y-103254761D02*
X128031904Y-103969047D01*
X127412857Y-103969047D01*
%TO.C,R20*%
X124340857Y-104296380D02*
X124674190Y-103820190D01*
X124912285Y-104296380D02*
X124912285Y-103296380D01*
X124531333Y-103296380D01*
X124436095Y-103344000D01*
X124388476Y-103391619D01*
X124340857Y-103486857D01*
X124340857Y-103629714D01*
X124388476Y-103724952D01*
X124436095Y-103772571D01*
X124531333Y-103820190D01*
X124912285Y-103820190D01*
X123959904Y-103391619D02*
X123912285Y-103344000D01*
X123817047Y-103296380D01*
X123578952Y-103296380D01*
X123483714Y-103344000D01*
X123436095Y-103391619D01*
X123388476Y-103486857D01*
X123388476Y-103582095D01*
X123436095Y-103724952D01*
X124007523Y-104296380D01*
X123388476Y-104296380D01*
X122769428Y-103296380D02*
X122674190Y-103296380D01*
X122578952Y-103344000D01*
X122531333Y-103391619D01*
X122483714Y-103486857D01*
X122436095Y-103677333D01*
X122436095Y-103915428D01*
X122483714Y-104105904D01*
X122531333Y-104201142D01*
X122578952Y-104248761D01*
X122674190Y-104296380D01*
X122769428Y-104296380D01*
X122864666Y-104248761D01*
X122912285Y-104201142D01*
X122959904Y-104105904D01*
X123007523Y-103915428D01*
X123007523Y-103677333D01*
X122959904Y-103486857D01*
X122912285Y-103391619D01*
X122864666Y-103344000D01*
X122769428Y-103296380D01*
%TO.C,R19*%
X136532857Y-105608380D02*
X136866190Y-105132190D01*
X137104285Y-105608380D02*
X137104285Y-104608380D01*
X136723333Y-104608380D01*
X136628095Y-104656000D01*
X136580476Y-104703619D01*
X136532857Y-104798857D01*
X136532857Y-104941714D01*
X136580476Y-105036952D01*
X136628095Y-105084571D01*
X136723333Y-105132190D01*
X137104285Y-105132190D01*
X135580476Y-105608380D02*
X136151904Y-105608380D01*
X135866190Y-105608380D02*
X135866190Y-104608380D01*
X135961428Y-104751238D01*
X136056666Y-104846476D01*
X136151904Y-104894095D01*
X135104285Y-105608380D02*
X134913809Y-105608380D01*
X134818571Y-105560761D01*
X134770952Y-105513142D01*
X134675714Y-105370285D01*
X134628095Y-105179809D01*
X134628095Y-104798857D01*
X134675714Y-104703619D01*
X134723333Y-104656000D01*
X134818571Y-104608380D01*
X135009047Y-104608380D01*
X135104285Y-104656000D01*
X135151904Y-104703619D01*
X135199523Y-104798857D01*
X135199523Y-105036952D01*
X135151904Y-105132190D01*
X135104285Y-105179809D01*
X135009047Y-105227428D01*
X134818571Y-105227428D01*
X134723333Y-105179809D01*
X134675714Y-105132190D01*
X134628095Y-105036952D01*
%TO.C,R18*%
X140295980Y-108069142D02*
X139819790Y-107735809D01*
X140295980Y-107497714D02*
X139295980Y-107497714D01*
X139295980Y-107878666D01*
X139343600Y-107973904D01*
X139391219Y-108021523D01*
X139486457Y-108069142D01*
X139629314Y-108069142D01*
X139724552Y-108021523D01*
X139772171Y-107973904D01*
X139819790Y-107878666D01*
X139819790Y-107497714D01*
X140295980Y-109021523D02*
X140295980Y-108450095D01*
X140295980Y-108735809D02*
X139295980Y-108735809D01*
X139438838Y-108640571D01*
X139534076Y-108545333D01*
X139581695Y-108450095D01*
X139724552Y-109592952D02*
X139676933Y-109497714D01*
X139629314Y-109450095D01*
X139534076Y-109402476D01*
X139486457Y-109402476D01*
X139391219Y-109450095D01*
X139343600Y-109497714D01*
X139295980Y-109592952D01*
X139295980Y-109783428D01*
X139343600Y-109878666D01*
X139391219Y-109926285D01*
X139486457Y-109973904D01*
X139534076Y-109973904D01*
X139629314Y-109926285D01*
X139676933Y-109878666D01*
X139724552Y-109783428D01*
X139724552Y-109592952D01*
X139772171Y-109497714D01*
X139819790Y-109450095D01*
X139915028Y-109402476D01*
X140105504Y-109402476D01*
X140200742Y-109450095D01*
X140248361Y-109497714D01*
X140295980Y-109592952D01*
X140295980Y-109783428D01*
X140248361Y-109878666D01*
X140200742Y-109926285D01*
X140105504Y-109973904D01*
X139915028Y-109973904D01*
X139819790Y-109926285D01*
X139772171Y-109878666D01*
X139724552Y-109783428D01*
%TO.C,R16*%
X131008380Y-83177142D02*
X130532190Y-82843809D01*
X131008380Y-82605714D02*
X130008380Y-82605714D01*
X130008380Y-82986666D01*
X130056000Y-83081904D01*
X130103619Y-83129523D01*
X130198857Y-83177142D01*
X130341714Y-83177142D01*
X130436952Y-83129523D01*
X130484571Y-83081904D01*
X130532190Y-82986666D01*
X130532190Y-82605714D01*
X131008380Y-84129523D02*
X131008380Y-83558095D01*
X131008380Y-83843809D02*
X130008380Y-83843809D01*
X130151238Y-83748571D01*
X130246476Y-83653333D01*
X130294095Y-83558095D01*
X130008380Y-84986666D02*
X130008380Y-84796190D01*
X130056000Y-84700952D01*
X130103619Y-84653333D01*
X130246476Y-84558095D01*
X130436952Y-84510476D01*
X130817904Y-84510476D01*
X130913142Y-84558095D01*
X130960761Y-84605714D01*
X131008380Y-84700952D01*
X131008380Y-84891428D01*
X130960761Y-84986666D01*
X130913142Y-85034285D01*
X130817904Y-85081904D01*
X130579809Y-85081904D01*
X130484571Y-85034285D01*
X130436952Y-84986666D01*
X130389333Y-84891428D01*
X130389333Y-84700952D01*
X130436952Y-84605714D01*
X130484571Y-84558095D01*
X130579809Y-84510476D01*
%TO.C,R15*%
X133992857Y-88336380D02*
X134326190Y-87860190D01*
X134564285Y-88336380D02*
X134564285Y-87336380D01*
X134183333Y-87336380D01*
X134088095Y-87384000D01*
X134040476Y-87431619D01*
X133992857Y-87526857D01*
X133992857Y-87669714D01*
X134040476Y-87764952D01*
X134088095Y-87812571D01*
X134183333Y-87860190D01*
X134564285Y-87860190D01*
X133040476Y-88336380D02*
X133611904Y-88336380D01*
X133326190Y-88336380D02*
X133326190Y-87336380D01*
X133421428Y-87479238D01*
X133516666Y-87574476D01*
X133611904Y-87622095D01*
X132135714Y-87336380D02*
X132611904Y-87336380D01*
X132659523Y-87812571D01*
X132611904Y-87764952D01*
X132516666Y-87717333D01*
X132278571Y-87717333D01*
X132183333Y-87764952D01*
X132135714Y-87812571D01*
X132088095Y-87907809D01*
X132088095Y-88145904D01*
X132135714Y-88241142D01*
X132183333Y-88288761D01*
X132278571Y-88336380D01*
X132516666Y-88336380D01*
X132611904Y-88288761D01*
X132659523Y-88241142D01*
%TO.C,R14*%
X134818380Y-93845142D02*
X134342190Y-93511809D01*
X134818380Y-93273714D02*
X133818380Y-93273714D01*
X133818380Y-93654666D01*
X133866000Y-93749904D01*
X133913619Y-93797523D01*
X134008857Y-93845142D01*
X134151714Y-93845142D01*
X134246952Y-93797523D01*
X134294571Y-93749904D01*
X134342190Y-93654666D01*
X134342190Y-93273714D01*
X134818380Y-94797523D02*
X134818380Y-94226095D01*
X134818380Y-94511809D02*
X133818380Y-94511809D01*
X133961238Y-94416571D01*
X134056476Y-94321333D01*
X134104095Y-94226095D01*
X134151714Y-95654666D02*
X134818380Y-95654666D01*
X133770761Y-95416571D02*
X134485047Y-95178476D01*
X134485047Y-95797523D01*
%TO.C,R13*%
X127642857Y-86304380D02*
X127976190Y-85828190D01*
X128214285Y-86304380D02*
X128214285Y-85304380D01*
X127833333Y-85304380D01*
X127738095Y-85352000D01*
X127690476Y-85399619D01*
X127642857Y-85494857D01*
X127642857Y-85637714D01*
X127690476Y-85732952D01*
X127738095Y-85780571D01*
X127833333Y-85828190D01*
X128214285Y-85828190D01*
X126690476Y-86304380D02*
X127261904Y-86304380D01*
X126976190Y-86304380D02*
X126976190Y-85304380D01*
X127071428Y-85447238D01*
X127166666Y-85542476D01*
X127261904Y-85590095D01*
X126357142Y-85304380D02*
X125738095Y-85304380D01*
X126071428Y-85685333D01*
X125928571Y-85685333D01*
X125833333Y-85732952D01*
X125785714Y-85780571D01*
X125738095Y-85875809D01*
X125738095Y-86113904D01*
X125785714Y-86209142D01*
X125833333Y-86256761D01*
X125928571Y-86304380D01*
X126214285Y-86304380D01*
X126309523Y-86256761D01*
X126357142Y-86209142D01*
%TO.C,R11*%
X149740857Y-104380380D02*
X150074190Y-103904190D01*
X150312285Y-104380380D02*
X150312285Y-103380380D01*
X149931333Y-103380380D01*
X149836095Y-103428000D01*
X149788476Y-103475619D01*
X149740857Y-103570857D01*
X149740857Y-103713714D01*
X149788476Y-103808952D01*
X149836095Y-103856571D01*
X149931333Y-103904190D01*
X150312285Y-103904190D01*
X148788476Y-104380380D02*
X149359904Y-104380380D01*
X149074190Y-104380380D02*
X149074190Y-103380380D01*
X149169428Y-103523238D01*
X149264666Y-103618476D01*
X149359904Y-103666095D01*
X147836095Y-104380380D02*
X148407523Y-104380380D01*
X148121809Y-104380380D02*
X148121809Y-103380380D01*
X148217047Y-103523238D01*
X148312285Y-103618476D01*
X148407523Y-103666095D01*
%TO.C,R10*%
X144660857Y-100782380D02*
X144994190Y-100306190D01*
X145232285Y-100782380D02*
X145232285Y-99782380D01*
X144851333Y-99782380D01*
X144756095Y-99830000D01*
X144708476Y-99877619D01*
X144660857Y-99972857D01*
X144660857Y-100115714D01*
X144708476Y-100210952D01*
X144756095Y-100258571D01*
X144851333Y-100306190D01*
X145232285Y-100306190D01*
X143708476Y-100782380D02*
X144279904Y-100782380D01*
X143994190Y-100782380D02*
X143994190Y-99782380D01*
X144089428Y-99925238D01*
X144184666Y-100020476D01*
X144279904Y-100068095D01*
X143089428Y-99782380D02*
X142994190Y-99782380D01*
X142898952Y-99830000D01*
X142851333Y-99877619D01*
X142803714Y-99972857D01*
X142756095Y-100163333D01*
X142756095Y-100401428D01*
X142803714Y-100591904D01*
X142851333Y-100687142D01*
X142898952Y-100734761D01*
X142994190Y-100782380D01*
X143089428Y-100782380D01*
X143184666Y-100734761D01*
X143232285Y-100687142D01*
X143279904Y-100591904D01*
X143327523Y-100401428D01*
X143327523Y-100163333D01*
X143279904Y-99972857D01*
X143232285Y-99877619D01*
X143184666Y-99830000D01*
X143089428Y-99782380D01*
%TO.C,R9*%
X130367066Y-73562380D02*
X130700400Y-73086190D01*
X130938495Y-73562380D02*
X130938495Y-72562380D01*
X130557542Y-72562380D01*
X130462304Y-72610000D01*
X130414685Y-72657619D01*
X130367066Y-72752857D01*
X130367066Y-72895714D01*
X130414685Y-72990952D01*
X130462304Y-73038571D01*
X130557542Y-73086190D01*
X130938495Y-73086190D01*
X129890876Y-73562380D02*
X129700400Y-73562380D01*
X129605161Y-73514761D01*
X129557542Y-73467142D01*
X129462304Y-73324285D01*
X129414685Y-73133809D01*
X129414685Y-72752857D01*
X129462304Y-72657619D01*
X129509923Y-72610000D01*
X129605161Y-72562380D01*
X129795638Y-72562380D01*
X129890876Y-72610000D01*
X129938495Y-72657619D01*
X129986114Y-72752857D01*
X129986114Y-72990952D01*
X129938495Y-73086190D01*
X129890876Y-73133809D01*
X129795638Y-73181428D01*
X129605161Y-73181428D01*
X129509923Y-73133809D01*
X129462304Y-73086190D01*
X129414685Y-72990952D01*
%TO.C,R8*%
X127166666Y-82748380D02*
X127500000Y-82272190D01*
X127738095Y-82748380D02*
X127738095Y-81748380D01*
X127357142Y-81748380D01*
X127261904Y-81796000D01*
X127214285Y-81843619D01*
X127166666Y-81938857D01*
X127166666Y-82081714D01*
X127214285Y-82176952D01*
X127261904Y-82224571D01*
X127357142Y-82272190D01*
X127738095Y-82272190D01*
X126595238Y-82176952D02*
X126690476Y-82129333D01*
X126738095Y-82081714D01*
X126785714Y-81986476D01*
X126785714Y-81938857D01*
X126738095Y-81843619D01*
X126690476Y-81796000D01*
X126595238Y-81748380D01*
X126404761Y-81748380D01*
X126309523Y-81796000D01*
X126261904Y-81843619D01*
X126214285Y-81938857D01*
X126214285Y-81986476D01*
X126261904Y-82081714D01*
X126309523Y-82129333D01*
X126404761Y-82176952D01*
X126595238Y-82176952D01*
X126690476Y-82224571D01*
X126738095Y-82272190D01*
X126785714Y-82367428D01*
X126785714Y-82557904D01*
X126738095Y-82653142D01*
X126690476Y-82700761D01*
X126595238Y-82748380D01*
X126404761Y-82748380D01*
X126309523Y-82700761D01*
X126261904Y-82653142D01*
X126214285Y-82557904D01*
X126214285Y-82367428D01*
X126261904Y-82272190D01*
X126309523Y-82224571D01*
X126404761Y-82176952D01*
%TO.C,R7*%
X130367066Y-80199580D02*
X130700400Y-79723390D01*
X130938495Y-80199580D02*
X130938495Y-79199580D01*
X130557542Y-79199580D01*
X130462304Y-79247200D01*
X130414685Y-79294819D01*
X130367066Y-79390057D01*
X130367066Y-79532914D01*
X130414685Y-79628152D01*
X130462304Y-79675771D01*
X130557542Y-79723390D01*
X130938495Y-79723390D01*
X130033733Y-79199580D02*
X129367066Y-79199580D01*
X129795638Y-80199580D01*
%TO.C,R6*%
X127166666Y-112762380D02*
X127500000Y-112286190D01*
X127738095Y-112762380D02*
X127738095Y-111762380D01*
X127357142Y-111762380D01*
X127261904Y-111810000D01*
X127214285Y-111857619D01*
X127166666Y-111952857D01*
X127166666Y-112095714D01*
X127214285Y-112190952D01*
X127261904Y-112238571D01*
X127357142Y-112286190D01*
X127738095Y-112286190D01*
X126309523Y-111762380D02*
X126500000Y-111762380D01*
X126595238Y-111810000D01*
X126642857Y-111857619D01*
X126738095Y-112000476D01*
X126785714Y-112190952D01*
X126785714Y-112571904D01*
X126738095Y-112667142D01*
X126690476Y-112714761D01*
X126595238Y-112762380D01*
X126404761Y-112762380D01*
X126309523Y-112714761D01*
X126261904Y-112667142D01*
X126214285Y-112571904D01*
X126214285Y-112333809D01*
X126261904Y-112238571D01*
X126309523Y-112190952D01*
X126404761Y-112143333D01*
X126595238Y-112143333D01*
X126690476Y-112190952D01*
X126738095Y-112238571D01*
X126785714Y-112333809D01*
%TO.C,R5*%
X136554380Y-113498333D02*
X136078190Y-113165000D01*
X136554380Y-112926904D02*
X135554380Y-112926904D01*
X135554380Y-113307857D01*
X135602000Y-113403095D01*
X135649619Y-113450714D01*
X135744857Y-113498333D01*
X135887714Y-113498333D01*
X135982952Y-113450714D01*
X136030571Y-113403095D01*
X136078190Y-113307857D01*
X136078190Y-112926904D01*
X135554380Y-114403095D02*
X135554380Y-113926904D01*
X136030571Y-113879285D01*
X135982952Y-113926904D01*
X135935333Y-114022142D01*
X135935333Y-114260238D01*
X135982952Y-114355476D01*
X136030571Y-114403095D01*
X136125809Y-114450714D01*
X136363904Y-114450714D01*
X136459142Y-114403095D01*
X136506761Y-114355476D01*
X136554380Y-114260238D01*
X136554380Y-114022142D01*
X136506761Y-113926904D01*
X136459142Y-113879285D01*
%TO.C,R3*%
X127452380Y-107783333D02*
X126976190Y-107450000D01*
X127452380Y-107211904D02*
X126452380Y-107211904D01*
X126452380Y-107592857D01*
X126500000Y-107688095D01*
X126547619Y-107735714D01*
X126642857Y-107783333D01*
X126785714Y-107783333D01*
X126880952Y-107735714D01*
X126928571Y-107688095D01*
X126976190Y-107592857D01*
X126976190Y-107211904D01*
X126452380Y-108116666D02*
X126452380Y-108735714D01*
X126833333Y-108402380D01*
X126833333Y-108545238D01*
X126880952Y-108640476D01*
X126928571Y-108688095D01*
X127023809Y-108735714D01*
X127261904Y-108735714D01*
X127357142Y-108688095D01*
X127404761Y-108640476D01*
X127452380Y-108545238D01*
X127452380Y-108259523D01*
X127404761Y-108164285D01*
X127357142Y-108116666D01*
%TO.C,Q5*%
X135940419Y-80829161D02*
X135892800Y-80733923D01*
X135797561Y-80638685D01*
X135654704Y-80495828D01*
X135607085Y-80400590D01*
X135607085Y-80305352D01*
X135845180Y-80352971D02*
X135797561Y-80257733D01*
X135702323Y-80162495D01*
X135511847Y-80114876D01*
X135178514Y-80114876D01*
X134988038Y-80162495D01*
X134892800Y-80257733D01*
X134845180Y-80352971D01*
X134845180Y-80543447D01*
X134892800Y-80638685D01*
X134988038Y-80733923D01*
X135178514Y-80781542D01*
X135511847Y-80781542D01*
X135702323Y-80733923D01*
X135797561Y-80638685D01*
X135845180Y-80543447D01*
X135845180Y-80352971D01*
X134845180Y-81686304D02*
X134845180Y-81210114D01*
X135321371Y-81162495D01*
X135273752Y-81210114D01*
X135226133Y-81305352D01*
X135226133Y-81543447D01*
X135273752Y-81638685D01*
X135321371Y-81686304D01*
X135416609Y-81733923D01*
X135654704Y-81733923D01*
X135749942Y-81686304D01*
X135797561Y-81638685D01*
X135845180Y-81543447D01*
X135845180Y-81305352D01*
X135797561Y-81210114D01*
X135749942Y-81162495D01*
%TO.C,Q3*%
X125825238Y-74842619D02*
X125920476Y-74795000D01*
X126015714Y-74699761D01*
X126158571Y-74556904D01*
X126253809Y-74509285D01*
X126349047Y-74509285D01*
X126301428Y-74747380D02*
X126396666Y-74699761D01*
X126491904Y-74604523D01*
X126539523Y-74414047D01*
X126539523Y-74080714D01*
X126491904Y-73890238D01*
X126396666Y-73795000D01*
X126301428Y-73747380D01*
X126110952Y-73747380D01*
X126015714Y-73795000D01*
X125920476Y-73890238D01*
X125872857Y-74080714D01*
X125872857Y-74414047D01*
X125920476Y-74604523D01*
X126015714Y-74699761D01*
X126110952Y-74747380D01*
X126301428Y-74747380D01*
X125539523Y-73747380D02*
X124920476Y-73747380D01*
X125253809Y-74128333D01*
X125110952Y-74128333D01*
X125015714Y-74175952D01*
X124968095Y-74223571D01*
X124920476Y-74318809D01*
X124920476Y-74556904D01*
X124968095Y-74652142D01*
X125015714Y-74699761D01*
X125110952Y-74747380D01*
X125396666Y-74747380D01*
X125491904Y-74699761D01*
X125539523Y-74652142D01*
%TO.C,Q1*%
X133603619Y-104959161D02*
X133556000Y-104863923D01*
X133460761Y-104768685D01*
X133317904Y-104625828D01*
X133270285Y-104530590D01*
X133270285Y-104435352D01*
X133508380Y-104482971D02*
X133460761Y-104387733D01*
X133365523Y-104292495D01*
X133175047Y-104244876D01*
X132841714Y-104244876D01*
X132651238Y-104292495D01*
X132556000Y-104387733D01*
X132508380Y-104482971D01*
X132508380Y-104673447D01*
X132556000Y-104768685D01*
X132651238Y-104863923D01*
X132841714Y-104911542D01*
X133175047Y-104911542D01*
X133365523Y-104863923D01*
X133460761Y-104768685D01*
X133508380Y-104673447D01*
X133508380Y-104482971D01*
X133508380Y-105863923D02*
X133508380Y-105292495D01*
X133508380Y-105578209D02*
X132508380Y-105578209D01*
X132651238Y-105482971D01*
X132746476Y-105387733D01*
X132794095Y-105292495D01*
%TO.C,D3*%
X132818095Y-112762380D02*
X132818095Y-111762380D01*
X132580000Y-111762380D01*
X132437142Y-111810000D01*
X132341904Y-111905238D01*
X132294285Y-112000476D01*
X132246666Y-112190952D01*
X132246666Y-112333809D01*
X132294285Y-112524285D01*
X132341904Y-112619523D01*
X132437142Y-112714761D01*
X132580000Y-112762380D01*
X132818095Y-112762380D01*
X131913333Y-111762380D02*
X131294285Y-111762380D01*
X131627619Y-112143333D01*
X131484761Y-112143333D01*
X131389523Y-112190952D01*
X131341904Y-112238571D01*
X131294285Y-112333809D01*
X131294285Y-112571904D01*
X131341904Y-112667142D01*
X131389523Y-112714761D01*
X131484761Y-112762380D01*
X131770476Y-112762380D01*
X131865714Y-112714761D01*
X131913333Y-112667142D01*
%TO.C,C7*%
X137580666Y-87987142D02*
X137628285Y-88034761D01*
X137771142Y-88082380D01*
X137866380Y-88082380D01*
X138009238Y-88034761D01*
X138104476Y-87939523D01*
X138152095Y-87844285D01*
X138199714Y-87653809D01*
X138199714Y-87510952D01*
X138152095Y-87320476D01*
X138104476Y-87225238D01*
X138009238Y-87130000D01*
X137866380Y-87082380D01*
X137771142Y-87082380D01*
X137628285Y-87130000D01*
X137580666Y-87177619D01*
X137247333Y-87082380D02*
X136580666Y-87082380D01*
X137009238Y-88082380D01*
%TO.C,C6*%
X134723142Y-91273333D02*
X134770761Y-91225714D01*
X134818380Y-91082857D01*
X134818380Y-90987619D01*
X134770761Y-90844761D01*
X134675523Y-90749523D01*
X134580285Y-90701904D01*
X134389809Y-90654285D01*
X134246952Y-90654285D01*
X134056476Y-90701904D01*
X133961238Y-90749523D01*
X133866000Y-90844761D01*
X133818380Y-90987619D01*
X133818380Y-91082857D01*
X133866000Y-91225714D01*
X133913619Y-91273333D01*
X133818380Y-92130476D02*
X133818380Y-91940000D01*
X133866000Y-91844761D01*
X133913619Y-91797142D01*
X134056476Y-91701904D01*
X134246952Y-91654285D01*
X134627904Y-91654285D01*
X134723142Y-91701904D01*
X134770761Y-91749523D01*
X134818380Y-91844761D01*
X134818380Y-92035238D01*
X134770761Y-92130476D01*
X134723142Y-92178095D01*
X134627904Y-92225714D01*
X134389809Y-92225714D01*
X134294571Y-92178095D01*
X134246952Y-92130476D01*
X134199333Y-92035238D01*
X134199333Y-91844761D01*
X134246952Y-91749523D01*
X134294571Y-91701904D01*
X134389809Y-91654285D01*
%TO.C,C4*%
X144184666Y-106529142D02*
X144232285Y-106576761D01*
X144375142Y-106624380D01*
X144470380Y-106624380D01*
X144613238Y-106576761D01*
X144708476Y-106481523D01*
X144756095Y-106386285D01*
X144803714Y-106195809D01*
X144803714Y-106052952D01*
X144756095Y-105862476D01*
X144708476Y-105767238D01*
X144613238Y-105672000D01*
X144470380Y-105624380D01*
X144375142Y-105624380D01*
X144232285Y-105672000D01*
X144184666Y-105719619D01*
X143327523Y-105957714D02*
X143327523Y-106624380D01*
X143565619Y-105576761D02*
X143803714Y-106291047D01*
X143184666Y-106291047D01*
%TD*%
M02*
