M48
; DRILL file {KiCad (5.1.10)-1} date 10/15/21 07:39:32
; FORMAT={-:-/ absolute / inch / decimal}
; #@! TF.CreationDate,2021-10-15T07:39:32+02:00
; #@! TF.GenerationSoftware,Kicad,Pcbnew,(5.1.10)-1
; #@! TF.FileFunction,Plated,1,2,PTH
FMAT,2
INCH
T1C0.0157
T2C0.0315
T3C0.0335
T4C0.0354
T5C0.0394
T6C0.1260
%
G90
G05
T1
X4.68Y-3.12
X4.68Y-3.47
X4.725Y-3.875
X4.7325Y-4.1479
X4.76Y-4.2787
X4.76Y-4.35
X4.785Y-3.7346
X4.81Y-4.16
X4.8245Y-3.8743
X4.8553Y-3.9557
X4.89Y-4.07
X4.89Y-4.2
X4.8982Y-3.48
X4.9Y-3.34
X4.925Y-4.2216
X4.94Y-3.62
X4.9502Y-3.9698
X4.969Y-3.7
X4.97Y-3.824
X4.98Y-3.55
X4.98Y-4.01
X4.99Y-3.41
X5.0Y-3.76
X5.0109Y-4.1109
X5.02Y-3.93
X5.02Y-4.07
X5.03Y-3.7
X5.03Y-3.83
X5.0683Y-3.9326
X5.08Y-3.83
X5.08Y-4.09
X5.09Y-3.58
X5.15Y-4.01
X5.15Y-4.13
X5.16Y-3.78
X5.18Y-3.91
X5.189Y-4.225
X5.21Y-3.73
X5.25Y-4.0
X5.25Y-4.2
X5.27Y-3.47
X5.28Y-3.43
X5.28Y-3.58
X5.3Y-3.86
X5.3Y-4.01
X5.31Y-3.72
X5.31Y-4.1
X5.33Y-3.12
X5.35Y-3.45
X5.4Y-4.01
X5.4Y-4.12
X5.42Y-3.78
X5.44Y-3.61
X5.475Y-4.1
X5.56Y-4.09
X5.62Y-3.55
X5.625Y-3.825
X5.7Y-3.54
X5.9Y-4.09
T2
X5.125Y-4.4
X5.2037Y-4.4
X5.2825Y-4.4
T3
X4.5463Y-3.2713
X4.5463Y-3.35
X4.55Y-3.57
X4.55Y-3.6487
X4.625Y-3.2713
X4.625Y-3.35
X4.6287Y-3.57
X4.6287Y-3.6487
X4.7037Y-3.2713
X4.7037Y-3.35
X4.7075Y-3.57
X4.7075Y-3.6487
T4
X4.51Y-4.05
X4.51Y-4.23
X4.51Y-4.41
X4.61Y-4.05
X4.61Y-4.23
X4.61Y-4.41
T5
X4.52Y-3.84
X4.62Y-3.84
T6
X4.575Y-4.625
X4.6Y-2.79
X5.86Y-2.79
X5.875Y-4.625
T0
M30
