%TF.GenerationSoftware,KiCad,Pcbnew,5.1.10*%
%TF.CreationDate,2021-10-03T15:02:46+02:00*%
%TF.ProjectId,BTS-LogicBoard,4254532d-4c6f-4676-9963-426f6172642e,rev?*%
%TF.SameCoordinates,Original*%
%TF.FileFunction,Soldermask,Top*%
%TF.FilePolarity,Negative*%
%FSLAX46Y46*%
G04 Gerber Fmt 4.6, Leading zero omitted, Abs format (unit mm)*
G04 Created by KiCad (PCBNEW 5.1.10) date 2021-10-03 15:02:46*
%MOMM*%
%LPD*%
G01*
G04 APERTURE LIST*
%ADD10O,1.700000X1.700000*%
%ADD11R,1.700000X1.700000*%
%ADD12R,0.800000X0.900000*%
%ADD13C,5.600000*%
%ADD14C,3.600000*%
%ADD15R,1.060000X0.650000*%
%ADD16R,0.650000X1.060000*%
%ADD17C,2.000000*%
%ADD18R,0.900000X0.800000*%
%ADD19C,0.100000*%
%ADD20R,1.750000X3.450000*%
%ADD21R,1.000000X2.500000*%
%ADD22C,1.800000*%
%ADD23R,1.800000X1.800000*%
G04 APERTURE END LIST*
D10*
%TO.C,SW2*%
X121158000Y-98298000D03*
X121158000Y-95758000D03*
X118618000Y-98298000D03*
X118618000Y-95758000D03*
X116078000Y-98298000D03*
D11*
X116078000Y-95758000D03*
%TD*%
D10*
%TO.C,SW1*%
X121158000Y-90424000D03*
X121158000Y-87884000D03*
X118618000Y-90424000D03*
X118618000Y-87884000D03*
X116078000Y-90424000D03*
D11*
X116078000Y-87884000D03*
%TD*%
D12*
%TO.C,Q6*%
X134620000Y-111998000D03*
X133670000Y-109998000D03*
X135570000Y-109998000D03*
%TD*%
%TO.C,C8*%
G36*
G01*
X148050000Y-83550000D02*
X148050000Y-81550000D01*
G75*
G02*
X148300000Y-81300000I250000J0D01*
G01*
X151800000Y-81300000D01*
G75*
G02*
X152050000Y-81550000I0J-250000D01*
G01*
X152050000Y-83550000D01*
G75*
G02*
X151800000Y-83800000I-250000J0D01*
G01*
X148300000Y-83800000D01*
G75*
G02*
X148050000Y-83550000I0J250000D01*
G01*
G37*
G36*
G01*
X140050000Y-83550000D02*
X140050000Y-81550000D01*
G75*
G02*
X140300000Y-81300000I250000J0D01*
G01*
X143800000Y-81300000D01*
G75*
G02*
X144050000Y-81550000I0J-250000D01*
G01*
X144050000Y-83550000D01*
G75*
G02*
X143800000Y-83800000I-250000J0D01*
G01*
X140300000Y-83800000D01*
G75*
G02*
X140050000Y-83550000I0J250000D01*
G01*
G37*
%TD*%
D13*
%TO.C,H4*%
X148590000Y-116840000D03*
D14*
X148590000Y-116840000D03*
%TD*%
D13*
%TO.C,H3*%
X118110000Y-116840000D03*
D14*
X118110000Y-116840000D03*
%TD*%
D13*
%TO.C,H2*%
X148844000Y-70866000D03*
D14*
X148844000Y-70866000D03*
%TD*%
D13*
%TO.C,H1*%
X116840000Y-70866000D03*
D14*
X116840000Y-70866000D03*
%TD*%
D15*
%TO.C,U3*%
X132418000Y-93284000D03*
X132418000Y-95184000D03*
X130218000Y-95184000D03*
X130218000Y-94234000D03*
X130218000Y-93284000D03*
%TD*%
%TO.C,U2*%
G36*
G01*
X134850000Y-87145000D02*
X134850000Y-86845000D01*
G75*
G02*
X135000000Y-86695000I150000J0D01*
G01*
X136650000Y-86695000D01*
G75*
G02*
X136800000Y-86845000I0J-150000D01*
G01*
X136800000Y-87145000D01*
G75*
G02*
X136650000Y-87295000I-150000J0D01*
G01*
X135000000Y-87295000D01*
G75*
G02*
X134850000Y-87145000I0J150000D01*
G01*
G37*
G36*
G01*
X134850000Y-88415000D02*
X134850000Y-88115000D01*
G75*
G02*
X135000000Y-87965000I150000J0D01*
G01*
X136650000Y-87965000D01*
G75*
G02*
X136800000Y-88115000I0J-150000D01*
G01*
X136800000Y-88415000D01*
G75*
G02*
X136650000Y-88565000I-150000J0D01*
G01*
X135000000Y-88565000D01*
G75*
G02*
X134850000Y-88415000I0J150000D01*
G01*
G37*
G36*
G01*
X134850000Y-89685000D02*
X134850000Y-89385000D01*
G75*
G02*
X135000000Y-89235000I150000J0D01*
G01*
X136650000Y-89235000D01*
G75*
G02*
X136800000Y-89385000I0J-150000D01*
G01*
X136800000Y-89685000D01*
G75*
G02*
X136650000Y-89835000I-150000J0D01*
G01*
X135000000Y-89835000D01*
G75*
G02*
X134850000Y-89685000I0J150000D01*
G01*
G37*
G36*
G01*
X134850000Y-90955000D02*
X134850000Y-90655000D01*
G75*
G02*
X135000000Y-90505000I150000J0D01*
G01*
X136650000Y-90505000D01*
G75*
G02*
X136800000Y-90655000I0J-150000D01*
G01*
X136800000Y-90955000D01*
G75*
G02*
X136650000Y-91105000I-150000J0D01*
G01*
X135000000Y-91105000D01*
G75*
G02*
X134850000Y-90955000I0J150000D01*
G01*
G37*
G36*
G01*
X129900000Y-90955000D02*
X129900000Y-90655000D01*
G75*
G02*
X130050000Y-90505000I150000J0D01*
G01*
X131700000Y-90505000D01*
G75*
G02*
X131850000Y-90655000I0J-150000D01*
G01*
X131850000Y-90955000D01*
G75*
G02*
X131700000Y-91105000I-150000J0D01*
G01*
X130050000Y-91105000D01*
G75*
G02*
X129900000Y-90955000I0J150000D01*
G01*
G37*
G36*
G01*
X129900000Y-89685000D02*
X129900000Y-89385000D01*
G75*
G02*
X130050000Y-89235000I150000J0D01*
G01*
X131700000Y-89235000D01*
G75*
G02*
X131850000Y-89385000I0J-150000D01*
G01*
X131850000Y-89685000D01*
G75*
G02*
X131700000Y-89835000I-150000J0D01*
G01*
X130050000Y-89835000D01*
G75*
G02*
X129900000Y-89685000I0J150000D01*
G01*
G37*
G36*
G01*
X129900000Y-88415000D02*
X129900000Y-88115000D01*
G75*
G02*
X130050000Y-87965000I150000J0D01*
G01*
X131700000Y-87965000D01*
G75*
G02*
X131850000Y-88115000I0J-150000D01*
G01*
X131850000Y-88415000D01*
G75*
G02*
X131700000Y-88565000I-150000J0D01*
G01*
X130050000Y-88565000D01*
G75*
G02*
X129900000Y-88415000I0J150000D01*
G01*
G37*
G36*
G01*
X129900000Y-87145000D02*
X129900000Y-86845000D01*
G75*
G02*
X130050000Y-86695000I150000J0D01*
G01*
X131700000Y-86695000D01*
G75*
G02*
X131850000Y-86845000I0J-150000D01*
G01*
X131850000Y-87145000D01*
G75*
G02*
X131700000Y-87295000I-150000J0D01*
G01*
X130050000Y-87295000D01*
G75*
G02*
X129900000Y-87145000I0J150000D01*
G01*
G37*
%TD*%
D16*
%TO.C,U1*%
X130368000Y-96944000D03*
X132268000Y-96944000D03*
X132268000Y-99144000D03*
X131318000Y-99144000D03*
X130368000Y-99144000D03*
%TD*%
D17*
%TO.C,TP1*%
X127000000Y-82550000D03*
%TD*%
D10*
%TO.C,RV1*%
X121920000Y-102870000D03*
X119380000Y-102870000D03*
D11*
X116840000Y-102870000D03*
%TD*%
%TO.C,R17*%
G36*
G01*
X133467001Y-80634000D02*
X132216999Y-80634000D01*
G75*
G02*
X131967000Y-80384001I0J249999D01*
G01*
X131967000Y-79583999D01*
G75*
G02*
X132216999Y-79334000I249999J0D01*
G01*
X133467001Y-79334000D01*
G75*
G02*
X133717000Y-79583999I0J-249999D01*
G01*
X133717000Y-80384001D01*
G75*
G02*
X133467001Y-80634000I-249999J0D01*
G01*
G37*
G36*
G01*
X133467001Y-83734000D02*
X132216999Y-83734000D01*
G75*
G02*
X131967000Y-83484001I0J249999D01*
G01*
X131967000Y-82683999D01*
G75*
G02*
X132216999Y-82434000I249999J0D01*
G01*
X133467001Y-82434000D01*
G75*
G02*
X133717000Y-82683999I0J-249999D01*
G01*
X133717000Y-83484001D01*
G75*
G02*
X133467001Y-83734000I-249999J0D01*
G01*
G37*
%TD*%
%TO.C,R12*%
G36*
G01*
X134736000Y-98434999D02*
X134736000Y-99685001D01*
G75*
G02*
X134486001Y-99935000I-249999J0D01*
G01*
X133685999Y-99935000D01*
G75*
G02*
X133436000Y-99685001I0J249999D01*
G01*
X133436000Y-98434999D01*
G75*
G02*
X133685999Y-98185000I249999J0D01*
G01*
X134486001Y-98185000D01*
G75*
G02*
X134736000Y-98434999I0J-249999D01*
G01*
G37*
G36*
G01*
X137836000Y-98434999D02*
X137836000Y-99685001D01*
G75*
G02*
X137586001Y-99935000I-249999J0D01*
G01*
X136785999Y-99935000D01*
G75*
G02*
X136536000Y-99685001I0J249999D01*
G01*
X136536000Y-98434999D01*
G75*
G02*
X136785999Y-98185000I249999J0D01*
G01*
X137586001Y-98185000D01*
G75*
G02*
X137836000Y-98434999I0J-249999D01*
G01*
G37*
%TD*%
%TO.C,R4*%
G36*
G01*
X126050201Y-85764800D02*
X124800199Y-85764800D01*
G75*
G02*
X124550200Y-85514801I0J249999D01*
G01*
X124550200Y-84714799D01*
G75*
G02*
X124800199Y-84464800I249999J0D01*
G01*
X126050201Y-84464800D01*
G75*
G02*
X126300200Y-84714799I0J-249999D01*
G01*
X126300200Y-85514801D01*
G75*
G02*
X126050201Y-85764800I-249999J0D01*
G01*
G37*
G36*
G01*
X126050201Y-88864800D02*
X124800199Y-88864800D01*
G75*
G02*
X124550200Y-88614801I0J249999D01*
G01*
X124550200Y-87814799D01*
G75*
G02*
X124800199Y-87564800I249999J0D01*
G01*
X126050201Y-87564800D01*
G75*
G02*
X126300200Y-87814799I0J-249999D01*
G01*
X126300200Y-88614801D01*
G75*
G02*
X126050201Y-88864800I-249999J0D01*
G01*
G37*
%TD*%
%TO.C,R2*%
G36*
G01*
X124550000Y-107324999D02*
X124550000Y-108575001D01*
G75*
G02*
X124300001Y-108825000I-249999J0D01*
G01*
X123499999Y-108825000D01*
G75*
G02*
X123250000Y-108575001I0J249999D01*
G01*
X123250000Y-107324999D01*
G75*
G02*
X123499999Y-107075000I249999J0D01*
G01*
X124300001Y-107075000D01*
G75*
G02*
X124550000Y-107324999I0J-249999D01*
G01*
G37*
G36*
G01*
X127650000Y-107324999D02*
X127650000Y-108575001D01*
G75*
G02*
X127400001Y-108825000I-249999J0D01*
G01*
X126599999Y-108825000D01*
G75*
G02*
X126350000Y-108575001I0J249999D01*
G01*
X126350000Y-107324999D01*
G75*
G02*
X126599999Y-107075000I249999J0D01*
G01*
X127400001Y-107075000D01*
G75*
G02*
X127650000Y-107324999I0J-249999D01*
G01*
G37*
%TD*%
%TO.C,R1*%
G36*
G01*
X129656000Y-107324999D02*
X129656000Y-108575001D01*
G75*
G02*
X129406001Y-108825000I-249999J0D01*
G01*
X128605999Y-108825000D01*
G75*
G02*
X128356000Y-108575001I0J249999D01*
G01*
X128356000Y-107324999D01*
G75*
G02*
X128605999Y-107075000I249999J0D01*
G01*
X129406001Y-107075000D01*
G75*
G02*
X129656000Y-107324999I0J-249999D01*
G01*
G37*
G36*
G01*
X132756000Y-107324999D02*
X132756000Y-108575001D01*
G75*
G02*
X132506001Y-108825000I-249999J0D01*
G01*
X131705999Y-108825000D01*
G75*
G02*
X131456000Y-108575001I0J249999D01*
G01*
X131456000Y-107324999D01*
G75*
G02*
X131705999Y-107075000I249999J0D01*
G01*
X132506001Y-107075000D01*
G75*
G02*
X132756000Y-107324999I0J-249999D01*
G01*
G37*
%TD*%
D18*
%TO.C,Q4*%
X134128000Y-94234000D03*
X136128000Y-93284000D03*
X136128000Y-95184000D03*
%TD*%
D12*
%TO.C,Q2*%
X130048000Y-112252000D03*
X129098000Y-110252000D03*
X130998000Y-110252000D03*
%TD*%
D19*
%TO.C,JP1*%
G36*
X136410602Y-80630000D02*
G01*
X136410602Y-80605466D01*
X136415412Y-80556635D01*
X136424984Y-80508510D01*
X136439228Y-80461555D01*
X136458005Y-80416222D01*
X136481136Y-80372949D01*
X136508396Y-80332150D01*
X136539524Y-80294221D01*
X136574221Y-80259524D01*
X136612150Y-80228396D01*
X136652949Y-80201136D01*
X136696222Y-80178005D01*
X136741555Y-80159228D01*
X136788510Y-80144984D01*
X136836635Y-80135412D01*
X136885466Y-80130602D01*
X136910000Y-80130602D01*
X136910000Y-80130000D01*
X137410000Y-80130000D01*
X137410000Y-80130602D01*
X137434534Y-80130602D01*
X137483365Y-80135412D01*
X137531490Y-80144984D01*
X137578445Y-80159228D01*
X137623778Y-80178005D01*
X137667051Y-80201136D01*
X137707850Y-80228396D01*
X137745779Y-80259524D01*
X137780476Y-80294221D01*
X137811604Y-80332150D01*
X137838864Y-80372949D01*
X137861995Y-80416222D01*
X137880772Y-80461555D01*
X137895016Y-80508510D01*
X137904588Y-80556635D01*
X137909398Y-80605466D01*
X137909398Y-80630000D01*
X137910000Y-80630000D01*
X137910000Y-81130000D01*
X136410000Y-81130000D01*
X136410000Y-80630000D01*
X136410602Y-80630000D01*
G37*
G36*
X137910000Y-81430000D02*
G01*
X137910000Y-81930000D01*
X137909398Y-81930000D01*
X137909398Y-81954534D01*
X137904588Y-82003365D01*
X137895016Y-82051490D01*
X137880772Y-82098445D01*
X137861995Y-82143778D01*
X137838864Y-82187051D01*
X137811604Y-82227850D01*
X137780476Y-82265779D01*
X137745779Y-82300476D01*
X137707850Y-82331604D01*
X137667051Y-82358864D01*
X137623778Y-82381995D01*
X137578445Y-82400772D01*
X137531490Y-82415016D01*
X137483365Y-82424588D01*
X137434534Y-82429398D01*
X137410000Y-82429398D01*
X137410000Y-82430000D01*
X136910000Y-82430000D01*
X136910000Y-82429398D01*
X136885466Y-82429398D01*
X136836635Y-82424588D01*
X136788510Y-82415016D01*
X136741555Y-82400772D01*
X136696222Y-82381995D01*
X136652949Y-82358864D01*
X136612150Y-82331604D01*
X136574221Y-82300476D01*
X136539524Y-82265779D01*
X136508396Y-82227850D01*
X136481136Y-82187051D01*
X136458005Y-82143778D01*
X136439228Y-82098445D01*
X136424984Y-82051490D01*
X136415412Y-82003365D01*
X136410602Y-81954534D01*
X136410602Y-81930000D01*
X136410000Y-81930000D01*
X136410000Y-81430000D01*
X137910000Y-81430000D01*
G37*
%TD*%
D10*
%TO.C,J3*%
X117856000Y-107950000D03*
D11*
X120396000Y-107950000D03*
%TD*%
D10*
%TO.C,J2*%
X126365000Y-114935000D03*
X128905000Y-114935000D03*
X131445000Y-114935000D03*
D11*
X133985000Y-114935000D03*
%TD*%
D20*
%TO.C,J1*%
X124390000Y-73390000D03*
X139390000Y-73390000D03*
D21*
X136890000Y-77390000D03*
X134890000Y-77390000D03*
X132890000Y-77390000D03*
X130890000Y-77390000D03*
X128890000Y-77390000D03*
X126890000Y-77390000D03*
%TD*%
%TO.C,D4*%
G36*
G01*
X127013000Y-104765000D02*
X127013000Y-103515000D01*
G75*
G02*
X127263000Y-103265000I250000J0D01*
G01*
X128188000Y-103265000D01*
G75*
G02*
X128438000Y-103515000I0J-250000D01*
G01*
X128438000Y-104765000D01*
G75*
G02*
X128188000Y-105015000I-250000J0D01*
G01*
X127263000Y-105015000D01*
G75*
G02*
X127013000Y-104765000I0J250000D01*
G01*
G37*
G36*
G01*
X124038000Y-104765000D02*
X124038000Y-103515000D01*
G75*
G02*
X124288000Y-103265000I250000J0D01*
G01*
X125213000Y-103265000D01*
G75*
G02*
X125463000Y-103515000I0J-250000D01*
G01*
X125463000Y-104765000D01*
G75*
G02*
X125213000Y-105015000I-250000J0D01*
G01*
X124288000Y-105015000D01*
G75*
G02*
X124038000Y-104765000I0J250000D01*
G01*
G37*
%TD*%
D22*
%TO.C,D2*%
X116840000Y-81280000D03*
D23*
X116840000Y-83820000D03*
%TD*%
D22*
%TO.C,D1*%
X121920000Y-81280000D03*
D23*
X121920000Y-83820000D03*
%TD*%
%TO.C,C5*%
G36*
G01*
X148050000Y-94980000D02*
X148050000Y-92980000D01*
G75*
G02*
X148300000Y-92730000I250000J0D01*
G01*
X151800000Y-92730000D01*
G75*
G02*
X152050000Y-92980000I0J-250000D01*
G01*
X152050000Y-94980000D01*
G75*
G02*
X151800000Y-95230000I-250000J0D01*
G01*
X148300000Y-95230000D01*
G75*
G02*
X148050000Y-94980000I0J250000D01*
G01*
G37*
G36*
G01*
X140050000Y-94980000D02*
X140050000Y-92980000D01*
G75*
G02*
X140300000Y-92730000I250000J0D01*
G01*
X143800000Y-92730000D01*
G75*
G02*
X144050000Y-92980000I0J-250000D01*
G01*
X144050000Y-94980000D01*
G75*
G02*
X143800000Y-95230000I-250000J0D01*
G01*
X140300000Y-95230000D01*
G75*
G02*
X140050000Y-94980000I0J250000D01*
G01*
G37*
%TD*%
%TO.C,C3*%
G36*
G01*
X126376000Y-110886003D02*
X126376000Y-109585997D01*
G75*
G02*
X126625997Y-109336000I249997J0D01*
G01*
X127451003Y-109336000D01*
G75*
G02*
X127701000Y-109585997I0J-249997D01*
G01*
X127701000Y-110886003D01*
G75*
G02*
X127451003Y-111136000I-249997J0D01*
G01*
X126625997Y-111136000D01*
G75*
G02*
X126376000Y-110886003I0J249997D01*
G01*
G37*
G36*
G01*
X123251000Y-110886003D02*
X123251000Y-109585997D01*
G75*
G02*
X123500997Y-109336000I249997J0D01*
G01*
X124326003Y-109336000D01*
G75*
G02*
X124576000Y-109585997I0J-249997D01*
G01*
X124576000Y-110886003D01*
G75*
G02*
X124326003Y-111136000I-249997J0D01*
G01*
X123500997Y-111136000D01*
G75*
G02*
X123251000Y-110886003I0J249997D01*
G01*
G37*
%TD*%
%TO.C,C2*%
G36*
G01*
X148050000Y-106410000D02*
X148050000Y-104410000D01*
G75*
G02*
X148300000Y-104160000I250000J0D01*
G01*
X151800000Y-104160000D01*
G75*
G02*
X152050000Y-104410000I0J-250000D01*
G01*
X152050000Y-106410000D01*
G75*
G02*
X151800000Y-106660000I-250000J0D01*
G01*
X148300000Y-106660000D01*
G75*
G02*
X148050000Y-106410000I0J250000D01*
G01*
G37*
G36*
G01*
X140050000Y-106410000D02*
X140050000Y-104410000D01*
G75*
G02*
X140300000Y-104160000I250000J0D01*
G01*
X143800000Y-104160000D01*
G75*
G02*
X144050000Y-104410000I0J-250000D01*
G01*
X144050000Y-106410000D01*
G75*
G02*
X143800000Y-106660000I-250000J0D01*
G01*
X140300000Y-106660000D01*
G75*
G02*
X140050000Y-106410000I0J250000D01*
G01*
G37*
%TD*%
%TO.C,C1*%
G36*
G01*
X138927603Y-84596400D02*
X137627597Y-84596400D01*
G75*
G02*
X137377600Y-84346403I0J249997D01*
G01*
X137377600Y-83521397D01*
G75*
G02*
X137627597Y-83271400I249997J0D01*
G01*
X138927603Y-83271400D01*
G75*
G02*
X139177600Y-83521397I0J-249997D01*
G01*
X139177600Y-84346403D01*
G75*
G02*
X138927603Y-84596400I-249997J0D01*
G01*
G37*
G36*
G01*
X138927603Y-87721400D02*
X137627597Y-87721400D01*
G75*
G02*
X137377600Y-87471403I0J249997D01*
G01*
X137377600Y-86646397D01*
G75*
G02*
X137627597Y-86396400I249997J0D01*
G01*
X138927603Y-86396400D01*
G75*
G02*
X139177600Y-86646397I0J-249997D01*
G01*
X139177600Y-87471403D01*
G75*
G02*
X138927603Y-87721400I-249997J0D01*
G01*
G37*
%TD*%
M02*
