%TF.GenerationSoftware,KiCad,Pcbnew,5.1.10*%
%TF.CreationDate,2021-10-10T20:51:37+02:00*%
%TF.ProjectId,BTS-LogicBoard,4254532d-4c6f-4676-9963-426f6172642e,rev?*%
%TF.SameCoordinates,Original*%
%TF.FileFunction,Copper,L2,Bot*%
%TF.FilePolarity,Positive*%
%FSLAX46Y46*%
G04 Gerber Fmt 4.6, Leading zero omitted, Abs format (unit mm)*
G04 Created by KiCad (PCBNEW 5.1.10) date 2021-10-10 20:51:37*
%MOMM*%
%LPD*%
G01*
G04 APERTURE LIST*
%TA.AperFunction,ComponentPad*%
%ADD10C,1.150000*%
%TD*%
%TA.AperFunction,ComponentPad*%
%ADD11R,1.150000X1.150000*%
%TD*%
%TA.AperFunction,SMDPad,CuDef*%
%ADD12R,0.650000X0.400000*%
%TD*%
%TA.AperFunction,ComponentPad*%
%ADD13O,1.200000X1.650000*%
%TD*%
%TA.AperFunction,ConnectorPad*%
%ADD14C,5.600000*%
%TD*%
%TA.AperFunction,ComponentPad*%
%ADD15C,3.600000*%
%TD*%
%TA.AperFunction,SMDPad,CuDef*%
%ADD16R,1.500000X2.000000*%
%TD*%
%TA.AperFunction,SMDPad,CuDef*%
%ADD17R,3.800000X2.000000*%
%TD*%
%TA.AperFunction,SMDPad,CuDef*%
%ADD18R,0.900000X0.800000*%
%TD*%
%TA.AperFunction,ComponentPad*%
%ADD19C,1.800000*%
%TD*%
%TA.AperFunction,ComponentPad*%
%ADD20R,1.800000X1.800000*%
%TD*%
%TA.AperFunction,ComponentPad*%
%ADD21O,1.700000X1.700000*%
%TD*%
%TA.AperFunction,ComponentPad*%
%ADD22R,1.700000X1.700000*%
%TD*%
%TA.AperFunction,ViaPad*%
%ADD23C,0.800000*%
%TD*%
%TA.AperFunction,Conductor*%
%ADD24C,0.250000*%
%TD*%
%TA.AperFunction,Conductor*%
%ADD25C,0.254000*%
%TD*%
%TA.AperFunction,Conductor*%
%ADD26C,0.100000*%
%TD*%
G04 APERTURE END LIST*
D10*
%TO.P,J2,3*%
%TO.N,GND*%
X134175000Y-111760000D03*
%TO.P,J2,2*%
%TO.N,/PSU_ON*%
X132175001Y-111760000D03*
D11*
%TO.P,J2,1*%
%TO.N,+5V*%
X130175000Y-111760000D03*
%TD*%
D12*
%TO.P,U3,5*%
%TO.N,VCC*%
X145100000Y-102474000D03*
%TO.P,U3,4*%
%TO.N,Net-(D1-Pad2)*%
X145100000Y-103774000D03*
%TO.P,U3,2*%
%TO.N,/EnabledOpto*%
X147000000Y-103124000D03*
%TO.P,U3,3*%
%TO.N,GND*%
X147000000Y-103774000D03*
%TO.P,U3,1*%
%TO.N,N/C*%
X147000000Y-102474000D03*
%TD*%
D13*
%TO.P,J4,6*%
%TO.N,GND*%
X119475000Y-85090000D03*
%TO.P,J4,4*%
%TO.N,/IN-*%
X117475000Y-85090000D03*
%TO.P,J4,2*%
%TO.N,/COMP_PWM*%
X115475000Y-85090000D03*
%TO.P,J4,5*%
%TO.N,GND*%
X119475000Y-83090000D03*
%TO.P,J4,3*%
%TO.N,/IN+*%
X117475000Y-83090000D03*
%TO.P,J4,1*%
%TO.N,/COMP_PWM*%
%TA.AperFunction,ComponentPad*%
G36*
G01*
X114875000Y-83665001D02*
X114875000Y-82514999D01*
G75*
G02*
X115124999Y-82265000I249999J0D01*
G01*
X115825001Y-82265000D01*
G75*
G02*
X116075000Y-82514999I0J-249999D01*
G01*
X116075000Y-83665001D01*
G75*
G02*
X115825001Y-83915000I-249999J0D01*
G01*
X115124999Y-83915000D01*
G75*
G02*
X114875000Y-83665001I0J249999D01*
G01*
G37*
%TD.AperFunction*%
%TD*%
%TO.P,J1,6*%
%TO.N,GND*%
X119570000Y-92678000D03*
%TO.P,J1,4*%
X117570000Y-92678000D03*
%TO.P,J1,2*%
%TO.N,/PSU_ON*%
X115570000Y-92678000D03*
%TO.P,J1,5*%
%TO.N,/-Potentiometer*%
X119570000Y-90678000D03*
%TO.P,J1,3*%
%TO.N,/PWM_DCycle_Ref*%
X117570000Y-90678000D03*
%TO.P,J1,1*%
%TO.N,/+Potentiometer*%
%TA.AperFunction,ComponentPad*%
G36*
G01*
X114970000Y-91253001D02*
X114970000Y-90102999D01*
G75*
G02*
X115219999Y-89853000I249999J0D01*
G01*
X115920001Y-89853000D01*
G75*
G02*
X116170000Y-90102999I0J-249999D01*
G01*
X116170000Y-91253001D01*
G75*
G02*
X115920001Y-91503000I-249999J0D01*
G01*
X115219999Y-91503000D01*
G75*
G02*
X114970000Y-91253001I0J249999D01*
G01*
G37*
%TD.AperFunction*%
%TD*%
D14*
%TO.P,H4,1*%
%TO.N,GND*%
X149225000Y-117475000D03*
D15*
X149225000Y-117475000D03*
%TD*%
D16*
%TO.P,U8,1*%
%TO.N,GND*%
X147080000Y-90018000D03*
%TO.P,U8,3*%
%TO.N,+5V*%
X142480000Y-90018000D03*
%TO.P,U8,2*%
%TO.N,VCC*%
X144780000Y-90018000D03*
D17*
X144780000Y-83718000D03*
%TD*%
D12*
%TO.P,U5,5*%
%TO.N,VCC*%
X129225000Y-89520000D03*
%TO.P,U5,4*%
%TO.N,/NE555_RST*%
X129225000Y-90820000D03*
%TO.P,U5,2*%
%TO.N,/EnabledOpto*%
X131125000Y-90170000D03*
%TO.P,U5,3*%
%TO.N,GND*%
X131125000Y-90820000D03*
%TO.P,U5,1*%
%TO.N,N/C*%
X131125000Y-89520000D03*
%TD*%
%TO.P,R16,2*%
%TO.N,GND*%
%TA.AperFunction,SMDPad,CuDef*%
G36*
G01*
X123836000Y-91303000D02*
X123836000Y-90053000D01*
G75*
G02*
X124086000Y-89803000I250000J0D01*
G01*
X124886000Y-89803000D01*
G75*
G02*
X125136000Y-90053000I0J-250000D01*
G01*
X125136000Y-91303000D01*
G75*
G02*
X124886000Y-91553000I-250000J0D01*
G01*
X124086000Y-91553000D01*
G75*
G02*
X123836000Y-91303000I0J250000D01*
G01*
G37*
%TD.AperFunction*%
%TO.P,R16,1*%
%TO.N,/-Potentiometer*%
%TA.AperFunction,SMDPad,CuDef*%
G36*
G01*
X120736000Y-91303000D02*
X120736000Y-90053000D01*
G75*
G02*
X120986000Y-89803000I250000J0D01*
G01*
X121786000Y-89803000D01*
G75*
G02*
X122036000Y-90053000I0J-250000D01*
G01*
X122036000Y-91303000D01*
G75*
G02*
X121786000Y-91553000I-250000J0D01*
G01*
X120986000Y-91553000D01*
G75*
G02*
X120736000Y-91303000I0J250000D01*
G01*
G37*
%TD.AperFunction*%
%TD*%
%TO.P,R15,2*%
%TO.N,Net-(D4-Pad2)*%
%TA.AperFunction,SMDPad,CuDef*%
G36*
G01*
X119750000Y-102753000D02*
X119750000Y-104003000D01*
G75*
G02*
X119500000Y-104253000I-250000J0D01*
G01*
X118700000Y-104253000D01*
G75*
G02*
X118450000Y-104003000I0J250000D01*
G01*
X118450000Y-102753000D01*
G75*
G02*
X118700000Y-102503000I250000J0D01*
G01*
X119500000Y-102503000D01*
G75*
G02*
X119750000Y-102753000I0J-250000D01*
G01*
G37*
%TD.AperFunction*%
%TO.P,R15,1*%
%TO.N,VCC*%
%TA.AperFunction,SMDPad,CuDef*%
G36*
G01*
X122850000Y-102753000D02*
X122850000Y-104003000D01*
G75*
G02*
X122600000Y-104253000I-250000J0D01*
G01*
X121800000Y-104253000D01*
G75*
G02*
X121550000Y-104003000I0J250000D01*
G01*
X121550000Y-102753000D01*
G75*
G02*
X121800000Y-102503000I250000J0D01*
G01*
X122600000Y-102503000D01*
G75*
G02*
X122850000Y-102753000I0J-250000D01*
G01*
G37*
%TD.AperFunction*%
%TD*%
%TO.P,R9,2*%
%TO.N,Net-(D3-Pad2)*%
%TA.AperFunction,SMDPad,CuDef*%
G36*
G01*
X119750000Y-110881000D02*
X119750000Y-112131000D01*
G75*
G02*
X119500000Y-112381000I-250000J0D01*
G01*
X118700000Y-112381000D01*
G75*
G02*
X118450000Y-112131000I0J250000D01*
G01*
X118450000Y-110881000D01*
G75*
G02*
X118700000Y-110631000I250000J0D01*
G01*
X119500000Y-110631000D01*
G75*
G02*
X119750000Y-110881000I0J-250000D01*
G01*
G37*
%TD.AperFunction*%
%TO.P,R9,1*%
%TO.N,VCC*%
%TA.AperFunction,SMDPad,CuDef*%
G36*
G01*
X122850000Y-110881000D02*
X122850000Y-112131000D01*
G75*
G02*
X122600000Y-112381000I-250000J0D01*
G01*
X121800000Y-112381000D01*
G75*
G02*
X121550000Y-112131000I0J250000D01*
G01*
X121550000Y-110881000D01*
G75*
G02*
X121800000Y-110631000I250000J0D01*
G01*
X122600000Y-110631000D01*
G75*
G02*
X122850000Y-110881000I0J-250000D01*
G01*
G37*
%TD.AperFunction*%
%TD*%
%TO.P,R8,2*%
%TO.N,/+Potentiometer*%
%TA.AperFunction,SMDPad,CuDef*%
G36*
G01*
X116194000Y-87767000D02*
X116194000Y-89017000D01*
G75*
G02*
X115944000Y-89267000I-250000J0D01*
G01*
X115144000Y-89267000D01*
G75*
G02*
X114894000Y-89017000I0J250000D01*
G01*
X114894000Y-87767000D01*
G75*
G02*
X115144000Y-87517000I250000J0D01*
G01*
X115944000Y-87517000D01*
G75*
G02*
X116194000Y-87767000I0J-250000D01*
G01*
G37*
%TD.AperFunction*%
%TO.P,R8,1*%
%TO.N,VCC*%
%TA.AperFunction,SMDPad,CuDef*%
G36*
G01*
X119294000Y-87767000D02*
X119294000Y-89017000D01*
G75*
G02*
X119044000Y-89267000I-250000J0D01*
G01*
X118244000Y-89267000D01*
G75*
G02*
X117994000Y-89017000I0J250000D01*
G01*
X117994000Y-87767000D01*
G75*
G02*
X118244000Y-87517000I250000J0D01*
G01*
X119044000Y-87517000D01*
G75*
G02*
X119294000Y-87767000I0J-250000D01*
G01*
G37*
%TD.AperFunction*%
%TD*%
%TO.P,R7,2*%
%TO.N,/Threshold*%
%TA.AperFunction,SMDPad,CuDef*%
G36*
G01*
X139309000Y-86984000D02*
X138059000Y-86984000D01*
G75*
G02*
X137809000Y-86734000I0J250000D01*
G01*
X137809000Y-85934000D01*
G75*
G02*
X138059000Y-85684000I250000J0D01*
G01*
X139309000Y-85684000D01*
G75*
G02*
X139559000Y-85934000I0J-250000D01*
G01*
X139559000Y-86734000D01*
G75*
G02*
X139309000Y-86984000I-250000J0D01*
G01*
G37*
%TD.AperFunction*%
%TO.P,R7,1*%
%TO.N,/Sawtooth*%
%TA.AperFunction,SMDPad,CuDef*%
G36*
G01*
X139309000Y-90084000D02*
X138059000Y-90084000D01*
G75*
G02*
X137809000Y-89834000I0J250000D01*
G01*
X137809000Y-89034000D01*
G75*
G02*
X138059000Y-88784000I250000J0D01*
G01*
X139309000Y-88784000D01*
G75*
G02*
X139559000Y-89034000I0J-250000D01*
G01*
X139559000Y-89834000D01*
G75*
G02*
X139309000Y-90084000I-250000J0D01*
G01*
G37*
%TD.AperFunction*%
%TD*%
%TO.P,R6,2*%
%TO.N,/Threshold*%
%TA.AperFunction,SMDPad,CuDef*%
G36*
G01*
X137023000Y-86984000D02*
X135773000Y-86984000D01*
G75*
G02*
X135523000Y-86734000I0J250000D01*
G01*
X135523000Y-85934000D01*
G75*
G02*
X135773000Y-85684000I250000J0D01*
G01*
X137023000Y-85684000D01*
G75*
G02*
X137273000Y-85934000I0J-250000D01*
G01*
X137273000Y-86734000D01*
G75*
G02*
X137023000Y-86984000I-250000J0D01*
G01*
G37*
%TD.AperFunction*%
%TO.P,R6,1*%
%TO.N,Net-(R12-Pad2)*%
%TA.AperFunction,SMDPad,CuDef*%
G36*
G01*
X137023000Y-90084000D02*
X135773000Y-90084000D01*
G75*
G02*
X135523000Y-89834000I0J250000D01*
G01*
X135523000Y-89034000D01*
G75*
G02*
X135773000Y-88784000I250000J0D01*
G01*
X137023000Y-88784000D01*
G75*
G02*
X137273000Y-89034000I0J-250000D01*
G01*
X137273000Y-89834000D01*
G75*
G02*
X137023000Y-90084000I-250000J0D01*
G01*
G37*
%TD.AperFunction*%
%TD*%
%TO.P,R3,2*%
%TO.N,Net-(C8-Pad1)*%
%TA.AperFunction,SMDPad,CuDef*%
G36*
G01*
X142356000Y-107579000D02*
X142356000Y-108829000D01*
G75*
G02*
X142106000Y-109079000I-250000J0D01*
G01*
X141306000Y-109079000D01*
G75*
G02*
X141056000Y-108829000I0J250000D01*
G01*
X141056000Y-107579000D01*
G75*
G02*
X141306000Y-107329000I250000J0D01*
G01*
X142106000Y-107329000D01*
G75*
G02*
X142356000Y-107579000I0J-250000D01*
G01*
G37*
%TD.AperFunction*%
%TO.P,R3,1*%
%TO.N,GND*%
%TA.AperFunction,SMDPad,CuDef*%
G36*
G01*
X145456000Y-107579000D02*
X145456000Y-108829000D01*
G75*
G02*
X145206000Y-109079000I-250000J0D01*
G01*
X144406000Y-109079000D01*
G75*
G02*
X144156000Y-108829000I0J250000D01*
G01*
X144156000Y-107579000D01*
G75*
G02*
X144406000Y-107329000I250000J0D01*
G01*
X145206000Y-107329000D01*
G75*
G02*
X145456000Y-107579000I0J-250000D01*
G01*
G37*
%TD.AperFunction*%
%TD*%
%TO.P,R2,2*%
%TO.N,/EnabledOpto*%
%TA.AperFunction,SMDPad,CuDef*%
G36*
G01*
X132725000Y-102500000D02*
X133975000Y-102500000D01*
G75*
G02*
X134225000Y-102750000I0J-250000D01*
G01*
X134225000Y-103550000D01*
G75*
G02*
X133975000Y-103800000I-250000J0D01*
G01*
X132725000Y-103800000D01*
G75*
G02*
X132475000Y-103550000I0J250000D01*
G01*
X132475000Y-102750000D01*
G75*
G02*
X132725000Y-102500000I250000J0D01*
G01*
G37*
%TD.AperFunction*%
%TO.P,R2,1*%
%TO.N,VCC*%
%TA.AperFunction,SMDPad,CuDef*%
G36*
G01*
X132725000Y-99400000D02*
X133975000Y-99400000D01*
G75*
G02*
X134225000Y-99650000I0J-250000D01*
G01*
X134225000Y-100450000D01*
G75*
G02*
X133975000Y-100700000I-250000J0D01*
G01*
X132725000Y-100700000D01*
G75*
G02*
X132475000Y-100450000I0J250000D01*
G01*
X132475000Y-99650000D01*
G75*
G02*
X132725000Y-99400000I250000J0D01*
G01*
G37*
%TD.AperFunction*%
%TD*%
%TO.P,R1,2*%
%TO.N,Net-(D1-Pad1)*%
%TA.AperFunction,SMDPad,CuDef*%
G36*
G01*
X119750000Y-106817000D02*
X119750000Y-108067000D01*
G75*
G02*
X119500000Y-108317000I-250000J0D01*
G01*
X118700000Y-108317000D01*
G75*
G02*
X118450000Y-108067000I0J250000D01*
G01*
X118450000Y-106817000D01*
G75*
G02*
X118700000Y-106567000I250000J0D01*
G01*
X119500000Y-106567000D01*
G75*
G02*
X119750000Y-106817000I0J-250000D01*
G01*
G37*
%TD.AperFunction*%
%TO.P,R1,1*%
%TO.N,GND*%
%TA.AperFunction,SMDPad,CuDef*%
G36*
G01*
X122850000Y-106817000D02*
X122850000Y-108067000D01*
G75*
G02*
X122600000Y-108317000I-250000J0D01*
G01*
X121800000Y-108317000D01*
G75*
G02*
X121550000Y-108067000I0J250000D01*
G01*
X121550000Y-106817000D01*
G75*
G02*
X121800000Y-106567000I250000J0D01*
G01*
X122600000Y-106567000D01*
G75*
G02*
X122850000Y-106817000I0J-250000D01*
G01*
G37*
%TD.AperFunction*%
%TD*%
D18*
%TO.P,Q1,3*%
%TO.N,Net-(D4-Pad1)*%
X135652000Y-97028000D03*
%TO.P,Q1,2*%
%TO.N,GND*%
X137652000Y-97978000D03*
%TO.P,Q1,1*%
%TO.N,Net-(Q1-Pad1)*%
X137652000Y-96078000D03*
%TD*%
D19*
%TO.P,D4,2*%
%TO.N,Net-(D4-Pad2)*%
X117094000Y-102870000D03*
D20*
%TO.P,D4,1*%
%TO.N,Net-(D4-Pad1)*%
X114554000Y-102870000D03*
%TD*%
D19*
%TO.P,D3,2*%
%TO.N,Net-(D3-Pad2)*%
X117094000Y-112014000D03*
D20*
%TO.P,D3,1*%
%TO.N,GND*%
X114554000Y-112014000D03*
%TD*%
%TO.P,D2,2*%
%TO.N,Net-(D1-Pad2)*%
%TA.AperFunction,SMDPad,CuDef*%
G36*
G01*
X144031000Y-106543000D02*
X144031000Y-105293000D01*
G75*
G02*
X144281000Y-105043000I250000J0D01*
G01*
X145206000Y-105043000D01*
G75*
G02*
X145456000Y-105293000I0J-250000D01*
G01*
X145456000Y-106543000D01*
G75*
G02*
X145206000Y-106793000I-250000J0D01*
G01*
X144281000Y-106793000D01*
G75*
G02*
X144031000Y-106543000I0J250000D01*
G01*
G37*
%TD.AperFunction*%
%TO.P,D2,1*%
%TO.N,Net-(C8-Pad1)*%
%TA.AperFunction,SMDPad,CuDef*%
G36*
G01*
X141056000Y-106543000D02*
X141056000Y-105293000D01*
G75*
G02*
X141306000Y-105043000I250000J0D01*
G01*
X142231000Y-105043000D01*
G75*
G02*
X142481000Y-105293000I0J-250000D01*
G01*
X142481000Y-106543000D01*
G75*
G02*
X142231000Y-106793000I-250000J0D01*
G01*
X141306000Y-106793000D01*
G75*
G02*
X141056000Y-106543000I0J250000D01*
G01*
G37*
%TD.AperFunction*%
%TD*%
%TO.P,C13,2*%
%TO.N,GND*%
%TA.AperFunction,SMDPad,CuDef*%
G36*
G01*
X123836000Y-89042001D02*
X123836000Y-87741999D01*
G75*
G02*
X124085999Y-87492000I249999J0D01*
G01*
X124911001Y-87492000D01*
G75*
G02*
X125161000Y-87741999I0J-249999D01*
G01*
X125161000Y-89042001D01*
G75*
G02*
X124911001Y-89292000I-249999J0D01*
G01*
X124085999Y-89292000D01*
G75*
G02*
X123836000Y-89042001I0J249999D01*
G01*
G37*
%TD.AperFunction*%
%TO.P,C13,1*%
%TO.N,/PWM_DCycle_Ref*%
%TA.AperFunction,SMDPad,CuDef*%
G36*
G01*
X120711000Y-89042001D02*
X120711000Y-87741999D01*
G75*
G02*
X120960999Y-87492000I249999J0D01*
G01*
X121786001Y-87492000D01*
G75*
G02*
X122036000Y-87741999I0J-249999D01*
G01*
X122036000Y-89042001D01*
G75*
G02*
X121786001Y-89292000I-249999J0D01*
G01*
X120960999Y-89292000D01*
G75*
G02*
X120711000Y-89042001I0J249999D01*
G01*
G37*
%TD.AperFunction*%
%TD*%
%TO.P,C12,2*%
%TO.N,GND*%
%TA.AperFunction,SMDPad,CuDef*%
G36*
G01*
X126735000Y-96504999D02*
X126735000Y-97805001D01*
G75*
G02*
X126485001Y-98055000I-249999J0D01*
G01*
X125659999Y-98055000D01*
G75*
G02*
X125410000Y-97805001I0J249999D01*
G01*
X125410000Y-96504999D01*
G75*
G02*
X125659999Y-96255000I249999J0D01*
G01*
X126485001Y-96255000D01*
G75*
G02*
X126735000Y-96504999I0J-249999D01*
G01*
G37*
%TD.AperFunction*%
%TO.P,C12,1*%
%TO.N,/2.5V*%
%TA.AperFunction,SMDPad,CuDef*%
G36*
G01*
X129860000Y-96504999D02*
X129860000Y-97805001D01*
G75*
G02*
X129610001Y-98055000I-249999J0D01*
G01*
X128784999Y-98055000D01*
G75*
G02*
X128535000Y-97805001I0J249999D01*
G01*
X128535000Y-96504999D01*
G75*
G02*
X128784999Y-96255000I249999J0D01*
G01*
X129610001Y-96255000D01*
G75*
G02*
X129860000Y-96504999I0J-249999D01*
G01*
G37*
%TD.AperFunction*%
%TD*%
%TO.P,C10,2*%
%TO.N,GND*%
%TA.AperFunction,SMDPad,CuDef*%
G36*
G01*
X126735000Y-99044999D02*
X126735000Y-100345001D01*
G75*
G02*
X126485001Y-100595000I-249999J0D01*
G01*
X125659999Y-100595000D01*
G75*
G02*
X125410000Y-100345001I0J249999D01*
G01*
X125410000Y-99044999D01*
G75*
G02*
X125659999Y-98795000I249999J0D01*
G01*
X126485001Y-98795000D01*
G75*
G02*
X126735000Y-99044999I0J-249999D01*
G01*
G37*
%TD.AperFunction*%
%TO.P,C10,1*%
%TO.N,VCC*%
%TA.AperFunction,SMDPad,CuDef*%
G36*
G01*
X129860000Y-99044999D02*
X129860000Y-100345001D01*
G75*
G02*
X129610001Y-100595000I-249999J0D01*
G01*
X128784999Y-100595000D01*
G75*
G02*
X128535000Y-100345001I0J249999D01*
G01*
X128535000Y-99044999D01*
G75*
G02*
X128784999Y-98795000I249999J0D01*
G01*
X129610001Y-98795000D01*
G75*
G02*
X129860000Y-99044999I0J-249999D01*
G01*
G37*
%TD.AperFunction*%
%TD*%
%TO.P,U4,4*%
%TO.N,/EnabledOpto*%
%TA.AperFunction,SMDPad,CuDef*%
G36*
G01*
X129958000Y-103388500D02*
X129958000Y-103113500D01*
G75*
G02*
X130095500Y-102976000I137500J0D01*
G01*
X131420500Y-102976000D01*
G75*
G02*
X131558000Y-103113500I0J-137500D01*
G01*
X131558000Y-103388500D01*
G75*
G02*
X131420500Y-103526000I-137500J0D01*
G01*
X130095500Y-103526000D01*
G75*
G02*
X129958000Y-103388500I0J137500D01*
G01*
G37*
%TD.AperFunction*%
%TO.P,U4,3*%
%TO.N,GND*%
%TA.AperFunction,SMDPad,CuDef*%
G36*
G01*
X129958000Y-102118500D02*
X129958000Y-101843500D01*
G75*
G02*
X130095500Y-101706000I137500J0D01*
G01*
X131420500Y-101706000D01*
G75*
G02*
X131558000Y-101843500I0J-137500D01*
G01*
X131558000Y-102118500D01*
G75*
G02*
X131420500Y-102256000I-137500J0D01*
G01*
X130095500Y-102256000D01*
G75*
G02*
X129958000Y-102118500I0J137500D01*
G01*
G37*
%TD.AperFunction*%
%TO.P,U4,2*%
%TO.N,GND1*%
%TA.AperFunction,SMDPad,CuDef*%
G36*
G01*
X123458000Y-102118500D02*
X123458000Y-101843500D01*
G75*
G02*
X123595500Y-101706000I137500J0D01*
G01*
X124920500Y-101706000D01*
G75*
G02*
X125058000Y-101843500I0J-137500D01*
G01*
X125058000Y-102118500D01*
G75*
G02*
X124920500Y-102256000I-137500J0D01*
G01*
X123595500Y-102256000D01*
G75*
G02*
X123458000Y-102118500I0J137500D01*
G01*
G37*
%TD.AperFunction*%
%TO.P,U4,1*%
%TO.N,Net-(R20-Pad1)*%
%TA.AperFunction,SMDPad,CuDef*%
G36*
G01*
X123458000Y-103388500D02*
X123458000Y-103113500D01*
G75*
G02*
X123595500Y-102976000I137500J0D01*
G01*
X124920500Y-102976000D01*
G75*
G02*
X125058000Y-103113500I0J-137500D01*
G01*
X125058000Y-103388500D01*
G75*
G02*
X124920500Y-103526000I-137500J0D01*
G01*
X123595500Y-103526000D01*
G75*
G02*
X123458000Y-103388500I0J137500D01*
G01*
G37*
%TD.AperFunction*%
%TD*%
%TO.P,R20,2*%
%TO.N,/EnableSignal*%
%TA.AperFunction,SMDPad,CuDef*%
G36*
G01*
X124450000Y-97525000D02*
X123200000Y-97525000D01*
G75*
G02*
X122950000Y-97275000I0J250000D01*
G01*
X122950000Y-96475000D01*
G75*
G02*
X123200000Y-96225000I250000J0D01*
G01*
X124450000Y-96225000D01*
G75*
G02*
X124700000Y-96475000I0J-250000D01*
G01*
X124700000Y-97275000D01*
G75*
G02*
X124450000Y-97525000I-250000J0D01*
G01*
G37*
%TD.AperFunction*%
%TO.P,R20,1*%
%TO.N,Net-(R20-Pad1)*%
%TA.AperFunction,SMDPad,CuDef*%
G36*
G01*
X124450000Y-100625000D02*
X123200000Y-100625000D01*
G75*
G02*
X122950000Y-100375000I0J250000D01*
G01*
X122950000Y-99575000D01*
G75*
G02*
X123200000Y-99325000I250000J0D01*
G01*
X124450000Y-99325000D01*
G75*
G02*
X124700000Y-99575000I0J-250000D01*
G01*
X124700000Y-100375000D01*
G75*
G02*
X124450000Y-100625000I-250000J0D01*
G01*
G37*
%TD.AperFunction*%
%TD*%
D14*
%TO.P,H3,1*%
%TO.N,GND*%
X116205000Y-117475000D03*
D15*
X116205000Y-117475000D03*
%TD*%
D14*
%TO.P,H2,1*%
%TO.N,GND*%
X148844000Y-70866000D03*
D15*
X148844000Y-70866000D03*
%TD*%
D14*
%TO.P,H1,1*%
%TO.N,GND*%
X116840000Y-70866000D03*
D15*
X116840000Y-70866000D03*
%TD*%
%TO.P,R12,2*%
%TO.N,Net-(R12-Pad2)*%
%TA.AperFunction,SMDPad,CuDef*%
G36*
G01*
X133232999Y-88810000D02*
X134483001Y-88810000D01*
G75*
G02*
X134733000Y-89059999I0J-249999D01*
G01*
X134733000Y-89860001D01*
G75*
G02*
X134483001Y-90110000I-249999J0D01*
G01*
X133232999Y-90110000D01*
G75*
G02*
X132983000Y-89860001I0J249999D01*
G01*
X132983000Y-89059999D01*
G75*
G02*
X133232999Y-88810000I249999J0D01*
G01*
G37*
%TD.AperFunction*%
%TO.P,R12,1*%
%TO.N,VCC*%
%TA.AperFunction,SMDPad,CuDef*%
G36*
G01*
X133232999Y-85710000D02*
X134483001Y-85710000D01*
G75*
G02*
X134733000Y-85959999I0J-249999D01*
G01*
X134733000Y-86760001D01*
G75*
G02*
X134483001Y-87010000I-249999J0D01*
G01*
X133232999Y-87010000D01*
G75*
G02*
X132983000Y-86760001I0J249999D01*
G01*
X132983000Y-85959999D01*
G75*
G02*
X133232999Y-85710000I249999J0D01*
G01*
G37*
%TD.AperFunction*%
%TD*%
%TO.P,R11,2*%
%TO.N,GND*%
%TA.AperFunction,SMDPad,CuDef*%
G36*
G01*
X147204000Y-95621001D02*
X147204000Y-94370999D01*
G75*
G02*
X147453999Y-94121000I249999J0D01*
G01*
X148254001Y-94121000D01*
G75*
G02*
X148504000Y-94370999I0J-249999D01*
G01*
X148504000Y-95621001D01*
G75*
G02*
X148254001Y-95871000I-249999J0D01*
G01*
X147453999Y-95871000D01*
G75*
G02*
X147204000Y-95621001I0J249999D01*
G01*
G37*
%TD.AperFunction*%
%TO.P,R11,1*%
%TO.N,/2.5V*%
%TA.AperFunction,SMDPad,CuDef*%
G36*
G01*
X144104000Y-95621001D02*
X144104000Y-94370999D01*
G75*
G02*
X144353999Y-94121000I249999J0D01*
G01*
X145154001Y-94121000D01*
G75*
G02*
X145404000Y-94370999I0J-249999D01*
G01*
X145404000Y-95621001D01*
G75*
G02*
X145154001Y-95871000I-249999J0D01*
G01*
X144353999Y-95871000D01*
G75*
G02*
X144104000Y-95621001I0J249999D01*
G01*
G37*
%TD.AperFunction*%
%TD*%
%TO.P,R10,2*%
%TO.N,/2.5V*%
%TA.AperFunction,SMDPad,CuDef*%
G36*
G01*
X140324000Y-92084999D02*
X140324000Y-93335001D01*
G75*
G02*
X140074001Y-93585000I-249999J0D01*
G01*
X139273999Y-93585000D01*
G75*
G02*
X139024000Y-93335001I0J249999D01*
G01*
X139024000Y-92084999D01*
G75*
G02*
X139273999Y-91835000I249999J0D01*
G01*
X140074001Y-91835000D01*
G75*
G02*
X140324000Y-92084999I0J-249999D01*
G01*
G37*
%TD.AperFunction*%
%TO.P,R10,1*%
%TO.N,VCC*%
%TA.AperFunction,SMDPad,CuDef*%
G36*
G01*
X143424000Y-92084999D02*
X143424000Y-93335001D01*
G75*
G02*
X143174001Y-93585000I-249999J0D01*
G01*
X142373999Y-93585000D01*
G75*
G02*
X142124000Y-93335001I0J249999D01*
G01*
X142124000Y-92084999D01*
G75*
G02*
X142373999Y-91835000I249999J0D01*
G01*
X143174001Y-91835000D01*
G75*
G02*
X143424000Y-92084999I0J-249999D01*
G01*
G37*
%TD.AperFunction*%
%TD*%
D21*
%TO.P,J3,2*%
%TO.N,GND1*%
X114808000Y-97536000D03*
D22*
%TO.P,J3,1*%
%TO.N,/EnableSignal*%
X117348000Y-97536000D03*
%TD*%
D19*
%TO.P,D1,2*%
%TO.N,Net-(D1-Pad2)*%
X117094000Y-107442000D03*
D20*
%TO.P,D1,1*%
%TO.N,Net-(D1-Pad1)*%
X114554000Y-107442000D03*
%TD*%
%TO.P,C6,2*%
%TO.N,GND*%
%TA.AperFunction,SMDPad,CuDef*%
G36*
G01*
X131815000Y-92313997D02*
X131815000Y-93614003D01*
G75*
G02*
X131565003Y-93864000I-249997J0D01*
G01*
X130739997Y-93864000D01*
G75*
G02*
X130490000Y-93614003I0J249997D01*
G01*
X130490000Y-92313997D01*
G75*
G02*
X130739997Y-92064000I249997J0D01*
G01*
X131565003Y-92064000D01*
G75*
G02*
X131815000Y-92313997I0J-249997D01*
G01*
G37*
%TD.AperFunction*%
%TO.P,C6,1*%
%TO.N,Net-(C6-Pad1)*%
%TA.AperFunction,SMDPad,CuDef*%
G36*
G01*
X134940000Y-92313997D02*
X134940000Y-93614003D01*
G75*
G02*
X134690003Y-93864000I-249997J0D01*
G01*
X133864997Y-93864000D01*
G75*
G02*
X133615000Y-93614003I0J249997D01*
G01*
X133615000Y-92313997D01*
G75*
G02*
X133864997Y-92064000I249997J0D01*
G01*
X134690003Y-92064000D01*
G75*
G02*
X134940000Y-92313997I0J-249997D01*
G01*
G37*
%TD.AperFunction*%
%TD*%
%TO.P,C4,2*%
%TO.N,GND*%
%TA.AperFunction,SMDPad,CuDef*%
G36*
G01*
X147204000Y-93360003D02*
X147204000Y-92059997D01*
G75*
G02*
X147453997Y-91810000I249997J0D01*
G01*
X148279003Y-91810000D01*
G75*
G02*
X148529000Y-92059997I0J-249997D01*
G01*
X148529000Y-93360003D01*
G75*
G02*
X148279003Y-93610000I-249997J0D01*
G01*
X147453997Y-93610000D01*
G75*
G02*
X147204000Y-93360003I0J249997D01*
G01*
G37*
%TD.AperFunction*%
%TO.P,C4,1*%
%TO.N,VCC*%
%TA.AperFunction,SMDPad,CuDef*%
G36*
G01*
X144079000Y-93360003D02*
X144079000Y-92059997D01*
G75*
G02*
X144328997Y-91810000I249997J0D01*
G01*
X145154003Y-91810000D01*
G75*
G02*
X145404000Y-92059997I0J-249997D01*
G01*
X145404000Y-93360003D01*
G75*
G02*
X145154003Y-93610000I-249997J0D01*
G01*
X144328997Y-93610000D01*
G75*
G02*
X144079000Y-93360003I0J249997D01*
G01*
G37*
%TD.AperFunction*%
%TD*%
%TO.P,C3,2*%
%TO.N,/EnableSignal*%
%TA.AperFunction,SMDPad,CuDef*%
G36*
G01*
X116978000Y-100726003D02*
X116978000Y-99425997D01*
G75*
G02*
X117227997Y-99176000I249997J0D01*
G01*
X118053003Y-99176000D01*
G75*
G02*
X118303000Y-99425997I0J-249997D01*
G01*
X118303000Y-100726003D01*
G75*
G02*
X118053003Y-100976000I-249997J0D01*
G01*
X117227997Y-100976000D01*
G75*
G02*
X116978000Y-100726003I0J249997D01*
G01*
G37*
%TD.AperFunction*%
%TO.P,C3,1*%
%TO.N,GND1*%
%TA.AperFunction,SMDPad,CuDef*%
G36*
G01*
X113853000Y-100726003D02*
X113853000Y-99425997D01*
G75*
G02*
X114102997Y-99176000I249997J0D01*
G01*
X114928003Y-99176000D01*
G75*
G02*
X115178000Y-99425997I0J-249997D01*
G01*
X115178000Y-100726003D01*
G75*
G02*
X114928003Y-100976000I-249997J0D01*
G01*
X114102997Y-100976000D01*
G75*
G02*
X113853000Y-100726003I0J249997D01*
G01*
G37*
%TD.AperFunction*%
%TD*%
D23*
%TO.N,GND*%
X149860000Y-103886000D03*
X126238000Y-97130002D03*
X124460000Y-84836000D03*
X126746000Y-86614000D03*
X133350000Y-101600000D03*
X126212714Y-93980000D03*
X124206000Y-106680000D03*
X134620000Y-98044000D03*
X124414990Y-88392000D03*
X127762000Y-93980000D03*
X130810000Y-101854000D03*
X125734653Y-100833347D03*
%TO.N,+5V*%
X141732000Y-84836000D03*
X142748000Y-90170000D03*
%TO.N,Net-(C6-Pad1)*%
X134112000Y-90932000D03*
%TO.N,/Threshold*%
X135890000Y-87630000D03*
%TO.N,Net-(D4-Pad1)*%
X120204705Y-105357658D03*
X122174000Y-105664000D03*
X137160000Y-104648000D03*
X137159994Y-101854000D03*
%TO.N,/FAN_TRIGGER*%
X131064000Y-96012000D03*
X135382000Y-79248000D03*
X127000000Y-95504000D03*
%TO.N,Net-(Q1-Pad1)*%
X137668000Y-96012000D03*
%TO.N,/2.5V*%
X134874000Y-94488000D03*
X132334000Y-94742000D03*
X129032000Y-97282000D03*
%TO.N,Net-(C8-Pad1)*%
X141224000Y-103886000D03*
X127762000Y-97282000D03*
X131572000Y-99314000D03*
%TO.N,Net-(R20-Pad1)*%
X124206000Y-103378000D03*
X123325340Y-100474660D03*
%TO.N,VCC*%
X129032000Y-103886000D03*
X120904000Y-108679010D03*
X120904000Y-110490004D03*
X118872000Y-88138000D03*
X134112000Y-87122000D03*
X144780000Y-89916000D03*
X128735000Y-99888016D03*
%TO.N,/PWM_DCycle_Ref*%
X118872000Y-79248000D03*
X120650000Y-96774000D03*
%TO.N,/COMP_PWM*%
X127508000Y-103378000D03*
X127508000Y-99822000D03*
%TO.N,Net-(R12-Pad2)*%
X133858000Y-88138000D03*
%TO.N,/Sawtooth*%
X138176000Y-91694000D03*
X126492000Y-101854000D03*
X127275748Y-104415748D03*
X134874000Y-104140000D03*
X134620000Y-101854000D03*
X132334000Y-104902000D03*
%TO.N,/NE_OUT*%
X125476000Y-91948000D03*
X126492000Y-90170000D03*
%TO.N,/NE555_RST*%
X129286000Y-90932000D03*
%TD*%
D24*
%TO.N,GND*%
X126072500Y-100122067D02*
X125899002Y-100295565D01*
X126072500Y-99695000D02*
X126072500Y-100122067D01*
X126097498Y-97130002D02*
X126072500Y-97155000D01*
X126238000Y-97130002D02*
X126097498Y-97130002D01*
X131152500Y-90847500D02*
X131125000Y-90820000D01*
X131152500Y-92710000D02*
X131152500Y-90847500D01*
X124498500Y-84874500D02*
X124460000Y-84836000D01*
X124498500Y-88392000D02*
X124498500Y-84874500D01*
X126238000Y-86614000D02*
X126746000Y-86614000D01*
X124460000Y-84836000D02*
X126238000Y-86614000D01*
X124498500Y-90665500D02*
X124486000Y-90678000D01*
X124498500Y-88392000D02*
X124498500Y-90665500D01*
X126072500Y-94120214D02*
X126212714Y-93980000D01*
X126072500Y-97155000D02*
X126072500Y-94120214D01*
X122200000Y-107442000D02*
X123444000Y-107442000D01*
X123444000Y-107442000D02*
X124206000Y-106680000D01*
X134620000Y-96624998D02*
X134620000Y-98044000D01*
X134941999Y-96302999D02*
X134620000Y-96624998D01*
X136362001Y-96302999D02*
X134941999Y-96302999D01*
X137652000Y-97978000D02*
X137652000Y-97592998D01*
X137652000Y-97592998D02*
X136362001Y-96302999D01*
X147066000Y-103886000D02*
X149860000Y-103886000D01*
X130885000Y-101779000D02*
X130810000Y-101854000D01*
X130885000Y-101600000D02*
X130885000Y-101779000D01*
X125734653Y-100032847D02*
X126072500Y-99695000D01*
X125734653Y-100833347D02*
X125734653Y-100032847D01*
%TO.N,+5V*%
X142480000Y-85584000D02*
X142480000Y-90018000D01*
X141732000Y-84836000D02*
X142480000Y-85584000D01*
X142632000Y-90170000D02*
X142480000Y-90018000D01*
X142748000Y-90170000D02*
X142632000Y-90170000D01*
%TO.N,Net-(C6-Pad1)*%
X134112000Y-92544500D02*
X134277500Y-92710000D01*
X134112000Y-90932000D02*
X134112000Y-92544500D01*
%TO.N,/Threshold*%
X138430000Y-86334000D02*
X136144000Y-86334000D01*
X136144000Y-87376000D02*
X135890000Y-87630000D01*
X136144000Y-86334000D02*
X136144000Y-87376000D01*
%TO.N,Net-(D1-Pad2)*%
X119056010Y-109404010D02*
X117094000Y-107442000D01*
X142344180Y-109404010D02*
X119056010Y-109404010D01*
X142681010Y-109067180D02*
X142344180Y-109404010D01*
X142681010Y-107267990D02*
X142681010Y-109067180D01*
X144031000Y-105918000D02*
X142681010Y-107267990D01*
X144743500Y-105918000D02*
X144031000Y-105918000D01*
X144743500Y-104176500D02*
X144743500Y-105918000D01*
X145034000Y-103886000D02*
X144743500Y-104176500D01*
%TO.N,Net-(D3-Pad2)*%
X119100000Y-111506000D02*
X117094000Y-111506000D01*
%TO.N,Net-(D4-Pad1)*%
X114554000Y-103378000D02*
X116586000Y-105410000D01*
X120152363Y-105410000D02*
X120204705Y-105357658D01*
X116586000Y-105410000D02*
X120152363Y-105410000D01*
X122174000Y-105664000D02*
X136144000Y-105664000D01*
X136144000Y-105664000D02*
X137160000Y-104648000D01*
X135652000Y-97028000D02*
X135652000Y-100346006D01*
X135652000Y-100346006D02*
X137159994Y-101854000D01*
%TO.N,/FAN_TRIGGER*%
X127000000Y-90735002D02*
X127000000Y-95504000D01*
X131064000Y-96012000D02*
X130556000Y-95504000D01*
X135382000Y-82353002D02*
X127000000Y-90735002D01*
X130556000Y-95504000D02*
X127000000Y-95504000D01*
X135382000Y-79248000D02*
X135382000Y-82353002D01*
%TO.N,Net-(Q1-Pad1)*%
X137652000Y-96028000D02*
X137668000Y-96012000D01*
X137652000Y-96078000D02*
X137652000Y-96028000D01*
%TO.N,/2.5V*%
X141960000Y-94996000D02*
X139674000Y-92710000D01*
X144754000Y-94996000D02*
X141960000Y-94996000D01*
X136652000Y-92710000D02*
X134874000Y-94488000D01*
X139674000Y-92710000D02*
X136652000Y-92710000D01*
X131274002Y-97155000D02*
X132334000Y-96095002D01*
X129197500Y-97155000D02*
X131274002Y-97155000D01*
X132334000Y-96095002D02*
X132334000Y-94742000D01*
X129070500Y-97282000D02*
X129197500Y-97155000D01*
X129032000Y-97282000D02*
X129070500Y-97282000D01*
%TO.N,Net-(C8-Pad1)*%
X141706000Y-105980500D02*
X141768500Y-105918000D01*
X141706000Y-108204000D02*
X141706000Y-105980500D01*
X141768500Y-105918000D02*
X141768500Y-104430500D01*
X141768500Y-104430500D02*
X141224000Y-103886000D01*
X130664001Y-98406001D02*
X131572000Y-99314000D01*
X128320316Y-98406001D02*
X130664001Y-98406001D01*
X127762000Y-97847685D02*
X128320316Y-98406001D01*
X127762000Y-97282000D02*
X127762000Y-97847685D01*
%TO.N,Net-(R20-Pad1)*%
X123851000Y-99975000D02*
X123825000Y-99975000D01*
X123825000Y-99975000D02*
X123325340Y-100474660D01*
%TO.N,GND1*%
X114808000Y-99783500D02*
X114515500Y-100076000D01*
X114808000Y-97536000D02*
X114808000Y-99783500D01*
X116296998Y-101854000D02*
X116293500Y-101854000D01*
X116505999Y-101644999D02*
X116296998Y-101854000D01*
X117682001Y-101644999D02*
X116505999Y-101644999D01*
X117891002Y-101854000D02*
X117682001Y-101644999D01*
X116293500Y-101854000D02*
X114515500Y-100076000D01*
X124460000Y-101854000D02*
X117891002Y-101854000D01*
%TO.N,VCC*%
X129552500Y-100050000D02*
X129197500Y-99695000D01*
X133350000Y-100050000D02*
X129552500Y-100050000D01*
X142774000Y-92710000D02*
X144741500Y-92710000D01*
X144780000Y-92671500D02*
X144741500Y-92710000D01*
X144780000Y-90018000D02*
X144780000Y-92671500D01*
X144780000Y-90018000D02*
X144780000Y-83718000D01*
X122200000Y-104253000D02*
X120904000Y-105549000D01*
X122200000Y-103378000D02*
X122200000Y-104253000D01*
X120904000Y-105549000D02*
X120904000Y-108679010D01*
X122200000Y-111506000D02*
X121919996Y-111506000D01*
X121919996Y-111506000D02*
X120904000Y-110490004D01*
X118644000Y-88366000D02*
X118872000Y-88138000D01*
X118644000Y-88392000D02*
X118644000Y-88366000D01*
X134112000Y-86614000D02*
X133858000Y-86360000D01*
X134112000Y-87122000D02*
X134112000Y-86614000D01*
X131623000Y-87122000D02*
X134112000Y-87122000D01*
X129225000Y-89520000D02*
X131623000Y-87122000D01*
X123978000Y-105156000D02*
X122200000Y-103378000D01*
X127762000Y-105156000D02*
X123978000Y-105156000D01*
X127762000Y-105156000D02*
X129032000Y-103886000D01*
X129032000Y-102185000D02*
X129197500Y-102019500D01*
X129032000Y-103886000D02*
X129032000Y-102185000D01*
X129197500Y-99695000D02*
X129197500Y-102019500D01*
X145729010Y-101666990D02*
X145034000Y-102362000D01*
X145729010Y-93697510D02*
X145729010Y-101666990D01*
X144741500Y-92710000D02*
X145729010Y-93697510D01*
X129197500Y-99695000D02*
X128928016Y-99695000D01*
X128928016Y-99695000D02*
X128735000Y-99888016D01*
%TO.N,/PWM_DCycle_Ref*%
X117570000Y-87627810D02*
X117570000Y-90678000D01*
X120173490Y-87191990D02*
X118005820Y-87191990D01*
X121373500Y-88392000D02*
X120173490Y-87191990D01*
X117163990Y-87191990D02*
X117584905Y-87612905D01*
X116043829Y-87191990D02*
X117163990Y-87191990D01*
X114549990Y-85698151D02*
X116043829Y-87191990D01*
X114549990Y-82155797D02*
X114549990Y-85698151D01*
X118872000Y-79248000D02*
X117457787Y-79248000D01*
X117584905Y-87612905D02*
X117570000Y-87627810D01*
X117457787Y-79248000D02*
X114549990Y-82155797D01*
X118005820Y-87191990D02*
X117584905Y-87612905D01*
X122361010Y-95062990D02*
X120650000Y-96774000D01*
X122361010Y-89379510D02*
X122361010Y-95062990D01*
X121373500Y-88392000D02*
X122361010Y-89379510D01*
%TO.N,Net-(D1-Pad1)*%
X115779001Y-106216999D02*
X114554000Y-107442000D01*
X117874999Y-106216999D02*
X115779001Y-106216999D01*
X119100000Y-107442000D02*
X117874999Y-106216999D01*
%TO.N,Net-(D4-Pad2)*%
X119100000Y-103378000D02*
X117094000Y-103378000D01*
%TO.N,/COMP_PWM*%
X127508000Y-103378000D02*
X127508000Y-99822000D01*
%TO.N,Net-(R12-Pad2)*%
X133858000Y-89460000D02*
X133858000Y-88138000D01*
X133884000Y-89434000D02*
X133858000Y-89460000D01*
X136144000Y-89434000D02*
X133884000Y-89434000D01*
%TO.N,/Sawtooth*%
X138430000Y-91440000D02*
X138176000Y-91694000D01*
X138430000Y-89434000D02*
X138430000Y-91440000D01*
X127275748Y-104161748D02*
X127275748Y-104415748D01*
X126492000Y-103632000D02*
X127275748Y-104415748D01*
X126492000Y-101854000D02*
X126492000Y-103632000D01*
X134874000Y-104140000D02*
X133096000Y-104140000D01*
X133096000Y-104140000D02*
X132334000Y-104902000D01*
%TO.N,/NE_OUT*%
X125476000Y-91186000D02*
X126492000Y-90170000D01*
X125476000Y-91948000D02*
X125476000Y-91186000D01*
%TO.N,/NE555_RST*%
X129225000Y-90871000D02*
X129286000Y-90932000D01*
X129225000Y-90820000D02*
X129225000Y-90871000D01*
%TO.N,/EnableSignal*%
X117640500Y-97828500D02*
X117348000Y-97536000D01*
X117640500Y-100076000D02*
X117640500Y-97828500D01*
X123164000Y-97536000D02*
X123825000Y-96875000D01*
X117348000Y-97536000D02*
X123164000Y-97536000D01*
%TO.N,/-Potentiometer*%
X121386000Y-90678000D02*
X119570000Y-90678000D01*
%TO.N,/+Potentiometer*%
X115544000Y-90652000D02*
X115570000Y-90678000D01*
X115544000Y-88392000D02*
X115544000Y-90652000D01*
%TO.N,/EnabledOpto*%
X131125000Y-90170000D02*
X131700000Y-90170000D01*
X133289990Y-91759990D02*
X133289990Y-98151800D01*
X133289990Y-98151800D02*
X135091001Y-99952811D01*
X135345001Y-102202001D02*
X134397002Y-103150000D01*
X131700000Y-90170000D02*
X133289990Y-91759990D01*
X134397002Y-103150000D02*
X133350000Y-103150000D01*
X135345001Y-101505999D02*
X135345001Y-102202001D01*
X135091001Y-101251999D02*
X135345001Y-101505999D01*
X135091001Y-99952811D02*
X135091001Y-101251999D01*
X131038000Y-103150000D02*
X133350000Y-103150000D01*
X130810000Y-103378000D02*
X131038000Y-103150000D01*
X133376000Y-103124000D02*
X133350000Y-103150000D01*
X147000000Y-103124000D02*
X133376000Y-103124000D01*
%TD*%
D25*
%TO.N,GND*%
X150880551Y-66753421D02*
X151373580Y-66902275D01*
X151828313Y-67144061D01*
X152227410Y-67469557D01*
X152555694Y-67866384D01*
X152800644Y-68319410D01*
X152952938Y-68811392D01*
X153010000Y-69354295D01*
X153010001Y-118585711D01*
X152956579Y-119130552D01*
X152807724Y-119623584D01*
X152565939Y-120078313D01*
X152240443Y-120477410D01*
X151843616Y-120805694D01*
X151390590Y-121050644D01*
X150898608Y-121202938D01*
X150355704Y-121260000D01*
X115094279Y-121260000D01*
X114549448Y-121206579D01*
X114056416Y-121057724D01*
X113601687Y-120815939D01*
X113202590Y-120490443D01*
X112874306Y-120093616D01*
X112765013Y-119891481D01*
X113968124Y-119891481D01*
X114280308Y-120340177D01*
X114876259Y-120660612D01*
X115523273Y-120858626D01*
X116196484Y-120926610D01*
X116870023Y-120861949D01*
X117518006Y-120667130D01*
X118115530Y-120349639D01*
X118129692Y-120340177D01*
X118441876Y-119891481D01*
X146988124Y-119891481D01*
X147300308Y-120340177D01*
X147896259Y-120660612D01*
X148543273Y-120858626D01*
X149216484Y-120926610D01*
X149890023Y-120861949D01*
X150538006Y-120667130D01*
X151135530Y-120349639D01*
X151149692Y-120340177D01*
X151461876Y-119891481D01*
X149225000Y-117654605D01*
X146988124Y-119891481D01*
X118441876Y-119891481D01*
X116205000Y-117654605D01*
X113968124Y-119891481D01*
X112765013Y-119891481D01*
X112629356Y-119640590D01*
X112477062Y-119148608D01*
X112420000Y-118605704D01*
X112420000Y-117466484D01*
X112753390Y-117466484D01*
X112818051Y-118140023D01*
X113012870Y-118788006D01*
X113330361Y-119385530D01*
X113339823Y-119399692D01*
X113788519Y-119711876D01*
X116025395Y-117475000D01*
X116384605Y-117475000D01*
X118621481Y-119711876D01*
X119070177Y-119399692D01*
X119390612Y-118803741D01*
X119588626Y-118156727D01*
X119656610Y-117483516D01*
X119654975Y-117466484D01*
X145773390Y-117466484D01*
X145838051Y-118140023D01*
X146032870Y-118788006D01*
X146350361Y-119385530D01*
X146359823Y-119399692D01*
X146808519Y-119711876D01*
X149045395Y-117475000D01*
X149404605Y-117475000D01*
X151641481Y-119711876D01*
X152090177Y-119399692D01*
X152410612Y-118803741D01*
X152608626Y-118156727D01*
X152676610Y-117483516D01*
X152611949Y-116809977D01*
X152417130Y-116161994D01*
X152099639Y-115564470D01*
X152090177Y-115550308D01*
X151641481Y-115238124D01*
X149404605Y-117475000D01*
X149045395Y-117475000D01*
X146808519Y-115238124D01*
X146359823Y-115550308D01*
X146039388Y-116146259D01*
X145841374Y-116793273D01*
X145773390Y-117466484D01*
X119654975Y-117466484D01*
X119591949Y-116809977D01*
X119397130Y-116161994D01*
X119079639Y-115564470D01*
X119070177Y-115550308D01*
X118621481Y-115238124D01*
X116384605Y-117475000D01*
X116025395Y-117475000D01*
X113788519Y-115238124D01*
X113339823Y-115550308D01*
X113019388Y-116146259D01*
X112821374Y-116793273D01*
X112753390Y-117466484D01*
X112420000Y-117466484D01*
X112420000Y-115058519D01*
X113968124Y-115058519D01*
X116205000Y-117295395D01*
X118441876Y-115058519D01*
X118129692Y-114609823D01*
X117533741Y-114289388D01*
X116886727Y-114091374D01*
X116361787Y-114038363D01*
X126940002Y-114038363D01*
X126940002Y-114281637D01*
X126987462Y-114520236D01*
X127080559Y-114744992D01*
X127215715Y-114947267D01*
X127387735Y-115119287D01*
X127590010Y-115254443D01*
X127814766Y-115347540D01*
X128053365Y-115395000D01*
X128296639Y-115395000D01*
X128535238Y-115347540D01*
X128759994Y-115254443D01*
X128962269Y-115119287D01*
X129134289Y-114947267D01*
X129269445Y-114744992D01*
X129362542Y-114520236D01*
X129410002Y-114281637D01*
X129410002Y-114038363D01*
X134939985Y-114038363D01*
X134939985Y-114281637D01*
X134987445Y-114520236D01*
X135080542Y-114744992D01*
X135215698Y-114947267D01*
X135387718Y-115119287D01*
X135589993Y-115254443D01*
X135814749Y-115347540D01*
X136053348Y-115395000D01*
X136296622Y-115395000D01*
X136535221Y-115347540D01*
X136759977Y-115254443D01*
X136962252Y-115119287D01*
X137023020Y-115058519D01*
X146988124Y-115058519D01*
X149225000Y-117295395D01*
X151461876Y-115058519D01*
X151149692Y-114609823D01*
X150553741Y-114289388D01*
X149906727Y-114091374D01*
X149233516Y-114023390D01*
X148559977Y-114088051D01*
X147911994Y-114282870D01*
X147314470Y-114600361D01*
X147300308Y-114609823D01*
X146988124Y-115058519D01*
X137023020Y-115058519D01*
X137134272Y-114947267D01*
X137269428Y-114744992D01*
X137362525Y-114520236D01*
X137409985Y-114281637D01*
X137409985Y-114038363D01*
X137362525Y-113799764D01*
X137269428Y-113575008D01*
X137134272Y-113372733D01*
X136962252Y-113200713D01*
X136759977Y-113065557D01*
X136535221Y-112972460D01*
X136296622Y-112925000D01*
X136053348Y-112925000D01*
X135814749Y-112972460D01*
X135589993Y-113065557D01*
X135387718Y-113200713D01*
X135215698Y-113372733D01*
X135080542Y-113575008D01*
X134987445Y-113799764D01*
X134939985Y-114038363D01*
X129410002Y-114038363D01*
X129362542Y-113799764D01*
X129269445Y-113575008D01*
X129134289Y-113372733D01*
X128962269Y-113200713D01*
X128759994Y-113065557D01*
X128535238Y-112972460D01*
X128296639Y-112925000D01*
X128053365Y-112925000D01*
X127814766Y-112972460D01*
X127590010Y-113065557D01*
X127387735Y-113200713D01*
X127215715Y-113372733D01*
X127080559Y-113575008D01*
X126987462Y-113799764D01*
X126940002Y-114038363D01*
X116361787Y-114038363D01*
X116213516Y-114023390D01*
X115539977Y-114088051D01*
X114891994Y-114282870D01*
X114294470Y-114600361D01*
X114280308Y-114609823D01*
X113968124Y-115058519D01*
X112420000Y-115058519D01*
X112420000Y-112914000D01*
X113015928Y-112914000D01*
X113028188Y-113038482D01*
X113064498Y-113158180D01*
X113123463Y-113268494D01*
X113202815Y-113365185D01*
X113299506Y-113444537D01*
X113409820Y-113503502D01*
X113529518Y-113539812D01*
X113654000Y-113552072D01*
X114268250Y-113549000D01*
X114427000Y-113390250D01*
X114427000Y-112141000D01*
X113177750Y-112141000D01*
X113019000Y-112299750D01*
X113015928Y-112914000D01*
X112420000Y-112914000D01*
X112420000Y-111114000D01*
X113015928Y-111114000D01*
X113019000Y-111728250D01*
X113177750Y-111887000D01*
X114427000Y-111887000D01*
X114427000Y-110637750D01*
X114268250Y-110479000D01*
X113654000Y-110475928D01*
X113529518Y-110488188D01*
X113409820Y-110524498D01*
X113299506Y-110583463D01*
X113202815Y-110662815D01*
X113123463Y-110759506D01*
X113064498Y-110869820D01*
X113028188Y-110989518D01*
X113015928Y-111114000D01*
X112420000Y-111114000D01*
X112420000Y-101970000D01*
X113015928Y-101970000D01*
X113015928Y-103770000D01*
X113028188Y-103894482D01*
X113064498Y-104014180D01*
X113123463Y-104124494D01*
X113202815Y-104221185D01*
X113299506Y-104300537D01*
X113409820Y-104359502D01*
X113529518Y-104395812D01*
X113654000Y-104408072D01*
X114509271Y-104408072D01*
X115583350Y-105482152D01*
X115502611Y-105506643D01*
X115486754Y-105511453D01*
X115354724Y-105582025D01*
X115301442Y-105625753D01*
X115239000Y-105676998D01*
X115215202Y-105705996D01*
X115017270Y-105903928D01*
X113654000Y-105903928D01*
X113529518Y-105916188D01*
X113409820Y-105952498D01*
X113299506Y-106011463D01*
X113202815Y-106090815D01*
X113123463Y-106187506D01*
X113064498Y-106297820D01*
X113028188Y-106417518D01*
X113015928Y-106542000D01*
X113015928Y-108342000D01*
X113028188Y-108466482D01*
X113064498Y-108586180D01*
X113123463Y-108696494D01*
X113202815Y-108793185D01*
X113299506Y-108872537D01*
X113409820Y-108931502D01*
X113529518Y-108967812D01*
X113654000Y-108980072D01*
X115454000Y-108980072D01*
X115578482Y-108967812D01*
X115698180Y-108931502D01*
X115808494Y-108872537D01*
X115905185Y-108793185D01*
X115984537Y-108696494D01*
X116043502Y-108586180D01*
X116049056Y-108567873D01*
X116115495Y-108634312D01*
X116366905Y-108802299D01*
X116646257Y-108918011D01*
X116942816Y-108977000D01*
X117245184Y-108977000D01*
X117502930Y-108925731D01*
X118492211Y-109915013D01*
X118516009Y-109944011D01*
X118545007Y-109967809D01*
X118588942Y-110003866D01*
X118526746Y-110009992D01*
X118360150Y-110060528D01*
X118206614Y-110142595D01*
X118072038Y-110253038D01*
X117961595Y-110387614D01*
X117879528Y-110541150D01*
X117841292Y-110667197D01*
X117821095Y-110653701D01*
X117541743Y-110537989D01*
X117245184Y-110479000D01*
X116942816Y-110479000D01*
X116646257Y-110537989D01*
X116366905Y-110653701D01*
X116115495Y-110821688D01*
X116049056Y-110888127D01*
X116043502Y-110869820D01*
X115984537Y-110759506D01*
X115905185Y-110662815D01*
X115808494Y-110583463D01*
X115698180Y-110524498D01*
X115578482Y-110488188D01*
X115454000Y-110475928D01*
X114839750Y-110479000D01*
X114681000Y-110637750D01*
X114681000Y-111887000D01*
X114701000Y-111887000D01*
X114701000Y-112141000D01*
X114681000Y-112141000D01*
X114681000Y-113390250D01*
X114839750Y-113549000D01*
X115454000Y-113552072D01*
X115578482Y-113539812D01*
X115698180Y-113503502D01*
X115808494Y-113444537D01*
X115905185Y-113365185D01*
X115984537Y-113268494D01*
X116043502Y-113158180D01*
X116049056Y-113139873D01*
X116115495Y-113206312D01*
X116366905Y-113374299D01*
X116646257Y-113490011D01*
X116942816Y-113549000D01*
X117245184Y-113549000D01*
X117541743Y-113490011D01*
X117821095Y-113374299D01*
X118072505Y-113206312D01*
X118286312Y-112992505D01*
X118325946Y-112933189D01*
X118360150Y-112951472D01*
X118526746Y-113002008D01*
X118700000Y-113019072D01*
X119500000Y-113019072D01*
X119673254Y-113002008D01*
X119839850Y-112951472D01*
X119993386Y-112869405D01*
X120127962Y-112758962D01*
X120238405Y-112624386D01*
X120320472Y-112470850D01*
X120371008Y-112304254D01*
X120388072Y-112131000D01*
X120388072Y-111390056D01*
X120413744Y-111407209D01*
X120602102Y-111485230D01*
X120802061Y-111525004D01*
X120864199Y-111525004D01*
X120911928Y-111572734D01*
X120911928Y-112131000D01*
X120928992Y-112304254D01*
X120979528Y-112470850D01*
X121061595Y-112624386D01*
X121172038Y-112758962D01*
X121306614Y-112869405D01*
X121460150Y-112951472D01*
X121626746Y-113002008D01*
X121800000Y-113019072D01*
X122600000Y-113019072D01*
X122773254Y-113002008D01*
X122939850Y-112951472D01*
X123093386Y-112869405D01*
X123227962Y-112758962D01*
X123338405Y-112624386D01*
X123420472Y-112470850D01*
X123471008Y-112304254D01*
X123488072Y-112131000D01*
X123488072Y-111185000D01*
X128961928Y-111185000D01*
X128961928Y-112335000D01*
X128974188Y-112459482D01*
X129010498Y-112579180D01*
X129069463Y-112689494D01*
X129148815Y-112786185D01*
X129245506Y-112865537D01*
X129355820Y-112924502D01*
X129475518Y-112960812D01*
X129600000Y-112973072D01*
X130750000Y-112973072D01*
X130874482Y-112960812D01*
X130994180Y-112924502D01*
X131104494Y-112865537D01*
X131201185Y-112786185D01*
X131280537Y-112689494D01*
X131319814Y-112616012D01*
X131403671Y-112699869D01*
X131601851Y-112832288D01*
X131822057Y-112923501D01*
X132055826Y-112970000D01*
X132294176Y-112970000D01*
X132527945Y-112923501D01*
X132748151Y-112832288D01*
X132946331Y-112699869D01*
X133054326Y-112591874D01*
X133522731Y-112591874D01*
X133566993Y-112812916D01*
X133784089Y-112911301D01*
X134016208Y-112965442D01*
X134254429Y-112973258D01*
X134489598Y-112934450D01*
X134712677Y-112850509D01*
X134783007Y-112812916D01*
X134827269Y-112591874D01*
X134175000Y-111939605D01*
X133522731Y-112591874D01*
X133054326Y-112591874D01*
X133114870Y-112531330D01*
X133211972Y-112386006D01*
X133343126Y-112412269D01*
X133995395Y-111760000D01*
X134354605Y-111760000D01*
X135006874Y-112412269D01*
X135227916Y-112368007D01*
X135326301Y-112150911D01*
X135380442Y-111918792D01*
X135388258Y-111680571D01*
X135349450Y-111445402D01*
X135265509Y-111222323D01*
X135227916Y-111151993D01*
X135006874Y-111107731D01*
X134354605Y-111760000D01*
X133995395Y-111760000D01*
X133343126Y-111107731D01*
X133211972Y-111133994D01*
X133114870Y-110988670D01*
X133054326Y-110928126D01*
X133522731Y-110928126D01*
X134175000Y-111580395D01*
X134827269Y-110928126D01*
X134783007Y-110707084D01*
X134565911Y-110608699D01*
X134333792Y-110554558D01*
X134095571Y-110546742D01*
X133860402Y-110585550D01*
X133637323Y-110669491D01*
X133566993Y-110707084D01*
X133522731Y-110928126D01*
X133054326Y-110928126D01*
X132946331Y-110820131D01*
X132748151Y-110687712D01*
X132527945Y-110596499D01*
X132294176Y-110550000D01*
X132055826Y-110550000D01*
X131822057Y-110596499D01*
X131601851Y-110687712D01*
X131403671Y-110820131D01*
X131319814Y-110903988D01*
X131280537Y-110830506D01*
X131201185Y-110733815D01*
X131104494Y-110654463D01*
X130994180Y-110595498D01*
X130874482Y-110559188D01*
X130750000Y-110546928D01*
X129600000Y-110546928D01*
X129475518Y-110559188D01*
X129355820Y-110595498D01*
X129245506Y-110654463D01*
X129148815Y-110733815D01*
X129069463Y-110830506D01*
X129010498Y-110940820D01*
X128974188Y-111060518D01*
X128961928Y-111185000D01*
X123488072Y-111185000D01*
X123488072Y-110881000D01*
X123471008Y-110707746D01*
X123420472Y-110541150D01*
X123338405Y-110387614D01*
X123227962Y-110253038D01*
X123119480Y-110164010D01*
X142306858Y-110164010D01*
X142344180Y-110167686D01*
X142381502Y-110164010D01*
X142381513Y-110164010D01*
X142493166Y-110153013D01*
X142636427Y-110109556D01*
X142768456Y-110038984D01*
X142884181Y-109944011D01*
X142907984Y-109915007D01*
X143192007Y-109630984D01*
X143221011Y-109607181D01*
X143315984Y-109491456D01*
X143386556Y-109359427D01*
X143430013Y-109216166D01*
X143441010Y-109104513D01*
X143443522Y-109079000D01*
X143517928Y-109079000D01*
X143530188Y-109203482D01*
X143566498Y-109323180D01*
X143625463Y-109433494D01*
X143704815Y-109530185D01*
X143801506Y-109609537D01*
X143911820Y-109668502D01*
X144031518Y-109704812D01*
X144156000Y-109717072D01*
X144520250Y-109714000D01*
X144679000Y-109555250D01*
X144679000Y-108331000D01*
X144933000Y-108331000D01*
X144933000Y-109555250D01*
X145091750Y-109714000D01*
X145456000Y-109717072D01*
X145580482Y-109704812D01*
X145700180Y-109668502D01*
X145810494Y-109609537D01*
X145907185Y-109530185D01*
X145986537Y-109433494D01*
X146045502Y-109323180D01*
X146081812Y-109203482D01*
X146094072Y-109079000D01*
X146091000Y-108489750D01*
X145932250Y-108331000D01*
X144933000Y-108331000D01*
X144679000Y-108331000D01*
X143679750Y-108331000D01*
X143521000Y-108489750D01*
X143517928Y-109079000D01*
X143443522Y-109079000D01*
X143444687Y-109067180D01*
X143441010Y-109029847D01*
X143441010Y-107582791D01*
X143518845Y-107504956D01*
X143521000Y-107918250D01*
X143679750Y-108077000D01*
X144679000Y-108077000D01*
X144679000Y-108057000D01*
X144933000Y-108057000D01*
X144933000Y-108077000D01*
X145932250Y-108077000D01*
X146091000Y-107918250D01*
X146094072Y-107329000D01*
X146081812Y-107204518D01*
X146045502Y-107084820D01*
X145986537Y-106974506D01*
X145981053Y-106967823D01*
X146026472Y-106882850D01*
X146077008Y-106716254D01*
X146094072Y-106543000D01*
X146094072Y-105293000D01*
X146077008Y-105119746D01*
X146026472Y-104953150D01*
X145944405Y-104799614D01*
X145833962Y-104665038D01*
X145699386Y-104554595D01*
X145692615Y-104550976D01*
X145779494Y-104504537D01*
X145876185Y-104425185D01*
X145955537Y-104328494D01*
X146014502Y-104218180D01*
X146050715Y-104098801D01*
X146052454Y-104113902D01*
X146091710Y-104232666D01*
X146153381Y-104341490D01*
X146235097Y-104436192D01*
X146333719Y-104513132D01*
X146445456Y-104569353D01*
X146566014Y-104602695D01*
X146690761Y-104611877D01*
X146714250Y-104609000D01*
X146873000Y-104450250D01*
X146873000Y-103962072D01*
X147127000Y-103962072D01*
X147127000Y-104450250D01*
X147285750Y-104609000D01*
X147309239Y-104611877D01*
X147433986Y-104602695D01*
X147554544Y-104569353D01*
X147666281Y-104513132D01*
X147764903Y-104436192D01*
X147846619Y-104341490D01*
X147908290Y-104232666D01*
X147947546Y-104113902D01*
X147960000Y-104005750D01*
X147801250Y-103847000D01*
X147688678Y-103847000D01*
X147776185Y-103775185D01*
X147855537Y-103678494D01*
X147892032Y-103610218D01*
X147960000Y-103542250D01*
X147949645Y-103452328D01*
X147950812Y-103448482D01*
X147963072Y-103324000D01*
X147963072Y-102924000D01*
X147950812Y-102799518D01*
X147950655Y-102799000D01*
X147950812Y-102798482D01*
X147963072Y-102674000D01*
X147963072Y-102274000D01*
X147950812Y-102149518D01*
X147914502Y-102029820D01*
X147855537Y-101919506D01*
X147776185Y-101822815D01*
X147679494Y-101743463D01*
X147569180Y-101684498D01*
X147449482Y-101648188D01*
X147325000Y-101635928D01*
X146675000Y-101635928D01*
X146550518Y-101648188D01*
X146492567Y-101665767D01*
X146489010Y-101629657D01*
X146489010Y-95871000D01*
X146565928Y-95871000D01*
X146578188Y-95995482D01*
X146614498Y-96115180D01*
X146673463Y-96225494D01*
X146752815Y-96322185D01*
X146849506Y-96401537D01*
X146959820Y-96460502D01*
X147079518Y-96496812D01*
X147204000Y-96509072D01*
X147568250Y-96506000D01*
X147727000Y-96347250D01*
X147727000Y-95123000D01*
X147981000Y-95123000D01*
X147981000Y-96347250D01*
X148139750Y-96506000D01*
X148504000Y-96509072D01*
X148628482Y-96496812D01*
X148748180Y-96460502D01*
X148858494Y-96401537D01*
X148955185Y-96322185D01*
X149034537Y-96225494D01*
X149093502Y-96115180D01*
X149129812Y-95995482D01*
X149142072Y-95871000D01*
X149139000Y-95281750D01*
X148980250Y-95123000D01*
X147981000Y-95123000D01*
X147727000Y-95123000D01*
X146727750Y-95123000D01*
X146569000Y-95281750D01*
X146565928Y-95871000D01*
X146489010Y-95871000D01*
X146489010Y-93734832D01*
X146492686Y-93697509D01*
X146489010Y-93660186D01*
X146489010Y-93660177D01*
X146484068Y-93610000D01*
X146565928Y-93610000D01*
X146578188Y-93734482D01*
X146614498Y-93854180D01*
X146620549Y-93865500D01*
X146614498Y-93876820D01*
X146578188Y-93996518D01*
X146565928Y-94121000D01*
X146569000Y-94710250D01*
X146727750Y-94869000D01*
X147727000Y-94869000D01*
X147727000Y-94098750D01*
X147739500Y-94086250D01*
X147739500Y-93644750D01*
X147981000Y-93644750D01*
X147981000Y-94869000D01*
X148980250Y-94869000D01*
X149139000Y-94710250D01*
X149142072Y-94121000D01*
X149129812Y-93996518D01*
X149098172Y-93892214D01*
X149118502Y-93854180D01*
X149154812Y-93734482D01*
X149167072Y-93610000D01*
X149164000Y-92995750D01*
X149005250Y-92837000D01*
X147993500Y-92837000D01*
X147993500Y-93632250D01*
X147981000Y-93644750D01*
X147739500Y-93644750D01*
X147739500Y-92837000D01*
X146727750Y-92837000D01*
X146569000Y-92995750D01*
X146565928Y-93610000D01*
X146484068Y-93610000D01*
X146478013Y-93548524D01*
X146434556Y-93405263D01*
X146363984Y-93273233D01*
X146292809Y-93186507D01*
X146269011Y-93157509D01*
X146240014Y-93133712D01*
X146042072Y-92935770D01*
X146042072Y-92059997D01*
X146025008Y-91886743D01*
X145974472Y-91720148D01*
X145892405Y-91566612D01*
X145879682Y-91551109D01*
X145884494Y-91548537D01*
X145930000Y-91511191D01*
X145975506Y-91548537D01*
X146085820Y-91607502D01*
X146205518Y-91643812D01*
X146330000Y-91656072D01*
X146587638Y-91654367D01*
X146578188Y-91685518D01*
X146565928Y-91810000D01*
X146569000Y-92424250D01*
X146727750Y-92583000D01*
X147739500Y-92583000D01*
X147739500Y-92563000D01*
X147993500Y-92563000D01*
X147993500Y-92583000D01*
X149005250Y-92583000D01*
X149164000Y-92424250D01*
X149167072Y-91810000D01*
X149154812Y-91685518D01*
X149118502Y-91565820D01*
X149059537Y-91455506D01*
X148980185Y-91358815D01*
X148883494Y-91279463D01*
X148773180Y-91220498D01*
X148653482Y-91184188D01*
X148529000Y-91171928D01*
X148446676Y-91172599D01*
X148455812Y-91142482D01*
X148468072Y-91018000D01*
X148465000Y-90303750D01*
X148306250Y-90145000D01*
X147207000Y-90145000D01*
X147207000Y-90165000D01*
X146953000Y-90165000D01*
X146953000Y-90145000D01*
X146933000Y-90145000D01*
X146933000Y-89891000D01*
X146953000Y-89891000D01*
X146953000Y-88541750D01*
X147207000Y-88541750D01*
X147207000Y-89891000D01*
X148306250Y-89891000D01*
X148465000Y-89732250D01*
X148468072Y-89018000D01*
X148455812Y-88893518D01*
X148419502Y-88773820D01*
X148360537Y-88663506D01*
X148281185Y-88566815D01*
X148184494Y-88487463D01*
X148074180Y-88428498D01*
X147954482Y-88392188D01*
X147830000Y-88379928D01*
X147365750Y-88383000D01*
X147207000Y-88541750D01*
X146953000Y-88541750D01*
X146794250Y-88383000D01*
X146330000Y-88379928D01*
X146205518Y-88392188D01*
X146085820Y-88428498D01*
X145975506Y-88487463D01*
X145930000Y-88524809D01*
X145884494Y-88487463D01*
X145774180Y-88428498D01*
X145654482Y-88392188D01*
X145540000Y-88380913D01*
X145540000Y-85356072D01*
X146680000Y-85356072D01*
X146804482Y-85343812D01*
X146924180Y-85307502D01*
X147034494Y-85248537D01*
X147131185Y-85169185D01*
X147210537Y-85072494D01*
X147269502Y-84962180D01*
X147305812Y-84842482D01*
X147318072Y-84718000D01*
X147318072Y-82718000D01*
X147305812Y-82593518D01*
X147269502Y-82473820D01*
X147210537Y-82363506D01*
X147131185Y-82266815D01*
X147034494Y-82187463D01*
X146924180Y-82128498D01*
X146804482Y-82092188D01*
X146680000Y-82079928D01*
X142880000Y-82079928D01*
X142755518Y-82092188D01*
X142635820Y-82128498D01*
X142525506Y-82187463D01*
X142428815Y-82266815D01*
X142349463Y-82363506D01*
X142290498Y-82473820D01*
X142254188Y-82593518D01*
X142241928Y-82718000D01*
X142241928Y-83931939D01*
X142222256Y-83918795D01*
X142033898Y-83840774D01*
X141833939Y-83801000D01*
X141630061Y-83801000D01*
X141430102Y-83840774D01*
X141241744Y-83918795D01*
X141072226Y-84032063D01*
X140928063Y-84176226D01*
X140814795Y-84345744D01*
X140736774Y-84534102D01*
X140697000Y-84734061D01*
X140697000Y-84937939D01*
X140736774Y-85137898D01*
X140814795Y-85326256D01*
X140928063Y-85495774D01*
X141072226Y-85639937D01*
X141241744Y-85753205D01*
X141430102Y-85831226D01*
X141630061Y-85871000D01*
X141692198Y-85871000D01*
X141720000Y-85898802D01*
X141720001Y-88380913D01*
X141605518Y-88392188D01*
X141485820Y-88428498D01*
X141375506Y-88487463D01*
X141278815Y-88566815D01*
X141199463Y-88663506D01*
X141140498Y-88773820D01*
X141104188Y-88893518D01*
X141091928Y-89018000D01*
X141091928Y-91018000D01*
X141104188Y-91142482D01*
X141140498Y-91262180D01*
X141199463Y-91372494D01*
X141278815Y-91469185D01*
X141375506Y-91548537D01*
X141485820Y-91607502D01*
X141605518Y-91643812D01*
X141607585Y-91644016D01*
X141553528Y-91745149D01*
X141502992Y-91911745D01*
X141485928Y-92084999D01*
X141485928Y-93335001D01*
X141498178Y-93459376D01*
X140962072Y-92923271D01*
X140962072Y-92084999D01*
X140945008Y-91911745D01*
X140894472Y-91745149D01*
X140812405Y-91591613D01*
X140701962Y-91457038D01*
X140567387Y-91346595D01*
X140413851Y-91264528D01*
X140247255Y-91213992D01*
X140074001Y-91196928D01*
X139273999Y-91196928D01*
X139190000Y-91205201D01*
X139190000Y-90722072D01*
X139309000Y-90722072D01*
X139482254Y-90705008D01*
X139648850Y-90654472D01*
X139802386Y-90572405D01*
X139936962Y-90461962D01*
X140047405Y-90327386D01*
X140129472Y-90173850D01*
X140180008Y-90007254D01*
X140197072Y-89834000D01*
X140197072Y-89034000D01*
X140180008Y-88860746D01*
X140129472Y-88694150D01*
X140047405Y-88540614D01*
X139936962Y-88406038D01*
X139802386Y-88295595D01*
X139648850Y-88213528D01*
X139482254Y-88162992D01*
X139309000Y-88145928D01*
X138059000Y-88145928D01*
X137885746Y-88162992D01*
X137719150Y-88213528D01*
X137565614Y-88295595D01*
X137541000Y-88315795D01*
X137516386Y-88295595D01*
X137362850Y-88213528D01*
X137196254Y-88162992D01*
X137023000Y-88145928D01*
X136790052Y-88145928D01*
X136807205Y-88120256D01*
X136885226Y-87931898D01*
X136925000Y-87731939D01*
X136925000Y-87622072D01*
X137023000Y-87622072D01*
X137196254Y-87605008D01*
X137362850Y-87554472D01*
X137516386Y-87472405D01*
X137541000Y-87452205D01*
X137565614Y-87472405D01*
X137719150Y-87554472D01*
X137885746Y-87605008D01*
X138059000Y-87622072D01*
X139309000Y-87622072D01*
X139482254Y-87605008D01*
X139648850Y-87554472D01*
X139802386Y-87472405D01*
X139936962Y-87361962D01*
X140047405Y-87227386D01*
X140129472Y-87073850D01*
X140180008Y-86907254D01*
X140197072Y-86734000D01*
X140197072Y-85934000D01*
X140180008Y-85760746D01*
X140129472Y-85594150D01*
X140047405Y-85440614D01*
X139936962Y-85306038D01*
X139802386Y-85195595D01*
X139648850Y-85113528D01*
X139482254Y-85062992D01*
X139309000Y-85045928D01*
X138059000Y-85045928D01*
X137885746Y-85062992D01*
X137719150Y-85113528D01*
X137565614Y-85195595D01*
X137541000Y-85215795D01*
X137516386Y-85195595D01*
X137362850Y-85113528D01*
X137196254Y-85062992D01*
X137023000Y-85045928D01*
X135773000Y-85045928D01*
X135599746Y-85062992D01*
X135433150Y-85113528D01*
X135279614Y-85195595D01*
X135145038Y-85306038D01*
X135117331Y-85339799D01*
X135110962Y-85332038D01*
X134976387Y-85221595D01*
X134822851Y-85139528D01*
X134656255Y-85088992D01*
X134483001Y-85071928D01*
X133737876Y-85071928D01*
X135893003Y-82916801D01*
X135922001Y-82893003D01*
X135948332Y-82860919D01*
X136016974Y-82777279D01*
X136087546Y-82645249D01*
X136103238Y-82593518D01*
X136131003Y-82501988D01*
X136142000Y-82390335D01*
X136142000Y-82390326D01*
X136145676Y-82353003D01*
X136142000Y-82315680D01*
X136142000Y-79951711D01*
X136185937Y-79907774D01*
X136299205Y-79738256D01*
X136377226Y-79549898D01*
X136417000Y-79349939D01*
X136417000Y-79146061D01*
X136377226Y-78946102D01*
X136299205Y-78757744D01*
X136185937Y-78588226D01*
X136041774Y-78444063D01*
X135872256Y-78330795D01*
X135683898Y-78252774D01*
X135483939Y-78213000D01*
X135280061Y-78213000D01*
X135080102Y-78252774D01*
X134891744Y-78330795D01*
X134722226Y-78444063D01*
X134578063Y-78588226D01*
X134464795Y-78757744D01*
X134386774Y-78946102D01*
X134347000Y-79146061D01*
X134347000Y-79349939D01*
X134386774Y-79549898D01*
X134464795Y-79738256D01*
X134578063Y-79907774D01*
X134622000Y-79951711D01*
X134622001Y-82038199D01*
X127222956Y-89437245D01*
X127151774Y-89366063D01*
X126982256Y-89252795D01*
X126793898Y-89174774D01*
X126593939Y-89135000D01*
X126390061Y-89135000D01*
X126190102Y-89174774D01*
X126001744Y-89252795D01*
X125832226Y-89366063D01*
X125787359Y-89410930D01*
X125799072Y-89292000D01*
X125796000Y-88677750D01*
X125637250Y-88519000D01*
X124625500Y-88519000D01*
X124625500Y-89314250D01*
X124613000Y-89326750D01*
X124613000Y-90551000D01*
X124633000Y-90551000D01*
X124633000Y-90805000D01*
X124613000Y-90805000D01*
X124613000Y-90825000D01*
X124359000Y-90825000D01*
X124359000Y-90805000D01*
X123359750Y-90805000D01*
X123201000Y-90963750D01*
X123197928Y-91553000D01*
X123210188Y-91677482D01*
X123246498Y-91797180D01*
X123305463Y-91907494D01*
X123384815Y-92004185D01*
X123481506Y-92083537D01*
X123591820Y-92142502D01*
X123711518Y-92178812D01*
X123836000Y-92191072D01*
X124200250Y-92188000D01*
X124358998Y-92029252D01*
X124358998Y-92188000D01*
X124468462Y-92188000D01*
X124480774Y-92249898D01*
X124558795Y-92438256D01*
X124672063Y-92607774D01*
X124816226Y-92751937D01*
X124985744Y-92865205D01*
X125174102Y-92943226D01*
X125374061Y-92983000D01*
X125577939Y-92983000D01*
X125777898Y-92943226D01*
X125966256Y-92865205D01*
X126135774Y-92751937D01*
X126240000Y-92647711D01*
X126240001Y-94800288D01*
X126196063Y-94844226D01*
X126082795Y-95013744D01*
X126004774Y-95202102D01*
X125965000Y-95402061D01*
X125965000Y-95605939D01*
X125967797Y-95620000D01*
X125945498Y-95620000D01*
X125945498Y-95778748D01*
X125786750Y-95620000D01*
X125410000Y-95616928D01*
X125285518Y-95629188D01*
X125165820Y-95665498D01*
X125055506Y-95724463D01*
X124992055Y-95776536D01*
X124943386Y-95736595D01*
X124789850Y-95654528D01*
X124623254Y-95603992D01*
X124450000Y-95586928D01*
X123200000Y-95586928D01*
X123026746Y-95603992D01*
X122860150Y-95654528D01*
X122826044Y-95672758D01*
X122872013Y-95626789D01*
X122901011Y-95602991D01*
X122995984Y-95487266D01*
X123066556Y-95355237D01*
X123110013Y-95211976D01*
X123121010Y-95100323D01*
X123124687Y-95062990D01*
X123121010Y-95025657D01*
X123121010Y-89416832D01*
X123124686Y-89379509D01*
X123121010Y-89342186D01*
X123121010Y-89342177D01*
X123116068Y-89292000D01*
X123197928Y-89292000D01*
X123210188Y-89416482D01*
X123246498Y-89536180D01*
X123252549Y-89547500D01*
X123246498Y-89558820D01*
X123210188Y-89678518D01*
X123197928Y-89803000D01*
X123201000Y-90392250D01*
X123359750Y-90551000D01*
X124359000Y-90551000D01*
X124359000Y-89780750D01*
X124371500Y-89768250D01*
X124371500Y-88519000D01*
X123359750Y-88519000D01*
X123201000Y-88677750D01*
X123197928Y-89292000D01*
X123116068Y-89292000D01*
X123110013Y-89230524D01*
X123066556Y-89087263D01*
X122995984Y-88955233D01*
X122924809Y-88868507D01*
X122901011Y-88839509D01*
X122872014Y-88815712D01*
X122674072Y-88617770D01*
X122674072Y-87741999D01*
X122657008Y-87568745D01*
X122633728Y-87492000D01*
X123197928Y-87492000D01*
X123201000Y-88106250D01*
X123359750Y-88265000D01*
X124371500Y-88265000D01*
X124371500Y-87015750D01*
X124625500Y-87015750D01*
X124625500Y-88265000D01*
X125637250Y-88265000D01*
X125796000Y-88106250D01*
X125799072Y-87492000D01*
X125786812Y-87367518D01*
X125750502Y-87247820D01*
X125691537Y-87137506D01*
X125612185Y-87040815D01*
X125515494Y-86961463D01*
X125405180Y-86902498D01*
X125285482Y-86866188D01*
X125161000Y-86853928D01*
X124784250Y-86857000D01*
X124625500Y-87015750D01*
X124371500Y-87015750D01*
X124212750Y-86857000D01*
X123836000Y-86853928D01*
X123711518Y-86866188D01*
X123591820Y-86902498D01*
X123481506Y-86961463D01*
X123384815Y-87040815D01*
X123305463Y-87137506D01*
X123246498Y-87247820D01*
X123210188Y-87367518D01*
X123197928Y-87492000D01*
X122633728Y-87492000D01*
X122606472Y-87402149D01*
X122524405Y-87248613D01*
X122413962Y-87114038D01*
X122279387Y-87003595D01*
X122125851Y-86921528D01*
X121959255Y-86870992D01*
X121786001Y-86853928D01*
X120960999Y-86853928D01*
X120914781Y-86858480D01*
X120737293Y-86680992D01*
X120713491Y-86651989D01*
X120597766Y-86557016D01*
X120465737Y-86486444D01*
X120322476Y-86442987D01*
X120210823Y-86431990D01*
X120210812Y-86431990D01*
X120173490Y-86428314D01*
X120136168Y-86431990D01*
X120010284Y-86431990D01*
X120083146Y-86400091D01*
X120283151Y-86260598D01*
X120452100Y-86084766D01*
X120583499Y-85879352D01*
X120672299Y-85652251D01*
X120715088Y-85412189D01*
X120556274Y-85217000D01*
X119602000Y-85217000D01*
X119602000Y-85237000D01*
X119348000Y-85237000D01*
X119348000Y-85217000D01*
X119328000Y-85217000D01*
X119328000Y-84963000D01*
X119348000Y-84963000D01*
X119348000Y-83217000D01*
X119602000Y-83217000D01*
X119602000Y-84963000D01*
X120556274Y-84963000D01*
X120715088Y-84767811D01*
X120672299Y-84527749D01*
X120583499Y-84300648D01*
X120452100Y-84095234D01*
X120447071Y-84090000D01*
X120452100Y-84084766D01*
X120583499Y-83879352D01*
X120672299Y-83652251D01*
X120715088Y-83412189D01*
X120556274Y-83217000D01*
X119602000Y-83217000D01*
X119348000Y-83217000D01*
X119328000Y-83217000D01*
X119328000Y-82963000D01*
X119348000Y-82963000D01*
X119348000Y-81796269D01*
X119602000Y-81796269D01*
X119602000Y-82963000D01*
X120556274Y-82963000D01*
X120715088Y-82767811D01*
X120672299Y-82527749D01*
X120583499Y-82300648D01*
X120452100Y-82095234D01*
X120283151Y-81919402D01*
X120083146Y-81779909D01*
X119859770Y-81682115D01*
X119792609Y-81671538D01*
X119602000Y-81796269D01*
X119348000Y-81796269D01*
X119157391Y-81671538D01*
X119090230Y-81682115D01*
X118866854Y-81779909D01*
X118666849Y-81919402D01*
X118497900Y-82095234D01*
X118472940Y-82134253D01*
X118352502Y-81987498D01*
X118164448Y-81833167D01*
X117949900Y-81718489D01*
X117717101Y-81647870D01*
X117475000Y-81624025D01*
X117232898Y-81647870D01*
X117000099Y-81718489D01*
X116785551Y-81833167D01*
X116597498Y-81987498D01*
X116565809Y-82026111D01*
X116563405Y-82021613D01*
X116452962Y-81887038D01*
X116318387Y-81776595D01*
X116164851Y-81694528D01*
X116104398Y-81676190D01*
X117772589Y-80008000D01*
X118168289Y-80008000D01*
X118212226Y-80051937D01*
X118381744Y-80165205D01*
X118570102Y-80243226D01*
X118770061Y-80283000D01*
X118973939Y-80283000D01*
X119173898Y-80243226D01*
X119362256Y-80165205D01*
X119531774Y-80051937D01*
X119675937Y-79907774D01*
X119789205Y-79738256D01*
X119867226Y-79549898D01*
X119907000Y-79349939D01*
X119907000Y-79146061D01*
X119867226Y-78946102D01*
X119789205Y-78757744D01*
X119675937Y-78588226D01*
X119531774Y-78444063D01*
X119362256Y-78330795D01*
X119173898Y-78252774D01*
X118973939Y-78213000D01*
X118770061Y-78213000D01*
X118570102Y-78252774D01*
X118381744Y-78330795D01*
X118212226Y-78444063D01*
X118168289Y-78488000D01*
X117495110Y-78488000D01*
X117457787Y-78484324D01*
X117420464Y-78488000D01*
X117420454Y-78488000D01*
X117308801Y-78498997D01*
X117165540Y-78542454D01*
X117033510Y-78613026D01*
X116949870Y-78681668D01*
X116917786Y-78707999D01*
X116893988Y-78736997D01*
X114038993Y-81591993D01*
X114009989Y-81615796D01*
X113984007Y-81647456D01*
X113915016Y-81731521D01*
X113871464Y-81813001D01*
X113844444Y-81863551D01*
X113800987Y-82006812D01*
X113789990Y-82118465D01*
X113789990Y-82118475D01*
X113786314Y-82155797D01*
X113789990Y-82193120D01*
X113789991Y-85660819D01*
X113786314Y-85698151D01*
X113789991Y-85735484D01*
X113800988Y-85847137D01*
X113806406Y-85864997D01*
X113844444Y-85990397D01*
X113915016Y-86122427D01*
X113986191Y-86209153D01*
X114009990Y-86238152D01*
X114038988Y-86261950D01*
X114751635Y-86974598D01*
X114650614Y-87028595D01*
X114516038Y-87139038D01*
X114405595Y-87273614D01*
X114323528Y-87427150D01*
X114272992Y-87593746D01*
X114255928Y-87767000D01*
X114255928Y-89017000D01*
X114272992Y-89190254D01*
X114323528Y-89356850D01*
X114405595Y-89510386D01*
X114484312Y-89606303D01*
X114481595Y-89609613D01*
X114399528Y-89763149D01*
X114348992Y-89929745D01*
X114331928Y-90102999D01*
X114331928Y-91253001D01*
X114348992Y-91426255D01*
X114399528Y-91592851D01*
X114481595Y-91746387D01*
X114521410Y-91794902D01*
X114423489Y-91978100D01*
X114352870Y-92210899D01*
X114335000Y-92392336D01*
X114335000Y-92963665D01*
X114352870Y-93145102D01*
X114423489Y-93377901D01*
X114538168Y-93592449D01*
X114692499Y-93780502D01*
X114880552Y-93934833D01*
X115095100Y-94049511D01*
X115327899Y-94120130D01*
X115570000Y-94143975D01*
X115812102Y-94120130D01*
X116044901Y-94049511D01*
X116259449Y-93934833D01*
X116447502Y-93780502D01*
X116567940Y-93633747D01*
X116592900Y-93672766D01*
X116761849Y-93848598D01*
X116961854Y-93988091D01*
X117185230Y-94085885D01*
X117252391Y-94096462D01*
X117443000Y-93971731D01*
X117443000Y-92805000D01*
X117697000Y-92805000D01*
X117697000Y-93971731D01*
X117887609Y-94096462D01*
X117954770Y-94085885D01*
X118178146Y-93988091D01*
X118378151Y-93848598D01*
X118547100Y-93672766D01*
X118570000Y-93636967D01*
X118592900Y-93672766D01*
X118761849Y-93848598D01*
X118961854Y-93988091D01*
X119185230Y-94085885D01*
X119252391Y-94096462D01*
X119443000Y-93971731D01*
X119443000Y-92805000D01*
X119697000Y-92805000D01*
X119697000Y-93971731D01*
X119887609Y-94096462D01*
X119954770Y-94085885D01*
X120178146Y-93988091D01*
X120378151Y-93848598D01*
X120547100Y-93672766D01*
X120678499Y-93467352D01*
X120767299Y-93240251D01*
X120810088Y-93000189D01*
X120651274Y-92805000D01*
X119697000Y-92805000D01*
X119443000Y-92805000D01*
X117697000Y-92805000D01*
X117443000Y-92805000D01*
X117423000Y-92805000D01*
X117423000Y-92551000D01*
X117443000Y-92551000D01*
X117443000Y-92531000D01*
X117697000Y-92531000D01*
X117697000Y-92551000D01*
X119443000Y-92551000D01*
X119443000Y-92531000D01*
X119697000Y-92531000D01*
X119697000Y-92551000D01*
X120651274Y-92551000D01*
X120810088Y-92355811D01*
X120775679Y-92162764D01*
X120812746Y-92174008D01*
X120986000Y-92191072D01*
X121601010Y-92191072D01*
X121601011Y-94748187D01*
X120610199Y-95739000D01*
X120548061Y-95739000D01*
X120348102Y-95778774D01*
X120159744Y-95856795D01*
X119990226Y-95970063D01*
X119846063Y-96114226D01*
X119732795Y-96283744D01*
X119654774Y-96472102D01*
X119615000Y-96672061D01*
X119615000Y-96776000D01*
X118836072Y-96776000D01*
X118836072Y-96686000D01*
X118823812Y-96561518D01*
X118787502Y-96441820D01*
X118728537Y-96331506D01*
X118649185Y-96234815D01*
X118552494Y-96155463D01*
X118442180Y-96096498D01*
X118322482Y-96060188D01*
X118198000Y-96047928D01*
X116498000Y-96047928D01*
X116373518Y-96060188D01*
X116253820Y-96096498D01*
X116143506Y-96155463D01*
X116046815Y-96234815D01*
X115967463Y-96331506D01*
X115908498Y-96441820D01*
X115886487Y-96514380D01*
X115754632Y-96382525D01*
X115511411Y-96220010D01*
X115241158Y-96108068D01*
X114954260Y-96051000D01*
X114661740Y-96051000D01*
X114374842Y-96108068D01*
X114104589Y-96220010D01*
X113861368Y-96382525D01*
X113654525Y-96589368D01*
X113492010Y-96832589D01*
X113380068Y-97102842D01*
X113323000Y-97389740D01*
X113323000Y-97682260D01*
X113380068Y-97969158D01*
X113492010Y-98239411D01*
X113654525Y-98482632D01*
X113774099Y-98602206D01*
X113763148Y-98605528D01*
X113609612Y-98687595D01*
X113475037Y-98798037D01*
X113364595Y-98932612D01*
X113282528Y-99086148D01*
X113231992Y-99252743D01*
X113214928Y-99425997D01*
X113214928Y-100726003D01*
X113231992Y-100899257D01*
X113282528Y-101065852D01*
X113364595Y-101219388D01*
X113475037Y-101353963D01*
X113481044Y-101358893D01*
X113409820Y-101380498D01*
X113299506Y-101439463D01*
X113202815Y-101518815D01*
X113123463Y-101615506D01*
X113064498Y-101725820D01*
X113028188Y-101845518D01*
X113015928Y-101970000D01*
X112420000Y-101970000D01*
X112420000Y-73282481D01*
X114603124Y-73282481D01*
X114915308Y-73731177D01*
X115511259Y-74051612D01*
X116158273Y-74249626D01*
X116831484Y-74317610D01*
X117505023Y-74252949D01*
X118153006Y-74058130D01*
X118750530Y-73740639D01*
X118764692Y-73731177D01*
X119076876Y-73282481D01*
X146607124Y-73282481D01*
X146919308Y-73731177D01*
X147515259Y-74051612D01*
X148162273Y-74249626D01*
X148835484Y-74317610D01*
X149509023Y-74252949D01*
X150157006Y-74058130D01*
X150754530Y-73740639D01*
X150768692Y-73731177D01*
X151080876Y-73282481D01*
X148844000Y-71045605D01*
X146607124Y-73282481D01*
X119076876Y-73282481D01*
X116840000Y-71045605D01*
X114603124Y-73282481D01*
X112420000Y-73282481D01*
X112420000Y-70857484D01*
X113388390Y-70857484D01*
X113453051Y-71531023D01*
X113647870Y-72179006D01*
X113965361Y-72776530D01*
X113974823Y-72790692D01*
X114423519Y-73102876D01*
X116660395Y-70866000D01*
X117019605Y-70866000D01*
X119256481Y-73102876D01*
X119705177Y-72790692D01*
X120025612Y-72194741D01*
X120223626Y-71547727D01*
X120291610Y-70874516D01*
X120289975Y-70857484D01*
X145392390Y-70857484D01*
X145457051Y-71531023D01*
X145651870Y-72179006D01*
X145969361Y-72776530D01*
X145978823Y-72790692D01*
X146427519Y-73102876D01*
X148664395Y-70866000D01*
X149023605Y-70866000D01*
X151260481Y-73102876D01*
X151709177Y-72790692D01*
X152029612Y-72194741D01*
X152227626Y-71547727D01*
X152295610Y-70874516D01*
X152230949Y-70200977D01*
X152036130Y-69552994D01*
X151718639Y-68955470D01*
X151709177Y-68941308D01*
X151260481Y-68629124D01*
X149023605Y-70866000D01*
X148664395Y-70866000D01*
X146427519Y-68629124D01*
X145978823Y-68941308D01*
X145658388Y-69537259D01*
X145460374Y-70184273D01*
X145392390Y-70857484D01*
X120289975Y-70857484D01*
X120226949Y-70200977D01*
X120032130Y-69552994D01*
X119714639Y-68955470D01*
X119705177Y-68941308D01*
X119256481Y-68629124D01*
X117019605Y-70866000D01*
X116660395Y-70866000D01*
X114423519Y-68629124D01*
X113974823Y-68941308D01*
X113654388Y-69537259D01*
X113456374Y-70184273D01*
X113388390Y-70857484D01*
X112420000Y-70857484D01*
X112420000Y-69374279D01*
X112473421Y-68829449D01*
X112588128Y-68449519D01*
X114603124Y-68449519D01*
X116840000Y-70686395D01*
X119076876Y-68449519D01*
X146607124Y-68449519D01*
X148844000Y-70686395D01*
X151080876Y-68449519D01*
X150768692Y-68000823D01*
X150172741Y-67680388D01*
X149525727Y-67482374D01*
X148852516Y-67414390D01*
X148178977Y-67479051D01*
X147530994Y-67673870D01*
X146933470Y-67991361D01*
X146919308Y-68000823D01*
X146607124Y-68449519D01*
X119076876Y-68449519D01*
X118764692Y-68000823D01*
X118168741Y-67680388D01*
X117521727Y-67482374D01*
X116848516Y-67414390D01*
X116174977Y-67479051D01*
X115526994Y-67673870D01*
X114929470Y-67991361D01*
X114915308Y-68000823D01*
X114603124Y-68449519D01*
X112588128Y-68449519D01*
X112622275Y-68336420D01*
X112864061Y-67881687D01*
X113189557Y-67482590D01*
X113586384Y-67154306D01*
X114039410Y-66909356D01*
X114531392Y-66757062D01*
X115074295Y-66700000D01*
X150335721Y-66700000D01*
X150880551Y-66753421D01*
%TA.AperFunction,Conductor*%
D26*
G36*
X150880551Y-66753421D02*
G01*
X151373580Y-66902275D01*
X151828313Y-67144061D01*
X152227410Y-67469557D01*
X152555694Y-67866384D01*
X152800644Y-68319410D01*
X152952938Y-68811392D01*
X153010000Y-69354295D01*
X153010001Y-118585711D01*
X152956579Y-119130552D01*
X152807724Y-119623584D01*
X152565939Y-120078313D01*
X152240443Y-120477410D01*
X151843616Y-120805694D01*
X151390590Y-121050644D01*
X150898608Y-121202938D01*
X150355704Y-121260000D01*
X115094279Y-121260000D01*
X114549448Y-121206579D01*
X114056416Y-121057724D01*
X113601687Y-120815939D01*
X113202590Y-120490443D01*
X112874306Y-120093616D01*
X112765013Y-119891481D01*
X113968124Y-119891481D01*
X114280308Y-120340177D01*
X114876259Y-120660612D01*
X115523273Y-120858626D01*
X116196484Y-120926610D01*
X116870023Y-120861949D01*
X117518006Y-120667130D01*
X118115530Y-120349639D01*
X118129692Y-120340177D01*
X118441876Y-119891481D01*
X146988124Y-119891481D01*
X147300308Y-120340177D01*
X147896259Y-120660612D01*
X148543273Y-120858626D01*
X149216484Y-120926610D01*
X149890023Y-120861949D01*
X150538006Y-120667130D01*
X151135530Y-120349639D01*
X151149692Y-120340177D01*
X151461876Y-119891481D01*
X149225000Y-117654605D01*
X146988124Y-119891481D01*
X118441876Y-119891481D01*
X116205000Y-117654605D01*
X113968124Y-119891481D01*
X112765013Y-119891481D01*
X112629356Y-119640590D01*
X112477062Y-119148608D01*
X112420000Y-118605704D01*
X112420000Y-117466484D01*
X112753390Y-117466484D01*
X112818051Y-118140023D01*
X113012870Y-118788006D01*
X113330361Y-119385530D01*
X113339823Y-119399692D01*
X113788519Y-119711876D01*
X116025395Y-117475000D01*
X116384605Y-117475000D01*
X118621481Y-119711876D01*
X119070177Y-119399692D01*
X119390612Y-118803741D01*
X119588626Y-118156727D01*
X119656610Y-117483516D01*
X119654975Y-117466484D01*
X145773390Y-117466484D01*
X145838051Y-118140023D01*
X146032870Y-118788006D01*
X146350361Y-119385530D01*
X146359823Y-119399692D01*
X146808519Y-119711876D01*
X149045395Y-117475000D01*
X149404605Y-117475000D01*
X151641481Y-119711876D01*
X152090177Y-119399692D01*
X152410612Y-118803741D01*
X152608626Y-118156727D01*
X152676610Y-117483516D01*
X152611949Y-116809977D01*
X152417130Y-116161994D01*
X152099639Y-115564470D01*
X152090177Y-115550308D01*
X151641481Y-115238124D01*
X149404605Y-117475000D01*
X149045395Y-117475000D01*
X146808519Y-115238124D01*
X146359823Y-115550308D01*
X146039388Y-116146259D01*
X145841374Y-116793273D01*
X145773390Y-117466484D01*
X119654975Y-117466484D01*
X119591949Y-116809977D01*
X119397130Y-116161994D01*
X119079639Y-115564470D01*
X119070177Y-115550308D01*
X118621481Y-115238124D01*
X116384605Y-117475000D01*
X116025395Y-117475000D01*
X113788519Y-115238124D01*
X113339823Y-115550308D01*
X113019388Y-116146259D01*
X112821374Y-116793273D01*
X112753390Y-117466484D01*
X112420000Y-117466484D01*
X112420000Y-115058519D01*
X113968124Y-115058519D01*
X116205000Y-117295395D01*
X118441876Y-115058519D01*
X118129692Y-114609823D01*
X117533741Y-114289388D01*
X116886727Y-114091374D01*
X116361787Y-114038363D01*
X126940002Y-114038363D01*
X126940002Y-114281637D01*
X126987462Y-114520236D01*
X127080559Y-114744992D01*
X127215715Y-114947267D01*
X127387735Y-115119287D01*
X127590010Y-115254443D01*
X127814766Y-115347540D01*
X128053365Y-115395000D01*
X128296639Y-115395000D01*
X128535238Y-115347540D01*
X128759994Y-115254443D01*
X128962269Y-115119287D01*
X129134289Y-114947267D01*
X129269445Y-114744992D01*
X129362542Y-114520236D01*
X129410002Y-114281637D01*
X129410002Y-114038363D01*
X134939985Y-114038363D01*
X134939985Y-114281637D01*
X134987445Y-114520236D01*
X135080542Y-114744992D01*
X135215698Y-114947267D01*
X135387718Y-115119287D01*
X135589993Y-115254443D01*
X135814749Y-115347540D01*
X136053348Y-115395000D01*
X136296622Y-115395000D01*
X136535221Y-115347540D01*
X136759977Y-115254443D01*
X136962252Y-115119287D01*
X137023020Y-115058519D01*
X146988124Y-115058519D01*
X149225000Y-117295395D01*
X151461876Y-115058519D01*
X151149692Y-114609823D01*
X150553741Y-114289388D01*
X149906727Y-114091374D01*
X149233516Y-114023390D01*
X148559977Y-114088051D01*
X147911994Y-114282870D01*
X147314470Y-114600361D01*
X147300308Y-114609823D01*
X146988124Y-115058519D01*
X137023020Y-115058519D01*
X137134272Y-114947267D01*
X137269428Y-114744992D01*
X137362525Y-114520236D01*
X137409985Y-114281637D01*
X137409985Y-114038363D01*
X137362525Y-113799764D01*
X137269428Y-113575008D01*
X137134272Y-113372733D01*
X136962252Y-113200713D01*
X136759977Y-113065557D01*
X136535221Y-112972460D01*
X136296622Y-112925000D01*
X136053348Y-112925000D01*
X135814749Y-112972460D01*
X135589993Y-113065557D01*
X135387718Y-113200713D01*
X135215698Y-113372733D01*
X135080542Y-113575008D01*
X134987445Y-113799764D01*
X134939985Y-114038363D01*
X129410002Y-114038363D01*
X129362542Y-113799764D01*
X129269445Y-113575008D01*
X129134289Y-113372733D01*
X128962269Y-113200713D01*
X128759994Y-113065557D01*
X128535238Y-112972460D01*
X128296639Y-112925000D01*
X128053365Y-112925000D01*
X127814766Y-112972460D01*
X127590010Y-113065557D01*
X127387735Y-113200713D01*
X127215715Y-113372733D01*
X127080559Y-113575008D01*
X126987462Y-113799764D01*
X126940002Y-114038363D01*
X116361787Y-114038363D01*
X116213516Y-114023390D01*
X115539977Y-114088051D01*
X114891994Y-114282870D01*
X114294470Y-114600361D01*
X114280308Y-114609823D01*
X113968124Y-115058519D01*
X112420000Y-115058519D01*
X112420000Y-112914000D01*
X113015928Y-112914000D01*
X113028188Y-113038482D01*
X113064498Y-113158180D01*
X113123463Y-113268494D01*
X113202815Y-113365185D01*
X113299506Y-113444537D01*
X113409820Y-113503502D01*
X113529518Y-113539812D01*
X113654000Y-113552072D01*
X114268250Y-113549000D01*
X114427000Y-113390250D01*
X114427000Y-112141000D01*
X113177750Y-112141000D01*
X113019000Y-112299750D01*
X113015928Y-112914000D01*
X112420000Y-112914000D01*
X112420000Y-111114000D01*
X113015928Y-111114000D01*
X113019000Y-111728250D01*
X113177750Y-111887000D01*
X114427000Y-111887000D01*
X114427000Y-110637750D01*
X114268250Y-110479000D01*
X113654000Y-110475928D01*
X113529518Y-110488188D01*
X113409820Y-110524498D01*
X113299506Y-110583463D01*
X113202815Y-110662815D01*
X113123463Y-110759506D01*
X113064498Y-110869820D01*
X113028188Y-110989518D01*
X113015928Y-111114000D01*
X112420000Y-111114000D01*
X112420000Y-101970000D01*
X113015928Y-101970000D01*
X113015928Y-103770000D01*
X113028188Y-103894482D01*
X113064498Y-104014180D01*
X113123463Y-104124494D01*
X113202815Y-104221185D01*
X113299506Y-104300537D01*
X113409820Y-104359502D01*
X113529518Y-104395812D01*
X113654000Y-104408072D01*
X114509271Y-104408072D01*
X115583350Y-105482152D01*
X115502611Y-105506643D01*
X115486754Y-105511453D01*
X115354724Y-105582025D01*
X115301442Y-105625753D01*
X115239000Y-105676998D01*
X115215202Y-105705996D01*
X115017270Y-105903928D01*
X113654000Y-105903928D01*
X113529518Y-105916188D01*
X113409820Y-105952498D01*
X113299506Y-106011463D01*
X113202815Y-106090815D01*
X113123463Y-106187506D01*
X113064498Y-106297820D01*
X113028188Y-106417518D01*
X113015928Y-106542000D01*
X113015928Y-108342000D01*
X113028188Y-108466482D01*
X113064498Y-108586180D01*
X113123463Y-108696494D01*
X113202815Y-108793185D01*
X113299506Y-108872537D01*
X113409820Y-108931502D01*
X113529518Y-108967812D01*
X113654000Y-108980072D01*
X115454000Y-108980072D01*
X115578482Y-108967812D01*
X115698180Y-108931502D01*
X115808494Y-108872537D01*
X115905185Y-108793185D01*
X115984537Y-108696494D01*
X116043502Y-108586180D01*
X116049056Y-108567873D01*
X116115495Y-108634312D01*
X116366905Y-108802299D01*
X116646257Y-108918011D01*
X116942816Y-108977000D01*
X117245184Y-108977000D01*
X117502930Y-108925731D01*
X118492211Y-109915013D01*
X118516009Y-109944011D01*
X118545007Y-109967809D01*
X118588942Y-110003866D01*
X118526746Y-110009992D01*
X118360150Y-110060528D01*
X118206614Y-110142595D01*
X118072038Y-110253038D01*
X117961595Y-110387614D01*
X117879528Y-110541150D01*
X117841292Y-110667197D01*
X117821095Y-110653701D01*
X117541743Y-110537989D01*
X117245184Y-110479000D01*
X116942816Y-110479000D01*
X116646257Y-110537989D01*
X116366905Y-110653701D01*
X116115495Y-110821688D01*
X116049056Y-110888127D01*
X116043502Y-110869820D01*
X115984537Y-110759506D01*
X115905185Y-110662815D01*
X115808494Y-110583463D01*
X115698180Y-110524498D01*
X115578482Y-110488188D01*
X115454000Y-110475928D01*
X114839750Y-110479000D01*
X114681000Y-110637750D01*
X114681000Y-111887000D01*
X114701000Y-111887000D01*
X114701000Y-112141000D01*
X114681000Y-112141000D01*
X114681000Y-113390250D01*
X114839750Y-113549000D01*
X115454000Y-113552072D01*
X115578482Y-113539812D01*
X115698180Y-113503502D01*
X115808494Y-113444537D01*
X115905185Y-113365185D01*
X115984537Y-113268494D01*
X116043502Y-113158180D01*
X116049056Y-113139873D01*
X116115495Y-113206312D01*
X116366905Y-113374299D01*
X116646257Y-113490011D01*
X116942816Y-113549000D01*
X117245184Y-113549000D01*
X117541743Y-113490011D01*
X117821095Y-113374299D01*
X118072505Y-113206312D01*
X118286312Y-112992505D01*
X118325946Y-112933189D01*
X118360150Y-112951472D01*
X118526746Y-113002008D01*
X118700000Y-113019072D01*
X119500000Y-113019072D01*
X119673254Y-113002008D01*
X119839850Y-112951472D01*
X119993386Y-112869405D01*
X120127962Y-112758962D01*
X120238405Y-112624386D01*
X120320472Y-112470850D01*
X120371008Y-112304254D01*
X120388072Y-112131000D01*
X120388072Y-111390056D01*
X120413744Y-111407209D01*
X120602102Y-111485230D01*
X120802061Y-111525004D01*
X120864199Y-111525004D01*
X120911928Y-111572734D01*
X120911928Y-112131000D01*
X120928992Y-112304254D01*
X120979528Y-112470850D01*
X121061595Y-112624386D01*
X121172038Y-112758962D01*
X121306614Y-112869405D01*
X121460150Y-112951472D01*
X121626746Y-113002008D01*
X121800000Y-113019072D01*
X122600000Y-113019072D01*
X122773254Y-113002008D01*
X122939850Y-112951472D01*
X123093386Y-112869405D01*
X123227962Y-112758962D01*
X123338405Y-112624386D01*
X123420472Y-112470850D01*
X123471008Y-112304254D01*
X123488072Y-112131000D01*
X123488072Y-111185000D01*
X128961928Y-111185000D01*
X128961928Y-112335000D01*
X128974188Y-112459482D01*
X129010498Y-112579180D01*
X129069463Y-112689494D01*
X129148815Y-112786185D01*
X129245506Y-112865537D01*
X129355820Y-112924502D01*
X129475518Y-112960812D01*
X129600000Y-112973072D01*
X130750000Y-112973072D01*
X130874482Y-112960812D01*
X130994180Y-112924502D01*
X131104494Y-112865537D01*
X131201185Y-112786185D01*
X131280537Y-112689494D01*
X131319814Y-112616012D01*
X131403671Y-112699869D01*
X131601851Y-112832288D01*
X131822057Y-112923501D01*
X132055826Y-112970000D01*
X132294176Y-112970000D01*
X132527945Y-112923501D01*
X132748151Y-112832288D01*
X132946331Y-112699869D01*
X133054326Y-112591874D01*
X133522731Y-112591874D01*
X133566993Y-112812916D01*
X133784089Y-112911301D01*
X134016208Y-112965442D01*
X134254429Y-112973258D01*
X134489598Y-112934450D01*
X134712677Y-112850509D01*
X134783007Y-112812916D01*
X134827269Y-112591874D01*
X134175000Y-111939605D01*
X133522731Y-112591874D01*
X133054326Y-112591874D01*
X133114870Y-112531330D01*
X133211972Y-112386006D01*
X133343126Y-112412269D01*
X133995395Y-111760000D01*
X134354605Y-111760000D01*
X135006874Y-112412269D01*
X135227916Y-112368007D01*
X135326301Y-112150911D01*
X135380442Y-111918792D01*
X135388258Y-111680571D01*
X135349450Y-111445402D01*
X135265509Y-111222323D01*
X135227916Y-111151993D01*
X135006874Y-111107731D01*
X134354605Y-111760000D01*
X133995395Y-111760000D01*
X133343126Y-111107731D01*
X133211972Y-111133994D01*
X133114870Y-110988670D01*
X133054326Y-110928126D01*
X133522731Y-110928126D01*
X134175000Y-111580395D01*
X134827269Y-110928126D01*
X134783007Y-110707084D01*
X134565911Y-110608699D01*
X134333792Y-110554558D01*
X134095571Y-110546742D01*
X133860402Y-110585550D01*
X133637323Y-110669491D01*
X133566993Y-110707084D01*
X133522731Y-110928126D01*
X133054326Y-110928126D01*
X132946331Y-110820131D01*
X132748151Y-110687712D01*
X132527945Y-110596499D01*
X132294176Y-110550000D01*
X132055826Y-110550000D01*
X131822057Y-110596499D01*
X131601851Y-110687712D01*
X131403671Y-110820131D01*
X131319814Y-110903988D01*
X131280537Y-110830506D01*
X131201185Y-110733815D01*
X131104494Y-110654463D01*
X130994180Y-110595498D01*
X130874482Y-110559188D01*
X130750000Y-110546928D01*
X129600000Y-110546928D01*
X129475518Y-110559188D01*
X129355820Y-110595498D01*
X129245506Y-110654463D01*
X129148815Y-110733815D01*
X129069463Y-110830506D01*
X129010498Y-110940820D01*
X128974188Y-111060518D01*
X128961928Y-111185000D01*
X123488072Y-111185000D01*
X123488072Y-110881000D01*
X123471008Y-110707746D01*
X123420472Y-110541150D01*
X123338405Y-110387614D01*
X123227962Y-110253038D01*
X123119480Y-110164010D01*
X142306858Y-110164010D01*
X142344180Y-110167686D01*
X142381502Y-110164010D01*
X142381513Y-110164010D01*
X142493166Y-110153013D01*
X142636427Y-110109556D01*
X142768456Y-110038984D01*
X142884181Y-109944011D01*
X142907984Y-109915007D01*
X143192007Y-109630984D01*
X143221011Y-109607181D01*
X143315984Y-109491456D01*
X143386556Y-109359427D01*
X143430013Y-109216166D01*
X143441010Y-109104513D01*
X143443522Y-109079000D01*
X143517928Y-109079000D01*
X143530188Y-109203482D01*
X143566498Y-109323180D01*
X143625463Y-109433494D01*
X143704815Y-109530185D01*
X143801506Y-109609537D01*
X143911820Y-109668502D01*
X144031518Y-109704812D01*
X144156000Y-109717072D01*
X144520250Y-109714000D01*
X144679000Y-109555250D01*
X144679000Y-108331000D01*
X144933000Y-108331000D01*
X144933000Y-109555250D01*
X145091750Y-109714000D01*
X145456000Y-109717072D01*
X145580482Y-109704812D01*
X145700180Y-109668502D01*
X145810494Y-109609537D01*
X145907185Y-109530185D01*
X145986537Y-109433494D01*
X146045502Y-109323180D01*
X146081812Y-109203482D01*
X146094072Y-109079000D01*
X146091000Y-108489750D01*
X145932250Y-108331000D01*
X144933000Y-108331000D01*
X144679000Y-108331000D01*
X143679750Y-108331000D01*
X143521000Y-108489750D01*
X143517928Y-109079000D01*
X143443522Y-109079000D01*
X143444687Y-109067180D01*
X143441010Y-109029847D01*
X143441010Y-107582791D01*
X143518845Y-107504956D01*
X143521000Y-107918250D01*
X143679750Y-108077000D01*
X144679000Y-108077000D01*
X144679000Y-108057000D01*
X144933000Y-108057000D01*
X144933000Y-108077000D01*
X145932250Y-108077000D01*
X146091000Y-107918250D01*
X146094072Y-107329000D01*
X146081812Y-107204518D01*
X146045502Y-107084820D01*
X145986537Y-106974506D01*
X145981053Y-106967823D01*
X146026472Y-106882850D01*
X146077008Y-106716254D01*
X146094072Y-106543000D01*
X146094072Y-105293000D01*
X146077008Y-105119746D01*
X146026472Y-104953150D01*
X145944405Y-104799614D01*
X145833962Y-104665038D01*
X145699386Y-104554595D01*
X145692615Y-104550976D01*
X145779494Y-104504537D01*
X145876185Y-104425185D01*
X145955537Y-104328494D01*
X146014502Y-104218180D01*
X146050715Y-104098801D01*
X146052454Y-104113902D01*
X146091710Y-104232666D01*
X146153381Y-104341490D01*
X146235097Y-104436192D01*
X146333719Y-104513132D01*
X146445456Y-104569353D01*
X146566014Y-104602695D01*
X146690761Y-104611877D01*
X146714250Y-104609000D01*
X146873000Y-104450250D01*
X146873000Y-103962072D01*
X147127000Y-103962072D01*
X147127000Y-104450250D01*
X147285750Y-104609000D01*
X147309239Y-104611877D01*
X147433986Y-104602695D01*
X147554544Y-104569353D01*
X147666281Y-104513132D01*
X147764903Y-104436192D01*
X147846619Y-104341490D01*
X147908290Y-104232666D01*
X147947546Y-104113902D01*
X147960000Y-104005750D01*
X147801250Y-103847000D01*
X147688678Y-103847000D01*
X147776185Y-103775185D01*
X147855537Y-103678494D01*
X147892032Y-103610218D01*
X147960000Y-103542250D01*
X147949645Y-103452328D01*
X147950812Y-103448482D01*
X147963072Y-103324000D01*
X147963072Y-102924000D01*
X147950812Y-102799518D01*
X147950655Y-102799000D01*
X147950812Y-102798482D01*
X147963072Y-102674000D01*
X147963072Y-102274000D01*
X147950812Y-102149518D01*
X147914502Y-102029820D01*
X147855537Y-101919506D01*
X147776185Y-101822815D01*
X147679494Y-101743463D01*
X147569180Y-101684498D01*
X147449482Y-101648188D01*
X147325000Y-101635928D01*
X146675000Y-101635928D01*
X146550518Y-101648188D01*
X146492567Y-101665767D01*
X146489010Y-101629657D01*
X146489010Y-95871000D01*
X146565928Y-95871000D01*
X146578188Y-95995482D01*
X146614498Y-96115180D01*
X146673463Y-96225494D01*
X146752815Y-96322185D01*
X146849506Y-96401537D01*
X146959820Y-96460502D01*
X147079518Y-96496812D01*
X147204000Y-96509072D01*
X147568250Y-96506000D01*
X147727000Y-96347250D01*
X147727000Y-95123000D01*
X147981000Y-95123000D01*
X147981000Y-96347250D01*
X148139750Y-96506000D01*
X148504000Y-96509072D01*
X148628482Y-96496812D01*
X148748180Y-96460502D01*
X148858494Y-96401537D01*
X148955185Y-96322185D01*
X149034537Y-96225494D01*
X149093502Y-96115180D01*
X149129812Y-95995482D01*
X149142072Y-95871000D01*
X149139000Y-95281750D01*
X148980250Y-95123000D01*
X147981000Y-95123000D01*
X147727000Y-95123000D01*
X146727750Y-95123000D01*
X146569000Y-95281750D01*
X146565928Y-95871000D01*
X146489010Y-95871000D01*
X146489010Y-93734832D01*
X146492686Y-93697509D01*
X146489010Y-93660186D01*
X146489010Y-93660177D01*
X146484068Y-93610000D01*
X146565928Y-93610000D01*
X146578188Y-93734482D01*
X146614498Y-93854180D01*
X146620549Y-93865500D01*
X146614498Y-93876820D01*
X146578188Y-93996518D01*
X146565928Y-94121000D01*
X146569000Y-94710250D01*
X146727750Y-94869000D01*
X147727000Y-94869000D01*
X147727000Y-94098750D01*
X147739500Y-94086250D01*
X147739500Y-93644750D01*
X147981000Y-93644750D01*
X147981000Y-94869000D01*
X148980250Y-94869000D01*
X149139000Y-94710250D01*
X149142072Y-94121000D01*
X149129812Y-93996518D01*
X149098172Y-93892214D01*
X149118502Y-93854180D01*
X149154812Y-93734482D01*
X149167072Y-93610000D01*
X149164000Y-92995750D01*
X149005250Y-92837000D01*
X147993500Y-92837000D01*
X147993500Y-93632250D01*
X147981000Y-93644750D01*
X147739500Y-93644750D01*
X147739500Y-92837000D01*
X146727750Y-92837000D01*
X146569000Y-92995750D01*
X146565928Y-93610000D01*
X146484068Y-93610000D01*
X146478013Y-93548524D01*
X146434556Y-93405263D01*
X146363984Y-93273233D01*
X146292809Y-93186507D01*
X146269011Y-93157509D01*
X146240014Y-93133712D01*
X146042072Y-92935770D01*
X146042072Y-92059997D01*
X146025008Y-91886743D01*
X145974472Y-91720148D01*
X145892405Y-91566612D01*
X145879682Y-91551109D01*
X145884494Y-91548537D01*
X145930000Y-91511191D01*
X145975506Y-91548537D01*
X146085820Y-91607502D01*
X146205518Y-91643812D01*
X146330000Y-91656072D01*
X146587638Y-91654367D01*
X146578188Y-91685518D01*
X146565928Y-91810000D01*
X146569000Y-92424250D01*
X146727750Y-92583000D01*
X147739500Y-92583000D01*
X147739500Y-92563000D01*
X147993500Y-92563000D01*
X147993500Y-92583000D01*
X149005250Y-92583000D01*
X149164000Y-92424250D01*
X149167072Y-91810000D01*
X149154812Y-91685518D01*
X149118502Y-91565820D01*
X149059537Y-91455506D01*
X148980185Y-91358815D01*
X148883494Y-91279463D01*
X148773180Y-91220498D01*
X148653482Y-91184188D01*
X148529000Y-91171928D01*
X148446676Y-91172599D01*
X148455812Y-91142482D01*
X148468072Y-91018000D01*
X148465000Y-90303750D01*
X148306250Y-90145000D01*
X147207000Y-90145000D01*
X147207000Y-90165000D01*
X146953000Y-90165000D01*
X146953000Y-90145000D01*
X146933000Y-90145000D01*
X146933000Y-89891000D01*
X146953000Y-89891000D01*
X146953000Y-88541750D01*
X147207000Y-88541750D01*
X147207000Y-89891000D01*
X148306250Y-89891000D01*
X148465000Y-89732250D01*
X148468072Y-89018000D01*
X148455812Y-88893518D01*
X148419502Y-88773820D01*
X148360537Y-88663506D01*
X148281185Y-88566815D01*
X148184494Y-88487463D01*
X148074180Y-88428498D01*
X147954482Y-88392188D01*
X147830000Y-88379928D01*
X147365750Y-88383000D01*
X147207000Y-88541750D01*
X146953000Y-88541750D01*
X146794250Y-88383000D01*
X146330000Y-88379928D01*
X146205518Y-88392188D01*
X146085820Y-88428498D01*
X145975506Y-88487463D01*
X145930000Y-88524809D01*
X145884494Y-88487463D01*
X145774180Y-88428498D01*
X145654482Y-88392188D01*
X145540000Y-88380913D01*
X145540000Y-85356072D01*
X146680000Y-85356072D01*
X146804482Y-85343812D01*
X146924180Y-85307502D01*
X147034494Y-85248537D01*
X147131185Y-85169185D01*
X147210537Y-85072494D01*
X147269502Y-84962180D01*
X147305812Y-84842482D01*
X147318072Y-84718000D01*
X147318072Y-82718000D01*
X147305812Y-82593518D01*
X147269502Y-82473820D01*
X147210537Y-82363506D01*
X147131185Y-82266815D01*
X147034494Y-82187463D01*
X146924180Y-82128498D01*
X146804482Y-82092188D01*
X146680000Y-82079928D01*
X142880000Y-82079928D01*
X142755518Y-82092188D01*
X142635820Y-82128498D01*
X142525506Y-82187463D01*
X142428815Y-82266815D01*
X142349463Y-82363506D01*
X142290498Y-82473820D01*
X142254188Y-82593518D01*
X142241928Y-82718000D01*
X142241928Y-83931939D01*
X142222256Y-83918795D01*
X142033898Y-83840774D01*
X141833939Y-83801000D01*
X141630061Y-83801000D01*
X141430102Y-83840774D01*
X141241744Y-83918795D01*
X141072226Y-84032063D01*
X140928063Y-84176226D01*
X140814795Y-84345744D01*
X140736774Y-84534102D01*
X140697000Y-84734061D01*
X140697000Y-84937939D01*
X140736774Y-85137898D01*
X140814795Y-85326256D01*
X140928063Y-85495774D01*
X141072226Y-85639937D01*
X141241744Y-85753205D01*
X141430102Y-85831226D01*
X141630061Y-85871000D01*
X141692198Y-85871000D01*
X141720000Y-85898802D01*
X141720001Y-88380913D01*
X141605518Y-88392188D01*
X141485820Y-88428498D01*
X141375506Y-88487463D01*
X141278815Y-88566815D01*
X141199463Y-88663506D01*
X141140498Y-88773820D01*
X141104188Y-88893518D01*
X141091928Y-89018000D01*
X141091928Y-91018000D01*
X141104188Y-91142482D01*
X141140498Y-91262180D01*
X141199463Y-91372494D01*
X141278815Y-91469185D01*
X141375506Y-91548537D01*
X141485820Y-91607502D01*
X141605518Y-91643812D01*
X141607585Y-91644016D01*
X141553528Y-91745149D01*
X141502992Y-91911745D01*
X141485928Y-92084999D01*
X141485928Y-93335001D01*
X141498178Y-93459376D01*
X140962072Y-92923271D01*
X140962072Y-92084999D01*
X140945008Y-91911745D01*
X140894472Y-91745149D01*
X140812405Y-91591613D01*
X140701962Y-91457038D01*
X140567387Y-91346595D01*
X140413851Y-91264528D01*
X140247255Y-91213992D01*
X140074001Y-91196928D01*
X139273999Y-91196928D01*
X139190000Y-91205201D01*
X139190000Y-90722072D01*
X139309000Y-90722072D01*
X139482254Y-90705008D01*
X139648850Y-90654472D01*
X139802386Y-90572405D01*
X139936962Y-90461962D01*
X140047405Y-90327386D01*
X140129472Y-90173850D01*
X140180008Y-90007254D01*
X140197072Y-89834000D01*
X140197072Y-89034000D01*
X140180008Y-88860746D01*
X140129472Y-88694150D01*
X140047405Y-88540614D01*
X139936962Y-88406038D01*
X139802386Y-88295595D01*
X139648850Y-88213528D01*
X139482254Y-88162992D01*
X139309000Y-88145928D01*
X138059000Y-88145928D01*
X137885746Y-88162992D01*
X137719150Y-88213528D01*
X137565614Y-88295595D01*
X137541000Y-88315795D01*
X137516386Y-88295595D01*
X137362850Y-88213528D01*
X137196254Y-88162992D01*
X137023000Y-88145928D01*
X136790052Y-88145928D01*
X136807205Y-88120256D01*
X136885226Y-87931898D01*
X136925000Y-87731939D01*
X136925000Y-87622072D01*
X137023000Y-87622072D01*
X137196254Y-87605008D01*
X137362850Y-87554472D01*
X137516386Y-87472405D01*
X137541000Y-87452205D01*
X137565614Y-87472405D01*
X137719150Y-87554472D01*
X137885746Y-87605008D01*
X138059000Y-87622072D01*
X139309000Y-87622072D01*
X139482254Y-87605008D01*
X139648850Y-87554472D01*
X139802386Y-87472405D01*
X139936962Y-87361962D01*
X140047405Y-87227386D01*
X140129472Y-87073850D01*
X140180008Y-86907254D01*
X140197072Y-86734000D01*
X140197072Y-85934000D01*
X140180008Y-85760746D01*
X140129472Y-85594150D01*
X140047405Y-85440614D01*
X139936962Y-85306038D01*
X139802386Y-85195595D01*
X139648850Y-85113528D01*
X139482254Y-85062992D01*
X139309000Y-85045928D01*
X138059000Y-85045928D01*
X137885746Y-85062992D01*
X137719150Y-85113528D01*
X137565614Y-85195595D01*
X137541000Y-85215795D01*
X137516386Y-85195595D01*
X137362850Y-85113528D01*
X137196254Y-85062992D01*
X137023000Y-85045928D01*
X135773000Y-85045928D01*
X135599746Y-85062992D01*
X135433150Y-85113528D01*
X135279614Y-85195595D01*
X135145038Y-85306038D01*
X135117331Y-85339799D01*
X135110962Y-85332038D01*
X134976387Y-85221595D01*
X134822851Y-85139528D01*
X134656255Y-85088992D01*
X134483001Y-85071928D01*
X133737876Y-85071928D01*
X135893003Y-82916801D01*
X135922001Y-82893003D01*
X135948332Y-82860919D01*
X136016974Y-82777279D01*
X136087546Y-82645249D01*
X136103238Y-82593518D01*
X136131003Y-82501988D01*
X136142000Y-82390335D01*
X136142000Y-82390326D01*
X136145676Y-82353003D01*
X136142000Y-82315680D01*
X136142000Y-79951711D01*
X136185937Y-79907774D01*
X136299205Y-79738256D01*
X136377226Y-79549898D01*
X136417000Y-79349939D01*
X136417000Y-79146061D01*
X136377226Y-78946102D01*
X136299205Y-78757744D01*
X136185937Y-78588226D01*
X136041774Y-78444063D01*
X135872256Y-78330795D01*
X135683898Y-78252774D01*
X135483939Y-78213000D01*
X135280061Y-78213000D01*
X135080102Y-78252774D01*
X134891744Y-78330795D01*
X134722226Y-78444063D01*
X134578063Y-78588226D01*
X134464795Y-78757744D01*
X134386774Y-78946102D01*
X134347000Y-79146061D01*
X134347000Y-79349939D01*
X134386774Y-79549898D01*
X134464795Y-79738256D01*
X134578063Y-79907774D01*
X134622000Y-79951711D01*
X134622001Y-82038199D01*
X127222956Y-89437245D01*
X127151774Y-89366063D01*
X126982256Y-89252795D01*
X126793898Y-89174774D01*
X126593939Y-89135000D01*
X126390061Y-89135000D01*
X126190102Y-89174774D01*
X126001744Y-89252795D01*
X125832226Y-89366063D01*
X125787359Y-89410930D01*
X125799072Y-89292000D01*
X125796000Y-88677750D01*
X125637250Y-88519000D01*
X124625500Y-88519000D01*
X124625500Y-89314250D01*
X124613000Y-89326750D01*
X124613000Y-90551000D01*
X124633000Y-90551000D01*
X124633000Y-90805000D01*
X124613000Y-90805000D01*
X124613000Y-90825000D01*
X124359000Y-90825000D01*
X124359000Y-90805000D01*
X123359750Y-90805000D01*
X123201000Y-90963750D01*
X123197928Y-91553000D01*
X123210188Y-91677482D01*
X123246498Y-91797180D01*
X123305463Y-91907494D01*
X123384815Y-92004185D01*
X123481506Y-92083537D01*
X123591820Y-92142502D01*
X123711518Y-92178812D01*
X123836000Y-92191072D01*
X124200250Y-92188000D01*
X124358998Y-92029252D01*
X124358998Y-92188000D01*
X124468462Y-92188000D01*
X124480774Y-92249898D01*
X124558795Y-92438256D01*
X124672063Y-92607774D01*
X124816226Y-92751937D01*
X124985744Y-92865205D01*
X125174102Y-92943226D01*
X125374061Y-92983000D01*
X125577939Y-92983000D01*
X125777898Y-92943226D01*
X125966256Y-92865205D01*
X126135774Y-92751937D01*
X126240000Y-92647711D01*
X126240001Y-94800288D01*
X126196063Y-94844226D01*
X126082795Y-95013744D01*
X126004774Y-95202102D01*
X125965000Y-95402061D01*
X125965000Y-95605939D01*
X125967797Y-95620000D01*
X125945498Y-95620000D01*
X125945498Y-95778748D01*
X125786750Y-95620000D01*
X125410000Y-95616928D01*
X125285518Y-95629188D01*
X125165820Y-95665498D01*
X125055506Y-95724463D01*
X124992055Y-95776536D01*
X124943386Y-95736595D01*
X124789850Y-95654528D01*
X124623254Y-95603992D01*
X124450000Y-95586928D01*
X123200000Y-95586928D01*
X123026746Y-95603992D01*
X122860150Y-95654528D01*
X122826044Y-95672758D01*
X122872013Y-95626789D01*
X122901011Y-95602991D01*
X122995984Y-95487266D01*
X123066556Y-95355237D01*
X123110013Y-95211976D01*
X123121010Y-95100323D01*
X123124687Y-95062990D01*
X123121010Y-95025657D01*
X123121010Y-89416832D01*
X123124686Y-89379509D01*
X123121010Y-89342186D01*
X123121010Y-89342177D01*
X123116068Y-89292000D01*
X123197928Y-89292000D01*
X123210188Y-89416482D01*
X123246498Y-89536180D01*
X123252549Y-89547500D01*
X123246498Y-89558820D01*
X123210188Y-89678518D01*
X123197928Y-89803000D01*
X123201000Y-90392250D01*
X123359750Y-90551000D01*
X124359000Y-90551000D01*
X124359000Y-89780750D01*
X124371500Y-89768250D01*
X124371500Y-88519000D01*
X123359750Y-88519000D01*
X123201000Y-88677750D01*
X123197928Y-89292000D01*
X123116068Y-89292000D01*
X123110013Y-89230524D01*
X123066556Y-89087263D01*
X122995984Y-88955233D01*
X122924809Y-88868507D01*
X122901011Y-88839509D01*
X122872014Y-88815712D01*
X122674072Y-88617770D01*
X122674072Y-87741999D01*
X122657008Y-87568745D01*
X122633728Y-87492000D01*
X123197928Y-87492000D01*
X123201000Y-88106250D01*
X123359750Y-88265000D01*
X124371500Y-88265000D01*
X124371500Y-87015750D01*
X124625500Y-87015750D01*
X124625500Y-88265000D01*
X125637250Y-88265000D01*
X125796000Y-88106250D01*
X125799072Y-87492000D01*
X125786812Y-87367518D01*
X125750502Y-87247820D01*
X125691537Y-87137506D01*
X125612185Y-87040815D01*
X125515494Y-86961463D01*
X125405180Y-86902498D01*
X125285482Y-86866188D01*
X125161000Y-86853928D01*
X124784250Y-86857000D01*
X124625500Y-87015750D01*
X124371500Y-87015750D01*
X124212750Y-86857000D01*
X123836000Y-86853928D01*
X123711518Y-86866188D01*
X123591820Y-86902498D01*
X123481506Y-86961463D01*
X123384815Y-87040815D01*
X123305463Y-87137506D01*
X123246498Y-87247820D01*
X123210188Y-87367518D01*
X123197928Y-87492000D01*
X122633728Y-87492000D01*
X122606472Y-87402149D01*
X122524405Y-87248613D01*
X122413962Y-87114038D01*
X122279387Y-87003595D01*
X122125851Y-86921528D01*
X121959255Y-86870992D01*
X121786001Y-86853928D01*
X120960999Y-86853928D01*
X120914781Y-86858480D01*
X120737293Y-86680992D01*
X120713491Y-86651989D01*
X120597766Y-86557016D01*
X120465737Y-86486444D01*
X120322476Y-86442987D01*
X120210823Y-86431990D01*
X120210812Y-86431990D01*
X120173490Y-86428314D01*
X120136168Y-86431990D01*
X120010284Y-86431990D01*
X120083146Y-86400091D01*
X120283151Y-86260598D01*
X120452100Y-86084766D01*
X120583499Y-85879352D01*
X120672299Y-85652251D01*
X120715088Y-85412189D01*
X120556274Y-85217000D01*
X119602000Y-85217000D01*
X119602000Y-85237000D01*
X119348000Y-85237000D01*
X119348000Y-85217000D01*
X119328000Y-85217000D01*
X119328000Y-84963000D01*
X119348000Y-84963000D01*
X119348000Y-83217000D01*
X119602000Y-83217000D01*
X119602000Y-84963000D01*
X120556274Y-84963000D01*
X120715088Y-84767811D01*
X120672299Y-84527749D01*
X120583499Y-84300648D01*
X120452100Y-84095234D01*
X120447071Y-84090000D01*
X120452100Y-84084766D01*
X120583499Y-83879352D01*
X120672299Y-83652251D01*
X120715088Y-83412189D01*
X120556274Y-83217000D01*
X119602000Y-83217000D01*
X119348000Y-83217000D01*
X119328000Y-83217000D01*
X119328000Y-82963000D01*
X119348000Y-82963000D01*
X119348000Y-81796269D01*
X119602000Y-81796269D01*
X119602000Y-82963000D01*
X120556274Y-82963000D01*
X120715088Y-82767811D01*
X120672299Y-82527749D01*
X120583499Y-82300648D01*
X120452100Y-82095234D01*
X120283151Y-81919402D01*
X120083146Y-81779909D01*
X119859770Y-81682115D01*
X119792609Y-81671538D01*
X119602000Y-81796269D01*
X119348000Y-81796269D01*
X119157391Y-81671538D01*
X119090230Y-81682115D01*
X118866854Y-81779909D01*
X118666849Y-81919402D01*
X118497900Y-82095234D01*
X118472940Y-82134253D01*
X118352502Y-81987498D01*
X118164448Y-81833167D01*
X117949900Y-81718489D01*
X117717101Y-81647870D01*
X117475000Y-81624025D01*
X117232898Y-81647870D01*
X117000099Y-81718489D01*
X116785551Y-81833167D01*
X116597498Y-81987498D01*
X116565809Y-82026111D01*
X116563405Y-82021613D01*
X116452962Y-81887038D01*
X116318387Y-81776595D01*
X116164851Y-81694528D01*
X116104398Y-81676190D01*
X117772589Y-80008000D01*
X118168289Y-80008000D01*
X118212226Y-80051937D01*
X118381744Y-80165205D01*
X118570102Y-80243226D01*
X118770061Y-80283000D01*
X118973939Y-80283000D01*
X119173898Y-80243226D01*
X119362256Y-80165205D01*
X119531774Y-80051937D01*
X119675937Y-79907774D01*
X119789205Y-79738256D01*
X119867226Y-79549898D01*
X119907000Y-79349939D01*
X119907000Y-79146061D01*
X119867226Y-78946102D01*
X119789205Y-78757744D01*
X119675937Y-78588226D01*
X119531774Y-78444063D01*
X119362256Y-78330795D01*
X119173898Y-78252774D01*
X118973939Y-78213000D01*
X118770061Y-78213000D01*
X118570102Y-78252774D01*
X118381744Y-78330795D01*
X118212226Y-78444063D01*
X118168289Y-78488000D01*
X117495110Y-78488000D01*
X117457787Y-78484324D01*
X117420464Y-78488000D01*
X117420454Y-78488000D01*
X117308801Y-78498997D01*
X117165540Y-78542454D01*
X117033510Y-78613026D01*
X116949870Y-78681668D01*
X116917786Y-78707999D01*
X116893988Y-78736997D01*
X114038993Y-81591993D01*
X114009989Y-81615796D01*
X113984007Y-81647456D01*
X113915016Y-81731521D01*
X113871464Y-81813001D01*
X113844444Y-81863551D01*
X113800987Y-82006812D01*
X113789990Y-82118465D01*
X113789990Y-82118475D01*
X113786314Y-82155797D01*
X113789990Y-82193120D01*
X113789991Y-85660819D01*
X113786314Y-85698151D01*
X113789991Y-85735484D01*
X113800988Y-85847137D01*
X113806406Y-85864997D01*
X113844444Y-85990397D01*
X113915016Y-86122427D01*
X113986191Y-86209153D01*
X114009990Y-86238152D01*
X114038988Y-86261950D01*
X114751635Y-86974598D01*
X114650614Y-87028595D01*
X114516038Y-87139038D01*
X114405595Y-87273614D01*
X114323528Y-87427150D01*
X114272992Y-87593746D01*
X114255928Y-87767000D01*
X114255928Y-89017000D01*
X114272992Y-89190254D01*
X114323528Y-89356850D01*
X114405595Y-89510386D01*
X114484312Y-89606303D01*
X114481595Y-89609613D01*
X114399528Y-89763149D01*
X114348992Y-89929745D01*
X114331928Y-90102999D01*
X114331928Y-91253001D01*
X114348992Y-91426255D01*
X114399528Y-91592851D01*
X114481595Y-91746387D01*
X114521410Y-91794902D01*
X114423489Y-91978100D01*
X114352870Y-92210899D01*
X114335000Y-92392336D01*
X114335000Y-92963665D01*
X114352870Y-93145102D01*
X114423489Y-93377901D01*
X114538168Y-93592449D01*
X114692499Y-93780502D01*
X114880552Y-93934833D01*
X115095100Y-94049511D01*
X115327899Y-94120130D01*
X115570000Y-94143975D01*
X115812102Y-94120130D01*
X116044901Y-94049511D01*
X116259449Y-93934833D01*
X116447502Y-93780502D01*
X116567940Y-93633747D01*
X116592900Y-93672766D01*
X116761849Y-93848598D01*
X116961854Y-93988091D01*
X117185230Y-94085885D01*
X117252391Y-94096462D01*
X117443000Y-93971731D01*
X117443000Y-92805000D01*
X117697000Y-92805000D01*
X117697000Y-93971731D01*
X117887609Y-94096462D01*
X117954770Y-94085885D01*
X118178146Y-93988091D01*
X118378151Y-93848598D01*
X118547100Y-93672766D01*
X118570000Y-93636967D01*
X118592900Y-93672766D01*
X118761849Y-93848598D01*
X118961854Y-93988091D01*
X119185230Y-94085885D01*
X119252391Y-94096462D01*
X119443000Y-93971731D01*
X119443000Y-92805000D01*
X119697000Y-92805000D01*
X119697000Y-93971731D01*
X119887609Y-94096462D01*
X119954770Y-94085885D01*
X120178146Y-93988091D01*
X120378151Y-93848598D01*
X120547100Y-93672766D01*
X120678499Y-93467352D01*
X120767299Y-93240251D01*
X120810088Y-93000189D01*
X120651274Y-92805000D01*
X119697000Y-92805000D01*
X119443000Y-92805000D01*
X117697000Y-92805000D01*
X117443000Y-92805000D01*
X117423000Y-92805000D01*
X117423000Y-92551000D01*
X117443000Y-92551000D01*
X117443000Y-92531000D01*
X117697000Y-92531000D01*
X117697000Y-92551000D01*
X119443000Y-92551000D01*
X119443000Y-92531000D01*
X119697000Y-92531000D01*
X119697000Y-92551000D01*
X120651274Y-92551000D01*
X120810088Y-92355811D01*
X120775679Y-92162764D01*
X120812746Y-92174008D01*
X120986000Y-92191072D01*
X121601010Y-92191072D01*
X121601011Y-94748187D01*
X120610199Y-95739000D01*
X120548061Y-95739000D01*
X120348102Y-95778774D01*
X120159744Y-95856795D01*
X119990226Y-95970063D01*
X119846063Y-96114226D01*
X119732795Y-96283744D01*
X119654774Y-96472102D01*
X119615000Y-96672061D01*
X119615000Y-96776000D01*
X118836072Y-96776000D01*
X118836072Y-96686000D01*
X118823812Y-96561518D01*
X118787502Y-96441820D01*
X118728537Y-96331506D01*
X118649185Y-96234815D01*
X118552494Y-96155463D01*
X118442180Y-96096498D01*
X118322482Y-96060188D01*
X118198000Y-96047928D01*
X116498000Y-96047928D01*
X116373518Y-96060188D01*
X116253820Y-96096498D01*
X116143506Y-96155463D01*
X116046815Y-96234815D01*
X115967463Y-96331506D01*
X115908498Y-96441820D01*
X115886487Y-96514380D01*
X115754632Y-96382525D01*
X115511411Y-96220010D01*
X115241158Y-96108068D01*
X114954260Y-96051000D01*
X114661740Y-96051000D01*
X114374842Y-96108068D01*
X114104589Y-96220010D01*
X113861368Y-96382525D01*
X113654525Y-96589368D01*
X113492010Y-96832589D01*
X113380068Y-97102842D01*
X113323000Y-97389740D01*
X113323000Y-97682260D01*
X113380068Y-97969158D01*
X113492010Y-98239411D01*
X113654525Y-98482632D01*
X113774099Y-98602206D01*
X113763148Y-98605528D01*
X113609612Y-98687595D01*
X113475037Y-98798037D01*
X113364595Y-98932612D01*
X113282528Y-99086148D01*
X113231992Y-99252743D01*
X113214928Y-99425997D01*
X113214928Y-100726003D01*
X113231992Y-100899257D01*
X113282528Y-101065852D01*
X113364595Y-101219388D01*
X113475037Y-101353963D01*
X113481044Y-101358893D01*
X113409820Y-101380498D01*
X113299506Y-101439463D01*
X113202815Y-101518815D01*
X113123463Y-101615506D01*
X113064498Y-101725820D01*
X113028188Y-101845518D01*
X113015928Y-101970000D01*
X112420000Y-101970000D01*
X112420000Y-73282481D01*
X114603124Y-73282481D01*
X114915308Y-73731177D01*
X115511259Y-74051612D01*
X116158273Y-74249626D01*
X116831484Y-74317610D01*
X117505023Y-74252949D01*
X118153006Y-74058130D01*
X118750530Y-73740639D01*
X118764692Y-73731177D01*
X119076876Y-73282481D01*
X146607124Y-73282481D01*
X146919308Y-73731177D01*
X147515259Y-74051612D01*
X148162273Y-74249626D01*
X148835484Y-74317610D01*
X149509023Y-74252949D01*
X150157006Y-74058130D01*
X150754530Y-73740639D01*
X150768692Y-73731177D01*
X151080876Y-73282481D01*
X148844000Y-71045605D01*
X146607124Y-73282481D01*
X119076876Y-73282481D01*
X116840000Y-71045605D01*
X114603124Y-73282481D01*
X112420000Y-73282481D01*
X112420000Y-70857484D01*
X113388390Y-70857484D01*
X113453051Y-71531023D01*
X113647870Y-72179006D01*
X113965361Y-72776530D01*
X113974823Y-72790692D01*
X114423519Y-73102876D01*
X116660395Y-70866000D01*
X117019605Y-70866000D01*
X119256481Y-73102876D01*
X119705177Y-72790692D01*
X120025612Y-72194741D01*
X120223626Y-71547727D01*
X120291610Y-70874516D01*
X120289975Y-70857484D01*
X145392390Y-70857484D01*
X145457051Y-71531023D01*
X145651870Y-72179006D01*
X145969361Y-72776530D01*
X145978823Y-72790692D01*
X146427519Y-73102876D01*
X148664395Y-70866000D01*
X149023605Y-70866000D01*
X151260481Y-73102876D01*
X151709177Y-72790692D01*
X152029612Y-72194741D01*
X152227626Y-71547727D01*
X152295610Y-70874516D01*
X152230949Y-70200977D01*
X152036130Y-69552994D01*
X151718639Y-68955470D01*
X151709177Y-68941308D01*
X151260481Y-68629124D01*
X149023605Y-70866000D01*
X148664395Y-70866000D01*
X146427519Y-68629124D01*
X145978823Y-68941308D01*
X145658388Y-69537259D01*
X145460374Y-70184273D01*
X145392390Y-70857484D01*
X120289975Y-70857484D01*
X120226949Y-70200977D01*
X120032130Y-69552994D01*
X119714639Y-68955470D01*
X119705177Y-68941308D01*
X119256481Y-68629124D01*
X117019605Y-70866000D01*
X116660395Y-70866000D01*
X114423519Y-68629124D01*
X113974823Y-68941308D01*
X113654388Y-69537259D01*
X113456374Y-70184273D01*
X113388390Y-70857484D01*
X112420000Y-70857484D01*
X112420000Y-69374279D01*
X112473421Y-68829449D01*
X112588128Y-68449519D01*
X114603124Y-68449519D01*
X116840000Y-70686395D01*
X119076876Y-68449519D01*
X146607124Y-68449519D01*
X148844000Y-70686395D01*
X151080876Y-68449519D01*
X150768692Y-68000823D01*
X150172741Y-67680388D01*
X149525727Y-67482374D01*
X148852516Y-67414390D01*
X148178977Y-67479051D01*
X147530994Y-67673870D01*
X146933470Y-67991361D01*
X146919308Y-68000823D01*
X146607124Y-68449519D01*
X119076876Y-68449519D01*
X118764692Y-68000823D01*
X118168741Y-67680388D01*
X117521727Y-67482374D01*
X116848516Y-67414390D01*
X116174977Y-67479051D01*
X115526994Y-67673870D01*
X114929470Y-67991361D01*
X114915308Y-68000823D01*
X114603124Y-68449519D01*
X112588128Y-68449519D01*
X112622275Y-68336420D01*
X112864061Y-67881687D01*
X113189557Y-67482590D01*
X113586384Y-67154306D01*
X114039410Y-66909356D01*
X114531392Y-66757062D01*
X115074295Y-66700000D01*
X150335721Y-66700000D01*
X150880551Y-66753421D01*
G37*
%TD.AperFunction*%
D25*
X140189000Y-103987939D02*
X140228774Y-104187898D01*
X140306795Y-104376256D01*
X140420063Y-104545774D01*
X140564226Y-104689937D01*
X140624534Y-104730233D01*
X140567595Y-104799614D01*
X140485528Y-104953150D01*
X140434992Y-105119746D01*
X140417928Y-105293000D01*
X140417928Y-106543000D01*
X140434992Y-106716254D01*
X140485528Y-106882850D01*
X140567595Y-107036386D01*
X140587795Y-107061000D01*
X140567595Y-107085614D01*
X140485528Y-107239150D01*
X140434992Y-107405746D01*
X140417928Y-107579000D01*
X140417928Y-108644010D01*
X123395228Y-108644010D01*
X123439502Y-108561180D01*
X123475812Y-108441482D01*
X123488072Y-108317000D01*
X123485000Y-107727750D01*
X123326250Y-107569000D01*
X122327000Y-107569000D01*
X122327000Y-107589000D01*
X122073000Y-107589000D01*
X122073000Y-107569000D01*
X122053000Y-107569000D01*
X122053000Y-107315000D01*
X122073000Y-107315000D01*
X122073000Y-107295000D01*
X122327000Y-107295000D01*
X122327000Y-107315000D01*
X123326250Y-107315000D01*
X123485000Y-107156250D01*
X123488072Y-106567000D01*
X123475812Y-106442518D01*
X123470195Y-106424000D01*
X136106678Y-106424000D01*
X136144000Y-106427676D01*
X136181322Y-106424000D01*
X136181333Y-106424000D01*
X136292986Y-106413003D01*
X136436247Y-106369546D01*
X136568276Y-106298974D01*
X136684001Y-106204001D01*
X136707804Y-106174998D01*
X137199802Y-105683000D01*
X137261939Y-105683000D01*
X137461898Y-105643226D01*
X137650256Y-105565205D01*
X137819774Y-105451937D01*
X137963937Y-105307774D01*
X138077205Y-105138256D01*
X138155226Y-104949898D01*
X138195000Y-104749939D01*
X138195000Y-104546061D01*
X138155226Y-104346102D01*
X138077205Y-104157744D01*
X137963937Y-103988226D01*
X137859711Y-103884000D01*
X140189000Y-103884000D01*
X140189000Y-103987939D01*
%TA.AperFunction,Conductor*%
D26*
G36*
X140189000Y-103987939D02*
G01*
X140228774Y-104187898D01*
X140306795Y-104376256D01*
X140420063Y-104545774D01*
X140564226Y-104689937D01*
X140624534Y-104730233D01*
X140567595Y-104799614D01*
X140485528Y-104953150D01*
X140434992Y-105119746D01*
X140417928Y-105293000D01*
X140417928Y-106543000D01*
X140434992Y-106716254D01*
X140485528Y-106882850D01*
X140567595Y-107036386D01*
X140587795Y-107061000D01*
X140567595Y-107085614D01*
X140485528Y-107239150D01*
X140434992Y-107405746D01*
X140417928Y-107579000D01*
X140417928Y-108644010D01*
X123395228Y-108644010D01*
X123439502Y-108561180D01*
X123475812Y-108441482D01*
X123488072Y-108317000D01*
X123485000Y-107727750D01*
X123326250Y-107569000D01*
X122327000Y-107569000D01*
X122327000Y-107589000D01*
X122073000Y-107589000D01*
X122073000Y-107569000D01*
X122053000Y-107569000D01*
X122053000Y-107315000D01*
X122073000Y-107315000D01*
X122073000Y-107295000D01*
X122327000Y-107295000D01*
X122327000Y-107315000D01*
X123326250Y-107315000D01*
X123485000Y-107156250D01*
X123488072Y-106567000D01*
X123475812Y-106442518D01*
X123470195Y-106424000D01*
X136106678Y-106424000D01*
X136144000Y-106427676D01*
X136181322Y-106424000D01*
X136181333Y-106424000D01*
X136292986Y-106413003D01*
X136436247Y-106369546D01*
X136568276Y-106298974D01*
X136684001Y-106204001D01*
X136707804Y-106174998D01*
X137199802Y-105683000D01*
X137261939Y-105683000D01*
X137461898Y-105643226D01*
X137650256Y-105565205D01*
X137819774Y-105451937D01*
X137963937Y-105307774D01*
X138077205Y-105138256D01*
X138155226Y-104949898D01*
X138195000Y-104749939D01*
X138195000Y-104546061D01*
X138155226Y-104346102D01*
X138077205Y-104157744D01*
X137963937Y-103988226D01*
X137859711Y-103884000D01*
X140189000Y-103884000D01*
X140189000Y-103987939D01*
G37*
%TD.AperFunction*%
D25*
X138402992Y-93508255D02*
X138453528Y-93674851D01*
X138535595Y-93828387D01*
X138646038Y-93962962D01*
X138780613Y-94073405D01*
X138934149Y-94155472D01*
X139100745Y-94206008D01*
X139273999Y-94223072D01*
X140074001Y-94223072D01*
X140108839Y-94219641D01*
X141396201Y-95507003D01*
X141419999Y-95536001D01*
X141535724Y-95630974D01*
X141667753Y-95701546D01*
X141811014Y-95745003D01*
X141922667Y-95756000D01*
X141922676Y-95756000D01*
X141959999Y-95759676D01*
X141997322Y-95756000D01*
X143479224Y-95756000D01*
X143482992Y-95794255D01*
X143533528Y-95960851D01*
X143615595Y-96114387D01*
X143726038Y-96248962D01*
X143860613Y-96359405D01*
X144014149Y-96441472D01*
X144180745Y-96492008D01*
X144353999Y-96509072D01*
X144969010Y-96509072D01*
X144969011Y-101352187D01*
X144675468Y-101645731D01*
X144650518Y-101648188D01*
X144530820Y-101684498D01*
X144420506Y-101743463D01*
X144323815Y-101822815D01*
X144244463Y-101919506D01*
X144185498Y-102029820D01*
X144149188Y-102149518D01*
X144136928Y-102274000D01*
X144136928Y-102364000D01*
X138064007Y-102364000D01*
X138077199Y-102344256D01*
X138155220Y-102155898D01*
X138194994Y-101955939D01*
X138194994Y-101752061D01*
X138155220Y-101552102D01*
X138077199Y-101363744D01*
X137963931Y-101194226D01*
X137819768Y-101050063D01*
X137650250Y-100936795D01*
X137461892Y-100858774D01*
X137261933Y-100819000D01*
X137199796Y-100819000D01*
X136412000Y-100031205D01*
X136412000Y-98378000D01*
X136563928Y-98378000D01*
X136576188Y-98502482D01*
X136612498Y-98622180D01*
X136671463Y-98732494D01*
X136750815Y-98829185D01*
X136847506Y-98908537D01*
X136957820Y-98967502D01*
X137077518Y-99003812D01*
X137202000Y-99016072D01*
X137366250Y-99013000D01*
X137525000Y-98854250D01*
X137525000Y-98105000D01*
X137779000Y-98105000D01*
X137779000Y-98854250D01*
X137937750Y-99013000D01*
X138102000Y-99016072D01*
X138226482Y-99003812D01*
X138346180Y-98967502D01*
X138456494Y-98908537D01*
X138553185Y-98829185D01*
X138632537Y-98732494D01*
X138691502Y-98622180D01*
X138727812Y-98502482D01*
X138740072Y-98378000D01*
X138737000Y-98263750D01*
X138578250Y-98105000D01*
X137779000Y-98105000D01*
X137525000Y-98105000D01*
X136725750Y-98105000D01*
X136567000Y-98263750D01*
X136563928Y-98378000D01*
X136412000Y-98378000D01*
X136412000Y-97982320D01*
X136456494Y-97958537D01*
X136553185Y-97879185D01*
X136632537Y-97782494D01*
X136641143Y-97766393D01*
X136725750Y-97851000D01*
X137525000Y-97851000D01*
X137525000Y-97831000D01*
X137779000Y-97831000D01*
X137779000Y-97851000D01*
X138578250Y-97851000D01*
X138737000Y-97692250D01*
X138740072Y-97578000D01*
X138727812Y-97453518D01*
X138691502Y-97333820D01*
X138632537Y-97223506D01*
X138553185Y-97126815D01*
X138456494Y-97047463D01*
X138420082Y-97028000D01*
X138456494Y-97008537D01*
X138553185Y-96929185D01*
X138632537Y-96832494D01*
X138691502Y-96722180D01*
X138727812Y-96602482D01*
X138740072Y-96478000D01*
X138740072Y-95678000D01*
X138727812Y-95553518D01*
X138691502Y-95433820D01*
X138632537Y-95323506D01*
X138553185Y-95226815D01*
X138456494Y-95147463D01*
X138346180Y-95088498D01*
X138226482Y-95052188D01*
X138102000Y-95039928D01*
X138025796Y-95039928D01*
X137969898Y-95016774D01*
X137769939Y-94977000D01*
X137566061Y-94977000D01*
X137366102Y-95016774D01*
X137310204Y-95039928D01*
X137202000Y-95039928D01*
X137077518Y-95052188D01*
X136957820Y-95088498D01*
X136847506Y-95147463D01*
X136750815Y-95226815D01*
X136671463Y-95323506D01*
X136612498Y-95433820D01*
X136576188Y-95553518D01*
X136563928Y-95678000D01*
X136563928Y-96189905D01*
X136553185Y-96176815D01*
X136456494Y-96097463D01*
X136346180Y-96038498D01*
X136226482Y-96002188D01*
X136102000Y-95989928D01*
X135202000Y-95989928D01*
X135077518Y-96002188D01*
X134957820Y-96038498D01*
X134847506Y-96097463D01*
X134750815Y-96176815D01*
X134671463Y-96273506D01*
X134612498Y-96383820D01*
X134576188Y-96503518D01*
X134563928Y-96628000D01*
X134563928Y-97428000D01*
X134576188Y-97552482D01*
X134612498Y-97672180D01*
X134671463Y-97782494D01*
X134750815Y-97879185D01*
X134847506Y-97958537D01*
X134892000Y-97982320D01*
X134892000Y-98679009D01*
X134049990Y-97836999D01*
X134049990Y-95117733D01*
X134070063Y-95147774D01*
X134214226Y-95291937D01*
X134383744Y-95405205D01*
X134572102Y-95483226D01*
X134772061Y-95523000D01*
X134975939Y-95523000D01*
X135175898Y-95483226D01*
X135364256Y-95405205D01*
X135533774Y-95291937D01*
X135677937Y-95147774D01*
X135791205Y-94978256D01*
X135869226Y-94789898D01*
X135909000Y-94589939D01*
X135909000Y-94527801D01*
X136966802Y-93470000D01*
X138399224Y-93470000D01*
X138402992Y-93508255D01*
%TA.AperFunction,Conductor*%
D26*
G36*
X138402992Y-93508255D02*
G01*
X138453528Y-93674851D01*
X138535595Y-93828387D01*
X138646038Y-93962962D01*
X138780613Y-94073405D01*
X138934149Y-94155472D01*
X139100745Y-94206008D01*
X139273999Y-94223072D01*
X140074001Y-94223072D01*
X140108839Y-94219641D01*
X141396201Y-95507003D01*
X141419999Y-95536001D01*
X141535724Y-95630974D01*
X141667753Y-95701546D01*
X141811014Y-95745003D01*
X141922667Y-95756000D01*
X141922676Y-95756000D01*
X141959999Y-95759676D01*
X141997322Y-95756000D01*
X143479224Y-95756000D01*
X143482992Y-95794255D01*
X143533528Y-95960851D01*
X143615595Y-96114387D01*
X143726038Y-96248962D01*
X143860613Y-96359405D01*
X144014149Y-96441472D01*
X144180745Y-96492008D01*
X144353999Y-96509072D01*
X144969010Y-96509072D01*
X144969011Y-101352187D01*
X144675468Y-101645731D01*
X144650518Y-101648188D01*
X144530820Y-101684498D01*
X144420506Y-101743463D01*
X144323815Y-101822815D01*
X144244463Y-101919506D01*
X144185498Y-102029820D01*
X144149188Y-102149518D01*
X144136928Y-102274000D01*
X144136928Y-102364000D01*
X138064007Y-102364000D01*
X138077199Y-102344256D01*
X138155220Y-102155898D01*
X138194994Y-101955939D01*
X138194994Y-101752061D01*
X138155220Y-101552102D01*
X138077199Y-101363744D01*
X137963931Y-101194226D01*
X137819768Y-101050063D01*
X137650250Y-100936795D01*
X137461892Y-100858774D01*
X137261933Y-100819000D01*
X137199796Y-100819000D01*
X136412000Y-100031205D01*
X136412000Y-98378000D01*
X136563928Y-98378000D01*
X136576188Y-98502482D01*
X136612498Y-98622180D01*
X136671463Y-98732494D01*
X136750815Y-98829185D01*
X136847506Y-98908537D01*
X136957820Y-98967502D01*
X137077518Y-99003812D01*
X137202000Y-99016072D01*
X137366250Y-99013000D01*
X137525000Y-98854250D01*
X137525000Y-98105000D01*
X137779000Y-98105000D01*
X137779000Y-98854250D01*
X137937750Y-99013000D01*
X138102000Y-99016072D01*
X138226482Y-99003812D01*
X138346180Y-98967502D01*
X138456494Y-98908537D01*
X138553185Y-98829185D01*
X138632537Y-98732494D01*
X138691502Y-98622180D01*
X138727812Y-98502482D01*
X138740072Y-98378000D01*
X138737000Y-98263750D01*
X138578250Y-98105000D01*
X137779000Y-98105000D01*
X137525000Y-98105000D01*
X136725750Y-98105000D01*
X136567000Y-98263750D01*
X136563928Y-98378000D01*
X136412000Y-98378000D01*
X136412000Y-97982320D01*
X136456494Y-97958537D01*
X136553185Y-97879185D01*
X136632537Y-97782494D01*
X136641143Y-97766393D01*
X136725750Y-97851000D01*
X137525000Y-97851000D01*
X137525000Y-97831000D01*
X137779000Y-97831000D01*
X137779000Y-97851000D01*
X138578250Y-97851000D01*
X138737000Y-97692250D01*
X138740072Y-97578000D01*
X138727812Y-97453518D01*
X138691502Y-97333820D01*
X138632537Y-97223506D01*
X138553185Y-97126815D01*
X138456494Y-97047463D01*
X138420082Y-97028000D01*
X138456494Y-97008537D01*
X138553185Y-96929185D01*
X138632537Y-96832494D01*
X138691502Y-96722180D01*
X138727812Y-96602482D01*
X138740072Y-96478000D01*
X138740072Y-95678000D01*
X138727812Y-95553518D01*
X138691502Y-95433820D01*
X138632537Y-95323506D01*
X138553185Y-95226815D01*
X138456494Y-95147463D01*
X138346180Y-95088498D01*
X138226482Y-95052188D01*
X138102000Y-95039928D01*
X138025796Y-95039928D01*
X137969898Y-95016774D01*
X137769939Y-94977000D01*
X137566061Y-94977000D01*
X137366102Y-95016774D01*
X137310204Y-95039928D01*
X137202000Y-95039928D01*
X137077518Y-95052188D01*
X136957820Y-95088498D01*
X136847506Y-95147463D01*
X136750815Y-95226815D01*
X136671463Y-95323506D01*
X136612498Y-95433820D01*
X136576188Y-95553518D01*
X136563928Y-95678000D01*
X136563928Y-96189905D01*
X136553185Y-96176815D01*
X136456494Y-96097463D01*
X136346180Y-96038498D01*
X136226482Y-96002188D01*
X136102000Y-95989928D01*
X135202000Y-95989928D01*
X135077518Y-96002188D01*
X134957820Y-96038498D01*
X134847506Y-96097463D01*
X134750815Y-96176815D01*
X134671463Y-96273506D01*
X134612498Y-96383820D01*
X134576188Y-96503518D01*
X134563928Y-96628000D01*
X134563928Y-97428000D01*
X134576188Y-97552482D01*
X134612498Y-97672180D01*
X134671463Y-97782494D01*
X134750815Y-97879185D01*
X134847506Y-97958537D01*
X134892000Y-97982320D01*
X134892000Y-98679009D01*
X134049990Y-97836999D01*
X134049990Y-95117733D01*
X134070063Y-95147774D01*
X134214226Y-95291937D01*
X134383744Y-95405205D01*
X134572102Y-95483226D01*
X134772061Y-95523000D01*
X134975939Y-95523000D01*
X135175898Y-95483226D01*
X135364256Y-95405205D01*
X135533774Y-95291937D01*
X135677937Y-95147774D01*
X135791205Y-94978256D01*
X135869226Y-94789898D01*
X135909000Y-94589939D01*
X135909000Y-94527801D01*
X136966802Y-93470000D01*
X138399224Y-93470000D01*
X138402992Y-93508255D01*
G37*
%TD.AperFunction*%
D25*
X131986595Y-100943386D02*
X132097038Y-101077962D01*
X132231614Y-101188405D01*
X132385150Y-101270472D01*
X132551746Y-101321008D01*
X132725000Y-101338072D01*
X133719948Y-101338072D01*
X133702795Y-101363744D01*
X133624774Y-101552102D01*
X133585000Y-101752061D01*
X133585000Y-101861928D01*
X132725000Y-101861928D01*
X132551746Y-101878992D01*
X132385150Y-101929528D01*
X132231614Y-102011595D01*
X132097038Y-102122038D01*
X132075064Y-102148814D01*
X132034250Y-102108000D01*
X130885000Y-102108000D01*
X130885000Y-102128000D01*
X130631000Y-102128000D01*
X130631000Y-102108000D01*
X130611000Y-102108000D01*
X130611000Y-101854000D01*
X130631000Y-101854000D01*
X130631000Y-101229750D01*
X130885000Y-101229750D01*
X130885000Y-101854000D01*
X132034250Y-101854000D01*
X132193000Y-101695250D01*
X132183206Y-101578510D01*
X132146320Y-101458988D01*
X132086826Y-101348959D01*
X132007010Y-101252650D01*
X131909938Y-101173764D01*
X131799341Y-101115331D01*
X131679470Y-101079597D01*
X131554931Y-101067935D01*
X131043750Y-101071000D01*
X130885000Y-101229750D01*
X130631000Y-101229750D01*
X130472250Y-101071000D01*
X130121068Y-101068894D01*
X130237962Y-100972962D01*
X130348405Y-100838387D01*
X130363578Y-100810000D01*
X131915298Y-100810000D01*
X131986595Y-100943386D01*
%TA.AperFunction,Conductor*%
D26*
G36*
X131986595Y-100943386D02*
G01*
X132097038Y-101077962D01*
X132231614Y-101188405D01*
X132385150Y-101270472D01*
X132551746Y-101321008D01*
X132725000Y-101338072D01*
X133719948Y-101338072D01*
X133702795Y-101363744D01*
X133624774Y-101552102D01*
X133585000Y-101752061D01*
X133585000Y-101861928D01*
X132725000Y-101861928D01*
X132551746Y-101878992D01*
X132385150Y-101929528D01*
X132231614Y-102011595D01*
X132097038Y-102122038D01*
X132075064Y-102148814D01*
X132034250Y-102108000D01*
X130885000Y-102108000D01*
X130885000Y-102128000D01*
X130631000Y-102128000D01*
X130631000Y-102108000D01*
X130611000Y-102108000D01*
X130611000Y-101854000D01*
X130631000Y-101854000D01*
X130631000Y-101229750D01*
X130885000Y-101229750D01*
X130885000Y-101854000D01*
X132034250Y-101854000D01*
X132193000Y-101695250D01*
X132183206Y-101578510D01*
X132146320Y-101458988D01*
X132086826Y-101348959D01*
X132007010Y-101252650D01*
X131909938Y-101173764D01*
X131799341Y-101115331D01*
X131679470Y-101079597D01*
X131554931Y-101067935D01*
X131043750Y-101071000D01*
X130885000Y-101229750D01*
X130631000Y-101229750D01*
X130472250Y-101071000D01*
X130121068Y-101068894D01*
X130237962Y-100972962D01*
X130348405Y-100838387D01*
X130363578Y-100810000D01*
X131915298Y-100810000D01*
X131986595Y-100943386D01*
G37*
%TD.AperFunction*%
D25*
X126199500Y-97028000D02*
X126219500Y-97028000D01*
X126219500Y-97282000D01*
X126199500Y-97282000D01*
X126199500Y-99568000D01*
X126219500Y-99568000D01*
X126219500Y-99822000D01*
X126199500Y-99822000D01*
X126199500Y-99842000D01*
X125945500Y-99842000D01*
X125945500Y-99822000D01*
X125925500Y-99822000D01*
X125925500Y-99568000D01*
X125945500Y-99568000D01*
X125945500Y-97282000D01*
X125925500Y-97282000D01*
X125925500Y-97028000D01*
X125945500Y-97028000D01*
X125945500Y-97008000D01*
X126199500Y-97008000D01*
X126199500Y-97028000D01*
%TA.AperFunction,Conductor*%
D26*
G36*
X126199500Y-97028000D02*
G01*
X126219500Y-97028000D01*
X126219500Y-97282000D01*
X126199500Y-97282000D01*
X126199500Y-99568000D01*
X126219500Y-99568000D01*
X126219500Y-99822000D01*
X126199500Y-99822000D01*
X126199500Y-99842000D01*
X125945500Y-99842000D01*
X125945500Y-99822000D01*
X125925500Y-99822000D01*
X125925500Y-99568000D01*
X125945500Y-99568000D01*
X125945500Y-97282000D01*
X125925500Y-97282000D01*
X125925500Y-97028000D01*
X125945500Y-97028000D01*
X125945500Y-97008000D01*
X126199500Y-97008000D01*
X126199500Y-97028000D01*
G37*
%TD.AperFunction*%
D25*
X128261928Y-90620000D02*
X128261928Y-90775122D01*
X128251000Y-90830061D01*
X128251000Y-91033939D01*
X128290774Y-91233898D01*
X128368795Y-91422256D01*
X128482063Y-91591774D01*
X128626226Y-91735937D01*
X128795744Y-91849205D01*
X128984102Y-91927226D01*
X129184061Y-91967000D01*
X129387939Y-91967000D01*
X129587898Y-91927226D01*
X129776256Y-91849205D01*
X129945091Y-91736393D01*
X129900498Y-91819820D01*
X129864188Y-91939518D01*
X129851928Y-92064000D01*
X129855000Y-92678250D01*
X130013750Y-92837000D01*
X131025500Y-92837000D01*
X131025500Y-91587750D01*
X130966000Y-91528250D01*
X130998000Y-91496250D01*
X130998000Y-91008072D01*
X131252000Y-91008072D01*
X131252000Y-91496250D01*
X131311500Y-91555750D01*
X131279500Y-91587750D01*
X131279500Y-92837000D01*
X132291250Y-92837000D01*
X132450000Y-92678250D01*
X132453072Y-92064000D01*
X132445848Y-91990651D01*
X132529990Y-92074793D01*
X132529990Y-93725708D01*
X132452303Y-93710255D01*
X132450000Y-93249750D01*
X132291250Y-93091000D01*
X131279500Y-93091000D01*
X131279500Y-94340250D01*
X131350659Y-94411409D01*
X131338774Y-94440102D01*
X131299000Y-94640061D01*
X131299000Y-94843939D01*
X131332039Y-95010039D01*
X131165939Y-94977000D01*
X131106671Y-94977000D01*
X131096001Y-94963999D01*
X130980276Y-94869026D01*
X130848247Y-94798454D01*
X130704986Y-94754997D01*
X130593333Y-94744000D01*
X130593322Y-94744000D01*
X130556000Y-94740324D01*
X130518678Y-94744000D01*
X127760000Y-94744000D01*
X127760000Y-93864000D01*
X129851928Y-93864000D01*
X129864188Y-93988482D01*
X129900498Y-94108180D01*
X129959463Y-94218494D01*
X130038815Y-94315185D01*
X130135506Y-94394537D01*
X130245820Y-94453502D01*
X130365518Y-94489812D01*
X130490000Y-94502072D01*
X130866750Y-94499000D01*
X131025500Y-94340250D01*
X131025500Y-93091000D01*
X130013750Y-93091000D01*
X129855000Y-93249750D01*
X129851928Y-93864000D01*
X127760000Y-93864000D01*
X127760000Y-91049803D01*
X128269807Y-90539996D01*
X128261928Y-90620000D01*
%TA.AperFunction,Conductor*%
D26*
G36*
X128261928Y-90620000D02*
G01*
X128261928Y-90775122D01*
X128251000Y-90830061D01*
X128251000Y-91033939D01*
X128290774Y-91233898D01*
X128368795Y-91422256D01*
X128482063Y-91591774D01*
X128626226Y-91735937D01*
X128795744Y-91849205D01*
X128984102Y-91927226D01*
X129184061Y-91967000D01*
X129387939Y-91967000D01*
X129587898Y-91927226D01*
X129776256Y-91849205D01*
X129945091Y-91736393D01*
X129900498Y-91819820D01*
X129864188Y-91939518D01*
X129851928Y-92064000D01*
X129855000Y-92678250D01*
X130013750Y-92837000D01*
X131025500Y-92837000D01*
X131025500Y-91587750D01*
X130966000Y-91528250D01*
X130998000Y-91496250D01*
X130998000Y-91008072D01*
X131252000Y-91008072D01*
X131252000Y-91496250D01*
X131311500Y-91555750D01*
X131279500Y-91587750D01*
X131279500Y-92837000D01*
X132291250Y-92837000D01*
X132450000Y-92678250D01*
X132453072Y-92064000D01*
X132445848Y-91990651D01*
X132529990Y-92074793D01*
X132529990Y-93725708D01*
X132452303Y-93710255D01*
X132450000Y-93249750D01*
X132291250Y-93091000D01*
X131279500Y-93091000D01*
X131279500Y-94340250D01*
X131350659Y-94411409D01*
X131338774Y-94440102D01*
X131299000Y-94640061D01*
X131299000Y-94843939D01*
X131332039Y-95010039D01*
X131165939Y-94977000D01*
X131106671Y-94977000D01*
X131096001Y-94963999D01*
X130980276Y-94869026D01*
X130848247Y-94798454D01*
X130704986Y-94754997D01*
X130593333Y-94744000D01*
X130593322Y-94744000D01*
X130556000Y-94740324D01*
X130518678Y-94744000D01*
X127760000Y-94744000D01*
X127760000Y-93864000D01*
X129851928Y-93864000D01*
X129864188Y-93988482D01*
X129900498Y-94108180D01*
X129959463Y-94218494D01*
X130038815Y-94315185D01*
X130135506Y-94394537D01*
X130245820Y-94453502D01*
X130365518Y-94489812D01*
X130490000Y-94502072D01*
X130866750Y-94499000D01*
X131025500Y-94340250D01*
X131025500Y-93091000D01*
X130013750Y-93091000D01*
X129855000Y-93249750D01*
X129851928Y-93864000D01*
X127760000Y-93864000D01*
X127760000Y-91049803D01*
X128269807Y-90539996D01*
X128261928Y-90620000D01*
G37*
%TD.AperFunction*%
%TD*%
M02*
