%TF.GenerationSoftware,KiCad,Pcbnew,(5.1.10)-1*%
%TF.CreationDate,2021-09-12T11:48:58+02:00*%
%TF.ProjectId,BTS-LogicBoard,4254532d-4c6f-4676-9963-426f6172642e,rev?*%
%TF.SameCoordinates,Original*%
%TF.FileFunction,Paste,Bot*%
%TF.FilePolarity,Positive*%
%FSLAX46Y46*%
G04 Gerber Fmt 4.6, Leading zero omitted, Abs format (unit mm)*
G04 Created by KiCad (PCBNEW (5.1.10)-1) date 2021-09-12 11:48:58*
%MOMM*%
%LPD*%
G01*
G04 APERTURE LIST*
%ADD10R,0.800000X0.900000*%
G04 APERTURE END LIST*
%TO.C,R19*%
G36*
G01*
X135112600Y-109612000D02*
X136362600Y-109612000D01*
G75*
G02*
X136612600Y-109862000I0J-250000D01*
G01*
X136612600Y-110662000D01*
G75*
G02*
X136362600Y-110912000I-250000J0D01*
G01*
X135112600Y-110912000D01*
G75*
G02*
X134862600Y-110662000I0J250000D01*
G01*
X134862600Y-109862000D01*
G75*
G02*
X135112600Y-109612000I250000J0D01*
G01*
G37*
G36*
G01*
X135112600Y-106512000D02*
X136362600Y-106512000D01*
G75*
G02*
X136612600Y-106762000I0J-250000D01*
G01*
X136612600Y-107562000D01*
G75*
G02*
X136362600Y-107812000I-250000J0D01*
G01*
X135112600Y-107812000D01*
G75*
G02*
X134862600Y-107562000I0J250000D01*
G01*
X134862600Y-106762000D01*
G75*
G02*
X135112600Y-106512000I250000J0D01*
G01*
G37*
%TD*%
%TO.C,R18*%
G36*
G01*
X138648600Y-107812000D02*
X137398600Y-107812000D01*
G75*
G02*
X137148600Y-107562000I0J250000D01*
G01*
X137148600Y-106762000D01*
G75*
G02*
X137398600Y-106512000I250000J0D01*
G01*
X138648600Y-106512000D01*
G75*
G02*
X138898600Y-106762000I0J-250000D01*
G01*
X138898600Y-107562000D01*
G75*
G02*
X138648600Y-107812000I-250000J0D01*
G01*
G37*
G36*
G01*
X138648600Y-110912000D02*
X137398600Y-110912000D01*
G75*
G02*
X137148600Y-110662000I0J250000D01*
G01*
X137148600Y-109862000D01*
G75*
G02*
X137398600Y-109612000I250000J0D01*
G01*
X138648600Y-109612000D01*
G75*
G02*
X138898600Y-109862000I0J-250000D01*
G01*
X138898600Y-110662000D01*
G75*
G02*
X138648600Y-110912000I-250000J0D01*
G01*
G37*
%TD*%
%TO.C,R16*%
G36*
G01*
X134504000Y-84445000D02*
X134504000Y-83195000D01*
G75*
G02*
X134754000Y-82945000I250000J0D01*
G01*
X135554000Y-82945000D01*
G75*
G02*
X135804000Y-83195000I0J-250000D01*
G01*
X135804000Y-84445000D01*
G75*
G02*
X135554000Y-84695000I-250000J0D01*
G01*
X134754000Y-84695000D01*
G75*
G02*
X134504000Y-84445000I0J250000D01*
G01*
G37*
G36*
G01*
X131404000Y-84445000D02*
X131404000Y-83195000D01*
G75*
G02*
X131654000Y-82945000I250000J0D01*
G01*
X132454000Y-82945000D01*
G75*
G02*
X132704000Y-83195000I0J-250000D01*
G01*
X132704000Y-84445000D01*
G75*
G02*
X132454000Y-84695000I-250000J0D01*
G01*
X131654000Y-84695000D01*
G75*
G02*
X131404000Y-84445000I0J250000D01*
G01*
G37*
%TD*%
%TO.C,R15*%
G36*
G01*
X132704000Y-85481000D02*
X132704000Y-86731000D01*
G75*
G02*
X132454000Y-86981000I-250000J0D01*
G01*
X131654000Y-86981000D01*
G75*
G02*
X131404000Y-86731000I0J250000D01*
G01*
X131404000Y-85481000D01*
G75*
G02*
X131654000Y-85231000I250000J0D01*
G01*
X132454000Y-85231000D01*
G75*
G02*
X132704000Y-85481000I0J-250000D01*
G01*
G37*
G36*
G01*
X135804000Y-85481000D02*
X135804000Y-86731000D01*
G75*
G02*
X135554000Y-86981000I-250000J0D01*
G01*
X134754000Y-86981000D01*
G75*
G02*
X134504000Y-86731000I0J250000D01*
G01*
X134504000Y-85481000D01*
G75*
G02*
X134754000Y-85231000I250000J0D01*
G01*
X135554000Y-85231000D01*
G75*
G02*
X135804000Y-85481000I0J-250000D01*
G01*
G37*
%TD*%
%TO.C,R14*%
G36*
G01*
X136514000Y-93863000D02*
X136514000Y-95113000D01*
G75*
G02*
X136264000Y-95363000I-250000J0D01*
G01*
X135464000Y-95363000D01*
G75*
G02*
X135214000Y-95113000I0J250000D01*
G01*
X135214000Y-93863000D01*
G75*
G02*
X135464000Y-93613000I250000J0D01*
G01*
X136264000Y-93613000D01*
G75*
G02*
X136514000Y-93863000I0J-250000D01*
G01*
G37*
G36*
G01*
X139614000Y-93863000D02*
X139614000Y-95113000D01*
G75*
G02*
X139364000Y-95363000I-250000J0D01*
G01*
X138564000Y-95363000D01*
G75*
G02*
X138314000Y-95113000I0J250000D01*
G01*
X138314000Y-93863000D01*
G75*
G02*
X138564000Y-93613000I250000J0D01*
G01*
X139364000Y-93613000D01*
G75*
G02*
X139614000Y-93863000I0J-250000D01*
G01*
G37*
%TD*%
%TO.C,R13*%
G36*
G01*
X126100000Y-83195000D02*
X126100000Y-84445000D01*
G75*
G02*
X125850000Y-84695000I-250000J0D01*
G01*
X125050000Y-84695000D01*
G75*
G02*
X124800000Y-84445000I0J250000D01*
G01*
X124800000Y-83195000D01*
G75*
G02*
X125050000Y-82945000I250000J0D01*
G01*
X125850000Y-82945000D01*
G75*
G02*
X126100000Y-83195000I0J-250000D01*
G01*
G37*
G36*
G01*
X129200000Y-83195000D02*
X129200000Y-84445000D01*
G75*
G02*
X128950000Y-84695000I-250000J0D01*
G01*
X128150000Y-84695000D01*
G75*
G02*
X127900000Y-84445000I0J250000D01*
G01*
X127900000Y-83195000D01*
G75*
G02*
X128150000Y-82945000I250000J0D01*
G01*
X128950000Y-82945000D01*
G75*
G02*
X129200000Y-83195000I0J-250000D01*
G01*
G37*
%TD*%
%TO.C,R11*%
G36*
G01*
X149998000Y-102733000D02*
X149998000Y-101483000D01*
G75*
G02*
X150248000Y-101233000I250000J0D01*
G01*
X151048000Y-101233000D01*
G75*
G02*
X151298000Y-101483000I0J-250000D01*
G01*
X151298000Y-102733000D01*
G75*
G02*
X151048000Y-102983000I-250000J0D01*
G01*
X150248000Y-102983000D01*
G75*
G02*
X149998000Y-102733000I0J250000D01*
G01*
G37*
G36*
G01*
X146898000Y-102733000D02*
X146898000Y-101483000D01*
G75*
G02*
X147148000Y-101233000I250000J0D01*
G01*
X147948000Y-101233000D01*
G75*
G02*
X148198000Y-101483000I0J-250000D01*
G01*
X148198000Y-102733000D01*
G75*
G02*
X147948000Y-102983000I-250000J0D01*
G01*
X147148000Y-102983000D01*
G75*
G02*
X146898000Y-102733000I0J250000D01*
G01*
G37*
%TD*%
%TO.C,R10*%
G36*
G01*
X144918000Y-102733000D02*
X144918000Y-101483000D01*
G75*
G02*
X145168000Y-101233000I250000J0D01*
G01*
X145968000Y-101233000D01*
G75*
G02*
X146218000Y-101483000I0J-250000D01*
G01*
X146218000Y-102733000D01*
G75*
G02*
X145968000Y-102983000I-250000J0D01*
G01*
X145168000Y-102983000D01*
G75*
G02*
X144918000Y-102733000I0J250000D01*
G01*
G37*
G36*
G01*
X141818000Y-102733000D02*
X141818000Y-101483000D01*
G75*
G02*
X142068000Y-101233000I250000J0D01*
G01*
X142868000Y-101233000D01*
G75*
G02*
X143118000Y-101483000I0J-250000D01*
G01*
X143118000Y-102733000D01*
G75*
G02*
X142868000Y-102983000I-250000J0D01*
G01*
X142068000Y-102983000D01*
G75*
G02*
X141818000Y-102733000I0J250000D01*
G01*
G37*
%TD*%
%TO.C,R9*%
G36*
G01*
X129300400Y-74305000D02*
X129300400Y-75555000D01*
G75*
G02*
X129050400Y-75805000I-250000J0D01*
G01*
X128250400Y-75805000D01*
G75*
G02*
X128000400Y-75555000I0J250000D01*
G01*
X128000400Y-74305000D01*
G75*
G02*
X128250400Y-74055000I250000J0D01*
G01*
X129050400Y-74055000D01*
G75*
G02*
X129300400Y-74305000I0J-250000D01*
G01*
G37*
G36*
G01*
X132400400Y-74305000D02*
X132400400Y-75555000D01*
G75*
G02*
X132150400Y-75805000I-250000J0D01*
G01*
X131350400Y-75805000D01*
G75*
G02*
X131100400Y-75555000I0J250000D01*
G01*
X131100400Y-74305000D01*
G75*
G02*
X131350400Y-74055000I250000J0D01*
G01*
X132150400Y-74055000D01*
G75*
G02*
X132400400Y-74305000I0J-250000D01*
G01*
G37*
%TD*%
%TO.C,R8*%
G36*
G01*
X127900000Y-81143000D02*
X127900000Y-79893000D01*
G75*
G02*
X128150000Y-79643000I250000J0D01*
G01*
X128950000Y-79643000D01*
G75*
G02*
X129200000Y-79893000I0J-250000D01*
G01*
X129200000Y-81143000D01*
G75*
G02*
X128950000Y-81393000I-250000J0D01*
G01*
X128150000Y-81393000D01*
G75*
G02*
X127900000Y-81143000I0J250000D01*
G01*
G37*
G36*
G01*
X124800000Y-81143000D02*
X124800000Y-79893000D01*
G75*
G02*
X125050000Y-79643000I250000J0D01*
G01*
X125850000Y-79643000D01*
G75*
G02*
X126100000Y-79893000I0J-250000D01*
G01*
X126100000Y-81143000D01*
G75*
G02*
X125850000Y-81393000I-250000J0D01*
G01*
X125050000Y-81393000D01*
G75*
G02*
X124800000Y-81143000I0J250000D01*
G01*
G37*
%TD*%
%TO.C,R7*%
G36*
G01*
X131100400Y-78552200D02*
X131100400Y-77302200D01*
G75*
G02*
X131350400Y-77052200I250000J0D01*
G01*
X132150400Y-77052200D01*
G75*
G02*
X132400400Y-77302200I0J-250000D01*
G01*
X132400400Y-78552200D01*
G75*
G02*
X132150400Y-78802200I-250000J0D01*
G01*
X131350400Y-78802200D01*
G75*
G02*
X131100400Y-78552200I0J250000D01*
G01*
G37*
G36*
G01*
X128000400Y-78552200D02*
X128000400Y-77302200D01*
G75*
G02*
X128250400Y-77052200I250000J0D01*
G01*
X129050400Y-77052200D01*
G75*
G02*
X129300400Y-77302200I0J-250000D01*
G01*
X129300400Y-78552200D01*
G75*
G02*
X129050400Y-78802200I-250000J0D01*
G01*
X128250400Y-78802200D01*
G75*
G02*
X128000400Y-78552200I0J250000D01*
G01*
G37*
%TD*%
%TO.C,R6*%
G36*
G01*
X127900000Y-111115000D02*
X127900000Y-109865000D01*
G75*
G02*
X128150000Y-109615000I250000J0D01*
G01*
X128950000Y-109615000D01*
G75*
G02*
X129200000Y-109865000I0J-250000D01*
G01*
X129200000Y-111115000D01*
G75*
G02*
X128950000Y-111365000I-250000J0D01*
G01*
X128150000Y-111365000D01*
G75*
G02*
X127900000Y-111115000I0J250000D01*
G01*
G37*
G36*
G01*
X124800000Y-111115000D02*
X124800000Y-109865000D01*
G75*
G02*
X125050000Y-109615000I250000J0D01*
G01*
X125850000Y-109615000D01*
G75*
G02*
X126100000Y-109865000I0J-250000D01*
G01*
X126100000Y-111115000D01*
G75*
G02*
X125850000Y-111365000I-250000J0D01*
G01*
X125050000Y-111365000D01*
G75*
G02*
X124800000Y-111115000I0J250000D01*
G01*
G37*
%TD*%
%TO.C,R5*%
G36*
G01*
X137297000Y-114565000D02*
X138547000Y-114565000D01*
G75*
G02*
X138797000Y-114815000I0J-250000D01*
G01*
X138797000Y-115615000D01*
G75*
G02*
X138547000Y-115865000I-250000J0D01*
G01*
X137297000Y-115865000D01*
G75*
G02*
X137047000Y-115615000I0J250000D01*
G01*
X137047000Y-114815000D01*
G75*
G02*
X137297000Y-114565000I250000J0D01*
G01*
G37*
G36*
G01*
X137297000Y-111465000D02*
X138547000Y-111465000D01*
G75*
G02*
X138797000Y-111715000I0J-250000D01*
G01*
X138797000Y-112515000D01*
G75*
G02*
X138547000Y-112765000I-250000J0D01*
G01*
X137297000Y-112765000D01*
G75*
G02*
X137047000Y-112515000I0J250000D01*
G01*
X137047000Y-111715000D01*
G75*
G02*
X137297000Y-111465000I250000J0D01*
G01*
G37*
%TD*%
%TO.C,R3*%
G36*
G01*
X131456000Y-108575000D02*
X131456000Y-107325000D01*
G75*
G02*
X131706000Y-107075000I250000J0D01*
G01*
X132506000Y-107075000D01*
G75*
G02*
X132756000Y-107325000I0J-250000D01*
G01*
X132756000Y-108575000D01*
G75*
G02*
X132506000Y-108825000I-250000J0D01*
G01*
X131706000Y-108825000D01*
G75*
G02*
X131456000Y-108575000I0J250000D01*
G01*
G37*
G36*
G01*
X128356000Y-108575000D02*
X128356000Y-107325000D01*
G75*
G02*
X128606000Y-107075000I250000J0D01*
G01*
X129406000Y-107075000D01*
G75*
G02*
X129656000Y-107325000I0J-250000D01*
G01*
X129656000Y-108575000D01*
G75*
G02*
X129406000Y-108825000I-250000J0D01*
G01*
X128606000Y-108825000D01*
G75*
G02*
X128356000Y-108575000I0J250000D01*
G01*
G37*
%TD*%
D10*
%TO.C,Q5*%
X132892800Y-79924400D03*
X131942800Y-81924400D03*
X133842800Y-81924400D03*
%TD*%
%TO.C,Q3*%
X125730000Y-76470000D03*
X124780000Y-78470000D03*
X126680000Y-78470000D03*
%TD*%
%TO.C,Q1*%
X130556000Y-104054400D03*
X129606000Y-106054400D03*
X131506000Y-106054400D03*
%TD*%
%TO.C,D3*%
G36*
G01*
X132855000Y-111115000D02*
X132855000Y-109865000D01*
G75*
G02*
X133105000Y-109615000I250000J0D01*
G01*
X134030000Y-109615000D01*
G75*
G02*
X134280000Y-109865000I0J-250000D01*
G01*
X134280000Y-111115000D01*
G75*
G02*
X134030000Y-111365000I-250000J0D01*
G01*
X133105000Y-111365000D01*
G75*
G02*
X132855000Y-111115000I0J250000D01*
G01*
G37*
G36*
G01*
X129880000Y-111115000D02*
X129880000Y-109865000D01*
G75*
G02*
X130130000Y-109615000I250000J0D01*
G01*
X131055000Y-109615000D01*
G75*
G02*
X131305000Y-109865000I0J-250000D01*
G01*
X131305000Y-111115000D01*
G75*
G02*
X131055000Y-111365000I-250000J0D01*
G01*
X130130000Y-111365000D01*
G75*
G02*
X129880000Y-111115000I0J250000D01*
G01*
G37*
%TD*%
%TO.C,C7*%
G36*
G01*
X138314000Y-90058001D02*
X138314000Y-88757999D01*
G75*
G02*
X138563999Y-88508000I249999J0D01*
G01*
X139389001Y-88508000D01*
G75*
G02*
X139639000Y-88757999I0J-249999D01*
G01*
X139639000Y-90058001D01*
G75*
G02*
X139389001Y-90308000I-249999J0D01*
G01*
X138563999Y-90308000D01*
G75*
G02*
X138314000Y-90058001I0J249999D01*
G01*
G37*
G36*
G01*
X135189000Y-90058001D02*
X135189000Y-88757999D01*
G75*
G02*
X135438999Y-88508000I249999J0D01*
G01*
X136264001Y-88508000D01*
G75*
G02*
X136514000Y-88757999I0J-249999D01*
G01*
X136514000Y-90058001D01*
G75*
G02*
X136264001Y-90308000I-249999J0D01*
G01*
X135438999Y-90308000D01*
G75*
G02*
X135189000Y-90058001I0J249999D01*
G01*
G37*
%TD*%
%TO.C,C6*%
G36*
G01*
X138314000Y-92598001D02*
X138314000Y-91297999D01*
G75*
G02*
X138563999Y-91048000I249999J0D01*
G01*
X139389001Y-91048000D01*
G75*
G02*
X139639000Y-91297999I0J-249999D01*
G01*
X139639000Y-92598001D01*
G75*
G02*
X139389001Y-92848000I-249999J0D01*
G01*
X138563999Y-92848000D01*
G75*
G02*
X138314000Y-92598001I0J249999D01*
G01*
G37*
G36*
G01*
X135189000Y-92598001D02*
X135189000Y-91297999D01*
G75*
G02*
X135438999Y-91048000I249999J0D01*
G01*
X136264001Y-91048000D01*
G75*
G02*
X136514000Y-91297999I0J-249999D01*
G01*
X136514000Y-92598001D01*
G75*
G02*
X136264001Y-92848000I-249999J0D01*
G01*
X135438999Y-92848000D01*
G75*
G02*
X135189000Y-92598001I0J249999D01*
G01*
G37*
%TD*%
%TO.C,C4*%
G36*
G01*
X144918000Y-105044001D02*
X144918000Y-103743999D01*
G75*
G02*
X145167999Y-103494000I249999J0D01*
G01*
X145993001Y-103494000D01*
G75*
G02*
X146243000Y-103743999I0J-249999D01*
G01*
X146243000Y-105044001D01*
G75*
G02*
X145993001Y-105294000I-249999J0D01*
G01*
X145167999Y-105294000D01*
G75*
G02*
X144918000Y-105044001I0J249999D01*
G01*
G37*
G36*
G01*
X141793000Y-105044001D02*
X141793000Y-103743999D01*
G75*
G02*
X142042999Y-103494000I249999J0D01*
G01*
X142868001Y-103494000D01*
G75*
G02*
X143118000Y-103743999I0J-249999D01*
G01*
X143118000Y-105044001D01*
G75*
G02*
X142868001Y-105294000I-249999J0D01*
G01*
X142042999Y-105294000D01*
G75*
G02*
X141793000Y-105044001I0J249999D01*
G01*
G37*
%TD*%
M02*
