%TF.GenerationSoftware,KiCad,Pcbnew,(5.1.10)-1*%
%TF.CreationDate,2021-10-15T07:56:21+02:00*%
%TF.ProjectId,BTS-LogicBoard,4254532d-4c6f-4676-9963-426f6172642e,rev?*%
%TF.SameCoordinates,Original*%
%TF.FileFunction,Legend,Top*%
%TF.FilePolarity,Positive*%
%FSLAX46Y46*%
G04 Gerber Fmt 4.6, Leading zero omitted, Abs format (unit mm)*
G04 Created by KiCad (PCBNEW (5.1.10)-1) date 2021-10-15 07:56:21*
%MOMM*%
%LPD*%
G01*
G04 APERTURE LIST*
%ADD10C,0.120000*%
%ADD11C,0.070000*%
%ADD12C,0.100000*%
%ADD13C,0.150000*%
G04 APERTURE END LIST*
D10*
X121666000Y-95250000D02*
X122428000Y-95250000D01*
X121666000Y-95504000D02*
X121666000Y-95250000D01*
X122682000Y-89662000D02*
X122936000Y-89916000D01*
X122682000Y-87884000D02*
X122682000Y-89662000D01*
D11*
X128530476Y-80552952D02*
X128663809Y-80952952D01*
X128797142Y-80552952D01*
X128911428Y-80933904D02*
X128968571Y-80952952D01*
X129063809Y-80952952D01*
X129101904Y-80933904D01*
X129120952Y-80914857D01*
X129140000Y-80876761D01*
X129140000Y-80838666D01*
X129120952Y-80800571D01*
X129101904Y-80781523D01*
X129063809Y-80762476D01*
X128987619Y-80743428D01*
X128949523Y-80724380D01*
X128930476Y-80705333D01*
X128911428Y-80667238D01*
X128911428Y-80629142D01*
X128930476Y-80591047D01*
X128949523Y-80572000D01*
X128987619Y-80552952D01*
X129082857Y-80552952D01*
X129140000Y-80572000D01*
X129463809Y-80933904D02*
X129425714Y-80952952D01*
X129349523Y-80952952D01*
X129311428Y-80933904D01*
X129292380Y-80895809D01*
X129292380Y-80743428D01*
X129311428Y-80705333D01*
X129349523Y-80686285D01*
X129425714Y-80686285D01*
X129463809Y-80705333D01*
X129482857Y-80743428D01*
X129482857Y-80781523D01*
X129292380Y-80819619D01*
X129654285Y-80686285D02*
X129654285Y-80952952D01*
X129654285Y-80724380D02*
X129673333Y-80705333D01*
X129711428Y-80686285D01*
X129768571Y-80686285D01*
X129806666Y-80705333D01*
X129825714Y-80743428D01*
X129825714Y-80952952D01*
X129997142Y-80933904D02*
X130035238Y-80952952D01*
X130111428Y-80952952D01*
X130149523Y-80933904D01*
X130168571Y-80895809D01*
X130168571Y-80876761D01*
X130149523Y-80838666D01*
X130111428Y-80819619D01*
X130054285Y-80819619D01*
X130016190Y-80800571D01*
X129997142Y-80762476D01*
X129997142Y-80743428D01*
X130016190Y-80705333D01*
X130054285Y-80686285D01*
X130111428Y-80686285D01*
X130149523Y-80705333D01*
X130492380Y-80933904D02*
X130454285Y-80952952D01*
X130378095Y-80952952D01*
X130340000Y-80933904D01*
X130320952Y-80895809D01*
X130320952Y-80743428D01*
X130340000Y-80705333D01*
X130378095Y-80686285D01*
X130454285Y-80686285D01*
X130492380Y-80705333D01*
X130511428Y-80743428D01*
X130511428Y-80781523D01*
X130320952Y-80819619D01*
D10*
X121412000Y-79248000D02*
X120396000Y-79248000D01*
X121412000Y-75438000D02*
X121412000Y-79248000D01*
X120396000Y-75438000D02*
X121412000Y-75438000D01*
X112776000Y-79248000D02*
X114046000Y-79248000D01*
X112776000Y-75438000D02*
X112776000Y-79248000D01*
X114046000Y-75438000D02*
X112776000Y-75438000D01*
D11*
X119075238Y-80826000D02*
X119037142Y-80806952D01*
X118980000Y-80806952D01*
X118922857Y-80826000D01*
X118884761Y-80864095D01*
X118865714Y-80902190D01*
X118846666Y-80978380D01*
X118846666Y-81035523D01*
X118865714Y-81111714D01*
X118884761Y-81149809D01*
X118922857Y-81187904D01*
X118980000Y-81206952D01*
X119018095Y-81206952D01*
X119075238Y-81187904D01*
X119094285Y-81168857D01*
X119094285Y-81035523D01*
X119018095Y-81035523D01*
X119265714Y-81206952D02*
X119265714Y-80806952D01*
X119494285Y-81206952D01*
X119494285Y-80806952D01*
X119684761Y-81206952D02*
X119684761Y-80806952D01*
X119780000Y-80806952D01*
X119837142Y-80826000D01*
X119875238Y-80864095D01*
X119894285Y-80902190D01*
X119913333Y-80978380D01*
X119913333Y-81035523D01*
X119894285Y-81111714D01*
X119875238Y-81149809D01*
X119837142Y-81187904D01*
X119780000Y-81206952D01*
X119684761Y-81206952D01*
X117144857Y-81206952D02*
X117144857Y-80806952D01*
X117335333Y-81206952D02*
X117335333Y-80806952D01*
X117563904Y-81206952D01*
X117563904Y-80806952D01*
X117754380Y-81054571D02*
X118059142Y-81054571D01*
X117906761Y-81206952D02*
X117906761Y-80902190D01*
X115319238Y-81168857D02*
X115300190Y-81187904D01*
X115243047Y-81206952D01*
X115204952Y-81206952D01*
X115147809Y-81187904D01*
X115109714Y-81149809D01*
X115090666Y-81111714D01*
X115071619Y-81035523D01*
X115071619Y-80978380D01*
X115090666Y-80902190D01*
X115109714Y-80864095D01*
X115147809Y-80826000D01*
X115204952Y-80806952D01*
X115243047Y-80806952D01*
X115300190Y-80826000D01*
X115319238Y-80845047D01*
X115547809Y-81206952D02*
X115509714Y-81187904D01*
X115490666Y-81168857D01*
X115471619Y-81130761D01*
X115471619Y-81016476D01*
X115490666Y-80978380D01*
X115509714Y-80959333D01*
X115547809Y-80940285D01*
X115604952Y-80940285D01*
X115643047Y-80959333D01*
X115662095Y-80978380D01*
X115681142Y-81016476D01*
X115681142Y-81130761D01*
X115662095Y-81168857D01*
X115643047Y-81187904D01*
X115604952Y-81206952D01*
X115547809Y-81206952D01*
X115852571Y-81206952D02*
X115852571Y-80940285D01*
X115852571Y-80978380D02*
X115871619Y-80959333D01*
X115909714Y-80940285D01*
X115966857Y-80940285D01*
X116004952Y-80959333D01*
X116024000Y-80997428D01*
X116024000Y-81206952D01*
X116024000Y-80997428D02*
X116043047Y-80959333D01*
X116081142Y-80940285D01*
X116138285Y-80940285D01*
X116176380Y-80959333D01*
X116195428Y-80997428D01*
X116195428Y-81206952D01*
X116385904Y-80940285D02*
X116385904Y-81340285D01*
X116385904Y-80959333D02*
X116424000Y-80940285D01*
X116500190Y-80940285D01*
X116538285Y-80959333D01*
X116557333Y-80978380D01*
X116576380Y-81016476D01*
X116576380Y-81130761D01*
X116557333Y-81168857D01*
X116538285Y-81187904D01*
X116500190Y-81206952D01*
X116424000Y-81206952D01*
X116385904Y-81187904D01*
X119075238Y-86922000D02*
X119037142Y-86902952D01*
X118980000Y-86902952D01*
X118922857Y-86922000D01*
X118884761Y-86960095D01*
X118865714Y-86998190D01*
X118846666Y-87074380D01*
X118846666Y-87131523D01*
X118865714Y-87207714D01*
X118884761Y-87245809D01*
X118922857Y-87283904D01*
X118980000Y-87302952D01*
X119018095Y-87302952D01*
X119075238Y-87283904D01*
X119094285Y-87264857D01*
X119094285Y-87131523D01*
X119018095Y-87131523D01*
X119265714Y-87302952D02*
X119265714Y-86902952D01*
X119494285Y-87302952D01*
X119494285Y-86902952D01*
X119684761Y-87302952D02*
X119684761Y-86902952D01*
X119780000Y-86902952D01*
X119837142Y-86922000D01*
X119875238Y-86960095D01*
X119894285Y-86998190D01*
X119913333Y-87074380D01*
X119913333Y-87131523D01*
X119894285Y-87207714D01*
X119875238Y-87245809D01*
X119837142Y-87283904D01*
X119780000Y-87302952D01*
X119684761Y-87302952D01*
X115065238Y-87264857D02*
X115046190Y-87283904D01*
X114989047Y-87302952D01*
X114950952Y-87302952D01*
X114893809Y-87283904D01*
X114855714Y-87245809D01*
X114836666Y-87207714D01*
X114817619Y-87131523D01*
X114817619Y-87074380D01*
X114836666Y-86998190D01*
X114855714Y-86960095D01*
X114893809Y-86922000D01*
X114950952Y-86902952D01*
X114989047Y-86902952D01*
X115046190Y-86922000D01*
X115065238Y-86941047D01*
X115293809Y-87302952D02*
X115255714Y-87283904D01*
X115236666Y-87264857D01*
X115217619Y-87226761D01*
X115217619Y-87112476D01*
X115236666Y-87074380D01*
X115255714Y-87055333D01*
X115293809Y-87036285D01*
X115350952Y-87036285D01*
X115389047Y-87055333D01*
X115408095Y-87074380D01*
X115427142Y-87112476D01*
X115427142Y-87226761D01*
X115408095Y-87264857D01*
X115389047Y-87283904D01*
X115350952Y-87302952D01*
X115293809Y-87302952D01*
X115598571Y-87302952D02*
X115598571Y-87036285D01*
X115598571Y-87074380D02*
X115617619Y-87055333D01*
X115655714Y-87036285D01*
X115712857Y-87036285D01*
X115750952Y-87055333D01*
X115770000Y-87093428D01*
X115770000Y-87302952D01*
X115770000Y-87093428D02*
X115789047Y-87055333D01*
X115827142Y-87036285D01*
X115884285Y-87036285D01*
X115922380Y-87055333D01*
X115941428Y-87093428D01*
X115941428Y-87302952D01*
X116131904Y-87036285D02*
X116131904Y-87436285D01*
X116131904Y-87055333D02*
X116170000Y-87036285D01*
X116246190Y-87036285D01*
X116284285Y-87055333D01*
X116303333Y-87074380D01*
X116322380Y-87112476D01*
X116322380Y-87226761D01*
X116303333Y-87264857D01*
X116284285Y-87283904D01*
X116246190Y-87302952D01*
X116170000Y-87302952D01*
X116131904Y-87283904D01*
X117144857Y-87302952D02*
X117144857Y-86902952D01*
X117335333Y-87302952D02*
X117335333Y-86902952D01*
X117563904Y-87302952D01*
X117563904Y-86902952D01*
X117754380Y-87150571D02*
X118059142Y-87150571D01*
X117040095Y-87971285D02*
X117040095Y-88371285D01*
X117040095Y-87990333D02*
X117078190Y-87971285D01*
X117154380Y-87971285D01*
X117192476Y-87990333D01*
X117211523Y-88009380D01*
X117230571Y-88047476D01*
X117230571Y-88161761D01*
X117211523Y-88199857D01*
X117192476Y-88218904D01*
X117154380Y-88237952D01*
X117078190Y-88237952D01*
X117040095Y-88218904D01*
X117363904Y-87971285D02*
X117440095Y-88237952D01*
X117516285Y-88047476D01*
X117592476Y-88237952D01*
X117668666Y-87971285D01*
X117821047Y-88237952D02*
X117821047Y-87971285D01*
X117821047Y-88009380D02*
X117840095Y-87990333D01*
X117878190Y-87971285D01*
X117935333Y-87971285D01*
X117973428Y-87990333D01*
X117992476Y-88028428D01*
X117992476Y-88237952D01*
X117992476Y-88028428D02*
X118011523Y-87990333D01*
X118049619Y-87971285D01*
X118106761Y-87971285D01*
X118144857Y-87990333D01*
X118163904Y-88028428D01*
X118163904Y-88237952D01*
X117240095Y-88907952D02*
X117240095Y-88507952D01*
X117240095Y-88888904D02*
X117202000Y-88907952D01*
X117125809Y-88907952D01*
X117087714Y-88888904D01*
X117068666Y-88869857D01*
X117049619Y-88831761D01*
X117049619Y-88717476D01*
X117068666Y-88679380D01*
X117087714Y-88660333D01*
X117125809Y-88641285D01*
X117202000Y-88641285D01*
X117240095Y-88660333D01*
X117602000Y-88641285D02*
X117602000Y-88907952D01*
X117430571Y-88641285D02*
X117430571Y-88850809D01*
X117449619Y-88888904D01*
X117487714Y-88907952D01*
X117544857Y-88907952D01*
X117582952Y-88888904D01*
X117602000Y-88869857D01*
X117735333Y-88641285D02*
X117887714Y-88641285D01*
X117792476Y-88507952D02*
X117792476Y-88850809D01*
X117811523Y-88888904D01*
X117849619Y-88907952D01*
X117887714Y-88907952D01*
X117982952Y-88641285D02*
X118078190Y-88907952D01*
X118173428Y-88641285D02*
X118078190Y-88907952D01*
X118040095Y-89003190D01*
X118021047Y-89022238D01*
X117982952Y-89041285D01*
X118986380Y-88674571D02*
X119291142Y-88674571D01*
X119481619Y-88826952D02*
X119481619Y-88426952D01*
X119634000Y-88426952D01*
X119672095Y-88446000D01*
X119691142Y-88465047D01*
X119710190Y-88503142D01*
X119710190Y-88560285D01*
X119691142Y-88598380D01*
X119672095Y-88617428D01*
X119634000Y-88636476D01*
X119481619Y-88636476D01*
X119938761Y-88826952D02*
X119900666Y-88807904D01*
X119881619Y-88788857D01*
X119862571Y-88750761D01*
X119862571Y-88636476D01*
X119881619Y-88598380D01*
X119900666Y-88579333D01*
X119938761Y-88560285D01*
X119995904Y-88560285D01*
X120034000Y-88579333D01*
X120053047Y-88598380D01*
X120072095Y-88636476D01*
X120072095Y-88750761D01*
X120053047Y-88788857D01*
X120034000Y-88807904D01*
X119995904Y-88826952D01*
X119938761Y-88826952D01*
X120186380Y-88560285D02*
X120338761Y-88560285D01*
X120243523Y-88426952D02*
X120243523Y-88769809D01*
X120262571Y-88807904D01*
X120300666Y-88826952D01*
X120338761Y-88826952D01*
X114922380Y-88420571D02*
X115227142Y-88420571D01*
X115074761Y-88572952D02*
X115074761Y-88268190D01*
X115417619Y-88572952D02*
X115417619Y-88172952D01*
X115570000Y-88172952D01*
X115608095Y-88192000D01*
X115627142Y-88211047D01*
X115646190Y-88249142D01*
X115646190Y-88306285D01*
X115627142Y-88344380D01*
X115608095Y-88363428D01*
X115570000Y-88382476D01*
X115417619Y-88382476D01*
X115874761Y-88572952D02*
X115836666Y-88553904D01*
X115817619Y-88534857D01*
X115798571Y-88496761D01*
X115798571Y-88382476D01*
X115817619Y-88344380D01*
X115836666Y-88325333D01*
X115874761Y-88306285D01*
X115931904Y-88306285D01*
X115970000Y-88325333D01*
X115989047Y-88344380D01*
X116008095Y-88382476D01*
X116008095Y-88496761D01*
X115989047Y-88534857D01*
X115970000Y-88553904D01*
X115931904Y-88572952D01*
X115874761Y-88572952D01*
X116122380Y-88306285D02*
X116274761Y-88306285D01*
X116179523Y-88172952D02*
X116179523Y-88515809D01*
X116198571Y-88553904D01*
X116236666Y-88572952D01*
X116274761Y-88572952D01*
X115065238Y-94841952D02*
X115065238Y-94441952D01*
X115217619Y-94441952D01*
X115255714Y-94461000D01*
X115274761Y-94480047D01*
X115293809Y-94518142D01*
X115293809Y-94575285D01*
X115274761Y-94613380D01*
X115255714Y-94632428D01*
X115217619Y-94651476D01*
X115065238Y-94651476D01*
X115446190Y-94822904D02*
X115503333Y-94841952D01*
X115598571Y-94841952D01*
X115636666Y-94822904D01*
X115655714Y-94803857D01*
X115674761Y-94765761D01*
X115674761Y-94727666D01*
X115655714Y-94689571D01*
X115636666Y-94670523D01*
X115598571Y-94651476D01*
X115522380Y-94632428D01*
X115484285Y-94613380D01*
X115465238Y-94594333D01*
X115446190Y-94556238D01*
X115446190Y-94518142D01*
X115465238Y-94480047D01*
X115484285Y-94461000D01*
X115522380Y-94441952D01*
X115617619Y-94441952D01*
X115674761Y-94461000D01*
X115846190Y-94441952D02*
X115846190Y-94765761D01*
X115865238Y-94803857D01*
X115884285Y-94822904D01*
X115922380Y-94841952D01*
X115998571Y-94841952D01*
X116036666Y-94822904D01*
X116055714Y-94803857D01*
X116074761Y-94765761D01*
X116074761Y-94441952D01*
X115322380Y-95111952D02*
X115398571Y-95111952D01*
X115436666Y-95131000D01*
X115474761Y-95169095D01*
X115493809Y-95245285D01*
X115493809Y-95378619D01*
X115474761Y-95454809D01*
X115436666Y-95492904D01*
X115398571Y-95511952D01*
X115322380Y-95511952D01*
X115284285Y-95492904D01*
X115246190Y-95454809D01*
X115227142Y-95378619D01*
X115227142Y-95245285D01*
X115246190Y-95169095D01*
X115284285Y-95131000D01*
X115322380Y-95111952D01*
X115665238Y-95511952D02*
X115665238Y-95111952D01*
X115893809Y-95511952D01*
X115893809Y-95111952D01*
X119329238Y-94796000D02*
X119291142Y-94776952D01*
X119234000Y-94776952D01*
X119176857Y-94796000D01*
X119138761Y-94834095D01*
X119119714Y-94872190D01*
X119100666Y-94948380D01*
X119100666Y-95005523D01*
X119119714Y-95081714D01*
X119138761Y-95119809D01*
X119176857Y-95157904D01*
X119234000Y-95176952D01*
X119272095Y-95176952D01*
X119329238Y-95157904D01*
X119348285Y-95138857D01*
X119348285Y-95005523D01*
X119272095Y-95005523D01*
X119519714Y-95176952D02*
X119519714Y-94776952D01*
X119748285Y-95176952D01*
X119748285Y-94776952D01*
X119938761Y-95176952D02*
X119938761Y-94776952D01*
X120034000Y-94776952D01*
X120091142Y-94796000D01*
X120129238Y-94834095D01*
X120148285Y-94872190D01*
X120167333Y-94948380D01*
X120167333Y-95005523D01*
X120148285Y-95081714D01*
X120129238Y-95119809D01*
X120091142Y-95157904D01*
X120034000Y-95176952D01*
X119938761Y-95176952D01*
X117297238Y-94796000D02*
X117259142Y-94776952D01*
X117202000Y-94776952D01*
X117144857Y-94796000D01*
X117106761Y-94834095D01*
X117087714Y-94872190D01*
X117068666Y-94948380D01*
X117068666Y-95005523D01*
X117087714Y-95081714D01*
X117106761Y-95119809D01*
X117144857Y-95157904D01*
X117202000Y-95176952D01*
X117240095Y-95176952D01*
X117297238Y-95157904D01*
X117316285Y-95138857D01*
X117316285Y-95005523D01*
X117240095Y-95005523D01*
X117487714Y-95176952D02*
X117487714Y-94776952D01*
X117716285Y-95176952D01*
X117716285Y-94776952D01*
X117906761Y-95176952D02*
X117906761Y-94776952D01*
X118002000Y-94776952D01*
X118059142Y-94796000D01*
X118097238Y-94834095D01*
X118116285Y-94872190D01*
X118135333Y-94948380D01*
X118135333Y-95005523D01*
X118116285Y-95081714D01*
X118097238Y-95119809D01*
X118059142Y-95157904D01*
X118002000Y-95176952D01*
X117906761Y-95176952D01*
X116244857Y-99532285D02*
X116411523Y-99532285D01*
X116482952Y-99794190D02*
X116244857Y-99794190D01*
X116244857Y-99294190D01*
X116482952Y-99294190D01*
X116697238Y-99460857D02*
X116697238Y-99794190D01*
X116697238Y-99508476D02*
X116721047Y-99484666D01*
X116768666Y-99460857D01*
X116840095Y-99460857D01*
X116887714Y-99484666D01*
X116911523Y-99532285D01*
X116911523Y-99794190D01*
X117363904Y-99794190D02*
X117363904Y-99532285D01*
X117340095Y-99484666D01*
X117292476Y-99460857D01*
X117197238Y-99460857D01*
X117149619Y-99484666D01*
X117363904Y-99770380D02*
X117316285Y-99794190D01*
X117197238Y-99794190D01*
X117149619Y-99770380D01*
X117125809Y-99722761D01*
X117125809Y-99675142D01*
X117149619Y-99627523D01*
X117197238Y-99603714D01*
X117316285Y-99603714D01*
X117363904Y-99579904D01*
X117602000Y-99794190D02*
X117602000Y-99294190D01*
X117602000Y-99484666D02*
X117649619Y-99460857D01*
X117744857Y-99460857D01*
X117792476Y-99484666D01*
X117816285Y-99508476D01*
X117840095Y-99556095D01*
X117840095Y-99698952D01*
X117816285Y-99746571D01*
X117792476Y-99770380D01*
X117744857Y-99794190D01*
X117649619Y-99794190D01*
X117602000Y-99770380D01*
X118125809Y-99794190D02*
X118078190Y-99770380D01*
X118054380Y-99722761D01*
X118054380Y-99294190D01*
X118506761Y-99770380D02*
X118459142Y-99794190D01*
X118363904Y-99794190D01*
X118316285Y-99770380D01*
X118292476Y-99722761D01*
X118292476Y-99532285D01*
X118316285Y-99484666D01*
X118363904Y-99460857D01*
X118459142Y-99460857D01*
X118506761Y-99484666D01*
X118530571Y-99532285D01*
X118530571Y-99579904D01*
X118292476Y-99627523D01*
X118959142Y-99794190D02*
X118959142Y-99294190D01*
X118959142Y-99770380D02*
X118911523Y-99794190D01*
X118816285Y-99794190D01*
X118768666Y-99770380D01*
X118744857Y-99746571D01*
X118721047Y-99698952D01*
X118721047Y-99556095D01*
X118744857Y-99508476D01*
X118768666Y-99484666D01*
X118816285Y-99460857D01*
X118911523Y-99460857D01*
X118959142Y-99484666D01*
X114188952Y-99318000D02*
X114141333Y-99294190D01*
X114069904Y-99294190D01*
X113998476Y-99318000D01*
X113950857Y-99365619D01*
X113927047Y-99413238D01*
X113903238Y-99508476D01*
X113903238Y-99579904D01*
X113927047Y-99675142D01*
X113950857Y-99722761D01*
X113998476Y-99770380D01*
X114069904Y-99794190D01*
X114117523Y-99794190D01*
X114188952Y-99770380D01*
X114212761Y-99746571D01*
X114212761Y-99579904D01*
X114117523Y-99579904D01*
X114427047Y-99794190D02*
X114427047Y-99294190D01*
X114712761Y-99794190D01*
X114712761Y-99294190D01*
X114950857Y-99794190D02*
X114950857Y-99294190D01*
X115069904Y-99294190D01*
X115141333Y-99318000D01*
X115188952Y-99365619D01*
X115212761Y-99413238D01*
X115236571Y-99508476D01*
X115236571Y-99579904D01*
X115212761Y-99675142D01*
X115188952Y-99722761D01*
X115141333Y-99770380D01*
X115069904Y-99794190D01*
X114950857Y-99794190D01*
X115712761Y-99794190D02*
X115427047Y-99794190D01*
X115569904Y-99794190D02*
X115569904Y-99294190D01*
X115522285Y-99365619D01*
X115474666Y-99413238D01*
X115427047Y-99437047D01*
D10*
X118981285Y-104648547D02*
X118981285Y-103998547D01*
X119228904Y-103998547D01*
X119290809Y-104029500D01*
X119321761Y-104060452D01*
X119352714Y-104122357D01*
X119352714Y-104215214D01*
X119321761Y-104277119D01*
X119290809Y-104308071D01*
X119228904Y-104339023D01*
X118981285Y-104339023D01*
X119569380Y-103998547D02*
X119724142Y-104648547D01*
X119847952Y-104184261D01*
X119971761Y-104648547D01*
X120126523Y-103998547D01*
X120374142Y-104648547D02*
X120374142Y-103998547D01*
X120590809Y-104462833D01*
X120807476Y-103998547D01*
X120807476Y-104648547D01*
X118238428Y-105743547D02*
X118238428Y-105093547D01*
X118547952Y-105310214D02*
X118547952Y-105743547D01*
X118547952Y-105372119D02*
X118578904Y-105341166D01*
X118640809Y-105310214D01*
X118733666Y-105310214D01*
X118795571Y-105341166D01*
X118826523Y-105403071D01*
X118826523Y-105743547D01*
X119043190Y-105310214D02*
X119290809Y-105310214D01*
X119136047Y-105093547D02*
X119136047Y-105650690D01*
X119167000Y-105712595D01*
X119228904Y-105743547D01*
X119290809Y-105743547D01*
X119755095Y-105712595D02*
X119693190Y-105743547D01*
X119569380Y-105743547D01*
X119507476Y-105712595D01*
X119476523Y-105650690D01*
X119476523Y-105403071D01*
X119507476Y-105341166D01*
X119569380Y-105310214D01*
X119693190Y-105310214D01*
X119755095Y-105341166D01*
X119786047Y-105403071D01*
X119786047Y-105464976D01*
X119476523Y-105526880D01*
X120064619Y-105310214D02*
X120064619Y-105743547D01*
X120064619Y-105372119D02*
X120095571Y-105341166D01*
X120157476Y-105310214D01*
X120250333Y-105310214D01*
X120312238Y-105341166D01*
X120343190Y-105403071D01*
X120343190Y-105743547D01*
X120621761Y-105712595D02*
X120683666Y-105743547D01*
X120807476Y-105743547D01*
X120869380Y-105712595D01*
X120900333Y-105650690D01*
X120900333Y-105619738D01*
X120869380Y-105557833D01*
X120807476Y-105526880D01*
X120714619Y-105526880D01*
X120652714Y-105495928D01*
X120621761Y-105434023D01*
X120621761Y-105403071D01*
X120652714Y-105341166D01*
X120714619Y-105310214D01*
X120807476Y-105310214D01*
X120869380Y-105341166D01*
X121178904Y-105743547D02*
X121178904Y-105310214D01*
X121178904Y-105093547D02*
X121147952Y-105124500D01*
X121178904Y-105155452D01*
X121209857Y-105124500D01*
X121178904Y-105093547D01*
X121178904Y-105155452D01*
X121395571Y-105310214D02*
X121643190Y-105310214D01*
X121488428Y-105093547D02*
X121488428Y-105650690D01*
X121519380Y-105712595D01*
X121581285Y-105743547D01*
X121643190Y-105743547D01*
X121797952Y-105310214D02*
X121952714Y-105743547D01*
X122107476Y-105310214D02*
X121952714Y-105743547D01*
X121890809Y-105898309D01*
X121859857Y-105929261D01*
X121797952Y-105960214D01*
D11*
X121285047Y-95820285D02*
X121118380Y-95820285D01*
X121118380Y-96082190D02*
X121118380Y-95582190D01*
X121356476Y-95582190D01*
X121761238Y-96082190D02*
X121761238Y-95820285D01*
X121737428Y-95772666D01*
X121689809Y-95748857D01*
X121594571Y-95748857D01*
X121546952Y-95772666D01*
X121761238Y-96058380D02*
X121713619Y-96082190D01*
X121594571Y-96082190D01*
X121546952Y-96058380D01*
X121523142Y-96010761D01*
X121523142Y-95963142D01*
X121546952Y-95915523D01*
X121594571Y-95891714D01*
X121713619Y-95891714D01*
X121761238Y-95867904D01*
X121999333Y-95748857D02*
X121999333Y-96082190D01*
X121999333Y-95796476D02*
X122023142Y-95772666D01*
X122070761Y-95748857D01*
X122142190Y-95748857D01*
X122189809Y-95772666D01*
X122213619Y-95820285D01*
X122213619Y-96082190D01*
X120427904Y-96402190D02*
X120713619Y-96402190D01*
X120570761Y-96902190D02*
X120570761Y-96402190D01*
X120880285Y-96902190D02*
X120880285Y-96568857D01*
X120880285Y-96664095D02*
X120904095Y-96616476D01*
X120927904Y-96592666D01*
X120975523Y-96568857D01*
X121023142Y-96568857D01*
X121189809Y-96902190D02*
X121189809Y-96568857D01*
X121189809Y-96402190D02*
X121166000Y-96426000D01*
X121189809Y-96449809D01*
X121213619Y-96426000D01*
X121189809Y-96402190D01*
X121189809Y-96449809D01*
X121642190Y-96568857D02*
X121642190Y-96973619D01*
X121618380Y-97021238D01*
X121594571Y-97045047D01*
X121546952Y-97068857D01*
X121475523Y-97068857D01*
X121427904Y-97045047D01*
X121642190Y-96878380D02*
X121594571Y-96902190D01*
X121499333Y-96902190D01*
X121451714Y-96878380D01*
X121427904Y-96854571D01*
X121404095Y-96806952D01*
X121404095Y-96664095D01*
X121427904Y-96616476D01*
X121451714Y-96592666D01*
X121499333Y-96568857D01*
X121594571Y-96568857D01*
X121642190Y-96592666D01*
X122094571Y-96568857D02*
X122094571Y-96973619D01*
X122070761Y-97021238D01*
X122046952Y-97045047D01*
X121999333Y-97068857D01*
X121927904Y-97068857D01*
X121880285Y-97045047D01*
X122094571Y-96878380D02*
X122046952Y-96902190D01*
X121951714Y-96902190D01*
X121904095Y-96878380D01*
X121880285Y-96854571D01*
X121856476Y-96806952D01*
X121856476Y-96664095D01*
X121880285Y-96616476D01*
X121904095Y-96592666D01*
X121951714Y-96568857D01*
X122046952Y-96568857D01*
X122094571Y-96592666D01*
X122523142Y-96878380D02*
X122475523Y-96902190D01*
X122380285Y-96902190D01*
X122332666Y-96878380D01*
X122308857Y-96830761D01*
X122308857Y-96640285D01*
X122332666Y-96592666D01*
X122380285Y-96568857D01*
X122475523Y-96568857D01*
X122523142Y-96592666D01*
X122546952Y-96640285D01*
X122546952Y-96687904D01*
X122308857Y-96735523D01*
X122761238Y-96902190D02*
X122761238Y-96568857D01*
X122761238Y-96664095D02*
X122785047Y-96616476D01*
X122808857Y-96592666D01*
X122856476Y-96568857D01*
X122904095Y-96568857D01*
X122507523Y-87602190D02*
X122507523Y-87102190D01*
X122793238Y-87602190D01*
X122793238Y-87102190D01*
X123031333Y-87340285D02*
X123198000Y-87340285D01*
X123269428Y-87602190D02*
X123031333Y-87602190D01*
X123031333Y-87102190D01*
X123269428Y-87102190D01*
X123364666Y-87649809D02*
X123745619Y-87649809D01*
X123959904Y-87102190D02*
X124055142Y-87102190D01*
X124102761Y-87126000D01*
X124150380Y-87173619D01*
X124174190Y-87268857D01*
X124174190Y-87435523D01*
X124150380Y-87530761D01*
X124102761Y-87578380D01*
X124055142Y-87602190D01*
X123959904Y-87602190D01*
X123912285Y-87578380D01*
X123864666Y-87530761D01*
X123840857Y-87435523D01*
X123840857Y-87268857D01*
X123864666Y-87173619D01*
X123912285Y-87126000D01*
X123959904Y-87102190D01*
X124602761Y-87268857D02*
X124602761Y-87602190D01*
X124388476Y-87268857D02*
X124388476Y-87530761D01*
X124412285Y-87578380D01*
X124459904Y-87602190D01*
X124531333Y-87602190D01*
X124578952Y-87578380D01*
X124602761Y-87554571D01*
X124769428Y-87268857D02*
X124959904Y-87268857D01*
X124840857Y-87102190D02*
X124840857Y-87530761D01*
X124864666Y-87578380D01*
X124912285Y-87602190D01*
X124959904Y-87602190D01*
X122244190Y-85427142D02*
X121744190Y-85427142D01*
X121982285Y-85427142D02*
X121982285Y-85141428D01*
X122244190Y-85141428D02*
X121744190Y-85141428D01*
X122244190Y-84831904D02*
X122220380Y-84879523D01*
X122196571Y-84903333D01*
X122148952Y-84927142D01*
X122006095Y-84927142D01*
X121958476Y-84903333D01*
X121934666Y-84879523D01*
X121910857Y-84831904D01*
X121910857Y-84760476D01*
X121934666Y-84712857D01*
X121958476Y-84689047D01*
X122006095Y-84665238D01*
X122148952Y-84665238D01*
X122196571Y-84689047D01*
X122220380Y-84712857D01*
X122244190Y-84760476D01*
X122244190Y-84831904D01*
X121910857Y-84522380D02*
X121910857Y-84331904D01*
X121744190Y-84450952D02*
X122172761Y-84450952D01*
X122220380Y-84427142D01*
X122244190Y-84379523D01*
X122244190Y-84331904D01*
X121720380Y-83808095D02*
X122363238Y-84236666D01*
X122196571Y-83355714D02*
X122220380Y-83379523D01*
X122244190Y-83450952D01*
X122244190Y-83498571D01*
X122220380Y-83570000D01*
X122172761Y-83617619D01*
X122125142Y-83641428D01*
X122029904Y-83665238D01*
X121958476Y-83665238D01*
X121863238Y-83641428D01*
X121815619Y-83617619D01*
X121768000Y-83570000D01*
X121744190Y-83498571D01*
X121744190Y-83450952D01*
X121768000Y-83379523D01*
X121791809Y-83355714D01*
X122244190Y-83070000D02*
X122220380Y-83117619D01*
X122196571Y-83141428D01*
X122148952Y-83165238D01*
X122006095Y-83165238D01*
X121958476Y-83141428D01*
X121934666Y-83117619D01*
X121910857Y-83070000D01*
X121910857Y-82998571D01*
X121934666Y-82950952D01*
X121958476Y-82927142D01*
X122006095Y-82903333D01*
X122148952Y-82903333D01*
X122196571Y-82927142D01*
X122220380Y-82950952D01*
X122244190Y-82998571D01*
X122244190Y-83070000D01*
X122244190Y-82617619D02*
X122220380Y-82665238D01*
X122172761Y-82689047D01*
X121744190Y-82689047D01*
X122244190Y-82212857D02*
X121744190Y-82212857D01*
X122220380Y-82212857D02*
X122244190Y-82260476D01*
X122244190Y-82355714D01*
X122220380Y-82403333D01*
X122196571Y-82427142D01*
X122148952Y-82450952D01*
X122006095Y-82450952D01*
X121958476Y-82427142D01*
X121934666Y-82403333D01*
X121910857Y-82355714D01*
X121910857Y-82260476D01*
X121934666Y-82212857D01*
X123040380Y-84891428D02*
X123064190Y-84843809D01*
X123064190Y-84748571D01*
X123040380Y-84700952D01*
X122992761Y-84677142D01*
X122968952Y-84677142D01*
X122921333Y-84700952D01*
X122897523Y-84748571D01*
X122897523Y-84820000D01*
X122873714Y-84867619D01*
X122826095Y-84891428D01*
X122802285Y-84891428D01*
X122754666Y-84867619D01*
X122730857Y-84820000D01*
X122730857Y-84748571D01*
X122754666Y-84700952D01*
X122730857Y-84510476D02*
X123064190Y-84415238D01*
X122826095Y-84320000D01*
X123064190Y-84224761D01*
X122730857Y-84129523D01*
X123064190Y-83939047D02*
X122730857Y-83939047D01*
X122564190Y-83939047D02*
X122588000Y-83962857D01*
X122611809Y-83939047D01*
X122588000Y-83915238D01*
X122564190Y-83939047D01*
X122611809Y-83939047D01*
X122730857Y-83772380D02*
X122730857Y-83581904D01*
X122564190Y-83700952D02*
X122992761Y-83700952D01*
X123040380Y-83677142D01*
X123064190Y-83629523D01*
X123064190Y-83581904D01*
X123040380Y-83200952D02*
X123064190Y-83248571D01*
X123064190Y-83343809D01*
X123040380Y-83391428D01*
X123016571Y-83415238D01*
X122968952Y-83439047D01*
X122826095Y-83439047D01*
X122778476Y-83415238D01*
X122754666Y-83391428D01*
X122730857Y-83343809D01*
X122730857Y-83248571D01*
X122754666Y-83200952D01*
X123064190Y-82986666D02*
X122564190Y-82986666D01*
X123064190Y-82772380D02*
X122802285Y-82772380D01*
X122754666Y-82796190D01*
X122730857Y-82843809D01*
X122730857Y-82915238D01*
X122754666Y-82962857D01*
X122778476Y-82986666D01*
X118181523Y-75254190D02*
X118181523Y-74754190D01*
X118300571Y-74754190D01*
X118372000Y-74778000D01*
X118419619Y-74825619D01*
X118443428Y-74873238D01*
X118467238Y-74968476D01*
X118467238Y-75039904D01*
X118443428Y-75135142D01*
X118419619Y-75182761D01*
X118372000Y-75230380D01*
X118300571Y-75254190D01*
X118181523Y-75254190D01*
X118895809Y-74920857D02*
X118895809Y-75254190D01*
X118681523Y-74920857D02*
X118681523Y-75182761D01*
X118705333Y-75230380D01*
X118752952Y-75254190D01*
X118824380Y-75254190D01*
X118872000Y-75230380D01*
X118895809Y-75206571D01*
X119062476Y-74920857D02*
X119252952Y-74920857D01*
X119133904Y-74754190D02*
X119133904Y-75182761D01*
X119157714Y-75230380D01*
X119205333Y-75254190D01*
X119252952Y-75254190D01*
X119372000Y-74920857D02*
X119491047Y-75254190D01*
X119610095Y-74920857D02*
X119491047Y-75254190D01*
X119443428Y-75373238D01*
X119419619Y-75397047D01*
X119372000Y-75420857D01*
X118276761Y-76026571D02*
X118252952Y-76050380D01*
X118181523Y-76074190D01*
X118133904Y-76074190D01*
X118062476Y-76050380D01*
X118014857Y-76002761D01*
X117991047Y-75955142D01*
X117967238Y-75859904D01*
X117967238Y-75788476D01*
X117991047Y-75693238D01*
X118014857Y-75645619D01*
X118062476Y-75598000D01*
X118133904Y-75574190D01*
X118181523Y-75574190D01*
X118252952Y-75598000D01*
X118276761Y-75621809D01*
X118443428Y-75740857D02*
X118562476Y-76074190D01*
X118681523Y-75740857D02*
X118562476Y-76074190D01*
X118514857Y-76193238D01*
X118491047Y-76217047D01*
X118443428Y-76240857D01*
X119086285Y-76050380D02*
X119038666Y-76074190D01*
X118943428Y-76074190D01*
X118895809Y-76050380D01*
X118872000Y-76026571D01*
X118848190Y-75978952D01*
X118848190Y-75836095D01*
X118872000Y-75788476D01*
X118895809Y-75764666D01*
X118943428Y-75740857D01*
X119038666Y-75740857D01*
X119086285Y-75764666D01*
X119372000Y-76074190D02*
X119324380Y-76050380D01*
X119300571Y-76002761D01*
X119300571Y-75574190D01*
X119752952Y-76050380D02*
X119705333Y-76074190D01*
X119610095Y-76074190D01*
X119562476Y-76050380D01*
X119538666Y-76002761D01*
X119538666Y-75812285D01*
X119562476Y-75764666D01*
X119610095Y-75740857D01*
X119705333Y-75740857D01*
X119752952Y-75764666D01*
X119776761Y-75812285D01*
X119776761Y-75859904D01*
X119538666Y-75907523D01*
X114685047Y-75206571D02*
X114661238Y-75230380D01*
X114589809Y-75254190D01*
X114542190Y-75254190D01*
X114470761Y-75230380D01*
X114423142Y-75182761D01*
X114399333Y-75135142D01*
X114375523Y-75039904D01*
X114375523Y-74968476D01*
X114399333Y-74873238D01*
X114423142Y-74825619D01*
X114470761Y-74778000D01*
X114542190Y-74754190D01*
X114589809Y-74754190D01*
X114661238Y-74778000D01*
X114685047Y-74801809D01*
X114970761Y-75254190D02*
X114923142Y-75230380D01*
X114899333Y-75206571D01*
X114875523Y-75158952D01*
X114875523Y-75016095D01*
X114899333Y-74968476D01*
X114923142Y-74944666D01*
X114970761Y-74920857D01*
X115042190Y-74920857D01*
X115089809Y-74944666D01*
X115113619Y-74968476D01*
X115137428Y-75016095D01*
X115137428Y-75158952D01*
X115113619Y-75206571D01*
X115089809Y-75230380D01*
X115042190Y-75254190D01*
X114970761Y-75254190D01*
X115351714Y-75254190D02*
X115351714Y-74920857D01*
X115351714Y-74968476D02*
X115375523Y-74944666D01*
X115423142Y-74920857D01*
X115494571Y-74920857D01*
X115542190Y-74944666D01*
X115566000Y-74992285D01*
X115566000Y-75254190D01*
X115566000Y-74992285D02*
X115589809Y-74944666D01*
X115637428Y-74920857D01*
X115708857Y-74920857D01*
X115756476Y-74944666D01*
X115780285Y-74992285D01*
X115780285Y-75254190D01*
X116018380Y-74920857D02*
X116018380Y-75420857D01*
X116018380Y-74944666D02*
X116066000Y-74920857D01*
X116161238Y-74920857D01*
X116208857Y-74944666D01*
X116232666Y-74968476D01*
X116256476Y-75016095D01*
X116256476Y-75158952D01*
X116232666Y-75206571D01*
X116208857Y-75230380D01*
X116161238Y-75254190D01*
X116066000Y-75254190D01*
X116018380Y-75230380D01*
X114589809Y-76074190D02*
X114589809Y-75574190D01*
X114780285Y-75574190D01*
X114827904Y-75598000D01*
X114851714Y-75621809D01*
X114875523Y-75669428D01*
X114875523Y-75740857D01*
X114851714Y-75788476D01*
X114827904Y-75812285D01*
X114780285Y-75836095D01*
X114589809Y-75836095D01*
X115042190Y-75740857D02*
X115137428Y-76074190D01*
X115232666Y-75836095D01*
X115327904Y-76074190D01*
X115423142Y-75740857D01*
X115613619Y-76074190D02*
X115613619Y-75740857D01*
X115613619Y-75788476D02*
X115637428Y-75764666D01*
X115685047Y-75740857D01*
X115756476Y-75740857D01*
X115804095Y-75764666D01*
X115827904Y-75812285D01*
X115827904Y-76074190D01*
X115827904Y-75812285D02*
X115851714Y-75764666D01*
X115899333Y-75740857D01*
X115970761Y-75740857D01*
X116018380Y-75764666D01*
X116042190Y-75812285D01*
X116042190Y-76074190D01*
D10*
X118182904Y-113578047D02*
X118182904Y-112928047D01*
X118430523Y-112928047D01*
X118492428Y-112959000D01*
X118523380Y-112989952D01*
X118554333Y-113051857D01*
X118554333Y-113144714D01*
X118523380Y-113206619D01*
X118492428Y-113237571D01*
X118430523Y-113268523D01*
X118182904Y-113268523D01*
X118925761Y-113578047D02*
X118863857Y-113547095D01*
X118832904Y-113516142D01*
X118801952Y-113454238D01*
X118801952Y-113268523D01*
X118832904Y-113206619D01*
X118863857Y-113175666D01*
X118925761Y-113144714D01*
X119018619Y-113144714D01*
X119080523Y-113175666D01*
X119111476Y-113206619D01*
X119142428Y-113268523D01*
X119142428Y-113454238D01*
X119111476Y-113516142D01*
X119080523Y-113547095D01*
X119018619Y-113578047D01*
X118925761Y-113578047D01*
X119359095Y-113144714D02*
X119482904Y-113578047D01*
X119606714Y-113268523D01*
X119730523Y-113578047D01*
X119854333Y-113144714D01*
X120349571Y-113547095D02*
X120287666Y-113578047D01*
X120163857Y-113578047D01*
X120101952Y-113547095D01*
X120071000Y-113485190D01*
X120071000Y-113237571D01*
X120101952Y-113175666D01*
X120163857Y-113144714D01*
X120287666Y-113144714D01*
X120349571Y-113175666D01*
X120380523Y-113237571D01*
X120380523Y-113299476D01*
X120071000Y-113361380D01*
X120659095Y-113578047D02*
X120659095Y-113144714D01*
X120659095Y-113268523D02*
X120690047Y-113206619D01*
X120721000Y-113175666D01*
X120782904Y-113144714D01*
X120844809Y-113144714D01*
X121680523Y-112928047D02*
X121804333Y-112928047D01*
X121866238Y-112959000D01*
X121928142Y-113020904D01*
X121959095Y-113144714D01*
X121959095Y-113361380D01*
X121928142Y-113485190D01*
X121866238Y-113547095D01*
X121804333Y-113578047D01*
X121680523Y-113578047D01*
X121618619Y-113547095D01*
X121556714Y-113485190D01*
X121525761Y-113361380D01*
X121525761Y-113144714D01*
X121556714Y-113020904D01*
X121618619Y-112959000D01*
X121680523Y-112928047D01*
X122237666Y-113578047D02*
X122237666Y-112928047D01*
X122609095Y-113578047D01*
X122609095Y-112928047D01*
X118346761Y-109260047D02*
X118346761Y-108610047D01*
X118594380Y-108610047D01*
X118656285Y-108641000D01*
X118687238Y-108671952D01*
X118718190Y-108733857D01*
X118718190Y-108826714D01*
X118687238Y-108888619D01*
X118656285Y-108919571D01*
X118594380Y-108950523D01*
X118346761Y-108950523D01*
X118934857Y-108610047D02*
X119089619Y-109260047D01*
X119213428Y-108795761D01*
X119337238Y-109260047D01*
X119492000Y-108610047D01*
X119739619Y-109260047D02*
X119739619Y-108610047D01*
X119956285Y-109074333D01*
X120172952Y-108610047D01*
X120172952Y-109260047D01*
X121101523Y-108610047D02*
X121225333Y-108610047D01*
X121287238Y-108641000D01*
X121349142Y-108702904D01*
X121380095Y-108826714D01*
X121380095Y-109043380D01*
X121349142Y-109167190D01*
X121287238Y-109229095D01*
X121225333Y-109260047D01*
X121101523Y-109260047D01*
X121039619Y-109229095D01*
X120977714Y-109167190D01*
X120946761Y-109043380D01*
X120946761Y-108826714D01*
X120977714Y-108702904D01*
X121039619Y-108641000D01*
X121101523Y-108610047D01*
X121658666Y-108826714D02*
X121658666Y-109260047D01*
X121658666Y-108888619D02*
X121689619Y-108857666D01*
X121751523Y-108826714D01*
X121844380Y-108826714D01*
X121906285Y-108857666D01*
X121937238Y-108919571D01*
X121937238Y-109260047D01*
D12*
X139496666Y-112472000D02*
X139596666Y-112505333D01*
X139630000Y-112538666D01*
X139663333Y-112605333D01*
X139663333Y-112705333D01*
X139630000Y-112772000D01*
X139596666Y-112805333D01*
X139530000Y-112838666D01*
X139263333Y-112838666D01*
X139263333Y-112138666D01*
X139496666Y-112138666D01*
X139563333Y-112172000D01*
X139596666Y-112205333D01*
X139630000Y-112272000D01*
X139630000Y-112338666D01*
X139596666Y-112405333D01*
X139563333Y-112438666D01*
X139496666Y-112472000D01*
X139263333Y-112472000D01*
X139863333Y-112138666D02*
X140263333Y-112138666D01*
X140063333Y-112838666D02*
X140063333Y-112138666D01*
X140463333Y-112805333D02*
X140563333Y-112838666D01*
X140730000Y-112838666D01*
X140796666Y-112805333D01*
X140830000Y-112772000D01*
X140863333Y-112705333D01*
X140863333Y-112638666D01*
X140830000Y-112572000D01*
X140796666Y-112538666D01*
X140730000Y-112505333D01*
X140596666Y-112472000D01*
X140530000Y-112438666D01*
X140496666Y-112405333D01*
X140463333Y-112338666D01*
X140463333Y-112272000D01*
X140496666Y-112205333D01*
X140530000Y-112172000D01*
X140596666Y-112138666D01*
X140763333Y-112138666D01*
X140863333Y-112172000D01*
X141163333Y-112572000D02*
X141696666Y-112572000D01*
X142363333Y-112838666D02*
X142030000Y-112838666D01*
X142030000Y-112138666D01*
X142696666Y-112838666D02*
X142630000Y-112805333D01*
X142596666Y-112772000D01*
X142563333Y-112705333D01*
X142563333Y-112505333D01*
X142596666Y-112438666D01*
X142630000Y-112405333D01*
X142696666Y-112372000D01*
X142796666Y-112372000D01*
X142863333Y-112405333D01*
X142896666Y-112438666D01*
X142930000Y-112505333D01*
X142930000Y-112705333D01*
X142896666Y-112772000D01*
X142863333Y-112805333D01*
X142796666Y-112838666D01*
X142696666Y-112838666D01*
X143530000Y-112372000D02*
X143530000Y-112938666D01*
X143496666Y-113005333D01*
X143463333Y-113038666D01*
X143396666Y-113072000D01*
X143296666Y-113072000D01*
X143230000Y-113038666D01*
X143530000Y-112805333D02*
X143463333Y-112838666D01*
X143330000Y-112838666D01*
X143263333Y-112805333D01*
X143230000Y-112772000D01*
X143196666Y-112705333D01*
X143196666Y-112505333D01*
X143230000Y-112438666D01*
X143263333Y-112405333D01*
X143330000Y-112372000D01*
X143463333Y-112372000D01*
X143530000Y-112405333D01*
X143863333Y-112838666D02*
X143863333Y-112372000D01*
X143863333Y-112138666D02*
X143830000Y-112172000D01*
X143863333Y-112205333D01*
X143896666Y-112172000D01*
X143863333Y-112138666D01*
X143863333Y-112205333D01*
X144496666Y-112805333D02*
X144430000Y-112838666D01*
X144296666Y-112838666D01*
X144230000Y-112805333D01*
X144196666Y-112772000D01*
X144163333Y-112705333D01*
X144163333Y-112505333D01*
X144196666Y-112438666D01*
X144230000Y-112405333D01*
X144296666Y-112372000D01*
X144430000Y-112372000D01*
X144496666Y-112405333D01*
X145030000Y-112472000D02*
X145130000Y-112505333D01*
X145163333Y-112538666D01*
X145196666Y-112605333D01*
X145196666Y-112705333D01*
X145163333Y-112772000D01*
X145130000Y-112805333D01*
X145063333Y-112838666D01*
X144796666Y-112838666D01*
X144796666Y-112138666D01*
X145030000Y-112138666D01*
X145096666Y-112172000D01*
X145130000Y-112205333D01*
X145163333Y-112272000D01*
X145163333Y-112338666D01*
X145130000Y-112405333D01*
X145096666Y-112438666D01*
X145030000Y-112472000D01*
X144796666Y-112472000D01*
X145596666Y-112838666D02*
X145530000Y-112805333D01*
X145496666Y-112772000D01*
X145463333Y-112705333D01*
X145463333Y-112505333D01*
X145496666Y-112438666D01*
X145530000Y-112405333D01*
X145596666Y-112372000D01*
X145696666Y-112372000D01*
X145763333Y-112405333D01*
X145796666Y-112438666D01*
X145830000Y-112505333D01*
X145830000Y-112705333D01*
X145796666Y-112772000D01*
X145763333Y-112805333D01*
X145696666Y-112838666D01*
X145596666Y-112838666D01*
X146430000Y-112838666D02*
X146430000Y-112472000D01*
X146396666Y-112405333D01*
X146330000Y-112372000D01*
X146196666Y-112372000D01*
X146130000Y-112405333D01*
X146430000Y-112805333D02*
X146363333Y-112838666D01*
X146196666Y-112838666D01*
X146130000Y-112805333D01*
X146096666Y-112738666D01*
X146096666Y-112672000D01*
X146130000Y-112605333D01*
X146196666Y-112572000D01*
X146363333Y-112572000D01*
X146430000Y-112538666D01*
X146763333Y-112838666D02*
X146763333Y-112372000D01*
X146763333Y-112505333D02*
X146796666Y-112438666D01*
X146830000Y-112405333D01*
X146896666Y-112372000D01*
X146963333Y-112372000D01*
X147496666Y-112838666D02*
X147496666Y-112138666D01*
X147496666Y-112805333D02*
X147430000Y-112838666D01*
X147296666Y-112838666D01*
X147230000Y-112805333D01*
X147196666Y-112772000D01*
X147163333Y-112705333D01*
X147163333Y-112505333D01*
X147196666Y-112438666D01*
X147230000Y-112405333D01*
X147296666Y-112372000D01*
X147430000Y-112372000D01*
X147496666Y-112405333D01*
X148263333Y-112138666D02*
X148496666Y-112838666D01*
X148730000Y-112138666D01*
X149330000Y-112838666D02*
X148930000Y-112838666D01*
X149130000Y-112838666D02*
X149130000Y-112138666D01*
X149063333Y-112238666D01*
X148996666Y-112305333D01*
X148930000Y-112338666D01*
X149630000Y-112772000D02*
X149663333Y-112805333D01*
X149630000Y-112838666D01*
X149596666Y-112805333D01*
X149630000Y-112772000D01*
X149630000Y-112838666D01*
X150330000Y-112838666D02*
X149930000Y-112838666D01*
X150130000Y-112838666D02*
X150130000Y-112138666D01*
X150063333Y-112238666D01*
X149996666Y-112305333D01*
X149930000Y-112338666D01*
D10*
%TO.C,J2*%
X137174988Y-109710001D02*
X127175009Y-109710001D01*
X137174988Y-121460001D02*
X137174988Y-109710001D01*
X127175009Y-121460001D02*
X137174988Y-121460001D01*
X127175009Y-109710001D02*
X127175009Y-121460001D01*
X129540000Y-107932001D02*
X130175000Y-109456001D01*
X130810000Y-107932001D02*
X129540000Y-107932001D01*
X130175000Y-109456001D02*
X130810000Y-107932001D01*
%TO.C,J5*%
X141525000Y-76870000D02*
X138525000Y-76870000D01*
X138525000Y-76870000D02*
X138525000Y-77620000D01*
X138525000Y-77620000D02*
X126525000Y-77620000D01*
X126525000Y-77620000D02*
X126525000Y-76870000D01*
X126525000Y-76870000D02*
X123525000Y-76870000D01*
X123525000Y-76870000D02*
X123525000Y-68120000D01*
X123525000Y-68120000D02*
X124525000Y-66620000D01*
X124525000Y-66620000D02*
X140275000Y-66620000D01*
X140275000Y-66620000D02*
X141525000Y-68370000D01*
X141525000Y-68370000D02*
X141525000Y-76870000D01*
%TO.C,J4*%
X117975000Y-81890000D02*
X117975000Y-81490000D01*
X116975000Y-81890000D02*
X117975000Y-81890000D01*
X116975000Y-81490000D02*
X116975000Y-81890000D01*
X118975000Y-81890000D02*
X118975000Y-81490000D01*
X121175000Y-81890000D02*
X118975000Y-81890000D01*
X121175000Y-84090000D02*
X121175000Y-81890000D01*
X121575000Y-84090000D02*
X121175000Y-84090000D01*
X115975000Y-81890000D02*
X115975000Y-81490000D01*
X113775000Y-81890000D02*
X115975000Y-81890000D01*
X113775000Y-84090000D02*
X113775000Y-81890000D01*
X113375000Y-84090000D02*
X113775000Y-84090000D01*
X121175000Y-85090000D02*
X121575000Y-85090000D01*
X121175000Y-86290000D02*
X121175000Y-85090000D01*
X113775000Y-86290000D02*
X121175000Y-86290000D01*
X113775000Y-85090000D02*
X113775000Y-86290000D01*
X113375000Y-85090000D02*
X113775000Y-85090000D01*
X113065000Y-81180000D02*
X114975000Y-81180000D01*
X113065000Y-83090000D02*
X113065000Y-81180000D01*
X121575000Y-81490000D02*
X113375000Y-81490000D01*
X121575000Y-86690000D02*
X121575000Y-81490000D01*
X113375000Y-86690000D02*
X121575000Y-86690000D01*
X113375000Y-81490000D02*
X113375000Y-86690000D01*
%TO.C,J1*%
X118070000Y-89478000D02*
X118070000Y-89078000D01*
X117070000Y-89478000D02*
X118070000Y-89478000D01*
X117070000Y-89078000D02*
X117070000Y-89478000D01*
X119070000Y-89478000D02*
X119070000Y-89078000D01*
X121270000Y-89478000D02*
X119070000Y-89478000D01*
X121270000Y-91678000D02*
X121270000Y-89478000D01*
X121670000Y-91678000D02*
X121270000Y-91678000D01*
X116070000Y-89478000D02*
X116070000Y-89078000D01*
X113870000Y-89478000D02*
X116070000Y-89478000D01*
X113870000Y-91678000D02*
X113870000Y-89478000D01*
X113470000Y-91678000D02*
X113870000Y-91678000D01*
X121270000Y-92678000D02*
X121670000Y-92678000D01*
X121270000Y-93878000D02*
X121270000Y-92678000D01*
X113870000Y-93878000D02*
X121270000Y-93878000D01*
X113870000Y-92678000D02*
X113870000Y-93878000D01*
X113470000Y-92678000D02*
X113870000Y-92678000D01*
X113160000Y-88768000D02*
X115070000Y-88768000D01*
X113160000Y-90678000D02*
X113160000Y-88768000D01*
X121670000Y-89078000D02*
X113470000Y-89078000D01*
X121670000Y-94278000D02*
X121670000Y-89078000D01*
X113470000Y-94278000D02*
X121670000Y-94278000D01*
X113470000Y-89078000D02*
X113470000Y-94278000D01*
%TO.C,U6*%
X126735000Y-98765000D02*
X128535000Y-98765000D01*
X128535000Y-95545000D02*
X126085000Y-95545000D01*
%TO.C,TP5*%
X130740000Y-78994000D02*
G75*
G03*
X130740000Y-78994000I-1200000J0D01*
G01*
%TO.C,TP4*%
X124898000Y-95250000D02*
G75*
G03*
X124898000Y-95250000I-1200000J0D01*
G01*
%TO.C,TP3*%
X120072000Y-79248000D02*
G75*
G03*
X120072000Y-79248000I-1200000J0D01*
G01*
%TO.C,TP2*%
X116770000Y-79248000D02*
G75*
G03*
X116770000Y-79248000I-1200000J0D01*
G01*
%TO.C,TP1*%
X125152000Y-90678000D02*
G75*
G03*
X125152000Y-90678000I-1200000J0D01*
G01*
%TO.C,R14*%
X135390936Y-97388000D02*
X136845064Y-97388000D01*
X135390936Y-99208000D02*
X136845064Y-99208000D01*
%TO.C,R13*%
X135416936Y-95102000D02*
X136871064Y-95102000D01*
X135416936Y-96922000D02*
X136871064Y-96922000D01*
%TO.C,R5*%
X132228000Y-93760936D02*
X132228000Y-95215064D01*
X130408000Y-93760936D02*
X130408000Y-95215064D01*
%TO.C,R4*%
X128235064Y-104796000D02*
X126780936Y-104796000D01*
X128235064Y-102976000D02*
X126780936Y-102976000D01*
%TO.C,D4*%
X114264000Y-101634000D02*
X114264000Y-101790000D01*
X114264000Y-103950000D02*
X114264000Y-104106000D01*
X116865130Y-103949837D02*
G75*
G02*
X114783039Y-103950000I-1041130J1079837D01*
G01*
X116865130Y-101790163D02*
G75*
G03*
X114783039Y-101790000I-1041130J-1079837D01*
G01*
X117496335Y-103948608D02*
G75*
G02*
X114264000Y-104105516I-1672335J1078608D01*
G01*
X117496335Y-101791392D02*
G75*
G03*
X114264000Y-101634484I-1672335J-1078608D01*
G01*
%TO.C,D3*%
X114264000Y-110778000D02*
X114264000Y-110934000D01*
X114264000Y-113094000D02*
X114264000Y-113250000D01*
X116865130Y-113093837D02*
G75*
G02*
X114783039Y-113094000I-1041130J1079837D01*
G01*
X116865130Y-110934163D02*
G75*
G03*
X114783039Y-110934000I-1041130J-1079837D01*
G01*
X117496335Y-113092608D02*
G75*
G02*
X114264000Y-113249516I-1672335J1078608D01*
G01*
X117496335Y-110935392D02*
G75*
G03*
X114264000Y-110778484I-1672335J-1078608D01*
G01*
%TO.C,C11*%
X128346252Y-94890000D02*
X126923748Y-94890000D01*
X128346252Y-93070000D02*
X126923748Y-93070000D01*
%TO.C,C9*%
X132156252Y-85746000D02*
X130733748Y-85746000D01*
X132156252Y-83926000D02*
X130733748Y-83926000D01*
%TO.C,C8*%
X151310000Y-108765000D02*
X151310000Y-105015000D01*
X151310000Y-98245000D02*
X151310000Y-101995000D01*
X141854437Y-98245000D02*
X151310000Y-98245000D01*
X141854437Y-108765000D02*
X151310000Y-108765000D01*
X140790000Y-107700563D02*
X140790000Y-105015000D01*
X140790000Y-99309437D02*
X140790000Y-101995000D01*
X140790000Y-99309437D02*
X141854437Y-98245000D01*
X140790000Y-107700563D02*
X141854437Y-108765000D01*
X139300000Y-100745000D02*
X140550000Y-100745000D01*
X139925000Y-100120000D02*
X139925000Y-101370000D01*
%TO.C,U2*%
X131445000Y-86340000D02*
X127995000Y-86340000D01*
X131445000Y-86340000D02*
X133395000Y-86340000D01*
X131445000Y-91460000D02*
X129495000Y-91460000D01*
X131445000Y-91460000D02*
X133395000Y-91460000D01*
%TO.C,U1*%
X128535000Y-99228000D02*
X126085000Y-99228000D01*
X126735000Y-102448000D02*
X128535000Y-102448000D01*
%TO.C,J3*%
X118678000Y-97536000D02*
X118678000Y-98866000D01*
X118678000Y-98866000D02*
X117348000Y-98866000D01*
X116078000Y-98866000D02*
X113478000Y-98866000D01*
X113478000Y-96206000D02*
X113478000Y-98866000D01*
X116078000Y-96206000D02*
X113478000Y-96206000D01*
X116078000Y-96206000D02*
X116078000Y-98866000D01*
%TO.C,D1*%
X114264000Y-108522000D02*
X114264000Y-108678000D01*
X114264000Y-106206000D02*
X114264000Y-106362000D01*
X116865130Y-108521837D02*
G75*
G02*
X114783039Y-108522000I-1041130J1079837D01*
G01*
X116865130Y-106362163D02*
G75*
G03*
X114783039Y-106362000I-1041130J-1079837D01*
G01*
X117496335Y-108520608D02*
G75*
G02*
X114264000Y-108677516I-1672335J1078608D01*
G01*
X117496335Y-106363392D02*
G75*
G03*
X114264000Y-106206484I-1672335J-1078608D01*
G01*
%TO.C,C7*%
X127275000Y-87071252D02*
X127275000Y-85648748D01*
X125455000Y-87071252D02*
X125455000Y-85648748D01*
%TO.C,C5*%
X139925000Y-84245000D02*
X139925000Y-85495000D01*
X139300000Y-84870000D02*
X140550000Y-84870000D01*
X140790000Y-91825563D02*
X141854437Y-92890000D01*
X140790000Y-83434437D02*
X141854437Y-82370000D01*
X140790000Y-83434437D02*
X140790000Y-86120000D01*
X140790000Y-91825563D02*
X140790000Y-89140000D01*
X141854437Y-92890000D02*
X151310000Y-92890000D01*
X141854437Y-82370000D02*
X151310000Y-82370000D01*
X151310000Y-82370000D02*
X151310000Y-86120000D01*
X151310000Y-92890000D02*
X151310000Y-89140000D01*
%TO.C,J2*%
D13*
X132508666Y-106386380D02*
X132508666Y-107100666D01*
X132461047Y-107243523D01*
X132365809Y-107338761D01*
X132222952Y-107386380D01*
X132127714Y-107386380D01*
X132937238Y-106481619D02*
X132984857Y-106434000D01*
X133080095Y-106386380D01*
X133318190Y-106386380D01*
X133413428Y-106434000D01*
X133461047Y-106481619D01*
X133508666Y-106576857D01*
X133508666Y-106672095D01*
X133461047Y-106814952D01*
X132889619Y-107386380D01*
X133508666Y-107386380D01*
D12*
X125980000Y-118821666D02*
X126013333Y-118855000D01*
X126046666Y-118955000D01*
X126046666Y-119021666D01*
X126013333Y-119121666D01*
X125946666Y-119188333D01*
X125880000Y-119221666D01*
X125746666Y-119255000D01*
X125646666Y-119255000D01*
X125513333Y-119221666D01*
X125446666Y-119188333D01*
X125380000Y-119121666D01*
X125346666Y-119021666D01*
X125346666Y-118955000D01*
X125380000Y-118855000D01*
X125413333Y-118821666D01*
X126046666Y-118421666D02*
X126013333Y-118488333D01*
X125980000Y-118521666D01*
X125913333Y-118555000D01*
X125713333Y-118555000D01*
X125646666Y-118521666D01*
X125613333Y-118488333D01*
X125580000Y-118421666D01*
X125580000Y-118321666D01*
X125613333Y-118255000D01*
X125646666Y-118221666D01*
X125713333Y-118188333D01*
X125913333Y-118188333D01*
X125980000Y-118221666D01*
X126013333Y-118255000D01*
X126046666Y-118321666D01*
X126046666Y-118421666D01*
X125580000Y-117888333D02*
X126046666Y-117888333D01*
X125646666Y-117888333D02*
X125613333Y-117855000D01*
X125580000Y-117788333D01*
X125580000Y-117688333D01*
X125613333Y-117621666D01*
X125680000Y-117588333D01*
X126046666Y-117588333D01*
X125580000Y-117255000D02*
X126046666Y-117255000D01*
X125646666Y-117255000D02*
X125613333Y-117221666D01*
X125580000Y-117155000D01*
X125580000Y-117055000D01*
X125613333Y-116988333D01*
X125680000Y-116955000D01*
X126046666Y-116955000D01*
X126113333Y-116788333D02*
X126113333Y-116255000D01*
X125346666Y-115955000D02*
X125346666Y-115888333D01*
X125380000Y-115821666D01*
X125413333Y-115788333D01*
X125480000Y-115755000D01*
X125613333Y-115721666D01*
X125780000Y-115721666D01*
X125913333Y-115755000D01*
X125980000Y-115788333D01*
X126013333Y-115821666D01*
X126046666Y-115888333D01*
X126046666Y-115955000D01*
X126013333Y-116021666D01*
X125980000Y-116055000D01*
X125913333Y-116088333D01*
X125780000Y-116121666D01*
X125613333Y-116121666D01*
X125480000Y-116088333D01*
X125413333Y-116055000D01*
X125380000Y-116021666D01*
X125346666Y-115955000D01*
X126046666Y-115055000D02*
X126046666Y-115455000D01*
X126046666Y-115255000D02*
X125346666Y-115255000D01*
X125446666Y-115321666D01*
X125513333Y-115388333D01*
X125546666Y-115455000D01*
X126046666Y-114821666D02*
X125580000Y-114455000D01*
X125580000Y-114821666D02*
X126046666Y-114455000D01*
X125346666Y-114055000D02*
X125346666Y-113988333D01*
X125380000Y-113921666D01*
X125413333Y-113888333D01*
X125480000Y-113855000D01*
X125613333Y-113821666D01*
X125780000Y-113821666D01*
X125913333Y-113855000D01*
X125980000Y-113888333D01*
X126013333Y-113921666D01*
X126046666Y-113988333D01*
X126046666Y-114055000D01*
X126013333Y-114121666D01*
X125980000Y-114155000D01*
X125913333Y-114188333D01*
X125780000Y-114221666D01*
X125613333Y-114221666D01*
X125480000Y-114188333D01*
X125413333Y-114155000D01*
X125380000Y-114121666D01*
X125346666Y-114055000D01*
X125346666Y-113588333D02*
X125346666Y-113155000D01*
X125613333Y-113388333D01*
X125613333Y-113288333D01*
X125646666Y-113221666D01*
X125680000Y-113188333D01*
X125746666Y-113155000D01*
X125913333Y-113155000D01*
X125980000Y-113188333D01*
X126013333Y-113221666D01*
X126046666Y-113288333D01*
X126046666Y-113488333D01*
X126013333Y-113555000D01*
X125980000Y-113588333D01*
%TO.C,J5*%
D13*
X142287666Y-70318380D02*
X142287666Y-71032666D01*
X142240047Y-71175523D01*
X142144809Y-71270761D01*
X142001952Y-71318380D01*
X141906714Y-71318380D01*
X143240047Y-70318380D02*
X142763857Y-70318380D01*
X142716238Y-70794571D01*
X142763857Y-70746952D01*
X142859095Y-70699333D01*
X143097190Y-70699333D01*
X143192428Y-70746952D01*
X143240047Y-70794571D01*
X143287666Y-70889809D01*
X143287666Y-71127904D01*
X143240047Y-71223142D01*
X143192428Y-71270761D01*
X143097190Y-71318380D01*
X142859095Y-71318380D01*
X142763857Y-71270761D01*
X142716238Y-71223142D01*
%TO.C,J4*%
X122348666Y-80478380D02*
X122348666Y-81192666D01*
X122301047Y-81335523D01*
X122205809Y-81430761D01*
X122062952Y-81478380D01*
X121967714Y-81478380D01*
X123253428Y-80811714D02*
X123253428Y-81478380D01*
X123015333Y-80430761D02*
X122777238Y-81145047D01*
X123396285Y-81145047D01*
%TO.C,J1*%
X113458666Y-87336380D02*
X113458666Y-88050666D01*
X113411047Y-88193523D01*
X113315809Y-88288761D01*
X113172952Y-88336380D01*
X113077714Y-88336380D01*
X114458666Y-88336380D02*
X113887238Y-88336380D01*
X114172952Y-88336380D02*
X114172952Y-87336380D01*
X114077714Y-87479238D01*
X113982476Y-87574476D01*
X113887238Y-87622095D01*
%TO.C,U6*%
X123698095Y-97242380D02*
X123698095Y-98051904D01*
X123745714Y-98147142D01*
X123793333Y-98194761D01*
X123888571Y-98242380D01*
X124079047Y-98242380D01*
X124174285Y-98194761D01*
X124221904Y-98147142D01*
X124269523Y-98051904D01*
X124269523Y-97242380D01*
X125174285Y-97242380D02*
X124983809Y-97242380D01*
X124888571Y-97290000D01*
X124840952Y-97337619D01*
X124745714Y-97480476D01*
X124698095Y-97670952D01*
X124698095Y-98051904D01*
X124745714Y-98147142D01*
X124793333Y-98194761D01*
X124888571Y-98242380D01*
X125079047Y-98242380D01*
X125174285Y-98194761D01*
X125221904Y-98147142D01*
X125269523Y-98051904D01*
X125269523Y-97813809D01*
X125221904Y-97718571D01*
X125174285Y-97670952D01*
X125079047Y-97623333D01*
X124888571Y-97623333D01*
X124793333Y-97670952D01*
X124745714Y-97718571D01*
X124698095Y-97813809D01*
%TO.C,TP5*%
X131326095Y-78446380D02*
X131897523Y-78446380D01*
X131611809Y-79446380D02*
X131611809Y-78446380D01*
X132230857Y-79446380D02*
X132230857Y-78446380D01*
X132611809Y-78446380D01*
X132707047Y-78494000D01*
X132754666Y-78541619D01*
X132802285Y-78636857D01*
X132802285Y-78779714D01*
X132754666Y-78874952D01*
X132707047Y-78922571D01*
X132611809Y-78970190D01*
X132230857Y-78970190D01*
X133707047Y-78446380D02*
X133230857Y-78446380D01*
X133183238Y-78922571D01*
X133230857Y-78874952D01*
X133326095Y-78827333D01*
X133564190Y-78827333D01*
X133659428Y-78874952D01*
X133707047Y-78922571D01*
X133754666Y-79017809D01*
X133754666Y-79255904D01*
X133707047Y-79351142D01*
X133659428Y-79398761D01*
X133564190Y-79446380D01*
X133326095Y-79446380D01*
X133230857Y-79398761D01*
X133183238Y-79351142D01*
%TO.C,TP4*%
D12*
X122814666Y-92868666D02*
X123214666Y-92868666D01*
X123014666Y-93568666D02*
X123014666Y-92868666D01*
X123448000Y-93568666D02*
X123448000Y-92868666D01*
X123714666Y-92868666D01*
X123781333Y-92902000D01*
X123814666Y-92935333D01*
X123848000Y-93002000D01*
X123848000Y-93102000D01*
X123814666Y-93168666D01*
X123781333Y-93202000D01*
X123714666Y-93235333D01*
X123448000Y-93235333D01*
X124448000Y-93102000D02*
X124448000Y-93568666D01*
X124281333Y-92835333D02*
X124114666Y-93335333D01*
X124548000Y-93335333D01*
%TO.C,TP3*%
X117988666Y-76866666D02*
X118388666Y-76866666D01*
X118188666Y-77566666D02*
X118188666Y-76866666D01*
X118622000Y-77566666D02*
X118622000Y-76866666D01*
X118888666Y-76866666D01*
X118955333Y-76900000D01*
X118988666Y-76933333D01*
X119022000Y-77000000D01*
X119022000Y-77100000D01*
X118988666Y-77166666D01*
X118955333Y-77200000D01*
X118888666Y-77233333D01*
X118622000Y-77233333D01*
X119255333Y-76866666D02*
X119688666Y-76866666D01*
X119455333Y-77133333D01*
X119555333Y-77133333D01*
X119622000Y-77166666D01*
X119655333Y-77200000D01*
X119688666Y-77266666D01*
X119688666Y-77433333D01*
X119655333Y-77500000D01*
X119622000Y-77533333D01*
X119555333Y-77566666D01*
X119355333Y-77566666D01*
X119288666Y-77533333D01*
X119255333Y-77500000D01*
%TO.C,TP2*%
X114686666Y-76866666D02*
X115086666Y-76866666D01*
X114886666Y-77566666D02*
X114886666Y-76866666D01*
X115320000Y-77566666D02*
X115320000Y-76866666D01*
X115586666Y-76866666D01*
X115653333Y-76900000D01*
X115686666Y-76933333D01*
X115720000Y-77000000D01*
X115720000Y-77100000D01*
X115686666Y-77166666D01*
X115653333Y-77200000D01*
X115586666Y-77233333D01*
X115320000Y-77233333D01*
X115986666Y-76933333D02*
X116020000Y-76900000D01*
X116086666Y-76866666D01*
X116253333Y-76866666D01*
X116320000Y-76900000D01*
X116353333Y-76933333D01*
X116386666Y-77000000D01*
X116386666Y-77066666D01*
X116353333Y-77166666D01*
X115953333Y-77566666D01*
X116386666Y-77566666D01*
%TO.C,TP1*%
X123068666Y-88008666D02*
X123468666Y-88008666D01*
X123268666Y-88708666D02*
X123268666Y-88008666D01*
X123702000Y-88708666D02*
X123702000Y-88008666D01*
X123968666Y-88008666D01*
X124035333Y-88042000D01*
X124068666Y-88075333D01*
X124102000Y-88142000D01*
X124102000Y-88242000D01*
X124068666Y-88308666D01*
X124035333Y-88342000D01*
X123968666Y-88375333D01*
X123702000Y-88375333D01*
X124768666Y-88708666D02*
X124368666Y-88708666D01*
X124568666Y-88708666D02*
X124568666Y-88008666D01*
X124502000Y-88108666D01*
X124435333Y-88175333D01*
X124368666Y-88208666D01*
%TO.C,R14*%
D13*
X135755142Y-100528380D02*
X135421809Y-100052190D01*
X135183714Y-100528380D02*
X135183714Y-99528380D01*
X135564666Y-99528380D01*
X135659904Y-99576000D01*
X135707523Y-99623619D01*
X135755142Y-99718857D01*
X135755142Y-99861714D01*
X135707523Y-99956952D01*
X135659904Y-100004571D01*
X135564666Y-100052190D01*
X135183714Y-100052190D01*
X136707523Y-100528380D02*
X136136095Y-100528380D01*
X136421809Y-100528380D02*
X136421809Y-99528380D01*
X136326571Y-99671238D01*
X136231333Y-99766476D01*
X136136095Y-99814095D01*
X137564666Y-99861714D02*
X137564666Y-100528380D01*
X137326571Y-99480761D02*
X137088476Y-100195047D01*
X137707523Y-100195047D01*
%TO.C,R13*%
X135501142Y-94644380D02*
X135167809Y-94168190D01*
X134929714Y-94644380D02*
X134929714Y-93644380D01*
X135310666Y-93644380D01*
X135405904Y-93692000D01*
X135453523Y-93739619D01*
X135501142Y-93834857D01*
X135501142Y-93977714D01*
X135453523Y-94072952D01*
X135405904Y-94120571D01*
X135310666Y-94168190D01*
X134929714Y-94168190D01*
X136453523Y-94644380D02*
X135882095Y-94644380D01*
X136167809Y-94644380D02*
X136167809Y-93644380D01*
X136072571Y-93787238D01*
X135977333Y-93882476D01*
X135882095Y-93930095D01*
X136786857Y-93644380D02*
X137405904Y-93644380D01*
X137072571Y-94025333D01*
X137215428Y-94025333D01*
X137310666Y-94072952D01*
X137358285Y-94120571D01*
X137405904Y-94215809D01*
X137405904Y-94453904D01*
X137358285Y-94549142D01*
X137310666Y-94596761D01*
X137215428Y-94644380D01*
X136929714Y-94644380D01*
X136834476Y-94596761D01*
X136786857Y-94549142D01*
%TO.C,R5*%
X133437333Y-93162380D02*
X133104000Y-92686190D01*
X132865904Y-93162380D02*
X132865904Y-92162380D01*
X133246857Y-92162380D01*
X133342095Y-92210000D01*
X133389714Y-92257619D01*
X133437333Y-92352857D01*
X133437333Y-92495714D01*
X133389714Y-92590952D01*
X133342095Y-92638571D01*
X133246857Y-92686190D01*
X132865904Y-92686190D01*
X134342095Y-92162380D02*
X133865904Y-92162380D01*
X133818285Y-92638571D01*
X133865904Y-92590952D01*
X133961142Y-92543333D01*
X134199238Y-92543333D01*
X134294476Y-92590952D01*
X134342095Y-92638571D01*
X134389714Y-92733809D01*
X134389714Y-92971904D01*
X134342095Y-93067142D01*
X134294476Y-93114761D01*
X134199238Y-93162380D01*
X133961142Y-93162380D01*
X133865904Y-93114761D01*
X133818285Y-93067142D01*
%TO.C,R4*%
X127341333Y-106158380D02*
X127008000Y-105682190D01*
X126769904Y-106158380D02*
X126769904Y-105158380D01*
X127150857Y-105158380D01*
X127246095Y-105206000D01*
X127293714Y-105253619D01*
X127341333Y-105348857D01*
X127341333Y-105491714D01*
X127293714Y-105586952D01*
X127246095Y-105634571D01*
X127150857Y-105682190D01*
X126769904Y-105682190D01*
X128198476Y-105491714D02*
X128198476Y-106158380D01*
X127960380Y-105110761D02*
X127722285Y-105825047D01*
X128341333Y-105825047D01*
%TO.C,D4*%
X118895904Y-103322380D02*
X118895904Y-102322380D01*
X119134000Y-102322380D01*
X119276857Y-102370000D01*
X119372095Y-102465238D01*
X119419714Y-102560476D01*
X119467333Y-102750952D01*
X119467333Y-102893809D01*
X119419714Y-103084285D01*
X119372095Y-103179523D01*
X119276857Y-103274761D01*
X119134000Y-103322380D01*
X118895904Y-103322380D01*
X120324476Y-102655714D02*
X120324476Y-103322380D01*
X120086380Y-102274761D02*
X119848285Y-102989047D01*
X120467333Y-102989047D01*
%TO.C,D3*%
X118895904Y-112466380D02*
X118895904Y-111466380D01*
X119134000Y-111466380D01*
X119276857Y-111514000D01*
X119372095Y-111609238D01*
X119419714Y-111704476D01*
X119467333Y-111894952D01*
X119467333Y-112037809D01*
X119419714Y-112228285D01*
X119372095Y-112323523D01*
X119276857Y-112418761D01*
X119134000Y-112466380D01*
X118895904Y-112466380D01*
X119800666Y-111466380D02*
X120419714Y-111466380D01*
X120086380Y-111847333D01*
X120229238Y-111847333D01*
X120324476Y-111894952D01*
X120372095Y-111942571D01*
X120419714Y-112037809D01*
X120419714Y-112275904D01*
X120372095Y-112371142D01*
X120324476Y-112418761D01*
X120229238Y-112466380D01*
X119943523Y-112466380D01*
X119848285Y-112418761D01*
X119800666Y-112371142D01*
%TO.C,C11*%
X126992142Y-92432142D02*
X126944523Y-92479761D01*
X126801666Y-92527380D01*
X126706428Y-92527380D01*
X126563571Y-92479761D01*
X126468333Y-92384523D01*
X126420714Y-92289285D01*
X126373095Y-92098809D01*
X126373095Y-91955952D01*
X126420714Y-91765476D01*
X126468333Y-91670238D01*
X126563571Y-91575000D01*
X126706428Y-91527380D01*
X126801666Y-91527380D01*
X126944523Y-91575000D01*
X126992142Y-91622619D01*
X127944523Y-92527380D02*
X127373095Y-92527380D01*
X127658809Y-92527380D02*
X127658809Y-91527380D01*
X127563571Y-91670238D01*
X127468333Y-91765476D01*
X127373095Y-91813095D01*
X128896904Y-92527380D02*
X128325476Y-92527380D01*
X128611190Y-92527380D02*
X128611190Y-91527380D01*
X128515952Y-91670238D01*
X128420714Y-91765476D01*
X128325476Y-91813095D01*
%TO.C,C9*%
X128627142Y-85002666D02*
X128674761Y-85050285D01*
X128722380Y-85193142D01*
X128722380Y-85288380D01*
X128674761Y-85431238D01*
X128579523Y-85526476D01*
X128484285Y-85574095D01*
X128293809Y-85621714D01*
X128150952Y-85621714D01*
X127960476Y-85574095D01*
X127865238Y-85526476D01*
X127770000Y-85431238D01*
X127722380Y-85288380D01*
X127722380Y-85193142D01*
X127770000Y-85050285D01*
X127817619Y-85002666D01*
X128722380Y-84526476D02*
X128722380Y-84336000D01*
X128674761Y-84240761D01*
X128627142Y-84193142D01*
X128484285Y-84097904D01*
X128293809Y-84050285D01*
X127912857Y-84050285D01*
X127817619Y-84097904D01*
X127770000Y-84145523D01*
X127722380Y-84240761D01*
X127722380Y-84431238D01*
X127770000Y-84526476D01*
X127817619Y-84574095D01*
X127912857Y-84621714D01*
X128150952Y-84621714D01*
X128246190Y-84574095D01*
X128293809Y-84526476D01*
X128341428Y-84431238D01*
X128341428Y-84240761D01*
X128293809Y-84145523D01*
X128246190Y-84097904D01*
X128150952Y-84050285D01*
%TO.C,C8*%
X145883333Y-97662142D02*
X145835714Y-97709761D01*
X145692857Y-97757380D01*
X145597619Y-97757380D01*
X145454761Y-97709761D01*
X145359523Y-97614523D01*
X145311904Y-97519285D01*
X145264285Y-97328809D01*
X145264285Y-97185952D01*
X145311904Y-96995476D01*
X145359523Y-96900238D01*
X145454761Y-96805000D01*
X145597619Y-96757380D01*
X145692857Y-96757380D01*
X145835714Y-96805000D01*
X145883333Y-96852619D01*
X146454761Y-97185952D02*
X146359523Y-97138333D01*
X146311904Y-97090714D01*
X146264285Y-96995476D01*
X146264285Y-96947857D01*
X146311904Y-96852619D01*
X146359523Y-96805000D01*
X146454761Y-96757380D01*
X146645238Y-96757380D01*
X146740476Y-96805000D01*
X146788095Y-96852619D01*
X146835714Y-96947857D01*
X146835714Y-96995476D01*
X146788095Y-97090714D01*
X146740476Y-97138333D01*
X146645238Y-97185952D01*
X146454761Y-97185952D01*
X146359523Y-97233571D01*
X146311904Y-97281190D01*
X146264285Y-97376428D01*
X146264285Y-97566904D01*
X146311904Y-97662142D01*
X146359523Y-97709761D01*
X146454761Y-97757380D01*
X146645238Y-97757380D01*
X146740476Y-97709761D01*
X146788095Y-97662142D01*
X146835714Y-97566904D01*
X146835714Y-97376428D01*
X146788095Y-97281190D01*
X146740476Y-97233571D01*
X146645238Y-97185952D01*
%TO.C,U2*%
X134493095Y-84542380D02*
X134493095Y-85351904D01*
X134540714Y-85447142D01*
X134588333Y-85494761D01*
X134683571Y-85542380D01*
X134874047Y-85542380D01*
X134969285Y-85494761D01*
X135016904Y-85447142D01*
X135064523Y-85351904D01*
X135064523Y-84542380D01*
X135493095Y-84637619D02*
X135540714Y-84590000D01*
X135635952Y-84542380D01*
X135874047Y-84542380D01*
X135969285Y-84590000D01*
X136016904Y-84637619D01*
X136064523Y-84732857D01*
X136064523Y-84828095D01*
X136016904Y-84970952D01*
X135445476Y-85542380D01*
X136064523Y-85542380D01*
%TO.C,U1*%
X123698095Y-100036380D02*
X123698095Y-100845904D01*
X123745714Y-100941142D01*
X123793333Y-100988761D01*
X123888571Y-101036380D01*
X124079047Y-101036380D01*
X124174285Y-100988761D01*
X124221904Y-100941142D01*
X124269523Y-100845904D01*
X124269523Y-100036380D01*
X125269523Y-101036380D02*
X124698095Y-101036380D01*
X124983809Y-101036380D02*
X124983809Y-100036380D01*
X124888571Y-100179238D01*
X124793333Y-100274476D01*
X124698095Y-100322095D01*
%TO.C,J3*%
X119554666Y-97496380D02*
X119554666Y-98210666D01*
X119507047Y-98353523D01*
X119411809Y-98448761D01*
X119268952Y-98496380D01*
X119173714Y-98496380D01*
X119935619Y-97496380D02*
X120554666Y-97496380D01*
X120221333Y-97877333D01*
X120364190Y-97877333D01*
X120459428Y-97924952D01*
X120507047Y-97972571D01*
X120554666Y-98067809D01*
X120554666Y-98305904D01*
X120507047Y-98401142D01*
X120459428Y-98448761D01*
X120364190Y-98496380D01*
X120078476Y-98496380D01*
X119983238Y-98448761D01*
X119935619Y-98401142D01*
%TO.C,D1*%
X118895904Y-107894380D02*
X118895904Y-106894380D01*
X119134000Y-106894380D01*
X119276857Y-106942000D01*
X119372095Y-107037238D01*
X119419714Y-107132476D01*
X119467333Y-107322952D01*
X119467333Y-107465809D01*
X119419714Y-107656285D01*
X119372095Y-107751523D01*
X119276857Y-107846761D01*
X119134000Y-107894380D01*
X118895904Y-107894380D01*
X120419714Y-107894380D02*
X119848285Y-107894380D01*
X120134000Y-107894380D02*
X120134000Y-106894380D01*
X120038761Y-107037238D01*
X119943523Y-107132476D01*
X119848285Y-107180095D01*
%TO.C,C7*%
X126325333Y-82907142D02*
X126277714Y-82954761D01*
X126134857Y-83002380D01*
X126039619Y-83002380D01*
X125896761Y-82954761D01*
X125801523Y-82859523D01*
X125753904Y-82764285D01*
X125706285Y-82573809D01*
X125706285Y-82430952D01*
X125753904Y-82240476D01*
X125801523Y-82145238D01*
X125896761Y-82050000D01*
X126039619Y-82002380D01*
X126134857Y-82002380D01*
X126277714Y-82050000D01*
X126325333Y-82097619D01*
X126658666Y-82002380D02*
X127325333Y-82002380D01*
X126896761Y-83002380D01*
%TO.C,C5*%
X152233333Y-84177142D02*
X152185714Y-84224761D01*
X152042857Y-84272380D01*
X151947619Y-84272380D01*
X151804761Y-84224761D01*
X151709523Y-84129523D01*
X151661904Y-84034285D01*
X151614285Y-83843809D01*
X151614285Y-83700952D01*
X151661904Y-83510476D01*
X151709523Y-83415238D01*
X151804761Y-83320000D01*
X151947619Y-83272380D01*
X152042857Y-83272380D01*
X152185714Y-83320000D01*
X152233333Y-83367619D01*
X153138095Y-83272380D02*
X152661904Y-83272380D01*
X152614285Y-83748571D01*
X152661904Y-83700952D01*
X152757142Y-83653333D01*
X152995238Y-83653333D01*
X153090476Y-83700952D01*
X153138095Y-83748571D01*
X153185714Y-83843809D01*
X153185714Y-84081904D01*
X153138095Y-84177142D01*
X153090476Y-84224761D01*
X152995238Y-84272380D01*
X152757142Y-84272380D01*
X152661904Y-84224761D01*
X152614285Y-84177142D01*
%TD*%
M02*
