%TF.GenerationSoftware,KiCad,Pcbnew,(5.1.10)-1*%
%TF.CreationDate,2021-09-12T11:48:58+02:00*%
%TF.ProjectId,BTS-LogicBoard,4254532d-4c6f-4676-9963-426f6172642e,rev?*%
%TF.SameCoordinates,Original*%
%TF.FileFunction,Legend,Bot*%
%TF.FilePolarity,Positive*%
%FSLAX46Y46*%
G04 Gerber Fmt 4.6, Leading zero omitted, Abs format (unit mm)*
G04 Created by KiCad (PCBNEW (5.1.10)-1) date 2021-09-12 11:48:58*
%MOMM*%
%LPD*%
G01*
G04 APERTURE LIST*
%ADD10C,0.150000*%
%ADD11C,0.010000*%
%ADD12C,0.120000*%
G04 APERTURE END LIST*
D10*
X148027380Y-77291919D02*
X147027380Y-77416919D01*
X147027380Y-77655014D01*
X147075000Y-77791919D01*
X147170238Y-77875252D01*
X147265476Y-77910967D01*
X147455952Y-77934776D01*
X147598809Y-77916919D01*
X147789285Y-77845491D01*
X147884523Y-77785967D01*
X147979761Y-77678824D01*
X148027380Y-77530014D01*
X148027380Y-77291919D01*
X147979761Y-78678824D02*
X148027380Y-78577633D01*
X148027380Y-78387157D01*
X147979761Y-78297872D01*
X147884523Y-78262157D01*
X147503571Y-78309776D01*
X147408333Y-78369300D01*
X147360714Y-78470491D01*
X147360714Y-78660967D01*
X147408333Y-78750252D01*
X147503571Y-78785967D01*
X147598809Y-78774062D01*
X147694047Y-78285967D01*
X147979761Y-79107395D02*
X148027380Y-79196681D01*
X148027380Y-79387157D01*
X147979761Y-79488348D01*
X147884523Y-79547872D01*
X147836904Y-79553824D01*
X147741666Y-79518110D01*
X147694047Y-79428824D01*
X147694047Y-79285967D01*
X147646428Y-79196681D01*
X147551190Y-79160967D01*
X147503571Y-79166919D01*
X147408333Y-79226443D01*
X147360714Y-79327633D01*
X147360714Y-79470491D01*
X147408333Y-79559776D01*
X148027380Y-79958586D02*
X147360714Y-80041919D01*
X147027380Y-80083586D02*
X147075000Y-80030014D01*
X147122619Y-80071681D01*
X147075000Y-80125252D01*
X147027380Y-80083586D01*
X147122619Y-80071681D01*
X147360714Y-80946681D02*
X148170238Y-80845491D01*
X148265476Y-80785967D01*
X148313095Y-80732395D01*
X148360714Y-80631205D01*
X148360714Y-80488348D01*
X148313095Y-80399062D01*
X147979761Y-80869300D02*
X148027380Y-80768110D01*
X148027380Y-80577633D01*
X147979761Y-80488348D01*
X147932142Y-80446681D01*
X147836904Y-80410967D01*
X147551190Y-80446681D01*
X147455952Y-80506205D01*
X147408333Y-80559776D01*
X147360714Y-80660967D01*
X147360714Y-80851443D01*
X147408333Y-80940729D01*
X147360714Y-81422872D02*
X148027380Y-81339538D01*
X147455952Y-81410967D02*
X147408333Y-81464538D01*
X147360714Y-81565729D01*
X147360714Y-81708586D01*
X147408333Y-81797872D01*
X147503571Y-81833586D01*
X148027380Y-81768110D01*
X147979761Y-82631205D02*
X148027380Y-82530014D01*
X148027380Y-82339538D01*
X147979761Y-82250252D01*
X147884523Y-82214538D01*
X147503571Y-82262157D01*
X147408333Y-82321681D01*
X147360714Y-82422872D01*
X147360714Y-82613348D01*
X147408333Y-82702633D01*
X147503571Y-82738348D01*
X147598809Y-82726443D01*
X147694047Y-82238348D01*
X148027380Y-83530014D02*
X147027380Y-83655014D01*
X147979761Y-83535967D02*
X148027380Y-83434776D01*
X148027380Y-83244300D01*
X147979761Y-83155014D01*
X147932142Y-83113348D01*
X147836904Y-83077633D01*
X147551190Y-83113348D01*
X147455952Y-83172872D01*
X147408333Y-83226443D01*
X147360714Y-83327633D01*
X147360714Y-83518110D01*
X147408333Y-83607395D01*
X148027380Y-84768110D02*
X147027380Y-84893110D01*
X147408333Y-84845491D02*
X147360714Y-84946681D01*
X147360714Y-85137157D01*
X147408333Y-85226443D01*
X147455952Y-85268110D01*
X147551190Y-85303824D01*
X147836904Y-85268110D01*
X147932142Y-85208586D01*
X147979761Y-85155014D01*
X148027380Y-85053824D01*
X148027380Y-84863348D01*
X147979761Y-84774062D01*
X147360714Y-85660967D02*
X148027380Y-85815729D01*
X147360714Y-86137157D02*
X148027380Y-85815729D01*
X148265476Y-85690729D01*
X148313095Y-85637157D01*
X148360714Y-85535967D01*
X147503571Y-87595491D02*
X147551190Y-87732395D01*
X147598809Y-87774062D01*
X147694047Y-87809776D01*
X147836904Y-87791919D01*
X147932142Y-87732395D01*
X147979761Y-87678824D01*
X148027380Y-87577633D01*
X148027380Y-87196681D01*
X147027380Y-87321681D01*
X147027380Y-87655014D01*
X147075000Y-87744300D01*
X147122619Y-87785967D01*
X147217857Y-87821681D01*
X147313095Y-87809776D01*
X147408333Y-87750252D01*
X147455952Y-87696681D01*
X147503571Y-87595491D01*
X147503571Y-87262157D01*
X147979761Y-88583586D02*
X148027380Y-88482395D01*
X148027380Y-88291919D01*
X147979761Y-88202633D01*
X147884523Y-88166919D01*
X147503571Y-88214538D01*
X147408333Y-88274062D01*
X147360714Y-88375252D01*
X147360714Y-88565729D01*
X147408333Y-88655014D01*
X147503571Y-88690729D01*
X147598809Y-88678824D01*
X147694047Y-88190729D01*
X147360714Y-89137157D02*
X148027380Y-89053824D01*
X147455952Y-89125252D02*
X147408333Y-89178824D01*
X147360714Y-89280014D01*
X147360714Y-89422872D01*
X147408333Y-89512157D01*
X147503571Y-89547872D01*
X148027380Y-89482395D01*
X148027380Y-90101443D02*
X147979761Y-90012157D01*
X147932142Y-89970491D01*
X147836904Y-89934776D01*
X147551190Y-89970491D01*
X147455952Y-90030014D01*
X147408333Y-90083586D01*
X147360714Y-90184776D01*
X147360714Y-90327633D01*
X147408333Y-90416919D01*
X147455952Y-90458586D01*
X147551190Y-90494300D01*
X147836904Y-90458586D01*
X147932142Y-90399062D01*
X147979761Y-90345491D01*
X148027380Y-90244300D01*
X148027380Y-90101443D01*
X148027380Y-90863348D02*
X147360714Y-90946681D01*
X147027380Y-90988348D02*
X147075000Y-90934776D01*
X147122619Y-90976443D01*
X147075000Y-91030014D01*
X147027380Y-90988348D01*
X147122619Y-90976443D01*
X147360714Y-91280014D02*
X147360714Y-91660967D01*
X147027380Y-91464538D02*
X147884523Y-91357395D01*
X147979761Y-91393110D01*
X148027380Y-91482395D01*
X148027380Y-91577633D01*
X147027380Y-92655014D02*
X147027380Y-93226443D01*
X148027380Y-92815729D02*
X147027380Y-92940729D01*
X148027380Y-93863348D02*
X147503571Y-93928824D01*
X147408333Y-93893110D01*
X147360714Y-93803824D01*
X147360714Y-93613348D01*
X147408333Y-93512157D01*
X147979761Y-93869300D02*
X148027380Y-93768110D01*
X148027380Y-93530014D01*
X147979761Y-93440729D01*
X147884523Y-93405014D01*
X147789285Y-93416919D01*
X147694047Y-93476443D01*
X147646428Y-93577633D01*
X147646428Y-93815729D01*
X147598809Y-93916919D01*
X148027380Y-94339538D02*
X147360714Y-94422872D01*
X147551190Y-94399062D02*
X147455952Y-94458586D01*
X147408333Y-94512157D01*
X147360714Y-94613348D01*
X147360714Y-94708586D01*
X148027380Y-94958586D02*
X147360714Y-95041919D01*
X147551190Y-95018110D02*
X147455952Y-95077633D01*
X147408333Y-95131205D01*
X147360714Y-95232395D01*
X147360714Y-95327633D01*
X148027380Y-96006205D02*
X147503571Y-96071681D01*
X147408333Y-96035967D01*
X147360714Y-95946681D01*
X147360714Y-95756205D01*
X147408333Y-95655014D01*
X147979761Y-96012157D02*
X148027380Y-95910967D01*
X148027380Y-95672872D01*
X147979761Y-95583586D01*
X147884523Y-95547872D01*
X147789285Y-95559776D01*
X147694047Y-95619300D01*
X147646428Y-95720491D01*
X147646428Y-95958586D01*
X147598809Y-96059776D01*
X148027380Y-96910967D02*
X147027380Y-97035967D01*
X147979761Y-96916919D02*
X148027380Y-96815729D01*
X148027380Y-96625252D01*
X147979761Y-96535967D01*
X147932142Y-96494300D01*
X147836904Y-96458586D01*
X147551190Y-96494300D01*
X147455952Y-96553824D01*
X147408333Y-96607395D01*
X147360714Y-96708586D01*
X147360714Y-96899062D01*
X147408333Y-96988348D01*
X147979761Y-97774062D02*
X148027380Y-97672872D01*
X148027380Y-97482395D01*
X147979761Y-97393110D01*
X147884523Y-97357395D01*
X147503571Y-97405014D01*
X147408333Y-97464538D01*
X147360714Y-97565729D01*
X147360714Y-97756205D01*
X147408333Y-97845491D01*
X147503571Y-97881205D01*
X147598809Y-97869300D01*
X147694047Y-97381205D01*
X150058333Y-79649062D02*
X150010714Y-79607395D01*
X149867857Y-79530014D01*
X149772619Y-79494300D01*
X149629761Y-79464538D01*
X149391666Y-79446681D01*
X149201190Y-79470491D01*
X148963095Y-79547872D01*
X148820238Y-79613348D01*
X148725000Y-79672872D01*
X148582142Y-79785967D01*
X148534523Y-79839538D01*
X149677380Y-80506205D02*
X149153571Y-80571681D01*
X149058333Y-80535967D01*
X149010714Y-80446681D01*
X149010714Y-80256205D01*
X149058333Y-80155014D01*
X149629761Y-80512157D02*
X149677380Y-80410967D01*
X149677380Y-80172872D01*
X149629761Y-80083586D01*
X149534523Y-80047872D01*
X149439285Y-80059776D01*
X149344047Y-80119300D01*
X149296428Y-80220491D01*
X149296428Y-80458586D01*
X149248809Y-80559776D01*
X149677380Y-81125252D02*
X149629761Y-81035967D01*
X149534523Y-81000252D01*
X148677380Y-81107395D01*
X149677380Y-81506205D02*
X149010714Y-81589538D01*
X148677380Y-81631205D02*
X148725000Y-81577633D01*
X148772619Y-81619300D01*
X148725000Y-81672872D01*
X148677380Y-81631205D01*
X148772619Y-81619300D01*
X149677380Y-82410967D02*
X149153571Y-82476443D01*
X149058333Y-82440729D01*
X149010714Y-82351443D01*
X149010714Y-82160967D01*
X149058333Y-82059776D01*
X149629761Y-82416919D02*
X149677380Y-82315729D01*
X149677380Y-82077633D01*
X149629761Y-81988348D01*
X149534523Y-81952633D01*
X149439285Y-81964538D01*
X149344047Y-82024062D01*
X149296428Y-82125252D01*
X149296428Y-82363348D01*
X149248809Y-82464538D01*
X149629761Y-82845491D02*
X149677380Y-82934776D01*
X149677380Y-83125252D01*
X149629761Y-83226443D01*
X149534523Y-83285967D01*
X149486904Y-83291919D01*
X149391666Y-83256205D01*
X149344047Y-83166919D01*
X149344047Y-83024062D01*
X149296428Y-82934776D01*
X149201190Y-82899062D01*
X149153571Y-82905014D01*
X149058333Y-82964538D01*
X149010714Y-83065729D01*
X149010714Y-83208586D01*
X149058333Y-83297872D01*
X149677380Y-84458586D02*
X148677380Y-84583586D01*
X149058333Y-84535967D02*
X149010714Y-84637157D01*
X149010714Y-84827633D01*
X149058333Y-84916919D01*
X149105952Y-84958586D01*
X149201190Y-84994300D01*
X149486904Y-84958586D01*
X149582142Y-84899062D01*
X149629761Y-84845491D01*
X149677380Y-84744300D01*
X149677380Y-84553824D01*
X149629761Y-84464538D01*
X149629761Y-85750252D02*
X149677380Y-85649062D01*
X149677380Y-85458586D01*
X149629761Y-85369300D01*
X149534523Y-85333586D01*
X149153571Y-85381205D01*
X149058333Y-85440729D01*
X149010714Y-85541919D01*
X149010714Y-85732395D01*
X149058333Y-85821681D01*
X149153571Y-85857395D01*
X149248809Y-85845491D01*
X149344047Y-85357395D01*
X149677380Y-86220491D02*
X148677380Y-86345491D01*
X149058333Y-86297872D02*
X149010714Y-86399062D01*
X149010714Y-86589538D01*
X149058333Y-86678824D01*
X149105952Y-86720491D01*
X149201190Y-86756205D01*
X149486904Y-86720491D01*
X149582142Y-86660967D01*
X149629761Y-86607395D01*
X149677380Y-86506205D01*
X149677380Y-86315729D01*
X149629761Y-86226443D01*
X149629761Y-87512157D02*
X149677380Y-87410967D01*
X149677380Y-87220491D01*
X149629761Y-87131205D01*
X149534523Y-87095491D01*
X149153571Y-87143110D01*
X149058333Y-87202633D01*
X149010714Y-87303824D01*
X149010714Y-87494300D01*
X149058333Y-87583586D01*
X149153571Y-87619300D01*
X149248809Y-87607395D01*
X149344047Y-87119300D01*
X149010714Y-88065729D02*
X149677380Y-87982395D01*
X149105952Y-88053824D02*
X149058333Y-88107395D01*
X149010714Y-88208586D01*
X149010714Y-88351443D01*
X149058333Y-88440729D01*
X149153571Y-88476443D01*
X149677380Y-88410967D01*
X149677380Y-89030014D02*
X149629761Y-88940729D01*
X149534523Y-88905014D01*
X148677380Y-89012157D01*
X149629761Y-89797872D02*
X149677380Y-89696681D01*
X149677380Y-89506205D01*
X149629761Y-89416919D01*
X149534523Y-89381205D01*
X149153571Y-89428824D01*
X149058333Y-89488348D01*
X149010714Y-89589538D01*
X149010714Y-89780014D01*
X149058333Y-89869300D01*
X149153571Y-89905014D01*
X149248809Y-89893110D01*
X149344047Y-89405014D01*
X149677380Y-90268110D02*
X148677380Y-90393110D01*
X149058333Y-90345491D02*
X149010714Y-90446681D01*
X149010714Y-90637157D01*
X149058333Y-90726443D01*
X149105952Y-90768110D01*
X149201190Y-90803824D01*
X149486904Y-90768110D01*
X149582142Y-90708586D01*
X149629761Y-90655014D01*
X149677380Y-90553824D01*
X149677380Y-90363348D01*
X149629761Y-90274062D01*
X149677380Y-91172872D02*
X149010714Y-91256205D01*
X149201190Y-91232395D02*
X149105952Y-91291919D01*
X149058333Y-91345491D01*
X149010714Y-91446681D01*
X149010714Y-91541919D01*
X149677380Y-91791919D02*
X149010714Y-91875252D01*
X148677380Y-91916919D02*
X148725000Y-91863348D01*
X148772619Y-91905014D01*
X148725000Y-91958586D01*
X148677380Y-91916919D01*
X148772619Y-91905014D01*
X149629761Y-92702633D02*
X149677380Y-92601443D01*
X149677380Y-92410967D01*
X149629761Y-92321681D01*
X149582142Y-92280014D01*
X149486904Y-92244300D01*
X149201190Y-92280014D01*
X149105952Y-92339538D01*
X149058333Y-92393110D01*
X149010714Y-92494300D01*
X149010714Y-92684776D01*
X149058333Y-92774062D01*
X149677380Y-93268110D02*
X149629761Y-93178824D01*
X149582142Y-93137157D01*
X149486904Y-93101443D01*
X149201190Y-93137157D01*
X149105952Y-93196681D01*
X149058333Y-93250252D01*
X149010714Y-93351443D01*
X149010714Y-93494300D01*
X149058333Y-93583586D01*
X149105952Y-93625252D01*
X149201190Y-93660967D01*
X149486904Y-93625252D01*
X149582142Y-93565729D01*
X149629761Y-93512157D01*
X149677380Y-93410967D01*
X149677380Y-93268110D01*
X149677380Y-94172872D02*
X149629761Y-94083586D01*
X149534523Y-94047872D01*
X148677380Y-94155014D01*
X149677380Y-94696681D02*
X149629761Y-94607395D01*
X149582142Y-94565729D01*
X149486904Y-94530014D01*
X149201190Y-94565729D01*
X149105952Y-94625252D01*
X149058333Y-94678824D01*
X149010714Y-94780014D01*
X149010714Y-94922872D01*
X149058333Y-95012157D01*
X149105952Y-95053824D01*
X149201190Y-95089538D01*
X149486904Y-95053824D01*
X149582142Y-94994300D01*
X149629761Y-94940729D01*
X149677380Y-94839538D01*
X149677380Y-94696681D01*
X150058333Y-95315729D02*
X150010714Y-95369300D01*
X149867857Y-95482395D01*
X149772619Y-95541919D01*
X149629761Y-95607395D01*
X149391666Y-95684776D01*
X149201190Y-95708586D01*
X148963095Y-95690729D01*
X148820238Y-95660967D01*
X148725000Y-95625252D01*
X148582142Y-95547872D01*
X148534523Y-95506205D01*
X151327380Y-74458586D02*
X150327380Y-74583586D01*
X151327380Y-74887157D02*
X150803571Y-74952633D01*
X150708333Y-74916919D01*
X150660714Y-74827633D01*
X150660714Y-74684776D01*
X150708333Y-74583586D01*
X150755952Y-74530014D01*
X150660714Y-75303824D02*
X150660714Y-75684776D01*
X150327380Y-75488348D02*
X151184523Y-75381205D01*
X151279761Y-75416919D01*
X151327380Y-75506205D01*
X151327380Y-75601443D01*
X150660714Y-75875252D02*
X150660714Y-76256205D01*
X150327380Y-76059776D02*
X151184523Y-75952633D01*
X151279761Y-75988348D01*
X151327380Y-76077633D01*
X151327380Y-76172872D01*
X150660714Y-76589538D02*
X151660714Y-76464538D01*
X150708333Y-76583586D02*
X150660714Y-76684776D01*
X150660714Y-76875252D01*
X150708333Y-76964538D01*
X150755952Y-77006205D01*
X150851190Y-77041919D01*
X151136904Y-77006205D01*
X151232142Y-76946681D01*
X151279761Y-76893110D01*
X151327380Y-76791919D01*
X151327380Y-76601443D01*
X151279761Y-76512157D01*
X151279761Y-77369300D02*
X151327380Y-77458586D01*
X151327380Y-77649062D01*
X151279761Y-77750252D01*
X151184523Y-77809776D01*
X151136904Y-77815729D01*
X151041666Y-77780014D01*
X150994047Y-77690729D01*
X150994047Y-77547872D01*
X150946428Y-77458586D01*
X150851190Y-77422872D01*
X150803571Y-77428824D01*
X150708333Y-77488348D01*
X150660714Y-77589538D01*
X150660714Y-77732395D01*
X150708333Y-77821681D01*
X151232142Y-78232395D02*
X151279761Y-78274062D01*
X151327380Y-78220491D01*
X151279761Y-78178824D01*
X151232142Y-78232395D01*
X151327380Y-78220491D01*
X150708333Y-78297872D02*
X150755952Y-78339538D01*
X150803571Y-78285967D01*
X150755952Y-78244300D01*
X150708333Y-78297872D01*
X150803571Y-78285967D01*
X150279761Y-79541919D02*
X151565476Y-78524062D01*
X150279761Y-80589538D02*
X151565476Y-79571681D01*
X150660714Y-81303824D02*
X151470238Y-81202633D01*
X151565476Y-81143110D01*
X151613095Y-81089538D01*
X151660714Y-80988348D01*
X151660714Y-80845491D01*
X151613095Y-80756205D01*
X151279761Y-81226443D02*
X151327380Y-81125252D01*
X151327380Y-80934776D01*
X151279761Y-80845491D01*
X151232142Y-80803824D01*
X151136904Y-80768110D01*
X150851190Y-80803824D01*
X150755952Y-80863348D01*
X150708333Y-80916919D01*
X150660714Y-81018110D01*
X150660714Y-81208586D01*
X150708333Y-81297872D01*
X151327380Y-81696681D02*
X150660714Y-81780014D01*
X150327380Y-81821681D02*
X150375000Y-81768110D01*
X150422619Y-81809776D01*
X150375000Y-81863348D01*
X150327380Y-81821681D01*
X150422619Y-81809776D01*
X150660714Y-82113348D02*
X150660714Y-82494300D01*
X150327380Y-82297872D02*
X151184523Y-82190729D01*
X151279761Y-82226443D01*
X151327380Y-82315729D01*
X151327380Y-82410967D01*
X151327380Y-82744300D02*
X150327380Y-82869300D01*
X151327380Y-83172872D02*
X150803571Y-83238348D01*
X150708333Y-83202633D01*
X150660714Y-83113348D01*
X150660714Y-82970491D01*
X150708333Y-82869300D01*
X150755952Y-82815729D01*
X150660714Y-84160967D02*
X151327380Y-84077633D01*
X150660714Y-83732395D02*
X151184523Y-83666919D01*
X151279761Y-83702633D01*
X151327380Y-83791919D01*
X151327380Y-83934776D01*
X151279761Y-84035967D01*
X151232142Y-84089538D01*
X151327380Y-84553824D02*
X150327380Y-84678824D01*
X150708333Y-84631205D02*
X150660714Y-84732395D01*
X150660714Y-84922872D01*
X150708333Y-85012157D01*
X150755952Y-85053824D01*
X150851190Y-85089538D01*
X151136904Y-85053824D01*
X151232142Y-84994300D01*
X151279761Y-84940729D01*
X151327380Y-84839538D01*
X151327380Y-84649062D01*
X151279761Y-84559776D01*
X151232142Y-85470491D02*
X151279761Y-85512157D01*
X151327380Y-85458586D01*
X151279761Y-85416919D01*
X151232142Y-85470491D01*
X151327380Y-85458586D01*
X151279761Y-86369300D02*
X151327380Y-86268110D01*
X151327380Y-86077633D01*
X151279761Y-85988348D01*
X151232142Y-85946681D01*
X151136904Y-85910967D01*
X150851190Y-85946681D01*
X150755952Y-86006205D01*
X150708333Y-86059776D01*
X150660714Y-86160967D01*
X150660714Y-86351443D01*
X150708333Y-86440729D01*
X151327380Y-86934776D02*
X151279761Y-86845491D01*
X151232142Y-86803824D01*
X151136904Y-86768110D01*
X150851190Y-86803824D01*
X150755952Y-86863348D01*
X150708333Y-86916919D01*
X150660714Y-87018110D01*
X150660714Y-87160967D01*
X150708333Y-87250252D01*
X150755952Y-87291919D01*
X150851190Y-87327633D01*
X151136904Y-87291919D01*
X151232142Y-87232395D01*
X151279761Y-87178824D01*
X151327380Y-87077633D01*
X151327380Y-86934776D01*
X151327380Y-87696681D02*
X150660714Y-87780014D01*
X150755952Y-87768110D02*
X150708333Y-87821681D01*
X150660714Y-87922872D01*
X150660714Y-88065729D01*
X150708333Y-88155014D01*
X150803571Y-88190729D01*
X151327380Y-88125252D01*
X150803571Y-88190729D02*
X150708333Y-88250252D01*
X150660714Y-88351443D01*
X150660714Y-88494300D01*
X150708333Y-88583586D01*
X150803571Y-88619300D01*
X151327380Y-88553824D01*
X150279761Y-89875252D02*
X151565476Y-88857395D01*
X151327380Y-90077633D02*
X150327380Y-90202633D01*
X150708333Y-90155014D02*
X150660714Y-90256205D01*
X150660714Y-90446681D01*
X150708333Y-90535967D01*
X150755952Y-90577633D01*
X150851190Y-90613348D01*
X151136904Y-90577633D01*
X151232142Y-90518110D01*
X151279761Y-90464538D01*
X151327380Y-90363348D01*
X151327380Y-90172872D01*
X151279761Y-90083586D01*
X151279761Y-91369300D02*
X151327380Y-91268110D01*
X151327380Y-91077633D01*
X151279761Y-90988348D01*
X151184523Y-90952633D01*
X150803571Y-91000252D01*
X150708333Y-91059776D01*
X150660714Y-91160967D01*
X150660714Y-91351443D01*
X150708333Y-91440729D01*
X150803571Y-91476443D01*
X150898809Y-91464538D01*
X150994047Y-90976443D01*
X151327380Y-91839538D02*
X150327380Y-91964538D01*
X150708333Y-91916919D02*
X150660714Y-92018110D01*
X150660714Y-92208586D01*
X150708333Y-92297872D01*
X150755952Y-92339538D01*
X150851190Y-92375252D01*
X151136904Y-92339538D01*
X151232142Y-92280014D01*
X151279761Y-92226443D01*
X151327380Y-92125252D01*
X151327380Y-91934776D01*
X151279761Y-91845491D01*
X151279761Y-93131205D02*
X151327380Y-93030014D01*
X151327380Y-92839538D01*
X151279761Y-92750252D01*
X151184523Y-92714538D01*
X150803571Y-92762157D01*
X150708333Y-92821681D01*
X150660714Y-92922872D01*
X150660714Y-93113348D01*
X150708333Y-93202633D01*
X150803571Y-93238348D01*
X150898809Y-93226443D01*
X150994047Y-92738348D01*
X150660714Y-93684776D02*
X151327380Y-93601443D01*
X150755952Y-93672872D02*
X150708333Y-93726443D01*
X150660714Y-93827633D01*
X150660714Y-93970491D01*
X150708333Y-94059776D01*
X150803571Y-94095491D01*
X151327380Y-94030014D01*
X151327380Y-94649062D02*
X151279761Y-94559776D01*
X151184523Y-94524062D01*
X150327380Y-94631205D01*
X151279761Y-95416919D02*
X151327380Y-95315729D01*
X151327380Y-95125252D01*
X151279761Y-95035967D01*
X151184523Y-95000252D01*
X150803571Y-95047872D01*
X150708333Y-95107395D01*
X150660714Y-95208586D01*
X150660714Y-95399062D01*
X150708333Y-95488348D01*
X150803571Y-95524062D01*
X150898809Y-95512157D01*
X150994047Y-95024062D01*
X151327380Y-95887157D02*
X150327380Y-96012157D01*
X150708333Y-95964538D02*
X150660714Y-96065729D01*
X150660714Y-96256205D01*
X150708333Y-96345491D01*
X150755952Y-96387157D01*
X150851190Y-96422872D01*
X151136904Y-96387157D01*
X151232142Y-96327633D01*
X151279761Y-96274062D01*
X151327380Y-96172872D01*
X151327380Y-95982395D01*
X151279761Y-95893110D01*
X151327380Y-96791919D02*
X150660714Y-96875252D01*
X150851190Y-96851443D02*
X150755952Y-96910967D01*
X150708333Y-96964538D01*
X150660714Y-97065729D01*
X150660714Y-97160967D01*
X151327380Y-97410967D02*
X150660714Y-97494300D01*
X150327380Y-97535967D02*
X150375000Y-97482395D01*
X150422619Y-97524062D01*
X150375000Y-97577633D01*
X150327380Y-97535967D01*
X150422619Y-97524062D01*
X151279761Y-98321681D02*
X151327380Y-98220491D01*
X151327380Y-98030014D01*
X151279761Y-97940729D01*
X151232142Y-97899062D01*
X151136904Y-97863348D01*
X150851190Y-97899062D01*
X150755952Y-97958586D01*
X150708333Y-98012157D01*
X150660714Y-98113348D01*
X150660714Y-98303824D01*
X150708333Y-98393110D01*
X151327380Y-98887157D02*
X151279761Y-98797872D01*
X151232142Y-98756205D01*
X151136904Y-98720491D01*
X150851190Y-98756205D01*
X150755952Y-98815729D01*
X150708333Y-98869300D01*
X150660714Y-98970491D01*
X150660714Y-99113348D01*
X150708333Y-99202633D01*
X150755952Y-99244300D01*
X150851190Y-99280014D01*
X151136904Y-99244300D01*
X151232142Y-99184776D01*
X151279761Y-99131205D01*
X151327380Y-99030014D01*
X151327380Y-98887157D01*
X151327380Y-99791919D02*
X151279761Y-99702633D01*
X151184523Y-99666919D01*
X150327380Y-99774062D01*
X151327380Y-100315729D02*
X151279761Y-100226443D01*
X151232142Y-100184776D01*
X151136904Y-100149062D01*
X150851190Y-100184776D01*
X150755952Y-100244300D01*
X150708333Y-100297872D01*
X150660714Y-100399062D01*
X150660714Y-100541919D01*
X150708333Y-100631205D01*
X150755952Y-100672872D01*
X150851190Y-100708586D01*
X151136904Y-100672872D01*
X151232142Y-100613348D01*
X151279761Y-100559776D01*
X151327380Y-100458586D01*
X151327380Y-100315729D01*
D11*
%TO.C,REF\u002A\u002A*%
G36*
X143554505Y-78683886D02*
G01*
X143591727Y-78758539D01*
X143660261Y-78824431D01*
X143685648Y-78842577D01*
X143718866Y-78862345D01*
X143754945Y-78875172D01*
X143803098Y-78882510D01*
X143872536Y-78885813D01*
X143964206Y-78886538D01*
X144089830Y-78883263D01*
X144184154Y-78871877D01*
X144254523Y-78850041D01*
X144308286Y-78815419D01*
X144352788Y-78765670D01*
X144355423Y-78762014D01*
X144382377Y-78712985D01*
X144395712Y-78653945D01*
X144399000Y-78578859D01*
X144399000Y-78456795D01*
X144517497Y-78456744D01*
X144583492Y-78455608D01*
X144622202Y-78448686D01*
X144645419Y-78430598D01*
X144664933Y-78395962D01*
X144668920Y-78387645D01*
X144687603Y-78348720D01*
X144699403Y-78318583D01*
X144700422Y-78296174D01*
X144686761Y-78280433D01*
X144654522Y-78270302D01*
X144599804Y-78264723D01*
X144518711Y-78262635D01*
X144407344Y-78262981D01*
X144261802Y-78264700D01*
X144218269Y-78265237D01*
X144068205Y-78267172D01*
X143970042Y-78268904D01*
X143970042Y-78456692D01*
X144053364Y-78457748D01*
X144107880Y-78462438D01*
X144143837Y-78473051D01*
X144171482Y-78491872D01*
X144184965Y-78504650D01*
X144224417Y-78556890D01*
X144227628Y-78603142D01*
X144195049Y-78650867D01*
X144193846Y-78652077D01*
X144168668Y-78671494D01*
X144134447Y-78683307D01*
X144081748Y-78689265D01*
X144001131Y-78691120D01*
X143983271Y-78691154D01*
X143872175Y-78686670D01*
X143795161Y-78672074D01*
X143748147Y-78645650D01*
X143727050Y-78605683D01*
X143724923Y-78582584D01*
X143734900Y-78527762D01*
X143767752Y-78490158D01*
X143827857Y-78467523D01*
X143919598Y-78457606D01*
X143970042Y-78456692D01*
X143970042Y-78268904D01*
X143952060Y-78269222D01*
X143864679Y-78271873D01*
X143800905Y-78275606D01*
X143755582Y-78280907D01*
X143723555Y-78288258D01*
X143699668Y-78298143D01*
X143678764Y-78311046D01*
X143670898Y-78316579D01*
X143596595Y-78389969D01*
X143554467Y-78482760D01*
X143542722Y-78590096D01*
X143554505Y-78683886D01*
G37*
X143554505Y-78683886D02*
X143591727Y-78758539D01*
X143660261Y-78824431D01*
X143685648Y-78842577D01*
X143718866Y-78862345D01*
X143754945Y-78875172D01*
X143803098Y-78882510D01*
X143872536Y-78885813D01*
X143964206Y-78886538D01*
X144089830Y-78883263D01*
X144184154Y-78871877D01*
X144254523Y-78850041D01*
X144308286Y-78815419D01*
X144352788Y-78765670D01*
X144355423Y-78762014D01*
X144382377Y-78712985D01*
X144395712Y-78653945D01*
X144399000Y-78578859D01*
X144399000Y-78456795D01*
X144517497Y-78456744D01*
X144583492Y-78455608D01*
X144622202Y-78448686D01*
X144645419Y-78430598D01*
X144664933Y-78395962D01*
X144668920Y-78387645D01*
X144687603Y-78348720D01*
X144699403Y-78318583D01*
X144700422Y-78296174D01*
X144686761Y-78280433D01*
X144654522Y-78270302D01*
X144599804Y-78264723D01*
X144518711Y-78262635D01*
X144407344Y-78262981D01*
X144261802Y-78264700D01*
X144218269Y-78265237D01*
X144068205Y-78267172D01*
X143970042Y-78268904D01*
X143970042Y-78456692D01*
X144053364Y-78457748D01*
X144107880Y-78462438D01*
X144143837Y-78473051D01*
X144171482Y-78491872D01*
X144184965Y-78504650D01*
X144224417Y-78556890D01*
X144227628Y-78603142D01*
X144195049Y-78650867D01*
X144193846Y-78652077D01*
X144168668Y-78671494D01*
X144134447Y-78683307D01*
X144081748Y-78689265D01*
X144001131Y-78691120D01*
X143983271Y-78691154D01*
X143872175Y-78686670D01*
X143795161Y-78672074D01*
X143748147Y-78645650D01*
X143727050Y-78605683D01*
X143724923Y-78582584D01*
X143734900Y-78527762D01*
X143767752Y-78490158D01*
X143827857Y-78467523D01*
X143919598Y-78457606D01*
X143970042Y-78456692D01*
X143970042Y-78268904D01*
X143952060Y-78269222D01*
X143864679Y-78271873D01*
X143800905Y-78275606D01*
X143755582Y-78280907D01*
X143723555Y-78288258D01*
X143699668Y-78298143D01*
X143678764Y-78311046D01*
X143670898Y-78316579D01*
X143596595Y-78389969D01*
X143554467Y-78482760D01*
X143542722Y-78590096D01*
X143554505Y-78683886D01*
G36*
X143565089Y-80186664D02*
G01*
X143601358Y-80249367D01*
X143637358Y-80292961D01*
X143675075Y-80324845D01*
X143721199Y-80346810D01*
X143782421Y-80360649D01*
X143865431Y-80368153D01*
X143976919Y-80371117D01*
X144057062Y-80371461D01*
X144352065Y-80371461D01*
X144426515Y-80205385D01*
X144103402Y-80195615D01*
X143982729Y-80191579D01*
X143895141Y-80187344D01*
X143834650Y-80182097D01*
X143795268Y-80175025D01*
X143771007Y-80165311D01*
X143755880Y-80152144D01*
X143752606Y-80147919D01*
X143727034Y-80083909D01*
X143737153Y-80019208D01*
X143764000Y-79980692D01*
X143783024Y-79965025D01*
X143807988Y-79954180D01*
X143845834Y-79947288D01*
X143903502Y-79943479D01*
X143987935Y-79941883D01*
X144075928Y-79941615D01*
X144186323Y-79941563D01*
X144264463Y-79939672D01*
X144317165Y-79933345D01*
X144351242Y-79919983D01*
X144373511Y-79896985D01*
X144390787Y-79861754D01*
X144408738Y-79814697D01*
X144428278Y-79763303D01*
X144081485Y-79769421D01*
X143956468Y-79771884D01*
X143864082Y-79774767D01*
X143797881Y-79778898D01*
X143751420Y-79785107D01*
X143718256Y-79794226D01*
X143691944Y-79807083D01*
X143668729Y-79822584D01*
X143594569Y-79897371D01*
X143551684Y-79988628D01*
X143541412Y-80087883D01*
X143565089Y-80186664D01*
G37*
X143565089Y-80186664D02*
X143601358Y-80249367D01*
X143637358Y-80292961D01*
X143675075Y-80324845D01*
X143721199Y-80346810D01*
X143782421Y-80360649D01*
X143865431Y-80368153D01*
X143976919Y-80371117D01*
X144057062Y-80371461D01*
X144352065Y-80371461D01*
X144426515Y-80205385D01*
X144103402Y-80195615D01*
X143982729Y-80191579D01*
X143895141Y-80187344D01*
X143834650Y-80182097D01*
X143795268Y-80175025D01*
X143771007Y-80165311D01*
X143755880Y-80152144D01*
X143752606Y-80147919D01*
X143727034Y-80083909D01*
X143737153Y-80019208D01*
X143764000Y-79980692D01*
X143783024Y-79965025D01*
X143807988Y-79954180D01*
X143845834Y-79947288D01*
X143903502Y-79943479D01*
X143987935Y-79941883D01*
X144075928Y-79941615D01*
X144186323Y-79941563D01*
X144264463Y-79939672D01*
X144317165Y-79933345D01*
X144351242Y-79919983D01*
X144373511Y-79896985D01*
X144390787Y-79861754D01*
X144408738Y-79814697D01*
X144428278Y-79763303D01*
X144081485Y-79769421D01*
X143956468Y-79771884D01*
X143864082Y-79774767D01*
X143797881Y-79778898D01*
X143751420Y-79785107D01*
X143718256Y-79794226D01*
X143691944Y-79807083D01*
X143668729Y-79822584D01*
X143594569Y-79897371D01*
X143551684Y-79988628D01*
X143541412Y-80087883D01*
X143565089Y-80186664D01*
G36*
X143557256Y-77931886D02*
G01*
X143605409Y-78023464D01*
X143682905Y-78091049D01*
X143732727Y-78115057D01*
X143807533Y-78133738D01*
X143902052Y-78143301D01*
X144005210Y-78144208D01*
X144105935Y-78136921D01*
X144193153Y-78121903D01*
X144255791Y-78099615D01*
X144266579Y-78092765D01*
X144347105Y-78011632D01*
X144395336Y-77915266D01*
X144409450Y-77810701D01*
X144387629Y-77704968D01*
X144374547Y-77675543D01*
X144334231Y-77618241D01*
X144280775Y-77567950D01*
X144273995Y-77563197D01*
X144241321Y-77543878D01*
X144206394Y-77531108D01*
X144160414Y-77523564D01*
X144094584Y-77519924D01*
X144000105Y-77518865D01*
X143978923Y-77518846D01*
X143972182Y-77518894D01*
X143972182Y-77714231D01*
X144061349Y-77715368D01*
X144120520Y-77719841D01*
X144158741Y-77729246D01*
X144185053Y-77745176D01*
X144193846Y-77753308D01*
X144227261Y-77800058D01*
X144225737Y-77845447D01*
X144196752Y-77891340D01*
X144165809Y-77918712D01*
X144120643Y-77934923D01*
X144049420Y-77944026D01*
X144041114Y-77944651D01*
X143912037Y-77946204D01*
X143816172Y-77929965D01*
X143754107Y-77896152D01*
X143726432Y-77844984D01*
X143724923Y-77826720D01*
X143732513Y-77778760D01*
X143758808Y-77745953D01*
X143809095Y-77725895D01*
X143888664Y-77716178D01*
X143972182Y-77714231D01*
X143972182Y-77518894D01*
X143878249Y-77519574D01*
X143807906Y-77522629D01*
X143759163Y-77529322D01*
X143723288Y-77540960D01*
X143691548Y-77558853D01*
X143685648Y-77562808D01*
X143606104Y-77629267D01*
X143559929Y-77701685D01*
X143541599Y-77789849D01*
X143540703Y-77819787D01*
X143557256Y-77931886D01*
G37*
X143557256Y-77931886D02*
X143605409Y-78023464D01*
X143682905Y-78091049D01*
X143732727Y-78115057D01*
X143807533Y-78133738D01*
X143902052Y-78143301D01*
X144005210Y-78144208D01*
X144105935Y-78136921D01*
X144193153Y-78121903D01*
X144255791Y-78099615D01*
X144266579Y-78092765D01*
X144347105Y-78011632D01*
X144395336Y-77915266D01*
X144409450Y-77810701D01*
X144387629Y-77704968D01*
X144374547Y-77675543D01*
X144334231Y-77618241D01*
X144280775Y-77567950D01*
X144273995Y-77563197D01*
X144241321Y-77543878D01*
X144206394Y-77531108D01*
X144160414Y-77523564D01*
X144094584Y-77519924D01*
X144000105Y-77518865D01*
X143978923Y-77518846D01*
X143972182Y-77518894D01*
X143972182Y-77714231D01*
X144061349Y-77715368D01*
X144120520Y-77719841D01*
X144158741Y-77729246D01*
X144185053Y-77745176D01*
X144193846Y-77753308D01*
X144227261Y-77800058D01*
X144225737Y-77845447D01*
X144196752Y-77891340D01*
X144165809Y-77918712D01*
X144120643Y-77934923D01*
X144049420Y-77944026D01*
X144041114Y-77944651D01*
X143912037Y-77946204D01*
X143816172Y-77929965D01*
X143754107Y-77896152D01*
X143726432Y-77844984D01*
X143724923Y-77826720D01*
X143732513Y-77778760D01*
X143758808Y-77745953D01*
X143809095Y-77725895D01*
X143888664Y-77716178D01*
X143972182Y-77714231D01*
X143972182Y-77518894D01*
X143878249Y-77519574D01*
X143807906Y-77522629D01*
X143759163Y-77529322D01*
X143723288Y-77540960D01*
X143691548Y-77558853D01*
X143685648Y-77562808D01*
X143606104Y-77629267D01*
X143559929Y-77701685D01*
X143541599Y-77789849D01*
X143540703Y-77819787D01*
X143557256Y-77931886D01*
G36*
X143569745Y-79449254D02*
G01*
X143621567Y-79526286D01*
X143696412Y-79585816D01*
X143791654Y-79621378D01*
X143861756Y-79628571D01*
X143891009Y-79627754D01*
X143913407Y-79620914D01*
X143933474Y-79602112D01*
X143955733Y-79565408D01*
X143984709Y-79504862D01*
X144024927Y-79414534D01*
X144025129Y-79414077D01*
X144063210Y-79330933D01*
X144097025Y-79262753D01*
X144122933Y-79216505D01*
X144137295Y-79199158D01*
X144137411Y-79199154D01*
X144168685Y-79214443D01*
X144203157Y-79250196D01*
X144227990Y-79291242D01*
X144232923Y-79312037D01*
X144215862Y-79368770D01*
X144173133Y-79417627D01*
X144126155Y-79441465D01*
X144091522Y-79464397D01*
X144052081Y-79509318D01*
X144018009Y-79562123D01*
X143999480Y-79608710D01*
X143998462Y-79618452D01*
X144015215Y-79629418D01*
X144058039Y-79630079D01*
X144115781Y-79622020D01*
X144177289Y-79606827D01*
X144231409Y-79586086D01*
X144233510Y-79585038D01*
X144320660Y-79522621D01*
X144379939Y-79441726D01*
X144409034Y-79349856D01*
X144405634Y-79254513D01*
X144367428Y-79163198D01*
X144364741Y-79159138D01*
X144299642Y-79087306D01*
X144214705Y-79040073D01*
X144103021Y-79013934D01*
X144071643Y-79010426D01*
X143923536Y-79004213D01*
X143854468Y-79011661D01*
X143854468Y-79199154D01*
X143897552Y-79201590D01*
X143910126Y-79214914D01*
X143900719Y-79248132D01*
X143878483Y-79300494D01*
X143850610Y-79359024D01*
X143849872Y-79360479D01*
X143823777Y-79410089D01*
X143806363Y-79430000D01*
X143788107Y-79425090D01*
X143764120Y-79404416D01*
X143729406Y-79351819D01*
X143726856Y-79295177D01*
X143752119Y-79244369D01*
X143800847Y-79209276D01*
X143854468Y-79199154D01*
X143854468Y-79011661D01*
X143805036Y-79016992D01*
X143711055Y-79049778D01*
X143645215Y-79095421D01*
X143578681Y-79177802D01*
X143545676Y-79268546D01*
X143543573Y-79361185D01*
X143569745Y-79449254D01*
G37*
X143569745Y-79449254D02*
X143621567Y-79526286D01*
X143696412Y-79585816D01*
X143791654Y-79621378D01*
X143861756Y-79628571D01*
X143891009Y-79627754D01*
X143913407Y-79620914D01*
X143933474Y-79602112D01*
X143955733Y-79565408D01*
X143984709Y-79504862D01*
X144024927Y-79414534D01*
X144025129Y-79414077D01*
X144063210Y-79330933D01*
X144097025Y-79262753D01*
X144122933Y-79216505D01*
X144137295Y-79199158D01*
X144137411Y-79199154D01*
X144168685Y-79214443D01*
X144203157Y-79250196D01*
X144227990Y-79291242D01*
X144232923Y-79312037D01*
X144215862Y-79368770D01*
X144173133Y-79417627D01*
X144126155Y-79441465D01*
X144091522Y-79464397D01*
X144052081Y-79509318D01*
X144018009Y-79562123D01*
X143999480Y-79608710D01*
X143998462Y-79618452D01*
X144015215Y-79629418D01*
X144058039Y-79630079D01*
X144115781Y-79622020D01*
X144177289Y-79606827D01*
X144231409Y-79586086D01*
X144233510Y-79585038D01*
X144320660Y-79522621D01*
X144379939Y-79441726D01*
X144409034Y-79349856D01*
X144405634Y-79254513D01*
X144367428Y-79163198D01*
X144364741Y-79159138D01*
X144299642Y-79087306D01*
X144214705Y-79040073D01*
X144103021Y-79013934D01*
X144071643Y-79010426D01*
X143923536Y-79004213D01*
X143854468Y-79011661D01*
X143854468Y-79199154D01*
X143897552Y-79201590D01*
X143910126Y-79214914D01*
X143900719Y-79248132D01*
X143878483Y-79300494D01*
X143850610Y-79359024D01*
X143849872Y-79360479D01*
X143823777Y-79410089D01*
X143806363Y-79430000D01*
X143788107Y-79425090D01*
X143764120Y-79404416D01*
X143729406Y-79351819D01*
X143726856Y-79295177D01*
X143752119Y-79244369D01*
X143800847Y-79209276D01*
X143854468Y-79199154D01*
X143854468Y-79011661D01*
X143805036Y-79016992D01*
X143711055Y-79049778D01*
X143645215Y-79095421D01*
X143578681Y-79177802D01*
X143545676Y-79268546D01*
X143543573Y-79361185D01*
X143569745Y-79449254D01*
G36*
X143462120Y-81074846D02*
G01*
X143541980Y-81080572D01*
X143589039Y-81087149D01*
X143609566Y-81096262D01*
X143609829Y-81109598D01*
X143607378Y-81113923D01*
X143589636Y-81171444D01*
X143590672Y-81246268D01*
X143608910Y-81322339D01*
X143632505Y-81369918D01*
X143670198Y-81418702D01*
X143712855Y-81454364D01*
X143767057Y-81478845D01*
X143839384Y-81494087D01*
X143936419Y-81502030D01*
X144064742Y-81504616D01*
X144089358Y-81504662D01*
X144365870Y-81504692D01*
X144387320Y-81443161D01*
X144401912Y-81399459D01*
X144408706Y-81375482D01*
X144408769Y-81374777D01*
X144390345Y-81372415D01*
X144339526Y-81370406D01*
X144262993Y-81368901D01*
X144167430Y-81368053D01*
X144109329Y-81367923D01*
X143994771Y-81367651D01*
X143912667Y-81366252D01*
X143856393Y-81362849D01*
X143819326Y-81356567D01*
X143794844Y-81346529D01*
X143776325Y-81331861D01*
X143767406Y-81322702D01*
X143731466Y-81259789D01*
X143728775Y-81191136D01*
X143759170Y-81128848D01*
X143770144Y-81117329D01*
X143790779Y-81100433D01*
X143815256Y-81088714D01*
X143850647Y-81081233D01*
X143904026Y-81077054D01*
X143982466Y-81075237D01*
X144090617Y-81074846D01*
X144365870Y-81074846D01*
X144387320Y-81013315D01*
X144401912Y-80969613D01*
X144408706Y-80945636D01*
X144408769Y-80944930D01*
X144390069Y-80943126D01*
X144337322Y-80941500D01*
X144255557Y-80940117D01*
X144149805Y-80939042D01*
X144025094Y-80938340D01*
X143886455Y-80938077D01*
X143351806Y-80938077D01*
X143298236Y-81065077D01*
X143462120Y-81074846D01*
G37*
X143462120Y-81074846D02*
X143541980Y-81080572D01*
X143589039Y-81087149D01*
X143609566Y-81096262D01*
X143609829Y-81109598D01*
X143607378Y-81113923D01*
X143589636Y-81171444D01*
X143590672Y-81246268D01*
X143608910Y-81322339D01*
X143632505Y-81369918D01*
X143670198Y-81418702D01*
X143712855Y-81454364D01*
X143767057Y-81478845D01*
X143839384Y-81494087D01*
X143936419Y-81502030D01*
X144064742Y-81504616D01*
X144089358Y-81504662D01*
X144365870Y-81504692D01*
X144387320Y-81443161D01*
X144401912Y-81399459D01*
X144408706Y-81375482D01*
X144408769Y-81374777D01*
X144390345Y-81372415D01*
X144339526Y-81370406D01*
X144262993Y-81368901D01*
X144167430Y-81368053D01*
X144109329Y-81367923D01*
X143994771Y-81367651D01*
X143912667Y-81366252D01*
X143856393Y-81362849D01*
X143819326Y-81356567D01*
X143794844Y-81346529D01*
X143776325Y-81331861D01*
X143767406Y-81322702D01*
X143731466Y-81259789D01*
X143728775Y-81191136D01*
X143759170Y-81128848D01*
X143770144Y-81117329D01*
X143790779Y-81100433D01*
X143815256Y-81088714D01*
X143850647Y-81081233D01*
X143904026Y-81077054D01*
X143982466Y-81075237D01*
X144090617Y-81074846D01*
X144365870Y-81074846D01*
X144387320Y-81013315D01*
X144401912Y-80969613D01*
X144408706Y-80945636D01*
X144408769Y-80944930D01*
X144390069Y-80943126D01*
X144337322Y-80941500D01*
X144255557Y-80940117D01*
X144149805Y-80939042D01*
X144025094Y-80938340D01*
X143886455Y-80938077D01*
X143351806Y-80938077D01*
X143298236Y-81065077D01*
X143462120Y-81074846D01*
G36*
X143596303Y-81968501D02*
G01*
X143624733Y-82045060D01*
X143625279Y-82045936D01*
X143660127Y-82093285D01*
X143700852Y-82128241D01*
X143753925Y-82152825D01*
X143825814Y-82169062D01*
X143922992Y-82178975D01*
X144051928Y-82184586D01*
X144070298Y-82185077D01*
X144347287Y-82192141D01*
X144378028Y-82132695D01*
X144398802Y-82089681D01*
X144408646Y-82063710D01*
X144408769Y-82062509D01*
X144390606Y-82058014D01*
X144341612Y-82054444D01*
X144270031Y-82052248D01*
X144212068Y-82051769D01*
X144118170Y-82051758D01*
X144059203Y-82047466D01*
X144031079Y-82032503D01*
X144029706Y-82000482D01*
X144050998Y-81945014D01*
X144090136Y-81861269D01*
X144122643Y-81799689D01*
X144150845Y-81768017D01*
X144181582Y-81758706D01*
X144183104Y-81758692D01*
X144236054Y-81774057D01*
X144264660Y-81819547D01*
X144268803Y-81889166D01*
X144268084Y-81939313D01*
X144282527Y-81965754D01*
X144317218Y-81982243D01*
X144361416Y-81991733D01*
X144386493Y-81978057D01*
X144390082Y-81972907D01*
X144404496Y-81924425D01*
X144406537Y-81856531D01*
X144396983Y-81786612D01*
X144379522Y-81737068D01*
X144321364Y-81668570D01*
X144240408Y-81629634D01*
X144177160Y-81621923D01*
X144120111Y-81627807D01*
X144073542Y-81649101D01*
X144032181Y-81691265D01*
X143990755Y-81759759D01*
X143943993Y-81860044D01*
X143941350Y-81866154D01*
X143899617Y-81956490D01*
X143865391Y-82012235D01*
X143834635Y-82036129D01*
X143803311Y-82030913D01*
X143767383Y-81999328D01*
X143759116Y-81989883D01*
X143727058Y-81926617D01*
X143728407Y-81861064D01*
X143759838Y-81803972D01*
X143818024Y-81766093D01*
X143829446Y-81762574D01*
X143884837Y-81728300D01*
X143911518Y-81684809D01*
X143937960Y-81621923D01*
X143869548Y-81621923D01*
X143770110Y-81641052D01*
X143678902Y-81697831D01*
X143648389Y-81727378D01*
X143609228Y-81794542D01*
X143591500Y-81879956D01*
X143596303Y-81968501D01*
G37*
X143596303Y-81968501D02*
X143624733Y-82045060D01*
X143625279Y-82045936D01*
X143660127Y-82093285D01*
X143700852Y-82128241D01*
X143753925Y-82152825D01*
X143825814Y-82169062D01*
X143922992Y-82178975D01*
X144051928Y-82184586D01*
X144070298Y-82185077D01*
X144347287Y-82192141D01*
X144378028Y-82132695D01*
X144398802Y-82089681D01*
X144408646Y-82063710D01*
X144408769Y-82062509D01*
X144390606Y-82058014D01*
X144341612Y-82054444D01*
X144270031Y-82052248D01*
X144212068Y-82051769D01*
X144118170Y-82051758D01*
X144059203Y-82047466D01*
X144031079Y-82032503D01*
X144029706Y-82000482D01*
X144050998Y-81945014D01*
X144090136Y-81861269D01*
X144122643Y-81799689D01*
X144150845Y-81768017D01*
X144181582Y-81758706D01*
X144183104Y-81758692D01*
X144236054Y-81774057D01*
X144264660Y-81819547D01*
X144268803Y-81889166D01*
X144268084Y-81939313D01*
X144282527Y-81965754D01*
X144317218Y-81982243D01*
X144361416Y-81991733D01*
X144386493Y-81978057D01*
X144390082Y-81972907D01*
X144404496Y-81924425D01*
X144406537Y-81856531D01*
X144396983Y-81786612D01*
X144379522Y-81737068D01*
X144321364Y-81668570D01*
X144240408Y-81629634D01*
X144177160Y-81621923D01*
X144120111Y-81627807D01*
X144073542Y-81649101D01*
X144032181Y-81691265D01*
X143990755Y-81759759D01*
X143943993Y-81860044D01*
X143941350Y-81866154D01*
X143899617Y-81956490D01*
X143865391Y-82012235D01*
X143834635Y-82036129D01*
X143803311Y-82030913D01*
X143767383Y-81999328D01*
X143759116Y-81989883D01*
X143727058Y-81926617D01*
X143728407Y-81861064D01*
X143759838Y-81803972D01*
X143818024Y-81766093D01*
X143829446Y-81762574D01*
X143884837Y-81728300D01*
X143911518Y-81684809D01*
X143937960Y-81621923D01*
X143869548Y-81621923D01*
X143770110Y-81641052D01*
X143678902Y-81697831D01*
X143648389Y-81727378D01*
X143609228Y-81794542D01*
X143591500Y-81879956D01*
X143596303Y-81968501D01*
G36*
X143594670Y-82628362D02*
G01*
X143627421Y-82717117D01*
X143685350Y-82789022D01*
X143726128Y-82817144D01*
X143800954Y-82847802D01*
X143855058Y-82847165D01*
X143891446Y-82814987D01*
X143897633Y-82803081D01*
X143916925Y-82751675D01*
X143911982Y-82725422D01*
X143879587Y-82716530D01*
X143861692Y-82716077D01*
X143795859Y-82699797D01*
X143749807Y-82657365D01*
X143727564Y-82598388D01*
X143733161Y-82532475D01*
X143762229Y-82478895D01*
X143778810Y-82460798D01*
X143798925Y-82447971D01*
X143829332Y-82439306D01*
X143876788Y-82433696D01*
X143948050Y-82430035D01*
X144049875Y-82427215D01*
X144082115Y-82426484D01*
X144192410Y-82423820D01*
X144270036Y-82420792D01*
X144321396Y-82416250D01*
X144352890Y-82409046D01*
X144370920Y-82398033D01*
X144381888Y-82382060D01*
X144386733Y-82371834D01*
X144403301Y-82328406D01*
X144408769Y-82302842D01*
X144390507Y-82294395D01*
X144335296Y-82289239D01*
X144242499Y-82287346D01*
X144111478Y-82288689D01*
X144091269Y-82289107D01*
X143971733Y-82292058D01*
X143884449Y-82295548D01*
X143822591Y-82300514D01*
X143779336Y-82307893D01*
X143747860Y-82318624D01*
X143721339Y-82333645D01*
X143709975Y-82341502D01*
X143659692Y-82386553D01*
X143620581Y-82436940D01*
X143617167Y-82443108D01*
X143590212Y-82533458D01*
X143594670Y-82628362D01*
G37*
X143594670Y-82628362D02*
X143627421Y-82717117D01*
X143685350Y-82789022D01*
X143726128Y-82817144D01*
X143800954Y-82847802D01*
X143855058Y-82847165D01*
X143891446Y-82814987D01*
X143897633Y-82803081D01*
X143916925Y-82751675D01*
X143911982Y-82725422D01*
X143879587Y-82716530D01*
X143861692Y-82716077D01*
X143795859Y-82699797D01*
X143749807Y-82657365D01*
X143727564Y-82598388D01*
X143733161Y-82532475D01*
X143762229Y-82478895D01*
X143778810Y-82460798D01*
X143798925Y-82447971D01*
X143829332Y-82439306D01*
X143876788Y-82433696D01*
X143948050Y-82430035D01*
X144049875Y-82427215D01*
X144082115Y-82426484D01*
X144192410Y-82423820D01*
X144270036Y-82420792D01*
X144321396Y-82416250D01*
X144352890Y-82409046D01*
X144370920Y-82398033D01*
X144381888Y-82382060D01*
X144386733Y-82371834D01*
X144403301Y-82328406D01*
X144408769Y-82302842D01*
X144390507Y-82294395D01*
X144335296Y-82289239D01*
X144242499Y-82287346D01*
X144111478Y-82288689D01*
X144091269Y-82289107D01*
X143971733Y-82292058D01*
X143884449Y-82295548D01*
X143822591Y-82300514D01*
X143779336Y-82307893D01*
X143747860Y-82318624D01*
X143721339Y-82333645D01*
X143709975Y-82341502D01*
X143659692Y-82386553D01*
X143620581Y-82436940D01*
X143617167Y-82443108D01*
X143590212Y-82533458D01*
X143594670Y-82628362D01*
G36*
X143750289Y-83517081D02*
G01*
X143896320Y-83516833D01*
X144008655Y-83515872D01*
X144092678Y-83513794D01*
X144153769Y-83510193D01*
X144197309Y-83504665D01*
X144228679Y-83496804D01*
X144253262Y-83486207D01*
X144267294Y-83478182D01*
X144343388Y-83411728D01*
X144391084Y-83327470D01*
X144408199Y-83234249D01*
X144392546Y-83140900D01*
X144364418Y-83085312D01*
X144315760Y-83026957D01*
X144256333Y-82987186D01*
X144178507Y-82963190D01*
X144074652Y-82952161D01*
X143998462Y-82950599D01*
X143992986Y-82950809D01*
X143992986Y-83087308D01*
X144080355Y-83088141D01*
X144138192Y-83091961D01*
X144176029Y-83100746D01*
X144203398Y-83116474D01*
X144224042Y-83135266D01*
X144263890Y-83198375D01*
X144267295Y-83266137D01*
X144234025Y-83330179D01*
X144229517Y-83335164D01*
X144206067Y-83356439D01*
X144178166Y-83369779D01*
X144136641Y-83377001D01*
X144072316Y-83379923D01*
X144001200Y-83380385D01*
X143911858Y-83379383D01*
X143852258Y-83375238D01*
X143813089Y-83366236D01*
X143785040Y-83350667D01*
X143770144Y-83337902D01*
X143732575Y-83278600D01*
X143728057Y-83210301D01*
X143756753Y-83145110D01*
X143767406Y-83132528D01*
X143791063Y-83111111D01*
X143819251Y-83097744D01*
X143861245Y-83090566D01*
X143926319Y-83087719D01*
X143992986Y-83087308D01*
X143992986Y-82950809D01*
X143875765Y-82955322D01*
X143783577Y-82971362D01*
X143714269Y-83001528D01*
X143660211Y-83048629D01*
X143632505Y-83085312D01*
X143602572Y-83151990D01*
X143588678Y-83229272D01*
X143592397Y-83301110D01*
X143607400Y-83341308D01*
X143611670Y-83357082D01*
X143595750Y-83367550D01*
X143553089Y-83374856D01*
X143488106Y-83380385D01*
X143415732Y-83386437D01*
X143372187Y-83394844D01*
X143347287Y-83410141D01*
X143330845Y-83436864D01*
X143323564Y-83453654D01*
X143296963Y-83517154D01*
X143750289Y-83517081D01*
G37*
X143750289Y-83517081D02*
X143896320Y-83516833D01*
X144008655Y-83515872D01*
X144092678Y-83513794D01*
X144153769Y-83510193D01*
X144197309Y-83504665D01*
X144228679Y-83496804D01*
X144253262Y-83486207D01*
X144267294Y-83478182D01*
X144343388Y-83411728D01*
X144391084Y-83327470D01*
X144408199Y-83234249D01*
X144392546Y-83140900D01*
X144364418Y-83085312D01*
X144315760Y-83026957D01*
X144256333Y-82987186D01*
X144178507Y-82963190D01*
X144074652Y-82952161D01*
X143998462Y-82950599D01*
X143992986Y-82950809D01*
X143992986Y-83087308D01*
X144080355Y-83088141D01*
X144138192Y-83091961D01*
X144176029Y-83100746D01*
X144203398Y-83116474D01*
X144224042Y-83135266D01*
X144263890Y-83198375D01*
X144267295Y-83266137D01*
X144234025Y-83330179D01*
X144229517Y-83335164D01*
X144206067Y-83356439D01*
X144178166Y-83369779D01*
X144136641Y-83377001D01*
X144072316Y-83379923D01*
X144001200Y-83380385D01*
X143911858Y-83379383D01*
X143852258Y-83375238D01*
X143813089Y-83366236D01*
X143785040Y-83350667D01*
X143770144Y-83337902D01*
X143732575Y-83278600D01*
X143728057Y-83210301D01*
X143756753Y-83145110D01*
X143767406Y-83132528D01*
X143791063Y-83111111D01*
X143819251Y-83097744D01*
X143861245Y-83090566D01*
X143926319Y-83087719D01*
X143992986Y-83087308D01*
X143992986Y-82950809D01*
X143875765Y-82955322D01*
X143783577Y-82971362D01*
X143714269Y-83001528D01*
X143660211Y-83048629D01*
X143632505Y-83085312D01*
X143602572Y-83151990D01*
X143588678Y-83229272D01*
X143592397Y-83301110D01*
X143607400Y-83341308D01*
X143611670Y-83357082D01*
X143595750Y-83367550D01*
X143553089Y-83374856D01*
X143488106Y-83380385D01*
X143415732Y-83386437D01*
X143372187Y-83394844D01*
X143347287Y-83410141D01*
X143330845Y-83436864D01*
X143323564Y-83453654D01*
X143296963Y-83517154D01*
X143750289Y-83517081D01*
G36*
X143606662Y-84310929D02*
G01*
X143658068Y-84313911D01*
X143736192Y-84316247D01*
X143834857Y-84317749D01*
X143938343Y-84318231D01*
X144288533Y-84318231D01*
X144350363Y-84256401D01*
X144388462Y-84213793D01*
X144403895Y-84176390D01*
X144402918Y-84125270D01*
X144400433Y-84104978D01*
X144393200Y-84041554D01*
X144389055Y-83989095D01*
X144388672Y-83976308D01*
X144391176Y-83933199D01*
X144397462Y-83871544D01*
X144400433Y-83847638D01*
X144405028Y-83788922D01*
X144395046Y-83749464D01*
X144364228Y-83710338D01*
X144350363Y-83696215D01*
X144288533Y-83634385D01*
X143633503Y-83634385D01*
X143610829Y-83684150D01*
X143594034Y-83727002D01*
X143588154Y-83752073D01*
X143606736Y-83758501D01*
X143658655Y-83764509D01*
X143738172Y-83769697D01*
X143839546Y-83773664D01*
X143925192Y-83775577D01*
X144262231Y-83780923D01*
X144268825Y-83827560D01*
X144264214Y-83869976D01*
X144249287Y-83890760D01*
X144221377Y-83896570D01*
X144161925Y-83901530D01*
X144078466Y-83905246D01*
X143978532Y-83907324D01*
X143927104Y-83907624D01*
X143631054Y-83907923D01*
X143609604Y-83969454D01*
X143595020Y-84013004D01*
X143588219Y-84036694D01*
X143588154Y-84037377D01*
X143606642Y-84039754D01*
X143657906Y-84042366D01*
X143735649Y-84044995D01*
X143833574Y-84047421D01*
X143925192Y-84049115D01*
X144262231Y-84054461D01*
X144262231Y-84171692D01*
X143954746Y-84177072D01*
X143647261Y-84182451D01*
X143617707Y-84239601D01*
X143597413Y-84281797D01*
X143588204Y-84306770D01*
X143588154Y-84307491D01*
X143606662Y-84310929D01*
G37*
X143606662Y-84310929D02*
X143658068Y-84313911D01*
X143736192Y-84316247D01*
X143834857Y-84317749D01*
X143938343Y-84318231D01*
X144288533Y-84318231D01*
X144350363Y-84256401D01*
X144388462Y-84213793D01*
X144403895Y-84176390D01*
X144402918Y-84125270D01*
X144400433Y-84104978D01*
X144393200Y-84041554D01*
X144389055Y-83989095D01*
X144388672Y-83976308D01*
X144391176Y-83933199D01*
X144397462Y-83871544D01*
X144400433Y-83847638D01*
X144405028Y-83788922D01*
X144395046Y-83749464D01*
X144364228Y-83710338D01*
X144350363Y-83696215D01*
X144288533Y-83634385D01*
X143633503Y-83634385D01*
X143610829Y-83684150D01*
X143594034Y-83727002D01*
X143588154Y-83752073D01*
X143606736Y-83758501D01*
X143658655Y-83764509D01*
X143738172Y-83769697D01*
X143839546Y-83773664D01*
X143925192Y-83775577D01*
X144262231Y-83780923D01*
X144268825Y-83827560D01*
X144264214Y-83869976D01*
X144249287Y-83890760D01*
X144221377Y-83896570D01*
X144161925Y-83901530D01*
X144078466Y-83905246D01*
X143978532Y-83907324D01*
X143927104Y-83907624D01*
X143631054Y-83907923D01*
X143609604Y-83969454D01*
X143595020Y-84013004D01*
X143588219Y-84036694D01*
X143588154Y-84037377D01*
X143606642Y-84039754D01*
X143657906Y-84042366D01*
X143735649Y-84044995D01*
X143833574Y-84047421D01*
X143925192Y-84049115D01*
X144262231Y-84054461D01*
X144262231Y-84171692D01*
X143954746Y-84177072D01*
X143647261Y-84182451D01*
X143617707Y-84239601D01*
X143597413Y-84281797D01*
X143588204Y-84306770D01*
X143588154Y-84307491D01*
X143606662Y-84310929D01*
G36*
X143603528Y-84802333D02*
G01*
X143629117Y-84858590D01*
X143660124Y-84902747D01*
X143694795Y-84935101D01*
X143739520Y-84957438D01*
X143800692Y-84971546D01*
X143884701Y-84979211D01*
X143997940Y-84982220D01*
X144072509Y-84982538D01*
X144363420Y-84982538D01*
X144386095Y-84932773D01*
X144402667Y-84893576D01*
X144408769Y-84874157D01*
X144390610Y-84870442D01*
X144341648Y-84867495D01*
X144270153Y-84865691D01*
X144213385Y-84865308D01*
X144131371Y-84863661D01*
X144066309Y-84859222D01*
X144026467Y-84852740D01*
X144018000Y-84847590D01*
X144026646Y-84812977D01*
X144048823Y-84758640D01*
X144078886Y-84695722D01*
X144111192Y-84635368D01*
X144140098Y-84588721D01*
X144159961Y-84566926D01*
X144160175Y-84566839D01*
X144196935Y-84568714D01*
X144232026Y-84585525D01*
X144260528Y-84615039D01*
X144270061Y-84658116D01*
X144268950Y-84694932D01*
X144268133Y-84747074D01*
X144280349Y-84774444D01*
X144312624Y-84790882D01*
X144318710Y-84792955D01*
X144364739Y-84800081D01*
X144392687Y-84781024D01*
X144406007Y-84731353D01*
X144408470Y-84677697D01*
X144390210Y-84581142D01*
X144364131Y-84531159D01*
X144302868Y-84469429D01*
X144227670Y-84436690D01*
X144148211Y-84433753D01*
X144074167Y-84461424D01*
X144027769Y-84503047D01*
X144001793Y-84544604D01*
X143968907Y-84609922D01*
X143935557Y-84686038D01*
X143930461Y-84698726D01*
X143893565Y-84782333D01*
X143861046Y-84830530D01*
X143828718Y-84846030D01*
X143792394Y-84831550D01*
X143764000Y-84806692D01*
X143729039Y-84747939D01*
X143726417Y-84683293D01*
X143753358Y-84624008D01*
X143807088Y-84581339D01*
X143820950Y-84575739D01*
X143871936Y-84543133D01*
X143909787Y-84495530D01*
X143940850Y-84435461D01*
X143852768Y-84435461D01*
X143798951Y-84438997D01*
X143756534Y-84454156D01*
X143711279Y-84487768D01*
X143676420Y-84520035D01*
X143627062Y-84570209D01*
X143600547Y-84609193D01*
X143589911Y-84651064D01*
X143588154Y-84698460D01*
X143603528Y-84802333D01*
G37*
X143603528Y-84802333D02*
X143629117Y-84858590D01*
X143660124Y-84902747D01*
X143694795Y-84935101D01*
X143739520Y-84957438D01*
X143800692Y-84971546D01*
X143884701Y-84979211D01*
X143997940Y-84982220D01*
X144072509Y-84982538D01*
X144363420Y-84982538D01*
X144386095Y-84932773D01*
X144402667Y-84893576D01*
X144408769Y-84874157D01*
X144390610Y-84870442D01*
X144341648Y-84867495D01*
X144270153Y-84865691D01*
X144213385Y-84865308D01*
X144131371Y-84863661D01*
X144066309Y-84859222D01*
X144026467Y-84852740D01*
X144018000Y-84847590D01*
X144026646Y-84812977D01*
X144048823Y-84758640D01*
X144078886Y-84695722D01*
X144111192Y-84635368D01*
X144140098Y-84588721D01*
X144159961Y-84566926D01*
X144160175Y-84566839D01*
X144196935Y-84568714D01*
X144232026Y-84585525D01*
X144260528Y-84615039D01*
X144270061Y-84658116D01*
X144268950Y-84694932D01*
X144268133Y-84747074D01*
X144280349Y-84774444D01*
X144312624Y-84790882D01*
X144318710Y-84792955D01*
X144364739Y-84800081D01*
X144392687Y-84781024D01*
X144406007Y-84731353D01*
X144408470Y-84677697D01*
X144390210Y-84581142D01*
X144364131Y-84531159D01*
X144302868Y-84469429D01*
X144227670Y-84436690D01*
X144148211Y-84433753D01*
X144074167Y-84461424D01*
X144027769Y-84503047D01*
X144001793Y-84544604D01*
X143968907Y-84609922D01*
X143935557Y-84686038D01*
X143930461Y-84698726D01*
X143893565Y-84782333D01*
X143861046Y-84830530D01*
X143828718Y-84846030D01*
X143792394Y-84831550D01*
X143764000Y-84806692D01*
X143729039Y-84747939D01*
X143726417Y-84683293D01*
X143753358Y-84624008D01*
X143807088Y-84581339D01*
X143820950Y-84575739D01*
X143871936Y-84543133D01*
X143909787Y-84495530D01*
X143940850Y-84435461D01*
X143852768Y-84435461D01*
X143798951Y-84438997D01*
X143756534Y-84454156D01*
X143711279Y-84487768D01*
X143676420Y-84520035D01*
X143627062Y-84570209D01*
X143600547Y-84609193D01*
X143589911Y-84651064D01*
X143588154Y-84698460D01*
X143603528Y-84802333D01*
G36*
X143606782Y-85485807D02*
G01*
X143616988Y-85509161D01*
X143661134Y-85564902D01*
X143724967Y-85612569D01*
X143793087Y-85642048D01*
X143826670Y-85646846D01*
X143873556Y-85630760D01*
X143898365Y-85595475D01*
X143913387Y-85557644D01*
X143916155Y-85540321D01*
X143896066Y-85531886D01*
X143852351Y-85515230D01*
X143832598Y-85507923D01*
X143764271Y-85466948D01*
X143730191Y-85407622D01*
X143731239Y-85331552D01*
X143732581Y-85325918D01*
X143751836Y-85285305D01*
X143789375Y-85255448D01*
X143849809Y-85235055D01*
X143937751Y-85222836D01*
X144057813Y-85217500D01*
X144121698Y-85217000D01*
X144222403Y-85216752D01*
X144291054Y-85215126D01*
X144334673Y-85210801D01*
X144360282Y-85202454D01*
X144374903Y-85188765D01*
X144385558Y-85168411D01*
X144386095Y-85167234D01*
X144402667Y-85128038D01*
X144408769Y-85108619D01*
X144390319Y-85105635D01*
X144339323Y-85103081D01*
X144262308Y-85101140D01*
X144165805Y-85099997D01*
X144095184Y-85099769D01*
X143958525Y-85100932D01*
X143854851Y-85105479D01*
X143778108Y-85114999D01*
X143722246Y-85131081D01*
X143681212Y-85155313D01*
X143648954Y-85189286D01*
X143626440Y-85222833D01*
X143596476Y-85303499D01*
X143589718Y-85397381D01*
X143606782Y-85485807D01*
G37*
X143606782Y-85485807D02*
X143616988Y-85509161D01*
X143661134Y-85564902D01*
X143724967Y-85612569D01*
X143793087Y-85642048D01*
X143826670Y-85646846D01*
X143873556Y-85630760D01*
X143898365Y-85595475D01*
X143913387Y-85557644D01*
X143916155Y-85540321D01*
X143896066Y-85531886D01*
X143852351Y-85515230D01*
X143832598Y-85507923D01*
X143764271Y-85466948D01*
X143730191Y-85407622D01*
X143731239Y-85331552D01*
X143732581Y-85325918D01*
X143751836Y-85285305D01*
X143789375Y-85255448D01*
X143849809Y-85235055D01*
X143937751Y-85222836D01*
X144057813Y-85217500D01*
X144121698Y-85217000D01*
X144222403Y-85216752D01*
X144291054Y-85215126D01*
X144334673Y-85210801D01*
X144360282Y-85202454D01*
X144374903Y-85188765D01*
X144385558Y-85168411D01*
X144386095Y-85167234D01*
X144402667Y-85128038D01*
X144408769Y-85108619D01*
X144390319Y-85105635D01*
X144339323Y-85103081D01*
X144262308Y-85101140D01*
X144165805Y-85099997D01*
X144095184Y-85099769D01*
X143958525Y-85100932D01*
X143854851Y-85105479D01*
X143778108Y-85114999D01*
X143722246Y-85131081D01*
X143681212Y-85155313D01*
X143648954Y-85189286D01*
X143626440Y-85222833D01*
X143596476Y-85303499D01*
X143589718Y-85397381D01*
X143606782Y-85485807D01*
G36*
X143617838Y-86160224D02*
G01*
X143668361Y-86237528D01*
X143713590Y-86274814D01*
X143795663Y-86304353D01*
X143860607Y-86306699D01*
X143947445Y-86301385D01*
X144035103Y-86101115D01*
X144079887Y-86003739D01*
X144115913Y-85940113D01*
X144147117Y-85907029D01*
X144177436Y-85901280D01*
X144210805Y-85919658D01*
X144232923Y-85939923D01*
X144268393Y-85998889D01*
X144270879Y-86063024D01*
X144243235Y-86121926D01*
X144188320Y-86165197D01*
X144168928Y-86172936D01*
X144108364Y-86210006D01*
X144082552Y-86252654D01*
X144060471Y-86311154D01*
X144144184Y-86311154D01*
X144201150Y-86305982D01*
X144249189Y-86285723D01*
X144304346Y-86243262D01*
X144311514Y-86236951D01*
X144360585Y-86189720D01*
X144386920Y-86149121D01*
X144399035Y-86098328D01*
X144403003Y-86056220D01*
X144403991Y-85980902D01*
X144391466Y-85927286D01*
X144372869Y-85893838D01*
X144331975Y-85841268D01*
X144287748Y-85804879D01*
X144232126Y-85781850D01*
X144157047Y-85769359D01*
X144054449Y-85764587D01*
X144002376Y-85764206D01*
X143939948Y-85765501D01*
X143939948Y-85883471D01*
X143973438Y-85884839D01*
X143978923Y-85888249D01*
X143971472Y-85910753D01*
X143951753Y-85959182D01*
X143923718Y-86023908D01*
X143917692Y-86037443D01*
X143876096Y-86119244D01*
X143839538Y-86164312D01*
X143805296Y-86174217D01*
X143770648Y-86150526D01*
X143755339Y-86130960D01*
X143724721Y-86060360D01*
X143729780Y-85994280D01*
X143767151Y-85938959D01*
X143833473Y-85900636D01*
X143886116Y-85888349D01*
X143939948Y-85883471D01*
X143939948Y-85765501D01*
X143880720Y-85766730D01*
X143790710Y-85776032D01*
X143725167Y-85794460D01*
X143676912Y-85824360D01*
X143638767Y-85868080D01*
X143626440Y-85887141D01*
X143594336Y-85973726D01*
X143592316Y-86068522D01*
X143617838Y-86160224D01*
G37*
X143617838Y-86160224D02*
X143668361Y-86237528D01*
X143713590Y-86274814D01*
X143795663Y-86304353D01*
X143860607Y-86306699D01*
X143947445Y-86301385D01*
X144035103Y-86101115D01*
X144079887Y-86003739D01*
X144115913Y-85940113D01*
X144147117Y-85907029D01*
X144177436Y-85901280D01*
X144210805Y-85919658D01*
X144232923Y-85939923D01*
X144268393Y-85998889D01*
X144270879Y-86063024D01*
X144243235Y-86121926D01*
X144188320Y-86165197D01*
X144168928Y-86172936D01*
X144108364Y-86210006D01*
X144082552Y-86252654D01*
X144060471Y-86311154D01*
X144144184Y-86311154D01*
X144201150Y-86305982D01*
X144249189Y-86285723D01*
X144304346Y-86243262D01*
X144311514Y-86236951D01*
X144360585Y-86189720D01*
X144386920Y-86149121D01*
X144399035Y-86098328D01*
X144403003Y-86056220D01*
X144403991Y-85980902D01*
X144391466Y-85927286D01*
X144372869Y-85893838D01*
X144331975Y-85841268D01*
X144287748Y-85804879D01*
X144232126Y-85781850D01*
X144157047Y-85769359D01*
X144054449Y-85764587D01*
X144002376Y-85764206D01*
X143939948Y-85765501D01*
X143939948Y-85883471D01*
X143973438Y-85884839D01*
X143978923Y-85888249D01*
X143971472Y-85910753D01*
X143951753Y-85959182D01*
X143923718Y-86023908D01*
X143917692Y-86037443D01*
X143876096Y-86119244D01*
X143839538Y-86164312D01*
X143805296Y-86174217D01*
X143770648Y-86150526D01*
X143755339Y-86130960D01*
X143724721Y-86060360D01*
X143729780Y-85994280D01*
X143767151Y-85938959D01*
X143833473Y-85900636D01*
X143886116Y-85888349D01*
X143939948Y-85883471D01*
X143939948Y-85765501D01*
X143880720Y-85766730D01*
X143790710Y-85776032D01*
X143725167Y-85794460D01*
X143676912Y-85824360D01*
X143638767Y-85868080D01*
X143626440Y-85887141D01*
X143594336Y-85973726D01*
X143592316Y-86068522D01*
X143617838Y-86160224D01*
G36*
X137257776Y-82054878D02*
G01*
X137258355Y-82160612D01*
X137259922Y-82237132D01*
X137262972Y-82289372D01*
X137267996Y-82322263D01*
X137275489Y-82340737D01*
X137285944Y-82349727D01*
X137299853Y-82354163D01*
X137301654Y-82354594D01*
X137334145Y-82361333D01*
X137398252Y-82373808D01*
X137487151Y-82390719D01*
X137594019Y-82410771D01*
X137712033Y-82432664D01*
X137716178Y-82433429D01*
X137831831Y-82455359D01*
X137934014Y-82475877D01*
X138016598Y-82493659D01*
X138073456Y-82507381D01*
X138098458Y-82515718D01*
X138098901Y-82516116D01*
X138111110Y-82540677D01*
X138131456Y-82591315D01*
X138155545Y-82657095D01*
X138155674Y-82657461D01*
X138186818Y-82740317D01*
X138226491Y-82838000D01*
X138266381Y-82930077D01*
X138268353Y-82934434D01*
X138336420Y-83084407D01*
X138109639Y-83416498D01*
X138040504Y-83518374D01*
X137978697Y-83610657D01*
X137927733Y-83688003D01*
X137891127Y-83745064D01*
X137872394Y-83776495D01*
X137871004Y-83779479D01*
X137877190Y-83802321D01*
X137907035Y-83844982D01*
X137961947Y-83909128D01*
X138043334Y-83996421D01*
X138129922Y-84085535D01*
X138215247Y-84171441D01*
X138293108Y-84248327D01*
X138358697Y-84311564D01*
X138407205Y-84356523D01*
X138433825Y-84378576D01*
X138435195Y-84379396D01*
X138453463Y-84381834D01*
X138483295Y-84372650D01*
X138528721Y-84349574D01*
X138593770Y-84310337D01*
X138682470Y-84252670D01*
X138796657Y-84175795D01*
X138897162Y-84107570D01*
X138987303Y-84046582D01*
X139061849Y-83996356D01*
X139115565Y-83960416D01*
X139143218Y-83942287D01*
X139145095Y-83941146D01*
X139171590Y-83943359D01*
X139223086Y-83960138D01*
X139289851Y-83988142D01*
X139311172Y-83998122D01*
X139406159Y-84041672D01*
X139513937Y-84088134D01*
X139607192Y-84125877D01*
X139676406Y-84153073D01*
X139729006Y-84174675D01*
X139756497Y-84187158D01*
X139758616Y-84188709D01*
X139762124Y-84211668D01*
X139771738Y-84265786D01*
X139786089Y-84343868D01*
X139803807Y-84438719D01*
X139823525Y-84543143D01*
X139843874Y-84649944D01*
X139863486Y-84751926D01*
X139880991Y-84841894D01*
X139895022Y-84912653D01*
X139904209Y-84957006D01*
X139906807Y-84967885D01*
X139913218Y-84979122D01*
X139927697Y-84987605D01*
X139955133Y-84993714D01*
X140000411Y-84997832D01*
X140068420Y-85000341D01*
X140164047Y-85001621D01*
X140292180Y-85002054D01*
X140344701Y-85002077D01*
X140771845Y-85002077D01*
X140792091Y-84899500D01*
X140803070Y-84842431D01*
X140819095Y-84757269D01*
X140838233Y-84654372D01*
X140858551Y-84544096D01*
X140864132Y-84513615D01*
X140883917Y-84411855D01*
X140903373Y-84323205D01*
X140920697Y-84255108D01*
X140934088Y-84215004D01*
X140938079Y-84208323D01*
X140966342Y-84191919D01*
X141021109Y-84168399D01*
X141091588Y-84142316D01*
X141106769Y-84137142D01*
X141200896Y-84102956D01*
X141307101Y-84060523D01*
X141402473Y-84018997D01*
X141402916Y-84018792D01*
X141552525Y-83949640D01*
X142221617Y-84404512D01*
X142514116Y-84112500D01*
X142601170Y-84024180D01*
X142677909Y-83943625D01*
X142740237Y-83875360D01*
X142784056Y-83823908D01*
X142805270Y-83793794D01*
X142806616Y-83789474D01*
X142796016Y-83764111D01*
X142766547Y-83712358D01*
X142721705Y-83639868D01*
X142664984Y-83552294D01*
X142601462Y-83457612D01*
X142536668Y-83361516D01*
X142480287Y-83275837D01*
X142435788Y-83206016D01*
X142406639Y-83157494D01*
X142396308Y-83135782D01*
X142405050Y-83109293D01*
X142428087Y-83059062D01*
X142460631Y-82995451D01*
X142464249Y-82988708D01*
X142507210Y-82903046D01*
X142528279Y-82844306D01*
X142528503Y-82807772D01*
X142508928Y-82788731D01*
X142508654Y-82788620D01*
X142485472Y-82779102D01*
X142430441Y-82756403D01*
X142347822Y-82722282D01*
X142241872Y-82678500D01*
X142116852Y-82626816D01*
X141977020Y-82568992D01*
X141841637Y-82512991D01*
X141692234Y-82451447D01*
X141553832Y-82394939D01*
X141430673Y-82345161D01*
X141327002Y-82303806D01*
X141247059Y-82272568D01*
X141195088Y-82253141D01*
X141175692Y-82247154D01*
X141153443Y-82262168D01*
X141117982Y-82301439D01*
X141078887Y-82353807D01*
X140955245Y-82502941D01*
X140813522Y-82619511D01*
X140656704Y-82702118D01*
X140487775Y-82749366D01*
X140309722Y-82759857D01*
X140227539Y-82752231D01*
X140057031Y-82710682D01*
X139906459Y-82639123D01*
X139777309Y-82541995D01*
X139671064Y-82423734D01*
X139589210Y-82288780D01*
X139533232Y-82141571D01*
X139504615Y-81986544D01*
X139504844Y-81828139D01*
X139535405Y-81670794D01*
X139597782Y-81518946D01*
X139693460Y-81377035D01*
X139747572Y-81317803D01*
X139886520Y-81204203D01*
X140038361Y-81125106D01*
X140198667Y-81079986D01*
X140363012Y-81068316D01*
X140526971Y-81089569D01*
X140686118Y-81143220D01*
X140836025Y-81228740D01*
X140972267Y-81345605D01*
X141078887Y-81476193D01*
X141119642Y-81530588D01*
X141154718Y-81569014D01*
X141175726Y-81582846D01*
X141198635Y-81575603D01*
X141253365Y-81555005D01*
X141335672Y-81522746D01*
X141441315Y-81480521D01*
X141566050Y-81430023D01*
X141705636Y-81372948D01*
X141841670Y-81316854D01*
X141991201Y-81254967D01*
X142129767Y-81197644D01*
X142253107Y-81146644D01*
X142356964Y-81103727D01*
X142437080Y-81070653D01*
X142489195Y-81049181D01*
X142508654Y-81041225D01*
X142528423Y-81022429D01*
X142528365Y-80986074D01*
X142507441Y-80927479D01*
X142464613Y-80841968D01*
X142464249Y-80841292D01*
X142431012Y-80776907D01*
X142406802Y-80724861D01*
X142396404Y-80695512D01*
X142396308Y-80694217D01*
X142406855Y-80672124D01*
X142436184Y-80623348D01*
X142480827Y-80553331D01*
X142537314Y-80467514D01*
X142601462Y-80372388D01*
X142666411Y-80275540D01*
X142722896Y-80188253D01*
X142767421Y-80116181D01*
X142796490Y-80064977D01*
X142806616Y-80040526D01*
X142793307Y-80018010D01*
X142756112Y-79972742D01*
X142699128Y-79909244D01*
X142626449Y-79832039D01*
X142542171Y-79745651D01*
X142514016Y-79717399D01*
X142221416Y-79425287D01*
X141895104Y-79647631D01*
X141794897Y-79715202D01*
X141704963Y-79774507D01*
X141630510Y-79822217D01*
X141576751Y-79855007D01*
X141548894Y-79869548D01*
X141546912Y-79869974D01*
X141520655Y-79862308D01*
X141467837Y-79841689D01*
X141397310Y-79811685D01*
X141350093Y-79790625D01*
X141259694Y-79751248D01*
X141168366Y-79714165D01*
X141091200Y-79685415D01*
X141067692Y-79677605D01*
X141004916Y-79655417D01*
X140956411Y-79633727D01*
X140938079Y-79621813D01*
X140926859Y-79595523D01*
X140910954Y-79538142D01*
X140892167Y-79457118D01*
X140872299Y-79359895D01*
X140864132Y-79316385D01*
X140843829Y-79205896D01*
X140824170Y-79099916D01*
X140807088Y-79008801D01*
X140794518Y-78942908D01*
X140792091Y-78930500D01*
X140771845Y-78827923D01*
X140344701Y-78827923D01*
X140204246Y-78828153D01*
X140097979Y-78829099D01*
X140021013Y-78831141D01*
X139968460Y-78834662D01*
X139935433Y-78840043D01*
X139917045Y-78847666D01*
X139908408Y-78857912D01*
X139906807Y-78862115D01*
X139901127Y-78887470D01*
X139889795Y-78943484D01*
X139874179Y-79022964D01*
X139855647Y-79118712D01*
X139835569Y-79223533D01*
X139815312Y-79330232D01*
X139796246Y-79431613D01*
X139779739Y-79520479D01*
X139767159Y-79589637D01*
X139759875Y-79631889D01*
X139758616Y-79641290D01*
X139741763Y-79649807D01*
X139696870Y-79668660D01*
X139632430Y-79694324D01*
X139607192Y-79704123D01*
X139509686Y-79743648D01*
X139401959Y-79790192D01*
X139311172Y-79831877D01*
X139241753Y-79862550D01*
X139184710Y-79882956D01*
X139149777Y-79889768D01*
X139145095Y-79888682D01*
X139122991Y-79874285D01*
X139073831Y-79841412D01*
X139002848Y-79793590D01*
X138915278Y-79734348D01*
X138816357Y-79667215D01*
X138796830Y-79653941D01*
X138681140Y-79576046D01*
X138593044Y-79518787D01*
X138528486Y-79479881D01*
X138483411Y-79457044D01*
X138453763Y-79447994D01*
X138435485Y-79450448D01*
X138435369Y-79450511D01*
X138411361Y-79469827D01*
X138364947Y-79512551D01*
X138300937Y-79574051D01*
X138224145Y-79649698D01*
X138139382Y-79734861D01*
X138129922Y-79744465D01*
X138025989Y-79851790D01*
X137949675Y-79934615D01*
X137899571Y-79994605D01*
X137874270Y-80033423D01*
X137871004Y-80050520D01*
X137885250Y-80075473D01*
X137918156Y-80127255D01*
X137966208Y-80200520D01*
X138025890Y-80289920D01*
X138093688Y-80390111D01*
X138109639Y-80413501D01*
X138336420Y-80745593D01*
X138268353Y-80895565D01*
X138228685Y-80986770D01*
X138188791Y-81084669D01*
X138156983Y-81168831D01*
X138155674Y-81172538D01*
X138131576Y-81238369D01*
X138111200Y-81289116D01*
X138098936Y-81313842D01*
X138098901Y-81313884D01*
X138076734Y-81321729D01*
X138022217Y-81335066D01*
X137941480Y-81352570D01*
X137840650Y-81372917D01*
X137725856Y-81394782D01*
X137716178Y-81396571D01*
X137597904Y-81418504D01*
X137490542Y-81438640D01*
X137400917Y-81455680D01*
X137335851Y-81468328D01*
X137302168Y-81475284D01*
X137301654Y-81475406D01*
X137287325Y-81479639D01*
X137276507Y-81487871D01*
X137268706Y-81505033D01*
X137263429Y-81536058D01*
X137260182Y-81585878D01*
X137258472Y-81659424D01*
X137257807Y-81761629D01*
X137257693Y-81897425D01*
X137257692Y-81915000D01*
X137257776Y-82054878D01*
G37*
X137257776Y-82054878D02*
X137258355Y-82160612D01*
X137259922Y-82237132D01*
X137262972Y-82289372D01*
X137267996Y-82322263D01*
X137275489Y-82340737D01*
X137285944Y-82349727D01*
X137299853Y-82354163D01*
X137301654Y-82354594D01*
X137334145Y-82361333D01*
X137398252Y-82373808D01*
X137487151Y-82390719D01*
X137594019Y-82410771D01*
X137712033Y-82432664D01*
X137716178Y-82433429D01*
X137831831Y-82455359D01*
X137934014Y-82475877D01*
X138016598Y-82493659D01*
X138073456Y-82507381D01*
X138098458Y-82515718D01*
X138098901Y-82516116D01*
X138111110Y-82540677D01*
X138131456Y-82591315D01*
X138155545Y-82657095D01*
X138155674Y-82657461D01*
X138186818Y-82740317D01*
X138226491Y-82838000D01*
X138266381Y-82930077D01*
X138268353Y-82934434D01*
X138336420Y-83084407D01*
X138109639Y-83416498D01*
X138040504Y-83518374D01*
X137978697Y-83610657D01*
X137927733Y-83688003D01*
X137891127Y-83745064D01*
X137872394Y-83776495D01*
X137871004Y-83779479D01*
X137877190Y-83802321D01*
X137907035Y-83844982D01*
X137961947Y-83909128D01*
X138043334Y-83996421D01*
X138129922Y-84085535D01*
X138215247Y-84171441D01*
X138293108Y-84248327D01*
X138358697Y-84311564D01*
X138407205Y-84356523D01*
X138433825Y-84378576D01*
X138435195Y-84379396D01*
X138453463Y-84381834D01*
X138483295Y-84372650D01*
X138528721Y-84349574D01*
X138593770Y-84310337D01*
X138682470Y-84252670D01*
X138796657Y-84175795D01*
X138897162Y-84107570D01*
X138987303Y-84046582D01*
X139061849Y-83996356D01*
X139115565Y-83960416D01*
X139143218Y-83942287D01*
X139145095Y-83941146D01*
X139171590Y-83943359D01*
X139223086Y-83960138D01*
X139289851Y-83988142D01*
X139311172Y-83998122D01*
X139406159Y-84041672D01*
X139513937Y-84088134D01*
X139607192Y-84125877D01*
X139676406Y-84153073D01*
X139729006Y-84174675D01*
X139756497Y-84187158D01*
X139758616Y-84188709D01*
X139762124Y-84211668D01*
X139771738Y-84265786D01*
X139786089Y-84343868D01*
X139803807Y-84438719D01*
X139823525Y-84543143D01*
X139843874Y-84649944D01*
X139863486Y-84751926D01*
X139880991Y-84841894D01*
X139895022Y-84912653D01*
X139904209Y-84957006D01*
X139906807Y-84967885D01*
X139913218Y-84979122D01*
X139927697Y-84987605D01*
X139955133Y-84993714D01*
X140000411Y-84997832D01*
X140068420Y-85000341D01*
X140164047Y-85001621D01*
X140292180Y-85002054D01*
X140344701Y-85002077D01*
X140771845Y-85002077D01*
X140792091Y-84899500D01*
X140803070Y-84842431D01*
X140819095Y-84757269D01*
X140838233Y-84654372D01*
X140858551Y-84544096D01*
X140864132Y-84513615D01*
X140883917Y-84411855D01*
X140903373Y-84323205D01*
X140920697Y-84255108D01*
X140934088Y-84215004D01*
X140938079Y-84208323D01*
X140966342Y-84191919D01*
X141021109Y-84168399D01*
X141091588Y-84142316D01*
X141106769Y-84137142D01*
X141200896Y-84102956D01*
X141307101Y-84060523D01*
X141402473Y-84018997D01*
X141402916Y-84018792D01*
X141552525Y-83949640D01*
X142221617Y-84404512D01*
X142514116Y-84112500D01*
X142601170Y-84024180D01*
X142677909Y-83943625D01*
X142740237Y-83875360D01*
X142784056Y-83823908D01*
X142805270Y-83793794D01*
X142806616Y-83789474D01*
X142796016Y-83764111D01*
X142766547Y-83712358D01*
X142721705Y-83639868D01*
X142664984Y-83552294D01*
X142601462Y-83457612D01*
X142536668Y-83361516D01*
X142480287Y-83275837D01*
X142435788Y-83206016D01*
X142406639Y-83157494D01*
X142396308Y-83135782D01*
X142405050Y-83109293D01*
X142428087Y-83059062D01*
X142460631Y-82995451D01*
X142464249Y-82988708D01*
X142507210Y-82903046D01*
X142528279Y-82844306D01*
X142528503Y-82807772D01*
X142508928Y-82788731D01*
X142508654Y-82788620D01*
X142485472Y-82779102D01*
X142430441Y-82756403D01*
X142347822Y-82722282D01*
X142241872Y-82678500D01*
X142116852Y-82626816D01*
X141977020Y-82568992D01*
X141841637Y-82512991D01*
X141692234Y-82451447D01*
X141553832Y-82394939D01*
X141430673Y-82345161D01*
X141327002Y-82303806D01*
X141247059Y-82272568D01*
X141195088Y-82253141D01*
X141175692Y-82247154D01*
X141153443Y-82262168D01*
X141117982Y-82301439D01*
X141078887Y-82353807D01*
X140955245Y-82502941D01*
X140813522Y-82619511D01*
X140656704Y-82702118D01*
X140487775Y-82749366D01*
X140309722Y-82759857D01*
X140227539Y-82752231D01*
X140057031Y-82710682D01*
X139906459Y-82639123D01*
X139777309Y-82541995D01*
X139671064Y-82423734D01*
X139589210Y-82288780D01*
X139533232Y-82141571D01*
X139504615Y-81986544D01*
X139504844Y-81828139D01*
X139535405Y-81670794D01*
X139597782Y-81518946D01*
X139693460Y-81377035D01*
X139747572Y-81317803D01*
X139886520Y-81204203D01*
X140038361Y-81125106D01*
X140198667Y-81079986D01*
X140363012Y-81068316D01*
X140526971Y-81089569D01*
X140686118Y-81143220D01*
X140836025Y-81228740D01*
X140972267Y-81345605D01*
X141078887Y-81476193D01*
X141119642Y-81530588D01*
X141154718Y-81569014D01*
X141175726Y-81582846D01*
X141198635Y-81575603D01*
X141253365Y-81555005D01*
X141335672Y-81522746D01*
X141441315Y-81480521D01*
X141566050Y-81430023D01*
X141705636Y-81372948D01*
X141841670Y-81316854D01*
X141991201Y-81254967D01*
X142129767Y-81197644D01*
X142253107Y-81146644D01*
X142356964Y-81103727D01*
X142437080Y-81070653D01*
X142489195Y-81049181D01*
X142508654Y-81041225D01*
X142528423Y-81022429D01*
X142528365Y-80986074D01*
X142507441Y-80927479D01*
X142464613Y-80841968D01*
X142464249Y-80841292D01*
X142431012Y-80776907D01*
X142406802Y-80724861D01*
X142396404Y-80695512D01*
X142396308Y-80694217D01*
X142406855Y-80672124D01*
X142436184Y-80623348D01*
X142480827Y-80553331D01*
X142537314Y-80467514D01*
X142601462Y-80372388D01*
X142666411Y-80275540D01*
X142722896Y-80188253D01*
X142767421Y-80116181D01*
X142796490Y-80064977D01*
X142806616Y-80040526D01*
X142793307Y-80018010D01*
X142756112Y-79972742D01*
X142699128Y-79909244D01*
X142626449Y-79832039D01*
X142542171Y-79745651D01*
X142514016Y-79717399D01*
X142221416Y-79425287D01*
X141895104Y-79647631D01*
X141794897Y-79715202D01*
X141704963Y-79774507D01*
X141630510Y-79822217D01*
X141576751Y-79855007D01*
X141548894Y-79869548D01*
X141546912Y-79869974D01*
X141520655Y-79862308D01*
X141467837Y-79841689D01*
X141397310Y-79811685D01*
X141350093Y-79790625D01*
X141259694Y-79751248D01*
X141168366Y-79714165D01*
X141091200Y-79685415D01*
X141067692Y-79677605D01*
X141004916Y-79655417D01*
X140956411Y-79633727D01*
X140938079Y-79621813D01*
X140926859Y-79595523D01*
X140910954Y-79538142D01*
X140892167Y-79457118D01*
X140872299Y-79359895D01*
X140864132Y-79316385D01*
X140843829Y-79205896D01*
X140824170Y-79099916D01*
X140807088Y-79008801D01*
X140794518Y-78942908D01*
X140792091Y-78930500D01*
X140771845Y-78827923D01*
X140344701Y-78827923D01*
X140204246Y-78828153D01*
X140097979Y-78829099D01*
X140021013Y-78831141D01*
X139968460Y-78834662D01*
X139935433Y-78840043D01*
X139917045Y-78847666D01*
X139908408Y-78857912D01*
X139906807Y-78862115D01*
X139901127Y-78887470D01*
X139889795Y-78943484D01*
X139874179Y-79022964D01*
X139855647Y-79118712D01*
X139835569Y-79223533D01*
X139815312Y-79330232D01*
X139796246Y-79431613D01*
X139779739Y-79520479D01*
X139767159Y-79589637D01*
X139759875Y-79631889D01*
X139758616Y-79641290D01*
X139741763Y-79649807D01*
X139696870Y-79668660D01*
X139632430Y-79694324D01*
X139607192Y-79704123D01*
X139509686Y-79743648D01*
X139401959Y-79790192D01*
X139311172Y-79831877D01*
X139241753Y-79862550D01*
X139184710Y-79882956D01*
X139149777Y-79889768D01*
X139145095Y-79888682D01*
X139122991Y-79874285D01*
X139073831Y-79841412D01*
X139002848Y-79793590D01*
X138915278Y-79734348D01*
X138816357Y-79667215D01*
X138796830Y-79653941D01*
X138681140Y-79576046D01*
X138593044Y-79518787D01*
X138528486Y-79479881D01*
X138483411Y-79457044D01*
X138453763Y-79447994D01*
X138435485Y-79450448D01*
X138435369Y-79450511D01*
X138411361Y-79469827D01*
X138364947Y-79512551D01*
X138300937Y-79574051D01*
X138224145Y-79649698D01*
X138139382Y-79734861D01*
X138129922Y-79744465D01*
X138025989Y-79851790D01*
X137949675Y-79934615D01*
X137899571Y-79994605D01*
X137874270Y-80033423D01*
X137871004Y-80050520D01*
X137885250Y-80075473D01*
X137918156Y-80127255D01*
X137966208Y-80200520D01*
X138025890Y-80289920D01*
X138093688Y-80390111D01*
X138109639Y-80413501D01*
X138336420Y-80745593D01*
X138268353Y-80895565D01*
X138228685Y-80986770D01*
X138188791Y-81084669D01*
X138156983Y-81168831D01*
X138155674Y-81172538D01*
X138131576Y-81238369D01*
X138111200Y-81289116D01*
X138098936Y-81313842D01*
X138098901Y-81313884D01*
X138076734Y-81321729D01*
X138022217Y-81335066D01*
X137941480Y-81352570D01*
X137840650Y-81372917D01*
X137725856Y-81394782D01*
X137716178Y-81396571D01*
X137597904Y-81418504D01*
X137490542Y-81438640D01*
X137400917Y-81455680D01*
X137335851Y-81468328D01*
X137302168Y-81475284D01*
X137301654Y-81475406D01*
X137287325Y-81479639D01*
X137276507Y-81487871D01*
X137268706Y-81505033D01*
X137263429Y-81536058D01*
X137260182Y-81585878D01*
X137258472Y-81659424D01*
X137257807Y-81761629D01*
X137257693Y-81897425D01*
X137257692Y-81915000D01*
X137257776Y-82054878D01*
D12*
%TO.C,R19*%
X136647600Y-107984936D02*
X136647600Y-109439064D01*
X134827600Y-107984936D02*
X134827600Y-109439064D01*
%TO.C,R18*%
X137113600Y-109439064D02*
X137113600Y-107984936D01*
X138933600Y-109439064D02*
X138933600Y-107984936D01*
%TO.C,R16*%
X132876936Y-84730000D02*
X134331064Y-84730000D01*
X132876936Y-82910000D02*
X134331064Y-82910000D01*
%TO.C,R15*%
X134331064Y-85196000D02*
X132876936Y-85196000D01*
X134331064Y-87016000D02*
X132876936Y-87016000D01*
%TO.C,R14*%
X138141064Y-93578000D02*
X136686936Y-93578000D01*
X138141064Y-95398000D02*
X136686936Y-95398000D01*
%TO.C,R13*%
X127727064Y-82910000D02*
X126272936Y-82910000D01*
X127727064Y-84730000D02*
X126272936Y-84730000D01*
%TO.C,R11*%
X148370936Y-103018000D02*
X149825064Y-103018000D01*
X148370936Y-101198000D02*
X149825064Y-101198000D01*
%TO.C,R10*%
X143290936Y-103018000D02*
X144745064Y-103018000D01*
X143290936Y-101198000D02*
X144745064Y-101198000D01*
%TO.C,R9*%
X130927464Y-74020000D02*
X129473336Y-74020000D01*
X130927464Y-75840000D02*
X129473336Y-75840000D01*
%TO.C,R8*%
X126272936Y-81428000D02*
X127727064Y-81428000D01*
X126272936Y-79608000D02*
X127727064Y-79608000D01*
%TO.C,R7*%
X129473336Y-78837200D02*
X130927464Y-78837200D01*
X129473336Y-77017200D02*
X130927464Y-77017200D01*
%TO.C,R6*%
X126272936Y-111400000D02*
X127727064Y-111400000D01*
X126272936Y-109580000D02*
X127727064Y-109580000D01*
%TO.C,R5*%
X137012000Y-112937936D02*
X137012000Y-114392064D01*
X138832000Y-112937936D02*
X138832000Y-114392064D01*
%TO.C,R3*%
X129828936Y-108860000D02*
X131283064Y-108860000D01*
X129828936Y-107040000D02*
X131283064Y-107040000D01*
%TO.C,Q5*%
X131312800Y-80164400D02*
X132242800Y-80164400D01*
X134472800Y-80164400D02*
X133542800Y-80164400D01*
X134472800Y-80164400D02*
X134472800Y-82324400D01*
X131312800Y-80164400D02*
X131312800Y-81624400D01*
%TO.C,Q3*%
X124150000Y-76710000D02*
X125080000Y-76710000D01*
X127310000Y-76710000D02*
X126380000Y-76710000D01*
X127310000Y-76710000D02*
X127310000Y-78870000D01*
X124150000Y-76710000D02*
X124150000Y-78170000D01*
%TO.C,Q1*%
X128976000Y-104294400D02*
X129906000Y-104294400D01*
X132136000Y-104294400D02*
X131206000Y-104294400D01*
X132136000Y-104294400D02*
X132136000Y-106454400D01*
X128976000Y-104294400D02*
X128976000Y-105754400D01*
%TO.C,D3*%
X133680000Y-111625000D02*
X129620000Y-111625000D01*
X129620000Y-111625000D02*
X129620000Y-109355000D01*
X129620000Y-109355000D02*
X133680000Y-109355000D01*
%TO.C,C7*%
X136702748Y-90318000D02*
X138125252Y-90318000D01*
X136702748Y-88498000D02*
X138125252Y-88498000D01*
%TO.C,C6*%
X136702748Y-92858000D02*
X138125252Y-92858000D01*
X136702748Y-91038000D02*
X138125252Y-91038000D01*
%TO.C,C4*%
X143306748Y-105304000D02*
X144729252Y-105304000D01*
X143306748Y-103484000D02*
X144729252Y-103484000D01*
%TO.C,R19*%
D10*
X136532857Y-105608380D02*
X136866190Y-105132190D01*
X137104285Y-105608380D02*
X137104285Y-104608380D01*
X136723333Y-104608380D01*
X136628095Y-104656000D01*
X136580476Y-104703619D01*
X136532857Y-104798857D01*
X136532857Y-104941714D01*
X136580476Y-105036952D01*
X136628095Y-105084571D01*
X136723333Y-105132190D01*
X137104285Y-105132190D01*
X135580476Y-105608380D02*
X136151904Y-105608380D01*
X135866190Y-105608380D02*
X135866190Y-104608380D01*
X135961428Y-104751238D01*
X136056666Y-104846476D01*
X136151904Y-104894095D01*
X135104285Y-105608380D02*
X134913809Y-105608380D01*
X134818571Y-105560761D01*
X134770952Y-105513142D01*
X134675714Y-105370285D01*
X134628095Y-105179809D01*
X134628095Y-104798857D01*
X134675714Y-104703619D01*
X134723333Y-104656000D01*
X134818571Y-104608380D01*
X135009047Y-104608380D01*
X135104285Y-104656000D01*
X135151904Y-104703619D01*
X135199523Y-104798857D01*
X135199523Y-105036952D01*
X135151904Y-105132190D01*
X135104285Y-105179809D01*
X135009047Y-105227428D01*
X134818571Y-105227428D01*
X134723333Y-105179809D01*
X134675714Y-105132190D01*
X134628095Y-105036952D01*
%TO.C,R18*%
X140295980Y-108069142D02*
X139819790Y-107735809D01*
X140295980Y-107497714D02*
X139295980Y-107497714D01*
X139295980Y-107878666D01*
X139343600Y-107973904D01*
X139391219Y-108021523D01*
X139486457Y-108069142D01*
X139629314Y-108069142D01*
X139724552Y-108021523D01*
X139772171Y-107973904D01*
X139819790Y-107878666D01*
X139819790Y-107497714D01*
X140295980Y-109021523D02*
X140295980Y-108450095D01*
X140295980Y-108735809D02*
X139295980Y-108735809D01*
X139438838Y-108640571D01*
X139534076Y-108545333D01*
X139581695Y-108450095D01*
X139724552Y-109592952D02*
X139676933Y-109497714D01*
X139629314Y-109450095D01*
X139534076Y-109402476D01*
X139486457Y-109402476D01*
X139391219Y-109450095D01*
X139343600Y-109497714D01*
X139295980Y-109592952D01*
X139295980Y-109783428D01*
X139343600Y-109878666D01*
X139391219Y-109926285D01*
X139486457Y-109973904D01*
X139534076Y-109973904D01*
X139629314Y-109926285D01*
X139676933Y-109878666D01*
X139724552Y-109783428D01*
X139724552Y-109592952D01*
X139772171Y-109497714D01*
X139819790Y-109450095D01*
X139915028Y-109402476D01*
X140105504Y-109402476D01*
X140200742Y-109450095D01*
X140248361Y-109497714D01*
X140295980Y-109592952D01*
X140295980Y-109783428D01*
X140248361Y-109878666D01*
X140200742Y-109926285D01*
X140105504Y-109973904D01*
X139915028Y-109973904D01*
X139819790Y-109926285D01*
X139772171Y-109878666D01*
X139724552Y-109783428D01*
%TO.C,R16*%
X131008380Y-83177142D02*
X130532190Y-82843809D01*
X131008380Y-82605714D02*
X130008380Y-82605714D01*
X130008380Y-82986666D01*
X130056000Y-83081904D01*
X130103619Y-83129523D01*
X130198857Y-83177142D01*
X130341714Y-83177142D01*
X130436952Y-83129523D01*
X130484571Y-83081904D01*
X130532190Y-82986666D01*
X130532190Y-82605714D01*
X131008380Y-84129523D02*
X131008380Y-83558095D01*
X131008380Y-83843809D02*
X130008380Y-83843809D01*
X130151238Y-83748571D01*
X130246476Y-83653333D01*
X130294095Y-83558095D01*
X130008380Y-84986666D02*
X130008380Y-84796190D01*
X130056000Y-84700952D01*
X130103619Y-84653333D01*
X130246476Y-84558095D01*
X130436952Y-84510476D01*
X130817904Y-84510476D01*
X130913142Y-84558095D01*
X130960761Y-84605714D01*
X131008380Y-84700952D01*
X131008380Y-84891428D01*
X130960761Y-84986666D01*
X130913142Y-85034285D01*
X130817904Y-85081904D01*
X130579809Y-85081904D01*
X130484571Y-85034285D01*
X130436952Y-84986666D01*
X130389333Y-84891428D01*
X130389333Y-84700952D01*
X130436952Y-84605714D01*
X130484571Y-84558095D01*
X130579809Y-84510476D01*
%TO.C,R15*%
X133992857Y-88336380D02*
X134326190Y-87860190D01*
X134564285Y-88336380D02*
X134564285Y-87336380D01*
X134183333Y-87336380D01*
X134088095Y-87384000D01*
X134040476Y-87431619D01*
X133992857Y-87526857D01*
X133992857Y-87669714D01*
X134040476Y-87764952D01*
X134088095Y-87812571D01*
X134183333Y-87860190D01*
X134564285Y-87860190D01*
X133040476Y-88336380D02*
X133611904Y-88336380D01*
X133326190Y-88336380D02*
X133326190Y-87336380D01*
X133421428Y-87479238D01*
X133516666Y-87574476D01*
X133611904Y-87622095D01*
X132135714Y-87336380D02*
X132611904Y-87336380D01*
X132659523Y-87812571D01*
X132611904Y-87764952D01*
X132516666Y-87717333D01*
X132278571Y-87717333D01*
X132183333Y-87764952D01*
X132135714Y-87812571D01*
X132088095Y-87907809D01*
X132088095Y-88145904D01*
X132135714Y-88241142D01*
X132183333Y-88288761D01*
X132278571Y-88336380D01*
X132516666Y-88336380D01*
X132611904Y-88288761D01*
X132659523Y-88241142D01*
%TO.C,R14*%
X134818380Y-93845142D02*
X134342190Y-93511809D01*
X134818380Y-93273714D02*
X133818380Y-93273714D01*
X133818380Y-93654666D01*
X133866000Y-93749904D01*
X133913619Y-93797523D01*
X134008857Y-93845142D01*
X134151714Y-93845142D01*
X134246952Y-93797523D01*
X134294571Y-93749904D01*
X134342190Y-93654666D01*
X134342190Y-93273714D01*
X134818380Y-94797523D02*
X134818380Y-94226095D01*
X134818380Y-94511809D02*
X133818380Y-94511809D01*
X133961238Y-94416571D01*
X134056476Y-94321333D01*
X134104095Y-94226095D01*
X134151714Y-95654666D02*
X134818380Y-95654666D01*
X133770761Y-95416571D02*
X134485047Y-95178476D01*
X134485047Y-95797523D01*
%TO.C,R13*%
X127642857Y-86304380D02*
X127976190Y-85828190D01*
X128214285Y-86304380D02*
X128214285Y-85304380D01*
X127833333Y-85304380D01*
X127738095Y-85352000D01*
X127690476Y-85399619D01*
X127642857Y-85494857D01*
X127642857Y-85637714D01*
X127690476Y-85732952D01*
X127738095Y-85780571D01*
X127833333Y-85828190D01*
X128214285Y-85828190D01*
X126690476Y-86304380D02*
X127261904Y-86304380D01*
X126976190Y-86304380D02*
X126976190Y-85304380D01*
X127071428Y-85447238D01*
X127166666Y-85542476D01*
X127261904Y-85590095D01*
X126357142Y-85304380D02*
X125738095Y-85304380D01*
X126071428Y-85685333D01*
X125928571Y-85685333D01*
X125833333Y-85732952D01*
X125785714Y-85780571D01*
X125738095Y-85875809D01*
X125738095Y-86113904D01*
X125785714Y-86209142D01*
X125833333Y-86256761D01*
X125928571Y-86304380D01*
X126214285Y-86304380D01*
X126309523Y-86256761D01*
X126357142Y-86209142D01*
%TO.C,R11*%
X149740857Y-104380380D02*
X150074190Y-103904190D01*
X150312285Y-104380380D02*
X150312285Y-103380380D01*
X149931333Y-103380380D01*
X149836095Y-103428000D01*
X149788476Y-103475619D01*
X149740857Y-103570857D01*
X149740857Y-103713714D01*
X149788476Y-103808952D01*
X149836095Y-103856571D01*
X149931333Y-103904190D01*
X150312285Y-103904190D01*
X148788476Y-104380380D02*
X149359904Y-104380380D01*
X149074190Y-104380380D02*
X149074190Y-103380380D01*
X149169428Y-103523238D01*
X149264666Y-103618476D01*
X149359904Y-103666095D01*
X147836095Y-104380380D02*
X148407523Y-104380380D01*
X148121809Y-104380380D02*
X148121809Y-103380380D01*
X148217047Y-103523238D01*
X148312285Y-103618476D01*
X148407523Y-103666095D01*
%TO.C,R10*%
X144660857Y-100782380D02*
X144994190Y-100306190D01*
X145232285Y-100782380D02*
X145232285Y-99782380D01*
X144851333Y-99782380D01*
X144756095Y-99830000D01*
X144708476Y-99877619D01*
X144660857Y-99972857D01*
X144660857Y-100115714D01*
X144708476Y-100210952D01*
X144756095Y-100258571D01*
X144851333Y-100306190D01*
X145232285Y-100306190D01*
X143708476Y-100782380D02*
X144279904Y-100782380D01*
X143994190Y-100782380D02*
X143994190Y-99782380D01*
X144089428Y-99925238D01*
X144184666Y-100020476D01*
X144279904Y-100068095D01*
X143089428Y-99782380D02*
X142994190Y-99782380D01*
X142898952Y-99830000D01*
X142851333Y-99877619D01*
X142803714Y-99972857D01*
X142756095Y-100163333D01*
X142756095Y-100401428D01*
X142803714Y-100591904D01*
X142851333Y-100687142D01*
X142898952Y-100734761D01*
X142994190Y-100782380D01*
X143089428Y-100782380D01*
X143184666Y-100734761D01*
X143232285Y-100687142D01*
X143279904Y-100591904D01*
X143327523Y-100401428D01*
X143327523Y-100163333D01*
X143279904Y-99972857D01*
X143232285Y-99877619D01*
X143184666Y-99830000D01*
X143089428Y-99782380D01*
%TO.C,R9*%
X130367066Y-73562380D02*
X130700400Y-73086190D01*
X130938495Y-73562380D02*
X130938495Y-72562380D01*
X130557542Y-72562380D01*
X130462304Y-72610000D01*
X130414685Y-72657619D01*
X130367066Y-72752857D01*
X130367066Y-72895714D01*
X130414685Y-72990952D01*
X130462304Y-73038571D01*
X130557542Y-73086190D01*
X130938495Y-73086190D01*
X129890876Y-73562380D02*
X129700400Y-73562380D01*
X129605161Y-73514761D01*
X129557542Y-73467142D01*
X129462304Y-73324285D01*
X129414685Y-73133809D01*
X129414685Y-72752857D01*
X129462304Y-72657619D01*
X129509923Y-72610000D01*
X129605161Y-72562380D01*
X129795638Y-72562380D01*
X129890876Y-72610000D01*
X129938495Y-72657619D01*
X129986114Y-72752857D01*
X129986114Y-72990952D01*
X129938495Y-73086190D01*
X129890876Y-73133809D01*
X129795638Y-73181428D01*
X129605161Y-73181428D01*
X129509923Y-73133809D01*
X129462304Y-73086190D01*
X129414685Y-72990952D01*
%TO.C,R8*%
X127166666Y-82748380D02*
X127500000Y-82272190D01*
X127738095Y-82748380D02*
X127738095Y-81748380D01*
X127357142Y-81748380D01*
X127261904Y-81796000D01*
X127214285Y-81843619D01*
X127166666Y-81938857D01*
X127166666Y-82081714D01*
X127214285Y-82176952D01*
X127261904Y-82224571D01*
X127357142Y-82272190D01*
X127738095Y-82272190D01*
X126595238Y-82176952D02*
X126690476Y-82129333D01*
X126738095Y-82081714D01*
X126785714Y-81986476D01*
X126785714Y-81938857D01*
X126738095Y-81843619D01*
X126690476Y-81796000D01*
X126595238Y-81748380D01*
X126404761Y-81748380D01*
X126309523Y-81796000D01*
X126261904Y-81843619D01*
X126214285Y-81938857D01*
X126214285Y-81986476D01*
X126261904Y-82081714D01*
X126309523Y-82129333D01*
X126404761Y-82176952D01*
X126595238Y-82176952D01*
X126690476Y-82224571D01*
X126738095Y-82272190D01*
X126785714Y-82367428D01*
X126785714Y-82557904D01*
X126738095Y-82653142D01*
X126690476Y-82700761D01*
X126595238Y-82748380D01*
X126404761Y-82748380D01*
X126309523Y-82700761D01*
X126261904Y-82653142D01*
X126214285Y-82557904D01*
X126214285Y-82367428D01*
X126261904Y-82272190D01*
X126309523Y-82224571D01*
X126404761Y-82176952D01*
%TO.C,R7*%
X130367066Y-80199580D02*
X130700400Y-79723390D01*
X130938495Y-80199580D02*
X130938495Y-79199580D01*
X130557542Y-79199580D01*
X130462304Y-79247200D01*
X130414685Y-79294819D01*
X130367066Y-79390057D01*
X130367066Y-79532914D01*
X130414685Y-79628152D01*
X130462304Y-79675771D01*
X130557542Y-79723390D01*
X130938495Y-79723390D01*
X130033733Y-79199580D02*
X129367066Y-79199580D01*
X129795638Y-80199580D01*
%TO.C,R6*%
X127166666Y-112762380D02*
X127500000Y-112286190D01*
X127738095Y-112762380D02*
X127738095Y-111762380D01*
X127357142Y-111762380D01*
X127261904Y-111810000D01*
X127214285Y-111857619D01*
X127166666Y-111952857D01*
X127166666Y-112095714D01*
X127214285Y-112190952D01*
X127261904Y-112238571D01*
X127357142Y-112286190D01*
X127738095Y-112286190D01*
X126309523Y-111762380D02*
X126500000Y-111762380D01*
X126595238Y-111810000D01*
X126642857Y-111857619D01*
X126738095Y-112000476D01*
X126785714Y-112190952D01*
X126785714Y-112571904D01*
X126738095Y-112667142D01*
X126690476Y-112714761D01*
X126595238Y-112762380D01*
X126404761Y-112762380D01*
X126309523Y-112714761D01*
X126261904Y-112667142D01*
X126214285Y-112571904D01*
X126214285Y-112333809D01*
X126261904Y-112238571D01*
X126309523Y-112190952D01*
X126404761Y-112143333D01*
X126595238Y-112143333D01*
X126690476Y-112190952D01*
X126738095Y-112238571D01*
X126785714Y-112333809D01*
%TO.C,R5*%
X136554380Y-113498333D02*
X136078190Y-113165000D01*
X136554380Y-112926904D02*
X135554380Y-112926904D01*
X135554380Y-113307857D01*
X135602000Y-113403095D01*
X135649619Y-113450714D01*
X135744857Y-113498333D01*
X135887714Y-113498333D01*
X135982952Y-113450714D01*
X136030571Y-113403095D01*
X136078190Y-113307857D01*
X136078190Y-112926904D01*
X135554380Y-114403095D02*
X135554380Y-113926904D01*
X136030571Y-113879285D01*
X135982952Y-113926904D01*
X135935333Y-114022142D01*
X135935333Y-114260238D01*
X135982952Y-114355476D01*
X136030571Y-114403095D01*
X136125809Y-114450714D01*
X136363904Y-114450714D01*
X136459142Y-114403095D01*
X136506761Y-114355476D01*
X136554380Y-114260238D01*
X136554380Y-114022142D01*
X136506761Y-113926904D01*
X136459142Y-113879285D01*
%TO.C,R3*%
X127452380Y-107783333D02*
X126976190Y-107450000D01*
X127452380Y-107211904D02*
X126452380Y-107211904D01*
X126452380Y-107592857D01*
X126500000Y-107688095D01*
X126547619Y-107735714D01*
X126642857Y-107783333D01*
X126785714Y-107783333D01*
X126880952Y-107735714D01*
X126928571Y-107688095D01*
X126976190Y-107592857D01*
X126976190Y-107211904D01*
X126452380Y-108116666D02*
X126452380Y-108735714D01*
X126833333Y-108402380D01*
X126833333Y-108545238D01*
X126880952Y-108640476D01*
X126928571Y-108688095D01*
X127023809Y-108735714D01*
X127261904Y-108735714D01*
X127357142Y-108688095D01*
X127404761Y-108640476D01*
X127452380Y-108545238D01*
X127452380Y-108259523D01*
X127404761Y-108164285D01*
X127357142Y-108116666D01*
%TO.C,Q5*%
X135940419Y-80829161D02*
X135892800Y-80733923D01*
X135797561Y-80638685D01*
X135654704Y-80495828D01*
X135607085Y-80400590D01*
X135607085Y-80305352D01*
X135845180Y-80352971D02*
X135797561Y-80257733D01*
X135702323Y-80162495D01*
X135511847Y-80114876D01*
X135178514Y-80114876D01*
X134988038Y-80162495D01*
X134892800Y-80257733D01*
X134845180Y-80352971D01*
X134845180Y-80543447D01*
X134892800Y-80638685D01*
X134988038Y-80733923D01*
X135178514Y-80781542D01*
X135511847Y-80781542D01*
X135702323Y-80733923D01*
X135797561Y-80638685D01*
X135845180Y-80543447D01*
X135845180Y-80352971D01*
X134845180Y-81686304D02*
X134845180Y-81210114D01*
X135321371Y-81162495D01*
X135273752Y-81210114D01*
X135226133Y-81305352D01*
X135226133Y-81543447D01*
X135273752Y-81638685D01*
X135321371Y-81686304D01*
X135416609Y-81733923D01*
X135654704Y-81733923D01*
X135749942Y-81686304D01*
X135797561Y-81638685D01*
X135845180Y-81543447D01*
X135845180Y-81305352D01*
X135797561Y-81210114D01*
X135749942Y-81162495D01*
%TO.C,Q3*%
X125825238Y-74842619D02*
X125920476Y-74795000D01*
X126015714Y-74699761D01*
X126158571Y-74556904D01*
X126253809Y-74509285D01*
X126349047Y-74509285D01*
X126301428Y-74747380D02*
X126396666Y-74699761D01*
X126491904Y-74604523D01*
X126539523Y-74414047D01*
X126539523Y-74080714D01*
X126491904Y-73890238D01*
X126396666Y-73795000D01*
X126301428Y-73747380D01*
X126110952Y-73747380D01*
X126015714Y-73795000D01*
X125920476Y-73890238D01*
X125872857Y-74080714D01*
X125872857Y-74414047D01*
X125920476Y-74604523D01*
X126015714Y-74699761D01*
X126110952Y-74747380D01*
X126301428Y-74747380D01*
X125539523Y-73747380D02*
X124920476Y-73747380D01*
X125253809Y-74128333D01*
X125110952Y-74128333D01*
X125015714Y-74175952D01*
X124968095Y-74223571D01*
X124920476Y-74318809D01*
X124920476Y-74556904D01*
X124968095Y-74652142D01*
X125015714Y-74699761D01*
X125110952Y-74747380D01*
X125396666Y-74747380D01*
X125491904Y-74699761D01*
X125539523Y-74652142D01*
%TO.C,Q1*%
X133603619Y-104959161D02*
X133556000Y-104863923D01*
X133460761Y-104768685D01*
X133317904Y-104625828D01*
X133270285Y-104530590D01*
X133270285Y-104435352D01*
X133508380Y-104482971D02*
X133460761Y-104387733D01*
X133365523Y-104292495D01*
X133175047Y-104244876D01*
X132841714Y-104244876D01*
X132651238Y-104292495D01*
X132556000Y-104387733D01*
X132508380Y-104482971D01*
X132508380Y-104673447D01*
X132556000Y-104768685D01*
X132651238Y-104863923D01*
X132841714Y-104911542D01*
X133175047Y-104911542D01*
X133365523Y-104863923D01*
X133460761Y-104768685D01*
X133508380Y-104673447D01*
X133508380Y-104482971D01*
X133508380Y-105863923D02*
X133508380Y-105292495D01*
X133508380Y-105578209D02*
X132508380Y-105578209D01*
X132651238Y-105482971D01*
X132746476Y-105387733D01*
X132794095Y-105292495D01*
%TO.C,D3*%
X132818095Y-112762380D02*
X132818095Y-111762380D01*
X132580000Y-111762380D01*
X132437142Y-111810000D01*
X132341904Y-111905238D01*
X132294285Y-112000476D01*
X132246666Y-112190952D01*
X132246666Y-112333809D01*
X132294285Y-112524285D01*
X132341904Y-112619523D01*
X132437142Y-112714761D01*
X132580000Y-112762380D01*
X132818095Y-112762380D01*
X131913333Y-111762380D02*
X131294285Y-111762380D01*
X131627619Y-112143333D01*
X131484761Y-112143333D01*
X131389523Y-112190952D01*
X131341904Y-112238571D01*
X131294285Y-112333809D01*
X131294285Y-112571904D01*
X131341904Y-112667142D01*
X131389523Y-112714761D01*
X131484761Y-112762380D01*
X131770476Y-112762380D01*
X131865714Y-112714761D01*
X131913333Y-112667142D01*
%TO.C,C7*%
X137580666Y-87987142D02*
X137628285Y-88034761D01*
X137771142Y-88082380D01*
X137866380Y-88082380D01*
X138009238Y-88034761D01*
X138104476Y-87939523D01*
X138152095Y-87844285D01*
X138199714Y-87653809D01*
X138199714Y-87510952D01*
X138152095Y-87320476D01*
X138104476Y-87225238D01*
X138009238Y-87130000D01*
X137866380Y-87082380D01*
X137771142Y-87082380D01*
X137628285Y-87130000D01*
X137580666Y-87177619D01*
X137247333Y-87082380D02*
X136580666Y-87082380D01*
X137009238Y-88082380D01*
%TO.C,C6*%
X134723142Y-91273333D02*
X134770761Y-91225714D01*
X134818380Y-91082857D01*
X134818380Y-90987619D01*
X134770761Y-90844761D01*
X134675523Y-90749523D01*
X134580285Y-90701904D01*
X134389809Y-90654285D01*
X134246952Y-90654285D01*
X134056476Y-90701904D01*
X133961238Y-90749523D01*
X133866000Y-90844761D01*
X133818380Y-90987619D01*
X133818380Y-91082857D01*
X133866000Y-91225714D01*
X133913619Y-91273333D01*
X133818380Y-92130476D02*
X133818380Y-91940000D01*
X133866000Y-91844761D01*
X133913619Y-91797142D01*
X134056476Y-91701904D01*
X134246952Y-91654285D01*
X134627904Y-91654285D01*
X134723142Y-91701904D01*
X134770761Y-91749523D01*
X134818380Y-91844761D01*
X134818380Y-92035238D01*
X134770761Y-92130476D01*
X134723142Y-92178095D01*
X134627904Y-92225714D01*
X134389809Y-92225714D01*
X134294571Y-92178095D01*
X134246952Y-92130476D01*
X134199333Y-92035238D01*
X134199333Y-91844761D01*
X134246952Y-91749523D01*
X134294571Y-91701904D01*
X134389809Y-91654285D01*
%TO.C,C4*%
X144184666Y-106529142D02*
X144232285Y-106576761D01*
X144375142Y-106624380D01*
X144470380Y-106624380D01*
X144613238Y-106576761D01*
X144708476Y-106481523D01*
X144756095Y-106386285D01*
X144803714Y-106195809D01*
X144803714Y-106052952D01*
X144756095Y-105862476D01*
X144708476Y-105767238D01*
X144613238Y-105672000D01*
X144470380Y-105624380D01*
X144375142Y-105624380D01*
X144232285Y-105672000D01*
X144184666Y-105719619D01*
X143327523Y-105957714D02*
X143327523Y-106624380D01*
X143565619Y-105576761D02*
X143803714Y-106291047D01*
X143184666Y-106291047D01*
%TD*%
M02*
