M48
; DRILL file {KiCad (5.1.10)-1} date 09/12/21 11:49:01
; FORMAT={-:-/ absolute / inch / decimal}
; #@! TF.CreationDate,2021-09-12T11:49:01+02:00
; #@! TF.GenerationSoftware,Kicad,Pcbnew,(5.1.10)-1
; #@! TF.FileFunction,Plated,1,2,PTH
FMAT,2
INCH
T1C0.0157
T2C0.0354
T3C0.0394
T4C0.1260
%
G90
G05
T1
X4.65Y-3.59
X4.84Y-3.38
X4.8415Y-3.96
X4.88Y-3.21
X4.91Y-3.65
X4.94Y-3.47
X4.963Y-3.7096
X4.986Y-3.528
X5.02Y-3.58
X5.02Y-3.7248
X5.03Y-4.1
X5.0315Y-3.81
X5.0315Y-3.87
X5.06Y-3.42
X5.06Y-4.35
X5.1069Y-3.3743
X5.12Y-3.67
X5.12Y-4.42
X5.1685Y-3.95
X5.19Y-4.122
X5.1932Y-4.3818
X5.201Y-4.25
X5.21Y-4.32
X5.2133Y-3.7681
X5.23Y-3.15
X5.23Y-3.46
X5.23Y-3.711
X5.26Y-2.956
X5.2695Y-3.62
X5.3Y-4.4094
X5.3043Y-3.4664
X5.325Y-3.05
X5.33Y-3.71
X5.34Y-3.87
X5.34Y-4.341
X5.35Y-3.52
X5.35Y-3.61
X5.35Y-3.7868
X5.39Y-3.89
X5.4215Y-3.775
X5.44Y-3.42
X5.6Y-3.4
X5.61Y-4.02
T2
X4.6Y-3.2
X4.6Y-3.3
X4.8Y-3.2
X4.8Y-3.3
T3
X4.6Y-3.45
X4.6Y-3.55
X4.6Y-3.75
X4.6Y-3.85
X4.6Y-4.05
X4.64Y-4.25
X4.7Y-3.45
X4.7Y-3.55
X4.7Y-3.75
X4.7Y-3.85
X4.7Y-4.05
X4.74Y-4.25
X4.8Y-3.45
X4.8Y-3.55
X4.8Y-3.75
X4.8Y-3.85
X4.8Y-4.05
X4.975Y-4.525
X5.075Y-4.525
X5.175Y-4.525
X5.275Y-4.525
T4
X4.7Y-2.9
X4.7Y-4.5
X5.75Y-2.9
X5.75Y-4.5
T0
M30
