%TF.GenerationSoftware,KiCad,Pcbnew,(5.1.10)-1*%
%TF.CreationDate,2021-10-15T07:39:30+02:00*%
%TF.ProjectId,BTS-LogicBoard,4254532d-4c6f-4676-9963-426f6172642e,rev?*%
%TF.SameCoordinates,Original*%
%TF.FileFunction,Legend,Bot*%
%TF.FilePolarity,Positive*%
%FSLAX46Y46*%
G04 Gerber Fmt 4.6, Leading zero omitted, Abs format (unit mm)*
G04 Created by KiCad (PCBNEW (5.1.10)-1) date 2021-10-15 07:39:30*
%MOMM*%
%LPD*%
G01*
G04 APERTURE LIST*
%ADD10C,0.150000*%
%ADD11C,0.010000*%
%ADD12C,0.120000*%
%ADD13C,0.100000*%
G04 APERTURE END LIST*
D10*
X142672080Y-76018380D02*
X142547080Y-75018380D01*
X142308985Y-75018380D01*
X142172080Y-75066000D01*
X142088747Y-75161238D01*
X142053032Y-75256476D01*
X142029223Y-75446952D01*
X142047080Y-75589809D01*
X142118508Y-75780285D01*
X142178032Y-75875523D01*
X142285175Y-75970761D01*
X142433985Y-76018380D01*
X142672080Y-76018380D01*
X141285175Y-75970761D02*
X141386366Y-76018380D01*
X141576842Y-76018380D01*
X141666127Y-75970761D01*
X141701842Y-75875523D01*
X141654223Y-75494571D01*
X141594699Y-75399333D01*
X141493508Y-75351714D01*
X141303032Y-75351714D01*
X141213747Y-75399333D01*
X141178032Y-75494571D01*
X141189937Y-75589809D01*
X141678032Y-75685047D01*
X140856604Y-75970761D02*
X140767318Y-76018380D01*
X140576842Y-76018380D01*
X140475651Y-75970761D01*
X140416127Y-75875523D01*
X140410175Y-75827904D01*
X140445889Y-75732666D01*
X140535175Y-75685047D01*
X140678032Y-75685047D01*
X140767318Y-75637428D01*
X140803032Y-75542190D01*
X140797080Y-75494571D01*
X140737556Y-75399333D01*
X140636366Y-75351714D01*
X140493508Y-75351714D01*
X140404223Y-75399333D01*
X140005413Y-76018380D02*
X139922080Y-75351714D01*
X139880413Y-75018380D02*
X139933985Y-75066000D01*
X139892318Y-75113619D01*
X139838747Y-75066000D01*
X139880413Y-75018380D01*
X139892318Y-75113619D01*
X139017318Y-75351714D02*
X139118508Y-76161238D01*
X139178032Y-76256476D01*
X139231604Y-76304095D01*
X139332794Y-76351714D01*
X139475651Y-76351714D01*
X139564937Y-76304095D01*
X139094699Y-75970761D02*
X139195889Y-76018380D01*
X139386366Y-76018380D01*
X139475651Y-75970761D01*
X139517318Y-75923142D01*
X139553032Y-75827904D01*
X139517318Y-75542190D01*
X139457794Y-75446952D01*
X139404223Y-75399333D01*
X139303032Y-75351714D01*
X139112556Y-75351714D01*
X139023270Y-75399333D01*
X138541127Y-75351714D02*
X138624461Y-76018380D01*
X138553032Y-75446952D02*
X138499461Y-75399333D01*
X138398270Y-75351714D01*
X138255413Y-75351714D01*
X138166127Y-75399333D01*
X138130413Y-75494571D01*
X138195889Y-76018380D01*
X137332794Y-75970761D02*
X137433985Y-76018380D01*
X137624461Y-76018380D01*
X137713747Y-75970761D01*
X137749461Y-75875523D01*
X137701842Y-75494571D01*
X137642318Y-75399333D01*
X137541127Y-75351714D01*
X137350651Y-75351714D01*
X137261366Y-75399333D01*
X137225651Y-75494571D01*
X137237556Y-75589809D01*
X137725651Y-75685047D01*
X136433985Y-76018380D02*
X136308985Y-75018380D01*
X136428032Y-75970761D02*
X136529223Y-76018380D01*
X136719699Y-76018380D01*
X136808985Y-75970761D01*
X136850651Y-75923142D01*
X136886366Y-75827904D01*
X136850651Y-75542190D01*
X136791127Y-75446952D01*
X136737556Y-75399333D01*
X136636366Y-75351714D01*
X136445889Y-75351714D01*
X136356604Y-75399333D01*
X135195889Y-76018380D02*
X135070889Y-75018380D01*
X135118508Y-75399333D02*
X135017318Y-75351714D01*
X134826842Y-75351714D01*
X134737556Y-75399333D01*
X134695889Y-75446952D01*
X134660175Y-75542190D01*
X134695889Y-75827904D01*
X134755413Y-75923142D01*
X134808985Y-75970761D01*
X134910175Y-76018380D01*
X135100651Y-76018380D01*
X135189937Y-75970761D01*
X134303032Y-75351714D02*
X134148270Y-76018380D01*
X133826842Y-75351714D02*
X134148270Y-76018380D01*
X134273270Y-76256476D01*
X134326842Y-76304095D01*
X134428032Y-76351714D01*
X132368508Y-75494571D02*
X132231604Y-75542190D01*
X132189937Y-75589809D01*
X132154223Y-75685047D01*
X132172080Y-75827904D01*
X132231604Y-75923142D01*
X132285175Y-75970761D01*
X132386366Y-76018380D01*
X132767318Y-76018380D01*
X132642318Y-75018380D01*
X132308985Y-75018380D01*
X132219699Y-75066000D01*
X132178032Y-75113619D01*
X132142318Y-75208857D01*
X132154223Y-75304095D01*
X132213747Y-75399333D01*
X132267318Y-75446952D01*
X132368508Y-75494571D01*
X132701842Y-75494571D01*
X131380413Y-75970761D02*
X131481604Y-76018380D01*
X131672080Y-76018380D01*
X131761366Y-75970761D01*
X131797080Y-75875523D01*
X131749461Y-75494571D01*
X131689937Y-75399333D01*
X131588747Y-75351714D01*
X131398270Y-75351714D01*
X131308985Y-75399333D01*
X131273270Y-75494571D01*
X131285175Y-75589809D01*
X131773270Y-75685047D01*
X130826842Y-75351714D02*
X130910175Y-76018380D01*
X130838747Y-75446952D02*
X130785175Y-75399333D01*
X130683985Y-75351714D01*
X130541127Y-75351714D01*
X130451842Y-75399333D01*
X130416127Y-75494571D01*
X130481604Y-76018380D01*
X129862556Y-76018380D02*
X129951842Y-75970761D01*
X129993508Y-75923142D01*
X130029223Y-75827904D01*
X129993508Y-75542190D01*
X129933985Y-75446952D01*
X129880413Y-75399333D01*
X129779223Y-75351714D01*
X129636366Y-75351714D01*
X129547080Y-75399333D01*
X129505413Y-75446952D01*
X129469699Y-75542190D01*
X129505413Y-75827904D01*
X129564937Y-75923142D01*
X129618508Y-75970761D01*
X129719699Y-76018380D01*
X129862556Y-76018380D01*
X129100651Y-76018380D02*
X129017318Y-75351714D01*
X128975651Y-75018380D02*
X129029223Y-75066000D01*
X128987556Y-75113619D01*
X128933985Y-75066000D01*
X128975651Y-75018380D01*
X128987556Y-75113619D01*
X128683985Y-75351714D02*
X128303032Y-75351714D01*
X128499461Y-75018380D02*
X128606604Y-75875523D01*
X128570889Y-75970761D01*
X128481604Y-76018380D01*
X128386366Y-76018380D01*
X127308985Y-75018380D02*
X126737556Y-75018380D01*
X127148270Y-76018380D02*
X127023270Y-75018380D01*
X126100651Y-76018380D02*
X126035175Y-75494571D01*
X126070889Y-75399333D01*
X126160175Y-75351714D01*
X126350651Y-75351714D01*
X126451842Y-75399333D01*
X126094699Y-75970761D02*
X126195889Y-76018380D01*
X126433985Y-76018380D01*
X126523270Y-75970761D01*
X126558985Y-75875523D01*
X126547080Y-75780285D01*
X126487556Y-75685047D01*
X126386366Y-75637428D01*
X126148270Y-75637428D01*
X126047080Y-75589809D01*
X125624461Y-76018380D02*
X125541127Y-75351714D01*
X125564937Y-75542190D02*
X125505413Y-75446952D01*
X125451842Y-75399333D01*
X125350651Y-75351714D01*
X125255413Y-75351714D01*
X125005413Y-76018380D02*
X124922080Y-75351714D01*
X124945889Y-75542190D02*
X124886366Y-75446952D01*
X124832794Y-75399333D01*
X124731604Y-75351714D01*
X124636366Y-75351714D01*
X123957794Y-76018380D02*
X123892318Y-75494571D01*
X123928032Y-75399333D01*
X124017318Y-75351714D01*
X124207794Y-75351714D01*
X124308985Y-75399333D01*
X123951842Y-75970761D02*
X124053032Y-76018380D01*
X124291127Y-76018380D01*
X124380413Y-75970761D01*
X124416127Y-75875523D01*
X124404223Y-75780285D01*
X124344699Y-75685047D01*
X124243508Y-75637428D01*
X124005413Y-75637428D01*
X123904223Y-75589809D01*
X123053032Y-76018380D02*
X122928032Y-75018380D01*
X123047080Y-75970761D02*
X123148270Y-76018380D01*
X123338747Y-76018380D01*
X123428032Y-75970761D01*
X123469699Y-75923142D01*
X123505413Y-75827904D01*
X123469699Y-75542190D01*
X123410175Y-75446952D01*
X123356604Y-75399333D01*
X123255413Y-75351714D01*
X123064937Y-75351714D01*
X122975651Y-75399333D01*
X122189937Y-75970761D02*
X122291127Y-76018380D01*
X122481604Y-76018380D01*
X122570889Y-75970761D01*
X122606604Y-75875523D01*
X122558985Y-75494571D01*
X122499461Y-75399333D01*
X122398270Y-75351714D01*
X122207794Y-75351714D01*
X122118508Y-75399333D01*
X122082794Y-75494571D01*
X122094699Y-75589809D01*
X122582794Y-75685047D01*
X140314937Y-78049333D02*
X140356604Y-78001714D01*
X140433985Y-77858857D01*
X140469699Y-77763619D01*
X140499461Y-77620761D01*
X140517318Y-77382666D01*
X140493508Y-77192190D01*
X140416127Y-76954095D01*
X140350651Y-76811238D01*
X140291127Y-76716000D01*
X140178032Y-76573142D01*
X140124461Y-76525523D01*
X139457794Y-77668380D02*
X139392318Y-77144571D01*
X139428032Y-77049333D01*
X139517318Y-77001714D01*
X139707794Y-77001714D01*
X139808985Y-77049333D01*
X139451842Y-77620761D02*
X139553032Y-77668380D01*
X139791127Y-77668380D01*
X139880413Y-77620761D01*
X139916127Y-77525523D01*
X139904223Y-77430285D01*
X139844699Y-77335047D01*
X139743508Y-77287428D01*
X139505413Y-77287428D01*
X139404223Y-77239809D01*
X138838747Y-77668380D02*
X138928032Y-77620761D01*
X138963747Y-77525523D01*
X138856604Y-76668380D01*
X138457794Y-77668380D02*
X138374461Y-77001714D01*
X138332794Y-76668380D02*
X138386366Y-76716000D01*
X138344699Y-76763619D01*
X138291127Y-76716000D01*
X138332794Y-76668380D01*
X138344699Y-76763619D01*
X137553032Y-77668380D02*
X137487556Y-77144571D01*
X137523270Y-77049333D01*
X137612556Y-77001714D01*
X137803032Y-77001714D01*
X137904223Y-77049333D01*
X137547080Y-77620761D02*
X137648270Y-77668380D01*
X137886366Y-77668380D01*
X137975651Y-77620761D01*
X138011366Y-77525523D01*
X137999461Y-77430285D01*
X137939937Y-77335047D01*
X137838747Y-77287428D01*
X137600651Y-77287428D01*
X137499461Y-77239809D01*
X137118508Y-77620761D02*
X137029223Y-77668380D01*
X136838747Y-77668380D01*
X136737556Y-77620761D01*
X136678032Y-77525523D01*
X136672080Y-77477904D01*
X136707794Y-77382666D01*
X136797080Y-77335047D01*
X136939937Y-77335047D01*
X137029223Y-77287428D01*
X137064937Y-77192190D01*
X137058985Y-77144571D01*
X136999461Y-77049333D01*
X136898270Y-77001714D01*
X136755413Y-77001714D01*
X136666127Y-77049333D01*
X135505413Y-77668380D02*
X135380413Y-76668380D01*
X135428032Y-77049333D02*
X135326842Y-77001714D01*
X135136366Y-77001714D01*
X135047080Y-77049333D01*
X135005413Y-77096952D01*
X134969699Y-77192190D01*
X135005413Y-77477904D01*
X135064937Y-77573142D01*
X135118508Y-77620761D01*
X135219699Y-77668380D01*
X135410175Y-77668380D01*
X135499461Y-77620761D01*
X134213747Y-77620761D02*
X134314937Y-77668380D01*
X134505413Y-77668380D01*
X134594699Y-77620761D01*
X134630413Y-77525523D01*
X134582794Y-77144571D01*
X134523270Y-77049333D01*
X134422080Y-77001714D01*
X134231604Y-77001714D01*
X134142318Y-77049333D01*
X134106604Y-77144571D01*
X134118508Y-77239809D01*
X134606604Y-77335047D01*
X133743508Y-77668380D02*
X133618508Y-76668380D01*
X133666127Y-77049333D02*
X133564937Y-77001714D01*
X133374461Y-77001714D01*
X133285175Y-77049333D01*
X133243508Y-77096952D01*
X133207794Y-77192190D01*
X133243508Y-77477904D01*
X133303032Y-77573142D01*
X133356604Y-77620761D01*
X133457794Y-77668380D01*
X133648270Y-77668380D01*
X133737556Y-77620761D01*
X132451842Y-77620761D02*
X132553032Y-77668380D01*
X132743508Y-77668380D01*
X132832794Y-77620761D01*
X132868508Y-77525523D01*
X132820889Y-77144571D01*
X132761366Y-77049333D01*
X132660175Y-77001714D01*
X132469699Y-77001714D01*
X132380413Y-77049333D01*
X132344699Y-77144571D01*
X132356604Y-77239809D01*
X132844699Y-77335047D01*
X131898270Y-77001714D02*
X131981604Y-77668380D01*
X131910175Y-77096952D02*
X131856604Y-77049333D01*
X131755413Y-77001714D01*
X131612556Y-77001714D01*
X131523270Y-77049333D01*
X131487556Y-77144571D01*
X131553032Y-77668380D01*
X130933985Y-77668380D02*
X131023270Y-77620761D01*
X131058985Y-77525523D01*
X130951842Y-76668380D01*
X130166127Y-77620761D02*
X130267318Y-77668380D01*
X130457794Y-77668380D01*
X130547080Y-77620761D01*
X130582794Y-77525523D01*
X130535175Y-77144571D01*
X130475651Y-77049333D01*
X130374461Y-77001714D01*
X130183985Y-77001714D01*
X130094699Y-77049333D01*
X130058985Y-77144571D01*
X130070889Y-77239809D01*
X130558985Y-77335047D01*
X129695889Y-77668380D02*
X129570889Y-76668380D01*
X129618508Y-77049333D02*
X129517318Y-77001714D01*
X129326842Y-77001714D01*
X129237556Y-77049333D01*
X129195889Y-77096952D01*
X129160175Y-77192190D01*
X129195889Y-77477904D01*
X129255413Y-77573142D01*
X129308985Y-77620761D01*
X129410175Y-77668380D01*
X129600651Y-77668380D01*
X129689937Y-77620761D01*
X128791127Y-77668380D02*
X128707794Y-77001714D01*
X128731604Y-77192190D02*
X128672080Y-77096952D01*
X128618508Y-77049333D01*
X128517318Y-77001714D01*
X128422080Y-77001714D01*
X128172080Y-77668380D02*
X128088747Y-77001714D01*
X128047080Y-76668380D02*
X128100651Y-76716000D01*
X128058985Y-76763619D01*
X128005413Y-76716000D01*
X128047080Y-76668380D01*
X128058985Y-76763619D01*
X127261366Y-77620761D02*
X127362556Y-77668380D01*
X127553032Y-77668380D01*
X127642318Y-77620761D01*
X127683985Y-77573142D01*
X127719699Y-77477904D01*
X127683985Y-77192190D01*
X127624461Y-77096952D01*
X127570889Y-77049333D01*
X127469699Y-77001714D01*
X127279223Y-77001714D01*
X127189937Y-77049333D01*
X126695889Y-77668380D02*
X126785175Y-77620761D01*
X126826842Y-77573142D01*
X126862556Y-77477904D01*
X126826842Y-77192190D01*
X126767318Y-77096952D01*
X126713747Y-77049333D01*
X126612556Y-77001714D01*
X126469699Y-77001714D01*
X126380413Y-77049333D01*
X126338747Y-77096952D01*
X126303032Y-77192190D01*
X126338747Y-77477904D01*
X126398270Y-77573142D01*
X126451842Y-77620761D01*
X126553032Y-77668380D01*
X126695889Y-77668380D01*
X125791127Y-77668380D02*
X125880413Y-77620761D01*
X125916127Y-77525523D01*
X125808985Y-76668380D01*
X125267318Y-77668380D02*
X125356604Y-77620761D01*
X125398270Y-77573142D01*
X125433985Y-77477904D01*
X125398270Y-77192190D01*
X125338747Y-77096952D01*
X125285175Y-77049333D01*
X125183985Y-77001714D01*
X125041127Y-77001714D01*
X124951842Y-77049333D01*
X124910175Y-77096952D01*
X124874461Y-77192190D01*
X124910175Y-77477904D01*
X124969699Y-77573142D01*
X125023270Y-77620761D01*
X125124461Y-77668380D01*
X125267318Y-77668380D01*
X124648270Y-78049333D02*
X124594699Y-78001714D01*
X124481604Y-77858857D01*
X124422080Y-77763619D01*
X124356604Y-77620761D01*
X124279223Y-77382666D01*
X124255413Y-77192190D01*
X124273270Y-76954095D01*
X124303032Y-76811238D01*
X124338747Y-76716000D01*
X124416127Y-76573142D01*
X124457794Y-76525523D01*
X145505413Y-79318380D02*
X145380413Y-78318380D01*
X145076842Y-79318380D02*
X145011366Y-78794571D01*
X145047080Y-78699333D01*
X145136366Y-78651714D01*
X145279223Y-78651714D01*
X145380413Y-78699333D01*
X145433985Y-78746952D01*
X144660175Y-78651714D02*
X144279223Y-78651714D01*
X144475651Y-78318380D02*
X144582794Y-79175523D01*
X144547080Y-79270761D01*
X144457794Y-79318380D01*
X144362556Y-79318380D01*
X144088747Y-78651714D02*
X143707794Y-78651714D01*
X143904223Y-78318380D02*
X144011366Y-79175523D01*
X143975651Y-79270761D01*
X143886366Y-79318380D01*
X143791127Y-79318380D01*
X143374461Y-78651714D02*
X143499461Y-79651714D01*
X143380413Y-78699333D02*
X143279223Y-78651714D01*
X143088747Y-78651714D01*
X142999461Y-78699333D01*
X142957794Y-78746952D01*
X142922080Y-78842190D01*
X142957794Y-79127904D01*
X143017318Y-79223142D01*
X143070889Y-79270761D01*
X143172080Y-79318380D01*
X143362556Y-79318380D01*
X143451842Y-79270761D01*
X142594699Y-79270761D02*
X142505413Y-79318380D01*
X142314937Y-79318380D01*
X142213747Y-79270761D01*
X142154223Y-79175523D01*
X142148270Y-79127904D01*
X142183985Y-79032666D01*
X142273270Y-78985047D01*
X142416127Y-78985047D01*
X142505413Y-78937428D01*
X142541127Y-78842190D01*
X142535175Y-78794571D01*
X142475651Y-78699333D01*
X142374461Y-78651714D01*
X142231604Y-78651714D01*
X142142318Y-78699333D01*
X141731604Y-79223142D02*
X141689937Y-79270761D01*
X141743508Y-79318380D01*
X141785175Y-79270761D01*
X141731604Y-79223142D01*
X141743508Y-79318380D01*
X141666127Y-78699333D02*
X141624461Y-78746952D01*
X141678032Y-78794571D01*
X141719699Y-78746952D01*
X141666127Y-78699333D01*
X141678032Y-78794571D01*
X140422080Y-78270761D02*
X141439937Y-79556476D01*
X139374461Y-78270761D02*
X140392318Y-79556476D01*
X138660175Y-78651714D02*
X138761366Y-79461238D01*
X138820889Y-79556476D01*
X138874461Y-79604095D01*
X138975651Y-79651714D01*
X139118508Y-79651714D01*
X139207794Y-79604095D01*
X138737556Y-79270761D02*
X138838747Y-79318380D01*
X139029223Y-79318380D01*
X139118508Y-79270761D01*
X139160175Y-79223142D01*
X139195889Y-79127904D01*
X139160175Y-78842190D01*
X139100651Y-78746952D01*
X139047080Y-78699333D01*
X138945889Y-78651714D01*
X138755413Y-78651714D01*
X138666127Y-78699333D01*
X138267318Y-79318380D02*
X138183985Y-78651714D01*
X138142318Y-78318380D02*
X138195889Y-78366000D01*
X138154223Y-78413619D01*
X138100651Y-78366000D01*
X138142318Y-78318380D01*
X138154223Y-78413619D01*
X137850651Y-78651714D02*
X137469699Y-78651714D01*
X137666127Y-78318380D02*
X137773270Y-79175523D01*
X137737556Y-79270761D01*
X137648270Y-79318380D01*
X137553032Y-79318380D01*
X137219699Y-79318380D02*
X137094699Y-78318380D01*
X136791127Y-79318380D02*
X136725651Y-78794571D01*
X136761366Y-78699333D01*
X136850651Y-78651714D01*
X136993508Y-78651714D01*
X137094699Y-78699333D01*
X137148270Y-78746952D01*
X135803032Y-78651714D02*
X135886366Y-79318380D01*
X136231604Y-78651714D02*
X136297080Y-79175523D01*
X136261366Y-79270761D01*
X136172080Y-79318380D01*
X136029223Y-79318380D01*
X135928032Y-79270761D01*
X135874461Y-79223142D01*
X135410175Y-79318380D02*
X135285175Y-78318380D01*
X135332794Y-78699333D02*
X135231604Y-78651714D01*
X135041127Y-78651714D01*
X134951842Y-78699333D01*
X134910175Y-78746952D01*
X134874461Y-78842190D01*
X134910175Y-79127904D01*
X134969699Y-79223142D01*
X135023270Y-79270761D01*
X135124461Y-79318380D01*
X135314937Y-79318380D01*
X135404223Y-79270761D01*
X134493508Y-79223142D02*
X134451842Y-79270761D01*
X134505413Y-79318380D01*
X134547080Y-79270761D01*
X134493508Y-79223142D01*
X134505413Y-79318380D01*
X133594699Y-79270761D02*
X133695889Y-79318380D01*
X133886366Y-79318380D01*
X133975651Y-79270761D01*
X134017318Y-79223142D01*
X134053032Y-79127904D01*
X134017318Y-78842190D01*
X133957794Y-78746952D01*
X133904223Y-78699333D01*
X133803032Y-78651714D01*
X133612556Y-78651714D01*
X133523270Y-78699333D01*
X133029223Y-79318380D02*
X133118508Y-79270761D01*
X133160175Y-79223142D01*
X133195889Y-79127904D01*
X133160175Y-78842190D01*
X133100651Y-78746952D01*
X133047080Y-78699333D01*
X132945889Y-78651714D01*
X132803032Y-78651714D01*
X132713747Y-78699333D01*
X132672080Y-78746952D01*
X132636366Y-78842190D01*
X132672080Y-79127904D01*
X132731604Y-79223142D01*
X132785175Y-79270761D01*
X132886366Y-79318380D01*
X133029223Y-79318380D01*
X132267318Y-79318380D02*
X132183985Y-78651714D01*
X132195889Y-78746952D02*
X132142318Y-78699333D01*
X132041127Y-78651714D01*
X131898270Y-78651714D01*
X131808985Y-78699333D01*
X131773270Y-78794571D01*
X131838747Y-79318380D01*
X131773270Y-78794571D02*
X131713747Y-78699333D01*
X131612556Y-78651714D01*
X131469699Y-78651714D01*
X131380413Y-78699333D01*
X131344699Y-78794571D01*
X131410175Y-79318380D01*
X130088747Y-78270761D02*
X131106604Y-79556476D01*
X129886366Y-79318380D02*
X129761366Y-78318380D01*
X129808985Y-78699333D02*
X129707794Y-78651714D01*
X129517318Y-78651714D01*
X129428032Y-78699333D01*
X129386366Y-78746952D01*
X129350651Y-78842190D01*
X129386366Y-79127904D01*
X129445889Y-79223142D01*
X129499461Y-79270761D01*
X129600651Y-79318380D01*
X129791127Y-79318380D01*
X129880413Y-79270761D01*
X128594699Y-79270761D02*
X128695889Y-79318380D01*
X128886366Y-79318380D01*
X128975651Y-79270761D01*
X129011366Y-79175523D01*
X128963747Y-78794571D01*
X128904223Y-78699333D01*
X128803032Y-78651714D01*
X128612556Y-78651714D01*
X128523270Y-78699333D01*
X128487556Y-78794571D01*
X128499461Y-78889809D01*
X128987556Y-78985047D01*
X128124461Y-79318380D02*
X127999461Y-78318380D01*
X128047080Y-78699333D02*
X127945889Y-78651714D01*
X127755413Y-78651714D01*
X127666127Y-78699333D01*
X127624461Y-78746952D01*
X127588747Y-78842190D01*
X127624461Y-79127904D01*
X127683985Y-79223142D01*
X127737556Y-79270761D01*
X127838747Y-79318380D01*
X128029223Y-79318380D01*
X128118508Y-79270761D01*
X126832794Y-79270761D02*
X126933985Y-79318380D01*
X127124461Y-79318380D01*
X127213747Y-79270761D01*
X127249461Y-79175523D01*
X127201842Y-78794571D01*
X127142318Y-78699333D01*
X127041127Y-78651714D01*
X126850651Y-78651714D01*
X126761366Y-78699333D01*
X126725651Y-78794571D01*
X126737556Y-78889809D01*
X127225651Y-78985047D01*
X126279223Y-78651714D02*
X126362556Y-79318380D01*
X126291127Y-78746952D02*
X126237556Y-78699333D01*
X126136366Y-78651714D01*
X125993508Y-78651714D01*
X125904223Y-78699333D01*
X125868508Y-78794571D01*
X125933985Y-79318380D01*
X125314937Y-79318380D02*
X125404223Y-79270761D01*
X125439937Y-79175523D01*
X125332794Y-78318380D01*
X124547080Y-79270761D02*
X124648270Y-79318380D01*
X124838747Y-79318380D01*
X124928032Y-79270761D01*
X124963747Y-79175523D01*
X124916127Y-78794571D01*
X124856604Y-78699333D01*
X124755413Y-78651714D01*
X124564937Y-78651714D01*
X124475651Y-78699333D01*
X124439937Y-78794571D01*
X124451842Y-78889809D01*
X124939937Y-78985047D01*
X124076842Y-79318380D02*
X123951842Y-78318380D01*
X123999461Y-78699333D02*
X123898270Y-78651714D01*
X123707794Y-78651714D01*
X123618508Y-78699333D01*
X123576842Y-78746952D01*
X123541127Y-78842190D01*
X123576842Y-79127904D01*
X123636366Y-79223142D01*
X123689937Y-79270761D01*
X123791127Y-79318380D01*
X123981604Y-79318380D01*
X124070889Y-79270761D01*
X123172080Y-79318380D02*
X123088747Y-78651714D01*
X123112556Y-78842190D02*
X123053032Y-78746952D01*
X122999461Y-78699333D01*
X122898270Y-78651714D01*
X122803032Y-78651714D01*
X122553032Y-79318380D02*
X122469699Y-78651714D01*
X122428032Y-78318380D02*
X122481604Y-78366000D01*
X122439937Y-78413619D01*
X122386366Y-78366000D01*
X122428032Y-78318380D01*
X122439937Y-78413619D01*
X121642318Y-79270761D02*
X121743508Y-79318380D01*
X121933985Y-79318380D01*
X122023270Y-79270761D01*
X122064937Y-79223142D01*
X122100651Y-79127904D01*
X122064937Y-78842190D01*
X122005413Y-78746952D01*
X121951842Y-78699333D01*
X121850651Y-78651714D01*
X121660175Y-78651714D01*
X121570889Y-78699333D01*
X121076842Y-79318380D02*
X121166127Y-79270761D01*
X121207794Y-79223142D01*
X121243508Y-79127904D01*
X121207794Y-78842190D01*
X121148270Y-78746952D01*
X121094699Y-78699333D01*
X120993508Y-78651714D01*
X120850651Y-78651714D01*
X120761366Y-78699333D01*
X120719699Y-78746952D01*
X120683985Y-78842190D01*
X120719699Y-79127904D01*
X120779223Y-79223142D01*
X120832794Y-79270761D01*
X120933985Y-79318380D01*
X121076842Y-79318380D01*
X120172080Y-79318380D02*
X120261366Y-79270761D01*
X120297080Y-79175523D01*
X120189937Y-78318380D01*
X119648270Y-79318380D02*
X119737556Y-79270761D01*
X119779223Y-79223142D01*
X119814937Y-79127904D01*
X119779223Y-78842190D01*
X119719699Y-78746952D01*
X119666127Y-78699333D01*
X119564937Y-78651714D01*
X119422080Y-78651714D01*
X119332794Y-78699333D01*
X119291127Y-78746952D01*
X119255413Y-78842190D01*
X119291127Y-79127904D01*
X119350651Y-79223142D01*
X119404223Y-79270761D01*
X119505413Y-79318380D01*
X119648270Y-79318380D01*
D11*
%TO.C,REF\u002A\u002A*%
G36*
X135026400Y-68609054D02*
G01*
X135015535Y-68722993D01*
X134983918Y-68830616D01*
X134933015Y-68929615D01*
X134864293Y-69017684D01*
X134779219Y-69092516D01*
X134682232Y-69150384D01*
X134575964Y-69190005D01*
X134468950Y-69208573D01*
X134363300Y-69207434D01*
X134261125Y-69187930D01*
X134164534Y-69151406D01*
X134075638Y-69099205D01*
X133996546Y-69032673D01*
X133929369Y-68953152D01*
X133876217Y-68861987D01*
X133839199Y-68760523D01*
X133820427Y-68650102D01*
X133818489Y-68600206D01*
X133818489Y-68512267D01*
X133766560Y-68512267D01*
X133730253Y-68515111D01*
X133703355Y-68526911D01*
X133676249Y-68550649D01*
X133637867Y-68589031D01*
X133637867Y-70780602D01*
X133637876Y-71042739D01*
X133637908Y-71283241D01*
X133637972Y-71503048D01*
X133638076Y-71703101D01*
X133638227Y-71884344D01*
X133638434Y-72047716D01*
X133638706Y-72194160D01*
X133639050Y-72324617D01*
X133639474Y-72440029D01*
X133639987Y-72541338D01*
X133640597Y-72629484D01*
X133641312Y-72705410D01*
X133642140Y-72770057D01*
X133643089Y-72824367D01*
X133644167Y-72869280D01*
X133645383Y-72905740D01*
X133646745Y-72934687D01*
X133648261Y-72957063D01*
X133649938Y-72973809D01*
X133651786Y-72985868D01*
X133653813Y-72994180D01*
X133656025Y-72999687D01*
X133657108Y-73001537D01*
X133661271Y-73008549D01*
X133664805Y-73014996D01*
X133668635Y-73020900D01*
X133673682Y-73026286D01*
X133680871Y-73031178D01*
X133691123Y-73035598D01*
X133705364Y-73039572D01*
X133724514Y-73043121D01*
X133749499Y-73046270D01*
X133781240Y-73049042D01*
X133820662Y-73051461D01*
X133868686Y-73053551D01*
X133926237Y-73055335D01*
X133994237Y-73056837D01*
X134073610Y-73058080D01*
X134165279Y-73059089D01*
X134270166Y-73059885D01*
X134389196Y-73060494D01*
X134523290Y-73060939D01*
X134673373Y-73061243D01*
X134840367Y-73061430D01*
X135025196Y-73061524D01*
X135228783Y-73061548D01*
X135452050Y-73061525D01*
X135695922Y-73061480D01*
X135961321Y-73061437D01*
X135999704Y-73061432D01*
X136266682Y-73061389D01*
X136512002Y-73061318D01*
X136736583Y-73061213D01*
X136941345Y-73061066D01*
X137127206Y-73060869D01*
X137295088Y-73060616D01*
X137445908Y-73060300D01*
X137580587Y-73059913D01*
X137700044Y-73059447D01*
X137805199Y-73058897D01*
X137896971Y-73058253D01*
X137976279Y-73057511D01*
X138044043Y-73056661D01*
X138101182Y-73055697D01*
X138148617Y-73054611D01*
X138187266Y-73053397D01*
X138218049Y-73052047D01*
X138241885Y-73050555D01*
X138259694Y-73048911D01*
X138272395Y-73047111D01*
X138280908Y-73045145D01*
X138285266Y-73043477D01*
X138293728Y-73039906D01*
X138301497Y-73037270D01*
X138308602Y-73034634D01*
X138315073Y-73031062D01*
X138320939Y-73025621D01*
X138326229Y-73017375D01*
X138330974Y-73005390D01*
X138335202Y-72988731D01*
X138338943Y-72966463D01*
X138342227Y-72937652D01*
X138345083Y-72901363D01*
X138347540Y-72856661D01*
X138349629Y-72802611D01*
X138351378Y-72738279D01*
X138352817Y-72662730D01*
X138353976Y-72575030D01*
X138354883Y-72474243D01*
X138355569Y-72359434D01*
X138356063Y-72229670D01*
X138356395Y-72084015D01*
X138356593Y-71921535D01*
X138356687Y-71741295D01*
X138356708Y-71542360D01*
X138356685Y-71323796D01*
X138356646Y-71084668D01*
X138356622Y-70824040D01*
X138356622Y-70781889D01*
X138356636Y-70518992D01*
X138356661Y-70277732D01*
X138356671Y-70057165D01*
X138356642Y-69856352D01*
X138356548Y-69674349D01*
X138356362Y-69510216D01*
X138356059Y-69363011D01*
X138355614Y-69231792D01*
X138355034Y-69121867D01*
X138052197Y-69121867D01*
X138012407Y-69179711D01*
X138001236Y-69195479D01*
X137991166Y-69209441D01*
X137982138Y-69222784D01*
X137974097Y-69236693D01*
X137966986Y-69252356D01*
X137960747Y-69270958D01*
X137955325Y-69293686D01*
X137950662Y-69321727D01*
X137946701Y-69356267D01*
X137943385Y-69398492D01*
X137940659Y-69449589D01*
X137938464Y-69510744D01*
X137936745Y-69583144D01*
X137935444Y-69667975D01*
X137934505Y-69766422D01*
X137933870Y-69879674D01*
X137933484Y-70008916D01*
X137933288Y-70155334D01*
X137933227Y-70320116D01*
X137933243Y-70504447D01*
X137933280Y-70709513D01*
X137933289Y-70832133D01*
X137933265Y-71049082D01*
X137933231Y-71244642D01*
X137933243Y-71419999D01*
X137933358Y-71576341D01*
X137933630Y-71714857D01*
X137934118Y-71836734D01*
X137934876Y-71943160D01*
X137935962Y-72035322D01*
X137937431Y-72114409D01*
X137939340Y-72181608D01*
X137941744Y-72238107D01*
X137944701Y-72285093D01*
X137948266Y-72323755D01*
X137952495Y-72355280D01*
X137957446Y-72380855D01*
X137963173Y-72401670D01*
X137969733Y-72418911D01*
X137977183Y-72433765D01*
X137985579Y-72447422D01*
X137994976Y-72461069D01*
X138005432Y-72475893D01*
X138011523Y-72484783D01*
X138050296Y-72542400D01*
X137518732Y-72542400D01*
X137395483Y-72542365D01*
X137292987Y-72542215D01*
X137209420Y-72541878D01*
X137142956Y-72541286D01*
X137091771Y-72540367D01*
X137054041Y-72539051D01*
X137027940Y-72537269D01*
X137011644Y-72534951D01*
X137003328Y-72532026D01*
X137001168Y-72528424D01*
X137003339Y-72524075D01*
X137004535Y-72522645D01*
X137029685Y-72485573D01*
X137055583Y-72432772D01*
X137079192Y-72370770D01*
X137087461Y-72344357D01*
X137092078Y-72326416D01*
X137095979Y-72305355D01*
X137099248Y-72279089D01*
X137101966Y-72245532D01*
X137104215Y-72202599D01*
X137106077Y-72148204D01*
X137107636Y-72080262D01*
X137108972Y-71996688D01*
X137110169Y-71895395D01*
X137111308Y-71774300D01*
X137111685Y-71729600D01*
X137112702Y-71604449D01*
X137113460Y-71500082D01*
X137113903Y-71414707D01*
X137113970Y-71346533D01*
X137113605Y-71293765D01*
X137112748Y-71254614D01*
X137111341Y-71227285D01*
X137109325Y-71209986D01*
X137106643Y-71200926D01*
X137103236Y-71198312D01*
X137099044Y-71200351D01*
X137094571Y-71204667D01*
X137084216Y-71217602D01*
X137062158Y-71246676D01*
X137029957Y-71289759D01*
X136989174Y-71344718D01*
X136941370Y-71409423D01*
X136888105Y-71481742D01*
X136830940Y-71559544D01*
X136771437Y-71640698D01*
X136711155Y-71723072D01*
X136651655Y-71804536D01*
X136594498Y-71882957D01*
X136541245Y-71956204D01*
X136493457Y-72022147D01*
X136452693Y-72078654D01*
X136420516Y-72123593D01*
X136398485Y-72154834D01*
X136393917Y-72161466D01*
X136370996Y-72198369D01*
X136344188Y-72246359D01*
X136318789Y-72295897D01*
X136315568Y-72302577D01*
X136293890Y-72350772D01*
X136281304Y-72388334D01*
X136275574Y-72424160D01*
X136274456Y-72466200D01*
X136275090Y-72542400D01*
X135120651Y-72542400D01*
X135211815Y-72448669D01*
X135258612Y-72398775D01*
X135308899Y-72342295D01*
X135354944Y-72288026D01*
X135375369Y-72262673D01*
X135405807Y-72223128D01*
X135445862Y-72169916D01*
X135494361Y-72104667D01*
X135550135Y-72029011D01*
X135612011Y-71944577D01*
X135678819Y-71852994D01*
X135749387Y-71755892D01*
X135822545Y-71654901D01*
X135897121Y-71551650D01*
X135971944Y-71447768D01*
X136045843Y-71344885D01*
X136117646Y-71244631D01*
X136186184Y-71148636D01*
X136250284Y-71058527D01*
X136308775Y-70975936D01*
X136360486Y-70902492D01*
X136404247Y-70839824D01*
X136438885Y-70789561D01*
X136463230Y-70753334D01*
X136476111Y-70732771D01*
X136477869Y-70728668D01*
X136469910Y-70717342D01*
X136449115Y-70690162D01*
X136416847Y-70648829D01*
X136374470Y-70595044D01*
X136323347Y-70530506D01*
X136264841Y-70456918D01*
X136200314Y-70375978D01*
X136131131Y-70289388D01*
X136058653Y-70198848D01*
X135984246Y-70106060D01*
X135924517Y-70031702D01*
X134913511Y-70031702D01*
X134907602Y-70044659D01*
X134893272Y-70066908D01*
X134892225Y-70068391D01*
X134873438Y-70098544D01*
X134853791Y-70135375D01*
X134849892Y-70143511D01*
X134846356Y-70151940D01*
X134843230Y-70162059D01*
X134840486Y-70175260D01*
X134838092Y-70192938D01*
X134836019Y-70216484D01*
X134834235Y-70247293D01*
X134832712Y-70286757D01*
X134831419Y-70336269D01*
X134830326Y-70397223D01*
X134829403Y-70471011D01*
X134828619Y-70559028D01*
X134827945Y-70662665D01*
X134827350Y-70783316D01*
X134826805Y-70922374D01*
X134826279Y-71081232D01*
X134825745Y-71260089D01*
X134825206Y-71445207D01*
X134824772Y-71609145D01*
X134824509Y-71753303D01*
X134824484Y-71879079D01*
X134824765Y-71987871D01*
X134825419Y-72081077D01*
X134826514Y-72160097D01*
X134828118Y-72226328D01*
X134830297Y-72281170D01*
X134833119Y-72326021D01*
X134836651Y-72362278D01*
X134840961Y-72391341D01*
X134846117Y-72414609D01*
X134852185Y-72433479D01*
X134859233Y-72449351D01*
X134867329Y-72463622D01*
X134876540Y-72477691D01*
X134885040Y-72490158D01*
X134902176Y-72516452D01*
X134912322Y-72534037D01*
X134913511Y-72537257D01*
X134902604Y-72538334D01*
X134871411Y-72539335D01*
X134822223Y-72540235D01*
X134757333Y-72541010D01*
X134679030Y-72541637D01*
X134589607Y-72542091D01*
X134491356Y-72542349D01*
X134422445Y-72542400D01*
X134317452Y-72542180D01*
X134220610Y-72541548D01*
X134134107Y-72540549D01*
X134060132Y-72539227D01*
X134000874Y-72537626D01*
X133958520Y-72535791D01*
X133935260Y-72533765D01*
X133931378Y-72532493D01*
X133939076Y-72517591D01*
X133947074Y-72509560D01*
X133960246Y-72492434D01*
X133977485Y-72462183D01*
X133989407Y-72437622D01*
X134016045Y-72378711D01*
X134019120Y-71201845D01*
X134022195Y-70024978D01*
X134467853Y-70024978D01*
X134565670Y-70025142D01*
X134656064Y-70025611D01*
X134736630Y-70026347D01*
X134804962Y-70027316D01*
X134858656Y-70028480D01*
X134895305Y-70029803D01*
X134912504Y-70031249D01*
X134913511Y-70031702D01*
X135924517Y-70031702D01*
X135909270Y-70012722D01*
X135835090Y-69920537D01*
X135763069Y-69831204D01*
X135694569Y-69746424D01*
X135630955Y-69667898D01*
X135573588Y-69597326D01*
X135523833Y-69536409D01*
X135483052Y-69486847D01*
X135465888Y-69466178D01*
X135379596Y-69365516D01*
X135302997Y-69282259D01*
X135234183Y-69214438D01*
X135171248Y-69160089D01*
X135161867Y-69152722D01*
X135122356Y-69122117D01*
X136254116Y-69121867D01*
X136248827Y-69169844D01*
X136252130Y-69227188D01*
X136273661Y-69295463D01*
X136313635Y-69375212D01*
X136358943Y-69447495D01*
X136375161Y-69470140D01*
X136403214Y-69507696D01*
X136441430Y-69558021D01*
X136488137Y-69618973D01*
X136541661Y-69688411D01*
X136600331Y-69764194D01*
X136662475Y-69844180D01*
X136726421Y-69926228D01*
X136790495Y-70008196D01*
X136853027Y-70087943D01*
X136912343Y-70163327D01*
X136966771Y-70232207D01*
X137014639Y-70292442D01*
X137054275Y-70341889D01*
X137084006Y-70378408D01*
X137102161Y-70399858D01*
X137105220Y-70403156D01*
X137108079Y-70395149D01*
X137110293Y-70364855D01*
X137111857Y-70312556D01*
X137112767Y-70238531D01*
X137113020Y-70143063D01*
X137112613Y-70026434D01*
X137111704Y-69906445D01*
X137110382Y-69774333D01*
X137108857Y-69662594D01*
X137106881Y-69569025D01*
X137104206Y-69491419D01*
X137100582Y-69427574D01*
X137095761Y-69375283D01*
X137089494Y-69332344D01*
X137081532Y-69296551D01*
X137071627Y-69265700D01*
X137059531Y-69237586D01*
X137044993Y-69210005D01*
X137030311Y-69184966D01*
X136992314Y-69121867D01*
X138052197Y-69121867D01*
X138355034Y-69121867D01*
X138355001Y-69115617D01*
X138354195Y-69013544D01*
X138353170Y-68924633D01*
X138351900Y-68847941D01*
X138350360Y-68782527D01*
X138348524Y-68727449D01*
X138346367Y-68681765D01*
X138343863Y-68644534D01*
X138340987Y-68614813D01*
X138337713Y-68591662D01*
X138334015Y-68574139D01*
X138329869Y-68561301D01*
X138325247Y-68552208D01*
X138320126Y-68545918D01*
X138314478Y-68541488D01*
X138308279Y-68537978D01*
X138301504Y-68534445D01*
X138295508Y-68530876D01*
X138290275Y-68528300D01*
X138282099Y-68525972D01*
X138269886Y-68523878D01*
X138252541Y-68522007D01*
X138228969Y-68520347D01*
X138198077Y-68518884D01*
X138158768Y-68517608D01*
X138109950Y-68516504D01*
X138050527Y-68515561D01*
X137979404Y-68514767D01*
X137895488Y-68514109D01*
X137797683Y-68513575D01*
X137684894Y-68513153D01*
X137556029Y-68512829D01*
X137409991Y-68512592D01*
X137245686Y-68512430D01*
X137062020Y-68512330D01*
X136857897Y-68512280D01*
X136646753Y-68512267D01*
X135026400Y-68512267D01*
X135026400Y-68609054D01*
G37*
X135026400Y-68609054D02*
X135015535Y-68722993D01*
X134983918Y-68830616D01*
X134933015Y-68929615D01*
X134864293Y-69017684D01*
X134779219Y-69092516D01*
X134682232Y-69150384D01*
X134575964Y-69190005D01*
X134468950Y-69208573D01*
X134363300Y-69207434D01*
X134261125Y-69187930D01*
X134164534Y-69151406D01*
X134075638Y-69099205D01*
X133996546Y-69032673D01*
X133929369Y-68953152D01*
X133876217Y-68861987D01*
X133839199Y-68760523D01*
X133820427Y-68650102D01*
X133818489Y-68600206D01*
X133818489Y-68512267D01*
X133766560Y-68512267D01*
X133730253Y-68515111D01*
X133703355Y-68526911D01*
X133676249Y-68550649D01*
X133637867Y-68589031D01*
X133637867Y-70780602D01*
X133637876Y-71042739D01*
X133637908Y-71283241D01*
X133637972Y-71503048D01*
X133638076Y-71703101D01*
X133638227Y-71884344D01*
X133638434Y-72047716D01*
X133638706Y-72194160D01*
X133639050Y-72324617D01*
X133639474Y-72440029D01*
X133639987Y-72541338D01*
X133640597Y-72629484D01*
X133641312Y-72705410D01*
X133642140Y-72770057D01*
X133643089Y-72824367D01*
X133644167Y-72869280D01*
X133645383Y-72905740D01*
X133646745Y-72934687D01*
X133648261Y-72957063D01*
X133649938Y-72973809D01*
X133651786Y-72985868D01*
X133653813Y-72994180D01*
X133656025Y-72999687D01*
X133657108Y-73001537D01*
X133661271Y-73008549D01*
X133664805Y-73014996D01*
X133668635Y-73020900D01*
X133673682Y-73026286D01*
X133680871Y-73031178D01*
X133691123Y-73035598D01*
X133705364Y-73039572D01*
X133724514Y-73043121D01*
X133749499Y-73046270D01*
X133781240Y-73049042D01*
X133820662Y-73051461D01*
X133868686Y-73053551D01*
X133926237Y-73055335D01*
X133994237Y-73056837D01*
X134073610Y-73058080D01*
X134165279Y-73059089D01*
X134270166Y-73059885D01*
X134389196Y-73060494D01*
X134523290Y-73060939D01*
X134673373Y-73061243D01*
X134840367Y-73061430D01*
X135025196Y-73061524D01*
X135228783Y-73061548D01*
X135452050Y-73061525D01*
X135695922Y-73061480D01*
X135961321Y-73061437D01*
X135999704Y-73061432D01*
X136266682Y-73061389D01*
X136512002Y-73061318D01*
X136736583Y-73061213D01*
X136941345Y-73061066D01*
X137127206Y-73060869D01*
X137295088Y-73060616D01*
X137445908Y-73060300D01*
X137580587Y-73059913D01*
X137700044Y-73059447D01*
X137805199Y-73058897D01*
X137896971Y-73058253D01*
X137976279Y-73057511D01*
X138044043Y-73056661D01*
X138101182Y-73055697D01*
X138148617Y-73054611D01*
X138187266Y-73053397D01*
X138218049Y-73052047D01*
X138241885Y-73050555D01*
X138259694Y-73048911D01*
X138272395Y-73047111D01*
X138280908Y-73045145D01*
X138285266Y-73043477D01*
X138293728Y-73039906D01*
X138301497Y-73037270D01*
X138308602Y-73034634D01*
X138315073Y-73031062D01*
X138320939Y-73025621D01*
X138326229Y-73017375D01*
X138330974Y-73005390D01*
X138335202Y-72988731D01*
X138338943Y-72966463D01*
X138342227Y-72937652D01*
X138345083Y-72901363D01*
X138347540Y-72856661D01*
X138349629Y-72802611D01*
X138351378Y-72738279D01*
X138352817Y-72662730D01*
X138353976Y-72575030D01*
X138354883Y-72474243D01*
X138355569Y-72359434D01*
X138356063Y-72229670D01*
X138356395Y-72084015D01*
X138356593Y-71921535D01*
X138356687Y-71741295D01*
X138356708Y-71542360D01*
X138356685Y-71323796D01*
X138356646Y-71084668D01*
X138356622Y-70824040D01*
X138356622Y-70781889D01*
X138356636Y-70518992D01*
X138356661Y-70277732D01*
X138356671Y-70057165D01*
X138356642Y-69856352D01*
X138356548Y-69674349D01*
X138356362Y-69510216D01*
X138356059Y-69363011D01*
X138355614Y-69231792D01*
X138355034Y-69121867D01*
X138052197Y-69121867D01*
X138012407Y-69179711D01*
X138001236Y-69195479D01*
X137991166Y-69209441D01*
X137982138Y-69222784D01*
X137974097Y-69236693D01*
X137966986Y-69252356D01*
X137960747Y-69270958D01*
X137955325Y-69293686D01*
X137950662Y-69321727D01*
X137946701Y-69356267D01*
X137943385Y-69398492D01*
X137940659Y-69449589D01*
X137938464Y-69510744D01*
X137936745Y-69583144D01*
X137935444Y-69667975D01*
X137934505Y-69766422D01*
X137933870Y-69879674D01*
X137933484Y-70008916D01*
X137933288Y-70155334D01*
X137933227Y-70320116D01*
X137933243Y-70504447D01*
X137933280Y-70709513D01*
X137933289Y-70832133D01*
X137933265Y-71049082D01*
X137933231Y-71244642D01*
X137933243Y-71419999D01*
X137933358Y-71576341D01*
X137933630Y-71714857D01*
X137934118Y-71836734D01*
X137934876Y-71943160D01*
X137935962Y-72035322D01*
X137937431Y-72114409D01*
X137939340Y-72181608D01*
X137941744Y-72238107D01*
X137944701Y-72285093D01*
X137948266Y-72323755D01*
X137952495Y-72355280D01*
X137957446Y-72380855D01*
X137963173Y-72401670D01*
X137969733Y-72418911D01*
X137977183Y-72433765D01*
X137985579Y-72447422D01*
X137994976Y-72461069D01*
X138005432Y-72475893D01*
X138011523Y-72484783D01*
X138050296Y-72542400D01*
X137518732Y-72542400D01*
X137395483Y-72542365D01*
X137292987Y-72542215D01*
X137209420Y-72541878D01*
X137142956Y-72541286D01*
X137091771Y-72540367D01*
X137054041Y-72539051D01*
X137027940Y-72537269D01*
X137011644Y-72534951D01*
X137003328Y-72532026D01*
X137001168Y-72528424D01*
X137003339Y-72524075D01*
X137004535Y-72522645D01*
X137029685Y-72485573D01*
X137055583Y-72432772D01*
X137079192Y-72370770D01*
X137087461Y-72344357D01*
X137092078Y-72326416D01*
X137095979Y-72305355D01*
X137099248Y-72279089D01*
X137101966Y-72245532D01*
X137104215Y-72202599D01*
X137106077Y-72148204D01*
X137107636Y-72080262D01*
X137108972Y-71996688D01*
X137110169Y-71895395D01*
X137111308Y-71774300D01*
X137111685Y-71729600D01*
X137112702Y-71604449D01*
X137113460Y-71500082D01*
X137113903Y-71414707D01*
X137113970Y-71346533D01*
X137113605Y-71293765D01*
X137112748Y-71254614D01*
X137111341Y-71227285D01*
X137109325Y-71209986D01*
X137106643Y-71200926D01*
X137103236Y-71198312D01*
X137099044Y-71200351D01*
X137094571Y-71204667D01*
X137084216Y-71217602D01*
X137062158Y-71246676D01*
X137029957Y-71289759D01*
X136989174Y-71344718D01*
X136941370Y-71409423D01*
X136888105Y-71481742D01*
X136830940Y-71559544D01*
X136771437Y-71640698D01*
X136711155Y-71723072D01*
X136651655Y-71804536D01*
X136594498Y-71882957D01*
X136541245Y-71956204D01*
X136493457Y-72022147D01*
X136452693Y-72078654D01*
X136420516Y-72123593D01*
X136398485Y-72154834D01*
X136393917Y-72161466D01*
X136370996Y-72198369D01*
X136344188Y-72246359D01*
X136318789Y-72295897D01*
X136315568Y-72302577D01*
X136293890Y-72350772D01*
X136281304Y-72388334D01*
X136275574Y-72424160D01*
X136274456Y-72466200D01*
X136275090Y-72542400D01*
X135120651Y-72542400D01*
X135211815Y-72448669D01*
X135258612Y-72398775D01*
X135308899Y-72342295D01*
X135354944Y-72288026D01*
X135375369Y-72262673D01*
X135405807Y-72223128D01*
X135445862Y-72169916D01*
X135494361Y-72104667D01*
X135550135Y-72029011D01*
X135612011Y-71944577D01*
X135678819Y-71852994D01*
X135749387Y-71755892D01*
X135822545Y-71654901D01*
X135897121Y-71551650D01*
X135971944Y-71447768D01*
X136045843Y-71344885D01*
X136117646Y-71244631D01*
X136186184Y-71148636D01*
X136250284Y-71058527D01*
X136308775Y-70975936D01*
X136360486Y-70902492D01*
X136404247Y-70839824D01*
X136438885Y-70789561D01*
X136463230Y-70753334D01*
X136476111Y-70732771D01*
X136477869Y-70728668D01*
X136469910Y-70717342D01*
X136449115Y-70690162D01*
X136416847Y-70648829D01*
X136374470Y-70595044D01*
X136323347Y-70530506D01*
X136264841Y-70456918D01*
X136200314Y-70375978D01*
X136131131Y-70289388D01*
X136058653Y-70198848D01*
X135984246Y-70106060D01*
X135924517Y-70031702D01*
X134913511Y-70031702D01*
X134907602Y-70044659D01*
X134893272Y-70066908D01*
X134892225Y-70068391D01*
X134873438Y-70098544D01*
X134853791Y-70135375D01*
X134849892Y-70143511D01*
X134846356Y-70151940D01*
X134843230Y-70162059D01*
X134840486Y-70175260D01*
X134838092Y-70192938D01*
X134836019Y-70216484D01*
X134834235Y-70247293D01*
X134832712Y-70286757D01*
X134831419Y-70336269D01*
X134830326Y-70397223D01*
X134829403Y-70471011D01*
X134828619Y-70559028D01*
X134827945Y-70662665D01*
X134827350Y-70783316D01*
X134826805Y-70922374D01*
X134826279Y-71081232D01*
X134825745Y-71260089D01*
X134825206Y-71445207D01*
X134824772Y-71609145D01*
X134824509Y-71753303D01*
X134824484Y-71879079D01*
X134824765Y-71987871D01*
X134825419Y-72081077D01*
X134826514Y-72160097D01*
X134828118Y-72226328D01*
X134830297Y-72281170D01*
X134833119Y-72326021D01*
X134836651Y-72362278D01*
X134840961Y-72391341D01*
X134846117Y-72414609D01*
X134852185Y-72433479D01*
X134859233Y-72449351D01*
X134867329Y-72463622D01*
X134876540Y-72477691D01*
X134885040Y-72490158D01*
X134902176Y-72516452D01*
X134912322Y-72534037D01*
X134913511Y-72537257D01*
X134902604Y-72538334D01*
X134871411Y-72539335D01*
X134822223Y-72540235D01*
X134757333Y-72541010D01*
X134679030Y-72541637D01*
X134589607Y-72542091D01*
X134491356Y-72542349D01*
X134422445Y-72542400D01*
X134317452Y-72542180D01*
X134220610Y-72541548D01*
X134134107Y-72540549D01*
X134060132Y-72539227D01*
X134000874Y-72537626D01*
X133958520Y-72535791D01*
X133935260Y-72533765D01*
X133931378Y-72532493D01*
X133939076Y-72517591D01*
X133947074Y-72509560D01*
X133960246Y-72492434D01*
X133977485Y-72462183D01*
X133989407Y-72437622D01*
X134016045Y-72378711D01*
X134019120Y-71201845D01*
X134022195Y-70024978D01*
X134467853Y-70024978D01*
X134565670Y-70025142D01*
X134656064Y-70025611D01*
X134736630Y-70026347D01*
X134804962Y-70027316D01*
X134858656Y-70028480D01*
X134895305Y-70029803D01*
X134912504Y-70031249D01*
X134913511Y-70031702D01*
X135924517Y-70031702D01*
X135909270Y-70012722D01*
X135835090Y-69920537D01*
X135763069Y-69831204D01*
X135694569Y-69746424D01*
X135630955Y-69667898D01*
X135573588Y-69597326D01*
X135523833Y-69536409D01*
X135483052Y-69486847D01*
X135465888Y-69466178D01*
X135379596Y-69365516D01*
X135302997Y-69282259D01*
X135234183Y-69214438D01*
X135171248Y-69160089D01*
X135161867Y-69152722D01*
X135122356Y-69122117D01*
X136254116Y-69121867D01*
X136248827Y-69169844D01*
X136252130Y-69227188D01*
X136273661Y-69295463D01*
X136313635Y-69375212D01*
X136358943Y-69447495D01*
X136375161Y-69470140D01*
X136403214Y-69507696D01*
X136441430Y-69558021D01*
X136488137Y-69618973D01*
X136541661Y-69688411D01*
X136600331Y-69764194D01*
X136662475Y-69844180D01*
X136726421Y-69926228D01*
X136790495Y-70008196D01*
X136853027Y-70087943D01*
X136912343Y-70163327D01*
X136966771Y-70232207D01*
X137014639Y-70292442D01*
X137054275Y-70341889D01*
X137084006Y-70378408D01*
X137102161Y-70399858D01*
X137105220Y-70403156D01*
X137108079Y-70395149D01*
X137110293Y-70364855D01*
X137111857Y-70312556D01*
X137112767Y-70238531D01*
X137113020Y-70143063D01*
X137112613Y-70026434D01*
X137111704Y-69906445D01*
X137110382Y-69774333D01*
X137108857Y-69662594D01*
X137106881Y-69569025D01*
X137104206Y-69491419D01*
X137100582Y-69427574D01*
X137095761Y-69375283D01*
X137089494Y-69332344D01*
X137081532Y-69296551D01*
X137071627Y-69265700D01*
X137059531Y-69237586D01*
X137044993Y-69210005D01*
X137030311Y-69184966D01*
X136992314Y-69121867D01*
X138052197Y-69121867D01*
X138355034Y-69121867D01*
X138355001Y-69115617D01*
X138354195Y-69013544D01*
X138353170Y-68924633D01*
X138351900Y-68847941D01*
X138350360Y-68782527D01*
X138348524Y-68727449D01*
X138346367Y-68681765D01*
X138343863Y-68644534D01*
X138340987Y-68614813D01*
X138337713Y-68591662D01*
X138334015Y-68574139D01*
X138329869Y-68561301D01*
X138325247Y-68552208D01*
X138320126Y-68545918D01*
X138314478Y-68541488D01*
X138308279Y-68537978D01*
X138301504Y-68534445D01*
X138295508Y-68530876D01*
X138290275Y-68528300D01*
X138282099Y-68525972D01*
X138269886Y-68523878D01*
X138252541Y-68522007D01*
X138228969Y-68520347D01*
X138198077Y-68518884D01*
X138158768Y-68517608D01*
X138109950Y-68516504D01*
X138050527Y-68515561D01*
X137979404Y-68514767D01*
X137895488Y-68514109D01*
X137797683Y-68513575D01*
X137684894Y-68513153D01*
X137556029Y-68512829D01*
X137409991Y-68512592D01*
X137245686Y-68512430D01*
X137062020Y-68512330D01*
X136857897Y-68512280D01*
X136646753Y-68512267D01*
X135026400Y-68512267D01*
X135026400Y-68609054D01*
G36*
X131751571Y-69069071D02*
G01*
X131591430Y-69090245D01*
X131427490Y-69130385D01*
X131257687Y-69189889D01*
X131079957Y-69269154D01*
X131068690Y-69274699D01*
X131010995Y-69302725D01*
X130959448Y-69326802D01*
X130917809Y-69345249D01*
X130889838Y-69356386D01*
X130880267Y-69358933D01*
X130861050Y-69363941D01*
X130856439Y-69368147D01*
X130861542Y-69378580D01*
X130877582Y-69404868D01*
X130902712Y-69444257D01*
X130935086Y-69493991D01*
X130972857Y-69551315D01*
X131014178Y-69613476D01*
X131057202Y-69677718D01*
X131100083Y-69741285D01*
X131140974Y-69801425D01*
X131178029Y-69855380D01*
X131209400Y-69900397D01*
X131233241Y-69933721D01*
X131247706Y-69952597D01*
X131249691Y-69954787D01*
X131259809Y-69950138D01*
X131282150Y-69932962D01*
X131312720Y-69906440D01*
X131328464Y-69891964D01*
X131424953Y-69816682D01*
X131531664Y-69761241D01*
X131647168Y-69726141D01*
X131770038Y-69711880D01*
X131839439Y-69713051D01*
X131960577Y-69730212D01*
X132069795Y-69766094D01*
X132167418Y-69820959D01*
X132253772Y-69895070D01*
X132329185Y-69988688D01*
X132393982Y-70102076D01*
X132431399Y-70188667D01*
X132475252Y-70324366D01*
X132507572Y-70471850D01*
X132528443Y-70627314D01*
X132537949Y-70786956D01*
X132536173Y-70946973D01*
X132523197Y-71103561D01*
X132499106Y-71252918D01*
X132463982Y-71391240D01*
X132417908Y-71514724D01*
X132401627Y-71548978D01*
X132333380Y-71663064D01*
X132252921Y-71759557D01*
X132161430Y-71837670D01*
X132060089Y-71896617D01*
X131950080Y-71935612D01*
X131832585Y-71953868D01*
X131791117Y-71955211D01*
X131669559Y-71944290D01*
X131549122Y-71911474D01*
X131431334Y-71857439D01*
X131317723Y-71782865D01*
X131226315Y-71704539D01*
X131179785Y-71660008D01*
X130998517Y-71957271D01*
X130953420Y-72031433D01*
X130912181Y-72099646D01*
X130876265Y-72159459D01*
X130847134Y-72208420D01*
X130826250Y-72244079D01*
X130815076Y-72263984D01*
X130813625Y-72267079D01*
X130821854Y-72276718D01*
X130847433Y-72293999D01*
X130887127Y-72317283D01*
X130937703Y-72344934D01*
X130995926Y-72375315D01*
X131058563Y-72406790D01*
X131122379Y-72437722D01*
X131184140Y-72466473D01*
X131240612Y-72491408D01*
X131288562Y-72510889D01*
X131312014Y-72519318D01*
X131445779Y-72557133D01*
X131583673Y-72582136D01*
X131731378Y-72595140D01*
X131858167Y-72597468D01*
X131926122Y-72596373D01*
X131991723Y-72594275D01*
X132049153Y-72591434D01*
X132092597Y-72588106D01*
X132106702Y-72586422D01*
X132245716Y-72557587D01*
X132387243Y-72512468D01*
X132524725Y-72453750D01*
X132651606Y-72384120D01*
X132729111Y-72331441D01*
X132856519Y-72223239D01*
X132974822Y-72096671D01*
X133081828Y-71954866D01*
X133175348Y-71800951D01*
X133253190Y-71638053D01*
X133297044Y-71520756D01*
X133347292Y-71337128D01*
X133380791Y-71142581D01*
X133397551Y-70941325D01*
X133397584Y-70737568D01*
X133380899Y-70535521D01*
X133347507Y-70339392D01*
X133297420Y-70153391D01*
X133293603Y-70141803D01*
X133230719Y-69979750D01*
X133153972Y-69831832D01*
X133060758Y-69693865D01*
X132948473Y-69561661D01*
X132904608Y-69516399D01*
X132768466Y-69392457D01*
X132628509Y-69289915D01*
X132482589Y-69207656D01*
X132328558Y-69144564D01*
X132164268Y-69099523D01*
X132068711Y-69082033D01*
X131909977Y-69066466D01*
X131751571Y-69069071D01*
G37*
X131751571Y-69069071D02*
X131591430Y-69090245D01*
X131427490Y-69130385D01*
X131257687Y-69189889D01*
X131079957Y-69269154D01*
X131068690Y-69274699D01*
X131010995Y-69302725D01*
X130959448Y-69326802D01*
X130917809Y-69345249D01*
X130889838Y-69356386D01*
X130880267Y-69358933D01*
X130861050Y-69363941D01*
X130856439Y-69368147D01*
X130861542Y-69378580D01*
X130877582Y-69404868D01*
X130902712Y-69444257D01*
X130935086Y-69493991D01*
X130972857Y-69551315D01*
X131014178Y-69613476D01*
X131057202Y-69677718D01*
X131100083Y-69741285D01*
X131140974Y-69801425D01*
X131178029Y-69855380D01*
X131209400Y-69900397D01*
X131233241Y-69933721D01*
X131247706Y-69952597D01*
X131249691Y-69954787D01*
X131259809Y-69950138D01*
X131282150Y-69932962D01*
X131312720Y-69906440D01*
X131328464Y-69891964D01*
X131424953Y-69816682D01*
X131531664Y-69761241D01*
X131647168Y-69726141D01*
X131770038Y-69711880D01*
X131839439Y-69713051D01*
X131960577Y-69730212D01*
X132069795Y-69766094D01*
X132167418Y-69820959D01*
X132253772Y-69895070D01*
X132329185Y-69988688D01*
X132393982Y-70102076D01*
X132431399Y-70188667D01*
X132475252Y-70324366D01*
X132507572Y-70471850D01*
X132528443Y-70627314D01*
X132537949Y-70786956D01*
X132536173Y-70946973D01*
X132523197Y-71103561D01*
X132499106Y-71252918D01*
X132463982Y-71391240D01*
X132417908Y-71514724D01*
X132401627Y-71548978D01*
X132333380Y-71663064D01*
X132252921Y-71759557D01*
X132161430Y-71837670D01*
X132060089Y-71896617D01*
X131950080Y-71935612D01*
X131832585Y-71953868D01*
X131791117Y-71955211D01*
X131669559Y-71944290D01*
X131549122Y-71911474D01*
X131431334Y-71857439D01*
X131317723Y-71782865D01*
X131226315Y-71704539D01*
X131179785Y-71660008D01*
X130998517Y-71957271D01*
X130953420Y-72031433D01*
X130912181Y-72099646D01*
X130876265Y-72159459D01*
X130847134Y-72208420D01*
X130826250Y-72244079D01*
X130815076Y-72263984D01*
X130813625Y-72267079D01*
X130821854Y-72276718D01*
X130847433Y-72293999D01*
X130887127Y-72317283D01*
X130937703Y-72344934D01*
X130995926Y-72375315D01*
X131058563Y-72406790D01*
X131122379Y-72437722D01*
X131184140Y-72466473D01*
X131240612Y-72491408D01*
X131288562Y-72510889D01*
X131312014Y-72519318D01*
X131445779Y-72557133D01*
X131583673Y-72582136D01*
X131731378Y-72595140D01*
X131858167Y-72597468D01*
X131926122Y-72596373D01*
X131991723Y-72594275D01*
X132049153Y-72591434D01*
X132092597Y-72588106D01*
X132106702Y-72586422D01*
X132245716Y-72557587D01*
X132387243Y-72512468D01*
X132524725Y-72453750D01*
X132651606Y-72384120D01*
X132729111Y-72331441D01*
X132856519Y-72223239D01*
X132974822Y-72096671D01*
X133081828Y-71954866D01*
X133175348Y-71800951D01*
X133253190Y-71638053D01*
X133297044Y-71520756D01*
X133347292Y-71337128D01*
X133380791Y-71142581D01*
X133397551Y-70941325D01*
X133397584Y-70737568D01*
X133380899Y-70535521D01*
X133347507Y-70339392D01*
X133297420Y-70153391D01*
X133293603Y-70141803D01*
X133230719Y-69979750D01*
X133153972Y-69831832D01*
X133060758Y-69693865D01*
X132948473Y-69561661D01*
X132904608Y-69516399D01*
X132768466Y-69392457D01*
X132628509Y-69289915D01*
X132482589Y-69207656D01*
X132328558Y-69144564D01*
X132164268Y-69099523D01*
X132068711Y-69082033D01*
X131909977Y-69066466D01*
X131751571Y-69069071D01*
G36*
X129406426Y-69986552D02*
G01*
X129254508Y-70006567D01*
X129119244Y-70040202D01*
X128999761Y-70087725D01*
X128895185Y-70149405D01*
X128817576Y-70212965D01*
X128748735Y-70287099D01*
X128694994Y-70366871D01*
X128652090Y-70459091D01*
X128636616Y-70502161D01*
X128623756Y-70541142D01*
X128612554Y-70577289D01*
X128602880Y-70612434D01*
X128594604Y-70648410D01*
X128587597Y-70687050D01*
X128581728Y-70730185D01*
X128576869Y-70779649D01*
X128572890Y-70837273D01*
X128569660Y-70904891D01*
X128567051Y-70984334D01*
X128564933Y-71077436D01*
X128563176Y-71186027D01*
X128561651Y-71311942D01*
X128560228Y-71457012D01*
X128558975Y-71599778D01*
X128557649Y-71755968D01*
X128556444Y-71891239D01*
X128555234Y-72007246D01*
X128553894Y-72105645D01*
X128552300Y-72188093D01*
X128550325Y-72256246D01*
X128547844Y-72311760D01*
X128544731Y-72356292D01*
X128540862Y-72391498D01*
X128536111Y-72419034D01*
X128530352Y-72440556D01*
X128523461Y-72457722D01*
X128515311Y-72472186D01*
X128505777Y-72485606D01*
X128494734Y-72499638D01*
X128490434Y-72505071D01*
X128474614Y-72527910D01*
X128467578Y-72543463D01*
X128467556Y-72543922D01*
X128478433Y-72546121D01*
X128509418Y-72548147D01*
X128558043Y-72549942D01*
X128621837Y-72551451D01*
X128698331Y-72552616D01*
X128785056Y-72553380D01*
X128879543Y-72553686D01*
X128890450Y-72553689D01*
X129313343Y-72553689D01*
X129316605Y-72457622D01*
X129319867Y-72361556D01*
X129381956Y-72412543D01*
X129479286Y-72480057D01*
X129589187Y-72534749D01*
X129675651Y-72564978D01*
X129744722Y-72579666D01*
X129828075Y-72589659D01*
X129917841Y-72594646D01*
X130006155Y-72594313D01*
X130085149Y-72588351D01*
X130121378Y-72582638D01*
X130261397Y-72544776D01*
X130387822Y-72489932D01*
X130499740Y-72418924D01*
X130596238Y-72332568D01*
X130676400Y-72231679D01*
X130739313Y-72117076D01*
X130783688Y-71990984D01*
X130796022Y-71934401D01*
X130803632Y-71872202D01*
X130807261Y-71797363D01*
X130807755Y-71763467D01*
X130807690Y-71760282D01*
X130047752Y-71760282D01*
X130038459Y-71835333D01*
X130010272Y-71899160D01*
X129961803Y-71954798D01*
X129956746Y-71959211D01*
X129908452Y-71994037D01*
X129856743Y-72016620D01*
X129796011Y-72028540D01*
X129720648Y-72031383D01*
X129702541Y-72030978D01*
X129648722Y-72028325D01*
X129608692Y-72022909D01*
X129573676Y-72012745D01*
X129534897Y-71995850D01*
X129524255Y-71990672D01*
X129463604Y-71954844D01*
X129416785Y-71912212D01*
X129404048Y-71896973D01*
X129359378Y-71840462D01*
X129359378Y-71644586D01*
X129359914Y-71565939D01*
X129361604Y-71507988D01*
X129364572Y-71468875D01*
X129368943Y-71446741D01*
X129373028Y-71440274D01*
X129388953Y-71437111D01*
X129422736Y-71434488D01*
X129469660Y-71432655D01*
X129525007Y-71431857D01*
X129533894Y-71431842D01*
X129654670Y-71437096D01*
X129757340Y-71453263D01*
X129843894Y-71480961D01*
X129916319Y-71520808D01*
X129971249Y-71567758D01*
X130015796Y-71625645D01*
X130040520Y-71688693D01*
X130047752Y-71760282D01*
X130807690Y-71760282D01*
X130805822Y-71669712D01*
X130797478Y-71590812D01*
X130781232Y-71519590D01*
X130755595Y-71448864D01*
X130731599Y-71396493D01*
X130672980Y-71301196D01*
X130594883Y-71213170D01*
X130499685Y-71134017D01*
X130389762Y-71065340D01*
X130267490Y-71008741D01*
X130135245Y-70965821D01*
X130070578Y-70950882D01*
X129934396Y-70928777D01*
X129785951Y-70914194D01*
X129634495Y-70907813D01*
X129507936Y-70909445D01*
X129346050Y-70916224D01*
X129353470Y-70857245D01*
X129372762Y-70758092D01*
X129403896Y-70677372D01*
X129447731Y-70614466D01*
X129505129Y-70568756D01*
X129576952Y-70539622D01*
X129664059Y-70526447D01*
X129767314Y-70528611D01*
X129805289Y-70532612D01*
X129946480Y-70557780D01*
X130083293Y-70598814D01*
X130177822Y-70636815D01*
X130222982Y-70656190D01*
X130261415Y-70671760D01*
X130287766Y-70681405D01*
X130295454Y-70683452D01*
X130305198Y-70674374D01*
X130321917Y-70645405D01*
X130345768Y-70596217D01*
X130376907Y-70526484D01*
X130415493Y-70435879D01*
X130422090Y-70420089D01*
X130452147Y-70347772D01*
X130479126Y-70282425D01*
X130501864Y-70226906D01*
X130519194Y-70184072D01*
X130529952Y-70156781D01*
X130533059Y-70147942D01*
X130523060Y-70143187D01*
X130496783Y-70137910D01*
X130468511Y-70134231D01*
X130438354Y-70129474D01*
X130390567Y-70120028D01*
X130329388Y-70106820D01*
X130259054Y-70090776D01*
X130183806Y-70072820D01*
X130155245Y-70065797D01*
X130050184Y-70040209D01*
X129962520Y-70020147D01*
X129887932Y-70004969D01*
X129822097Y-69994035D01*
X129760693Y-69986704D01*
X129699398Y-69982335D01*
X129633890Y-69980287D01*
X129575872Y-69979889D01*
X129406426Y-69986552D01*
G37*
X129406426Y-69986552D02*
X129254508Y-70006567D01*
X129119244Y-70040202D01*
X128999761Y-70087725D01*
X128895185Y-70149405D01*
X128817576Y-70212965D01*
X128748735Y-70287099D01*
X128694994Y-70366871D01*
X128652090Y-70459091D01*
X128636616Y-70502161D01*
X128623756Y-70541142D01*
X128612554Y-70577289D01*
X128602880Y-70612434D01*
X128594604Y-70648410D01*
X128587597Y-70687050D01*
X128581728Y-70730185D01*
X128576869Y-70779649D01*
X128572890Y-70837273D01*
X128569660Y-70904891D01*
X128567051Y-70984334D01*
X128564933Y-71077436D01*
X128563176Y-71186027D01*
X128561651Y-71311942D01*
X128560228Y-71457012D01*
X128558975Y-71599778D01*
X128557649Y-71755968D01*
X128556444Y-71891239D01*
X128555234Y-72007246D01*
X128553894Y-72105645D01*
X128552300Y-72188093D01*
X128550325Y-72256246D01*
X128547844Y-72311760D01*
X128544731Y-72356292D01*
X128540862Y-72391498D01*
X128536111Y-72419034D01*
X128530352Y-72440556D01*
X128523461Y-72457722D01*
X128515311Y-72472186D01*
X128505777Y-72485606D01*
X128494734Y-72499638D01*
X128490434Y-72505071D01*
X128474614Y-72527910D01*
X128467578Y-72543463D01*
X128467556Y-72543922D01*
X128478433Y-72546121D01*
X128509418Y-72548147D01*
X128558043Y-72549942D01*
X128621837Y-72551451D01*
X128698331Y-72552616D01*
X128785056Y-72553380D01*
X128879543Y-72553686D01*
X128890450Y-72553689D01*
X129313343Y-72553689D01*
X129316605Y-72457622D01*
X129319867Y-72361556D01*
X129381956Y-72412543D01*
X129479286Y-72480057D01*
X129589187Y-72534749D01*
X129675651Y-72564978D01*
X129744722Y-72579666D01*
X129828075Y-72589659D01*
X129917841Y-72594646D01*
X130006155Y-72594313D01*
X130085149Y-72588351D01*
X130121378Y-72582638D01*
X130261397Y-72544776D01*
X130387822Y-72489932D01*
X130499740Y-72418924D01*
X130596238Y-72332568D01*
X130676400Y-72231679D01*
X130739313Y-72117076D01*
X130783688Y-71990984D01*
X130796022Y-71934401D01*
X130803632Y-71872202D01*
X130807261Y-71797363D01*
X130807755Y-71763467D01*
X130807690Y-71760282D01*
X130047752Y-71760282D01*
X130038459Y-71835333D01*
X130010272Y-71899160D01*
X129961803Y-71954798D01*
X129956746Y-71959211D01*
X129908452Y-71994037D01*
X129856743Y-72016620D01*
X129796011Y-72028540D01*
X129720648Y-72031383D01*
X129702541Y-72030978D01*
X129648722Y-72028325D01*
X129608692Y-72022909D01*
X129573676Y-72012745D01*
X129534897Y-71995850D01*
X129524255Y-71990672D01*
X129463604Y-71954844D01*
X129416785Y-71912212D01*
X129404048Y-71896973D01*
X129359378Y-71840462D01*
X129359378Y-71644586D01*
X129359914Y-71565939D01*
X129361604Y-71507988D01*
X129364572Y-71468875D01*
X129368943Y-71446741D01*
X129373028Y-71440274D01*
X129388953Y-71437111D01*
X129422736Y-71434488D01*
X129469660Y-71432655D01*
X129525007Y-71431857D01*
X129533894Y-71431842D01*
X129654670Y-71437096D01*
X129757340Y-71453263D01*
X129843894Y-71480961D01*
X129916319Y-71520808D01*
X129971249Y-71567758D01*
X130015796Y-71625645D01*
X130040520Y-71688693D01*
X130047752Y-71760282D01*
X130807690Y-71760282D01*
X130805822Y-71669712D01*
X130797478Y-71590812D01*
X130781232Y-71519590D01*
X130755595Y-71448864D01*
X130731599Y-71396493D01*
X130672980Y-71301196D01*
X130594883Y-71213170D01*
X130499685Y-71134017D01*
X130389762Y-71065340D01*
X130267490Y-71008741D01*
X130135245Y-70965821D01*
X130070578Y-70950882D01*
X129934396Y-70928777D01*
X129785951Y-70914194D01*
X129634495Y-70907813D01*
X129507936Y-70909445D01*
X129346050Y-70916224D01*
X129353470Y-70857245D01*
X129372762Y-70758092D01*
X129403896Y-70677372D01*
X129447731Y-70614466D01*
X129505129Y-70568756D01*
X129576952Y-70539622D01*
X129664059Y-70526447D01*
X129767314Y-70528611D01*
X129805289Y-70532612D01*
X129946480Y-70557780D01*
X130083293Y-70598814D01*
X130177822Y-70636815D01*
X130222982Y-70656190D01*
X130261415Y-70671760D01*
X130287766Y-70681405D01*
X130295454Y-70683452D01*
X130305198Y-70674374D01*
X130321917Y-70645405D01*
X130345768Y-70596217D01*
X130376907Y-70526484D01*
X130415493Y-70435879D01*
X130422090Y-70420089D01*
X130452147Y-70347772D01*
X130479126Y-70282425D01*
X130501864Y-70226906D01*
X130519194Y-70184072D01*
X130529952Y-70156781D01*
X130533059Y-70147942D01*
X130523060Y-70143187D01*
X130496783Y-70137910D01*
X130468511Y-70134231D01*
X130438354Y-70129474D01*
X130390567Y-70120028D01*
X130329388Y-70106820D01*
X130259054Y-70090776D01*
X130183806Y-70072820D01*
X130155245Y-70065797D01*
X130050184Y-70040209D01*
X129962520Y-70020147D01*
X129887932Y-70004969D01*
X129822097Y-69994035D01*
X129760693Y-69986704D01*
X129699398Y-69982335D01*
X129633890Y-69980287D01*
X129575872Y-69979889D01*
X129406426Y-69986552D01*
G36*
X125893493Y-70592245D02*
G01*
X125893474Y-70826662D01*
X125893448Y-71039603D01*
X125893375Y-71232168D01*
X125893218Y-71405459D01*
X125892936Y-71560576D01*
X125892491Y-71698620D01*
X125891844Y-71820692D01*
X125890955Y-71927894D01*
X125889787Y-72021326D01*
X125888299Y-72102090D01*
X125886454Y-72171286D01*
X125884211Y-72230015D01*
X125881531Y-72279379D01*
X125878377Y-72320478D01*
X125874708Y-72354413D01*
X125870487Y-72382286D01*
X125865673Y-72405198D01*
X125860227Y-72424249D01*
X125854112Y-72440540D01*
X125847288Y-72455173D01*
X125839715Y-72469249D01*
X125831355Y-72483868D01*
X125826161Y-72492974D01*
X125791896Y-72553689D01*
X126650045Y-72553689D01*
X126650045Y-72457733D01*
X126650776Y-72414370D01*
X126652728Y-72381205D01*
X126655537Y-72363424D01*
X126656779Y-72361778D01*
X126668201Y-72368662D01*
X126690916Y-72386505D01*
X126713615Y-72405879D01*
X126768200Y-72446614D01*
X126837679Y-72487617D01*
X126914730Y-72525123D01*
X126992035Y-72555364D01*
X127022887Y-72565012D01*
X127091384Y-72579578D01*
X127174236Y-72589539D01*
X127263629Y-72594583D01*
X127351752Y-72594396D01*
X127430793Y-72588666D01*
X127468489Y-72582858D01*
X127606586Y-72544797D01*
X127733887Y-72487073D01*
X127849708Y-72410211D01*
X127953363Y-72314739D01*
X128044167Y-72201179D01*
X128110969Y-72090381D01*
X128165836Y-71973625D01*
X128207837Y-71854276D01*
X128237833Y-71728283D01*
X128256689Y-71591594D01*
X128265268Y-71440158D01*
X128265994Y-71362711D01*
X128263900Y-71305934D01*
X127434783Y-71305934D01*
X127434576Y-71399002D01*
X127431663Y-71486692D01*
X127426000Y-71563772D01*
X127417545Y-71625009D01*
X127414962Y-71637350D01*
X127383160Y-71744633D01*
X127341502Y-71831658D01*
X127289637Y-71898642D01*
X127227219Y-71945805D01*
X127153900Y-71973365D01*
X127069331Y-71981541D01*
X126973165Y-71970551D01*
X126909689Y-71954829D01*
X126860546Y-71936639D01*
X126806417Y-71910791D01*
X126765756Y-71887089D01*
X126695200Y-71840721D01*
X126695200Y-70690530D01*
X126762608Y-70646962D01*
X126841133Y-70606040D01*
X126925319Y-70579389D01*
X127010443Y-70567465D01*
X127091784Y-70570722D01*
X127164620Y-70589615D01*
X127196574Y-70605184D01*
X127254499Y-70648181D01*
X127303456Y-70704953D01*
X127344610Y-70777575D01*
X127379126Y-70868121D01*
X127408167Y-70978666D01*
X127409448Y-70984533D01*
X127419619Y-71046788D01*
X127427261Y-71124594D01*
X127432330Y-71212720D01*
X127434783Y-71305934D01*
X128263900Y-71305934D01*
X128258143Y-71149895D01*
X128236198Y-70954059D01*
X128200214Y-70775332D01*
X128150241Y-70613845D01*
X128086332Y-70469726D01*
X128008538Y-70343106D01*
X127916911Y-70234115D01*
X127811503Y-70142883D01*
X127766338Y-70111932D01*
X127665389Y-70055785D01*
X127562099Y-70016174D01*
X127452011Y-69992014D01*
X127330670Y-69982219D01*
X127238164Y-69983265D01*
X127108510Y-69994231D01*
X126995916Y-70016046D01*
X126897125Y-70049714D01*
X126808879Y-70096236D01*
X126760014Y-70130448D01*
X126730647Y-70152362D01*
X126708957Y-70167333D01*
X126700747Y-70171733D01*
X126699132Y-70160904D01*
X126697841Y-70130251D01*
X126696862Y-70082526D01*
X126696183Y-70020479D01*
X126695790Y-69946862D01*
X126695670Y-69864427D01*
X126695812Y-69775925D01*
X126696203Y-69684107D01*
X126696829Y-69591724D01*
X126697680Y-69501528D01*
X126698740Y-69416271D01*
X126699999Y-69338703D01*
X126701444Y-69271576D01*
X126703062Y-69217641D01*
X126704839Y-69179650D01*
X126705331Y-69172667D01*
X126712908Y-69102251D01*
X126724469Y-69047102D01*
X126742208Y-68999981D01*
X126768318Y-68953647D01*
X126774585Y-68944067D01*
X126799017Y-68907378D01*
X125893689Y-68907378D01*
X125893493Y-70592245D01*
G37*
X125893493Y-70592245D02*
X125893474Y-70826662D01*
X125893448Y-71039603D01*
X125893375Y-71232168D01*
X125893218Y-71405459D01*
X125892936Y-71560576D01*
X125892491Y-71698620D01*
X125891844Y-71820692D01*
X125890955Y-71927894D01*
X125889787Y-72021326D01*
X125888299Y-72102090D01*
X125886454Y-72171286D01*
X125884211Y-72230015D01*
X125881531Y-72279379D01*
X125878377Y-72320478D01*
X125874708Y-72354413D01*
X125870487Y-72382286D01*
X125865673Y-72405198D01*
X125860227Y-72424249D01*
X125854112Y-72440540D01*
X125847288Y-72455173D01*
X125839715Y-72469249D01*
X125831355Y-72483868D01*
X125826161Y-72492974D01*
X125791896Y-72553689D01*
X126650045Y-72553689D01*
X126650045Y-72457733D01*
X126650776Y-72414370D01*
X126652728Y-72381205D01*
X126655537Y-72363424D01*
X126656779Y-72361778D01*
X126668201Y-72368662D01*
X126690916Y-72386505D01*
X126713615Y-72405879D01*
X126768200Y-72446614D01*
X126837679Y-72487617D01*
X126914730Y-72525123D01*
X126992035Y-72555364D01*
X127022887Y-72565012D01*
X127091384Y-72579578D01*
X127174236Y-72589539D01*
X127263629Y-72594583D01*
X127351752Y-72594396D01*
X127430793Y-72588666D01*
X127468489Y-72582858D01*
X127606586Y-72544797D01*
X127733887Y-72487073D01*
X127849708Y-72410211D01*
X127953363Y-72314739D01*
X128044167Y-72201179D01*
X128110969Y-72090381D01*
X128165836Y-71973625D01*
X128207837Y-71854276D01*
X128237833Y-71728283D01*
X128256689Y-71591594D01*
X128265268Y-71440158D01*
X128265994Y-71362711D01*
X128263900Y-71305934D01*
X127434783Y-71305934D01*
X127434576Y-71399002D01*
X127431663Y-71486692D01*
X127426000Y-71563772D01*
X127417545Y-71625009D01*
X127414962Y-71637350D01*
X127383160Y-71744633D01*
X127341502Y-71831658D01*
X127289637Y-71898642D01*
X127227219Y-71945805D01*
X127153900Y-71973365D01*
X127069331Y-71981541D01*
X126973165Y-71970551D01*
X126909689Y-71954829D01*
X126860546Y-71936639D01*
X126806417Y-71910791D01*
X126765756Y-71887089D01*
X126695200Y-71840721D01*
X126695200Y-70690530D01*
X126762608Y-70646962D01*
X126841133Y-70606040D01*
X126925319Y-70579389D01*
X127010443Y-70567465D01*
X127091784Y-70570722D01*
X127164620Y-70589615D01*
X127196574Y-70605184D01*
X127254499Y-70648181D01*
X127303456Y-70704953D01*
X127344610Y-70777575D01*
X127379126Y-70868121D01*
X127408167Y-70978666D01*
X127409448Y-70984533D01*
X127419619Y-71046788D01*
X127427261Y-71124594D01*
X127432330Y-71212720D01*
X127434783Y-71305934D01*
X128263900Y-71305934D01*
X128258143Y-71149895D01*
X128236198Y-70954059D01*
X128200214Y-70775332D01*
X128150241Y-70613845D01*
X128086332Y-70469726D01*
X128008538Y-70343106D01*
X127916911Y-70234115D01*
X127811503Y-70142883D01*
X127766338Y-70111932D01*
X127665389Y-70055785D01*
X127562099Y-70016174D01*
X127452011Y-69992014D01*
X127330670Y-69982219D01*
X127238164Y-69983265D01*
X127108510Y-69994231D01*
X126995916Y-70016046D01*
X126897125Y-70049714D01*
X126808879Y-70096236D01*
X126760014Y-70130448D01*
X126730647Y-70152362D01*
X126708957Y-70167333D01*
X126700747Y-70171733D01*
X126699132Y-70160904D01*
X126697841Y-70130251D01*
X126696862Y-70082526D01*
X126696183Y-70020479D01*
X126695790Y-69946862D01*
X126695670Y-69864427D01*
X126695812Y-69775925D01*
X126696203Y-69684107D01*
X126696829Y-69591724D01*
X126697680Y-69501528D01*
X126698740Y-69416271D01*
X126699999Y-69338703D01*
X126701444Y-69271576D01*
X126703062Y-69217641D01*
X126704839Y-69179650D01*
X126705331Y-69172667D01*
X126712908Y-69102251D01*
X126724469Y-69047102D01*
X126742208Y-68999981D01*
X126768318Y-68953647D01*
X126774585Y-68944067D01*
X126799017Y-68907378D01*
X125893689Y-68907378D01*
X125893493Y-70592245D01*
G36*
X134353043Y-68146571D02*
G01*
X134256768Y-68170809D01*
X134170184Y-68213641D01*
X134095373Y-68273419D01*
X134034418Y-68348494D01*
X133989399Y-68437220D01*
X133963136Y-68533530D01*
X133957286Y-68630795D01*
X133972140Y-68724654D01*
X134005840Y-68812511D01*
X134056528Y-68891770D01*
X134122345Y-68959836D01*
X134201434Y-69014112D01*
X134291934Y-69052002D01*
X134343200Y-69064426D01*
X134387698Y-69071947D01*
X134421999Y-69074919D01*
X134454960Y-69073094D01*
X134495434Y-69066225D01*
X134528531Y-69059250D01*
X134621947Y-69027741D01*
X134705619Y-68976617D01*
X134777665Y-68907429D01*
X134836200Y-68821728D01*
X134850148Y-68794489D01*
X134866586Y-68758122D01*
X134876894Y-68727582D01*
X134882460Y-68695450D01*
X134884669Y-68654307D01*
X134884948Y-68608222D01*
X134880861Y-68523865D01*
X134867446Y-68454586D01*
X134842256Y-68393961D01*
X134802846Y-68335567D01*
X134764298Y-68291302D01*
X134692406Y-68225484D01*
X134617313Y-68180053D01*
X134534562Y-68152850D01*
X134456928Y-68142576D01*
X134353043Y-68146571D01*
G37*
X134353043Y-68146571D02*
X134256768Y-68170809D01*
X134170184Y-68213641D01*
X134095373Y-68273419D01*
X134034418Y-68348494D01*
X133989399Y-68437220D01*
X133963136Y-68533530D01*
X133957286Y-68630795D01*
X133972140Y-68724654D01*
X134005840Y-68812511D01*
X134056528Y-68891770D01*
X134122345Y-68959836D01*
X134201434Y-69014112D01*
X134291934Y-69052002D01*
X134343200Y-69064426D01*
X134387698Y-69071947D01*
X134421999Y-69074919D01*
X134454960Y-69073094D01*
X134495434Y-69066225D01*
X134528531Y-69059250D01*
X134621947Y-69027741D01*
X134705619Y-68976617D01*
X134777665Y-68907429D01*
X134836200Y-68821728D01*
X134850148Y-68794489D01*
X134866586Y-68758122D01*
X134876894Y-68727582D01*
X134882460Y-68695450D01*
X134884669Y-68654307D01*
X134884948Y-68608222D01*
X134880861Y-68523865D01*
X134867446Y-68454586D01*
X134842256Y-68393961D01*
X134802846Y-68335567D01*
X134764298Y-68291302D01*
X134692406Y-68225484D01*
X134617313Y-68180053D01*
X134534562Y-68152850D01*
X134456928Y-68142576D01*
X134353043Y-68146571D01*
G36*
X138201371Y-73389066D02*
G01*
X138161889Y-73389467D01*
X138046200Y-73392259D01*
X137949311Y-73400550D01*
X137867919Y-73415232D01*
X137798723Y-73437193D01*
X137738420Y-73467322D01*
X137683708Y-73506510D01*
X137664167Y-73523532D01*
X137631750Y-73563363D01*
X137602520Y-73617413D01*
X137579991Y-73677323D01*
X137567679Y-73734739D01*
X137566400Y-73755956D01*
X137574417Y-73814769D01*
X137595899Y-73879013D01*
X137626999Y-73939821D01*
X137663866Y-73988330D01*
X137669854Y-73994182D01*
X137720579Y-74035321D01*
X137776125Y-74067435D01*
X137839696Y-74091365D01*
X137914494Y-74107953D01*
X138003722Y-74118041D01*
X138110582Y-74122469D01*
X138159528Y-74122845D01*
X138221762Y-74122545D01*
X138265528Y-74121292D01*
X138294931Y-74118554D01*
X138314079Y-74113801D01*
X138327077Y-74106501D01*
X138334045Y-74100267D01*
X138340626Y-74092694D01*
X138345788Y-74082924D01*
X138349703Y-74068340D01*
X138352543Y-74046326D01*
X138354480Y-74014264D01*
X138355684Y-73969536D01*
X138356328Y-73909526D01*
X138356583Y-73831617D01*
X138356622Y-73755956D01*
X138356870Y-73655041D01*
X138356817Y-73574427D01*
X138355857Y-73535822D01*
X138209867Y-73535822D01*
X138209867Y-73976089D01*
X138116734Y-73976004D01*
X138060693Y-73974396D01*
X138001999Y-73970256D01*
X137953028Y-73964464D01*
X137951538Y-73964226D01*
X137872392Y-73945090D01*
X137811002Y-73915287D01*
X137764305Y-73872878D01*
X137734635Y-73826961D01*
X137716353Y-73776026D01*
X137717771Y-73728200D01*
X137738988Y-73676933D01*
X137780489Y-73623899D01*
X137837998Y-73584600D01*
X137912750Y-73558331D01*
X137962708Y-73549035D01*
X138019416Y-73542507D01*
X138079519Y-73537782D01*
X138130639Y-73535817D01*
X138133667Y-73535808D01*
X138209867Y-73535822D01*
X138355857Y-73535822D01*
X138355260Y-73511851D01*
X138350998Y-73465055D01*
X138342830Y-73431778D01*
X138329556Y-73409759D01*
X138309974Y-73396739D01*
X138282883Y-73390457D01*
X138247082Y-73388653D01*
X138201371Y-73389066D01*
G37*
X138201371Y-73389066D02*
X138161889Y-73389467D01*
X138046200Y-73392259D01*
X137949311Y-73400550D01*
X137867919Y-73415232D01*
X137798723Y-73437193D01*
X137738420Y-73467322D01*
X137683708Y-73506510D01*
X137664167Y-73523532D01*
X137631750Y-73563363D01*
X137602520Y-73617413D01*
X137579991Y-73677323D01*
X137567679Y-73734739D01*
X137566400Y-73755956D01*
X137574417Y-73814769D01*
X137595899Y-73879013D01*
X137626999Y-73939821D01*
X137663866Y-73988330D01*
X137669854Y-73994182D01*
X137720579Y-74035321D01*
X137776125Y-74067435D01*
X137839696Y-74091365D01*
X137914494Y-74107953D01*
X138003722Y-74118041D01*
X138110582Y-74122469D01*
X138159528Y-74122845D01*
X138221762Y-74122545D01*
X138265528Y-74121292D01*
X138294931Y-74118554D01*
X138314079Y-74113801D01*
X138327077Y-74106501D01*
X138334045Y-74100267D01*
X138340626Y-74092694D01*
X138345788Y-74082924D01*
X138349703Y-74068340D01*
X138352543Y-74046326D01*
X138354480Y-74014264D01*
X138355684Y-73969536D01*
X138356328Y-73909526D01*
X138356583Y-73831617D01*
X138356622Y-73755956D01*
X138356870Y-73655041D01*
X138356817Y-73574427D01*
X138355857Y-73535822D01*
X138209867Y-73535822D01*
X138209867Y-73976089D01*
X138116734Y-73976004D01*
X138060693Y-73974396D01*
X138001999Y-73970256D01*
X137953028Y-73964464D01*
X137951538Y-73964226D01*
X137872392Y-73945090D01*
X137811002Y-73915287D01*
X137764305Y-73872878D01*
X137734635Y-73826961D01*
X137716353Y-73776026D01*
X137717771Y-73728200D01*
X137738988Y-73676933D01*
X137780489Y-73623899D01*
X137837998Y-73584600D01*
X137912750Y-73558331D01*
X137962708Y-73549035D01*
X138019416Y-73542507D01*
X138079519Y-73537782D01*
X138130639Y-73535817D01*
X138133667Y-73535808D01*
X138209867Y-73535822D01*
X138355857Y-73535822D01*
X138355260Y-73511851D01*
X138350998Y-73465055D01*
X138342830Y-73431778D01*
X138329556Y-73409759D01*
X138309974Y-73396739D01*
X138282883Y-73390457D01*
X138247082Y-73388653D01*
X138201371Y-73389066D01*
G36*
X136792794Y-73389146D02*
G01*
X136723386Y-73389518D01*
X136670997Y-73390385D01*
X136632847Y-73391946D01*
X136606159Y-73394403D01*
X136588153Y-73397957D01*
X136576049Y-73402810D01*
X136567069Y-73409161D01*
X136563818Y-73412084D01*
X136544043Y-73443142D01*
X136540482Y-73478828D01*
X136553491Y-73510510D01*
X136559506Y-73516913D01*
X136569235Y-73523121D01*
X136584901Y-73527910D01*
X136609408Y-73531514D01*
X136645661Y-73534164D01*
X136696565Y-73536095D01*
X136765026Y-73537539D01*
X136827617Y-73538418D01*
X137075334Y-73541467D01*
X137078719Y-73606378D01*
X137082105Y-73671289D01*
X136913958Y-73671289D01*
X136840959Y-73671919D01*
X136787517Y-73674553D01*
X136750628Y-73680309D01*
X136727288Y-73690304D01*
X136714494Y-73705656D01*
X136709242Y-73727482D01*
X136708445Y-73747738D01*
X136710923Y-73772592D01*
X136720277Y-73790906D01*
X136739383Y-73803637D01*
X136771118Y-73811741D01*
X136818359Y-73816176D01*
X136883983Y-73817899D01*
X136919801Y-73818045D01*
X137080978Y-73818045D01*
X137080978Y-73976089D01*
X136832622Y-73976089D01*
X136751213Y-73976202D01*
X136689342Y-73976712D01*
X136643968Y-73977870D01*
X136612054Y-73979930D01*
X136590559Y-73983146D01*
X136576443Y-73987772D01*
X136566668Y-73994059D01*
X136561689Y-73998667D01*
X136544610Y-74025560D01*
X136539111Y-74049467D01*
X136546963Y-74078667D01*
X136561689Y-74100267D01*
X136569546Y-74107066D01*
X136579688Y-74112346D01*
X136594844Y-74116298D01*
X136617741Y-74119113D01*
X136651109Y-74120982D01*
X136697675Y-74122098D01*
X136760167Y-74122651D01*
X136841314Y-74122833D01*
X136883422Y-74122845D01*
X136973598Y-74122765D01*
X137043924Y-74122398D01*
X137097129Y-74121552D01*
X137135940Y-74120036D01*
X137163087Y-74117659D01*
X137181298Y-74114229D01*
X137193300Y-74109554D01*
X137201822Y-74103444D01*
X137205156Y-74100267D01*
X137211755Y-74092670D01*
X137216927Y-74082870D01*
X137220846Y-74068239D01*
X137223684Y-74046152D01*
X137225615Y-74013982D01*
X137226812Y-73969103D01*
X137227448Y-73908889D01*
X137227697Y-73830713D01*
X137227734Y-73757923D01*
X137227700Y-73664707D01*
X137227465Y-73591431D01*
X137226830Y-73535458D01*
X137225594Y-73494151D01*
X137223556Y-73464872D01*
X137220517Y-73444984D01*
X137216277Y-73431850D01*
X137210635Y-73422832D01*
X137203391Y-73415293D01*
X137201606Y-73413612D01*
X137192945Y-73406172D01*
X137182882Y-73400409D01*
X137168625Y-73396112D01*
X137147383Y-73393064D01*
X137116364Y-73391051D01*
X137072777Y-73389860D01*
X137013831Y-73389275D01*
X136936734Y-73389083D01*
X136882001Y-73389067D01*
X136792794Y-73389146D01*
G37*
X136792794Y-73389146D02*
X136723386Y-73389518D01*
X136670997Y-73390385D01*
X136632847Y-73391946D01*
X136606159Y-73394403D01*
X136588153Y-73397957D01*
X136576049Y-73402810D01*
X136567069Y-73409161D01*
X136563818Y-73412084D01*
X136544043Y-73443142D01*
X136540482Y-73478828D01*
X136553491Y-73510510D01*
X136559506Y-73516913D01*
X136569235Y-73523121D01*
X136584901Y-73527910D01*
X136609408Y-73531514D01*
X136645661Y-73534164D01*
X136696565Y-73536095D01*
X136765026Y-73537539D01*
X136827617Y-73538418D01*
X137075334Y-73541467D01*
X137078719Y-73606378D01*
X137082105Y-73671289D01*
X136913958Y-73671289D01*
X136840959Y-73671919D01*
X136787517Y-73674553D01*
X136750628Y-73680309D01*
X136727288Y-73690304D01*
X136714494Y-73705656D01*
X136709242Y-73727482D01*
X136708445Y-73747738D01*
X136710923Y-73772592D01*
X136720277Y-73790906D01*
X136739383Y-73803637D01*
X136771118Y-73811741D01*
X136818359Y-73816176D01*
X136883983Y-73817899D01*
X136919801Y-73818045D01*
X137080978Y-73818045D01*
X137080978Y-73976089D01*
X136832622Y-73976089D01*
X136751213Y-73976202D01*
X136689342Y-73976712D01*
X136643968Y-73977870D01*
X136612054Y-73979930D01*
X136590559Y-73983146D01*
X136576443Y-73987772D01*
X136566668Y-73994059D01*
X136561689Y-73998667D01*
X136544610Y-74025560D01*
X136539111Y-74049467D01*
X136546963Y-74078667D01*
X136561689Y-74100267D01*
X136569546Y-74107066D01*
X136579688Y-74112346D01*
X136594844Y-74116298D01*
X136617741Y-74119113D01*
X136651109Y-74120982D01*
X136697675Y-74122098D01*
X136760167Y-74122651D01*
X136841314Y-74122833D01*
X136883422Y-74122845D01*
X136973598Y-74122765D01*
X137043924Y-74122398D01*
X137097129Y-74121552D01*
X137135940Y-74120036D01*
X137163087Y-74117659D01*
X137181298Y-74114229D01*
X137193300Y-74109554D01*
X137201822Y-74103444D01*
X137205156Y-74100267D01*
X137211755Y-74092670D01*
X137216927Y-74082870D01*
X137220846Y-74068239D01*
X137223684Y-74046152D01*
X137225615Y-74013982D01*
X137226812Y-73969103D01*
X137227448Y-73908889D01*
X137227697Y-73830713D01*
X137227734Y-73757923D01*
X137227700Y-73664707D01*
X137227465Y-73591431D01*
X137226830Y-73535458D01*
X137225594Y-73494151D01*
X137223556Y-73464872D01*
X137220517Y-73444984D01*
X137216277Y-73431850D01*
X137210635Y-73422832D01*
X137203391Y-73415293D01*
X137201606Y-73413612D01*
X137192945Y-73406172D01*
X137182882Y-73400409D01*
X137168625Y-73396112D01*
X137147383Y-73393064D01*
X137116364Y-73391051D01*
X137072777Y-73389860D01*
X137013831Y-73389275D01*
X136936734Y-73389083D01*
X136882001Y-73389067D01*
X136792794Y-73389146D01*
G36*
X135771703Y-73390351D02*
G01*
X135696888Y-73395581D01*
X135627306Y-73403750D01*
X135567002Y-73414550D01*
X135520020Y-73427673D01*
X135490406Y-73442813D01*
X135485860Y-73447269D01*
X135470054Y-73481850D01*
X135474847Y-73517351D01*
X135499364Y-73547725D01*
X135500534Y-73548596D01*
X135514954Y-73557954D01*
X135530008Y-73562876D01*
X135551005Y-73563473D01*
X135583257Y-73559861D01*
X135632073Y-73552154D01*
X135636000Y-73551505D01*
X135708739Y-73542569D01*
X135787217Y-73538161D01*
X135865927Y-73538119D01*
X135939361Y-73542279D01*
X136002011Y-73550479D01*
X136048370Y-73562557D01*
X136051416Y-73563771D01*
X136085048Y-73582615D01*
X136096864Y-73601685D01*
X136087614Y-73620439D01*
X136058047Y-73638337D01*
X136008911Y-73654837D01*
X135940957Y-73669396D01*
X135895645Y-73676406D01*
X135801456Y-73689889D01*
X135726544Y-73702214D01*
X135667717Y-73714449D01*
X135621785Y-73727661D01*
X135585555Y-73742917D01*
X135555838Y-73761285D01*
X135529442Y-73783831D01*
X135508230Y-73805971D01*
X135483065Y-73836819D01*
X135470681Y-73863345D01*
X135466808Y-73896026D01*
X135466667Y-73907995D01*
X135469576Y-73947712D01*
X135481202Y-73977259D01*
X135501323Y-74003486D01*
X135542216Y-74043576D01*
X135587817Y-74074149D01*
X135641513Y-74096203D01*
X135706692Y-74110735D01*
X135786744Y-74118741D01*
X135885057Y-74121218D01*
X135901289Y-74121177D01*
X135966849Y-74119818D01*
X136031866Y-74116730D01*
X136089252Y-74112356D01*
X136131922Y-74107140D01*
X136135372Y-74106541D01*
X136177796Y-74096491D01*
X136213780Y-74083796D01*
X136234150Y-74072190D01*
X136253107Y-74041572D01*
X136254427Y-74005918D01*
X136238085Y-73974144D01*
X136234429Y-73970551D01*
X136219315Y-73959876D01*
X136200415Y-73955276D01*
X136171162Y-73956059D01*
X136135651Y-73960127D01*
X136095970Y-73963762D01*
X136040345Y-73966828D01*
X135975406Y-73969053D01*
X135907785Y-73970164D01*
X135890000Y-73970237D01*
X135822128Y-73969964D01*
X135772454Y-73968646D01*
X135736610Y-73965827D01*
X135710224Y-73961050D01*
X135688926Y-73953857D01*
X135676126Y-73947867D01*
X135648000Y-73931233D01*
X135630068Y-73916168D01*
X135627447Y-73911897D01*
X135632976Y-73894263D01*
X135659260Y-73877192D01*
X135704478Y-73861458D01*
X135766808Y-73847838D01*
X135785171Y-73844804D01*
X135881090Y-73829738D01*
X135957641Y-73817146D01*
X136017780Y-73806111D01*
X136064460Y-73795720D01*
X136100637Y-73785056D01*
X136129265Y-73773205D01*
X136153298Y-73759251D01*
X136175692Y-73742281D01*
X136199402Y-73721378D01*
X136207380Y-73714049D01*
X136235353Y-73686699D01*
X136250160Y-73665029D01*
X136255952Y-73640232D01*
X136256889Y-73608983D01*
X136246575Y-73547705D01*
X136215752Y-73495640D01*
X136164595Y-73452958D01*
X136093283Y-73419825D01*
X136042400Y-73404964D01*
X135987100Y-73395366D01*
X135920853Y-73389936D01*
X135847706Y-73388367D01*
X135771703Y-73390351D01*
G37*
X135771703Y-73390351D02*
X135696888Y-73395581D01*
X135627306Y-73403750D01*
X135567002Y-73414550D01*
X135520020Y-73427673D01*
X135490406Y-73442813D01*
X135485860Y-73447269D01*
X135470054Y-73481850D01*
X135474847Y-73517351D01*
X135499364Y-73547725D01*
X135500534Y-73548596D01*
X135514954Y-73557954D01*
X135530008Y-73562876D01*
X135551005Y-73563473D01*
X135583257Y-73559861D01*
X135632073Y-73552154D01*
X135636000Y-73551505D01*
X135708739Y-73542569D01*
X135787217Y-73538161D01*
X135865927Y-73538119D01*
X135939361Y-73542279D01*
X136002011Y-73550479D01*
X136048370Y-73562557D01*
X136051416Y-73563771D01*
X136085048Y-73582615D01*
X136096864Y-73601685D01*
X136087614Y-73620439D01*
X136058047Y-73638337D01*
X136008911Y-73654837D01*
X135940957Y-73669396D01*
X135895645Y-73676406D01*
X135801456Y-73689889D01*
X135726544Y-73702214D01*
X135667717Y-73714449D01*
X135621785Y-73727661D01*
X135585555Y-73742917D01*
X135555838Y-73761285D01*
X135529442Y-73783831D01*
X135508230Y-73805971D01*
X135483065Y-73836819D01*
X135470681Y-73863345D01*
X135466808Y-73896026D01*
X135466667Y-73907995D01*
X135469576Y-73947712D01*
X135481202Y-73977259D01*
X135501323Y-74003486D01*
X135542216Y-74043576D01*
X135587817Y-74074149D01*
X135641513Y-74096203D01*
X135706692Y-74110735D01*
X135786744Y-74118741D01*
X135885057Y-74121218D01*
X135901289Y-74121177D01*
X135966849Y-74119818D01*
X136031866Y-74116730D01*
X136089252Y-74112356D01*
X136131922Y-74107140D01*
X136135372Y-74106541D01*
X136177796Y-74096491D01*
X136213780Y-74083796D01*
X136234150Y-74072190D01*
X136253107Y-74041572D01*
X136254427Y-74005918D01*
X136238085Y-73974144D01*
X136234429Y-73970551D01*
X136219315Y-73959876D01*
X136200415Y-73955276D01*
X136171162Y-73956059D01*
X136135651Y-73960127D01*
X136095970Y-73963762D01*
X136040345Y-73966828D01*
X135975406Y-73969053D01*
X135907785Y-73970164D01*
X135890000Y-73970237D01*
X135822128Y-73969964D01*
X135772454Y-73968646D01*
X135736610Y-73965827D01*
X135710224Y-73961050D01*
X135688926Y-73953857D01*
X135676126Y-73947867D01*
X135648000Y-73931233D01*
X135630068Y-73916168D01*
X135627447Y-73911897D01*
X135632976Y-73894263D01*
X135659260Y-73877192D01*
X135704478Y-73861458D01*
X135766808Y-73847838D01*
X135785171Y-73844804D01*
X135881090Y-73829738D01*
X135957641Y-73817146D01*
X136017780Y-73806111D01*
X136064460Y-73795720D01*
X136100637Y-73785056D01*
X136129265Y-73773205D01*
X136153298Y-73759251D01*
X136175692Y-73742281D01*
X136199402Y-73721378D01*
X136207380Y-73714049D01*
X136235353Y-73686699D01*
X136250160Y-73665029D01*
X136255952Y-73640232D01*
X136256889Y-73608983D01*
X136246575Y-73547705D01*
X136215752Y-73495640D01*
X136164595Y-73452958D01*
X136093283Y-73419825D01*
X136042400Y-73404964D01*
X135987100Y-73395366D01*
X135920853Y-73389936D01*
X135847706Y-73388367D01*
X135771703Y-73390351D01*
G36*
X135003822Y-73411645D02*
G01*
X134997242Y-73419218D01*
X134992079Y-73428987D01*
X134988164Y-73443571D01*
X134985324Y-73465585D01*
X134983387Y-73497648D01*
X134982183Y-73542375D01*
X134981539Y-73602385D01*
X134981284Y-73680294D01*
X134981245Y-73755956D01*
X134981314Y-73849802D01*
X134981638Y-73923689D01*
X134982386Y-73980232D01*
X134983732Y-74022049D01*
X134985846Y-74051757D01*
X134988900Y-74071973D01*
X134993066Y-74085314D01*
X134998516Y-74094398D01*
X135003822Y-74100267D01*
X135036826Y-74119947D01*
X135071991Y-74118181D01*
X135103455Y-74096717D01*
X135110684Y-74088337D01*
X135116334Y-74078614D01*
X135120599Y-74064861D01*
X135123673Y-74044389D01*
X135125752Y-74014512D01*
X135127030Y-73972541D01*
X135127701Y-73915789D01*
X135127959Y-73841567D01*
X135128000Y-73757537D01*
X135128000Y-73444485D01*
X135100291Y-73416776D01*
X135066137Y-73393463D01*
X135033006Y-73392623D01*
X135003822Y-73411645D01*
G37*
X135003822Y-73411645D02*
X134997242Y-73419218D01*
X134992079Y-73428987D01*
X134988164Y-73443571D01*
X134985324Y-73465585D01*
X134983387Y-73497648D01*
X134982183Y-73542375D01*
X134981539Y-73602385D01*
X134981284Y-73680294D01*
X134981245Y-73755956D01*
X134981314Y-73849802D01*
X134981638Y-73923689D01*
X134982386Y-73980232D01*
X134983732Y-74022049D01*
X134985846Y-74051757D01*
X134988900Y-74071973D01*
X134993066Y-74085314D01*
X134998516Y-74094398D01*
X135003822Y-74100267D01*
X135036826Y-74119947D01*
X135071991Y-74118181D01*
X135103455Y-74096717D01*
X135110684Y-74088337D01*
X135116334Y-74078614D01*
X135120599Y-74064861D01*
X135123673Y-74044389D01*
X135125752Y-74014512D01*
X135127030Y-73972541D01*
X135127701Y-73915789D01*
X135127959Y-73841567D01*
X135128000Y-73757537D01*
X135128000Y-73444485D01*
X135100291Y-73416776D01*
X135066137Y-73393463D01*
X135033006Y-73392623D01*
X135003822Y-73411645D01*
G36*
X134030081Y-73394599D02*
G01*
X133961565Y-73406095D01*
X133908943Y-73423967D01*
X133874708Y-73447499D01*
X133865379Y-73460924D01*
X133855893Y-73492148D01*
X133862277Y-73520395D01*
X133882430Y-73547182D01*
X133913745Y-73559713D01*
X133959183Y-73558696D01*
X133994326Y-73551906D01*
X134072419Y-73538971D01*
X134152226Y-73537742D01*
X134241555Y-73548241D01*
X134266229Y-73552690D01*
X134349291Y-73576108D01*
X134414273Y-73610945D01*
X134460461Y-73656604D01*
X134487145Y-73712494D01*
X134492663Y-73741388D01*
X134489051Y-73800012D01*
X134465729Y-73851879D01*
X134424824Y-73895978D01*
X134368459Y-73931299D01*
X134298760Y-73956829D01*
X134217852Y-73971559D01*
X134127860Y-73974478D01*
X134030910Y-73964575D01*
X134025436Y-73963641D01*
X133986875Y-73956459D01*
X133965494Y-73949521D01*
X133956227Y-73939227D01*
X133954006Y-73921976D01*
X133953956Y-73912841D01*
X133953956Y-73874489D01*
X134022431Y-73874489D01*
X134082900Y-73870347D01*
X134124165Y-73857147D01*
X134148175Y-73833730D01*
X134156877Y-73798936D01*
X134156983Y-73794394D01*
X134151892Y-73764654D01*
X134134433Y-73743419D01*
X134101939Y-73729366D01*
X134051743Y-73721173D01*
X134003123Y-73718161D01*
X133932456Y-73716433D01*
X133881198Y-73719070D01*
X133846239Y-73728800D01*
X133824470Y-73748353D01*
X133812780Y-73780456D01*
X133808060Y-73827838D01*
X133807200Y-73890071D01*
X133808609Y-73959535D01*
X133812848Y-74006786D01*
X133819936Y-74032012D01*
X133821311Y-74033988D01*
X133860228Y-74065508D01*
X133917286Y-74090470D01*
X133988869Y-74108340D01*
X134071358Y-74118586D01*
X134161139Y-74120673D01*
X134254592Y-74114068D01*
X134309556Y-74105956D01*
X134395766Y-74081554D01*
X134475892Y-74041662D01*
X134542977Y-73989887D01*
X134553173Y-73979539D01*
X134586302Y-73936035D01*
X134616194Y-73882118D01*
X134639357Y-73825592D01*
X134652298Y-73774259D01*
X134653858Y-73754544D01*
X134647218Y-73713419D01*
X134629568Y-73662252D01*
X134604297Y-73608394D01*
X134574789Y-73559195D01*
X134548719Y-73526334D01*
X134487765Y-73477452D01*
X134408969Y-73438545D01*
X134315157Y-73410494D01*
X134209150Y-73394179D01*
X134112000Y-73390192D01*
X134030081Y-73394599D01*
G37*
X134030081Y-73394599D02*
X133961565Y-73406095D01*
X133908943Y-73423967D01*
X133874708Y-73447499D01*
X133865379Y-73460924D01*
X133855893Y-73492148D01*
X133862277Y-73520395D01*
X133882430Y-73547182D01*
X133913745Y-73559713D01*
X133959183Y-73558696D01*
X133994326Y-73551906D01*
X134072419Y-73538971D01*
X134152226Y-73537742D01*
X134241555Y-73548241D01*
X134266229Y-73552690D01*
X134349291Y-73576108D01*
X134414273Y-73610945D01*
X134460461Y-73656604D01*
X134487145Y-73712494D01*
X134492663Y-73741388D01*
X134489051Y-73800012D01*
X134465729Y-73851879D01*
X134424824Y-73895978D01*
X134368459Y-73931299D01*
X134298760Y-73956829D01*
X134217852Y-73971559D01*
X134127860Y-73974478D01*
X134030910Y-73964575D01*
X134025436Y-73963641D01*
X133986875Y-73956459D01*
X133965494Y-73949521D01*
X133956227Y-73939227D01*
X133954006Y-73921976D01*
X133953956Y-73912841D01*
X133953956Y-73874489D01*
X134022431Y-73874489D01*
X134082900Y-73870347D01*
X134124165Y-73857147D01*
X134148175Y-73833730D01*
X134156877Y-73798936D01*
X134156983Y-73794394D01*
X134151892Y-73764654D01*
X134134433Y-73743419D01*
X134101939Y-73729366D01*
X134051743Y-73721173D01*
X134003123Y-73718161D01*
X133932456Y-73716433D01*
X133881198Y-73719070D01*
X133846239Y-73728800D01*
X133824470Y-73748353D01*
X133812780Y-73780456D01*
X133808060Y-73827838D01*
X133807200Y-73890071D01*
X133808609Y-73959535D01*
X133812848Y-74006786D01*
X133819936Y-74032012D01*
X133821311Y-74033988D01*
X133860228Y-74065508D01*
X133917286Y-74090470D01*
X133988869Y-74108340D01*
X134071358Y-74118586D01*
X134161139Y-74120673D01*
X134254592Y-74114068D01*
X134309556Y-74105956D01*
X134395766Y-74081554D01*
X134475892Y-74041662D01*
X134542977Y-73989887D01*
X134553173Y-73979539D01*
X134586302Y-73936035D01*
X134616194Y-73882118D01*
X134639357Y-73825592D01*
X134652298Y-73774259D01*
X134653858Y-73754544D01*
X134647218Y-73713419D01*
X134629568Y-73662252D01*
X134604297Y-73608394D01*
X134574789Y-73559195D01*
X134548719Y-73526334D01*
X134487765Y-73477452D01*
X134408969Y-73438545D01*
X134315157Y-73410494D01*
X134209150Y-73394179D01*
X134112000Y-73390192D01*
X134030081Y-73394599D01*
G36*
X133380114Y-73393448D02*
G01*
X133356548Y-73407273D01*
X133325735Y-73429881D01*
X133286078Y-73462338D01*
X133235980Y-73505708D01*
X133173843Y-73561058D01*
X133098072Y-73629451D01*
X133011334Y-73708084D01*
X132830711Y-73871878D01*
X132825067Y-73652029D01*
X132823029Y-73576351D01*
X132821063Y-73519994D01*
X132818734Y-73479706D01*
X132815606Y-73452235D01*
X132811245Y-73434329D01*
X132805216Y-73422737D01*
X132797084Y-73414208D01*
X132792772Y-73410623D01*
X132758241Y-73391670D01*
X132725383Y-73394441D01*
X132699318Y-73410633D01*
X132672667Y-73432199D01*
X132669352Y-73747151D01*
X132668435Y-73839779D01*
X132667968Y-73912544D01*
X132668113Y-73968161D01*
X132669032Y-74009342D01*
X132670887Y-74038803D01*
X132673839Y-74059255D01*
X132678050Y-74073413D01*
X132683682Y-74083991D01*
X132689927Y-74092474D01*
X132703439Y-74108207D01*
X132716883Y-74118636D01*
X132732124Y-74122639D01*
X132751026Y-74119094D01*
X132775455Y-74106879D01*
X132807273Y-74084871D01*
X132848348Y-74051949D01*
X132900542Y-74006991D01*
X132965722Y-73948875D01*
X133039556Y-73882099D01*
X133304845Y-73641458D01*
X133310489Y-73860589D01*
X133312531Y-73936128D01*
X133314502Y-73992354D01*
X133316839Y-74032524D01*
X133319981Y-74059896D01*
X133324364Y-74077728D01*
X133330424Y-74089279D01*
X133338600Y-74097807D01*
X133342784Y-74101282D01*
X133379765Y-74120372D01*
X133414708Y-74117493D01*
X133445136Y-74093100D01*
X133452097Y-74083286D01*
X133457523Y-74071826D01*
X133461603Y-74055968D01*
X133464529Y-74032963D01*
X133466492Y-74000062D01*
X133467683Y-73954516D01*
X133468292Y-73893573D01*
X133468511Y-73814486D01*
X133468534Y-73755956D01*
X133468460Y-73664407D01*
X133468113Y-73592687D01*
X133467301Y-73538045D01*
X133465833Y-73497732D01*
X133463519Y-73468998D01*
X133460167Y-73449093D01*
X133455588Y-73435268D01*
X133449589Y-73424772D01*
X133445136Y-73418811D01*
X133433850Y-73404691D01*
X133423301Y-73394029D01*
X133411893Y-73387892D01*
X133398030Y-73387343D01*
X133380114Y-73393448D01*
G37*
X133380114Y-73393448D02*
X133356548Y-73407273D01*
X133325735Y-73429881D01*
X133286078Y-73462338D01*
X133235980Y-73505708D01*
X133173843Y-73561058D01*
X133098072Y-73629451D01*
X133011334Y-73708084D01*
X132830711Y-73871878D01*
X132825067Y-73652029D01*
X132823029Y-73576351D01*
X132821063Y-73519994D01*
X132818734Y-73479706D01*
X132815606Y-73452235D01*
X132811245Y-73434329D01*
X132805216Y-73422737D01*
X132797084Y-73414208D01*
X132792772Y-73410623D01*
X132758241Y-73391670D01*
X132725383Y-73394441D01*
X132699318Y-73410633D01*
X132672667Y-73432199D01*
X132669352Y-73747151D01*
X132668435Y-73839779D01*
X132667968Y-73912544D01*
X132668113Y-73968161D01*
X132669032Y-74009342D01*
X132670887Y-74038803D01*
X132673839Y-74059255D01*
X132678050Y-74073413D01*
X132683682Y-74083991D01*
X132689927Y-74092474D01*
X132703439Y-74108207D01*
X132716883Y-74118636D01*
X132732124Y-74122639D01*
X132751026Y-74119094D01*
X132775455Y-74106879D01*
X132807273Y-74084871D01*
X132848348Y-74051949D01*
X132900542Y-74006991D01*
X132965722Y-73948875D01*
X133039556Y-73882099D01*
X133304845Y-73641458D01*
X133310489Y-73860589D01*
X133312531Y-73936128D01*
X133314502Y-73992354D01*
X133316839Y-74032524D01*
X133319981Y-74059896D01*
X133324364Y-74077728D01*
X133330424Y-74089279D01*
X133338600Y-74097807D01*
X133342784Y-74101282D01*
X133379765Y-74120372D01*
X133414708Y-74117493D01*
X133445136Y-74093100D01*
X133452097Y-74083286D01*
X133457523Y-74071826D01*
X133461603Y-74055968D01*
X133464529Y-74032963D01*
X133466492Y-74000062D01*
X133467683Y-73954516D01*
X133468292Y-73893573D01*
X133468511Y-73814486D01*
X133468534Y-73755956D01*
X133468460Y-73664407D01*
X133468113Y-73592687D01*
X133467301Y-73538045D01*
X133465833Y-73497732D01*
X133463519Y-73468998D01*
X133460167Y-73449093D01*
X133455588Y-73435268D01*
X133449589Y-73424772D01*
X133445136Y-73418811D01*
X133433850Y-73404691D01*
X133423301Y-73394029D01*
X133411893Y-73387892D01*
X133398030Y-73387343D01*
X133380114Y-73393448D01*
G36*
X131849657Y-73389260D02*
G01*
X131773299Y-73390174D01*
X131714783Y-73392311D01*
X131671745Y-73396175D01*
X131641817Y-73402267D01*
X131622632Y-73411090D01*
X131611824Y-73423146D01*
X131607027Y-73438939D01*
X131605873Y-73458970D01*
X131605867Y-73461335D01*
X131606869Y-73483992D01*
X131611604Y-73501503D01*
X131622667Y-73514574D01*
X131642652Y-73523913D01*
X131674154Y-73530227D01*
X131719768Y-73534222D01*
X131782087Y-73536606D01*
X131863707Y-73538086D01*
X131888723Y-73538414D01*
X132130800Y-73541467D01*
X132134186Y-73606378D01*
X132137571Y-73671289D01*
X131969424Y-73671289D01*
X131903734Y-73671531D01*
X131856828Y-73672556D01*
X131824917Y-73674811D01*
X131804209Y-73678742D01*
X131790916Y-73684798D01*
X131781245Y-73693424D01*
X131781183Y-73693493D01*
X131763644Y-73727112D01*
X131764278Y-73763448D01*
X131782686Y-73794423D01*
X131786329Y-73797607D01*
X131799259Y-73805812D01*
X131816976Y-73811521D01*
X131843430Y-73815162D01*
X131882568Y-73817167D01*
X131938338Y-73817964D01*
X131974006Y-73818045D01*
X132136445Y-73818045D01*
X132136445Y-73976089D01*
X131889839Y-73976089D01*
X131808420Y-73976231D01*
X131746590Y-73976814D01*
X131701363Y-73978068D01*
X131669752Y-73980227D01*
X131648769Y-73983523D01*
X131635427Y-73988189D01*
X131626739Y-73994457D01*
X131624550Y-73996733D01*
X131608386Y-74028280D01*
X131607203Y-74064168D01*
X131620464Y-74095285D01*
X131630957Y-74105271D01*
X131641871Y-74110769D01*
X131658783Y-74115022D01*
X131684367Y-74118180D01*
X131721299Y-74120392D01*
X131772254Y-74121806D01*
X131839906Y-74122572D01*
X131926931Y-74122838D01*
X131946606Y-74122845D01*
X132035089Y-74122787D01*
X132103773Y-74122467D01*
X132155436Y-74121667D01*
X132192855Y-74120167D01*
X132218810Y-74117749D01*
X132236078Y-74114194D01*
X132247438Y-74109282D01*
X132255668Y-74102795D01*
X132260183Y-74098138D01*
X132266979Y-74089889D01*
X132272288Y-74079669D01*
X132276294Y-74064800D01*
X132279179Y-74042602D01*
X132281126Y-74010393D01*
X132282319Y-73965496D01*
X132282939Y-73905228D01*
X132283171Y-73826911D01*
X132283200Y-73760994D01*
X132283129Y-73668628D01*
X132282792Y-73596117D01*
X132282002Y-73540737D01*
X132280574Y-73499765D01*
X132278321Y-73470478D01*
X132275057Y-73450153D01*
X132270596Y-73436066D01*
X132264752Y-73425495D01*
X132259803Y-73418811D01*
X132236406Y-73389067D01*
X131946226Y-73389067D01*
X131849657Y-73389260D01*
G37*
X131849657Y-73389260D02*
X131773299Y-73390174D01*
X131714783Y-73392311D01*
X131671745Y-73396175D01*
X131641817Y-73402267D01*
X131622632Y-73411090D01*
X131611824Y-73423146D01*
X131607027Y-73438939D01*
X131605873Y-73458970D01*
X131605867Y-73461335D01*
X131606869Y-73483992D01*
X131611604Y-73501503D01*
X131622667Y-73514574D01*
X131642652Y-73523913D01*
X131674154Y-73530227D01*
X131719768Y-73534222D01*
X131782087Y-73536606D01*
X131863707Y-73538086D01*
X131888723Y-73538414D01*
X132130800Y-73541467D01*
X132134186Y-73606378D01*
X132137571Y-73671289D01*
X131969424Y-73671289D01*
X131903734Y-73671531D01*
X131856828Y-73672556D01*
X131824917Y-73674811D01*
X131804209Y-73678742D01*
X131790916Y-73684798D01*
X131781245Y-73693424D01*
X131781183Y-73693493D01*
X131763644Y-73727112D01*
X131764278Y-73763448D01*
X131782686Y-73794423D01*
X131786329Y-73797607D01*
X131799259Y-73805812D01*
X131816976Y-73811521D01*
X131843430Y-73815162D01*
X131882568Y-73817167D01*
X131938338Y-73817964D01*
X131974006Y-73818045D01*
X132136445Y-73818045D01*
X132136445Y-73976089D01*
X131889839Y-73976089D01*
X131808420Y-73976231D01*
X131746590Y-73976814D01*
X131701363Y-73978068D01*
X131669752Y-73980227D01*
X131648769Y-73983523D01*
X131635427Y-73988189D01*
X131626739Y-73994457D01*
X131624550Y-73996733D01*
X131608386Y-74028280D01*
X131607203Y-74064168D01*
X131620464Y-74095285D01*
X131630957Y-74105271D01*
X131641871Y-74110769D01*
X131658783Y-74115022D01*
X131684367Y-74118180D01*
X131721299Y-74120392D01*
X131772254Y-74121806D01*
X131839906Y-74122572D01*
X131926931Y-74122838D01*
X131946606Y-74122845D01*
X132035089Y-74122787D01*
X132103773Y-74122467D01*
X132155436Y-74121667D01*
X132192855Y-74120167D01*
X132218810Y-74117749D01*
X132236078Y-74114194D01*
X132247438Y-74109282D01*
X132255668Y-74102795D01*
X132260183Y-74098138D01*
X132266979Y-74089889D01*
X132272288Y-74079669D01*
X132276294Y-74064800D01*
X132279179Y-74042602D01*
X132281126Y-74010393D01*
X132282319Y-73965496D01*
X132282939Y-73905228D01*
X132283171Y-73826911D01*
X132283200Y-73760994D01*
X132283129Y-73668628D01*
X132282792Y-73596117D01*
X132282002Y-73540737D01*
X132280574Y-73499765D01*
X132278321Y-73470478D01*
X132275057Y-73450153D01*
X132270596Y-73436066D01*
X132264752Y-73425495D01*
X132259803Y-73418811D01*
X132236406Y-73389067D01*
X131946226Y-73389067D01*
X131849657Y-73389260D01*
G36*
X131061691Y-73389275D02*
G01*
X130932712Y-73393636D01*
X130823009Y-73406861D01*
X130730774Y-73429741D01*
X130654198Y-73463070D01*
X130591473Y-73507638D01*
X130540788Y-73564236D01*
X130500337Y-73633658D01*
X130499541Y-73635351D01*
X130475399Y-73697483D01*
X130466797Y-73752509D01*
X130473769Y-73807887D01*
X130496346Y-73871073D01*
X130500628Y-73880689D01*
X130529828Y-73936966D01*
X130562644Y-73980451D01*
X130604998Y-74017417D01*
X130662810Y-74054135D01*
X130666169Y-74056052D01*
X130716496Y-74080227D01*
X130773379Y-74098282D01*
X130840473Y-74110839D01*
X130921435Y-74118522D01*
X131019918Y-74121953D01*
X131054714Y-74122251D01*
X131220406Y-74122845D01*
X131243803Y-74093100D01*
X131250743Y-74083319D01*
X131256158Y-74071897D01*
X131260235Y-74056095D01*
X131263163Y-74033175D01*
X131265133Y-74000396D01*
X131265775Y-73976089D01*
X131109156Y-73976089D01*
X131015274Y-73976089D01*
X130960336Y-73974483D01*
X130903940Y-73970255D01*
X130857655Y-73964292D01*
X130854861Y-73963790D01*
X130772652Y-73941736D01*
X130708886Y-73908600D01*
X130661548Y-73862847D01*
X130628618Y-73802939D01*
X130622892Y-73787061D01*
X130617279Y-73762333D01*
X130619709Y-73737902D01*
X130631533Y-73705400D01*
X130638660Y-73689434D01*
X130662000Y-73647006D01*
X130690120Y-73617240D01*
X130721060Y-73596511D01*
X130783034Y-73569537D01*
X130862349Y-73549998D01*
X130954747Y-73538746D01*
X131021667Y-73536270D01*
X131109156Y-73535822D01*
X131109156Y-73976089D01*
X131265775Y-73976089D01*
X131266332Y-73955021D01*
X131266950Y-73894311D01*
X131267175Y-73815526D01*
X131267200Y-73753920D01*
X131267200Y-73444485D01*
X131239491Y-73416776D01*
X131227194Y-73405544D01*
X131213897Y-73397853D01*
X131195328Y-73393040D01*
X131167214Y-73390446D01*
X131125283Y-73389410D01*
X131065263Y-73389270D01*
X131061691Y-73389275D01*
G37*
X131061691Y-73389275D02*
X130932712Y-73393636D01*
X130823009Y-73406861D01*
X130730774Y-73429741D01*
X130654198Y-73463070D01*
X130591473Y-73507638D01*
X130540788Y-73564236D01*
X130500337Y-73633658D01*
X130499541Y-73635351D01*
X130475399Y-73697483D01*
X130466797Y-73752509D01*
X130473769Y-73807887D01*
X130496346Y-73871073D01*
X130500628Y-73880689D01*
X130529828Y-73936966D01*
X130562644Y-73980451D01*
X130604998Y-74017417D01*
X130662810Y-74054135D01*
X130666169Y-74056052D01*
X130716496Y-74080227D01*
X130773379Y-74098282D01*
X130840473Y-74110839D01*
X130921435Y-74118522D01*
X131019918Y-74121953D01*
X131054714Y-74122251D01*
X131220406Y-74122845D01*
X131243803Y-74093100D01*
X131250743Y-74083319D01*
X131256158Y-74071897D01*
X131260235Y-74056095D01*
X131263163Y-74033175D01*
X131265133Y-74000396D01*
X131265775Y-73976089D01*
X131109156Y-73976089D01*
X131015274Y-73976089D01*
X130960336Y-73974483D01*
X130903940Y-73970255D01*
X130857655Y-73964292D01*
X130854861Y-73963790D01*
X130772652Y-73941736D01*
X130708886Y-73908600D01*
X130661548Y-73862847D01*
X130628618Y-73802939D01*
X130622892Y-73787061D01*
X130617279Y-73762333D01*
X130619709Y-73737902D01*
X130631533Y-73705400D01*
X130638660Y-73689434D01*
X130662000Y-73647006D01*
X130690120Y-73617240D01*
X130721060Y-73596511D01*
X130783034Y-73569537D01*
X130862349Y-73549998D01*
X130954747Y-73538746D01*
X131021667Y-73536270D01*
X131109156Y-73535822D01*
X131109156Y-73976089D01*
X131265775Y-73976089D01*
X131266332Y-73955021D01*
X131266950Y-73894311D01*
X131267175Y-73815526D01*
X131267200Y-73753920D01*
X131267200Y-73444485D01*
X131239491Y-73416776D01*
X131227194Y-73405544D01*
X131213897Y-73397853D01*
X131195328Y-73393040D01*
X131167214Y-73390446D01*
X131125283Y-73389410D01*
X131065263Y-73389270D01*
X131061691Y-73389275D01*
G36*
X128335335Y-73391034D02*
G01*
X128315745Y-73398035D01*
X128314990Y-73398377D01*
X128288387Y-73418678D01*
X128273730Y-73439561D01*
X128270862Y-73449352D01*
X128271004Y-73462361D01*
X128275039Y-73480895D01*
X128283854Y-73507257D01*
X128298331Y-73543752D01*
X128319355Y-73592687D01*
X128347812Y-73656365D01*
X128384585Y-73737093D01*
X128404825Y-73781216D01*
X128441375Y-73859985D01*
X128475685Y-73932423D01*
X128506448Y-73995880D01*
X128532352Y-74047708D01*
X128552090Y-74085259D01*
X128564350Y-74105884D01*
X128566776Y-74108733D01*
X128597817Y-74121302D01*
X128632879Y-74119619D01*
X128661000Y-74104332D01*
X128662146Y-74103089D01*
X128673332Y-74086154D01*
X128692096Y-74053170D01*
X128716125Y-74008380D01*
X128743103Y-73956032D01*
X128752799Y-73936742D01*
X128825986Y-73790150D01*
X128905760Y-73949393D01*
X128934233Y-74004415D01*
X128960650Y-74052132D01*
X128982852Y-74088893D01*
X128998681Y-74111044D01*
X129004046Y-74115741D01*
X129045743Y-74122102D01*
X129080151Y-74108733D01*
X129090272Y-74094446D01*
X129107786Y-74062692D01*
X129131265Y-74016597D01*
X129159280Y-73959285D01*
X129190401Y-73893880D01*
X129223201Y-73823507D01*
X129256250Y-73751291D01*
X129288119Y-73680355D01*
X129317381Y-73613825D01*
X129342605Y-73554826D01*
X129362364Y-73506481D01*
X129375228Y-73471915D01*
X129379769Y-73454253D01*
X129379723Y-73453613D01*
X129368674Y-73431388D01*
X129346590Y-73408753D01*
X129345290Y-73407768D01*
X129318147Y-73392425D01*
X129293042Y-73392574D01*
X129283632Y-73395466D01*
X129272166Y-73401718D01*
X129259990Y-73414014D01*
X129245643Y-73434908D01*
X129227664Y-73466949D01*
X129204593Y-73512688D01*
X129174970Y-73574677D01*
X129148255Y-73631898D01*
X129117520Y-73698226D01*
X129089979Y-73757874D01*
X129067062Y-73807725D01*
X129050202Y-73844664D01*
X129040827Y-73865573D01*
X129039460Y-73868845D01*
X129033311Y-73863497D01*
X129019178Y-73841109D01*
X128998943Y-73804946D01*
X128974485Y-73758277D01*
X128964752Y-73739022D01*
X128931783Y-73674004D01*
X128906357Y-73626654D01*
X128886388Y-73594219D01*
X128869790Y-73573946D01*
X128854476Y-73563082D01*
X128838360Y-73558875D01*
X128827857Y-73558400D01*
X128809330Y-73560042D01*
X128793096Y-73566831D01*
X128776965Y-73581566D01*
X128758749Y-73607044D01*
X128736261Y-73646061D01*
X128707311Y-73701414D01*
X128691338Y-73732903D01*
X128665430Y-73783087D01*
X128642833Y-73824704D01*
X128625542Y-73854242D01*
X128615550Y-73868189D01*
X128614191Y-73868770D01*
X128607739Y-73857793D01*
X128593292Y-73829290D01*
X128572297Y-73786244D01*
X128546203Y-73731638D01*
X128516454Y-73668454D01*
X128501820Y-73637071D01*
X128463750Y-73556078D01*
X128433095Y-73493756D01*
X128408263Y-73448071D01*
X128387663Y-73416989D01*
X128369702Y-73398478D01*
X128352790Y-73390504D01*
X128335335Y-73391034D01*
G37*
X128335335Y-73391034D02*
X128315745Y-73398035D01*
X128314990Y-73398377D01*
X128288387Y-73418678D01*
X128273730Y-73439561D01*
X128270862Y-73449352D01*
X128271004Y-73462361D01*
X128275039Y-73480895D01*
X128283854Y-73507257D01*
X128298331Y-73543752D01*
X128319355Y-73592687D01*
X128347812Y-73656365D01*
X128384585Y-73737093D01*
X128404825Y-73781216D01*
X128441375Y-73859985D01*
X128475685Y-73932423D01*
X128506448Y-73995880D01*
X128532352Y-74047708D01*
X128552090Y-74085259D01*
X128564350Y-74105884D01*
X128566776Y-74108733D01*
X128597817Y-74121302D01*
X128632879Y-74119619D01*
X128661000Y-74104332D01*
X128662146Y-74103089D01*
X128673332Y-74086154D01*
X128692096Y-74053170D01*
X128716125Y-74008380D01*
X128743103Y-73956032D01*
X128752799Y-73936742D01*
X128825986Y-73790150D01*
X128905760Y-73949393D01*
X128934233Y-74004415D01*
X128960650Y-74052132D01*
X128982852Y-74088893D01*
X128998681Y-74111044D01*
X129004046Y-74115741D01*
X129045743Y-74122102D01*
X129080151Y-74108733D01*
X129090272Y-74094446D01*
X129107786Y-74062692D01*
X129131265Y-74016597D01*
X129159280Y-73959285D01*
X129190401Y-73893880D01*
X129223201Y-73823507D01*
X129256250Y-73751291D01*
X129288119Y-73680355D01*
X129317381Y-73613825D01*
X129342605Y-73554826D01*
X129362364Y-73506481D01*
X129375228Y-73471915D01*
X129379769Y-73454253D01*
X129379723Y-73453613D01*
X129368674Y-73431388D01*
X129346590Y-73408753D01*
X129345290Y-73407768D01*
X129318147Y-73392425D01*
X129293042Y-73392574D01*
X129283632Y-73395466D01*
X129272166Y-73401718D01*
X129259990Y-73414014D01*
X129245643Y-73434908D01*
X129227664Y-73466949D01*
X129204593Y-73512688D01*
X129174970Y-73574677D01*
X129148255Y-73631898D01*
X129117520Y-73698226D01*
X129089979Y-73757874D01*
X129067062Y-73807725D01*
X129050202Y-73844664D01*
X129040827Y-73865573D01*
X129039460Y-73868845D01*
X129033311Y-73863497D01*
X129019178Y-73841109D01*
X128998943Y-73804946D01*
X128974485Y-73758277D01*
X128964752Y-73739022D01*
X128931783Y-73674004D01*
X128906357Y-73626654D01*
X128886388Y-73594219D01*
X128869790Y-73573946D01*
X128854476Y-73563082D01*
X128838360Y-73558875D01*
X128827857Y-73558400D01*
X128809330Y-73560042D01*
X128793096Y-73566831D01*
X128776965Y-73581566D01*
X128758749Y-73607044D01*
X128736261Y-73646061D01*
X128707311Y-73701414D01*
X128691338Y-73732903D01*
X128665430Y-73783087D01*
X128642833Y-73824704D01*
X128625542Y-73854242D01*
X128615550Y-73868189D01*
X128614191Y-73868770D01*
X128607739Y-73857793D01*
X128593292Y-73829290D01*
X128572297Y-73786244D01*
X128546203Y-73731638D01*
X128516454Y-73668454D01*
X128501820Y-73637071D01*
X128463750Y-73556078D01*
X128433095Y-73493756D01*
X128408263Y-73448071D01*
X128387663Y-73416989D01*
X128369702Y-73398478D01*
X128352790Y-73390504D01*
X128335335Y-73391034D01*
G36*
X127891386Y-73395877D02*
G01*
X127867673Y-73410647D01*
X127841022Y-73432227D01*
X127841022Y-73753773D01*
X127841107Y-73847830D01*
X127841471Y-73921932D01*
X127842276Y-73978704D01*
X127843687Y-74020768D01*
X127845867Y-74050748D01*
X127848979Y-74071267D01*
X127853186Y-74084949D01*
X127858652Y-74094416D01*
X127862528Y-74099082D01*
X127893966Y-74119575D01*
X127929767Y-74118739D01*
X127961127Y-74101264D01*
X127987778Y-74079684D01*
X127987778Y-73432227D01*
X127961127Y-73410647D01*
X127935406Y-73394949D01*
X127914400Y-73389067D01*
X127891386Y-73395877D01*
G37*
X127891386Y-73395877D02*
X127867673Y-73410647D01*
X127841022Y-73432227D01*
X127841022Y-73753773D01*
X127841107Y-73847830D01*
X127841471Y-73921932D01*
X127842276Y-73978704D01*
X127843687Y-74020768D01*
X127845867Y-74050748D01*
X127848979Y-74071267D01*
X127853186Y-74084949D01*
X127858652Y-74094416D01*
X127862528Y-74099082D01*
X127893966Y-74119575D01*
X127929767Y-74118739D01*
X127961127Y-74101264D01*
X127987778Y-74079684D01*
X127987778Y-73432227D01*
X127961127Y-73410647D01*
X127935406Y-73394949D01*
X127914400Y-73389067D01*
X127891386Y-73395877D01*
G36*
X127116935Y-73389163D02*
G01*
X127038228Y-73389542D01*
X126977137Y-73390333D01*
X126931183Y-73391670D01*
X126897886Y-73393683D01*
X126874764Y-73396506D01*
X126859338Y-73400269D01*
X126849129Y-73405105D01*
X126844187Y-73408822D01*
X126818543Y-73441358D01*
X126815441Y-73475138D01*
X126831289Y-73505826D01*
X126841652Y-73518089D01*
X126852804Y-73526450D01*
X126868965Y-73531657D01*
X126894358Y-73534457D01*
X126933202Y-73535596D01*
X126989720Y-73535821D01*
X127000820Y-73535822D01*
X127146756Y-73535822D01*
X127146756Y-73806756D01*
X127146852Y-73892154D01*
X127147289Y-73957864D01*
X127148288Y-74006774D01*
X127150072Y-74041773D01*
X127152863Y-74065749D01*
X127156883Y-74081593D01*
X127162355Y-74092191D01*
X127169334Y-74100267D01*
X127202266Y-74120112D01*
X127236646Y-74118548D01*
X127267824Y-74095906D01*
X127270114Y-74093100D01*
X127277571Y-74082492D01*
X127283253Y-74070081D01*
X127287399Y-74052850D01*
X127290250Y-74027784D01*
X127292046Y-73991867D01*
X127293028Y-73942083D01*
X127293436Y-73875417D01*
X127293511Y-73799589D01*
X127293511Y-73535822D01*
X127432873Y-73535822D01*
X127492678Y-73535418D01*
X127534082Y-73533840D01*
X127561252Y-73530547D01*
X127578354Y-73524992D01*
X127589557Y-73516631D01*
X127590917Y-73515178D01*
X127607275Y-73481939D01*
X127605828Y-73444362D01*
X127587022Y-73411645D01*
X127579750Y-73405298D01*
X127570373Y-73400266D01*
X127556391Y-73396396D01*
X127535304Y-73393537D01*
X127504611Y-73391535D01*
X127461811Y-73390239D01*
X127404405Y-73389498D01*
X127329890Y-73389158D01*
X127235767Y-73389068D01*
X127215740Y-73389067D01*
X127116935Y-73389163D01*
G37*
X127116935Y-73389163D02*
X127038228Y-73389542D01*
X126977137Y-73390333D01*
X126931183Y-73391670D01*
X126897886Y-73393683D01*
X126874764Y-73396506D01*
X126859338Y-73400269D01*
X126849129Y-73405105D01*
X126844187Y-73408822D01*
X126818543Y-73441358D01*
X126815441Y-73475138D01*
X126831289Y-73505826D01*
X126841652Y-73518089D01*
X126852804Y-73526450D01*
X126868965Y-73531657D01*
X126894358Y-73534457D01*
X126933202Y-73535596D01*
X126989720Y-73535821D01*
X127000820Y-73535822D01*
X127146756Y-73535822D01*
X127146756Y-73806756D01*
X127146852Y-73892154D01*
X127147289Y-73957864D01*
X127148288Y-74006774D01*
X127150072Y-74041773D01*
X127152863Y-74065749D01*
X127156883Y-74081593D01*
X127162355Y-74092191D01*
X127169334Y-74100267D01*
X127202266Y-74120112D01*
X127236646Y-74118548D01*
X127267824Y-74095906D01*
X127270114Y-74093100D01*
X127277571Y-74082492D01*
X127283253Y-74070081D01*
X127287399Y-74052850D01*
X127290250Y-74027784D01*
X127292046Y-73991867D01*
X127293028Y-73942083D01*
X127293436Y-73875417D01*
X127293511Y-73799589D01*
X127293511Y-73535822D01*
X127432873Y-73535822D01*
X127492678Y-73535418D01*
X127534082Y-73533840D01*
X127561252Y-73530547D01*
X127578354Y-73524992D01*
X127589557Y-73516631D01*
X127590917Y-73515178D01*
X127607275Y-73481939D01*
X127605828Y-73444362D01*
X127587022Y-73411645D01*
X127579750Y-73405298D01*
X127570373Y-73400266D01*
X127556391Y-73396396D01*
X127535304Y-73393537D01*
X127504611Y-73391535D01*
X127461811Y-73390239D01*
X127404405Y-73389498D01*
X127329890Y-73389158D01*
X127235767Y-73389068D01*
X127215740Y-73389067D01*
X127116935Y-73389163D01*
G36*
X125851177Y-73394533D02*
G01*
X125819798Y-73416776D01*
X125792089Y-73444485D01*
X125792089Y-73753920D01*
X125792162Y-73845799D01*
X125792505Y-73917840D01*
X125793308Y-73972780D01*
X125794759Y-74013360D01*
X125797048Y-74042317D01*
X125800364Y-74062391D01*
X125804895Y-74076321D01*
X125810831Y-74086845D01*
X125815486Y-74093100D01*
X125846217Y-74117673D01*
X125881504Y-74120341D01*
X125913755Y-74105271D01*
X125924412Y-74096374D01*
X125931536Y-74084557D01*
X125935833Y-74065526D01*
X125938009Y-74034992D01*
X125938772Y-73988662D01*
X125938845Y-73952871D01*
X125938845Y-73818045D01*
X126435556Y-73818045D01*
X126435556Y-73940700D01*
X126436069Y-73996787D01*
X126438124Y-74035333D01*
X126442492Y-74061361D01*
X126449944Y-74079897D01*
X126458953Y-74093100D01*
X126489856Y-74117604D01*
X126524804Y-74120506D01*
X126558262Y-74103089D01*
X126567396Y-74093959D01*
X126573848Y-74081855D01*
X126578103Y-74063001D01*
X126580648Y-74033620D01*
X126581971Y-73989937D01*
X126582557Y-73928175D01*
X126582625Y-73914000D01*
X126583109Y-73797631D01*
X126583359Y-73701727D01*
X126583277Y-73624177D01*
X126582769Y-73562869D01*
X126581738Y-73515690D01*
X126580087Y-73480530D01*
X126577721Y-73455276D01*
X126574543Y-73437817D01*
X126570456Y-73426041D01*
X126565366Y-73417835D01*
X126559734Y-73411645D01*
X126527872Y-73391844D01*
X126494643Y-73394533D01*
X126463265Y-73416776D01*
X126450567Y-73431126D01*
X126442474Y-73446978D01*
X126437958Y-73469554D01*
X126435994Y-73504078D01*
X126435556Y-73555776D01*
X126435556Y-73671289D01*
X125938845Y-73671289D01*
X125938845Y-73552756D01*
X125938338Y-73498148D01*
X125936302Y-73461275D01*
X125931965Y-73437307D01*
X125924553Y-73421415D01*
X125916267Y-73411645D01*
X125884406Y-73391844D01*
X125851177Y-73394533D01*
G37*
X125851177Y-73394533D02*
X125819798Y-73416776D01*
X125792089Y-73444485D01*
X125792089Y-73753920D01*
X125792162Y-73845799D01*
X125792505Y-73917840D01*
X125793308Y-73972780D01*
X125794759Y-74013360D01*
X125797048Y-74042317D01*
X125800364Y-74062391D01*
X125804895Y-74076321D01*
X125810831Y-74086845D01*
X125815486Y-74093100D01*
X125846217Y-74117673D01*
X125881504Y-74120341D01*
X125913755Y-74105271D01*
X125924412Y-74096374D01*
X125931536Y-74084557D01*
X125935833Y-74065526D01*
X125938009Y-74034992D01*
X125938772Y-73988662D01*
X125938845Y-73952871D01*
X125938845Y-73818045D01*
X126435556Y-73818045D01*
X126435556Y-73940700D01*
X126436069Y-73996787D01*
X126438124Y-74035333D01*
X126442492Y-74061361D01*
X126449944Y-74079897D01*
X126458953Y-74093100D01*
X126489856Y-74117604D01*
X126524804Y-74120506D01*
X126558262Y-74103089D01*
X126567396Y-74093959D01*
X126573848Y-74081855D01*
X126578103Y-74063001D01*
X126580648Y-74033620D01*
X126581971Y-73989937D01*
X126582557Y-73928175D01*
X126582625Y-73914000D01*
X126583109Y-73797631D01*
X126583359Y-73701727D01*
X126583277Y-73624177D01*
X126582769Y-73562869D01*
X126581738Y-73515690D01*
X126580087Y-73480530D01*
X126577721Y-73455276D01*
X126574543Y-73437817D01*
X126570456Y-73426041D01*
X126565366Y-73417835D01*
X126559734Y-73411645D01*
X126527872Y-73391844D01*
X126494643Y-73394533D01*
X126463265Y-73416776D01*
X126450567Y-73431126D01*
X126442474Y-73446978D01*
X126437958Y-73469554D01*
X126435994Y-73504078D01*
X126435556Y-73555776D01*
X126435556Y-73671289D01*
X125938845Y-73671289D01*
X125938845Y-73552756D01*
X125938338Y-73498148D01*
X125936302Y-73461275D01*
X125931965Y-73437307D01*
X125924553Y-73421415D01*
X125916267Y-73411645D01*
X125884406Y-73391844D01*
X125851177Y-73394533D01*
D12*
%TO.C,R18*%
X126907936Y-106405000D02*
X128362064Y-106405000D01*
X126907936Y-108225000D02*
X128362064Y-108225000D01*
%TO.C,R17*%
X132622936Y-106405000D02*
X134077064Y-106405000D01*
X132622936Y-108225000D02*
X134077064Y-108225000D01*
%TO.C,U3*%
X146750000Y-104284000D02*
X145350000Y-104284000D01*
X145350000Y-101964000D02*
X147250000Y-101964000D01*
%TO.C,U8*%
X141370000Y-84958000D02*
X142630000Y-84958000D01*
X148190000Y-84958000D02*
X146930000Y-84958000D01*
X141370000Y-88718000D02*
X141370000Y-84958000D01*
X148190000Y-90968000D02*
X148190000Y-84958000D01*
%TO.C,U5*%
X129475000Y-89010000D02*
X131375000Y-89010000D01*
X130875000Y-91330000D02*
X129475000Y-91330000D01*
%TO.C,R16*%
X122208936Y-91588000D02*
X123663064Y-91588000D01*
X122208936Y-89768000D02*
X123663064Y-89768000D01*
%TO.C,R15*%
X121377064Y-102468000D02*
X119922936Y-102468000D01*
X121377064Y-104288000D02*
X119922936Y-104288000D01*
%TO.C,R9*%
X121377064Y-110596000D02*
X119922936Y-110596000D01*
X121377064Y-112416000D02*
X119922936Y-112416000D01*
%TO.C,R8*%
X117821064Y-87482000D02*
X116366936Y-87482000D01*
X117821064Y-89302000D02*
X116366936Y-89302000D01*
%TO.C,R7*%
X139594000Y-88611064D02*
X139594000Y-87156936D01*
X137774000Y-88611064D02*
X137774000Y-87156936D01*
%TO.C,R6*%
X137308000Y-88611064D02*
X137308000Y-87156936D01*
X135488000Y-88611064D02*
X135488000Y-87156936D01*
%TO.C,R3*%
X143983064Y-107294000D02*
X142528936Y-107294000D01*
X143983064Y-109114000D02*
X142528936Y-109114000D01*
%TO.C,R2*%
X132440000Y-100872936D02*
X132440000Y-102327064D01*
X134260000Y-100872936D02*
X134260000Y-102327064D01*
%TO.C,R1*%
X121377064Y-106532000D02*
X119922936Y-106532000D01*
X121377064Y-108352000D02*
X119922936Y-108352000D01*
%TO.C,Q1*%
X135892000Y-98608000D02*
X135892000Y-97678000D01*
X135892000Y-95448000D02*
X135892000Y-96378000D01*
X135892000Y-95448000D02*
X138052000Y-95448000D01*
X135892000Y-98608000D02*
X137352000Y-98608000D01*
%TO.C,D2*%
X144856000Y-107053000D02*
X140796000Y-107053000D01*
X140796000Y-107053000D02*
X140796000Y-104783000D01*
X140796000Y-104783000D02*
X144856000Y-104783000D01*
%TO.C,C13*%
X122224748Y-89302000D02*
X123647252Y-89302000D01*
X122224748Y-87482000D02*
X123647252Y-87482000D01*
%TO.C,C12*%
X128346252Y-96245000D02*
X126923748Y-96245000D01*
X128346252Y-98065000D02*
X126923748Y-98065000D01*
%TO.C,C10*%
X128346252Y-98785000D02*
X126923748Y-98785000D01*
X128346252Y-100605000D02*
X126923748Y-100605000D01*
%TO.C,U4*%
X125123000Y-103786000D02*
X123458000Y-103786000D01*
X125123000Y-104026000D02*
X125123000Y-103786000D01*
X127508000Y-104026000D02*
X125123000Y-104026000D01*
X129893000Y-104026000D02*
X129893000Y-103786000D01*
X127508000Y-104026000D02*
X129893000Y-104026000D01*
X125123000Y-101206000D02*
X125123000Y-101446000D01*
X127508000Y-101206000D02*
X125123000Y-101206000D01*
X129893000Y-101206000D02*
X129893000Y-101446000D01*
X127508000Y-101206000D02*
X129893000Y-101206000D01*
%TO.C,R20*%
X122915000Y-99152064D02*
X122915000Y-97697936D01*
X124735000Y-99152064D02*
X124735000Y-97697936D01*
%TO.C,R12*%
X134768000Y-87182936D02*
X134768000Y-88637064D01*
X132948000Y-87182936D02*
X132948000Y-88637064D01*
%TO.C,R11*%
X145576936Y-94086000D02*
X147031064Y-94086000D01*
X145576936Y-95906000D02*
X147031064Y-95906000D01*
%TO.C,R10*%
X141951064Y-93620000D02*
X140496936Y-93620000D01*
X141951064Y-91800000D02*
X140496936Y-91800000D01*
%TO.C,C6*%
X133426252Y-93874000D02*
X132003748Y-93874000D01*
X133426252Y-92054000D02*
X132003748Y-92054000D01*
%TO.C,C4*%
X145592748Y-91800000D02*
X147015252Y-91800000D01*
X145592748Y-93620000D02*
X147015252Y-93620000D01*
%TO.C,C3*%
X115366748Y-99166000D02*
X116789252Y-99166000D01*
X115366748Y-100986000D02*
X116789252Y-100986000D01*
%TO.C,R18*%
D10*
X128277857Y-109587380D02*
X128611190Y-109111190D01*
X128849285Y-109587380D02*
X128849285Y-108587380D01*
X128468333Y-108587380D01*
X128373095Y-108635000D01*
X128325476Y-108682619D01*
X128277857Y-108777857D01*
X128277857Y-108920714D01*
X128325476Y-109015952D01*
X128373095Y-109063571D01*
X128468333Y-109111190D01*
X128849285Y-109111190D01*
X127325476Y-109587380D02*
X127896904Y-109587380D01*
X127611190Y-109587380D02*
X127611190Y-108587380D01*
X127706428Y-108730238D01*
X127801666Y-108825476D01*
X127896904Y-108873095D01*
X126754047Y-109015952D02*
X126849285Y-108968333D01*
X126896904Y-108920714D01*
X126944523Y-108825476D01*
X126944523Y-108777857D01*
X126896904Y-108682619D01*
X126849285Y-108635000D01*
X126754047Y-108587380D01*
X126563571Y-108587380D01*
X126468333Y-108635000D01*
X126420714Y-108682619D01*
X126373095Y-108777857D01*
X126373095Y-108825476D01*
X126420714Y-108920714D01*
X126468333Y-108968333D01*
X126563571Y-109015952D01*
X126754047Y-109015952D01*
X126849285Y-109063571D01*
X126896904Y-109111190D01*
X126944523Y-109206428D01*
X126944523Y-109396904D01*
X126896904Y-109492142D01*
X126849285Y-109539761D01*
X126754047Y-109587380D01*
X126563571Y-109587380D01*
X126468333Y-109539761D01*
X126420714Y-109492142D01*
X126373095Y-109396904D01*
X126373095Y-109206428D01*
X126420714Y-109111190D01*
X126468333Y-109063571D01*
X126563571Y-109015952D01*
%TO.C,R17*%
X133992857Y-109587380D02*
X134326190Y-109111190D01*
X134564285Y-109587380D02*
X134564285Y-108587380D01*
X134183333Y-108587380D01*
X134088095Y-108635000D01*
X134040476Y-108682619D01*
X133992857Y-108777857D01*
X133992857Y-108920714D01*
X134040476Y-109015952D01*
X134088095Y-109063571D01*
X134183333Y-109111190D01*
X134564285Y-109111190D01*
X133040476Y-109587380D02*
X133611904Y-109587380D01*
X133326190Y-109587380D02*
X133326190Y-108587380D01*
X133421428Y-108730238D01*
X133516666Y-108825476D01*
X133611904Y-108873095D01*
X132707142Y-108587380D02*
X132040476Y-108587380D01*
X132469047Y-109587380D01*
%TO.C,U3*%
X146811904Y-100576380D02*
X146811904Y-101385904D01*
X146764285Y-101481142D01*
X146716666Y-101528761D01*
X146621428Y-101576380D01*
X146430952Y-101576380D01*
X146335714Y-101528761D01*
X146288095Y-101481142D01*
X146240476Y-101385904D01*
X146240476Y-100576380D01*
X145859523Y-100576380D02*
X145240476Y-100576380D01*
X145573809Y-100957333D01*
X145430952Y-100957333D01*
X145335714Y-101004952D01*
X145288095Y-101052571D01*
X145240476Y-101147809D01*
X145240476Y-101385904D01*
X145288095Y-101481142D01*
X145335714Y-101528761D01*
X145430952Y-101576380D01*
X145716666Y-101576380D01*
X145811904Y-101528761D01*
X145859523Y-101481142D01*
%TO.C,U8*%
X148732380Y-89281095D02*
X149541904Y-89281095D01*
X149637142Y-89328714D01*
X149684761Y-89376333D01*
X149732380Y-89471571D01*
X149732380Y-89662047D01*
X149684761Y-89757285D01*
X149637142Y-89804904D01*
X149541904Y-89852523D01*
X148732380Y-89852523D01*
X149160952Y-90471571D02*
X149113333Y-90376333D01*
X149065714Y-90328714D01*
X148970476Y-90281095D01*
X148922857Y-90281095D01*
X148827619Y-90328714D01*
X148780000Y-90376333D01*
X148732380Y-90471571D01*
X148732380Y-90662047D01*
X148780000Y-90757285D01*
X148827619Y-90804904D01*
X148922857Y-90852523D01*
X148970476Y-90852523D01*
X149065714Y-90804904D01*
X149113333Y-90757285D01*
X149160952Y-90662047D01*
X149160952Y-90471571D01*
X149208571Y-90376333D01*
X149256190Y-90328714D01*
X149351428Y-90281095D01*
X149541904Y-90281095D01*
X149637142Y-90328714D01*
X149684761Y-90376333D01*
X149732380Y-90471571D01*
X149732380Y-90662047D01*
X149684761Y-90757285D01*
X149637142Y-90804904D01*
X149541904Y-90852523D01*
X149351428Y-90852523D01*
X149256190Y-90804904D01*
X149208571Y-90757285D01*
X149160952Y-90662047D01*
%TO.C,U5*%
X130936904Y-87622380D02*
X130936904Y-88431904D01*
X130889285Y-88527142D01*
X130841666Y-88574761D01*
X130746428Y-88622380D01*
X130555952Y-88622380D01*
X130460714Y-88574761D01*
X130413095Y-88527142D01*
X130365476Y-88431904D01*
X130365476Y-87622380D01*
X129413095Y-87622380D02*
X129889285Y-87622380D01*
X129936904Y-88098571D01*
X129889285Y-88050952D01*
X129794047Y-88003333D01*
X129555952Y-88003333D01*
X129460714Y-88050952D01*
X129413095Y-88098571D01*
X129365476Y-88193809D01*
X129365476Y-88431904D01*
X129413095Y-88527142D01*
X129460714Y-88574761D01*
X129555952Y-88622380D01*
X129794047Y-88622380D01*
X129889285Y-88574761D01*
X129936904Y-88527142D01*
%TO.C,R16*%
X123578857Y-92950380D02*
X123912190Y-92474190D01*
X124150285Y-92950380D02*
X124150285Y-91950380D01*
X123769333Y-91950380D01*
X123674095Y-91998000D01*
X123626476Y-92045619D01*
X123578857Y-92140857D01*
X123578857Y-92283714D01*
X123626476Y-92378952D01*
X123674095Y-92426571D01*
X123769333Y-92474190D01*
X124150285Y-92474190D01*
X122626476Y-92950380D02*
X123197904Y-92950380D01*
X122912190Y-92950380D02*
X122912190Y-91950380D01*
X123007428Y-92093238D01*
X123102666Y-92188476D01*
X123197904Y-92236095D01*
X121769333Y-91950380D02*
X121959809Y-91950380D01*
X122055047Y-91998000D01*
X122102666Y-92045619D01*
X122197904Y-92188476D01*
X122245523Y-92378952D01*
X122245523Y-92759904D01*
X122197904Y-92855142D01*
X122150285Y-92902761D01*
X122055047Y-92950380D01*
X121864571Y-92950380D01*
X121769333Y-92902761D01*
X121721714Y-92855142D01*
X121674095Y-92759904D01*
X121674095Y-92521809D01*
X121721714Y-92426571D01*
X121769333Y-92378952D01*
X121864571Y-92331333D01*
X122055047Y-92331333D01*
X122150285Y-92378952D01*
X122197904Y-92426571D01*
X122245523Y-92521809D01*
%TO.C,R15*%
X121292857Y-102010380D02*
X121626190Y-101534190D01*
X121864285Y-102010380D02*
X121864285Y-101010380D01*
X121483333Y-101010380D01*
X121388095Y-101058000D01*
X121340476Y-101105619D01*
X121292857Y-101200857D01*
X121292857Y-101343714D01*
X121340476Y-101438952D01*
X121388095Y-101486571D01*
X121483333Y-101534190D01*
X121864285Y-101534190D01*
X120340476Y-102010380D02*
X120911904Y-102010380D01*
X120626190Y-102010380D02*
X120626190Y-101010380D01*
X120721428Y-101153238D01*
X120816666Y-101248476D01*
X120911904Y-101296095D01*
X119435714Y-101010380D02*
X119911904Y-101010380D01*
X119959523Y-101486571D01*
X119911904Y-101438952D01*
X119816666Y-101391333D01*
X119578571Y-101391333D01*
X119483333Y-101438952D01*
X119435714Y-101486571D01*
X119388095Y-101581809D01*
X119388095Y-101819904D01*
X119435714Y-101915142D01*
X119483333Y-101962761D01*
X119578571Y-102010380D01*
X119816666Y-102010380D01*
X119911904Y-101962761D01*
X119959523Y-101915142D01*
%TO.C,R9*%
X120816666Y-110138380D02*
X121150000Y-109662190D01*
X121388095Y-110138380D02*
X121388095Y-109138380D01*
X121007142Y-109138380D01*
X120911904Y-109186000D01*
X120864285Y-109233619D01*
X120816666Y-109328857D01*
X120816666Y-109471714D01*
X120864285Y-109566952D01*
X120911904Y-109614571D01*
X121007142Y-109662190D01*
X121388095Y-109662190D01*
X120340476Y-110138380D02*
X120150000Y-110138380D01*
X120054761Y-110090761D01*
X120007142Y-110043142D01*
X119911904Y-109900285D01*
X119864285Y-109709809D01*
X119864285Y-109328857D01*
X119911904Y-109233619D01*
X119959523Y-109186000D01*
X120054761Y-109138380D01*
X120245238Y-109138380D01*
X120340476Y-109186000D01*
X120388095Y-109233619D01*
X120435714Y-109328857D01*
X120435714Y-109566952D01*
X120388095Y-109662190D01*
X120340476Y-109709809D01*
X120245238Y-109757428D01*
X120054761Y-109757428D01*
X119959523Y-109709809D01*
X119911904Y-109662190D01*
X119864285Y-109566952D01*
%TO.C,R8*%
X114244380Y-87971333D02*
X113768190Y-87638000D01*
X114244380Y-87399904D02*
X113244380Y-87399904D01*
X113244380Y-87780857D01*
X113292000Y-87876095D01*
X113339619Y-87923714D01*
X113434857Y-87971333D01*
X113577714Y-87971333D01*
X113672952Y-87923714D01*
X113720571Y-87876095D01*
X113768190Y-87780857D01*
X113768190Y-87399904D01*
X113672952Y-88542761D02*
X113625333Y-88447523D01*
X113577714Y-88399904D01*
X113482476Y-88352285D01*
X113434857Y-88352285D01*
X113339619Y-88399904D01*
X113292000Y-88447523D01*
X113244380Y-88542761D01*
X113244380Y-88733238D01*
X113292000Y-88828476D01*
X113339619Y-88876095D01*
X113434857Y-88923714D01*
X113482476Y-88923714D01*
X113577714Y-88876095D01*
X113625333Y-88828476D01*
X113672952Y-88733238D01*
X113672952Y-88542761D01*
X113720571Y-88447523D01*
X113768190Y-88399904D01*
X113863428Y-88352285D01*
X114053904Y-88352285D01*
X114149142Y-88399904D01*
X114196761Y-88447523D01*
X114244380Y-88542761D01*
X114244380Y-88733238D01*
X114196761Y-88828476D01*
X114149142Y-88876095D01*
X114053904Y-88923714D01*
X113863428Y-88923714D01*
X113768190Y-88876095D01*
X113720571Y-88828476D01*
X113672952Y-88733238D01*
%TO.C,R7*%
X138850666Y-84780380D02*
X139184000Y-84304190D01*
X139422095Y-84780380D02*
X139422095Y-83780380D01*
X139041142Y-83780380D01*
X138945904Y-83828000D01*
X138898285Y-83875619D01*
X138850666Y-83970857D01*
X138850666Y-84113714D01*
X138898285Y-84208952D01*
X138945904Y-84256571D01*
X139041142Y-84304190D01*
X139422095Y-84304190D01*
X138517333Y-83780380D02*
X137850666Y-83780380D01*
X138279238Y-84780380D01*
%TO.C,R6*%
X136564666Y-84780380D02*
X136898000Y-84304190D01*
X137136095Y-84780380D02*
X137136095Y-83780380D01*
X136755142Y-83780380D01*
X136659904Y-83828000D01*
X136612285Y-83875619D01*
X136564666Y-83970857D01*
X136564666Y-84113714D01*
X136612285Y-84208952D01*
X136659904Y-84256571D01*
X136755142Y-84304190D01*
X137136095Y-84304190D01*
X135707523Y-83780380D02*
X135898000Y-83780380D01*
X135993238Y-83828000D01*
X136040857Y-83875619D01*
X136136095Y-84018476D01*
X136183714Y-84208952D01*
X136183714Y-84589904D01*
X136136095Y-84685142D01*
X136088476Y-84732761D01*
X135993238Y-84780380D01*
X135802761Y-84780380D01*
X135707523Y-84732761D01*
X135659904Y-84685142D01*
X135612285Y-84589904D01*
X135612285Y-84351809D01*
X135659904Y-84256571D01*
X135707523Y-84208952D01*
X135802761Y-84161333D01*
X135993238Y-84161333D01*
X136088476Y-84208952D01*
X136136095Y-84256571D01*
X136183714Y-84351809D01*
%TO.C,R3*%
X143422666Y-110434380D02*
X143756000Y-109958190D01*
X143994095Y-110434380D02*
X143994095Y-109434380D01*
X143613142Y-109434380D01*
X143517904Y-109482000D01*
X143470285Y-109529619D01*
X143422666Y-109624857D01*
X143422666Y-109767714D01*
X143470285Y-109862952D01*
X143517904Y-109910571D01*
X143613142Y-109958190D01*
X143994095Y-109958190D01*
X143089333Y-109434380D02*
X142470285Y-109434380D01*
X142803619Y-109815333D01*
X142660761Y-109815333D01*
X142565523Y-109862952D01*
X142517904Y-109910571D01*
X142470285Y-110005809D01*
X142470285Y-110243904D01*
X142517904Y-110339142D01*
X142565523Y-110386761D01*
X142660761Y-110434380D01*
X142946476Y-110434380D01*
X143041714Y-110386761D01*
X143089333Y-110339142D01*
%TO.C,R2*%
X135802666Y-102052380D02*
X136136000Y-101576190D01*
X136374095Y-102052380D02*
X136374095Y-101052380D01*
X135993142Y-101052380D01*
X135897904Y-101100000D01*
X135850285Y-101147619D01*
X135802666Y-101242857D01*
X135802666Y-101385714D01*
X135850285Y-101480952D01*
X135897904Y-101528571D01*
X135993142Y-101576190D01*
X136374095Y-101576190D01*
X135421714Y-101147619D02*
X135374095Y-101100000D01*
X135278857Y-101052380D01*
X135040761Y-101052380D01*
X134945523Y-101100000D01*
X134897904Y-101147619D01*
X134850285Y-101242857D01*
X134850285Y-101338095D01*
X134897904Y-101480952D01*
X135469333Y-102052380D01*
X134850285Y-102052380D01*
%TO.C,R1*%
X120816666Y-106074380D02*
X121150000Y-105598190D01*
X121388095Y-106074380D02*
X121388095Y-105074380D01*
X121007142Y-105074380D01*
X120911904Y-105122000D01*
X120864285Y-105169619D01*
X120816666Y-105264857D01*
X120816666Y-105407714D01*
X120864285Y-105502952D01*
X120911904Y-105550571D01*
X121007142Y-105598190D01*
X121388095Y-105598190D01*
X119864285Y-106074380D02*
X120435714Y-106074380D01*
X120150000Y-106074380D02*
X120150000Y-105074380D01*
X120245238Y-105217238D01*
X120340476Y-105312476D01*
X120435714Y-105360095D01*
%TO.C,Q1*%
X139541238Y-97067619D02*
X139636476Y-97020000D01*
X139731714Y-96924761D01*
X139874571Y-96781904D01*
X139969809Y-96734285D01*
X140065047Y-96734285D01*
X140017428Y-96972380D02*
X140112666Y-96924761D01*
X140207904Y-96829523D01*
X140255523Y-96639047D01*
X140255523Y-96305714D01*
X140207904Y-96115238D01*
X140112666Y-96020000D01*
X140017428Y-95972380D01*
X139826952Y-95972380D01*
X139731714Y-96020000D01*
X139636476Y-96115238D01*
X139588857Y-96305714D01*
X139588857Y-96639047D01*
X139636476Y-96829523D01*
X139731714Y-96924761D01*
X139826952Y-96972380D01*
X140017428Y-96972380D01*
X138636476Y-96972380D02*
X139207904Y-96972380D01*
X138922190Y-96972380D02*
X138922190Y-95972380D01*
X139017428Y-96115238D01*
X139112666Y-96210476D01*
X139207904Y-96258095D01*
%TO.C,D2*%
X143994095Y-104084380D02*
X143994095Y-103084380D01*
X143756000Y-103084380D01*
X143613142Y-103132000D01*
X143517904Y-103227238D01*
X143470285Y-103322476D01*
X143422666Y-103512952D01*
X143422666Y-103655809D01*
X143470285Y-103846285D01*
X143517904Y-103941523D01*
X143613142Y-104036761D01*
X143756000Y-104084380D01*
X143994095Y-104084380D01*
X143041714Y-103179619D02*
X142994095Y-103132000D01*
X142898857Y-103084380D01*
X142660761Y-103084380D01*
X142565523Y-103132000D01*
X142517904Y-103179619D01*
X142470285Y-103274857D01*
X142470285Y-103370095D01*
X142517904Y-103512952D01*
X143089333Y-104084380D01*
X142470285Y-104084380D01*
%TO.C,C13*%
X123578857Y-86717142D02*
X123626476Y-86764761D01*
X123769333Y-86812380D01*
X123864571Y-86812380D01*
X124007428Y-86764761D01*
X124102666Y-86669523D01*
X124150285Y-86574285D01*
X124197904Y-86383809D01*
X124197904Y-86240952D01*
X124150285Y-86050476D01*
X124102666Y-85955238D01*
X124007428Y-85860000D01*
X123864571Y-85812380D01*
X123769333Y-85812380D01*
X123626476Y-85860000D01*
X123578857Y-85907619D01*
X122626476Y-86812380D02*
X123197904Y-86812380D01*
X122912190Y-86812380D02*
X122912190Y-85812380D01*
X123007428Y-85955238D01*
X123102666Y-86050476D01*
X123197904Y-86098095D01*
X122293142Y-85812380D02*
X121674095Y-85812380D01*
X122007428Y-86193333D01*
X121864571Y-86193333D01*
X121769333Y-86240952D01*
X121721714Y-86288571D01*
X121674095Y-86383809D01*
X121674095Y-86621904D01*
X121721714Y-86717142D01*
X121769333Y-86764761D01*
X121864571Y-86812380D01*
X122150285Y-86812380D01*
X122245523Y-86764761D01*
X122293142Y-86717142D01*
%TO.C,C12*%
X131960857Y-97385142D02*
X132008476Y-97432761D01*
X132151333Y-97480380D01*
X132246571Y-97480380D01*
X132389428Y-97432761D01*
X132484666Y-97337523D01*
X132532285Y-97242285D01*
X132579904Y-97051809D01*
X132579904Y-96908952D01*
X132532285Y-96718476D01*
X132484666Y-96623238D01*
X132389428Y-96528000D01*
X132246571Y-96480380D01*
X132151333Y-96480380D01*
X132008476Y-96528000D01*
X131960857Y-96575619D01*
X131008476Y-97480380D02*
X131579904Y-97480380D01*
X131294190Y-97480380D02*
X131294190Y-96480380D01*
X131389428Y-96623238D01*
X131484666Y-96718476D01*
X131579904Y-96766095D01*
X130627523Y-96575619D02*
X130579904Y-96528000D01*
X130484666Y-96480380D01*
X130246571Y-96480380D01*
X130151333Y-96528000D01*
X130103714Y-96575619D01*
X130056095Y-96670857D01*
X130056095Y-96766095D01*
X130103714Y-96908952D01*
X130675142Y-97480380D01*
X130056095Y-97480380D01*
%TO.C,C10*%
D13*
X131514000Y-100072000D02*
X131547333Y-100105333D01*
X131647333Y-100138666D01*
X131714000Y-100138666D01*
X131814000Y-100105333D01*
X131880666Y-100038666D01*
X131914000Y-99972000D01*
X131947333Y-99838666D01*
X131947333Y-99738666D01*
X131914000Y-99605333D01*
X131880666Y-99538666D01*
X131814000Y-99472000D01*
X131714000Y-99438666D01*
X131647333Y-99438666D01*
X131547333Y-99472000D01*
X131514000Y-99505333D01*
X130847333Y-100138666D02*
X131247333Y-100138666D01*
X131047333Y-100138666D02*
X131047333Y-99438666D01*
X131114000Y-99538666D01*
X131180666Y-99605333D01*
X131247333Y-99638666D01*
X130414000Y-99438666D02*
X130347333Y-99438666D01*
X130280666Y-99472000D01*
X130247333Y-99505333D01*
X130214000Y-99572000D01*
X130180666Y-99705333D01*
X130180666Y-99872000D01*
X130214000Y-100005333D01*
X130247333Y-100072000D01*
X130280666Y-100105333D01*
X130347333Y-100138666D01*
X130414000Y-100138666D01*
X130480666Y-100105333D01*
X130514000Y-100072000D01*
X130547333Y-100005333D01*
X130580666Y-99872000D01*
X130580666Y-99705333D01*
X130547333Y-99572000D01*
X130514000Y-99505333D01*
X130480666Y-99472000D01*
X130414000Y-99438666D01*
%TO.C,U4*%
D10*
X128269904Y-104318380D02*
X128269904Y-105127904D01*
X128222285Y-105223142D01*
X128174666Y-105270761D01*
X128079428Y-105318380D01*
X127888952Y-105318380D01*
X127793714Y-105270761D01*
X127746095Y-105223142D01*
X127698476Y-105127904D01*
X127698476Y-104318380D01*
X126793714Y-104651714D02*
X126793714Y-105318380D01*
X127031809Y-104270761D02*
X127269904Y-104985047D01*
X126650857Y-104985047D01*
%TO.C,R20*%
X122626380Y-97655142D02*
X122150190Y-97321809D01*
X122626380Y-97083714D02*
X121626380Y-97083714D01*
X121626380Y-97464666D01*
X121674000Y-97559904D01*
X121721619Y-97607523D01*
X121816857Y-97655142D01*
X121959714Y-97655142D01*
X122054952Y-97607523D01*
X122102571Y-97559904D01*
X122150190Y-97464666D01*
X122150190Y-97083714D01*
X121721619Y-98036095D02*
X121674000Y-98083714D01*
X121626380Y-98178952D01*
X121626380Y-98417047D01*
X121674000Y-98512285D01*
X121721619Y-98559904D01*
X121816857Y-98607523D01*
X121912095Y-98607523D01*
X122054952Y-98559904D01*
X122626380Y-97988476D01*
X122626380Y-98607523D01*
X121626380Y-99226571D02*
X121626380Y-99321809D01*
X121674000Y-99417047D01*
X121721619Y-99464666D01*
X121816857Y-99512285D01*
X122007333Y-99559904D01*
X122245428Y-99559904D01*
X122435904Y-99512285D01*
X122531142Y-99464666D01*
X122578761Y-99417047D01*
X122626380Y-99321809D01*
X122626380Y-99226571D01*
X122578761Y-99131333D01*
X122531142Y-99083714D01*
X122435904Y-99036095D01*
X122245428Y-98988476D01*
X122007333Y-98988476D01*
X121816857Y-99036095D01*
X121721619Y-99083714D01*
X121674000Y-99131333D01*
X121626380Y-99226571D01*
%TO.C,R12*%
X134246857Y-84780380D02*
X134580190Y-84304190D01*
X134818285Y-84780380D02*
X134818285Y-83780380D01*
X134437333Y-83780380D01*
X134342095Y-83828000D01*
X134294476Y-83875619D01*
X134246857Y-83970857D01*
X134246857Y-84113714D01*
X134294476Y-84208952D01*
X134342095Y-84256571D01*
X134437333Y-84304190D01*
X134818285Y-84304190D01*
X133294476Y-84780380D02*
X133865904Y-84780380D01*
X133580190Y-84780380D02*
X133580190Y-83780380D01*
X133675428Y-83923238D01*
X133770666Y-84018476D01*
X133865904Y-84066095D01*
X132913523Y-83875619D02*
X132865904Y-83828000D01*
X132770666Y-83780380D01*
X132532571Y-83780380D01*
X132437333Y-83828000D01*
X132389714Y-83875619D01*
X132342095Y-83970857D01*
X132342095Y-84066095D01*
X132389714Y-84208952D01*
X132961142Y-84780380D01*
X132342095Y-84780380D01*
%TO.C,R11*%
X146946857Y-97268380D02*
X147280190Y-96792190D01*
X147518285Y-97268380D02*
X147518285Y-96268380D01*
X147137333Y-96268380D01*
X147042095Y-96316000D01*
X146994476Y-96363619D01*
X146946857Y-96458857D01*
X146946857Y-96601714D01*
X146994476Y-96696952D01*
X147042095Y-96744571D01*
X147137333Y-96792190D01*
X147518285Y-96792190D01*
X145994476Y-97268380D02*
X146565904Y-97268380D01*
X146280190Y-97268380D02*
X146280190Y-96268380D01*
X146375428Y-96411238D01*
X146470666Y-96506476D01*
X146565904Y-96554095D01*
X145042095Y-97268380D02*
X145613523Y-97268380D01*
X145327809Y-97268380D02*
X145327809Y-96268380D01*
X145423047Y-96411238D01*
X145518285Y-96506476D01*
X145613523Y-96554095D01*
%TO.C,R10*%
X141866857Y-94940380D02*
X142200190Y-94464190D01*
X142438285Y-94940380D02*
X142438285Y-93940380D01*
X142057333Y-93940380D01*
X141962095Y-93988000D01*
X141914476Y-94035619D01*
X141866857Y-94130857D01*
X141866857Y-94273714D01*
X141914476Y-94368952D01*
X141962095Y-94416571D01*
X142057333Y-94464190D01*
X142438285Y-94464190D01*
X140914476Y-94940380D02*
X141485904Y-94940380D01*
X141200190Y-94940380D02*
X141200190Y-93940380D01*
X141295428Y-94083238D01*
X141390666Y-94178476D01*
X141485904Y-94226095D01*
X140295428Y-93940380D02*
X140200190Y-93940380D01*
X140104952Y-93988000D01*
X140057333Y-94035619D01*
X140009714Y-94130857D01*
X139962095Y-94321333D01*
X139962095Y-94559428D01*
X140009714Y-94749904D01*
X140057333Y-94845142D01*
X140104952Y-94892761D01*
X140200190Y-94940380D01*
X140295428Y-94940380D01*
X140390666Y-94892761D01*
X140438285Y-94845142D01*
X140485904Y-94749904D01*
X140533523Y-94559428D01*
X140533523Y-94321333D01*
X140485904Y-94130857D01*
X140438285Y-94035619D01*
X140390666Y-93988000D01*
X140295428Y-93940380D01*
%TO.C,C6*%
X136120142Y-93305333D02*
X136167761Y-93257714D01*
X136215380Y-93114857D01*
X136215380Y-93019619D01*
X136167761Y-92876761D01*
X136072523Y-92781523D01*
X135977285Y-92733904D01*
X135786809Y-92686285D01*
X135643952Y-92686285D01*
X135453476Y-92733904D01*
X135358238Y-92781523D01*
X135263000Y-92876761D01*
X135215380Y-93019619D01*
X135215380Y-93114857D01*
X135263000Y-93257714D01*
X135310619Y-93305333D01*
X135215380Y-94162476D02*
X135215380Y-93972000D01*
X135263000Y-93876761D01*
X135310619Y-93829142D01*
X135453476Y-93733904D01*
X135643952Y-93686285D01*
X136024904Y-93686285D01*
X136120142Y-93733904D01*
X136167761Y-93781523D01*
X136215380Y-93876761D01*
X136215380Y-94067238D01*
X136167761Y-94162476D01*
X136120142Y-94210095D01*
X136024904Y-94257714D01*
X135786809Y-94257714D01*
X135691571Y-94210095D01*
X135643952Y-94162476D01*
X135596333Y-94067238D01*
X135596333Y-93876761D01*
X135643952Y-93781523D01*
X135691571Y-93733904D01*
X135786809Y-93686285D01*
%TO.C,C4*%
X150026666Y-93067142D02*
X150074285Y-93114761D01*
X150217142Y-93162380D01*
X150312380Y-93162380D01*
X150455238Y-93114761D01*
X150550476Y-93019523D01*
X150598095Y-92924285D01*
X150645714Y-92733809D01*
X150645714Y-92590952D01*
X150598095Y-92400476D01*
X150550476Y-92305238D01*
X150455238Y-92210000D01*
X150312380Y-92162380D01*
X150217142Y-92162380D01*
X150074285Y-92210000D01*
X150026666Y-92257619D01*
X149169523Y-92495714D02*
X149169523Y-93162380D01*
X149407619Y-92114761D02*
X149645714Y-92829047D01*
X149026666Y-92829047D01*
%TO.C,C3*%
X119546666Y-99925142D02*
X119594285Y-99972761D01*
X119737142Y-100020380D01*
X119832380Y-100020380D01*
X119975238Y-99972761D01*
X120070476Y-99877523D01*
X120118095Y-99782285D01*
X120165714Y-99591809D01*
X120165714Y-99448952D01*
X120118095Y-99258476D01*
X120070476Y-99163238D01*
X119975238Y-99068000D01*
X119832380Y-99020380D01*
X119737142Y-99020380D01*
X119594285Y-99068000D01*
X119546666Y-99115619D01*
X119213333Y-99020380D02*
X118594285Y-99020380D01*
X118927619Y-99401333D01*
X118784761Y-99401333D01*
X118689523Y-99448952D01*
X118641904Y-99496571D01*
X118594285Y-99591809D01*
X118594285Y-99829904D01*
X118641904Y-99925142D01*
X118689523Y-99972761D01*
X118784761Y-100020380D01*
X119070476Y-100020380D01*
X119165714Y-99972761D01*
X119213333Y-99925142D01*
%TD*%
M02*
