%TF.GenerationSoftware,KiCad,Pcbnew,(5.1.10)-1*%
%TF.CreationDate,2021-10-15T07:39:30+02:00*%
%TF.ProjectId,BTS-LogicBoard,4254532d-4c6f-4676-9963-426f6172642e,rev?*%
%TF.SameCoordinates,Original*%
%TF.FileFunction,Legend,Top*%
%TF.FilePolarity,Positive*%
%FSLAX46Y46*%
G04 Gerber Fmt 4.6, Leading zero omitted, Abs format (unit mm)*
G04 Created by KiCad (PCBNEW (5.1.10)-1) date 2021-10-15 07:39:30*
%MOMM*%
%LPD*%
G01*
G04 APERTURE LIST*
%ADD10C,0.120000*%
%ADD11C,0.070000*%
%ADD12C,0.100000*%
%ADD13C,0.010000*%
%ADD14C,0.150000*%
G04 APERTURE END LIST*
D10*
X121666000Y-95250000D02*
X122428000Y-95250000D01*
X121666000Y-95504000D02*
X121666000Y-95250000D01*
X122682000Y-89662000D02*
X122936000Y-89916000D01*
X122682000Y-87884000D02*
X122682000Y-89662000D01*
D11*
X128530476Y-80552952D02*
X128663809Y-80952952D01*
X128797142Y-80552952D01*
X128911428Y-80933904D02*
X128968571Y-80952952D01*
X129063809Y-80952952D01*
X129101904Y-80933904D01*
X129120952Y-80914857D01*
X129140000Y-80876761D01*
X129140000Y-80838666D01*
X129120952Y-80800571D01*
X129101904Y-80781523D01*
X129063809Y-80762476D01*
X128987619Y-80743428D01*
X128949523Y-80724380D01*
X128930476Y-80705333D01*
X128911428Y-80667238D01*
X128911428Y-80629142D01*
X128930476Y-80591047D01*
X128949523Y-80572000D01*
X128987619Y-80552952D01*
X129082857Y-80552952D01*
X129140000Y-80572000D01*
X129463809Y-80933904D02*
X129425714Y-80952952D01*
X129349523Y-80952952D01*
X129311428Y-80933904D01*
X129292380Y-80895809D01*
X129292380Y-80743428D01*
X129311428Y-80705333D01*
X129349523Y-80686285D01*
X129425714Y-80686285D01*
X129463809Y-80705333D01*
X129482857Y-80743428D01*
X129482857Y-80781523D01*
X129292380Y-80819619D01*
X129654285Y-80686285D02*
X129654285Y-80952952D01*
X129654285Y-80724380D02*
X129673333Y-80705333D01*
X129711428Y-80686285D01*
X129768571Y-80686285D01*
X129806666Y-80705333D01*
X129825714Y-80743428D01*
X129825714Y-80952952D01*
X129997142Y-80933904D02*
X130035238Y-80952952D01*
X130111428Y-80952952D01*
X130149523Y-80933904D01*
X130168571Y-80895809D01*
X130168571Y-80876761D01*
X130149523Y-80838666D01*
X130111428Y-80819619D01*
X130054285Y-80819619D01*
X130016190Y-80800571D01*
X129997142Y-80762476D01*
X129997142Y-80743428D01*
X130016190Y-80705333D01*
X130054285Y-80686285D01*
X130111428Y-80686285D01*
X130149523Y-80705333D01*
X130492380Y-80933904D02*
X130454285Y-80952952D01*
X130378095Y-80952952D01*
X130340000Y-80933904D01*
X130320952Y-80895809D01*
X130320952Y-80743428D01*
X130340000Y-80705333D01*
X130378095Y-80686285D01*
X130454285Y-80686285D01*
X130492380Y-80705333D01*
X130511428Y-80743428D01*
X130511428Y-80781523D01*
X130320952Y-80819619D01*
D10*
X121412000Y-79248000D02*
X120396000Y-79248000D01*
X121412000Y-75438000D02*
X121412000Y-79248000D01*
X120396000Y-75438000D02*
X121412000Y-75438000D01*
X112776000Y-79248000D02*
X114046000Y-79248000D01*
X112776000Y-75438000D02*
X112776000Y-79248000D01*
X114046000Y-75438000D02*
X112776000Y-75438000D01*
D11*
X119075238Y-80826000D02*
X119037142Y-80806952D01*
X118980000Y-80806952D01*
X118922857Y-80826000D01*
X118884761Y-80864095D01*
X118865714Y-80902190D01*
X118846666Y-80978380D01*
X118846666Y-81035523D01*
X118865714Y-81111714D01*
X118884761Y-81149809D01*
X118922857Y-81187904D01*
X118980000Y-81206952D01*
X119018095Y-81206952D01*
X119075238Y-81187904D01*
X119094285Y-81168857D01*
X119094285Y-81035523D01*
X119018095Y-81035523D01*
X119265714Y-81206952D02*
X119265714Y-80806952D01*
X119494285Y-81206952D01*
X119494285Y-80806952D01*
X119684761Y-81206952D02*
X119684761Y-80806952D01*
X119780000Y-80806952D01*
X119837142Y-80826000D01*
X119875238Y-80864095D01*
X119894285Y-80902190D01*
X119913333Y-80978380D01*
X119913333Y-81035523D01*
X119894285Y-81111714D01*
X119875238Y-81149809D01*
X119837142Y-81187904D01*
X119780000Y-81206952D01*
X119684761Y-81206952D01*
X117144857Y-81206952D02*
X117144857Y-80806952D01*
X117335333Y-81206952D02*
X117335333Y-80806952D01*
X117563904Y-81206952D01*
X117563904Y-80806952D01*
X117754380Y-81054571D02*
X118059142Y-81054571D01*
X117906761Y-81206952D02*
X117906761Y-80902190D01*
X115319238Y-81168857D02*
X115300190Y-81187904D01*
X115243047Y-81206952D01*
X115204952Y-81206952D01*
X115147809Y-81187904D01*
X115109714Y-81149809D01*
X115090666Y-81111714D01*
X115071619Y-81035523D01*
X115071619Y-80978380D01*
X115090666Y-80902190D01*
X115109714Y-80864095D01*
X115147809Y-80826000D01*
X115204952Y-80806952D01*
X115243047Y-80806952D01*
X115300190Y-80826000D01*
X115319238Y-80845047D01*
X115547809Y-81206952D02*
X115509714Y-81187904D01*
X115490666Y-81168857D01*
X115471619Y-81130761D01*
X115471619Y-81016476D01*
X115490666Y-80978380D01*
X115509714Y-80959333D01*
X115547809Y-80940285D01*
X115604952Y-80940285D01*
X115643047Y-80959333D01*
X115662095Y-80978380D01*
X115681142Y-81016476D01*
X115681142Y-81130761D01*
X115662095Y-81168857D01*
X115643047Y-81187904D01*
X115604952Y-81206952D01*
X115547809Y-81206952D01*
X115852571Y-81206952D02*
X115852571Y-80940285D01*
X115852571Y-80978380D02*
X115871619Y-80959333D01*
X115909714Y-80940285D01*
X115966857Y-80940285D01*
X116004952Y-80959333D01*
X116024000Y-80997428D01*
X116024000Y-81206952D01*
X116024000Y-80997428D02*
X116043047Y-80959333D01*
X116081142Y-80940285D01*
X116138285Y-80940285D01*
X116176380Y-80959333D01*
X116195428Y-80997428D01*
X116195428Y-81206952D01*
X116385904Y-80940285D02*
X116385904Y-81340285D01*
X116385904Y-80959333D02*
X116424000Y-80940285D01*
X116500190Y-80940285D01*
X116538285Y-80959333D01*
X116557333Y-80978380D01*
X116576380Y-81016476D01*
X116576380Y-81130761D01*
X116557333Y-81168857D01*
X116538285Y-81187904D01*
X116500190Y-81206952D01*
X116424000Y-81206952D01*
X116385904Y-81187904D01*
X119075238Y-86922000D02*
X119037142Y-86902952D01*
X118980000Y-86902952D01*
X118922857Y-86922000D01*
X118884761Y-86960095D01*
X118865714Y-86998190D01*
X118846666Y-87074380D01*
X118846666Y-87131523D01*
X118865714Y-87207714D01*
X118884761Y-87245809D01*
X118922857Y-87283904D01*
X118980000Y-87302952D01*
X119018095Y-87302952D01*
X119075238Y-87283904D01*
X119094285Y-87264857D01*
X119094285Y-87131523D01*
X119018095Y-87131523D01*
X119265714Y-87302952D02*
X119265714Y-86902952D01*
X119494285Y-87302952D01*
X119494285Y-86902952D01*
X119684761Y-87302952D02*
X119684761Y-86902952D01*
X119780000Y-86902952D01*
X119837142Y-86922000D01*
X119875238Y-86960095D01*
X119894285Y-86998190D01*
X119913333Y-87074380D01*
X119913333Y-87131523D01*
X119894285Y-87207714D01*
X119875238Y-87245809D01*
X119837142Y-87283904D01*
X119780000Y-87302952D01*
X119684761Y-87302952D01*
X115065238Y-87264857D02*
X115046190Y-87283904D01*
X114989047Y-87302952D01*
X114950952Y-87302952D01*
X114893809Y-87283904D01*
X114855714Y-87245809D01*
X114836666Y-87207714D01*
X114817619Y-87131523D01*
X114817619Y-87074380D01*
X114836666Y-86998190D01*
X114855714Y-86960095D01*
X114893809Y-86922000D01*
X114950952Y-86902952D01*
X114989047Y-86902952D01*
X115046190Y-86922000D01*
X115065238Y-86941047D01*
X115293809Y-87302952D02*
X115255714Y-87283904D01*
X115236666Y-87264857D01*
X115217619Y-87226761D01*
X115217619Y-87112476D01*
X115236666Y-87074380D01*
X115255714Y-87055333D01*
X115293809Y-87036285D01*
X115350952Y-87036285D01*
X115389047Y-87055333D01*
X115408095Y-87074380D01*
X115427142Y-87112476D01*
X115427142Y-87226761D01*
X115408095Y-87264857D01*
X115389047Y-87283904D01*
X115350952Y-87302952D01*
X115293809Y-87302952D01*
X115598571Y-87302952D02*
X115598571Y-87036285D01*
X115598571Y-87074380D02*
X115617619Y-87055333D01*
X115655714Y-87036285D01*
X115712857Y-87036285D01*
X115750952Y-87055333D01*
X115770000Y-87093428D01*
X115770000Y-87302952D01*
X115770000Y-87093428D02*
X115789047Y-87055333D01*
X115827142Y-87036285D01*
X115884285Y-87036285D01*
X115922380Y-87055333D01*
X115941428Y-87093428D01*
X115941428Y-87302952D01*
X116131904Y-87036285D02*
X116131904Y-87436285D01*
X116131904Y-87055333D02*
X116170000Y-87036285D01*
X116246190Y-87036285D01*
X116284285Y-87055333D01*
X116303333Y-87074380D01*
X116322380Y-87112476D01*
X116322380Y-87226761D01*
X116303333Y-87264857D01*
X116284285Y-87283904D01*
X116246190Y-87302952D01*
X116170000Y-87302952D01*
X116131904Y-87283904D01*
X117144857Y-87302952D02*
X117144857Y-86902952D01*
X117335333Y-87302952D02*
X117335333Y-86902952D01*
X117563904Y-87302952D01*
X117563904Y-86902952D01*
X117754380Y-87150571D02*
X118059142Y-87150571D01*
X117040095Y-87971285D02*
X117040095Y-88371285D01*
X117040095Y-87990333D02*
X117078190Y-87971285D01*
X117154380Y-87971285D01*
X117192476Y-87990333D01*
X117211523Y-88009380D01*
X117230571Y-88047476D01*
X117230571Y-88161761D01*
X117211523Y-88199857D01*
X117192476Y-88218904D01*
X117154380Y-88237952D01*
X117078190Y-88237952D01*
X117040095Y-88218904D01*
X117363904Y-87971285D02*
X117440095Y-88237952D01*
X117516285Y-88047476D01*
X117592476Y-88237952D01*
X117668666Y-87971285D01*
X117821047Y-88237952D02*
X117821047Y-87971285D01*
X117821047Y-88009380D02*
X117840095Y-87990333D01*
X117878190Y-87971285D01*
X117935333Y-87971285D01*
X117973428Y-87990333D01*
X117992476Y-88028428D01*
X117992476Y-88237952D01*
X117992476Y-88028428D02*
X118011523Y-87990333D01*
X118049619Y-87971285D01*
X118106761Y-87971285D01*
X118144857Y-87990333D01*
X118163904Y-88028428D01*
X118163904Y-88237952D01*
X117240095Y-88907952D02*
X117240095Y-88507952D01*
X117240095Y-88888904D02*
X117202000Y-88907952D01*
X117125809Y-88907952D01*
X117087714Y-88888904D01*
X117068666Y-88869857D01*
X117049619Y-88831761D01*
X117049619Y-88717476D01*
X117068666Y-88679380D01*
X117087714Y-88660333D01*
X117125809Y-88641285D01*
X117202000Y-88641285D01*
X117240095Y-88660333D01*
X117602000Y-88641285D02*
X117602000Y-88907952D01*
X117430571Y-88641285D02*
X117430571Y-88850809D01*
X117449619Y-88888904D01*
X117487714Y-88907952D01*
X117544857Y-88907952D01*
X117582952Y-88888904D01*
X117602000Y-88869857D01*
X117735333Y-88641285D02*
X117887714Y-88641285D01*
X117792476Y-88507952D02*
X117792476Y-88850809D01*
X117811523Y-88888904D01*
X117849619Y-88907952D01*
X117887714Y-88907952D01*
X117982952Y-88641285D02*
X118078190Y-88907952D01*
X118173428Y-88641285D02*
X118078190Y-88907952D01*
X118040095Y-89003190D01*
X118021047Y-89022238D01*
X117982952Y-89041285D01*
X118986380Y-88674571D02*
X119291142Y-88674571D01*
X119481619Y-88826952D02*
X119481619Y-88426952D01*
X119634000Y-88426952D01*
X119672095Y-88446000D01*
X119691142Y-88465047D01*
X119710190Y-88503142D01*
X119710190Y-88560285D01*
X119691142Y-88598380D01*
X119672095Y-88617428D01*
X119634000Y-88636476D01*
X119481619Y-88636476D01*
X119938761Y-88826952D02*
X119900666Y-88807904D01*
X119881619Y-88788857D01*
X119862571Y-88750761D01*
X119862571Y-88636476D01*
X119881619Y-88598380D01*
X119900666Y-88579333D01*
X119938761Y-88560285D01*
X119995904Y-88560285D01*
X120034000Y-88579333D01*
X120053047Y-88598380D01*
X120072095Y-88636476D01*
X120072095Y-88750761D01*
X120053047Y-88788857D01*
X120034000Y-88807904D01*
X119995904Y-88826952D01*
X119938761Y-88826952D01*
X120186380Y-88560285D02*
X120338761Y-88560285D01*
X120243523Y-88426952D02*
X120243523Y-88769809D01*
X120262571Y-88807904D01*
X120300666Y-88826952D01*
X120338761Y-88826952D01*
X114922380Y-88420571D02*
X115227142Y-88420571D01*
X115074761Y-88572952D02*
X115074761Y-88268190D01*
X115417619Y-88572952D02*
X115417619Y-88172952D01*
X115570000Y-88172952D01*
X115608095Y-88192000D01*
X115627142Y-88211047D01*
X115646190Y-88249142D01*
X115646190Y-88306285D01*
X115627142Y-88344380D01*
X115608095Y-88363428D01*
X115570000Y-88382476D01*
X115417619Y-88382476D01*
X115874761Y-88572952D02*
X115836666Y-88553904D01*
X115817619Y-88534857D01*
X115798571Y-88496761D01*
X115798571Y-88382476D01*
X115817619Y-88344380D01*
X115836666Y-88325333D01*
X115874761Y-88306285D01*
X115931904Y-88306285D01*
X115970000Y-88325333D01*
X115989047Y-88344380D01*
X116008095Y-88382476D01*
X116008095Y-88496761D01*
X115989047Y-88534857D01*
X115970000Y-88553904D01*
X115931904Y-88572952D01*
X115874761Y-88572952D01*
X116122380Y-88306285D02*
X116274761Y-88306285D01*
X116179523Y-88172952D02*
X116179523Y-88515809D01*
X116198571Y-88553904D01*
X116236666Y-88572952D01*
X116274761Y-88572952D01*
X115065238Y-94841952D02*
X115065238Y-94441952D01*
X115217619Y-94441952D01*
X115255714Y-94461000D01*
X115274761Y-94480047D01*
X115293809Y-94518142D01*
X115293809Y-94575285D01*
X115274761Y-94613380D01*
X115255714Y-94632428D01*
X115217619Y-94651476D01*
X115065238Y-94651476D01*
X115446190Y-94822904D02*
X115503333Y-94841952D01*
X115598571Y-94841952D01*
X115636666Y-94822904D01*
X115655714Y-94803857D01*
X115674761Y-94765761D01*
X115674761Y-94727666D01*
X115655714Y-94689571D01*
X115636666Y-94670523D01*
X115598571Y-94651476D01*
X115522380Y-94632428D01*
X115484285Y-94613380D01*
X115465238Y-94594333D01*
X115446190Y-94556238D01*
X115446190Y-94518142D01*
X115465238Y-94480047D01*
X115484285Y-94461000D01*
X115522380Y-94441952D01*
X115617619Y-94441952D01*
X115674761Y-94461000D01*
X115846190Y-94441952D02*
X115846190Y-94765761D01*
X115865238Y-94803857D01*
X115884285Y-94822904D01*
X115922380Y-94841952D01*
X115998571Y-94841952D01*
X116036666Y-94822904D01*
X116055714Y-94803857D01*
X116074761Y-94765761D01*
X116074761Y-94441952D01*
X115322380Y-95111952D02*
X115398571Y-95111952D01*
X115436666Y-95131000D01*
X115474761Y-95169095D01*
X115493809Y-95245285D01*
X115493809Y-95378619D01*
X115474761Y-95454809D01*
X115436666Y-95492904D01*
X115398571Y-95511952D01*
X115322380Y-95511952D01*
X115284285Y-95492904D01*
X115246190Y-95454809D01*
X115227142Y-95378619D01*
X115227142Y-95245285D01*
X115246190Y-95169095D01*
X115284285Y-95131000D01*
X115322380Y-95111952D01*
X115665238Y-95511952D02*
X115665238Y-95111952D01*
X115893809Y-95511952D01*
X115893809Y-95111952D01*
X119329238Y-94796000D02*
X119291142Y-94776952D01*
X119234000Y-94776952D01*
X119176857Y-94796000D01*
X119138761Y-94834095D01*
X119119714Y-94872190D01*
X119100666Y-94948380D01*
X119100666Y-95005523D01*
X119119714Y-95081714D01*
X119138761Y-95119809D01*
X119176857Y-95157904D01*
X119234000Y-95176952D01*
X119272095Y-95176952D01*
X119329238Y-95157904D01*
X119348285Y-95138857D01*
X119348285Y-95005523D01*
X119272095Y-95005523D01*
X119519714Y-95176952D02*
X119519714Y-94776952D01*
X119748285Y-95176952D01*
X119748285Y-94776952D01*
X119938761Y-95176952D02*
X119938761Y-94776952D01*
X120034000Y-94776952D01*
X120091142Y-94796000D01*
X120129238Y-94834095D01*
X120148285Y-94872190D01*
X120167333Y-94948380D01*
X120167333Y-95005523D01*
X120148285Y-95081714D01*
X120129238Y-95119809D01*
X120091142Y-95157904D01*
X120034000Y-95176952D01*
X119938761Y-95176952D01*
X117297238Y-94796000D02*
X117259142Y-94776952D01*
X117202000Y-94776952D01*
X117144857Y-94796000D01*
X117106761Y-94834095D01*
X117087714Y-94872190D01*
X117068666Y-94948380D01*
X117068666Y-95005523D01*
X117087714Y-95081714D01*
X117106761Y-95119809D01*
X117144857Y-95157904D01*
X117202000Y-95176952D01*
X117240095Y-95176952D01*
X117297238Y-95157904D01*
X117316285Y-95138857D01*
X117316285Y-95005523D01*
X117240095Y-95005523D01*
X117487714Y-95176952D02*
X117487714Y-94776952D01*
X117716285Y-95176952D01*
X117716285Y-94776952D01*
X117906761Y-95176952D02*
X117906761Y-94776952D01*
X118002000Y-94776952D01*
X118059142Y-94796000D01*
X118097238Y-94834095D01*
X118116285Y-94872190D01*
X118135333Y-94948380D01*
X118135333Y-95005523D01*
X118116285Y-95081714D01*
X118097238Y-95119809D01*
X118059142Y-95157904D01*
X118002000Y-95176952D01*
X117906761Y-95176952D01*
X116244857Y-99532285D02*
X116411523Y-99532285D01*
X116482952Y-99794190D02*
X116244857Y-99794190D01*
X116244857Y-99294190D01*
X116482952Y-99294190D01*
X116697238Y-99460857D02*
X116697238Y-99794190D01*
X116697238Y-99508476D02*
X116721047Y-99484666D01*
X116768666Y-99460857D01*
X116840095Y-99460857D01*
X116887714Y-99484666D01*
X116911523Y-99532285D01*
X116911523Y-99794190D01*
X117363904Y-99794190D02*
X117363904Y-99532285D01*
X117340095Y-99484666D01*
X117292476Y-99460857D01*
X117197238Y-99460857D01*
X117149619Y-99484666D01*
X117363904Y-99770380D02*
X117316285Y-99794190D01*
X117197238Y-99794190D01*
X117149619Y-99770380D01*
X117125809Y-99722761D01*
X117125809Y-99675142D01*
X117149619Y-99627523D01*
X117197238Y-99603714D01*
X117316285Y-99603714D01*
X117363904Y-99579904D01*
X117602000Y-99794190D02*
X117602000Y-99294190D01*
X117602000Y-99484666D02*
X117649619Y-99460857D01*
X117744857Y-99460857D01*
X117792476Y-99484666D01*
X117816285Y-99508476D01*
X117840095Y-99556095D01*
X117840095Y-99698952D01*
X117816285Y-99746571D01*
X117792476Y-99770380D01*
X117744857Y-99794190D01*
X117649619Y-99794190D01*
X117602000Y-99770380D01*
X118125809Y-99794190D02*
X118078190Y-99770380D01*
X118054380Y-99722761D01*
X118054380Y-99294190D01*
X118506761Y-99770380D02*
X118459142Y-99794190D01*
X118363904Y-99794190D01*
X118316285Y-99770380D01*
X118292476Y-99722761D01*
X118292476Y-99532285D01*
X118316285Y-99484666D01*
X118363904Y-99460857D01*
X118459142Y-99460857D01*
X118506761Y-99484666D01*
X118530571Y-99532285D01*
X118530571Y-99579904D01*
X118292476Y-99627523D01*
X118959142Y-99794190D02*
X118959142Y-99294190D01*
X118959142Y-99770380D02*
X118911523Y-99794190D01*
X118816285Y-99794190D01*
X118768666Y-99770380D01*
X118744857Y-99746571D01*
X118721047Y-99698952D01*
X118721047Y-99556095D01*
X118744857Y-99508476D01*
X118768666Y-99484666D01*
X118816285Y-99460857D01*
X118911523Y-99460857D01*
X118959142Y-99484666D01*
X114188952Y-99318000D02*
X114141333Y-99294190D01*
X114069904Y-99294190D01*
X113998476Y-99318000D01*
X113950857Y-99365619D01*
X113927047Y-99413238D01*
X113903238Y-99508476D01*
X113903238Y-99579904D01*
X113927047Y-99675142D01*
X113950857Y-99722761D01*
X113998476Y-99770380D01*
X114069904Y-99794190D01*
X114117523Y-99794190D01*
X114188952Y-99770380D01*
X114212761Y-99746571D01*
X114212761Y-99579904D01*
X114117523Y-99579904D01*
X114427047Y-99794190D02*
X114427047Y-99294190D01*
X114712761Y-99794190D01*
X114712761Y-99294190D01*
X114950857Y-99794190D02*
X114950857Y-99294190D01*
X115069904Y-99294190D01*
X115141333Y-99318000D01*
X115188952Y-99365619D01*
X115212761Y-99413238D01*
X115236571Y-99508476D01*
X115236571Y-99579904D01*
X115212761Y-99675142D01*
X115188952Y-99722761D01*
X115141333Y-99770380D01*
X115069904Y-99794190D01*
X114950857Y-99794190D01*
X115712761Y-99794190D02*
X115427047Y-99794190D01*
X115569904Y-99794190D02*
X115569904Y-99294190D01*
X115522285Y-99365619D01*
X115474666Y-99413238D01*
X115427047Y-99437047D01*
D10*
X118981285Y-104648547D02*
X118981285Y-103998547D01*
X119228904Y-103998547D01*
X119290809Y-104029500D01*
X119321761Y-104060452D01*
X119352714Y-104122357D01*
X119352714Y-104215214D01*
X119321761Y-104277119D01*
X119290809Y-104308071D01*
X119228904Y-104339023D01*
X118981285Y-104339023D01*
X119569380Y-103998547D02*
X119724142Y-104648547D01*
X119847952Y-104184261D01*
X119971761Y-104648547D01*
X120126523Y-103998547D01*
X120374142Y-104648547D02*
X120374142Y-103998547D01*
X120590809Y-104462833D01*
X120807476Y-103998547D01*
X120807476Y-104648547D01*
X118238428Y-105743547D02*
X118238428Y-105093547D01*
X118547952Y-105310214D02*
X118547952Y-105743547D01*
X118547952Y-105372119D02*
X118578904Y-105341166D01*
X118640809Y-105310214D01*
X118733666Y-105310214D01*
X118795571Y-105341166D01*
X118826523Y-105403071D01*
X118826523Y-105743547D01*
X119043190Y-105310214D02*
X119290809Y-105310214D01*
X119136047Y-105093547D02*
X119136047Y-105650690D01*
X119167000Y-105712595D01*
X119228904Y-105743547D01*
X119290809Y-105743547D01*
X119755095Y-105712595D02*
X119693190Y-105743547D01*
X119569380Y-105743547D01*
X119507476Y-105712595D01*
X119476523Y-105650690D01*
X119476523Y-105403071D01*
X119507476Y-105341166D01*
X119569380Y-105310214D01*
X119693190Y-105310214D01*
X119755095Y-105341166D01*
X119786047Y-105403071D01*
X119786047Y-105464976D01*
X119476523Y-105526880D01*
X120064619Y-105310214D02*
X120064619Y-105743547D01*
X120064619Y-105372119D02*
X120095571Y-105341166D01*
X120157476Y-105310214D01*
X120250333Y-105310214D01*
X120312238Y-105341166D01*
X120343190Y-105403071D01*
X120343190Y-105743547D01*
X120621761Y-105712595D02*
X120683666Y-105743547D01*
X120807476Y-105743547D01*
X120869380Y-105712595D01*
X120900333Y-105650690D01*
X120900333Y-105619738D01*
X120869380Y-105557833D01*
X120807476Y-105526880D01*
X120714619Y-105526880D01*
X120652714Y-105495928D01*
X120621761Y-105434023D01*
X120621761Y-105403071D01*
X120652714Y-105341166D01*
X120714619Y-105310214D01*
X120807476Y-105310214D01*
X120869380Y-105341166D01*
X121178904Y-105743547D02*
X121178904Y-105310214D01*
X121178904Y-105093547D02*
X121147952Y-105124500D01*
X121178904Y-105155452D01*
X121209857Y-105124500D01*
X121178904Y-105093547D01*
X121178904Y-105155452D01*
X121395571Y-105310214D02*
X121643190Y-105310214D01*
X121488428Y-105093547D02*
X121488428Y-105650690D01*
X121519380Y-105712595D01*
X121581285Y-105743547D01*
X121643190Y-105743547D01*
X121797952Y-105310214D02*
X121952714Y-105743547D01*
X122107476Y-105310214D02*
X121952714Y-105743547D01*
X121890809Y-105898309D01*
X121859857Y-105929261D01*
X121797952Y-105960214D01*
D11*
X121285047Y-95820285D02*
X121118380Y-95820285D01*
X121118380Y-96082190D02*
X121118380Y-95582190D01*
X121356476Y-95582190D01*
X121761238Y-96082190D02*
X121761238Y-95820285D01*
X121737428Y-95772666D01*
X121689809Y-95748857D01*
X121594571Y-95748857D01*
X121546952Y-95772666D01*
X121761238Y-96058380D02*
X121713619Y-96082190D01*
X121594571Y-96082190D01*
X121546952Y-96058380D01*
X121523142Y-96010761D01*
X121523142Y-95963142D01*
X121546952Y-95915523D01*
X121594571Y-95891714D01*
X121713619Y-95891714D01*
X121761238Y-95867904D01*
X121999333Y-95748857D02*
X121999333Y-96082190D01*
X121999333Y-95796476D02*
X122023142Y-95772666D01*
X122070761Y-95748857D01*
X122142190Y-95748857D01*
X122189809Y-95772666D01*
X122213619Y-95820285D01*
X122213619Y-96082190D01*
X120427904Y-96402190D02*
X120713619Y-96402190D01*
X120570761Y-96902190D02*
X120570761Y-96402190D01*
X120880285Y-96902190D02*
X120880285Y-96568857D01*
X120880285Y-96664095D02*
X120904095Y-96616476D01*
X120927904Y-96592666D01*
X120975523Y-96568857D01*
X121023142Y-96568857D01*
X121189809Y-96902190D02*
X121189809Y-96568857D01*
X121189809Y-96402190D02*
X121166000Y-96426000D01*
X121189809Y-96449809D01*
X121213619Y-96426000D01*
X121189809Y-96402190D01*
X121189809Y-96449809D01*
X121642190Y-96568857D02*
X121642190Y-96973619D01*
X121618380Y-97021238D01*
X121594571Y-97045047D01*
X121546952Y-97068857D01*
X121475523Y-97068857D01*
X121427904Y-97045047D01*
X121642190Y-96878380D02*
X121594571Y-96902190D01*
X121499333Y-96902190D01*
X121451714Y-96878380D01*
X121427904Y-96854571D01*
X121404095Y-96806952D01*
X121404095Y-96664095D01*
X121427904Y-96616476D01*
X121451714Y-96592666D01*
X121499333Y-96568857D01*
X121594571Y-96568857D01*
X121642190Y-96592666D01*
X122094571Y-96568857D02*
X122094571Y-96973619D01*
X122070761Y-97021238D01*
X122046952Y-97045047D01*
X121999333Y-97068857D01*
X121927904Y-97068857D01*
X121880285Y-97045047D01*
X122094571Y-96878380D02*
X122046952Y-96902190D01*
X121951714Y-96902190D01*
X121904095Y-96878380D01*
X121880285Y-96854571D01*
X121856476Y-96806952D01*
X121856476Y-96664095D01*
X121880285Y-96616476D01*
X121904095Y-96592666D01*
X121951714Y-96568857D01*
X122046952Y-96568857D01*
X122094571Y-96592666D01*
X122523142Y-96878380D02*
X122475523Y-96902190D01*
X122380285Y-96902190D01*
X122332666Y-96878380D01*
X122308857Y-96830761D01*
X122308857Y-96640285D01*
X122332666Y-96592666D01*
X122380285Y-96568857D01*
X122475523Y-96568857D01*
X122523142Y-96592666D01*
X122546952Y-96640285D01*
X122546952Y-96687904D01*
X122308857Y-96735523D01*
X122761238Y-96902190D02*
X122761238Y-96568857D01*
X122761238Y-96664095D02*
X122785047Y-96616476D01*
X122808857Y-96592666D01*
X122856476Y-96568857D01*
X122904095Y-96568857D01*
X122507523Y-87602190D02*
X122507523Y-87102190D01*
X122793238Y-87602190D01*
X122793238Y-87102190D01*
X123031333Y-87340285D02*
X123198000Y-87340285D01*
X123269428Y-87602190D02*
X123031333Y-87602190D01*
X123031333Y-87102190D01*
X123269428Y-87102190D01*
X123364666Y-87649809D02*
X123745619Y-87649809D01*
X123959904Y-87102190D02*
X124055142Y-87102190D01*
X124102761Y-87126000D01*
X124150380Y-87173619D01*
X124174190Y-87268857D01*
X124174190Y-87435523D01*
X124150380Y-87530761D01*
X124102761Y-87578380D01*
X124055142Y-87602190D01*
X123959904Y-87602190D01*
X123912285Y-87578380D01*
X123864666Y-87530761D01*
X123840857Y-87435523D01*
X123840857Y-87268857D01*
X123864666Y-87173619D01*
X123912285Y-87126000D01*
X123959904Y-87102190D01*
X124602761Y-87268857D02*
X124602761Y-87602190D01*
X124388476Y-87268857D02*
X124388476Y-87530761D01*
X124412285Y-87578380D01*
X124459904Y-87602190D01*
X124531333Y-87602190D01*
X124578952Y-87578380D01*
X124602761Y-87554571D01*
X124769428Y-87268857D02*
X124959904Y-87268857D01*
X124840857Y-87102190D02*
X124840857Y-87530761D01*
X124864666Y-87578380D01*
X124912285Y-87602190D01*
X124959904Y-87602190D01*
X122244190Y-85427142D02*
X121744190Y-85427142D01*
X121982285Y-85427142D02*
X121982285Y-85141428D01*
X122244190Y-85141428D02*
X121744190Y-85141428D01*
X122244190Y-84831904D02*
X122220380Y-84879523D01*
X122196571Y-84903333D01*
X122148952Y-84927142D01*
X122006095Y-84927142D01*
X121958476Y-84903333D01*
X121934666Y-84879523D01*
X121910857Y-84831904D01*
X121910857Y-84760476D01*
X121934666Y-84712857D01*
X121958476Y-84689047D01*
X122006095Y-84665238D01*
X122148952Y-84665238D01*
X122196571Y-84689047D01*
X122220380Y-84712857D01*
X122244190Y-84760476D01*
X122244190Y-84831904D01*
X121910857Y-84522380D02*
X121910857Y-84331904D01*
X121744190Y-84450952D02*
X122172761Y-84450952D01*
X122220380Y-84427142D01*
X122244190Y-84379523D01*
X122244190Y-84331904D01*
X121720380Y-83808095D02*
X122363238Y-84236666D01*
X122196571Y-83355714D02*
X122220380Y-83379523D01*
X122244190Y-83450952D01*
X122244190Y-83498571D01*
X122220380Y-83570000D01*
X122172761Y-83617619D01*
X122125142Y-83641428D01*
X122029904Y-83665238D01*
X121958476Y-83665238D01*
X121863238Y-83641428D01*
X121815619Y-83617619D01*
X121768000Y-83570000D01*
X121744190Y-83498571D01*
X121744190Y-83450952D01*
X121768000Y-83379523D01*
X121791809Y-83355714D01*
X122244190Y-83070000D02*
X122220380Y-83117619D01*
X122196571Y-83141428D01*
X122148952Y-83165238D01*
X122006095Y-83165238D01*
X121958476Y-83141428D01*
X121934666Y-83117619D01*
X121910857Y-83070000D01*
X121910857Y-82998571D01*
X121934666Y-82950952D01*
X121958476Y-82927142D01*
X122006095Y-82903333D01*
X122148952Y-82903333D01*
X122196571Y-82927142D01*
X122220380Y-82950952D01*
X122244190Y-82998571D01*
X122244190Y-83070000D01*
X122244190Y-82617619D02*
X122220380Y-82665238D01*
X122172761Y-82689047D01*
X121744190Y-82689047D01*
X122244190Y-82212857D02*
X121744190Y-82212857D01*
X122220380Y-82212857D02*
X122244190Y-82260476D01*
X122244190Y-82355714D01*
X122220380Y-82403333D01*
X122196571Y-82427142D01*
X122148952Y-82450952D01*
X122006095Y-82450952D01*
X121958476Y-82427142D01*
X121934666Y-82403333D01*
X121910857Y-82355714D01*
X121910857Y-82260476D01*
X121934666Y-82212857D01*
X123040380Y-84891428D02*
X123064190Y-84843809D01*
X123064190Y-84748571D01*
X123040380Y-84700952D01*
X122992761Y-84677142D01*
X122968952Y-84677142D01*
X122921333Y-84700952D01*
X122897523Y-84748571D01*
X122897523Y-84820000D01*
X122873714Y-84867619D01*
X122826095Y-84891428D01*
X122802285Y-84891428D01*
X122754666Y-84867619D01*
X122730857Y-84820000D01*
X122730857Y-84748571D01*
X122754666Y-84700952D01*
X122730857Y-84510476D02*
X123064190Y-84415238D01*
X122826095Y-84320000D01*
X123064190Y-84224761D01*
X122730857Y-84129523D01*
X123064190Y-83939047D02*
X122730857Y-83939047D01*
X122564190Y-83939047D02*
X122588000Y-83962857D01*
X122611809Y-83939047D01*
X122588000Y-83915238D01*
X122564190Y-83939047D01*
X122611809Y-83939047D01*
X122730857Y-83772380D02*
X122730857Y-83581904D01*
X122564190Y-83700952D02*
X122992761Y-83700952D01*
X123040380Y-83677142D01*
X123064190Y-83629523D01*
X123064190Y-83581904D01*
X123040380Y-83200952D02*
X123064190Y-83248571D01*
X123064190Y-83343809D01*
X123040380Y-83391428D01*
X123016571Y-83415238D01*
X122968952Y-83439047D01*
X122826095Y-83439047D01*
X122778476Y-83415238D01*
X122754666Y-83391428D01*
X122730857Y-83343809D01*
X122730857Y-83248571D01*
X122754666Y-83200952D01*
X123064190Y-82986666D02*
X122564190Y-82986666D01*
X123064190Y-82772380D02*
X122802285Y-82772380D01*
X122754666Y-82796190D01*
X122730857Y-82843809D01*
X122730857Y-82915238D01*
X122754666Y-82962857D01*
X122778476Y-82986666D01*
X118181523Y-75254190D02*
X118181523Y-74754190D01*
X118300571Y-74754190D01*
X118372000Y-74778000D01*
X118419619Y-74825619D01*
X118443428Y-74873238D01*
X118467238Y-74968476D01*
X118467238Y-75039904D01*
X118443428Y-75135142D01*
X118419619Y-75182761D01*
X118372000Y-75230380D01*
X118300571Y-75254190D01*
X118181523Y-75254190D01*
X118895809Y-74920857D02*
X118895809Y-75254190D01*
X118681523Y-74920857D02*
X118681523Y-75182761D01*
X118705333Y-75230380D01*
X118752952Y-75254190D01*
X118824380Y-75254190D01*
X118872000Y-75230380D01*
X118895809Y-75206571D01*
X119062476Y-74920857D02*
X119252952Y-74920857D01*
X119133904Y-74754190D02*
X119133904Y-75182761D01*
X119157714Y-75230380D01*
X119205333Y-75254190D01*
X119252952Y-75254190D01*
X119372000Y-74920857D02*
X119491047Y-75254190D01*
X119610095Y-74920857D02*
X119491047Y-75254190D01*
X119443428Y-75373238D01*
X119419619Y-75397047D01*
X119372000Y-75420857D01*
X118276761Y-76026571D02*
X118252952Y-76050380D01*
X118181523Y-76074190D01*
X118133904Y-76074190D01*
X118062476Y-76050380D01*
X118014857Y-76002761D01*
X117991047Y-75955142D01*
X117967238Y-75859904D01*
X117967238Y-75788476D01*
X117991047Y-75693238D01*
X118014857Y-75645619D01*
X118062476Y-75598000D01*
X118133904Y-75574190D01*
X118181523Y-75574190D01*
X118252952Y-75598000D01*
X118276761Y-75621809D01*
X118443428Y-75740857D02*
X118562476Y-76074190D01*
X118681523Y-75740857D02*
X118562476Y-76074190D01*
X118514857Y-76193238D01*
X118491047Y-76217047D01*
X118443428Y-76240857D01*
X119086285Y-76050380D02*
X119038666Y-76074190D01*
X118943428Y-76074190D01*
X118895809Y-76050380D01*
X118872000Y-76026571D01*
X118848190Y-75978952D01*
X118848190Y-75836095D01*
X118872000Y-75788476D01*
X118895809Y-75764666D01*
X118943428Y-75740857D01*
X119038666Y-75740857D01*
X119086285Y-75764666D01*
X119372000Y-76074190D02*
X119324380Y-76050380D01*
X119300571Y-76002761D01*
X119300571Y-75574190D01*
X119752952Y-76050380D02*
X119705333Y-76074190D01*
X119610095Y-76074190D01*
X119562476Y-76050380D01*
X119538666Y-76002761D01*
X119538666Y-75812285D01*
X119562476Y-75764666D01*
X119610095Y-75740857D01*
X119705333Y-75740857D01*
X119752952Y-75764666D01*
X119776761Y-75812285D01*
X119776761Y-75859904D01*
X119538666Y-75907523D01*
X114685047Y-75206571D02*
X114661238Y-75230380D01*
X114589809Y-75254190D01*
X114542190Y-75254190D01*
X114470761Y-75230380D01*
X114423142Y-75182761D01*
X114399333Y-75135142D01*
X114375523Y-75039904D01*
X114375523Y-74968476D01*
X114399333Y-74873238D01*
X114423142Y-74825619D01*
X114470761Y-74778000D01*
X114542190Y-74754190D01*
X114589809Y-74754190D01*
X114661238Y-74778000D01*
X114685047Y-74801809D01*
X114970761Y-75254190D02*
X114923142Y-75230380D01*
X114899333Y-75206571D01*
X114875523Y-75158952D01*
X114875523Y-75016095D01*
X114899333Y-74968476D01*
X114923142Y-74944666D01*
X114970761Y-74920857D01*
X115042190Y-74920857D01*
X115089809Y-74944666D01*
X115113619Y-74968476D01*
X115137428Y-75016095D01*
X115137428Y-75158952D01*
X115113619Y-75206571D01*
X115089809Y-75230380D01*
X115042190Y-75254190D01*
X114970761Y-75254190D01*
X115351714Y-75254190D02*
X115351714Y-74920857D01*
X115351714Y-74968476D02*
X115375523Y-74944666D01*
X115423142Y-74920857D01*
X115494571Y-74920857D01*
X115542190Y-74944666D01*
X115566000Y-74992285D01*
X115566000Y-75254190D01*
X115566000Y-74992285D02*
X115589809Y-74944666D01*
X115637428Y-74920857D01*
X115708857Y-74920857D01*
X115756476Y-74944666D01*
X115780285Y-74992285D01*
X115780285Y-75254190D01*
X116018380Y-74920857D02*
X116018380Y-75420857D01*
X116018380Y-74944666D02*
X116066000Y-74920857D01*
X116161238Y-74920857D01*
X116208857Y-74944666D01*
X116232666Y-74968476D01*
X116256476Y-75016095D01*
X116256476Y-75158952D01*
X116232666Y-75206571D01*
X116208857Y-75230380D01*
X116161238Y-75254190D01*
X116066000Y-75254190D01*
X116018380Y-75230380D01*
X114589809Y-76074190D02*
X114589809Y-75574190D01*
X114780285Y-75574190D01*
X114827904Y-75598000D01*
X114851714Y-75621809D01*
X114875523Y-75669428D01*
X114875523Y-75740857D01*
X114851714Y-75788476D01*
X114827904Y-75812285D01*
X114780285Y-75836095D01*
X114589809Y-75836095D01*
X115042190Y-75740857D02*
X115137428Y-76074190D01*
X115232666Y-75836095D01*
X115327904Y-76074190D01*
X115423142Y-75740857D01*
X115613619Y-76074190D02*
X115613619Y-75740857D01*
X115613619Y-75788476D02*
X115637428Y-75764666D01*
X115685047Y-75740857D01*
X115756476Y-75740857D01*
X115804095Y-75764666D01*
X115827904Y-75812285D01*
X115827904Y-76074190D01*
X115827904Y-75812285D02*
X115851714Y-75764666D01*
X115899333Y-75740857D01*
X115970761Y-75740857D01*
X116018380Y-75764666D01*
X116042190Y-75812285D01*
X116042190Y-76074190D01*
D10*
X118182904Y-113578047D02*
X118182904Y-112928047D01*
X118430523Y-112928047D01*
X118492428Y-112959000D01*
X118523380Y-112989952D01*
X118554333Y-113051857D01*
X118554333Y-113144714D01*
X118523380Y-113206619D01*
X118492428Y-113237571D01*
X118430523Y-113268523D01*
X118182904Y-113268523D01*
X118925761Y-113578047D02*
X118863857Y-113547095D01*
X118832904Y-113516142D01*
X118801952Y-113454238D01*
X118801952Y-113268523D01*
X118832904Y-113206619D01*
X118863857Y-113175666D01*
X118925761Y-113144714D01*
X119018619Y-113144714D01*
X119080523Y-113175666D01*
X119111476Y-113206619D01*
X119142428Y-113268523D01*
X119142428Y-113454238D01*
X119111476Y-113516142D01*
X119080523Y-113547095D01*
X119018619Y-113578047D01*
X118925761Y-113578047D01*
X119359095Y-113144714D02*
X119482904Y-113578047D01*
X119606714Y-113268523D01*
X119730523Y-113578047D01*
X119854333Y-113144714D01*
X120349571Y-113547095D02*
X120287666Y-113578047D01*
X120163857Y-113578047D01*
X120101952Y-113547095D01*
X120071000Y-113485190D01*
X120071000Y-113237571D01*
X120101952Y-113175666D01*
X120163857Y-113144714D01*
X120287666Y-113144714D01*
X120349571Y-113175666D01*
X120380523Y-113237571D01*
X120380523Y-113299476D01*
X120071000Y-113361380D01*
X120659095Y-113578047D02*
X120659095Y-113144714D01*
X120659095Y-113268523D02*
X120690047Y-113206619D01*
X120721000Y-113175666D01*
X120782904Y-113144714D01*
X120844809Y-113144714D01*
X121680523Y-112928047D02*
X121804333Y-112928047D01*
X121866238Y-112959000D01*
X121928142Y-113020904D01*
X121959095Y-113144714D01*
X121959095Y-113361380D01*
X121928142Y-113485190D01*
X121866238Y-113547095D01*
X121804333Y-113578047D01*
X121680523Y-113578047D01*
X121618619Y-113547095D01*
X121556714Y-113485190D01*
X121525761Y-113361380D01*
X121525761Y-113144714D01*
X121556714Y-113020904D01*
X121618619Y-112959000D01*
X121680523Y-112928047D01*
X122237666Y-113578047D02*
X122237666Y-112928047D01*
X122609095Y-113578047D01*
X122609095Y-112928047D01*
X118346761Y-109260047D02*
X118346761Y-108610047D01*
X118594380Y-108610047D01*
X118656285Y-108641000D01*
X118687238Y-108671952D01*
X118718190Y-108733857D01*
X118718190Y-108826714D01*
X118687238Y-108888619D01*
X118656285Y-108919571D01*
X118594380Y-108950523D01*
X118346761Y-108950523D01*
X118934857Y-108610047D02*
X119089619Y-109260047D01*
X119213428Y-108795761D01*
X119337238Y-109260047D01*
X119492000Y-108610047D01*
X119739619Y-109260047D02*
X119739619Y-108610047D01*
X119956285Y-109074333D01*
X120172952Y-108610047D01*
X120172952Y-109260047D01*
X121101523Y-108610047D02*
X121225333Y-108610047D01*
X121287238Y-108641000D01*
X121349142Y-108702904D01*
X121380095Y-108826714D01*
X121380095Y-109043380D01*
X121349142Y-109167190D01*
X121287238Y-109229095D01*
X121225333Y-109260047D01*
X121101523Y-109260047D01*
X121039619Y-109229095D01*
X120977714Y-109167190D01*
X120946761Y-109043380D01*
X120946761Y-108826714D01*
X120977714Y-108702904D01*
X121039619Y-108641000D01*
X121101523Y-108610047D01*
X121658666Y-108826714D02*
X121658666Y-109260047D01*
X121658666Y-108888619D02*
X121689619Y-108857666D01*
X121751523Y-108826714D01*
X121844380Y-108826714D01*
X121906285Y-108857666D01*
X121937238Y-108919571D01*
X121937238Y-109260047D01*
D12*
X139496666Y-112472000D02*
X139596666Y-112505333D01*
X139630000Y-112538666D01*
X139663333Y-112605333D01*
X139663333Y-112705333D01*
X139630000Y-112772000D01*
X139596666Y-112805333D01*
X139530000Y-112838666D01*
X139263333Y-112838666D01*
X139263333Y-112138666D01*
X139496666Y-112138666D01*
X139563333Y-112172000D01*
X139596666Y-112205333D01*
X139630000Y-112272000D01*
X139630000Y-112338666D01*
X139596666Y-112405333D01*
X139563333Y-112438666D01*
X139496666Y-112472000D01*
X139263333Y-112472000D01*
X139863333Y-112138666D02*
X140263333Y-112138666D01*
X140063333Y-112838666D02*
X140063333Y-112138666D01*
X140463333Y-112805333D02*
X140563333Y-112838666D01*
X140730000Y-112838666D01*
X140796666Y-112805333D01*
X140830000Y-112772000D01*
X140863333Y-112705333D01*
X140863333Y-112638666D01*
X140830000Y-112572000D01*
X140796666Y-112538666D01*
X140730000Y-112505333D01*
X140596666Y-112472000D01*
X140530000Y-112438666D01*
X140496666Y-112405333D01*
X140463333Y-112338666D01*
X140463333Y-112272000D01*
X140496666Y-112205333D01*
X140530000Y-112172000D01*
X140596666Y-112138666D01*
X140763333Y-112138666D01*
X140863333Y-112172000D01*
X141163333Y-112572000D02*
X141696666Y-112572000D01*
X142363333Y-112838666D02*
X142030000Y-112838666D01*
X142030000Y-112138666D01*
X142696666Y-112838666D02*
X142630000Y-112805333D01*
X142596666Y-112772000D01*
X142563333Y-112705333D01*
X142563333Y-112505333D01*
X142596666Y-112438666D01*
X142630000Y-112405333D01*
X142696666Y-112372000D01*
X142796666Y-112372000D01*
X142863333Y-112405333D01*
X142896666Y-112438666D01*
X142930000Y-112505333D01*
X142930000Y-112705333D01*
X142896666Y-112772000D01*
X142863333Y-112805333D01*
X142796666Y-112838666D01*
X142696666Y-112838666D01*
X143530000Y-112372000D02*
X143530000Y-112938666D01*
X143496666Y-113005333D01*
X143463333Y-113038666D01*
X143396666Y-113072000D01*
X143296666Y-113072000D01*
X143230000Y-113038666D01*
X143530000Y-112805333D02*
X143463333Y-112838666D01*
X143330000Y-112838666D01*
X143263333Y-112805333D01*
X143230000Y-112772000D01*
X143196666Y-112705333D01*
X143196666Y-112505333D01*
X143230000Y-112438666D01*
X143263333Y-112405333D01*
X143330000Y-112372000D01*
X143463333Y-112372000D01*
X143530000Y-112405333D01*
X143863333Y-112838666D02*
X143863333Y-112372000D01*
X143863333Y-112138666D02*
X143830000Y-112172000D01*
X143863333Y-112205333D01*
X143896666Y-112172000D01*
X143863333Y-112138666D01*
X143863333Y-112205333D01*
X144496666Y-112805333D02*
X144430000Y-112838666D01*
X144296666Y-112838666D01*
X144230000Y-112805333D01*
X144196666Y-112772000D01*
X144163333Y-112705333D01*
X144163333Y-112505333D01*
X144196666Y-112438666D01*
X144230000Y-112405333D01*
X144296666Y-112372000D01*
X144430000Y-112372000D01*
X144496666Y-112405333D01*
X145030000Y-112472000D02*
X145130000Y-112505333D01*
X145163333Y-112538666D01*
X145196666Y-112605333D01*
X145196666Y-112705333D01*
X145163333Y-112772000D01*
X145130000Y-112805333D01*
X145063333Y-112838666D01*
X144796666Y-112838666D01*
X144796666Y-112138666D01*
X145030000Y-112138666D01*
X145096666Y-112172000D01*
X145130000Y-112205333D01*
X145163333Y-112272000D01*
X145163333Y-112338666D01*
X145130000Y-112405333D01*
X145096666Y-112438666D01*
X145030000Y-112472000D01*
X144796666Y-112472000D01*
X145596666Y-112838666D02*
X145530000Y-112805333D01*
X145496666Y-112772000D01*
X145463333Y-112705333D01*
X145463333Y-112505333D01*
X145496666Y-112438666D01*
X145530000Y-112405333D01*
X145596666Y-112372000D01*
X145696666Y-112372000D01*
X145763333Y-112405333D01*
X145796666Y-112438666D01*
X145830000Y-112505333D01*
X145830000Y-112705333D01*
X145796666Y-112772000D01*
X145763333Y-112805333D01*
X145696666Y-112838666D01*
X145596666Y-112838666D01*
X146430000Y-112838666D02*
X146430000Y-112472000D01*
X146396666Y-112405333D01*
X146330000Y-112372000D01*
X146196666Y-112372000D01*
X146130000Y-112405333D01*
X146430000Y-112805333D02*
X146363333Y-112838666D01*
X146196666Y-112838666D01*
X146130000Y-112805333D01*
X146096666Y-112738666D01*
X146096666Y-112672000D01*
X146130000Y-112605333D01*
X146196666Y-112572000D01*
X146363333Y-112572000D01*
X146430000Y-112538666D01*
X146763333Y-112838666D02*
X146763333Y-112372000D01*
X146763333Y-112505333D02*
X146796666Y-112438666D01*
X146830000Y-112405333D01*
X146896666Y-112372000D01*
X146963333Y-112372000D01*
X147496666Y-112838666D02*
X147496666Y-112138666D01*
X147496666Y-112805333D02*
X147430000Y-112838666D01*
X147296666Y-112838666D01*
X147230000Y-112805333D01*
X147196666Y-112772000D01*
X147163333Y-112705333D01*
X147163333Y-112505333D01*
X147196666Y-112438666D01*
X147230000Y-112405333D01*
X147296666Y-112372000D01*
X147430000Y-112372000D01*
X147496666Y-112405333D01*
X148263333Y-112138666D02*
X148496666Y-112838666D01*
X148730000Y-112138666D01*
X149330000Y-112838666D02*
X148930000Y-112838666D01*
X149130000Y-112838666D02*
X149130000Y-112138666D01*
X149063333Y-112238666D01*
X148996666Y-112305333D01*
X148930000Y-112338666D01*
X149630000Y-112772000D02*
X149663333Y-112805333D01*
X149630000Y-112838666D01*
X149596666Y-112805333D01*
X149630000Y-112772000D01*
X149630000Y-112838666D01*
X150330000Y-112838666D02*
X149930000Y-112838666D01*
X150130000Y-112838666D02*
X150130000Y-112138666D01*
X150063333Y-112238666D01*
X149996666Y-112305333D01*
X149930000Y-112338666D01*
D13*
%TO.C,REF\u002A\u002A*%
G36*
X143453886Y-80689505D02*
G01*
X143528539Y-80726727D01*
X143594431Y-80795261D01*
X143612577Y-80820648D01*
X143632345Y-80853866D01*
X143645172Y-80889945D01*
X143652510Y-80938098D01*
X143655813Y-81007536D01*
X143656538Y-81099206D01*
X143653263Y-81224830D01*
X143641877Y-81319154D01*
X143620041Y-81389523D01*
X143585419Y-81443286D01*
X143535670Y-81487788D01*
X143532014Y-81490423D01*
X143482985Y-81517377D01*
X143423945Y-81530712D01*
X143348859Y-81534000D01*
X143226795Y-81534000D01*
X143226744Y-81652497D01*
X143225608Y-81718492D01*
X143218686Y-81757202D01*
X143200598Y-81780419D01*
X143165962Y-81799933D01*
X143157645Y-81803920D01*
X143118720Y-81822603D01*
X143088583Y-81834403D01*
X143066174Y-81835422D01*
X143050433Y-81821761D01*
X143040302Y-81789522D01*
X143034723Y-81734804D01*
X143032635Y-81653711D01*
X143032981Y-81542344D01*
X143034700Y-81396802D01*
X143035237Y-81353269D01*
X143037172Y-81203205D01*
X143038904Y-81105042D01*
X143226692Y-81105042D01*
X143227748Y-81188364D01*
X143232438Y-81242880D01*
X143243051Y-81278837D01*
X143261872Y-81306482D01*
X143274650Y-81319965D01*
X143326890Y-81359417D01*
X143373142Y-81362628D01*
X143420867Y-81330049D01*
X143422077Y-81328846D01*
X143441494Y-81303668D01*
X143453307Y-81269447D01*
X143459265Y-81216748D01*
X143461120Y-81136131D01*
X143461154Y-81118271D01*
X143456670Y-81007175D01*
X143442074Y-80930161D01*
X143415650Y-80883147D01*
X143375683Y-80862050D01*
X143352584Y-80859923D01*
X143297762Y-80869900D01*
X143260158Y-80902752D01*
X143237523Y-80962857D01*
X143227606Y-81054598D01*
X143226692Y-81105042D01*
X143038904Y-81105042D01*
X143039222Y-81087060D01*
X143041873Y-80999679D01*
X143045606Y-80935905D01*
X143050907Y-80890582D01*
X143058258Y-80858555D01*
X143068143Y-80834668D01*
X143081046Y-80813764D01*
X143086579Y-80805898D01*
X143159969Y-80731595D01*
X143252760Y-80689467D01*
X143360096Y-80677722D01*
X143453886Y-80689505D01*
G37*
X143453886Y-80689505D02*
X143528539Y-80726727D01*
X143594431Y-80795261D01*
X143612577Y-80820648D01*
X143632345Y-80853866D01*
X143645172Y-80889945D01*
X143652510Y-80938098D01*
X143655813Y-81007536D01*
X143656538Y-81099206D01*
X143653263Y-81224830D01*
X143641877Y-81319154D01*
X143620041Y-81389523D01*
X143585419Y-81443286D01*
X143535670Y-81487788D01*
X143532014Y-81490423D01*
X143482985Y-81517377D01*
X143423945Y-81530712D01*
X143348859Y-81534000D01*
X143226795Y-81534000D01*
X143226744Y-81652497D01*
X143225608Y-81718492D01*
X143218686Y-81757202D01*
X143200598Y-81780419D01*
X143165962Y-81799933D01*
X143157645Y-81803920D01*
X143118720Y-81822603D01*
X143088583Y-81834403D01*
X143066174Y-81835422D01*
X143050433Y-81821761D01*
X143040302Y-81789522D01*
X143034723Y-81734804D01*
X143032635Y-81653711D01*
X143032981Y-81542344D01*
X143034700Y-81396802D01*
X143035237Y-81353269D01*
X143037172Y-81203205D01*
X143038904Y-81105042D01*
X143226692Y-81105042D01*
X143227748Y-81188364D01*
X143232438Y-81242880D01*
X143243051Y-81278837D01*
X143261872Y-81306482D01*
X143274650Y-81319965D01*
X143326890Y-81359417D01*
X143373142Y-81362628D01*
X143420867Y-81330049D01*
X143422077Y-81328846D01*
X143441494Y-81303668D01*
X143453307Y-81269447D01*
X143459265Y-81216748D01*
X143461120Y-81136131D01*
X143461154Y-81118271D01*
X143456670Y-81007175D01*
X143442074Y-80930161D01*
X143415650Y-80883147D01*
X143375683Y-80862050D01*
X143352584Y-80859923D01*
X143297762Y-80869900D01*
X143260158Y-80902752D01*
X143237523Y-80962857D01*
X143227606Y-81054598D01*
X143226692Y-81105042D01*
X143038904Y-81105042D01*
X143039222Y-81087060D01*
X143041873Y-80999679D01*
X143045606Y-80935905D01*
X143050907Y-80890582D01*
X143058258Y-80858555D01*
X143068143Y-80834668D01*
X143081046Y-80813764D01*
X143086579Y-80805898D01*
X143159969Y-80731595D01*
X143252760Y-80689467D01*
X143360096Y-80677722D01*
X143453886Y-80689505D01*
G36*
X144956664Y-80700089D02*
G01*
X145019367Y-80736358D01*
X145062961Y-80772358D01*
X145094845Y-80810075D01*
X145116810Y-80856199D01*
X145130649Y-80917421D01*
X145138153Y-81000431D01*
X145141117Y-81111919D01*
X145141461Y-81192062D01*
X145141461Y-81487065D01*
X144975385Y-81561515D01*
X144965615Y-81238402D01*
X144961579Y-81117729D01*
X144957344Y-81030141D01*
X144952097Y-80969650D01*
X144945025Y-80930268D01*
X144935311Y-80906007D01*
X144922144Y-80890880D01*
X144917919Y-80887606D01*
X144853909Y-80862034D01*
X144789208Y-80872153D01*
X144750692Y-80899000D01*
X144735025Y-80918024D01*
X144724180Y-80942988D01*
X144717288Y-80980834D01*
X144713479Y-81038502D01*
X144711883Y-81122935D01*
X144711615Y-81210928D01*
X144711563Y-81321323D01*
X144709672Y-81399463D01*
X144703345Y-81452165D01*
X144689983Y-81486242D01*
X144666985Y-81508511D01*
X144631754Y-81525787D01*
X144584697Y-81543738D01*
X144533303Y-81563278D01*
X144539421Y-81216485D01*
X144541884Y-81091468D01*
X144544767Y-80999082D01*
X144548898Y-80932881D01*
X144555107Y-80886420D01*
X144564226Y-80853256D01*
X144577083Y-80826944D01*
X144592584Y-80803729D01*
X144667371Y-80729569D01*
X144758628Y-80686684D01*
X144857883Y-80676412D01*
X144956664Y-80700089D01*
G37*
X144956664Y-80700089D02*
X145019367Y-80736358D01*
X145062961Y-80772358D01*
X145094845Y-80810075D01*
X145116810Y-80856199D01*
X145130649Y-80917421D01*
X145138153Y-81000431D01*
X145141117Y-81111919D01*
X145141461Y-81192062D01*
X145141461Y-81487065D01*
X144975385Y-81561515D01*
X144965615Y-81238402D01*
X144961579Y-81117729D01*
X144957344Y-81030141D01*
X144952097Y-80969650D01*
X144945025Y-80930268D01*
X144935311Y-80906007D01*
X144922144Y-80890880D01*
X144917919Y-80887606D01*
X144853909Y-80862034D01*
X144789208Y-80872153D01*
X144750692Y-80899000D01*
X144735025Y-80918024D01*
X144724180Y-80942988D01*
X144717288Y-80980834D01*
X144713479Y-81038502D01*
X144711883Y-81122935D01*
X144711615Y-81210928D01*
X144711563Y-81321323D01*
X144709672Y-81399463D01*
X144703345Y-81452165D01*
X144689983Y-81486242D01*
X144666985Y-81508511D01*
X144631754Y-81525787D01*
X144584697Y-81543738D01*
X144533303Y-81563278D01*
X144539421Y-81216485D01*
X144541884Y-81091468D01*
X144544767Y-80999082D01*
X144548898Y-80932881D01*
X144555107Y-80886420D01*
X144564226Y-80853256D01*
X144577083Y-80826944D01*
X144592584Y-80803729D01*
X144667371Y-80729569D01*
X144758628Y-80686684D01*
X144857883Y-80676412D01*
X144956664Y-80700089D01*
G36*
X142701886Y-80692256D02*
G01*
X142793464Y-80740409D01*
X142861049Y-80817905D01*
X142885057Y-80867727D01*
X142903738Y-80942533D01*
X142913301Y-81037052D01*
X142914208Y-81140210D01*
X142906921Y-81240935D01*
X142891903Y-81328153D01*
X142869615Y-81390791D01*
X142862765Y-81401579D01*
X142781632Y-81482105D01*
X142685266Y-81530336D01*
X142580701Y-81544450D01*
X142474968Y-81522629D01*
X142445543Y-81509547D01*
X142388241Y-81469231D01*
X142337950Y-81415775D01*
X142333197Y-81408995D01*
X142313878Y-81376321D01*
X142301108Y-81341394D01*
X142293564Y-81295414D01*
X142289924Y-81229584D01*
X142288865Y-81135105D01*
X142288846Y-81113923D01*
X142288894Y-81107182D01*
X142484231Y-81107182D01*
X142485368Y-81196349D01*
X142489841Y-81255520D01*
X142499246Y-81293741D01*
X142515176Y-81320053D01*
X142523308Y-81328846D01*
X142570058Y-81362261D01*
X142615447Y-81360737D01*
X142661340Y-81331752D01*
X142688712Y-81300809D01*
X142704923Y-81255643D01*
X142714026Y-81184420D01*
X142714651Y-81176114D01*
X142716204Y-81047037D01*
X142699965Y-80951172D01*
X142666152Y-80889107D01*
X142614984Y-80861432D01*
X142596720Y-80859923D01*
X142548760Y-80867513D01*
X142515953Y-80893808D01*
X142495895Y-80944095D01*
X142486178Y-81023664D01*
X142484231Y-81107182D01*
X142288894Y-81107182D01*
X142289574Y-81013249D01*
X142292629Y-80942906D01*
X142299322Y-80894163D01*
X142310960Y-80858288D01*
X142328853Y-80826548D01*
X142332808Y-80820648D01*
X142399267Y-80741104D01*
X142471685Y-80694929D01*
X142559849Y-80676599D01*
X142589787Y-80675703D01*
X142701886Y-80692256D01*
G37*
X142701886Y-80692256D02*
X142793464Y-80740409D01*
X142861049Y-80817905D01*
X142885057Y-80867727D01*
X142903738Y-80942533D01*
X142913301Y-81037052D01*
X142914208Y-81140210D01*
X142906921Y-81240935D01*
X142891903Y-81328153D01*
X142869615Y-81390791D01*
X142862765Y-81401579D01*
X142781632Y-81482105D01*
X142685266Y-81530336D01*
X142580701Y-81544450D01*
X142474968Y-81522629D01*
X142445543Y-81509547D01*
X142388241Y-81469231D01*
X142337950Y-81415775D01*
X142333197Y-81408995D01*
X142313878Y-81376321D01*
X142301108Y-81341394D01*
X142293564Y-81295414D01*
X142289924Y-81229584D01*
X142288865Y-81135105D01*
X142288846Y-81113923D01*
X142288894Y-81107182D01*
X142484231Y-81107182D01*
X142485368Y-81196349D01*
X142489841Y-81255520D01*
X142499246Y-81293741D01*
X142515176Y-81320053D01*
X142523308Y-81328846D01*
X142570058Y-81362261D01*
X142615447Y-81360737D01*
X142661340Y-81331752D01*
X142688712Y-81300809D01*
X142704923Y-81255643D01*
X142714026Y-81184420D01*
X142714651Y-81176114D01*
X142716204Y-81047037D01*
X142699965Y-80951172D01*
X142666152Y-80889107D01*
X142614984Y-80861432D01*
X142596720Y-80859923D01*
X142548760Y-80867513D01*
X142515953Y-80893808D01*
X142495895Y-80944095D01*
X142486178Y-81023664D01*
X142484231Y-81107182D01*
X142288894Y-81107182D01*
X142289574Y-81013249D01*
X142292629Y-80942906D01*
X142299322Y-80894163D01*
X142310960Y-80858288D01*
X142328853Y-80826548D01*
X142332808Y-80820648D01*
X142399267Y-80741104D01*
X142471685Y-80694929D01*
X142559849Y-80676599D01*
X142589787Y-80675703D01*
X142701886Y-80692256D01*
G36*
X144219254Y-80704745D02*
G01*
X144296286Y-80756567D01*
X144355816Y-80831412D01*
X144391378Y-80926654D01*
X144398571Y-80996756D01*
X144397754Y-81026009D01*
X144390914Y-81048407D01*
X144372112Y-81068474D01*
X144335408Y-81090733D01*
X144274862Y-81119709D01*
X144184534Y-81159927D01*
X144184077Y-81160129D01*
X144100933Y-81198210D01*
X144032753Y-81232025D01*
X143986505Y-81257933D01*
X143969158Y-81272295D01*
X143969154Y-81272411D01*
X143984443Y-81303685D01*
X144020196Y-81338157D01*
X144061242Y-81362990D01*
X144082037Y-81367923D01*
X144138770Y-81350862D01*
X144187627Y-81308133D01*
X144211465Y-81261155D01*
X144234397Y-81226522D01*
X144279318Y-81187081D01*
X144332123Y-81153009D01*
X144378710Y-81134480D01*
X144388452Y-81133462D01*
X144399418Y-81150215D01*
X144400079Y-81193039D01*
X144392020Y-81250781D01*
X144376827Y-81312289D01*
X144356086Y-81366409D01*
X144355038Y-81368510D01*
X144292621Y-81455660D01*
X144211726Y-81514939D01*
X144119856Y-81544034D01*
X144024513Y-81540634D01*
X143933198Y-81502428D01*
X143929138Y-81499741D01*
X143857306Y-81434642D01*
X143810073Y-81349705D01*
X143783934Y-81238021D01*
X143780426Y-81206643D01*
X143774213Y-81058536D01*
X143781661Y-80989468D01*
X143969154Y-80989468D01*
X143971590Y-81032552D01*
X143984914Y-81045126D01*
X144018132Y-81035719D01*
X144070494Y-81013483D01*
X144129024Y-80985610D01*
X144130479Y-80984872D01*
X144180089Y-80958777D01*
X144200000Y-80941363D01*
X144195090Y-80923107D01*
X144174416Y-80899120D01*
X144121819Y-80864406D01*
X144065177Y-80861856D01*
X144014369Y-80887119D01*
X143979276Y-80935847D01*
X143969154Y-80989468D01*
X143781661Y-80989468D01*
X143786992Y-80940036D01*
X143819778Y-80846055D01*
X143865421Y-80780215D01*
X143947802Y-80713681D01*
X144038546Y-80680676D01*
X144131185Y-80678573D01*
X144219254Y-80704745D01*
G37*
X144219254Y-80704745D02*
X144296286Y-80756567D01*
X144355816Y-80831412D01*
X144391378Y-80926654D01*
X144398571Y-80996756D01*
X144397754Y-81026009D01*
X144390914Y-81048407D01*
X144372112Y-81068474D01*
X144335408Y-81090733D01*
X144274862Y-81119709D01*
X144184534Y-81159927D01*
X144184077Y-81160129D01*
X144100933Y-81198210D01*
X144032753Y-81232025D01*
X143986505Y-81257933D01*
X143969158Y-81272295D01*
X143969154Y-81272411D01*
X143984443Y-81303685D01*
X144020196Y-81338157D01*
X144061242Y-81362990D01*
X144082037Y-81367923D01*
X144138770Y-81350862D01*
X144187627Y-81308133D01*
X144211465Y-81261155D01*
X144234397Y-81226522D01*
X144279318Y-81187081D01*
X144332123Y-81153009D01*
X144378710Y-81134480D01*
X144388452Y-81133462D01*
X144399418Y-81150215D01*
X144400079Y-81193039D01*
X144392020Y-81250781D01*
X144376827Y-81312289D01*
X144356086Y-81366409D01*
X144355038Y-81368510D01*
X144292621Y-81455660D01*
X144211726Y-81514939D01*
X144119856Y-81544034D01*
X144024513Y-81540634D01*
X143933198Y-81502428D01*
X143929138Y-81499741D01*
X143857306Y-81434642D01*
X143810073Y-81349705D01*
X143783934Y-81238021D01*
X143780426Y-81206643D01*
X143774213Y-81058536D01*
X143781661Y-80989468D01*
X143969154Y-80989468D01*
X143971590Y-81032552D01*
X143984914Y-81045126D01*
X144018132Y-81035719D01*
X144070494Y-81013483D01*
X144129024Y-80985610D01*
X144130479Y-80984872D01*
X144180089Y-80958777D01*
X144200000Y-80941363D01*
X144195090Y-80923107D01*
X144174416Y-80899120D01*
X144121819Y-80864406D01*
X144065177Y-80861856D01*
X144014369Y-80887119D01*
X143979276Y-80935847D01*
X143969154Y-80989468D01*
X143781661Y-80989468D01*
X143786992Y-80940036D01*
X143819778Y-80846055D01*
X143865421Y-80780215D01*
X143947802Y-80713681D01*
X144038546Y-80680676D01*
X144131185Y-80678573D01*
X144219254Y-80704745D01*
G36*
X145844846Y-80597120D02*
G01*
X145850572Y-80676980D01*
X145857149Y-80724039D01*
X145866262Y-80744566D01*
X145879598Y-80744829D01*
X145883923Y-80742378D01*
X145941444Y-80724636D01*
X146016268Y-80725672D01*
X146092339Y-80743910D01*
X146139918Y-80767505D01*
X146188702Y-80805198D01*
X146224364Y-80847855D01*
X146248845Y-80902057D01*
X146264087Y-80974384D01*
X146272030Y-81071419D01*
X146274616Y-81199742D01*
X146274662Y-81224358D01*
X146274692Y-81500870D01*
X146213161Y-81522320D01*
X146169459Y-81536912D01*
X146145482Y-81543706D01*
X146144777Y-81543769D01*
X146142415Y-81525345D01*
X146140406Y-81474526D01*
X146138901Y-81397993D01*
X146138053Y-81302430D01*
X146137923Y-81244329D01*
X146137651Y-81129771D01*
X146136252Y-81047667D01*
X146132849Y-80991393D01*
X146126567Y-80954326D01*
X146116529Y-80929844D01*
X146101861Y-80911325D01*
X146092702Y-80902406D01*
X146029789Y-80866466D01*
X145961136Y-80863775D01*
X145898848Y-80894170D01*
X145887329Y-80905144D01*
X145870433Y-80925779D01*
X145858714Y-80950256D01*
X145851233Y-80985647D01*
X145847054Y-81039026D01*
X145845237Y-81117466D01*
X145844846Y-81225617D01*
X145844846Y-81500870D01*
X145783315Y-81522320D01*
X145739613Y-81536912D01*
X145715636Y-81543706D01*
X145714930Y-81543769D01*
X145713126Y-81525069D01*
X145711500Y-81472322D01*
X145710117Y-81390557D01*
X145709042Y-81284805D01*
X145708340Y-81160094D01*
X145708077Y-81021455D01*
X145708077Y-80486806D01*
X145835077Y-80433236D01*
X145844846Y-80597120D01*
G37*
X145844846Y-80597120D02*
X145850572Y-80676980D01*
X145857149Y-80724039D01*
X145866262Y-80744566D01*
X145879598Y-80744829D01*
X145883923Y-80742378D01*
X145941444Y-80724636D01*
X146016268Y-80725672D01*
X146092339Y-80743910D01*
X146139918Y-80767505D01*
X146188702Y-80805198D01*
X146224364Y-80847855D01*
X146248845Y-80902057D01*
X146264087Y-80974384D01*
X146272030Y-81071419D01*
X146274616Y-81199742D01*
X146274662Y-81224358D01*
X146274692Y-81500870D01*
X146213161Y-81522320D01*
X146169459Y-81536912D01*
X146145482Y-81543706D01*
X146144777Y-81543769D01*
X146142415Y-81525345D01*
X146140406Y-81474526D01*
X146138901Y-81397993D01*
X146138053Y-81302430D01*
X146137923Y-81244329D01*
X146137651Y-81129771D01*
X146136252Y-81047667D01*
X146132849Y-80991393D01*
X146126567Y-80954326D01*
X146116529Y-80929844D01*
X146101861Y-80911325D01*
X146092702Y-80902406D01*
X146029789Y-80866466D01*
X145961136Y-80863775D01*
X145898848Y-80894170D01*
X145887329Y-80905144D01*
X145870433Y-80925779D01*
X145858714Y-80950256D01*
X145851233Y-80985647D01*
X145847054Y-81039026D01*
X145845237Y-81117466D01*
X145844846Y-81225617D01*
X145844846Y-81500870D01*
X145783315Y-81522320D01*
X145739613Y-81536912D01*
X145715636Y-81543706D01*
X145714930Y-81543769D01*
X145713126Y-81525069D01*
X145711500Y-81472322D01*
X145710117Y-81390557D01*
X145709042Y-81284805D01*
X145708340Y-81160094D01*
X145708077Y-81021455D01*
X145708077Y-80486806D01*
X145835077Y-80433236D01*
X145844846Y-80597120D01*
G36*
X146738501Y-80731303D02*
G01*
X146815060Y-80759733D01*
X146815936Y-80760279D01*
X146863285Y-80795127D01*
X146898241Y-80835852D01*
X146922825Y-80888925D01*
X146939062Y-80960814D01*
X146948975Y-81057992D01*
X146954586Y-81186928D01*
X146955077Y-81205298D01*
X146962141Y-81482287D01*
X146902695Y-81513028D01*
X146859681Y-81533802D01*
X146833710Y-81543646D01*
X146832509Y-81543769D01*
X146828014Y-81525606D01*
X146824444Y-81476612D01*
X146822248Y-81405031D01*
X146821769Y-81347068D01*
X146821758Y-81253170D01*
X146817466Y-81194203D01*
X146802503Y-81166079D01*
X146770482Y-81164706D01*
X146715014Y-81185998D01*
X146631269Y-81225136D01*
X146569689Y-81257643D01*
X146538017Y-81285845D01*
X146528706Y-81316582D01*
X146528692Y-81318104D01*
X146544057Y-81371054D01*
X146589547Y-81399660D01*
X146659166Y-81403803D01*
X146709313Y-81403084D01*
X146735754Y-81417527D01*
X146752243Y-81452218D01*
X146761733Y-81496416D01*
X146748057Y-81521493D01*
X146742907Y-81525082D01*
X146694425Y-81539496D01*
X146626531Y-81541537D01*
X146556612Y-81531983D01*
X146507068Y-81514522D01*
X146438570Y-81456364D01*
X146399634Y-81375408D01*
X146391923Y-81312160D01*
X146397807Y-81255111D01*
X146419101Y-81208542D01*
X146461265Y-81167181D01*
X146529759Y-81125755D01*
X146630044Y-81078993D01*
X146636154Y-81076350D01*
X146726490Y-81034617D01*
X146782235Y-81000391D01*
X146806129Y-80969635D01*
X146800913Y-80938311D01*
X146769328Y-80902383D01*
X146759883Y-80894116D01*
X146696617Y-80862058D01*
X146631064Y-80863407D01*
X146573972Y-80894838D01*
X146536093Y-80953024D01*
X146532574Y-80964446D01*
X146498300Y-81019837D01*
X146454809Y-81046518D01*
X146391923Y-81072960D01*
X146391923Y-81004548D01*
X146411052Y-80905110D01*
X146467831Y-80813902D01*
X146497378Y-80783389D01*
X146564542Y-80744228D01*
X146649956Y-80726500D01*
X146738501Y-80731303D01*
G37*
X146738501Y-80731303D02*
X146815060Y-80759733D01*
X146815936Y-80760279D01*
X146863285Y-80795127D01*
X146898241Y-80835852D01*
X146922825Y-80888925D01*
X146939062Y-80960814D01*
X146948975Y-81057992D01*
X146954586Y-81186928D01*
X146955077Y-81205298D01*
X146962141Y-81482287D01*
X146902695Y-81513028D01*
X146859681Y-81533802D01*
X146833710Y-81543646D01*
X146832509Y-81543769D01*
X146828014Y-81525606D01*
X146824444Y-81476612D01*
X146822248Y-81405031D01*
X146821769Y-81347068D01*
X146821758Y-81253170D01*
X146817466Y-81194203D01*
X146802503Y-81166079D01*
X146770482Y-81164706D01*
X146715014Y-81185998D01*
X146631269Y-81225136D01*
X146569689Y-81257643D01*
X146538017Y-81285845D01*
X146528706Y-81316582D01*
X146528692Y-81318104D01*
X146544057Y-81371054D01*
X146589547Y-81399660D01*
X146659166Y-81403803D01*
X146709313Y-81403084D01*
X146735754Y-81417527D01*
X146752243Y-81452218D01*
X146761733Y-81496416D01*
X146748057Y-81521493D01*
X146742907Y-81525082D01*
X146694425Y-81539496D01*
X146626531Y-81541537D01*
X146556612Y-81531983D01*
X146507068Y-81514522D01*
X146438570Y-81456364D01*
X146399634Y-81375408D01*
X146391923Y-81312160D01*
X146397807Y-81255111D01*
X146419101Y-81208542D01*
X146461265Y-81167181D01*
X146529759Y-81125755D01*
X146630044Y-81078993D01*
X146636154Y-81076350D01*
X146726490Y-81034617D01*
X146782235Y-81000391D01*
X146806129Y-80969635D01*
X146800913Y-80938311D01*
X146769328Y-80902383D01*
X146759883Y-80894116D01*
X146696617Y-80862058D01*
X146631064Y-80863407D01*
X146573972Y-80894838D01*
X146536093Y-80953024D01*
X146532574Y-80964446D01*
X146498300Y-81019837D01*
X146454809Y-81046518D01*
X146391923Y-81072960D01*
X146391923Y-81004548D01*
X146411052Y-80905110D01*
X146467831Y-80813902D01*
X146497378Y-80783389D01*
X146564542Y-80744228D01*
X146649956Y-80726500D01*
X146738501Y-80731303D01*
G36*
X147398362Y-80729670D02*
G01*
X147487117Y-80762421D01*
X147559022Y-80820350D01*
X147587144Y-80861128D01*
X147617802Y-80935954D01*
X147617165Y-80990058D01*
X147584987Y-81026446D01*
X147573081Y-81032633D01*
X147521675Y-81051925D01*
X147495422Y-81046982D01*
X147486530Y-81014587D01*
X147486077Y-80996692D01*
X147469797Y-80930859D01*
X147427365Y-80884807D01*
X147368388Y-80862564D01*
X147302475Y-80868161D01*
X147248895Y-80897229D01*
X147230798Y-80913810D01*
X147217971Y-80933925D01*
X147209306Y-80964332D01*
X147203696Y-81011788D01*
X147200035Y-81083050D01*
X147197215Y-81184875D01*
X147196484Y-81217115D01*
X147193820Y-81327410D01*
X147190792Y-81405036D01*
X147186250Y-81456396D01*
X147179046Y-81487890D01*
X147168033Y-81505920D01*
X147152060Y-81516888D01*
X147141834Y-81521733D01*
X147098406Y-81538301D01*
X147072842Y-81543769D01*
X147064395Y-81525507D01*
X147059239Y-81470296D01*
X147057346Y-81377499D01*
X147058689Y-81246478D01*
X147059107Y-81226269D01*
X147062058Y-81106733D01*
X147065548Y-81019449D01*
X147070514Y-80957591D01*
X147077893Y-80914336D01*
X147088624Y-80882860D01*
X147103645Y-80856339D01*
X147111502Y-80844975D01*
X147156553Y-80794692D01*
X147206940Y-80755581D01*
X147213108Y-80752167D01*
X147303458Y-80725212D01*
X147398362Y-80729670D01*
G37*
X147398362Y-80729670D02*
X147487117Y-80762421D01*
X147559022Y-80820350D01*
X147587144Y-80861128D01*
X147617802Y-80935954D01*
X147617165Y-80990058D01*
X147584987Y-81026446D01*
X147573081Y-81032633D01*
X147521675Y-81051925D01*
X147495422Y-81046982D01*
X147486530Y-81014587D01*
X147486077Y-80996692D01*
X147469797Y-80930859D01*
X147427365Y-80884807D01*
X147368388Y-80862564D01*
X147302475Y-80868161D01*
X147248895Y-80897229D01*
X147230798Y-80913810D01*
X147217971Y-80933925D01*
X147209306Y-80964332D01*
X147203696Y-81011788D01*
X147200035Y-81083050D01*
X147197215Y-81184875D01*
X147196484Y-81217115D01*
X147193820Y-81327410D01*
X147190792Y-81405036D01*
X147186250Y-81456396D01*
X147179046Y-81487890D01*
X147168033Y-81505920D01*
X147152060Y-81516888D01*
X147141834Y-81521733D01*
X147098406Y-81538301D01*
X147072842Y-81543769D01*
X147064395Y-81525507D01*
X147059239Y-81470296D01*
X147057346Y-81377499D01*
X147058689Y-81246478D01*
X147059107Y-81226269D01*
X147062058Y-81106733D01*
X147065548Y-81019449D01*
X147070514Y-80957591D01*
X147077893Y-80914336D01*
X147088624Y-80882860D01*
X147103645Y-80856339D01*
X147111502Y-80844975D01*
X147156553Y-80794692D01*
X147206940Y-80755581D01*
X147213108Y-80752167D01*
X147303458Y-80725212D01*
X147398362Y-80729670D01*
G36*
X148287081Y-80885289D02*
G01*
X148286833Y-81031320D01*
X148285872Y-81143655D01*
X148283794Y-81227678D01*
X148280193Y-81288769D01*
X148274665Y-81332309D01*
X148266804Y-81363679D01*
X148256207Y-81388262D01*
X148248182Y-81402294D01*
X148181728Y-81478388D01*
X148097470Y-81526084D01*
X148004249Y-81543199D01*
X147910900Y-81527546D01*
X147855312Y-81499418D01*
X147796957Y-81450760D01*
X147757186Y-81391333D01*
X147733190Y-81313507D01*
X147722161Y-81209652D01*
X147720599Y-81133462D01*
X147720809Y-81127986D01*
X147857308Y-81127986D01*
X147858141Y-81215355D01*
X147861961Y-81273192D01*
X147870746Y-81311029D01*
X147886474Y-81338398D01*
X147905266Y-81359042D01*
X147968375Y-81398890D01*
X148036137Y-81402295D01*
X148100179Y-81369025D01*
X148105164Y-81364517D01*
X148126439Y-81341067D01*
X148139779Y-81313166D01*
X148147001Y-81271641D01*
X148149923Y-81207316D01*
X148150385Y-81136200D01*
X148149383Y-81046858D01*
X148145238Y-80987258D01*
X148136236Y-80948089D01*
X148120667Y-80920040D01*
X148107902Y-80905144D01*
X148048600Y-80867575D01*
X147980301Y-80863057D01*
X147915110Y-80891753D01*
X147902528Y-80902406D01*
X147881111Y-80926063D01*
X147867744Y-80954251D01*
X147860566Y-80996245D01*
X147857719Y-81061319D01*
X147857308Y-81127986D01*
X147720809Y-81127986D01*
X147725322Y-81010765D01*
X147741362Y-80918577D01*
X147771528Y-80849269D01*
X147818629Y-80795211D01*
X147855312Y-80767505D01*
X147921990Y-80737572D01*
X147999272Y-80723678D01*
X148071110Y-80727397D01*
X148111308Y-80742400D01*
X148127082Y-80746670D01*
X148137550Y-80730750D01*
X148144856Y-80688089D01*
X148150385Y-80623106D01*
X148156437Y-80550732D01*
X148164844Y-80507187D01*
X148180141Y-80482287D01*
X148206864Y-80465845D01*
X148223654Y-80458564D01*
X148287154Y-80431963D01*
X148287081Y-80885289D01*
G37*
X148287081Y-80885289D02*
X148286833Y-81031320D01*
X148285872Y-81143655D01*
X148283794Y-81227678D01*
X148280193Y-81288769D01*
X148274665Y-81332309D01*
X148266804Y-81363679D01*
X148256207Y-81388262D01*
X148248182Y-81402294D01*
X148181728Y-81478388D01*
X148097470Y-81526084D01*
X148004249Y-81543199D01*
X147910900Y-81527546D01*
X147855312Y-81499418D01*
X147796957Y-81450760D01*
X147757186Y-81391333D01*
X147733190Y-81313507D01*
X147722161Y-81209652D01*
X147720599Y-81133462D01*
X147720809Y-81127986D01*
X147857308Y-81127986D01*
X147858141Y-81215355D01*
X147861961Y-81273192D01*
X147870746Y-81311029D01*
X147886474Y-81338398D01*
X147905266Y-81359042D01*
X147968375Y-81398890D01*
X148036137Y-81402295D01*
X148100179Y-81369025D01*
X148105164Y-81364517D01*
X148126439Y-81341067D01*
X148139779Y-81313166D01*
X148147001Y-81271641D01*
X148149923Y-81207316D01*
X148150385Y-81136200D01*
X148149383Y-81046858D01*
X148145238Y-80987258D01*
X148136236Y-80948089D01*
X148120667Y-80920040D01*
X148107902Y-80905144D01*
X148048600Y-80867575D01*
X147980301Y-80863057D01*
X147915110Y-80891753D01*
X147902528Y-80902406D01*
X147881111Y-80926063D01*
X147867744Y-80954251D01*
X147860566Y-80996245D01*
X147857719Y-81061319D01*
X147857308Y-81127986D01*
X147720809Y-81127986D01*
X147725322Y-81010765D01*
X147741362Y-80918577D01*
X147771528Y-80849269D01*
X147818629Y-80795211D01*
X147855312Y-80767505D01*
X147921990Y-80737572D01*
X147999272Y-80723678D01*
X148071110Y-80727397D01*
X148111308Y-80742400D01*
X148127082Y-80746670D01*
X148137550Y-80730750D01*
X148144856Y-80688089D01*
X148150385Y-80623106D01*
X148156437Y-80550732D01*
X148164844Y-80507187D01*
X148180141Y-80482287D01*
X148206864Y-80465845D01*
X148223654Y-80458564D01*
X148287154Y-80431963D01*
X148287081Y-80885289D01*
G36*
X149080929Y-80741662D02*
G01*
X149083911Y-80793068D01*
X149086247Y-80871192D01*
X149087749Y-80969857D01*
X149088231Y-81073343D01*
X149088231Y-81423533D01*
X149026401Y-81485363D01*
X148983793Y-81523462D01*
X148946390Y-81538895D01*
X148895270Y-81537918D01*
X148874978Y-81535433D01*
X148811554Y-81528200D01*
X148759095Y-81524055D01*
X148746308Y-81523672D01*
X148703199Y-81526176D01*
X148641544Y-81532462D01*
X148617638Y-81535433D01*
X148558922Y-81540028D01*
X148519464Y-81530046D01*
X148480338Y-81499228D01*
X148466215Y-81485363D01*
X148404385Y-81423533D01*
X148404385Y-80768503D01*
X148454150Y-80745829D01*
X148497002Y-80729034D01*
X148522073Y-80723154D01*
X148528501Y-80741736D01*
X148534509Y-80793655D01*
X148539697Y-80873172D01*
X148543664Y-80974546D01*
X148545577Y-81060192D01*
X148550923Y-81397231D01*
X148597560Y-81403825D01*
X148639976Y-81399214D01*
X148660760Y-81384287D01*
X148666570Y-81356377D01*
X148671530Y-81296925D01*
X148675246Y-81213466D01*
X148677324Y-81113532D01*
X148677624Y-81062104D01*
X148677923Y-80766054D01*
X148739454Y-80744604D01*
X148783004Y-80730020D01*
X148806694Y-80723219D01*
X148807377Y-80723154D01*
X148809754Y-80741642D01*
X148812366Y-80792906D01*
X148814995Y-80870649D01*
X148817421Y-80968574D01*
X148819115Y-81060192D01*
X148824461Y-81397231D01*
X148941692Y-81397231D01*
X148947072Y-81089746D01*
X148952451Y-80782261D01*
X149009601Y-80752707D01*
X149051797Y-80732413D01*
X149076770Y-80723204D01*
X149077491Y-80723154D01*
X149080929Y-80741662D01*
G37*
X149080929Y-80741662D02*
X149083911Y-80793068D01*
X149086247Y-80871192D01*
X149087749Y-80969857D01*
X149088231Y-81073343D01*
X149088231Y-81423533D01*
X149026401Y-81485363D01*
X148983793Y-81523462D01*
X148946390Y-81538895D01*
X148895270Y-81537918D01*
X148874978Y-81535433D01*
X148811554Y-81528200D01*
X148759095Y-81524055D01*
X148746308Y-81523672D01*
X148703199Y-81526176D01*
X148641544Y-81532462D01*
X148617638Y-81535433D01*
X148558922Y-81540028D01*
X148519464Y-81530046D01*
X148480338Y-81499228D01*
X148466215Y-81485363D01*
X148404385Y-81423533D01*
X148404385Y-80768503D01*
X148454150Y-80745829D01*
X148497002Y-80729034D01*
X148522073Y-80723154D01*
X148528501Y-80741736D01*
X148534509Y-80793655D01*
X148539697Y-80873172D01*
X148543664Y-80974546D01*
X148545577Y-81060192D01*
X148550923Y-81397231D01*
X148597560Y-81403825D01*
X148639976Y-81399214D01*
X148660760Y-81384287D01*
X148666570Y-81356377D01*
X148671530Y-81296925D01*
X148675246Y-81213466D01*
X148677324Y-81113532D01*
X148677624Y-81062104D01*
X148677923Y-80766054D01*
X148739454Y-80744604D01*
X148783004Y-80730020D01*
X148806694Y-80723219D01*
X148807377Y-80723154D01*
X148809754Y-80741642D01*
X148812366Y-80792906D01*
X148814995Y-80870649D01*
X148817421Y-80968574D01*
X148819115Y-81060192D01*
X148824461Y-81397231D01*
X148941692Y-81397231D01*
X148947072Y-81089746D01*
X148952451Y-80782261D01*
X149009601Y-80752707D01*
X149051797Y-80732413D01*
X149076770Y-80723204D01*
X149077491Y-80723154D01*
X149080929Y-80741662D01*
G36*
X149572333Y-80738528D02*
G01*
X149628590Y-80764117D01*
X149672747Y-80795124D01*
X149705101Y-80829795D01*
X149727438Y-80874520D01*
X149741546Y-80935692D01*
X149749211Y-81019701D01*
X149752220Y-81132940D01*
X149752538Y-81207509D01*
X149752538Y-81498420D01*
X149702773Y-81521095D01*
X149663576Y-81537667D01*
X149644157Y-81543769D01*
X149640442Y-81525610D01*
X149637495Y-81476648D01*
X149635691Y-81405153D01*
X149635308Y-81348385D01*
X149633661Y-81266371D01*
X149629222Y-81201309D01*
X149622740Y-81161467D01*
X149617590Y-81153000D01*
X149582977Y-81161646D01*
X149528640Y-81183823D01*
X149465722Y-81213886D01*
X149405368Y-81246192D01*
X149358721Y-81275098D01*
X149336926Y-81294961D01*
X149336839Y-81295175D01*
X149338714Y-81331935D01*
X149355525Y-81367026D01*
X149385039Y-81395528D01*
X149428116Y-81405061D01*
X149464932Y-81403950D01*
X149517074Y-81403133D01*
X149544444Y-81415349D01*
X149560882Y-81447624D01*
X149562955Y-81453710D01*
X149570081Y-81499739D01*
X149551024Y-81527687D01*
X149501353Y-81541007D01*
X149447697Y-81543470D01*
X149351142Y-81525210D01*
X149301159Y-81499131D01*
X149239429Y-81437868D01*
X149206690Y-81362670D01*
X149203753Y-81283211D01*
X149231424Y-81209167D01*
X149273047Y-81162769D01*
X149314604Y-81136793D01*
X149379922Y-81103907D01*
X149456038Y-81070557D01*
X149468726Y-81065461D01*
X149552333Y-81028565D01*
X149600530Y-80996046D01*
X149616030Y-80963718D01*
X149601550Y-80927394D01*
X149576692Y-80899000D01*
X149517939Y-80864039D01*
X149453293Y-80861417D01*
X149394008Y-80888358D01*
X149351339Y-80942088D01*
X149345739Y-80955950D01*
X149313133Y-81006936D01*
X149265530Y-81044787D01*
X149205461Y-81075850D01*
X149205461Y-80987768D01*
X149208997Y-80933951D01*
X149224156Y-80891534D01*
X149257768Y-80846279D01*
X149290035Y-80811420D01*
X149340209Y-80762062D01*
X149379193Y-80735547D01*
X149421064Y-80724911D01*
X149468460Y-80723154D01*
X149572333Y-80738528D01*
G37*
X149572333Y-80738528D02*
X149628590Y-80764117D01*
X149672747Y-80795124D01*
X149705101Y-80829795D01*
X149727438Y-80874520D01*
X149741546Y-80935692D01*
X149749211Y-81019701D01*
X149752220Y-81132940D01*
X149752538Y-81207509D01*
X149752538Y-81498420D01*
X149702773Y-81521095D01*
X149663576Y-81537667D01*
X149644157Y-81543769D01*
X149640442Y-81525610D01*
X149637495Y-81476648D01*
X149635691Y-81405153D01*
X149635308Y-81348385D01*
X149633661Y-81266371D01*
X149629222Y-81201309D01*
X149622740Y-81161467D01*
X149617590Y-81153000D01*
X149582977Y-81161646D01*
X149528640Y-81183823D01*
X149465722Y-81213886D01*
X149405368Y-81246192D01*
X149358721Y-81275098D01*
X149336926Y-81294961D01*
X149336839Y-81295175D01*
X149338714Y-81331935D01*
X149355525Y-81367026D01*
X149385039Y-81395528D01*
X149428116Y-81405061D01*
X149464932Y-81403950D01*
X149517074Y-81403133D01*
X149544444Y-81415349D01*
X149560882Y-81447624D01*
X149562955Y-81453710D01*
X149570081Y-81499739D01*
X149551024Y-81527687D01*
X149501353Y-81541007D01*
X149447697Y-81543470D01*
X149351142Y-81525210D01*
X149301159Y-81499131D01*
X149239429Y-81437868D01*
X149206690Y-81362670D01*
X149203753Y-81283211D01*
X149231424Y-81209167D01*
X149273047Y-81162769D01*
X149314604Y-81136793D01*
X149379922Y-81103907D01*
X149456038Y-81070557D01*
X149468726Y-81065461D01*
X149552333Y-81028565D01*
X149600530Y-80996046D01*
X149616030Y-80963718D01*
X149601550Y-80927394D01*
X149576692Y-80899000D01*
X149517939Y-80864039D01*
X149453293Y-80861417D01*
X149394008Y-80888358D01*
X149351339Y-80942088D01*
X149345739Y-80955950D01*
X149313133Y-81006936D01*
X149265530Y-81044787D01*
X149205461Y-81075850D01*
X149205461Y-80987768D01*
X149208997Y-80933951D01*
X149224156Y-80891534D01*
X149257768Y-80846279D01*
X149290035Y-80811420D01*
X149340209Y-80762062D01*
X149379193Y-80735547D01*
X149421064Y-80724911D01*
X149468460Y-80723154D01*
X149572333Y-80738528D01*
G36*
X150255807Y-80741782D02*
G01*
X150279161Y-80751988D01*
X150334902Y-80796134D01*
X150382569Y-80859967D01*
X150412048Y-80928087D01*
X150416846Y-80961670D01*
X150400760Y-81008556D01*
X150365475Y-81033365D01*
X150327644Y-81048387D01*
X150310321Y-81051155D01*
X150301886Y-81031066D01*
X150285230Y-80987351D01*
X150277923Y-80967598D01*
X150236948Y-80899271D01*
X150177622Y-80865191D01*
X150101552Y-80866239D01*
X150095918Y-80867581D01*
X150055305Y-80886836D01*
X150025448Y-80924375D01*
X150005055Y-80984809D01*
X149992836Y-81072751D01*
X149987500Y-81192813D01*
X149987000Y-81256698D01*
X149986752Y-81357403D01*
X149985126Y-81426054D01*
X149980801Y-81469673D01*
X149972454Y-81495282D01*
X149958765Y-81509903D01*
X149938411Y-81520558D01*
X149937234Y-81521095D01*
X149898038Y-81537667D01*
X149878619Y-81543769D01*
X149875635Y-81525319D01*
X149873081Y-81474323D01*
X149871140Y-81397308D01*
X149869997Y-81300805D01*
X149869769Y-81230184D01*
X149870932Y-81093525D01*
X149875479Y-80989851D01*
X149884999Y-80913108D01*
X149901081Y-80857246D01*
X149925313Y-80816212D01*
X149959286Y-80783954D01*
X149992833Y-80761440D01*
X150073499Y-80731476D01*
X150167381Y-80724718D01*
X150255807Y-80741782D01*
G37*
X150255807Y-80741782D02*
X150279161Y-80751988D01*
X150334902Y-80796134D01*
X150382569Y-80859967D01*
X150412048Y-80928087D01*
X150416846Y-80961670D01*
X150400760Y-81008556D01*
X150365475Y-81033365D01*
X150327644Y-81048387D01*
X150310321Y-81051155D01*
X150301886Y-81031066D01*
X150285230Y-80987351D01*
X150277923Y-80967598D01*
X150236948Y-80899271D01*
X150177622Y-80865191D01*
X150101552Y-80866239D01*
X150095918Y-80867581D01*
X150055305Y-80886836D01*
X150025448Y-80924375D01*
X150005055Y-80984809D01*
X149992836Y-81072751D01*
X149987500Y-81192813D01*
X149987000Y-81256698D01*
X149986752Y-81357403D01*
X149985126Y-81426054D01*
X149980801Y-81469673D01*
X149972454Y-81495282D01*
X149958765Y-81509903D01*
X149938411Y-81520558D01*
X149937234Y-81521095D01*
X149898038Y-81537667D01*
X149878619Y-81543769D01*
X149875635Y-81525319D01*
X149873081Y-81474323D01*
X149871140Y-81397308D01*
X149869997Y-81300805D01*
X149869769Y-81230184D01*
X149870932Y-81093525D01*
X149875479Y-80989851D01*
X149884999Y-80913108D01*
X149901081Y-80857246D01*
X149925313Y-80816212D01*
X149959286Y-80783954D01*
X149992833Y-80761440D01*
X150073499Y-80731476D01*
X150167381Y-80724718D01*
X150255807Y-80741782D01*
G36*
X150930224Y-80752838D02*
G01*
X151007528Y-80803361D01*
X151044814Y-80848590D01*
X151074353Y-80930663D01*
X151076699Y-80995607D01*
X151071385Y-81082445D01*
X150871115Y-81170103D01*
X150773739Y-81214887D01*
X150710113Y-81250913D01*
X150677029Y-81282117D01*
X150671280Y-81312436D01*
X150689658Y-81345805D01*
X150709923Y-81367923D01*
X150768889Y-81403393D01*
X150833024Y-81405879D01*
X150891926Y-81378235D01*
X150935197Y-81323320D01*
X150942936Y-81303928D01*
X150980006Y-81243364D01*
X151022654Y-81217552D01*
X151081154Y-81195471D01*
X151081154Y-81279184D01*
X151075982Y-81336150D01*
X151055723Y-81384189D01*
X151013262Y-81439346D01*
X151006951Y-81446514D01*
X150959720Y-81495585D01*
X150919121Y-81521920D01*
X150868328Y-81534035D01*
X150826220Y-81538003D01*
X150750902Y-81538991D01*
X150697286Y-81526466D01*
X150663838Y-81507869D01*
X150611268Y-81466975D01*
X150574879Y-81422748D01*
X150551850Y-81367126D01*
X150539359Y-81292047D01*
X150534587Y-81189449D01*
X150534206Y-81137376D01*
X150535501Y-81074948D01*
X150653471Y-81074948D01*
X150654839Y-81108438D01*
X150658249Y-81113923D01*
X150680753Y-81106472D01*
X150729182Y-81086753D01*
X150793908Y-81058718D01*
X150807443Y-81052692D01*
X150889244Y-81011096D01*
X150934312Y-80974538D01*
X150944217Y-80940296D01*
X150920526Y-80905648D01*
X150900960Y-80890339D01*
X150830360Y-80859721D01*
X150764280Y-80864780D01*
X150708959Y-80902151D01*
X150670636Y-80968473D01*
X150658349Y-81021116D01*
X150653471Y-81074948D01*
X150535501Y-81074948D01*
X150536730Y-81015720D01*
X150546032Y-80925710D01*
X150564460Y-80860167D01*
X150594360Y-80811912D01*
X150638080Y-80773767D01*
X150657141Y-80761440D01*
X150743726Y-80729336D01*
X150838522Y-80727316D01*
X150930224Y-80752838D01*
G37*
X150930224Y-80752838D02*
X151007528Y-80803361D01*
X151044814Y-80848590D01*
X151074353Y-80930663D01*
X151076699Y-80995607D01*
X151071385Y-81082445D01*
X150871115Y-81170103D01*
X150773739Y-81214887D01*
X150710113Y-81250913D01*
X150677029Y-81282117D01*
X150671280Y-81312436D01*
X150689658Y-81345805D01*
X150709923Y-81367923D01*
X150768889Y-81403393D01*
X150833024Y-81405879D01*
X150891926Y-81378235D01*
X150935197Y-81323320D01*
X150942936Y-81303928D01*
X150980006Y-81243364D01*
X151022654Y-81217552D01*
X151081154Y-81195471D01*
X151081154Y-81279184D01*
X151075982Y-81336150D01*
X151055723Y-81384189D01*
X151013262Y-81439346D01*
X151006951Y-81446514D01*
X150959720Y-81495585D01*
X150919121Y-81521920D01*
X150868328Y-81534035D01*
X150826220Y-81538003D01*
X150750902Y-81538991D01*
X150697286Y-81526466D01*
X150663838Y-81507869D01*
X150611268Y-81466975D01*
X150574879Y-81422748D01*
X150551850Y-81367126D01*
X150539359Y-81292047D01*
X150534587Y-81189449D01*
X150534206Y-81137376D01*
X150535501Y-81074948D01*
X150653471Y-81074948D01*
X150654839Y-81108438D01*
X150658249Y-81113923D01*
X150680753Y-81106472D01*
X150729182Y-81086753D01*
X150793908Y-81058718D01*
X150807443Y-81052692D01*
X150889244Y-81011096D01*
X150934312Y-80974538D01*
X150944217Y-80940296D01*
X150920526Y-80905648D01*
X150900960Y-80890339D01*
X150830360Y-80859721D01*
X150764280Y-80864780D01*
X150708959Y-80902151D01*
X150670636Y-80968473D01*
X150658349Y-81021116D01*
X150653471Y-81074948D01*
X150535501Y-81074948D01*
X150536730Y-81015720D01*
X150546032Y-80925710D01*
X150564460Y-80860167D01*
X150594360Y-80811912D01*
X150638080Y-80773767D01*
X150657141Y-80761440D01*
X150743726Y-80729336D01*
X150838522Y-80727316D01*
X150930224Y-80752838D01*
G36*
X146824878Y-74392776D02*
G01*
X146930612Y-74393355D01*
X147007132Y-74394922D01*
X147059372Y-74397972D01*
X147092263Y-74402996D01*
X147110737Y-74410489D01*
X147119727Y-74420944D01*
X147124163Y-74434853D01*
X147124594Y-74436654D01*
X147131333Y-74469145D01*
X147143808Y-74533252D01*
X147160719Y-74622151D01*
X147180771Y-74729019D01*
X147202664Y-74847033D01*
X147203429Y-74851178D01*
X147225359Y-74966831D01*
X147245877Y-75069014D01*
X147263659Y-75151598D01*
X147277381Y-75208456D01*
X147285718Y-75233458D01*
X147286116Y-75233901D01*
X147310677Y-75246110D01*
X147361315Y-75266456D01*
X147427095Y-75290545D01*
X147427461Y-75290674D01*
X147510317Y-75321818D01*
X147608000Y-75361491D01*
X147700077Y-75401381D01*
X147704434Y-75403353D01*
X147854407Y-75471420D01*
X148186498Y-75244639D01*
X148288374Y-75175504D01*
X148380657Y-75113697D01*
X148458003Y-75062733D01*
X148515064Y-75026127D01*
X148546495Y-75007394D01*
X148549479Y-75006004D01*
X148572321Y-75012190D01*
X148614982Y-75042035D01*
X148679128Y-75096947D01*
X148766421Y-75178334D01*
X148855535Y-75264922D01*
X148941441Y-75350247D01*
X149018327Y-75428108D01*
X149081564Y-75493697D01*
X149126523Y-75542205D01*
X149148576Y-75568825D01*
X149149396Y-75570195D01*
X149151834Y-75588463D01*
X149142650Y-75618295D01*
X149119574Y-75663721D01*
X149080337Y-75728770D01*
X149022670Y-75817470D01*
X148945795Y-75931657D01*
X148877570Y-76032162D01*
X148816582Y-76122303D01*
X148766356Y-76196849D01*
X148730416Y-76250565D01*
X148712287Y-76278218D01*
X148711146Y-76280095D01*
X148713359Y-76306590D01*
X148730138Y-76358086D01*
X148758142Y-76424851D01*
X148768122Y-76446172D01*
X148811672Y-76541159D01*
X148858134Y-76648937D01*
X148895877Y-76742192D01*
X148923073Y-76811406D01*
X148944675Y-76864006D01*
X148957158Y-76891497D01*
X148958709Y-76893616D01*
X148981668Y-76897124D01*
X149035786Y-76906738D01*
X149113868Y-76921089D01*
X149208719Y-76938807D01*
X149313143Y-76958525D01*
X149419944Y-76978874D01*
X149521926Y-76998486D01*
X149611894Y-77015991D01*
X149682653Y-77030022D01*
X149727006Y-77039209D01*
X149737885Y-77041807D01*
X149749122Y-77048218D01*
X149757605Y-77062697D01*
X149763714Y-77090133D01*
X149767832Y-77135411D01*
X149770341Y-77203420D01*
X149771621Y-77299047D01*
X149772054Y-77427180D01*
X149772077Y-77479701D01*
X149772077Y-77906845D01*
X149669500Y-77927091D01*
X149612431Y-77938070D01*
X149527269Y-77954095D01*
X149424372Y-77973233D01*
X149314096Y-77993551D01*
X149283615Y-77999132D01*
X149181855Y-78018917D01*
X149093205Y-78038373D01*
X149025108Y-78055697D01*
X148985004Y-78069088D01*
X148978323Y-78073079D01*
X148961919Y-78101342D01*
X148938399Y-78156109D01*
X148912316Y-78226588D01*
X148907142Y-78241769D01*
X148872956Y-78335896D01*
X148830523Y-78442101D01*
X148788997Y-78537473D01*
X148788792Y-78537916D01*
X148719640Y-78687525D01*
X149174512Y-79356617D01*
X148882500Y-79649116D01*
X148794180Y-79736170D01*
X148713625Y-79812909D01*
X148645360Y-79875237D01*
X148593908Y-79919056D01*
X148563794Y-79940270D01*
X148559474Y-79941616D01*
X148534111Y-79931016D01*
X148482358Y-79901547D01*
X148409868Y-79856705D01*
X148322294Y-79799984D01*
X148227612Y-79736462D01*
X148131516Y-79671668D01*
X148045837Y-79615287D01*
X147976016Y-79570788D01*
X147927494Y-79541639D01*
X147905782Y-79531308D01*
X147879293Y-79540050D01*
X147829062Y-79563087D01*
X147765451Y-79595631D01*
X147758708Y-79599249D01*
X147673046Y-79642210D01*
X147614306Y-79663279D01*
X147577772Y-79663503D01*
X147558731Y-79643928D01*
X147558620Y-79643654D01*
X147549102Y-79620472D01*
X147526403Y-79565441D01*
X147492282Y-79482822D01*
X147448500Y-79376872D01*
X147396816Y-79251852D01*
X147338992Y-79112020D01*
X147282991Y-78976637D01*
X147221447Y-78827234D01*
X147164939Y-78688832D01*
X147115161Y-78565673D01*
X147073806Y-78462002D01*
X147042568Y-78382059D01*
X147023141Y-78330088D01*
X147017154Y-78310692D01*
X147032168Y-78288443D01*
X147071439Y-78252982D01*
X147123807Y-78213887D01*
X147272941Y-78090245D01*
X147389511Y-77948522D01*
X147472118Y-77791704D01*
X147519366Y-77622775D01*
X147529857Y-77444722D01*
X147522231Y-77362539D01*
X147480682Y-77192031D01*
X147409123Y-77041459D01*
X147311995Y-76912309D01*
X147193734Y-76806064D01*
X147058780Y-76724210D01*
X146911571Y-76668232D01*
X146756544Y-76639615D01*
X146598139Y-76639844D01*
X146440794Y-76670405D01*
X146288946Y-76732782D01*
X146147035Y-76828460D01*
X146087803Y-76882572D01*
X145974203Y-77021520D01*
X145895106Y-77173361D01*
X145849986Y-77333667D01*
X145838316Y-77498012D01*
X145859569Y-77661971D01*
X145913220Y-77821118D01*
X145998740Y-77971025D01*
X146115605Y-78107267D01*
X146246193Y-78213887D01*
X146300588Y-78254642D01*
X146339014Y-78289718D01*
X146352846Y-78310726D01*
X146345603Y-78333635D01*
X146325005Y-78388365D01*
X146292746Y-78470672D01*
X146250521Y-78576315D01*
X146200023Y-78701050D01*
X146142948Y-78840636D01*
X146086854Y-78976670D01*
X146024967Y-79126201D01*
X145967644Y-79264767D01*
X145916644Y-79388107D01*
X145873727Y-79491964D01*
X145840653Y-79572080D01*
X145819181Y-79624195D01*
X145811225Y-79643654D01*
X145792429Y-79663423D01*
X145756074Y-79663365D01*
X145697479Y-79642441D01*
X145611968Y-79599613D01*
X145611292Y-79599249D01*
X145546907Y-79566012D01*
X145494861Y-79541802D01*
X145465512Y-79531404D01*
X145464217Y-79531308D01*
X145442124Y-79541855D01*
X145393348Y-79571184D01*
X145323331Y-79615827D01*
X145237514Y-79672314D01*
X145142388Y-79736462D01*
X145045540Y-79801411D01*
X144958253Y-79857896D01*
X144886181Y-79902421D01*
X144834977Y-79931490D01*
X144810526Y-79941616D01*
X144788010Y-79928307D01*
X144742742Y-79891112D01*
X144679244Y-79834128D01*
X144602039Y-79761449D01*
X144515651Y-79677171D01*
X144487399Y-79649016D01*
X144195287Y-79356416D01*
X144417631Y-79030104D01*
X144485202Y-78929897D01*
X144544507Y-78839963D01*
X144592217Y-78765510D01*
X144625007Y-78711751D01*
X144639548Y-78683894D01*
X144639974Y-78681912D01*
X144632308Y-78655655D01*
X144611689Y-78602837D01*
X144581685Y-78532310D01*
X144560625Y-78485093D01*
X144521248Y-78394694D01*
X144484165Y-78303366D01*
X144455415Y-78226200D01*
X144447605Y-78202692D01*
X144425417Y-78139916D01*
X144403727Y-78091411D01*
X144391813Y-78073079D01*
X144365523Y-78061859D01*
X144308142Y-78045954D01*
X144227118Y-78027167D01*
X144129895Y-78007299D01*
X144086385Y-77999132D01*
X143975896Y-77978829D01*
X143869916Y-77959170D01*
X143778801Y-77942088D01*
X143712908Y-77929518D01*
X143700500Y-77927091D01*
X143597923Y-77906845D01*
X143597923Y-77479701D01*
X143598153Y-77339246D01*
X143599099Y-77232979D01*
X143601141Y-77156013D01*
X143604662Y-77103460D01*
X143610043Y-77070433D01*
X143617666Y-77052045D01*
X143627912Y-77043408D01*
X143632115Y-77041807D01*
X143657470Y-77036127D01*
X143713484Y-77024795D01*
X143792964Y-77009179D01*
X143888712Y-76990647D01*
X143993533Y-76970569D01*
X144100232Y-76950312D01*
X144201613Y-76931246D01*
X144290479Y-76914739D01*
X144359637Y-76902159D01*
X144401889Y-76894875D01*
X144411290Y-76893616D01*
X144419807Y-76876763D01*
X144438660Y-76831870D01*
X144464324Y-76767430D01*
X144474123Y-76742192D01*
X144513648Y-76644686D01*
X144560192Y-76536959D01*
X144601877Y-76446172D01*
X144632550Y-76376753D01*
X144652956Y-76319710D01*
X144659768Y-76284777D01*
X144658682Y-76280095D01*
X144644285Y-76257991D01*
X144611412Y-76208831D01*
X144563590Y-76137848D01*
X144504348Y-76050278D01*
X144437215Y-75951357D01*
X144423941Y-75931830D01*
X144346046Y-75816140D01*
X144288787Y-75728044D01*
X144249881Y-75663486D01*
X144227044Y-75618411D01*
X144217994Y-75588763D01*
X144220448Y-75570485D01*
X144220511Y-75570369D01*
X144239827Y-75546361D01*
X144282551Y-75499947D01*
X144344051Y-75435937D01*
X144419698Y-75359145D01*
X144504861Y-75274382D01*
X144514465Y-75264922D01*
X144621790Y-75160989D01*
X144704615Y-75084675D01*
X144764605Y-75034571D01*
X144803423Y-75009270D01*
X144820520Y-75006004D01*
X144845473Y-75020250D01*
X144897255Y-75053156D01*
X144970520Y-75101208D01*
X145059920Y-75160890D01*
X145160111Y-75228688D01*
X145183501Y-75244639D01*
X145515593Y-75471420D01*
X145665565Y-75403353D01*
X145756770Y-75363685D01*
X145854669Y-75323791D01*
X145938831Y-75291983D01*
X145942538Y-75290674D01*
X146008369Y-75266576D01*
X146059116Y-75246200D01*
X146083842Y-75233936D01*
X146083884Y-75233901D01*
X146091729Y-75211734D01*
X146105066Y-75157217D01*
X146122570Y-75076480D01*
X146142917Y-74975650D01*
X146164782Y-74860856D01*
X146166571Y-74851178D01*
X146188504Y-74732904D01*
X146208640Y-74625542D01*
X146225680Y-74535917D01*
X146238328Y-74470851D01*
X146245284Y-74437168D01*
X146245406Y-74436654D01*
X146249639Y-74422325D01*
X146257871Y-74411507D01*
X146275033Y-74403706D01*
X146306058Y-74398429D01*
X146355878Y-74395182D01*
X146429424Y-74393472D01*
X146531629Y-74392807D01*
X146667425Y-74392693D01*
X146685000Y-74392692D01*
X146824878Y-74392776D01*
G37*
X146824878Y-74392776D02*
X146930612Y-74393355D01*
X147007132Y-74394922D01*
X147059372Y-74397972D01*
X147092263Y-74402996D01*
X147110737Y-74410489D01*
X147119727Y-74420944D01*
X147124163Y-74434853D01*
X147124594Y-74436654D01*
X147131333Y-74469145D01*
X147143808Y-74533252D01*
X147160719Y-74622151D01*
X147180771Y-74729019D01*
X147202664Y-74847033D01*
X147203429Y-74851178D01*
X147225359Y-74966831D01*
X147245877Y-75069014D01*
X147263659Y-75151598D01*
X147277381Y-75208456D01*
X147285718Y-75233458D01*
X147286116Y-75233901D01*
X147310677Y-75246110D01*
X147361315Y-75266456D01*
X147427095Y-75290545D01*
X147427461Y-75290674D01*
X147510317Y-75321818D01*
X147608000Y-75361491D01*
X147700077Y-75401381D01*
X147704434Y-75403353D01*
X147854407Y-75471420D01*
X148186498Y-75244639D01*
X148288374Y-75175504D01*
X148380657Y-75113697D01*
X148458003Y-75062733D01*
X148515064Y-75026127D01*
X148546495Y-75007394D01*
X148549479Y-75006004D01*
X148572321Y-75012190D01*
X148614982Y-75042035D01*
X148679128Y-75096947D01*
X148766421Y-75178334D01*
X148855535Y-75264922D01*
X148941441Y-75350247D01*
X149018327Y-75428108D01*
X149081564Y-75493697D01*
X149126523Y-75542205D01*
X149148576Y-75568825D01*
X149149396Y-75570195D01*
X149151834Y-75588463D01*
X149142650Y-75618295D01*
X149119574Y-75663721D01*
X149080337Y-75728770D01*
X149022670Y-75817470D01*
X148945795Y-75931657D01*
X148877570Y-76032162D01*
X148816582Y-76122303D01*
X148766356Y-76196849D01*
X148730416Y-76250565D01*
X148712287Y-76278218D01*
X148711146Y-76280095D01*
X148713359Y-76306590D01*
X148730138Y-76358086D01*
X148758142Y-76424851D01*
X148768122Y-76446172D01*
X148811672Y-76541159D01*
X148858134Y-76648937D01*
X148895877Y-76742192D01*
X148923073Y-76811406D01*
X148944675Y-76864006D01*
X148957158Y-76891497D01*
X148958709Y-76893616D01*
X148981668Y-76897124D01*
X149035786Y-76906738D01*
X149113868Y-76921089D01*
X149208719Y-76938807D01*
X149313143Y-76958525D01*
X149419944Y-76978874D01*
X149521926Y-76998486D01*
X149611894Y-77015991D01*
X149682653Y-77030022D01*
X149727006Y-77039209D01*
X149737885Y-77041807D01*
X149749122Y-77048218D01*
X149757605Y-77062697D01*
X149763714Y-77090133D01*
X149767832Y-77135411D01*
X149770341Y-77203420D01*
X149771621Y-77299047D01*
X149772054Y-77427180D01*
X149772077Y-77479701D01*
X149772077Y-77906845D01*
X149669500Y-77927091D01*
X149612431Y-77938070D01*
X149527269Y-77954095D01*
X149424372Y-77973233D01*
X149314096Y-77993551D01*
X149283615Y-77999132D01*
X149181855Y-78018917D01*
X149093205Y-78038373D01*
X149025108Y-78055697D01*
X148985004Y-78069088D01*
X148978323Y-78073079D01*
X148961919Y-78101342D01*
X148938399Y-78156109D01*
X148912316Y-78226588D01*
X148907142Y-78241769D01*
X148872956Y-78335896D01*
X148830523Y-78442101D01*
X148788997Y-78537473D01*
X148788792Y-78537916D01*
X148719640Y-78687525D01*
X149174512Y-79356617D01*
X148882500Y-79649116D01*
X148794180Y-79736170D01*
X148713625Y-79812909D01*
X148645360Y-79875237D01*
X148593908Y-79919056D01*
X148563794Y-79940270D01*
X148559474Y-79941616D01*
X148534111Y-79931016D01*
X148482358Y-79901547D01*
X148409868Y-79856705D01*
X148322294Y-79799984D01*
X148227612Y-79736462D01*
X148131516Y-79671668D01*
X148045837Y-79615287D01*
X147976016Y-79570788D01*
X147927494Y-79541639D01*
X147905782Y-79531308D01*
X147879293Y-79540050D01*
X147829062Y-79563087D01*
X147765451Y-79595631D01*
X147758708Y-79599249D01*
X147673046Y-79642210D01*
X147614306Y-79663279D01*
X147577772Y-79663503D01*
X147558731Y-79643928D01*
X147558620Y-79643654D01*
X147549102Y-79620472D01*
X147526403Y-79565441D01*
X147492282Y-79482822D01*
X147448500Y-79376872D01*
X147396816Y-79251852D01*
X147338992Y-79112020D01*
X147282991Y-78976637D01*
X147221447Y-78827234D01*
X147164939Y-78688832D01*
X147115161Y-78565673D01*
X147073806Y-78462002D01*
X147042568Y-78382059D01*
X147023141Y-78330088D01*
X147017154Y-78310692D01*
X147032168Y-78288443D01*
X147071439Y-78252982D01*
X147123807Y-78213887D01*
X147272941Y-78090245D01*
X147389511Y-77948522D01*
X147472118Y-77791704D01*
X147519366Y-77622775D01*
X147529857Y-77444722D01*
X147522231Y-77362539D01*
X147480682Y-77192031D01*
X147409123Y-77041459D01*
X147311995Y-76912309D01*
X147193734Y-76806064D01*
X147058780Y-76724210D01*
X146911571Y-76668232D01*
X146756544Y-76639615D01*
X146598139Y-76639844D01*
X146440794Y-76670405D01*
X146288946Y-76732782D01*
X146147035Y-76828460D01*
X146087803Y-76882572D01*
X145974203Y-77021520D01*
X145895106Y-77173361D01*
X145849986Y-77333667D01*
X145838316Y-77498012D01*
X145859569Y-77661971D01*
X145913220Y-77821118D01*
X145998740Y-77971025D01*
X146115605Y-78107267D01*
X146246193Y-78213887D01*
X146300588Y-78254642D01*
X146339014Y-78289718D01*
X146352846Y-78310726D01*
X146345603Y-78333635D01*
X146325005Y-78388365D01*
X146292746Y-78470672D01*
X146250521Y-78576315D01*
X146200023Y-78701050D01*
X146142948Y-78840636D01*
X146086854Y-78976670D01*
X146024967Y-79126201D01*
X145967644Y-79264767D01*
X145916644Y-79388107D01*
X145873727Y-79491964D01*
X145840653Y-79572080D01*
X145819181Y-79624195D01*
X145811225Y-79643654D01*
X145792429Y-79663423D01*
X145756074Y-79663365D01*
X145697479Y-79642441D01*
X145611968Y-79599613D01*
X145611292Y-79599249D01*
X145546907Y-79566012D01*
X145494861Y-79541802D01*
X145465512Y-79531404D01*
X145464217Y-79531308D01*
X145442124Y-79541855D01*
X145393348Y-79571184D01*
X145323331Y-79615827D01*
X145237514Y-79672314D01*
X145142388Y-79736462D01*
X145045540Y-79801411D01*
X144958253Y-79857896D01*
X144886181Y-79902421D01*
X144834977Y-79931490D01*
X144810526Y-79941616D01*
X144788010Y-79928307D01*
X144742742Y-79891112D01*
X144679244Y-79834128D01*
X144602039Y-79761449D01*
X144515651Y-79677171D01*
X144487399Y-79649016D01*
X144195287Y-79356416D01*
X144417631Y-79030104D01*
X144485202Y-78929897D01*
X144544507Y-78839963D01*
X144592217Y-78765510D01*
X144625007Y-78711751D01*
X144639548Y-78683894D01*
X144639974Y-78681912D01*
X144632308Y-78655655D01*
X144611689Y-78602837D01*
X144581685Y-78532310D01*
X144560625Y-78485093D01*
X144521248Y-78394694D01*
X144484165Y-78303366D01*
X144455415Y-78226200D01*
X144447605Y-78202692D01*
X144425417Y-78139916D01*
X144403727Y-78091411D01*
X144391813Y-78073079D01*
X144365523Y-78061859D01*
X144308142Y-78045954D01*
X144227118Y-78027167D01*
X144129895Y-78007299D01*
X144086385Y-77999132D01*
X143975896Y-77978829D01*
X143869916Y-77959170D01*
X143778801Y-77942088D01*
X143712908Y-77929518D01*
X143700500Y-77927091D01*
X143597923Y-77906845D01*
X143597923Y-77479701D01*
X143598153Y-77339246D01*
X143599099Y-77232979D01*
X143601141Y-77156013D01*
X143604662Y-77103460D01*
X143610043Y-77070433D01*
X143617666Y-77052045D01*
X143627912Y-77043408D01*
X143632115Y-77041807D01*
X143657470Y-77036127D01*
X143713484Y-77024795D01*
X143792964Y-77009179D01*
X143888712Y-76990647D01*
X143993533Y-76970569D01*
X144100232Y-76950312D01*
X144201613Y-76931246D01*
X144290479Y-76914739D01*
X144359637Y-76902159D01*
X144401889Y-76894875D01*
X144411290Y-76893616D01*
X144419807Y-76876763D01*
X144438660Y-76831870D01*
X144464324Y-76767430D01*
X144474123Y-76742192D01*
X144513648Y-76644686D01*
X144560192Y-76536959D01*
X144601877Y-76446172D01*
X144632550Y-76376753D01*
X144652956Y-76319710D01*
X144659768Y-76284777D01*
X144658682Y-76280095D01*
X144644285Y-76257991D01*
X144611412Y-76208831D01*
X144563590Y-76137848D01*
X144504348Y-76050278D01*
X144437215Y-75951357D01*
X144423941Y-75931830D01*
X144346046Y-75816140D01*
X144288787Y-75728044D01*
X144249881Y-75663486D01*
X144227044Y-75618411D01*
X144217994Y-75588763D01*
X144220448Y-75570485D01*
X144220511Y-75570369D01*
X144239827Y-75546361D01*
X144282551Y-75499947D01*
X144344051Y-75435937D01*
X144419698Y-75359145D01*
X144504861Y-75274382D01*
X144514465Y-75264922D01*
X144621790Y-75160989D01*
X144704615Y-75084675D01*
X144764605Y-75034571D01*
X144803423Y-75009270D01*
X144820520Y-75006004D01*
X144845473Y-75020250D01*
X144897255Y-75053156D01*
X144970520Y-75101208D01*
X145059920Y-75160890D01*
X145160111Y-75228688D01*
X145183501Y-75244639D01*
X145515593Y-75471420D01*
X145665565Y-75403353D01*
X145756770Y-75363685D01*
X145854669Y-75323791D01*
X145938831Y-75291983D01*
X145942538Y-75290674D01*
X146008369Y-75266576D01*
X146059116Y-75246200D01*
X146083842Y-75233936D01*
X146083884Y-75233901D01*
X146091729Y-75211734D01*
X146105066Y-75157217D01*
X146122570Y-75076480D01*
X146142917Y-74975650D01*
X146164782Y-74860856D01*
X146166571Y-74851178D01*
X146188504Y-74732904D01*
X146208640Y-74625542D01*
X146225680Y-74535917D01*
X146238328Y-74470851D01*
X146245284Y-74437168D01*
X146245406Y-74436654D01*
X146249639Y-74422325D01*
X146257871Y-74411507D01*
X146275033Y-74403706D01*
X146306058Y-74398429D01*
X146355878Y-74395182D01*
X146429424Y-74393472D01*
X146531629Y-74392807D01*
X146667425Y-74392693D01*
X146685000Y-74392692D01*
X146824878Y-74392776D01*
D10*
%TO.C,J2*%
X137174988Y-109710001D02*
X127175009Y-109710001D01*
X137174988Y-121460001D02*
X137174988Y-109710001D01*
X127175009Y-121460001D02*
X137174988Y-121460001D01*
X127175009Y-109710001D02*
X127175009Y-121460001D01*
X129540000Y-107932001D02*
X130175000Y-109456001D01*
X130810000Y-107932001D02*
X129540000Y-107932001D01*
X130175000Y-109456001D02*
X130810000Y-107932001D01*
%TO.C,J5*%
X141525000Y-76870000D02*
X138525000Y-76870000D01*
X138525000Y-76870000D02*
X138525000Y-77620000D01*
X138525000Y-77620000D02*
X126525000Y-77620000D01*
X126525000Y-77620000D02*
X126525000Y-76870000D01*
X126525000Y-76870000D02*
X123525000Y-76870000D01*
X123525000Y-76870000D02*
X123525000Y-68120000D01*
X123525000Y-68120000D02*
X124525000Y-66620000D01*
X124525000Y-66620000D02*
X140275000Y-66620000D01*
X140275000Y-66620000D02*
X141525000Y-68370000D01*
X141525000Y-68370000D02*
X141525000Y-76870000D01*
%TO.C,J4*%
X117975000Y-81890000D02*
X117975000Y-81490000D01*
X116975000Y-81890000D02*
X117975000Y-81890000D01*
X116975000Y-81490000D02*
X116975000Y-81890000D01*
X118975000Y-81890000D02*
X118975000Y-81490000D01*
X121175000Y-81890000D02*
X118975000Y-81890000D01*
X121175000Y-84090000D02*
X121175000Y-81890000D01*
X121575000Y-84090000D02*
X121175000Y-84090000D01*
X115975000Y-81890000D02*
X115975000Y-81490000D01*
X113775000Y-81890000D02*
X115975000Y-81890000D01*
X113775000Y-84090000D02*
X113775000Y-81890000D01*
X113375000Y-84090000D02*
X113775000Y-84090000D01*
X121175000Y-85090000D02*
X121575000Y-85090000D01*
X121175000Y-86290000D02*
X121175000Y-85090000D01*
X113775000Y-86290000D02*
X121175000Y-86290000D01*
X113775000Y-85090000D02*
X113775000Y-86290000D01*
X113375000Y-85090000D02*
X113775000Y-85090000D01*
X113065000Y-81180000D02*
X114975000Y-81180000D01*
X113065000Y-83090000D02*
X113065000Y-81180000D01*
X121575000Y-81490000D02*
X113375000Y-81490000D01*
X121575000Y-86690000D02*
X121575000Y-81490000D01*
X113375000Y-86690000D02*
X121575000Y-86690000D01*
X113375000Y-81490000D02*
X113375000Y-86690000D01*
%TO.C,J1*%
X118070000Y-89478000D02*
X118070000Y-89078000D01*
X117070000Y-89478000D02*
X118070000Y-89478000D01*
X117070000Y-89078000D02*
X117070000Y-89478000D01*
X119070000Y-89478000D02*
X119070000Y-89078000D01*
X121270000Y-89478000D02*
X119070000Y-89478000D01*
X121270000Y-91678000D02*
X121270000Y-89478000D01*
X121670000Y-91678000D02*
X121270000Y-91678000D01*
X116070000Y-89478000D02*
X116070000Y-89078000D01*
X113870000Y-89478000D02*
X116070000Y-89478000D01*
X113870000Y-91678000D02*
X113870000Y-89478000D01*
X113470000Y-91678000D02*
X113870000Y-91678000D01*
X121270000Y-92678000D02*
X121670000Y-92678000D01*
X121270000Y-93878000D02*
X121270000Y-92678000D01*
X113870000Y-93878000D02*
X121270000Y-93878000D01*
X113870000Y-92678000D02*
X113870000Y-93878000D01*
X113470000Y-92678000D02*
X113870000Y-92678000D01*
X113160000Y-88768000D02*
X115070000Y-88768000D01*
X113160000Y-90678000D02*
X113160000Y-88768000D01*
X121670000Y-89078000D02*
X113470000Y-89078000D01*
X121670000Y-94278000D02*
X121670000Y-89078000D01*
X113470000Y-94278000D02*
X121670000Y-94278000D01*
X113470000Y-89078000D02*
X113470000Y-94278000D01*
%TO.C,U6*%
X126735000Y-98765000D02*
X128535000Y-98765000D01*
X128535000Y-95545000D02*
X126085000Y-95545000D01*
%TO.C,TP5*%
X130740000Y-78994000D02*
G75*
G03*
X130740000Y-78994000I-1200000J0D01*
G01*
%TO.C,TP4*%
X124898000Y-95250000D02*
G75*
G03*
X124898000Y-95250000I-1200000J0D01*
G01*
%TO.C,TP3*%
X120072000Y-79248000D02*
G75*
G03*
X120072000Y-79248000I-1200000J0D01*
G01*
%TO.C,TP2*%
X116770000Y-79248000D02*
G75*
G03*
X116770000Y-79248000I-1200000J0D01*
G01*
%TO.C,TP1*%
X125152000Y-90678000D02*
G75*
G03*
X125152000Y-90678000I-1200000J0D01*
G01*
%TO.C,R14*%
X135390936Y-97388000D02*
X136845064Y-97388000D01*
X135390936Y-99208000D02*
X136845064Y-99208000D01*
%TO.C,R13*%
X135416936Y-95102000D02*
X136871064Y-95102000D01*
X135416936Y-96922000D02*
X136871064Y-96922000D01*
%TO.C,R5*%
X132228000Y-93760936D02*
X132228000Y-95215064D01*
X130408000Y-93760936D02*
X130408000Y-95215064D01*
%TO.C,R4*%
X128235064Y-104796000D02*
X126780936Y-104796000D01*
X128235064Y-102976000D02*
X126780936Y-102976000D01*
%TO.C,D4*%
X114264000Y-101634000D02*
X114264000Y-101790000D01*
X114264000Y-103950000D02*
X114264000Y-104106000D01*
X116865130Y-103949837D02*
G75*
G02*
X114783039Y-103950000I-1041130J1079837D01*
G01*
X116865130Y-101790163D02*
G75*
G03*
X114783039Y-101790000I-1041130J-1079837D01*
G01*
X117496335Y-103948608D02*
G75*
G02*
X114264000Y-104105516I-1672335J1078608D01*
G01*
X117496335Y-101791392D02*
G75*
G03*
X114264000Y-101634484I-1672335J-1078608D01*
G01*
%TO.C,D3*%
X114264000Y-110778000D02*
X114264000Y-110934000D01*
X114264000Y-113094000D02*
X114264000Y-113250000D01*
X116865130Y-113093837D02*
G75*
G02*
X114783039Y-113094000I-1041130J1079837D01*
G01*
X116865130Y-110934163D02*
G75*
G03*
X114783039Y-110934000I-1041130J-1079837D01*
G01*
X117496335Y-113092608D02*
G75*
G02*
X114264000Y-113249516I-1672335J1078608D01*
G01*
X117496335Y-110935392D02*
G75*
G03*
X114264000Y-110778484I-1672335J-1078608D01*
G01*
%TO.C,C11*%
X128346252Y-94890000D02*
X126923748Y-94890000D01*
X128346252Y-93070000D02*
X126923748Y-93070000D01*
%TO.C,C9*%
X132156252Y-85746000D02*
X130733748Y-85746000D01*
X132156252Y-83926000D02*
X130733748Y-83926000D01*
%TO.C,C8*%
X151310000Y-108765000D02*
X151310000Y-105015000D01*
X151310000Y-98245000D02*
X151310000Y-101995000D01*
X141854437Y-98245000D02*
X151310000Y-98245000D01*
X141854437Y-108765000D02*
X151310000Y-108765000D01*
X140790000Y-107700563D02*
X140790000Y-105015000D01*
X140790000Y-99309437D02*
X140790000Y-101995000D01*
X140790000Y-99309437D02*
X141854437Y-98245000D01*
X140790000Y-107700563D02*
X141854437Y-108765000D01*
X139300000Y-100745000D02*
X140550000Y-100745000D01*
X139925000Y-100120000D02*
X139925000Y-101370000D01*
%TO.C,U2*%
X131445000Y-86340000D02*
X127995000Y-86340000D01*
X131445000Y-86340000D02*
X133395000Y-86340000D01*
X131445000Y-91460000D02*
X129495000Y-91460000D01*
X131445000Y-91460000D02*
X133395000Y-91460000D01*
%TO.C,U1*%
X128535000Y-99228000D02*
X126085000Y-99228000D01*
X126735000Y-102448000D02*
X128535000Y-102448000D01*
%TO.C,J3*%
X118678000Y-97536000D02*
X118678000Y-98866000D01*
X118678000Y-98866000D02*
X117348000Y-98866000D01*
X116078000Y-98866000D02*
X113478000Y-98866000D01*
X113478000Y-96206000D02*
X113478000Y-98866000D01*
X116078000Y-96206000D02*
X113478000Y-96206000D01*
X116078000Y-96206000D02*
X116078000Y-98866000D01*
%TO.C,D1*%
X114264000Y-108522000D02*
X114264000Y-108678000D01*
X114264000Y-106206000D02*
X114264000Y-106362000D01*
X116865130Y-108521837D02*
G75*
G02*
X114783039Y-108522000I-1041130J1079837D01*
G01*
X116865130Y-106362163D02*
G75*
G03*
X114783039Y-106362000I-1041130J-1079837D01*
G01*
X117496335Y-108520608D02*
G75*
G02*
X114264000Y-108677516I-1672335J1078608D01*
G01*
X117496335Y-106363392D02*
G75*
G03*
X114264000Y-106206484I-1672335J-1078608D01*
G01*
%TO.C,C7*%
X127275000Y-87071252D02*
X127275000Y-85648748D01*
X125455000Y-87071252D02*
X125455000Y-85648748D01*
%TO.C,C5*%
X139925000Y-84245000D02*
X139925000Y-85495000D01*
X139300000Y-84870000D02*
X140550000Y-84870000D01*
X140790000Y-91825563D02*
X141854437Y-92890000D01*
X140790000Y-83434437D02*
X141854437Y-82370000D01*
X140790000Y-83434437D02*
X140790000Y-86120000D01*
X140790000Y-91825563D02*
X140790000Y-89140000D01*
X141854437Y-92890000D02*
X151310000Y-92890000D01*
X141854437Y-82370000D02*
X151310000Y-82370000D01*
X151310000Y-82370000D02*
X151310000Y-86120000D01*
X151310000Y-92890000D02*
X151310000Y-89140000D01*
%TO.C,J2*%
D14*
X132508666Y-106386380D02*
X132508666Y-107100666D01*
X132461047Y-107243523D01*
X132365809Y-107338761D01*
X132222952Y-107386380D01*
X132127714Y-107386380D01*
X132937238Y-106481619D02*
X132984857Y-106434000D01*
X133080095Y-106386380D01*
X133318190Y-106386380D01*
X133413428Y-106434000D01*
X133461047Y-106481619D01*
X133508666Y-106576857D01*
X133508666Y-106672095D01*
X133461047Y-106814952D01*
X132889619Y-107386380D01*
X133508666Y-107386380D01*
D12*
X125980000Y-118821666D02*
X126013333Y-118855000D01*
X126046666Y-118955000D01*
X126046666Y-119021666D01*
X126013333Y-119121666D01*
X125946666Y-119188333D01*
X125880000Y-119221666D01*
X125746666Y-119255000D01*
X125646666Y-119255000D01*
X125513333Y-119221666D01*
X125446666Y-119188333D01*
X125380000Y-119121666D01*
X125346666Y-119021666D01*
X125346666Y-118955000D01*
X125380000Y-118855000D01*
X125413333Y-118821666D01*
X126046666Y-118421666D02*
X126013333Y-118488333D01*
X125980000Y-118521666D01*
X125913333Y-118555000D01*
X125713333Y-118555000D01*
X125646666Y-118521666D01*
X125613333Y-118488333D01*
X125580000Y-118421666D01*
X125580000Y-118321666D01*
X125613333Y-118255000D01*
X125646666Y-118221666D01*
X125713333Y-118188333D01*
X125913333Y-118188333D01*
X125980000Y-118221666D01*
X126013333Y-118255000D01*
X126046666Y-118321666D01*
X126046666Y-118421666D01*
X125580000Y-117888333D02*
X126046666Y-117888333D01*
X125646666Y-117888333D02*
X125613333Y-117855000D01*
X125580000Y-117788333D01*
X125580000Y-117688333D01*
X125613333Y-117621666D01*
X125680000Y-117588333D01*
X126046666Y-117588333D01*
X125580000Y-117255000D02*
X126046666Y-117255000D01*
X125646666Y-117255000D02*
X125613333Y-117221666D01*
X125580000Y-117155000D01*
X125580000Y-117055000D01*
X125613333Y-116988333D01*
X125680000Y-116955000D01*
X126046666Y-116955000D01*
X126113333Y-116788333D02*
X126113333Y-116255000D01*
X125346666Y-115955000D02*
X125346666Y-115888333D01*
X125380000Y-115821666D01*
X125413333Y-115788333D01*
X125480000Y-115755000D01*
X125613333Y-115721666D01*
X125780000Y-115721666D01*
X125913333Y-115755000D01*
X125980000Y-115788333D01*
X126013333Y-115821666D01*
X126046666Y-115888333D01*
X126046666Y-115955000D01*
X126013333Y-116021666D01*
X125980000Y-116055000D01*
X125913333Y-116088333D01*
X125780000Y-116121666D01*
X125613333Y-116121666D01*
X125480000Y-116088333D01*
X125413333Y-116055000D01*
X125380000Y-116021666D01*
X125346666Y-115955000D01*
X126046666Y-115055000D02*
X126046666Y-115455000D01*
X126046666Y-115255000D02*
X125346666Y-115255000D01*
X125446666Y-115321666D01*
X125513333Y-115388333D01*
X125546666Y-115455000D01*
X126046666Y-114821666D02*
X125580000Y-114455000D01*
X125580000Y-114821666D02*
X126046666Y-114455000D01*
X125346666Y-114055000D02*
X125346666Y-113988333D01*
X125380000Y-113921666D01*
X125413333Y-113888333D01*
X125480000Y-113855000D01*
X125613333Y-113821666D01*
X125780000Y-113821666D01*
X125913333Y-113855000D01*
X125980000Y-113888333D01*
X126013333Y-113921666D01*
X126046666Y-113988333D01*
X126046666Y-114055000D01*
X126013333Y-114121666D01*
X125980000Y-114155000D01*
X125913333Y-114188333D01*
X125780000Y-114221666D01*
X125613333Y-114221666D01*
X125480000Y-114188333D01*
X125413333Y-114155000D01*
X125380000Y-114121666D01*
X125346666Y-114055000D01*
X125346666Y-113588333D02*
X125346666Y-113155000D01*
X125613333Y-113388333D01*
X125613333Y-113288333D01*
X125646666Y-113221666D01*
X125680000Y-113188333D01*
X125746666Y-113155000D01*
X125913333Y-113155000D01*
X125980000Y-113188333D01*
X126013333Y-113221666D01*
X126046666Y-113288333D01*
X126046666Y-113488333D01*
X126013333Y-113555000D01*
X125980000Y-113588333D01*
%TO.C,J5*%
D14*
X142287666Y-70318380D02*
X142287666Y-71032666D01*
X142240047Y-71175523D01*
X142144809Y-71270761D01*
X142001952Y-71318380D01*
X141906714Y-71318380D01*
X143240047Y-70318380D02*
X142763857Y-70318380D01*
X142716238Y-70794571D01*
X142763857Y-70746952D01*
X142859095Y-70699333D01*
X143097190Y-70699333D01*
X143192428Y-70746952D01*
X143240047Y-70794571D01*
X143287666Y-70889809D01*
X143287666Y-71127904D01*
X143240047Y-71223142D01*
X143192428Y-71270761D01*
X143097190Y-71318380D01*
X142859095Y-71318380D01*
X142763857Y-71270761D01*
X142716238Y-71223142D01*
%TO.C,J4*%
X122348666Y-80478380D02*
X122348666Y-81192666D01*
X122301047Y-81335523D01*
X122205809Y-81430761D01*
X122062952Y-81478380D01*
X121967714Y-81478380D01*
X123253428Y-80811714D02*
X123253428Y-81478380D01*
X123015333Y-80430761D02*
X122777238Y-81145047D01*
X123396285Y-81145047D01*
%TO.C,J1*%
X113458666Y-87336380D02*
X113458666Y-88050666D01*
X113411047Y-88193523D01*
X113315809Y-88288761D01*
X113172952Y-88336380D01*
X113077714Y-88336380D01*
X114458666Y-88336380D02*
X113887238Y-88336380D01*
X114172952Y-88336380D02*
X114172952Y-87336380D01*
X114077714Y-87479238D01*
X113982476Y-87574476D01*
X113887238Y-87622095D01*
%TO.C,U6*%
X123698095Y-97242380D02*
X123698095Y-98051904D01*
X123745714Y-98147142D01*
X123793333Y-98194761D01*
X123888571Y-98242380D01*
X124079047Y-98242380D01*
X124174285Y-98194761D01*
X124221904Y-98147142D01*
X124269523Y-98051904D01*
X124269523Y-97242380D01*
X125174285Y-97242380D02*
X124983809Y-97242380D01*
X124888571Y-97290000D01*
X124840952Y-97337619D01*
X124745714Y-97480476D01*
X124698095Y-97670952D01*
X124698095Y-98051904D01*
X124745714Y-98147142D01*
X124793333Y-98194761D01*
X124888571Y-98242380D01*
X125079047Y-98242380D01*
X125174285Y-98194761D01*
X125221904Y-98147142D01*
X125269523Y-98051904D01*
X125269523Y-97813809D01*
X125221904Y-97718571D01*
X125174285Y-97670952D01*
X125079047Y-97623333D01*
X124888571Y-97623333D01*
X124793333Y-97670952D01*
X124745714Y-97718571D01*
X124698095Y-97813809D01*
%TO.C,TP5*%
X131326095Y-78446380D02*
X131897523Y-78446380D01*
X131611809Y-79446380D02*
X131611809Y-78446380D01*
X132230857Y-79446380D02*
X132230857Y-78446380D01*
X132611809Y-78446380D01*
X132707047Y-78494000D01*
X132754666Y-78541619D01*
X132802285Y-78636857D01*
X132802285Y-78779714D01*
X132754666Y-78874952D01*
X132707047Y-78922571D01*
X132611809Y-78970190D01*
X132230857Y-78970190D01*
X133707047Y-78446380D02*
X133230857Y-78446380D01*
X133183238Y-78922571D01*
X133230857Y-78874952D01*
X133326095Y-78827333D01*
X133564190Y-78827333D01*
X133659428Y-78874952D01*
X133707047Y-78922571D01*
X133754666Y-79017809D01*
X133754666Y-79255904D01*
X133707047Y-79351142D01*
X133659428Y-79398761D01*
X133564190Y-79446380D01*
X133326095Y-79446380D01*
X133230857Y-79398761D01*
X133183238Y-79351142D01*
%TO.C,TP4*%
D12*
X122814666Y-92868666D02*
X123214666Y-92868666D01*
X123014666Y-93568666D02*
X123014666Y-92868666D01*
X123448000Y-93568666D02*
X123448000Y-92868666D01*
X123714666Y-92868666D01*
X123781333Y-92902000D01*
X123814666Y-92935333D01*
X123848000Y-93002000D01*
X123848000Y-93102000D01*
X123814666Y-93168666D01*
X123781333Y-93202000D01*
X123714666Y-93235333D01*
X123448000Y-93235333D01*
X124448000Y-93102000D02*
X124448000Y-93568666D01*
X124281333Y-92835333D02*
X124114666Y-93335333D01*
X124548000Y-93335333D01*
%TO.C,TP3*%
X117988666Y-76866666D02*
X118388666Y-76866666D01*
X118188666Y-77566666D02*
X118188666Y-76866666D01*
X118622000Y-77566666D02*
X118622000Y-76866666D01*
X118888666Y-76866666D01*
X118955333Y-76900000D01*
X118988666Y-76933333D01*
X119022000Y-77000000D01*
X119022000Y-77100000D01*
X118988666Y-77166666D01*
X118955333Y-77200000D01*
X118888666Y-77233333D01*
X118622000Y-77233333D01*
X119255333Y-76866666D02*
X119688666Y-76866666D01*
X119455333Y-77133333D01*
X119555333Y-77133333D01*
X119622000Y-77166666D01*
X119655333Y-77200000D01*
X119688666Y-77266666D01*
X119688666Y-77433333D01*
X119655333Y-77500000D01*
X119622000Y-77533333D01*
X119555333Y-77566666D01*
X119355333Y-77566666D01*
X119288666Y-77533333D01*
X119255333Y-77500000D01*
%TO.C,TP2*%
X114686666Y-76866666D02*
X115086666Y-76866666D01*
X114886666Y-77566666D02*
X114886666Y-76866666D01*
X115320000Y-77566666D02*
X115320000Y-76866666D01*
X115586666Y-76866666D01*
X115653333Y-76900000D01*
X115686666Y-76933333D01*
X115720000Y-77000000D01*
X115720000Y-77100000D01*
X115686666Y-77166666D01*
X115653333Y-77200000D01*
X115586666Y-77233333D01*
X115320000Y-77233333D01*
X115986666Y-76933333D02*
X116020000Y-76900000D01*
X116086666Y-76866666D01*
X116253333Y-76866666D01*
X116320000Y-76900000D01*
X116353333Y-76933333D01*
X116386666Y-77000000D01*
X116386666Y-77066666D01*
X116353333Y-77166666D01*
X115953333Y-77566666D01*
X116386666Y-77566666D01*
%TO.C,TP1*%
X123068666Y-88008666D02*
X123468666Y-88008666D01*
X123268666Y-88708666D02*
X123268666Y-88008666D01*
X123702000Y-88708666D02*
X123702000Y-88008666D01*
X123968666Y-88008666D01*
X124035333Y-88042000D01*
X124068666Y-88075333D01*
X124102000Y-88142000D01*
X124102000Y-88242000D01*
X124068666Y-88308666D01*
X124035333Y-88342000D01*
X123968666Y-88375333D01*
X123702000Y-88375333D01*
X124768666Y-88708666D02*
X124368666Y-88708666D01*
X124568666Y-88708666D02*
X124568666Y-88008666D01*
X124502000Y-88108666D01*
X124435333Y-88175333D01*
X124368666Y-88208666D01*
%TO.C,R14*%
D14*
X135755142Y-100528380D02*
X135421809Y-100052190D01*
X135183714Y-100528380D02*
X135183714Y-99528380D01*
X135564666Y-99528380D01*
X135659904Y-99576000D01*
X135707523Y-99623619D01*
X135755142Y-99718857D01*
X135755142Y-99861714D01*
X135707523Y-99956952D01*
X135659904Y-100004571D01*
X135564666Y-100052190D01*
X135183714Y-100052190D01*
X136707523Y-100528380D02*
X136136095Y-100528380D01*
X136421809Y-100528380D02*
X136421809Y-99528380D01*
X136326571Y-99671238D01*
X136231333Y-99766476D01*
X136136095Y-99814095D01*
X137564666Y-99861714D02*
X137564666Y-100528380D01*
X137326571Y-99480761D02*
X137088476Y-100195047D01*
X137707523Y-100195047D01*
%TO.C,R13*%
X135501142Y-94644380D02*
X135167809Y-94168190D01*
X134929714Y-94644380D02*
X134929714Y-93644380D01*
X135310666Y-93644380D01*
X135405904Y-93692000D01*
X135453523Y-93739619D01*
X135501142Y-93834857D01*
X135501142Y-93977714D01*
X135453523Y-94072952D01*
X135405904Y-94120571D01*
X135310666Y-94168190D01*
X134929714Y-94168190D01*
X136453523Y-94644380D02*
X135882095Y-94644380D01*
X136167809Y-94644380D02*
X136167809Y-93644380D01*
X136072571Y-93787238D01*
X135977333Y-93882476D01*
X135882095Y-93930095D01*
X136786857Y-93644380D02*
X137405904Y-93644380D01*
X137072571Y-94025333D01*
X137215428Y-94025333D01*
X137310666Y-94072952D01*
X137358285Y-94120571D01*
X137405904Y-94215809D01*
X137405904Y-94453904D01*
X137358285Y-94549142D01*
X137310666Y-94596761D01*
X137215428Y-94644380D01*
X136929714Y-94644380D01*
X136834476Y-94596761D01*
X136786857Y-94549142D01*
%TO.C,R5*%
X133437333Y-93162380D02*
X133104000Y-92686190D01*
X132865904Y-93162380D02*
X132865904Y-92162380D01*
X133246857Y-92162380D01*
X133342095Y-92210000D01*
X133389714Y-92257619D01*
X133437333Y-92352857D01*
X133437333Y-92495714D01*
X133389714Y-92590952D01*
X133342095Y-92638571D01*
X133246857Y-92686190D01*
X132865904Y-92686190D01*
X134342095Y-92162380D02*
X133865904Y-92162380D01*
X133818285Y-92638571D01*
X133865904Y-92590952D01*
X133961142Y-92543333D01*
X134199238Y-92543333D01*
X134294476Y-92590952D01*
X134342095Y-92638571D01*
X134389714Y-92733809D01*
X134389714Y-92971904D01*
X134342095Y-93067142D01*
X134294476Y-93114761D01*
X134199238Y-93162380D01*
X133961142Y-93162380D01*
X133865904Y-93114761D01*
X133818285Y-93067142D01*
%TO.C,R4*%
X127341333Y-106158380D02*
X127008000Y-105682190D01*
X126769904Y-106158380D02*
X126769904Y-105158380D01*
X127150857Y-105158380D01*
X127246095Y-105206000D01*
X127293714Y-105253619D01*
X127341333Y-105348857D01*
X127341333Y-105491714D01*
X127293714Y-105586952D01*
X127246095Y-105634571D01*
X127150857Y-105682190D01*
X126769904Y-105682190D01*
X128198476Y-105491714D02*
X128198476Y-106158380D01*
X127960380Y-105110761D02*
X127722285Y-105825047D01*
X128341333Y-105825047D01*
%TO.C,D4*%
X118895904Y-103322380D02*
X118895904Y-102322380D01*
X119134000Y-102322380D01*
X119276857Y-102370000D01*
X119372095Y-102465238D01*
X119419714Y-102560476D01*
X119467333Y-102750952D01*
X119467333Y-102893809D01*
X119419714Y-103084285D01*
X119372095Y-103179523D01*
X119276857Y-103274761D01*
X119134000Y-103322380D01*
X118895904Y-103322380D01*
X120324476Y-102655714D02*
X120324476Y-103322380D01*
X120086380Y-102274761D02*
X119848285Y-102989047D01*
X120467333Y-102989047D01*
%TO.C,D3*%
X118895904Y-112466380D02*
X118895904Y-111466380D01*
X119134000Y-111466380D01*
X119276857Y-111514000D01*
X119372095Y-111609238D01*
X119419714Y-111704476D01*
X119467333Y-111894952D01*
X119467333Y-112037809D01*
X119419714Y-112228285D01*
X119372095Y-112323523D01*
X119276857Y-112418761D01*
X119134000Y-112466380D01*
X118895904Y-112466380D01*
X119800666Y-111466380D02*
X120419714Y-111466380D01*
X120086380Y-111847333D01*
X120229238Y-111847333D01*
X120324476Y-111894952D01*
X120372095Y-111942571D01*
X120419714Y-112037809D01*
X120419714Y-112275904D01*
X120372095Y-112371142D01*
X120324476Y-112418761D01*
X120229238Y-112466380D01*
X119943523Y-112466380D01*
X119848285Y-112418761D01*
X119800666Y-112371142D01*
%TO.C,C11*%
X126992142Y-92432142D02*
X126944523Y-92479761D01*
X126801666Y-92527380D01*
X126706428Y-92527380D01*
X126563571Y-92479761D01*
X126468333Y-92384523D01*
X126420714Y-92289285D01*
X126373095Y-92098809D01*
X126373095Y-91955952D01*
X126420714Y-91765476D01*
X126468333Y-91670238D01*
X126563571Y-91575000D01*
X126706428Y-91527380D01*
X126801666Y-91527380D01*
X126944523Y-91575000D01*
X126992142Y-91622619D01*
X127944523Y-92527380D02*
X127373095Y-92527380D01*
X127658809Y-92527380D02*
X127658809Y-91527380D01*
X127563571Y-91670238D01*
X127468333Y-91765476D01*
X127373095Y-91813095D01*
X128896904Y-92527380D02*
X128325476Y-92527380D01*
X128611190Y-92527380D02*
X128611190Y-91527380D01*
X128515952Y-91670238D01*
X128420714Y-91765476D01*
X128325476Y-91813095D01*
%TO.C,C9*%
X128627142Y-85002666D02*
X128674761Y-85050285D01*
X128722380Y-85193142D01*
X128722380Y-85288380D01*
X128674761Y-85431238D01*
X128579523Y-85526476D01*
X128484285Y-85574095D01*
X128293809Y-85621714D01*
X128150952Y-85621714D01*
X127960476Y-85574095D01*
X127865238Y-85526476D01*
X127770000Y-85431238D01*
X127722380Y-85288380D01*
X127722380Y-85193142D01*
X127770000Y-85050285D01*
X127817619Y-85002666D01*
X128722380Y-84526476D02*
X128722380Y-84336000D01*
X128674761Y-84240761D01*
X128627142Y-84193142D01*
X128484285Y-84097904D01*
X128293809Y-84050285D01*
X127912857Y-84050285D01*
X127817619Y-84097904D01*
X127770000Y-84145523D01*
X127722380Y-84240761D01*
X127722380Y-84431238D01*
X127770000Y-84526476D01*
X127817619Y-84574095D01*
X127912857Y-84621714D01*
X128150952Y-84621714D01*
X128246190Y-84574095D01*
X128293809Y-84526476D01*
X128341428Y-84431238D01*
X128341428Y-84240761D01*
X128293809Y-84145523D01*
X128246190Y-84097904D01*
X128150952Y-84050285D01*
%TO.C,C8*%
X145883333Y-97662142D02*
X145835714Y-97709761D01*
X145692857Y-97757380D01*
X145597619Y-97757380D01*
X145454761Y-97709761D01*
X145359523Y-97614523D01*
X145311904Y-97519285D01*
X145264285Y-97328809D01*
X145264285Y-97185952D01*
X145311904Y-96995476D01*
X145359523Y-96900238D01*
X145454761Y-96805000D01*
X145597619Y-96757380D01*
X145692857Y-96757380D01*
X145835714Y-96805000D01*
X145883333Y-96852619D01*
X146454761Y-97185952D02*
X146359523Y-97138333D01*
X146311904Y-97090714D01*
X146264285Y-96995476D01*
X146264285Y-96947857D01*
X146311904Y-96852619D01*
X146359523Y-96805000D01*
X146454761Y-96757380D01*
X146645238Y-96757380D01*
X146740476Y-96805000D01*
X146788095Y-96852619D01*
X146835714Y-96947857D01*
X146835714Y-96995476D01*
X146788095Y-97090714D01*
X146740476Y-97138333D01*
X146645238Y-97185952D01*
X146454761Y-97185952D01*
X146359523Y-97233571D01*
X146311904Y-97281190D01*
X146264285Y-97376428D01*
X146264285Y-97566904D01*
X146311904Y-97662142D01*
X146359523Y-97709761D01*
X146454761Y-97757380D01*
X146645238Y-97757380D01*
X146740476Y-97709761D01*
X146788095Y-97662142D01*
X146835714Y-97566904D01*
X146835714Y-97376428D01*
X146788095Y-97281190D01*
X146740476Y-97233571D01*
X146645238Y-97185952D01*
%TO.C,U2*%
X134493095Y-84542380D02*
X134493095Y-85351904D01*
X134540714Y-85447142D01*
X134588333Y-85494761D01*
X134683571Y-85542380D01*
X134874047Y-85542380D01*
X134969285Y-85494761D01*
X135016904Y-85447142D01*
X135064523Y-85351904D01*
X135064523Y-84542380D01*
X135493095Y-84637619D02*
X135540714Y-84590000D01*
X135635952Y-84542380D01*
X135874047Y-84542380D01*
X135969285Y-84590000D01*
X136016904Y-84637619D01*
X136064523Y-84732857D01*
X136064523Y-84828095D01*
X136016904Y-84970952D01*
X135445476Y-85542380D01*
X136064523Y-85542380D01*
%TO.C,U1*%
X123698095Y-100036380D02*
X123698095Y-100845904D01*
X123745714Y-100941142D01*
X123793333Y-100988761D01*
X123888571Y-101036380D01*
X124079047Y-101036380D01*
X124174285Y-100988761D01*
X124221904Y-100941142D01*
X124269523Y-100845904D01*
X124269523Y-100036380D01*
X125269523Y-101036380D02*
X124698095Y-101036380D01*
X124983809Y-101036380D02*
X124983809Y-100036380D01*
X124888571Y-100179238D01*
X124793333Y-100274476D01*
X124698095Y-100322095D01*
%TO.C,J3*%
X119554666Y-97496380D02*
X119554666Y-98210666D01*
X119507047Y-98353523D01*
X119411809Y-98448761D01*
X119268952Y-98496380D01*
X119173714Y-98496380D01*
X119935619Y-97496380D02*
X120554666Y-97496380D01*
X120221333Y-97877333D01*
X120364190Y-97877333D01*
X120459428Y-97924952D01*
X120507047Y-97972571D01*
X120554666Y-98067809D01*
X120554666Y-98305904D01*
X120507047Y-98401142D01*
X120459428Y-98448761D01*
X120364190Y-98496380D01*
X120078476Y-98496380D01*
X119983238Y-98448761D01*
X119935619Y-98401142D01*
%TO.C,D1*%
X118895904Y-107894380D02*
X118895904Y-106894380D01*
X119134000Y-106894380D01*
X119276857Y-106942000D01*
X119372095Y-107037238D01*
X119419714Y-107132476D01*
X119467333Y-107322952D01*
X119467333Y-107465809D01*
X119419714Y-107656285D01*
X119372095Y-107751523D01*
X119276857Y-107846761D01*
X119134000Y-107894380D01*
X118895904Y-107894380D01*
X120419714Y-107894380D02*
X119848285Y-107894380D01*
X120134000Y-107894380D02*
X120134000Y-106894380D01*
X120038761Y-107037238D01*
X119943523Y-107132476D01*
X119848285Y-107180095D01*
%TO.C,C7*%
X126325333Y-82907142D02*
X126277714Y-82954761D01*
X126134857Y-83002380D01*
X126039619Y-83002380D01*
X125896761Y-82954761D01*
X125801523Y-82859523D01*
X125753904Y-82764285D01*
X125706285Y-82573809D01*
X125706285Y-82430952D01*
X125753904Y-82240476D01*
X125801523Y-82145238D01*
X125896761Y-82050000D01*
X126039619Y-82002380D01*
X126134857Y-82002380D01*
X126277714Y-82050000D01*
X126325333Y-82097619D01*
X126658666Y-82002380D02*
X127325333Y-82002380D01*
X126896761Y-83002380D01*
%TO.C,C5*%
X152233333Y-84177142D02*
X152185714Y-84224761D01*
X152042857Y-84272380D01*
X151947619Y-84272380D01*
X151804761Y-84224761D01*
X151709523Y-84129523D01*
X151661904Y-84034285D01*
X151614285Y-83843809D01*
X151614285Y-83700952D01*
X151661904Y-83510476D01*
X151709523Y-83415238D01*
X151804761Y-83320000D01*
X151947619Y-83272380D01*
X152042857Y-83272380D01*
X152185714Y-83320000D01*
X152233333Y-83367619D01*
X153138095Y-83272380D02*
X152661904Y-83272380D01*
X152614285Y-83748571D01*
X152661904Y-83700952D01*
X152757142Y-83653333D01*
X152995238Y-83653333D01*
X153090476Y-83700952D01*
X153138095Y-83748571D01*
X153185714Y-83843809D01*
X153185714Y-84081904D01*
X153138095Y-84177142D01*
X153090476Y-84224761D01*
X152995238Y-84272380D01*
X152757142Y-84272380D01*
X152661904Y-84224761D01*
X152614285Y-84177142D01*
%TD*%
M02*
