%TF.GenerationSoftware,KiCad,Pcbnew,(5.1.10)-1*%
%TF.CreationDate,2021-09-12T11:48:58+02:00*%
%TF.ProjectId,BTS-LogicBoard,4254532d-4c6f-4676-9963-426f6172642e,rev?*%
%TF.SameCoordinates,Original*%
%TF.FileFunction,Copper,L1,Top*%
%TF.FilePolarity,Positive*%
%FSLAX46Y46*%
G04 Gerber Fmt 4.6, Leading zero omitted, Abs format (unit mm)*
G04 Created by KiCad (PCBNEW (5.1.10)-1) date 2021-09-12 11:48:58*
%MOMM*%
%LPD*%
G01*
G04 APERTURE LIST*
%TA.AperFunction,EtchedComponent*%
%ADD10C,0.100000*%
%TD*%
%TA.AperFunction,SMDPad,CuDef*%
%ADD11R,0.800000X0.900000*%
%TD*%
%TA.AperFunction,ConnectorPad*%
%ADD12C,5.600000*%
%TD*%
%TA.AperFunction,ComponentPad*%
%ADD13C,3.600000*%
%TD*%
%TA.AperFunction,SMDPad,CuDef*%
%ADD14R,1.060000X0.650000*%
%TD*%
%TA.AperFunction,SMDPad,CuDef*%
%ADD15R,0.650000X1.060000*%
%TD*%
%TA.AperFunction,SMDPad,CuDef*%
%ADD16C,2.000000*%
%TD*%
%TA.AperFunction,ComponentPad*%
%ADD17O,1.700000X1.700000*%
%TD*%
%TA.AperFunction,ComponentPad*%
%ADD18R,1.700000X1.700000*%
%TD*%
%TA.AperFunction,SMDPad,CuDef*%
%ADD19R,0.900000X0.800000*%
%TD*%
%TA.AperFunction,SMDPad,CuDef*%
%ADD20C,0.100000*%
%TD*%
%TA.AperFunction,SMDPad,CuDef*%
%ADD21R,1.750000X3.450000*%
%TD*%
%TA.AperFunction,SMDPad,CuDef*%
%ADD22R,1.000000X2.500000*%
%TD*%
%TA.AperFunction,ComponentPad*%
%ADD23C,1.800000*%
%TD*%
%TA.AperFunction,ComponentPad*%
%ADD24R,1.800000X1.800000*%
%TD*%
%TA.AperFunction,ViaPad*%
%ADD25C,0.800000*%
%TD*%
%TA.AperFunction,Conductor*%
%ADD26C,0.250000*%
%TD*%
%TA.AperFunction,Conductor*%
%ADD27C,0.254000*%
%TD*%
%TA.AperFunction,Conductor*%
%ADD28C,0.100000*%
%TD*%
G04 APERTURE END LIST*
D10*
%TO.C,J1*%
G36*
X123390000Y-71390000D02*
G01*
X125390000Y-71390000D01*
X125390000Y-75390000D01*
X123390000Y-75390000D01*
X123390000Y-71390000D01*
G37*
X123390000Y-71390000D02*
X125390000Y-71390000D01*
X125390000Y-75390000D01*
X123390000Y-75390000D01*
X123390000Y-71390000D01*
G36*
X138390000Y-71390000D02*
G01*
X140390000Y-71390000D01*
X140390000Y-75390000D01*
X138390000Y-75390000D01*
X138390000Y-71390000D01*
G37*
X138390000Y-71390000D02*
X140390000Y-71390000D01*
X140390000Y-75390000D01*
X138390000Y-75390000D01*
X138390000Y-71390000D01*
%TD*%
D11*
%TO.P,Q6,3*%
%TO.N,/PWM_Enable*%
X134620000Y-111998000D03*
%TO.P,Q6,2*%
%TO.N,GND*%
X133670000Y-109998000D03*
%TO.P,Q6,1*%
%TO.N,Net-(Q6-Pad1)*%
X135570000Y-109998000D03*
%TD*%
%TO.P,C8,2*%
%TO.N,GND*%
%TA.AperFunction,SMDPad,CuDef*%
G36*
G01*
X148050000Y-83550000D02*
X148050000Y-81550000D01*
G75*
G02*
X148300000Y-81300000I250000J0D01*
G01*
X151800000Y-81300000D01*
G75*
G02*
X152050000Y-81550000I0J-250000D01*
G01*
X152050000Y-83550000D01*
G75*
G02*
X151800000Y-83800000I-250000J0D01*
G01*
X148300000Y-83800000D01*
G75*
G02*
X148050000Y-83550000I0J250000D01*
G01*
G37*
%TD.AperFunction*%
%TO.P,C8,1*%
%TO.N,Net-(C8-Pad1)*%
%TA.AperFunction,SMDPad,CuDef*%
G36*
G01*
X140050000Y-83550000D02*
X140050000Y-81550000D01*
G75*
G02*
X140300000Y-81300000I250000J0D01*
G01*
X143800000Y-81300000D01*
G75*
G02*
X144050000Y-81550000I0J-250000D01*
G01*
X144050000Y-83550000D01*
G75*
G02*
X143800000Y-83800000I-250000J0D01*
G01*
X140300000Y-83800000D01*
G75*
G02*
X140050000Y-83550000I0J250000D01*
G01*
G37*
%TD.AperFunction*%
%TD*%
D12*
%TO.P,H4,1*%
%TO.N,GND*%
X146050000Y-114300000D03*
D13*
X146050000Y-114300000D03*
%TD*%
D12*
%TO.P,H3,1*%
%TO.N,GND*%
X119380000Y-114300000D03*
D13*
X119380000Y-114300000D03*
%TD*%
D12*
%TO.P,H2,1*%
%TO.N,GND*%
X146050000Y-73660000D03*
D13*
X146050000Y-73660000D03*
%TD*%
D12*
%TO.P,H1,1*%
%TO.N,GND*%
X119380000Y-73660000D03*
D13*
X119380000Y-73660000D03*
%TD*%
D14*
%TO.P,U3,5*%
%TO.N,Net-(C8-Pad1)*%
X132418000Y-93284000D03*
%TO.P,U3,4*%
%TO.N,+5V*%
X132418000Y-95184000D03*
%TO.P,U3,3*%
%TO.N,/2.5V*%
X130218000Y-95184000D03*
%TO.P,U3,2*%
%TO.N,GND*%
X130218000Y-94234000D03*
%TO.P,U3,1*%
%TO.N,/Inv_Fan_trigger*%
X130218000Y-93284000D03*
%TD*%
%TO.P,U2,8*%
%TO.N,+12V*%
%TA.AperFunction,SMDPad,CuDef*%
G36*
G01*
X134850000Y-87145000D02*
X134850000Y-86845000D01*
G75*
G02*
X135000000Y-86695000I150000J0D01*
G01*
X136650000Y-86695000D01*
G75*
G02*
X136800000Y-86845000I0J-150000D01*
G01*
X136800000Y-87145000D01*
G75*
G02*
X136650000Y-87295000I-150000J0D01*
G01*
X135000000Y-87295000D01*
G75*
G02*
X134850000Y-87145000I0J150000D01*
G01*
G37*
%TD.AperFunction*%
%TO.P,U2,7*%
%TO.N,/NE-Out*%
%TA.AperFunction,SMDPad,CuDef*%
G36*
G01*
X134850000Y-88415000D02*
X134850000Y-88115000D01*
G75*
G02*
X135000000Y-87965000I150000J0D01*
G01*
X136650000Y-87965000D01*
G75*
G02*
X136800000Y-88115000I0J-150000D01*
G01*
X136800000Y-88415000D01*
G75*
G02*
X136650000Y-88565000I-150000J0D01*
G01*
X135000000Y-88565000D01*
G75*
G02*
X134850000Y-88415000I0J150000D01*
G01*
G37*
%TD.AperFunction*%
%TO.P,U2,6*%
%TO.N,/Threshold*%
%TA.AperFunction,SMDPad,CuDef*%
G36*
G01*
X134850000Y-89685000D02*
X134850000Y-89385000D01*
G75*
G02*
X135000000Y-89235000I150000J0D01*
G01*
X136650000Y-89235000D01*
G75*
G02*
X136800000Y-89385000I0J-150000D01*
G01*
X136800000Y-89685000D01*
G75*
G02*
X136650000Y-89835000I-150000J0D01*
G01*
X135000000Y-89835000D01*
G75*
G02*
X134850000Y-89685000I0J150000D01*
G01*
G37*
%TD.AperFunction*%
%TO.P,U2,5*%
%TO.N,Net-(C6-Pad1)*%
%TA.AperFunction,SMDPad,CuDef*%
G36*
G01*
X134850000Y-90955000D02*
X134850000Y-90655000D01*
G75*
G02*
X135000000Y-90505000I150000J0D01*
G01*
X136650000Y-90505000D01*
G75*
G02*
X136800000Y-90655000I0J-150000D01*
G01*
X136800000Y-90955000D01*
G75*
G02*
X136650000Y-91105000I-150000J0D01*
G01*
X135000000Y-91105000D01*
G75*
G02*
X134850000Y-90955000I0J150000D01*
G01*
G37*
%TD.AperFunction*%
%TO.P,U2,4*%
%TO.N,Net-(Q2-Pad2)*%
%TA.AperFunction,SMDPad,CuDef*%
G36*
G01*
X129900000Y-90955000D02*
X129900000Y-90655000D01*
G75*
G02*
X130050000Y-90505000I150000J0D01*
G01*
X131700000Y-90505000D01*
G75*
G02*
X131850000Y-90655000I0J-150000D01*
G01*
X131850000Y-90955000D01*
G75*
G02*
X131700000Y-91105000I-150000J0D01*
G01*
X130050000Y-91105000D01*
G75*
G02*
X129900000Y-90955000I0J150000D01*
G01*
G37*
%TD.AperFunction*%
%TO.P,U2,3*%
%TO.N,Net-(D3-Pad1)*%
%TA.AperFunction,SMDPad,CuDef*%
G36*
G01*
X129900000Y-89685000D02*
X129900000Y-89385000D01*
G75*
G02*
X130050000Y-89235000I150000J0D01*
G01*
X131700000Y-89235000D01*
G75*
G02*
X131850000Y-89385000I0J-150000D01*
G01*
X131850000Y-89685000D01*
G75*
G02*
X131700000Y-89835000I-150000J0D01*
G01*
X130050000Y-89835000D01*
G75*
G02*
X129900000Y-89685000I0J150000D01*
G01*
G37*
%TD.AperFunction*%
%TO.P,U2,2*%
%TO.N,/Threshold*%
%TA.AperFunction,SMDPad,CuDef*%
G36*
G01*
X129900000Y-88415000D02*
X129900000Y-88115000D01*
G75*
G02*
X130050000Y-87965000I150000J0D01*
G01*
X131700000Y-87965000D01*
G75*
G02*
X131850000Y-88115000I0J-150000D01*
G01*
X131850000Y-88415000D01*
G75*
G02*
X131700000Y-88565000I-150000J0D01*
G01*
X130050000Y-88565000D01*
G75*
G02*
X129900000Y-88415000I0J150000D01*
G01*
G37*
%TD.AperFunction*%
%TO.P,U2,1*%
%TO.N,GND*%
%TA.AperFunction,SMDPad,CuDef*%
G36*
G01*
X129900000Y-87145000D02*
X129900000Y-86845000D01*
G75*
G02*
X130050000Y-86695000I150000J0D01*
G01*
X131700000Y-86695000D01*
G75*
G02*
X131850000Y-86845000I0J-150000D01*
G01*
X131850000Y-87145000D01*
G75*
G02*
X131700000Y-87295000I-150000J0D01*
G01*
X130050000Y-87295000D01*
G75*
G02*
X129900000Y-87145000I0J150000D01*
G01*
G37*
%TD.AperFunction*%
%TD*%
D15*
%TO.P,U1,5*%
%TO.N,/2.5V*%
X130368000Y-96944000D03*
%TO.P,U1,4*%
%TO.N,+5V*%
X132268000Y-96944000D03*
%TO.P,U1,3*%
%TO.N,/NE-Out*%
X132268000Y-99144000D03*
%TO.P,U1,2*%
%TO.N,GND*%
X131318000Y-99144000D03*
%TO.P,U1,1*%
%TO.N,/COMP-Out*%
X130368000Y-99144000D03*
%TD*%
D16*
%TO.P,TP1,1*%
%TO.N,/VSense*%
X127000000Y-82550000D03*
%TD*%
D17*
%TO.P,SW2,6*%
%TO.N,GND*%
X121920000Y-97790000D03*
%TO.P,SW2,5*%
X121920000Y-95250000D03*
%TO.P,SW2,4*%
%TO.N,/PSU_ON*%
X119380000Y-97790000D03*
%TO.P,SW2,3*%
%TO.N,+5V*%
X119380000Y-95250000D03*
%TO.P,SW2,2*%
%TO.N,/HIP_DISABLE*%
X116840000Y-97790000D03*
D18*
%TO.P,SW2,1*%
%TO.N,GND*%
X116840000Y-95250000D03*
%TD*%
D17*
%TO.P,SW1,6*%
%TO.N,/COMP-Out*%
X121920000Y-90170000D03*
%TO.P,SW1,5*%
%TO.N,/IN-*%
X121920000Y-87630000D03*
%TO.P,SW1,4*%
%TO.N,GND*%
X119380000Y-90170000D03*
%TO.P,SW1,3*%
X119380000Y-87630000D03*
%TO.P,SW1,2*%
%TO.N,/IN+*%
X116840000Y-90170000D03*
D18*
%TO.P,SW1,1*%
%TO.N,/COMP-Out*%
X116840000Y-87630000D03*
%TD*%
D17*
%TO.P,RV1,3*%
%TO.N,Net-(D3-Pad2)*%
X121920000Y-102870000D03*
%TO.P,RV1,2*%
%TO.N,/Threshold*%
X119380000Y-102870000D03*
D18*
%TO.P,RV1,1*%
%TO.N,Net-(D4-Pad1)*%
X116840000Y-102870000D03*
%TD*%
%TO.P,R17,2*%
%TO.N,/FAN_TRIGGER*%
%TA.AperFunction,SMDPad,CuDef*%
G36*
G01*
X133467000Y-80634000D02*
X132217000Y-80634000D01*
G75*
G02*
X131967000Y-80384000I0J250000D01*
G01*
X131967000Y-79584000D01*
G75*
G02*
X132217000Y-79334000I250000J0D01*
G01*
X133467000Y-79334000D01*
G75*
G02*
X133717000Y-79584000I0J-250000D01*
G01*
X133717000Y-80384000D01*
G75*
G02*
X133467000Y-80634000I-250000J0D01*
G01*
G37*
%TD.AperFunction*%
%TO.P,R17,1*%
%TO.N,+12V*%
%TA.AperFunction,SMDPad,CuDef*%
G36*
G01*
X133467000Y-83734000D02*
X132217000Y-83734000D01*
G75*
G02*
X131967000Y-83484000I0J250000D01*
G01*
X131967000Y-82684000D01*
G75*
G02*
X132217000Y-82434000I250000J0D01*
G01*
X133467000Y-82434000D01*
G75*
G02*
X133717000Y-82684000I0J-250000D01*
G01*
X133717000Y-83484000D01*
G75*
G02*
X133467000Y-83734000I-250000J0D01*
G01*
G37*
%TD.AperFunction*%
%TD*%
%TO.P,R12,2*%
%TO.N,/NE-Out*%
%TA.AperFunction,SMDPad,CuDef*%
G36*
G01*
X134736000Y-98435000D02*
X134736000Y-99685000D01*
G75*
G02*
X134486000Y-99935000I-250000J0D01*
G01*
X133686000Y-99935000D01*
G75*
G02*
X133436000Y-99685000I0J250000D01*
G01*
X133436000Y-98435000D01*
G75*
G02*
X133686000Y-98185000I250000J0D01*
G01*
X134486000Y-98185000D01*
G75*
G02*
X134736000Y-98435000I0J-250000D01*
G01*
G37*
%TD.AperFunction*%
%TO.P,R12,1*%
%TO.N,+12V*%
%TA.AperFunction,SMDPad,CuDef*%
G36*
G01*
X137836000Y-98435000D02*
X137836000Y-99685000D01*
G75*
G02*
X137586000Y-99935000I-250000J0D01*
G01*
X136786000Y-99935000D01*
G75*
G02*
X136536000Y-99685000I0J250000D01*
G01*
X136536000Y-98435000D01*
G75*
G02*
X136786000Y-98185000I250000J0D01*
G01*
X137586000Y-98185000D01*
G75*
G02*
X137836000Y-98435000I0J-250000D01*
G01*
G37*
%TD.AperFunction*%
%TD*%
%TO.P,R4,2*%
%TO.N,Net-(D1-Pad2)*%
%TA.AperFunction,SMDPad,CuDef*%
G36*
G01*
X126050200Y-85764800D02*
X124800200Y-85764800D01*
G75*
G02*
X124550200Y-85514800I0J250000D01*
G01*
X124550200Y-84714800D01*
G75*
G02*
X124800200Y-84464800I250000J0D01*
G01*
X126050200Y-84464800D01*
G75*
G02*
X126300200Y-84714800I0J-250000D01*
G01*
X126300200Y-85514800D01*
G75*
G02*
X126050200Y-85764800I-250000J0D01*
G01*
G37*
%TD.AperFunction*%
%TO.P,R4,1*%
%TO.N,+5V*%
%TA.AperFunction,SMDPad,CuDef*%
G36*
G01*
X126050200Y-88864800D02*
X124800200Y-88864800D01*
G75*
G02*
X124550200Y-88614800I0J250000D01*
G01*
X124550200Y-87814800D01*
G75*
G02*
X124800200Y-87564800I250000J0D01*
G01*
X126050200Y-87564800D01*
G75*
G02*
X126300200Y-87814800I0J-250000D01*
G01*
X126300200Y-88614800D01*
G75*
G02*
X126050200Y-88864800I-250000J0D01*
G01*
G37*
%TD.AperFunction*%
%TD*%
%TO.P,R2,2*%
%TO.N,/Pump-On*%
%TA.AperFunction,SMDPad,CuDef*%
G36*
G01*
X124550000Y-107325000D02*
X124550000Y-108575000D01*
G75*
G02*
X124300000Y-108825000I-250000J0D01*
G01*
X123500000Y-108825000D01*
G75*
G02*
X123250000Y-108575000I0J250000D01*
G01*
X123250000Y-107325000D01*
G75*
G02*
X123500000Y-107075000I250000J0D01*
G01*
X124300000Y-107075000D01*
G75*
G02*
X124550000Y-107325000I0J-250000D01*
G01*
G37*
%TD.AperFunction*%
%TO.P,R2,1*%
%TO.N,/PWM_Enable*%
%TA.AperFunction,SMDPad,CuDef*%
G36*
G01*
X127650000Y-107325000D02*
X127650000Y-108575000D01*
G75*
G02*
X127400000Y-108825000I-250000J0D01*
G01*
X126600000Y-108825000D01*
G75*
G02*
X126350000Y-108575000I0J250000D01*
G01*
X126350000Y-107325000D01*
G75*
G02*
X126600000Y-107075000I250000J0D01*
G01*
X127400000Y-107075000D01*
G75*
G02*
X127650000Y-107325000I0J-250000D01*
G01*
G37*
%TD.AperFunction*%
%TD*%
%TO.P,R1,2*%
%TO.N,/PWM_Enable*%
%TA.AperFunction,SMDPad,CuDef*%
G36*
G01*
X129656000Y-107325000D02*
X129656000Y-108575000D01*
G75*
G02*
X129406000Y-108825000I-250000J0D01*
G01*
X128606000Y-108825000D01*
G75*
G02*
X128356000Y-108575000I0J250000D01*
G01*
X128356000Y-107325000D01*
G75*
G02*
X128606000Y-107075000I250000J0D01*
G01*
X129406000Y-107075000D01*
G75*
G02*
X129656000Y-107325000I0J-250000D01*
G01*
G37*
%TD.AperFunction*%
%TO.P,R1,1*%
%TO.N,Net-(Q1-Pad1)*%
%TA.AperFunction,SMDPad,CuDef*%
G36*
G01*
X132756000Y-107325000D02*
X132756000Y-108575000D01*
G75*
G02*
X132506000Y-108825000I-250000J0D01*
G01*
X131706000Y-108825000D01*
G75*
G02*
X131456000Y-108575000I0J250000D01*
G01*
X131456000Y-107325000D01*
G75*
G02*
X131706000Y-107075000I250000J0D01*
G01*
X132506000Y-107075000D01*
G75*
G02*
X132756000Y-107325000I0J-250000D01*
G01*
G37*
%TD.AperFunction*%
%TD*%
D19*
%TO.P,Q4,3*%
%TO.N,Net-(C8-Pad1)*%
X134128000Y-94234000D03*
%TO.P,Q4,2*%
%TO.N,+5V*%
X136128000Y-93284000D03*
%TO.P,Q4,1*%
%TO.N,Net-(Q4-Pad1)*%
X136128000Y-95184000D03*
%TD*%
D11*
%TO.P,Q2,3*%
%TO.N,GND*%
X130048000Y-112252000D03*
%TO.P,Q2,2*%
%TO.N,Net-(Q2-Pad2)*%
X129098000Y-110252000D03*
%TO.P,Q2,1*%
%TO.N,/PWM_Enable*%
X130998000Y-110252000D03*
%TD*%
%TA.AperFunction,SMDPad,CuDef*%
D20*
%TO.P,JP1,2*%
%TO.N,/HIP_HEN*%
G36*
X136410602Y-80630000D02*
G01*
X136410602Y-80605466D01*
X136415412Y-80556635D01*
X136424984Y-80508510D01*
X136439228Y-80461555D01*
X136458005Y-80416222D01*
X136481136Y-80372949D01*
X136508396Y-80332150D01*
X136539524Y-80294221D01*
X136574221Y-80259524D01*
X136612150Y-80228396D01*
X136652949Y-80201136D01*
X136696222Y-80178005D01*
X136741555Y-80159228D01*
X136788510Y-80144984D01*
X136836635Y-80135412D01*
X136885466Y-80130602D01*
X136910000Y-80130602D01*
X136910000Y-80130000D01*
X137410000Y-80130000D01*
X137410000Y-80130602D01*
X137434534Y-80130602D01*
X137483365Y-80135412D01*
X137531490Y-80144984D01*
X137578445Y-80159228D01*
X137623778Y-80178005D01*
X137667051Y-80201136D01*
X137707850Y-80228396D01*
X137745779Y-80259524D01*
X137780476Y-80294221D01*
X137811604Y-80332150D01*
X137838864Y-80372949D01*
X137861995Y-80416222D01*
X137880772Y-80461555D01*
X137895016Y-80508510D01*
X137904588Y-80556635D01*
X137909398Y-80605466D01*
X137909398Y-80630000D01*
X137910000Y-80630000D01*
X137910000Y-81130000D01*
X136410000Y-81130000D01*
X136410000Y-80630000D01*
X136410602Y-80630000D01*
G37*
%TD.AperFunction*%
%TA.AperFunction,SMDPad,CuDef*%
%TO.P,JP1,1*%
%TO.N,GND*%
G36*
X137910000Y-81430000D02*
G01*
X137910000Y-81930000D01*
X137909398Y-81930000D01*
X137909398Y-81954534D01*
X137904588Y-82003365D01*
X137895016Y-82051490D01*
X137880772Y-82098445D01*
X137861995Y-82143778D01*
X137838864Y-82187051D01*
X137811604Y-82227850D01*
X137780476Y-82265779D01*
X137745779Y-82300476D01*
X137707850Y-82331604D01*
X137667051Y-82358864D01*
X137623778Y-82381995D01*
X137578445Y-82400772D01*
X137531490Y-82415016D01*
X137483365Y-82424588D01*
X137434534Y-82429398D01*
X137410000Y-82429398D01*
X137410000Y-82430000D01*
X136910000Y-82430000D01*
X136910000Y-82429398D01*
X136885466Y-82429398D01*
X136836635Y-82424588D01*
X136788510Y-82415016D01*
X136741555Y-82400772D01*
X136696222Y-82381995D01*
X136652949Y-82358864D01*
X136612150Y-82331604D01*
X136574221Y-82300476D01*
X136539524Y-82265779D01*
X136508396Y-82227850D01*
X136481136Y-82187051D01*
X136458005Y-82143778D01*
X136439228Y-82098445D01*
X136424984Y-82051490D01*
X136415412Y-82003365D01*
X136410602Y-81954534D01*
X136410602Y-81930000D01*
X136410000Y-81930000D01*
X136410000Y-81430000D01*
X137910000Y-81430000D01*
G37*
%TD.AperFunction*%
%TD*%
D17*
%TO.P,J3,2*%
%TO.N,GND*%
X117856000Y-107950000D03*
D18*
%TO.P,J3,1*%
%TO.N,/Pump-On*%
X120396000Y-107950000D03*
%TD*%
D17*
%TO.P,J2,4*%
%TO.N,GND*%
X126365000Y-114935000D03*
%TO.P,J2,3*%
%TO.N,/PSU_ON*%
X128905000Y-114935000D03*
%TO.P,J2,2*%
%TO.N,+5V*%
X131445000Y-114935000D03*
D18*
%TO.P,J2,1*%
%TO.N,+12V*%
X133985000Y-114935000D03*
%TD*%
D21*
%TO.P,J1,7*%
%TO.N,N/C*%
X124390000Y-73390000D03*
X139390000Y-73390000D03*
D22*
%TO.P,J1,1*%
%TO.N,/HIP_HEN*%
X136890000Y-77390000D03*
%TO.P,J1,2*%
%TO.N,/HIP_DISABLE*%
X134890000Y-77390000D03*
%TO.P,J1,3*%
%TO.N,/FAN_TRIGGER*%
X132890000Y-77390000D03*
%TO.P,J1,4*%
%TO.N,/IN+*%
X130890000Y-77390000D03*
%TO.P,J1,5*%
%TO.N,/IN-*%
X128890000Y-77390000D03*
%TO.P,J1,6*%
%TO.N,/VSense*%
X126890000Y-77390000D03*
%TD*%
%TO.P,D4,2*%
%TO.N,Net-(D3-Pad1)*%
%TA.AperFunction,SMDPad,CuDef*%
G36*
G01*
X127013000Y-104765000D02*
X127013000Y-103515000D01*
G75*
G02*
X127263000Y-103265000I250000J0D01*
G01*
X128188000Y-103265000D01*
G75*
G02*
X128438000Y-103515000I0J-250000D01*
G01*
X128438000Y-104765000D01*
G75*
G02*
X128188000Y-105015000I-250000J0D01*
G01*
X127263000Y-105015000D01*
G75*
G02*
X127013000Y-104765000I0J250000D01*
G01*
G37*
%TD.AperFunction*%
%TO.P,D4,1*%
%TO.N,Net-(D4-Pad1)*%
%TA.AperFunction,SMDPad,CuDef*%
G36*
G01*
X124038000Y-104765000D02*
X124038000Y-103515000D01*
G75*
G02*
X124288000Y-103265000I250000J0D01*
G01*
X125213000Y-103265000D01*
G75*
G02*
X125463000Y-103515000I0J-250000D01*
G01*
X125463000Y-104765000D01*
G75*
G02*
X125213000Y-105015000I-250000J0D01*
G01*
X124288000Y-105015000D01*
G75*
G02*
X124038000Y-104765000I0J250000D01*
G01*
G37*
%TD.AperFunction*%
%TD*%
D23*
%TO.P,D2,2*%
%TO.N,Net-(D2-Pad2)*%
X116840000Y-81280000D03*
D24*
%TO.P,D2,1*%
%TO.N,GND*%
X116840000Y-83820000D03*
%TD*%
D23*
%TO.P,D1,2*%
%TO.N,Net-(D1-Pad2)*%
X121920000Y-81280000D03*
D24*
%TO.P,D1,1*%
%TO.N,/PWM_Enabled_INV*%
X121920000Y-83820000D03*
%TD*%
%TO.P,C5,2*%
%TO.N,GND*%
%TA.AperFunction,SMDPad,CuDef*%
G36*
G01*
X148050000Y-94980000D02*
X148050000Y-92980000D01*
G75*
G02*
X148300000Y-92730000I250000J0D01*
G01*
X151800000Y-92730000D01*
G75*
G02*
X152050000Y-92980000I0J-250000D01*
G01*
X152050000Y-94980000D01*
G75*
G02*
X151800000Y-95230000I-250000J0D01*
G01*
X148300000Y-95230000D01*
G75*
G02*
X148050000Y-94980000I0J250000D01*
G01*
G37*
%TD.AperFunction*%
%TO.P,C5,1*%
%TO.N,+5V*%
%TA.AperFunction,SMDPad,CuDef*%
G36*
G01*
X140050000Y-94980000D02*
X140050000Y-92980000D01*
G75*
G02*
X140300000Y-92730000I250000J0D01*
G01*
X143800000Y-92730000D01*
G75*
G02*
X144050000Y-92980000I0J-250000D01*
G01*
X144050000Y-94980000D01*
G75*
G02*
X143800000Y-95230000I-250000J0D01*
G01*
X140300000Y-95230000D01*
G75*
G02*
X140050000Y-94980000I0J250000D01*
G01*
G37*
%TD.AperFunction*%
%TD*%
%TO.P,C3,2*%
%TO.N,/PWM_Enable*%
%TA.AperFunction,SMDPad,CuDef*%
G36*
G01*
X126376000Y-110886001D02*
X126376000Y-109585999D01*
G75*
G02*
X126625999Y-109336000I249999J0D01*
G01*
X127451001Y-109336000D01*
G75*
G02*
X127701000Y-109585999I0J-249999D01*
G01*
X127701000Y-110886001D01*
G75*
G02*
X127451001Y-111136000I-249999J0D01*
G01*
X126625999Y-111136000D01*
G75*
G02*
X126376000Y-110886001I0J249999D01*
G01*
G37*
%TD.AperFunction*%
%TO.P,C3,1*%
%TO.N,GND*%
%TA.AperFunction,SMDPad,CuDef*%
G36*
G01*
X123251000Y-110886001D02*
X123251000Y-109585999D01*
G75*
G02*
X123500999Y-109336000I249999J0D01*
G01*
X124326001Y-109336000D01*
G75*
G02*
X124576000Y-109585999I0J-249999D01*
G01*
X124576000Y-110886001D01*
G75*
G02*
X124326001Y-111136000I-249999J0D01*
G01*
X123500999Y-111136000D01*
G75*
G02*
X123251000Y-110886001I0J249999D01*
G01*
G37*
%TD.AperFunction*%
%TD*%
%TO.P,C2,2*%
%TO.N,GND*%
%TA.AperFunction,SMDPad,CuDef*%
G36*
G01*
X148050000Y-106410000D02*
X148050000Y-104410000D01*
G75*
G02*
X148300000Y-104160000I250000J0D01*
G01*
X151800000Y-104160000D01*
G75*
G02*
X152050000Y-104410000I0J-250000D01*
G01*
X152050000Y-106410000D01*
G75*
G02*
X151800000Y-106660000I-250000J0D01*
G01*
X148300000Y-106660000D01*
G75*
G02*
X148050000Y-106410000I0J250000D01*
G01*
G37*
%TD.AperFunction*%
%TO.P,C2,1*%
%TO.N,+12V*%
%TA.AperFunction,SMDPad,CuDef*%
G36*
G01*
X140050000Y-106410000D02*
X140050000Y-104410000D01*
G75*
G02*
X140300000Y-104160000I250000J0D01*
G01*
X143800000Y-104160000D01*
G75*
G02*
X144050000Y-104410000I0J-250000D01*
G01*
X144050000Y-106410000D01*
G75*
G02*
X143800000Y-106660000I-250000J0D01*
G01*
X140300000Y-106660000D01*
G75*
G02*
X140050000Y-106410000I0J250000D01*
G01*
G37*
%TD.AperFunction*%
%TD*%
%TO.P,C1,2*%
%TO.N,GND*%
%TA.AperFunction,SMDPad,CuDef*%
G36*
G01*
X138927601Y-84596400D02*
X137627599Y-84596400D01*
G75*
G02*
X137377600Y-84346401I0J249999D01*
G01*
X137377600Y-83521399D01*
G75*
G02*
X137627599Y-83271400I249999J0D01*
G01*
X138927601Y-83271400D01*
G75*
G02*
X139177600Y-83521399I0J-249999D01*
G01*
X139177600Y-84346401D01*
G75*
G02*
X138927601Y-84596400I-249999J0D01*
G01*
G37*
%TD.AperFunction*%
%TO.P,C1,1*%
%TO.N,+12V*%
%TA.AperFunction,SMDPad,CuDef*%
G36*
G01*
X138927601Y-87721400D02*
X137627599Y-87721400D01*
G75*
G02*
X137377600Y-87471401I0J249999D01*
G01*
X137377600Y-86646399D01*
G75*
G02*
X137627599Y-86396400I249999J0D01*
G01*
X138927601Y-86396400D01*
G75*
G02*
X139177600Y-86646399I0J-249999D01*
G01*
X139177600Y-87471401D01*
G75*
G02*
X138927601Y-87721400I-249999J0D01*
G01*
G37*
%TD.AperFunction*%
%TD*%
D25*
%TO.N,GND*%
X132842000Y-87884000D03*
X130048000Y-112268000D03*
X133844190Y-91948000D03*
X126644400Y-89611200D03*
%TO.N,+12V*%
X136906000Y-98806000D03*
X138176000Y-86868000D03*
%TO.N,+5V*%
X142494000Y-102108000D03*
X125476000Y-88138000D03*
X132418000Y-95708977D03*
X128523998Y-86868002D03*
X129715326Y-85707002D03*
%TO.N,Net-(C6-Pad1)*%
X135890000Y-91694000D03*
%TO.N,/Threshold*%
X135890000Y-89408000D03*
%TO.N,Net-(D1-Pad2)*%
X123952000Y-81534000D03*
%TO.N,Net-(D3-Pad2)*%
X132334000Y-109728000D03*
%TO.N,Net-(D3-Pad1)*%
X127762000Y-104140000D03*
X127508000Y-94610347D03*
%TO.N,/HIP_DISABLE*%
X135255000Y-77470000D03*
X122972990Y-100584000D03*
X122936000Y-85852000D03*
X131826000Y-104698800D03*
X133604000Y-75082400D03*
%TO.N,/FAN_TRIGGER*%
X132842000Y-80010000D03*
%TO.N,Net-(Q1-Pad1)*%
X132106000Y-107950000D03*
%TO.N,Net-(Q4-Pad1)*%
X132842000Y-94258976D03*
%TO.N,/2.5V*%
X131281000Y-100330000D03*
X127798990Y-98298000D03*
X127798990Y-96774000D03*
%TO.N,/NE-Out*%
X135636000Y-98298000D03*
X134729789Y-88046192D03*
%TO.N,/Inv_Fan_trigger*%
X130048000Y-93218000D03*
%TO.N,/COMP-Out*%
X124714000Y-92710000D03*
X118110000Y-91186000D03*
X126058966Y-94224689D03*
%TO.N,Net-(C8-Pad1)*%
X135382000Y-94234000D03*
X142240000Y-86360000D03*
X137705000Y-95885000D03*
X135890000Y-96184024D03*
%TO.N,/PWM_Enable*%
X131906938Y-111298448D03*
X134620000Y-111998000D03*
%TO.N,Net-(Q2-Pad2)*%
X127508000Y-90932000D03*
X128524000Y-110490000D03*
%TO.N,Net-(Q6-Pad1)*%
X135636000Y-110262000D03*
%TD*%
D26*
%TO.N,GND*%
X132026388Y-112252000D02*
X130048000Y-112252000D01*
X133313001Y-110965387D02*
X132026388Y-112252000D01*
X133313001Y-110354999D02*
X133313001Y-110965387D01*
X133670000Y-109998000D02*
X133313001Y-110354999D01*
X130708002Y-94234000D02*
X130218000Y-94234000D01*
X131318000Y-94843998D02*
X130708002Y-94234000D01*
X131318000Y-99144000D02*
X131318000Y-94843998D01*
X131953000Y-86995000D02*
X130875000Y-86995000D01*
X132842000Y-87884000D02*
X131953000Y-86995000D01*
X131562999Y-93669001D02*
X131562999Y-92698999D01*
X130998000Y-94234000D02*
X131562999Y-93669001D01*
X132313998Y-91948000D02*
X133844190Y-91948000D01*
X130218000Y-94234000D02*
X130998000Y-94234000D01*
X131562999Y-92698999D02*
X132313998Y-91948000D01*
X128662597Y-87593003D02*
X126644400Y-89611200D01*
X130276997Y-87593003D02*
X128662597Y-87593003D01*
X130875000Y-86995000D02*
X130276997Y-87593003D01*
%TO.N,+12V*%
X132842000Y-84012000D02*
X135825000Y-86995000D01*
X132842000Y-83084000D02*
X132842000Y-84012000D01*
X137160000Y-99060000D02*
X136906000Y-98806000D01*
X137186000Y-99060000D02*
X137160000Y-99060000D01*
X141415000Y-114935000D02*
X133985000Y-114935000D01*
X142050000Y-114300000D02*
X141415000Y-114935000D01*
X142050000Y-103696410D02*
X142050000Y-114300000D01*
X143135009Y-102611401D02*
X142050000Y-103696410D01*
X143219001Y-102456001D02*
X143135010Y-102539992D01*
X143219001Y-101759999D02*
X143219001Y-102456001D01*
X142842001Y-101382999D02*
X143219001Y-101759999D01*
X143135010Y-102539992D02*
X143135009Y-102611401D01*
X142469409Y-101382999D02*
X142842001Y-101382999D01*
X135825000Y-86995000D02*
X135952000Y-86868000D01*
X135952000Y-86868000D02*
X138137500Y-86868000D01*
X139661500Y-88392000D02*
X144470190Y-88392000D01*
X142050000Y-92404990D02*
X144038180Y-92404990D01*
X138137500Y-86868000D02*
X139661500Y-88392000D01*
X142050000Y-95555010D02*
X142050000Y-100963590D01*
X144470190Y-88392000D02*
X142050000Y-90812190D01*
X142050000Y-90812190D02*
X142050000Y-92404990D01*
X144038180Y-92404990D02*
X144375010Y-92741820D01*
X144375010Y-92741820D02*
X144375010Y-95218180D01*
X144375010Y-95218180D02*
X144038180Y-95555010D01*
X142050000Y-100963590D02*
X142469409Y-101382999D01*
X144038180Y-95555010D02*
X142050000Y-95555010D01*
%TO.N,+5V*%
X132418000Y-96794000D02*
X132268000Y-96944000D01*
X132418000Y-95184000D02*
X132418000Y-96794000D01*
X125222000Y-88164000D02*
X125450000Y-88164000D01*
X125450000Y-88164000D02*
X125476000Y-88138000D01*
X132418000Y-95184000D02*
X132418000Y-95708977D01*
X128554326Y-86868002D02*
X128523998Y-86868002D01*
X129715326Y-85707002D02*
X128554326Y-86868002D01*
X127284328Y-88138000D02*
X129715326Y-85707002D01*
X125476000Y-88138000D02*
X127284328Y-88138000D01*
X136824000Y-93980000D02*
X136128000Y-93284000D01*
X142050000Y-93980000D02*
X136824000Y-93980000D01*
X136718000Y-93284000D02*
X136128000Y-93284000D01*
X138430000Y-94996000D02*
X136718000Y-93284000D01*
X138430000Y-96309000D02*
X138430000Y-94996000D01*
X137795000Y-96944000D02*
X138430000Y-96309000D01*
X132268000Y-96944000D02*
X137795000Y-96944000D01*
X131445000Y-113665000D02*
X131445000Y-114935000D01*
X133894999Y-111215001D02*
X131445000Y-113665000D01*
X133894999Y-110779999D02*
X133894999Y-111215001D01*
X133901997Y-110773001D02*
X133894999Y-110779999D01*
X134388003Y-110714999D02*
X134330001Y-110773001D01*
X134460001Y-110714999D02*
X134388003Y-110714999D01*
X134844999Y-110330001D02*
X134460001Y-110714999D01*
X137795000Y-96944000D02*
X137795000Y-97345000D01*
X137795000Y-97345000D02*
X142685000Y-102235000D01*
X142685000Y-102235000D02*
X142685000Y-102425000D01*
X141275010Y-103834990D02*
X140061820Y-103834990D01*
X140061820Y-103834990D02*
X139724990Y-104171820D01*
X134330001Y-110773001D02*
X133901997Y-110773001D01*
X142685000Y-102425000D02*
X141275010Y-103834990D01*
X139724990Y-104171820D02*
X139724990Y-105385010D01*
X136295001Y-109287999D02*
X136230001Y-109222999D01*
X139724990Y-105385010D02*
X136295001Y-108814999D01*
X136295001Y-108814999D02*
X136295001Y-109287999D01*
X134909999Y-109222999D02*
X134844999Y-109287999D01*
X136230001Y-109222999D02*
X134909999Y-109222999D01*
X134844999Y-109287999D02*
X134844999Y-110330001D01*
%TO.N,Net-(C6-Pad1)*%
X135825000Y-91629000D02*
X135890000Y-91694000D01*
X135825000Y-90805000D02*
X135825000Y-91629000D01*
%TO.N,/Threshold*%
X133120000Y-89535000D02*
X135825000Y-89535000D01*
X131850000Y-88265000D02*
X133120000Y-89535000D01*
X130875000Y-88265000D02*
X131850000Y-88265000D01*
X129101998Y-88265000D02*
X130875000Y-88265000D01*
X126782999Y-91788001D02*
X126782999Y-90583999D01*
X125222000Y-93349000D02*
X126782999Y-91788001D01*
X125222000Y-97028000D02*
X125222000Y-93349000D01*
X119380000Y-102870000D02*
X125222000Y-97028000D01*
X126782999Y-90583999D02*
X129101998Y-88265000D01*
%TO.N,Net-(D1-Pad2)*%
X125222000Y-82804000D02*
X123952000Y-81534000D01*
X125222000Y-85064000D02*
X125222000Y-82804000D01*
%TO.N,Net-(D3-Pad2)*%
X131130990Y-108813180D02*
X132045810Y-109728000D01*
X132045810Y-109728000D02*
X132334000Y-109728000D01*
X129644180Y-106749990D02*
X131130990Y-108236800D01*
X128434800Y-106749990D02*
X129644180Y-106749990D01*
X126687990Y-105003180D02*
X128434800Y-106749990D01*
X131130990Y-108236800D02*
X131130990Y-108813180D01*
X126687990Y-103827990D02*
X126687990Y-105003180D01*
X125730000Y-102870000D02*
X126687990Y-103827990D01*
X121920000Y-102870000D02*
X125730000Y-102870000D01*
%TO.N,Net-(D3-Pad1)*%
X127725500Y-104140000D02*
X127762000Y-104140000D01*
X132175010Y-89860010D02*
X132175010Y-91151758D01*
X131378768Y-91948000D02*
X130170347Y-91948000D01*
X132175010Y-91151758D02*
X131378768Y-91948000D01*
X130170347Y-91948000D02*
X127508000Y-94610347D01*
X130875000Y-89535000D02*
X131850000Y-89535000D01*
X131850000Y-89535000D02*
X132175010Y-89860010D01*
%TO.N,Net-(D4-Pad1)*%
X118110000Y-104140000D02*
X116840000Y-102870000D01*
X124750500Y-104140000D02*
X118110000Y-104140000D01*
%TO.N,/HIP_HEN*%
X136890000Y-80360000D02*
X137160000Y-80630000D01*
X136890000Y-77390000D02*
X136890000Y-80360000D01*
%TO.N,/HIP_DISABLE*%
X134970000Y-77470000D02*
X134890000Y-77390000D01*
X135255000Y-77470000D02*
X134970000Y-77470000D01*
X122972990Y-100584000D02*
X127711200Y-100584000D01*
X127711200Y-100584000D02*
X131826000Y-104698800D01*
X122936000Y-85852000D02*
X123145001Y-85642999D01*
X123145001Y-85642999D02*
X123145001Y-78799997D01*
X123145001Y-78799997D02*
X126862598Y-75082400D01*
X126862598Y-75082400D02*
X133604000Y-75082400D01*
%TO.N,/FAN_TRIGGER*%
X132842000Y-77438000D02*
X132890000Y-77390000D01*
X132842000Y-79984000D02*
X132842000Y-77438000D01*
%TO.N,/IN+*%
X124314789Y-87013211D02*
X122333001Y-88994999D01*
X130890000Y-77390000D02*
X130890000Y-83130400D01*
X130890000Y-83130400D02*
X127007189Y-87013211D01*
X122333001Y-88994999D02*
X118015001Y-88994999D01*
X118015001Y-88994999D02*
X116840000Y-90170000D01*
X127007189Y-87013211D02*
X124314789Y-87013211D01*
%TO.N,/IN-*%
X125780800Y-86563200D02*
X123748800Y-86563200D01*
X126254190Y-86089810D02*
X125780800Y-86563200D01*
X126625210Y-85752980D02*
X126288380Y-86089810D01*
X128890000Y-77390000D02*
X128890000Y-82621002D01*
X126288380Y-86089810D02*
X126254190Y-86089810D01*
X128890000Y-82621002D02*
X127304800Y-84206202D01*
X127304800Y-84206202D02*
X127304800Y-85039200D01*
X122682000Y-87630000D02*
X121920000Y-87630000D01*
X127304800Y-85039200D02*
X126625210Y-85718790D01*
X123748800Y-86563200D02*
X122682000Y-87630000D01*
X126625210Y-85718790D02*
X126625210Y-85752980D01*
%TO.N,/VSense*%
X126890000Y-82440000D02*
X127000000Y-82550000D01*
X126890000Y-77390000D02*
X126890000Y-82440000D01*
%TO.N,Net-(Q4-Pad1)*%
X136128000Y-95184000D02*
X133767024Y-95184000D01*
X133767024Y-95184000D02*
X132842000Y-94258976D01*
%TO.N,/2.5V*%
X130218000Y-96794000D02*
X130368000Y-96944000D01*
X130218000Y-95184000D02*
X130218000Y-96794000D01*
X131281000Y-100330000D02*
X129830990Y-100330000D01*
X129830990Y-100330000D02*
X127798990Y-98298000D01*
X130368000Y-96944000D02*
X127968990Y-96944000D01*
X127968990Y-96944000D02*
X127798990Y-96774000D01*
%TO.N,/NE-Out*%
X134002000Y-99144000D02*
X134086000Y-99060000D01*
X132268000Y-99144000D02*
X134002000Y-99144000D01*
X134874000Y-99060000D02*
X135636000Y-98298000D01*
X134086000Y-99060000D02*
X134874000Y-99060000D01*
X135825000Y-88265000D02*
X135606192Y-88046192D01*
X135606192Y-88046192D02*
X134729789Y-88046192D01*
%TO.N,/COMP-Out*%
X122174000Y-90170000D02*
X121920000Y-90170000D01*
X124714000Y-92710000D02*
X122174000Y-90170000D01*
X118269001Y-91345001D02*
X118110000Y-91186000D01*
X120744999Y-91345001D02*
X118269001Y-91345001D01*
X121920000Y-90170000D02*
X120744999Y-91345001D01*
X126058966Y-96106978D02*
X126058966Y-94224689D01*
X127450989Y-97499001D02*
X126058966Y-96106978D01*
X128723001Y-97499001D02*
X127450989Y-97499001D01*
X130368000Y-99144000D02*
X128723001Y-97499001D01*
%TO.N,Net-(C8-Pad1)*%
X133178000Y-93284000D02*
X134128000Y-94234000D01*
X132418000Y-93284000D02*
X133178000Y-93284000D01*
X134128000Y-94234000D02*
X135382000Y-94234000D01*
X142050000Y-86170000D02*
X142240000Y-86360000D01*
X142050000Y-82550000D02*
X142050000Y-86170000D01*
X137705000Y-95885000D02*
X137405976Y-96184024D01*
X137405976Y-96184024D02*
X135890000Y-96184024D01*
%TO.N,/PWM_Enable*%
X127000000Y-110197500D02*
X127038500Y-110236000D01*
X127000000Y-107950000D02*
X127000000Y-110197500D01*
X127038500Y-110236000D02*
X128054500Y-111252000D01*
X129998000Y-111252000D02*
X130998000Y-110252000D01*
X128054500Y-111252000D02*
X129998000Y-111252000D01*
X127000000Y-107950000D02*
X129006000Y-107950000D01*
X130998000Y-110389510D02*
X131906938Y-111298448D01*
X130998000Y-110252000D02*
X130998000Y-110389510D01*
%TO.N,/Pump-On*%
X120396000Y-107950000D02*
X123900000Y-107950000D01*
%TO.N,Net-(Q2-Pad2)*%
X127635000Y-90805000D02*
X127508000Y-90932000D01*
X130875000Y-90805000D02*
X127635000Y-90805000D01*
X128762000Y-110252000D02*
X128524000Y-110490000D01*
X129098000Y-110252000D02*
X128762000Y-110252000D01*
%TO.N,Net-(Q6-Pad1)*%
X135570000Y-110196000D02*
X135636000Y-110262000D01*
X135570000Y-109998000D02*
X135570000Y-110196000D01*
%TD*%
D27*
%TO.N,GND*%
X147054470Y-66774617D02*
X148037898Y-66991739D01*
X148979675Y-67348546D01*
X149860095Y-67837575D01*
X150660687Y-68448569D01*
X151364694Y-69168732D01*
X151957370Y-69982987D01*
X152426296Y-70874269D01*
X152761647Y-71823900D01*
X152957127Y-72815692D01*
X153010000Y-73680164D01*
X153010001Y-114276080D01*
X152935382Y-115304470D01*
X152718262Y-116287896D01*
X152361454Y-117229675D01*
X151872424Y-118110095D01*
X151261435Y-118910684D01*
X150541268Y-119614694D01*
X149727013Y-120207370D01*
X148835731Y-120676296D01*
X147886099Y-121011647D01*
X146894309Y-121207127D01*
X146029835Y-121260000D01*
X119403906Y-121260000D01*
X118375530Y-121185382D01*
X117392104Y-120968262D01*
X116450325Y-120611454D01*
X115569905Y-120122424D01*
X114769316Y-119511435D01*
X114065306Y-118791268D01*
X113472630Y-117977013D01*
X113003704Y-117085731D01*
X112873308Y-116716481D01*
X117143124Y-116716481D01*
X117455308Y-117165177D01*
X118051259Y-117485612D01*
X118698273Y-117683626D01*
X119371484Y-117751610D01*
X120045023Y-117686949D01*
X120693006Y-117492130D01*
X121290530Y-117174639D01*
X121304692Y-117165177D01*
X121616876Y-116716481D01*
X143813124Y-116716481D01*
X144125308Y-117165177D01*
X144721259Y-117485612D01*
X145368273Y-117683626D01*
X146041484Y-117751610D01*
X146715023Y-117686949D01*
X147363006Y-117492130D01*
X147960530Y-117174639D01*
X147974692Y-117165177D01*
X148286876Y-116716481D01*
X146050000Y-114479605D01*
X143813124Y-116716481D01*
X121616876Y-116716481D01*
X119380000Y-114479605D01*
X117143124Y-116716481D01*
X112873308Y-116716481D01*
X112668353Y-116136099D01*
X112472873Y-115144309D01*
X112420713Y-114291484D01*
X115928390Y-114291484D01*
X115993051Y-114965023D01*
X116187870Y-115613006D01*
X116505361Y-116210530D01*
X116514823Y-116224692D01*
X116963519Y-116536876D01*
X119200395Y-114300000D01*
X119559605Y-114300000D01*
X121796481Y-116536876D01*
X122245177Y-116224692D01*
X122565612Y-115628741D01*
X122668702Y-115291891D01*
X124923519Y-115291891D01*
X125020843Y-115566252D01*
X125169822Y-115816355D01*
X125364731Y-116032588D01*
X125598080Y-116206641D01*
X125860901Y-116331825D01*
X126008110Y-116376476D01*
X126238000Y-116255155D01*
X126238000Y-115062000D01*
X125044186Y-115062000D01*
X124923519Y-115291891D01*
X122668702Y-115291891D01*
X122763626Y-114981727D01*
X122804385Y-114578109D01*
X124923519Y-114578109D01*
X125044186Y-114808000D01*
X126238000Y-114808000D01*
X126238000Y-113614845D01*
X126008110Y-113493524D01*
X125860901Y-113538175D01*
X125598080Y-113663359D01*
X125364731Y-113837412D01*
X125169822Y-114053645D01*
X125020843Y-114303748D01*
X124923519Y-114578109D01*
X122804385Y-114578109D01*
X122831610Y-114308516D01*
X122766949Y-113634977D01*
X122572130Y-112986994D01*
X122420701Y-112702000D01*
X129009928Y-112702000D01*
X129022188Y-112826482D01*
X129058498Y-112946180D01*
X129117463Y-113056494D01*
X129196815Y-113153185D01*
X129293506Y-113232537D01*
X129403820Y-113291502D01*
X129523518Y-113327812D01*
X129648000Y-113340072D01*
X129762250Y-113337000D01*
X129921000Y-113178250D01*
X129921000Y-112379000D01*
X129171750Y-112379000D01*
X129013000Y-112537750D01*
X129009928Y-112702000D01*
X122420701Y-112702000D01*
X122254639Y-112389470D01*
X122245177Y-112375308D01*
X121796481Y-112063124D01*
X119559605Y-114300000D01*
X119200395Y-114300000D01*
X116963519Y-112063124D01*
X116514823Y-112375308D01*
X116194388Y-112971259D01*
X115996374Y-113618273D01*
X115928390Y-114291484D01*
X112420713Y-114291484D01*
X112420000Y-114279835D01*
X112420000Y-111883519D01*
X117143124Y-111883519D01*
X119380000Y-114120395D01*
X121616876Y-111883519D01*
X121304692Y-111434823D01*
X120748936Y-111136000D01*
X122612928Y-111136000D01*
X122625188Y-111260482D01*
X122661498Y-111380180D01*
X122720463Y-111490494D01*
X122799815Y-111587185D01*
X122896506Y-111666537D01*
X123006820Y-111725502D01*
X123126518Y-111761812D01*
X123251000Y-111774072D01*
X123627750Y-111771000D01*
X123786500Y-111612250D01*
X123786500Y-110363000D01*
X124040500Y-110363000D01*
X124040500Y-111612250D01*
X124199250Y-111771000D01*
X124576000Y-111774072D01*
X124700482Y-111761812D01*
X124820180Y-111725502D01*
X124930494Y-111666537D01*
X125027185Y-111587185D01*
X125106537Y-111490494D01*
X125165502Y-111380180D01*
X125201812Y-111260482D01*
X125214072Y-111136000D01*
X125211000Y-110521750D01*
X125052250Y-110363000D01*
X124040500Y-110363000D01*
X123786500Y-110363000D01*
X122774750Y-110363000D01*
X122616000Y-110521750D01*
X122612928Y-111136000D01*
X120748936Y-111136000D01*
X120708741Y-111114388D01*
X120061727Y-110916374D01*
X119388516Y-110848390D01*
X118714977Y-110913051D01*
X118066994Y-111107870D01*
X117469470Y-111425361D01*
X117455308Y-111434823D01*
X117143124Y-111883519D01*
X112420000Y-111883519D01*
X112420000Y-108306891D01*
X116414519Y-108306891D01*
X116511843Y-108581252D01*
X116660822Y-108831355D01*
X116855731Y-109047588D01*
X117089080Y-109221641D01*
X117351901Y-109346825D01*
X117499110Y-109391476D01*
X117729000Y-109270155D01*
X117729000Y-108077000D01*
X116535186Y-108077000D01*
X116414519Y-108306891D01*
X112420000Y-108306891D01*
X112420000Y-107593109D01*
X116414519Y-107593109D01*
X116535186Y-107823000D01*
X117729000Y-107823000D01*
X117729000Y-106629845D01*
X117983000Y-106629845D01*
X117983000Y-107823000D01*
X118003000Y-107823000D01*
X118003000Y-108077000D01*
X117983000Y-108077000D01*
X117983000Y-109270155D01*
X118212890Y-109391476D01*
X118360099Y-109346825D01*
X118622920Y-109221641D01*
X118856269Y-109047588D01*
X118932034Y-108963534D01*
X118956498Y-109044180D01*
X119015463Y-109154494D01*
X119094815Y-109251185D01*
X119191506Y-109330537D01*
X119301820Y-109389502D01*
X119421518Y-109425812D01*
X119546000Y-109438072D01*
X121246000Y-109438072D01*
X121370482Y-109425812D01*
X121490180Y-109389502D01*
X121600494Y-109330537D01*
X121697185Y-109251185D01*
X121776537Y-109154494D01*
X121835502Y-109044180D01*
X121871812Y-108924482D01*
X121884072Y-108800000D01*
X121884072Y-108710000D01*
X122625224Y-108710000D01*
X122628992Y-108748254D01*
X122679528Y-108914850D01*
X122717810Y-108986470D01*
X122661498Y-109091820D01*
X122625188Y-109211518D01*
X122612928Y-109336000D01*
X122616000Y-109950250D01*
X122774750Y-110109000D01*
X123786500Y-110109000D01*
X123786500Y-110089000D01*
X124040500Y-110089000D01*
X124040500Y-110109000D01*
X125052250Y-110109000D01*
X125211000Y-109950250D01*
X125214072Y-109336000D01*
X125201812Y-109211518D01*
X125165502Y-109091820D01*
X125106537Y-108981506D01*
X125093400Y-108965498D01*
X125120472Y-108914850D01*
X125171008Y-108748254D01*
X125188072Y-108575000D01*
X125188072Y-107325000D01*
X125171008Y-107151746D01*
X125120472Y-106985150D01*
X125038405Y-106831614D01*
X124927962Y-106697038D01*
X124793386Y-106586595D01*
X124639850Y-106504528D01*
X124473254Y-106453992D01*
X124300000Y-106436928D01*
X123500000Y-106436928D01*
X123326746Y-106453992D01*
X123160150Y-106504528D01*
X123006614Y-106586595D01*
X122872038Y-106697038D01*
X122761595Y-106831614D01*
X122679528Y-106985150D01*
X122628992Y-107151746D01*
X122625224Y-107190000D01*
X121884072Y-107190000D01*
X121884072Y-107100000D01*
X121871812Y-106975518D01*
X121835502Y-106855820D01*
X121776537Y-106745506D01*
X121697185Y-106648815D01*
X121600494Y-106569463D01*
X121490180Y-106510498D01*
X121370482Y-106474188D01*
X121246000Y-106461928D01*
X119546000Y-106461928D01*
X119421518Y-106474188D01*
X119301820Y-106510498D01*
X119191506Y-106569463D01*
X119094815Y-106648815D01*
X119015463Y-106745506D01*
X118956498Y-106855820D01*
X118932034Y-106936466D01*
X118856269Y-106852412D01*
X118622920Y-106678359D01*
X118360099Y-106553175D01*
X118212890Y-106508524D01*
X117983000Y-106629845D01*
X117729000Y-106629845D01*
X117499110Y-106508524D01*
X117351901Y-106553175D01*
X117089080Y-106678359D01*
X116855731Y-106852412D01*
X116660822Y-107068645D01*
X116511843Y-107318748D01*
X116414519Y-107593109D01*
X112420000Y-107593109D01*
X112420000Y-94400000D01*
X115351928Y-94400000D01*
X115355000Y-94964250D01*
X115513750Y-95123000D01*
X116713000Y-95123000D01*
X116713000Y-93923750D01*
X116554250Y-93765000D01*
X115990000Y-93761928D01*
X115865518Y-93774188D01*
X115745820Y-93810498D01*
X115635506Y-93869463D01*
X115538815Y-93948815D01*
X115459463Y-94045506D01*
X115400498Y-94155820D01*
X115364188Y-94275518D01*
X115351928Y-94400000D01*
X112420000Y-94400000D01*
X112420000Y-86780000D01*
X115351928Y-86780000D01*
X115351928Y-88480000D01*
X115364188Y-88604482D01*
X115400498Y-88724180D01*
X115459463Y-88834494D01*
X115538815Y-88931185D01*
X115635506Y-89010537D01*
X115745820Y-89069502D01*
X115818380Y-89091513D01*
X115686525Y-89223368D01*
X115524010Y-89466589D01*
X115412068Y-89736842D01*
X115355000Y-90023740D01*
X115355000Y-90316260D01*
X115412068Y-90603158D01*
X115524010Y-90873411D01*
X115686525Y-91116632D01*
X115893368Y-91323475D01*
X116136589Y-91485990D01*
X116406842Y-91597932D01*
X116693740Y-91655000D01*
X116986260Y-91655000D01*
X117168939Y-91618663D01*
X117192795Y-91676256D01*
X117306063Y-91845774D01*
X117450226Y-91989937D01*
X117619744Y-92103205D01*
X117808102Y-92181226D01*
X118008061Y-92221000D01*
X118211939Y-92221000D01*
X118411898Y-92181226D01*
X118595920Y-92105001D01*
X120707677Y-92105001D01*
X120744999Y-92108677D01*
X120782321Y-92105001D01*
X120782332Y-92105001D01*
X120893985Y-92094004D01*
X121037246Y-92050547D01*
X121169275Y-91979975D01*
X121285000Y-91885002D01*
X121308803Y-91855998D01*
X121553592Y-91611209D01*
X121773740Y-91655000D01*
X122066260Y-91655000D01*
X122353158Y-91597932D01*
X122476175Y-91546977D01*
X123679000Y-92749803D01*
X123679000Y-92811939D01*
X123718774Y-93011898D01*
X123796795Y-93200256D01*
X123910063Y-93369774D01*
X124054226Y-93513937D01*
X124223744Y-93627205D01*
X124412102Y-93705226D01*
X124462001Y-93715151D01*
X124462000Y-96713198D01*
X123405000Y-97770198D01*
X123405000Y-97662998D01*
X123240815Y-97662998D01*
X123361481Y-97433109D01*
X123264157Y-97158748D01*
X123115178Y-96908645D01*
X122920269Y-96692412D01*
X122689120Y-96520000D01*
X122920269Y-96347588D01*
X123115178Y-96131355D01*
X123264157Y-95881252D01*
X123361481Y-95606891D01*
X123240814Y-95377000D01*
X122047000Y-95377000D01*
X122047000Y-97663000D01*
X122067000Y-97663000D01*
X122067000Y-97917000D01*
X122047000Y-97917000D01*
X122047000Y-97937000D01*
X121793000Y-97937000D01*
X121793000Y-97917000D01*
X121773000Y-97917000D01*
X121773000Y-97663000D01*
X121793000Y-97663000D01*
X121793000Y-95377000D01*
X121773000Y-95377000D01*
X121773000Y-95123000D01*
X121793000Y-95123000D01*
X121793000Y-93929845D01*
X122047000Y-93929845D01*
X122047000Y-95123000D01*
X123240814Y-95123000D01*
X123361481Y-94893109D01*
X123264157Y-94618748D01*
X123115178Y-94368645D01*
X122920269Y-94152412D01*
X122686920Y-93978359D01*
X122424099Y-93853175D01*
X122276890Y-93808524D01*
X122047000Y-93929845D01*
X121793000Y-93929845D01*
X121563110Y-93808524D01*
X121415901Y-93853175D01*
X121153080Y-93978359D01*
X120919731Y-94152412D01*
X120724822Y-94368645D01*
X120655195Y-94485534D01*
X120533475Y-94303368D01*
X120326632Y-94096525D01*
X120083411Y-93934010D01*
X119813158Y-93822068D01*
X119526260Y-93765000D01*
X119233740Y-93765000D01*
X118946842Y-93822068D01*
X118676589Y-93934010D01*
X118433368Y-94096525D01*
X118301513Y-94228380D01*
X118279502Y-94155820D01*
X118220537Y-94045506D01*
X118141185Y-93948815D01*
X118044494Y-93869463D01*
X117934180Y-93810498D01*
X117814482Y-93774188D01*
X117690000Y-93761928D01*
X117125750Y-93765000D01*
X116967000Y-93923750D01*
X116967000Y-95123000D01*
X116987000Y-95123000D01*
X116987000Y-95377000D01*
X116967000Y-95377000D01*
X116967000Y-95397000D01*
X116713000Y-95397000D01*
X116713000Y-95377000D01*
X115513750Y-95377000D01*
X115355000Y-95535750D01*
X115351928Y-96100000D01*
X115364188Y-96224482D01*
X115400498Y-96344180D01*
X115459463Y-96454494D01*
X115538815Y-96551185D01*
X115635506Y-96630537D01*
X115745820Y-96689502D01*
X115818380Y-96711513D01*
X115686525Y-96843368D01*
X115524010Y-97086589D01*
X115412068Y-97356842D01*
X115355000Y-97643740D01*
X115355000Y-97936260D01*
X115412068Y-98223158D01*
X115524010Y-98493411D01*
X115686525Y-98736632D01*
X115893368Y-98943475D01*
X116136589Y-99105990D01*
X116406842Y-99217932D01*
X116693740Y-99275000D01*
X116986260Y-99275000D01*
X117273158Y-99217932D01*
X117543411Y-99105990D01*
X117786632Y-98943475D01*
X117993475Y-98736632D01*
X118110000Y-98562240D01*
X118226525Y-98736632D01*
X118433368Y-98943475D01*
X118676589Y-99105990D01*
X118946842Y-99217932D01*
X119233740Y-99275000D01*
X119526260Y-99275000D01*
X119813158Y-99217932D01*
X120083411Y-99105990D01*
X120326632Y-98943475D01*
X120533475Y-98736632D01*
X120655195Y-98554466D01*
X120724822Y-98671355D01*
X120919731Y-98887588D01*
X121153080Y-99061641D01*
X121415901Y-99186825D01*
X121563110Y-99231476D01*
X121792998Y-99110156D01*
X121792998Y-99275000D01*
X121900199Y-99275000D01*
X119746408Y-101428791D01*
X119526260Y-101385000D01*
X119233740Y-101385000D01*
X118946842Y-101442068D01*
X118676589Y-101554010D01*
X118433368Y-101716525D01*
X118301513Y-101848380D01*
X118279502Y-101775820D01*
X118220537Y-101665506D01*
X118141185Y-101568815D01*
X118044494Y-101489463D01*
X117934180Y-101430498D01*
X117814482Y-101394188D01*
X117690000Y-101381928D01*
X115990000Y-101381928D01*
X115865518Y-101394188D01*
X115745820Y-101430498D01*
X115635506Y-101489463D01*
X115538815Y-101568815D01*
X115459463Y-101665506D01*
X115400498Y-101775820D01*
X115364188Y-101895518D01*
X115351928Y-102020000D01*
X115351928Y-103720000D01*
X115364188Y-103844482D01*
X115400498Y-103964180D01*
X115459463Y-104074494D01*
X115538815Y-104171185D01*
X115635506Y-104250537D01*
X115745820Y-104309502D01*
X115865518Y-104345812D01*
X115990000Y-104358072D01*
X117253270Y-104358072D01*
X117546201Y-104651003D01*
X117569999Y-104680001D01*
X117685724Y-104774974D01*
X117817753Y-104845546D01*
X117961014Y-104889003D01*
X118072667Y-104900000D01*
X118072676Y-104900000D01*
X118109999Y-104903676D01*
X118147322Y-104900000D01*
X123413224Y-104900000D01*
X123416992Y-104938254D01*
X123467528Y-105104850D01*
X123549595Y-105258386D01*
X123660038Y-105392962D01*
X123794614Y-105503405D01*
X123948150Y-105585472D01*
X124114746Y-105636008D01*
X124288000Y-105653072D01*
X125213000Y-105653072D01*
X125386254Y-105636008D01*
X125552850Y-105585472D01*
X125706386Y-105503405D01*
X125840962Y-105392962D01*
X125951405Y-105258386D01*
X125964039Y-105234750D01*
X125982444Y-105295426D01*
X126053016Y-105427456D01*
X126124191Y-105514182D01*
X126147990Y-105543181D01*
X126176988Y-105566979D01*
X127046936Y-106436928D01*
X126600000Y-106436928D01*
X126426746Y-106453992D01*
X126260150Y-106504528D01*
X126106614Y-106586595D01*
X125972038Y-106697038D01*
X125861595Y-106831614D01*
X125779528Y-106985150D01*
X125728992Y-107151746D01*
X125711928Y-107325000D01*
X125711928Y-108575000D01*
X125728992Y-108748254D01*
X125779528Y-108914850D01*
X125861595Y-109068386D01*
X125885182Y-109097127D01*
X125805528Y-109246149D01*
X125754992Y-109412745D01*
X125737928Y-109585999D01*
X125737928Y-110886001D01*
X125754992Y-111059255D01*
X125805528Y-111225851D01*
X125887595Y-111379387D01*
X125998038Y-111513962D01*
X126132613Y-111624405D01*
X126286149Y-111706472D01*
X126452745Y-111757008D01*
X126625999Y-111774072D01*
X127451001Y-111774072D01*
X127496137Y-111769627D01*
X127514499Y-111792001D01*
X127543497Y-111815799D01*
X127630223Y-111886974D01*
X127717119Y-111933421D01*
X127762253Y-111957546D01*
X127905514Y-112001003D01*
X128017167Y-112012000D01*
X128017177Y-112012000D01*
X128054500Y-112015676D01*
X128091822Y-112012000D01*
X129058750Y-112012000D01*
X129171750Y-112125000D01*
X129921000Y-112125000D01*
X129921000Y-112105000D01*
X130175000Y-112105000D01*
X130175000Y-112125000D01*
X130924250Y-112125000D01*
X131083000Y-111966250D01*
X131083691Y-111929322D01*
X131103001Y-111958222D01*
X131247164Y-112102385D01*
X131416682Y-112215653D01*
X131605040Y-112293674D01*
X131718881Y-112316318D01*
X130977768Y-113057431D01*
X130978537Y-113056494D01*
X131037502Y-112946180D01*
X131073812Y-112826482D01*
X131086072Y-112702000D01*
X131083000Y-112537750D01*
X130924250Y-112379000D01*
X130175000Y-112379000D01*
X130175000Y-113178250D01*
X130333750Y-113337000D01*
X130448000Y-113340072D01*
X130572482Y-113327812D01*
X130692180Y-113291502D01*
X130802494Y-113232537D01*
X130846144Y-113196714D01*
X130810026Y-113240724D01*
X130758565Y-113337000D01*
X130739454Y-113372754D01*
X130695997Y-113516015D01*
X130685000Y-113627668D01*
X130685000Y-113627678D01*
X130681927Y-113658875D01*
X130498368Y-113781525D01*
X130291525Y-113988368D01*
X130175000Y-114162760D01*
X130058475Y-113988368D01*
X129851632Y-113781525D01*
X129608411Y-113619010D01*
X129338158Y-113507068D01*
X129051260Y-113450000D01*
X128758740Y-113450000D01*
X128471842Y-113507068D01*
X128201589Y-113619010D01*
X127958368Y-113781525D01*
X127751525Y-113988368D01*
X127629805Y-114170534D01*
X127560178Y-114053645D01*
X127365269Y-113837412D01*
X127131920Y-113663359D01*
X126869099Y-113538175D01*
X126721890Y-113493524D01*
X126492000Y-113614845D01*
X126492000Y-114808000D01*
X126512000Y-114808000D01*
X126512000Y-115062000D01*
X126492000Y-115062000D01*
X126492000Y-116255155D01*
X126721890Y-116376476D01*
X126869099Y-116331825D01*
X127131920Y-116206641D01*
X127365269Y-116032588D01*
X127560178Y-115816355D01*
X127629805Y-115699466D01*
X127751525Y-115881632D01*
X127958368Y-116088475D01*
X128201589Y-116250990D01*
X128471842Y-116362932D01*
X128758740Y-116420000D01*
X129051260Y-116420000D01*
X129338158Y-116362932D01*
X129608411Y-116250990D01*
X129851632Y-116088475D01*
X130058475Y-115881632D01*
X130175000Y-115707240D01*
X130291525Y-115881632D01*
X130498368Y-116088475D01*
X130741589Y-116250990D01*
X131011842Y-116362932D01*
X131298740Y-116420000D01*
X131591260Y-116420000D01*
X131878158Y-116362932D01*
X132148411Y-116250990D01*
X132391632Y-116088475D01*
X132523487Y-115956620D01*
X132545498Y-116029180D01*
X132604463Y-116139494D01*
X132683815Y-116236185D01*
X132780506Y-116315537D01*
X132890820Y-116374502D01*
X133010518Y-116410812D01*
X133135000Y-116423072D01*
X134835000Y-116423072D01*
X134959482Y-116410812D01*
X135079180Y-116374502D01*
X135189494Y-116315537D01*
X135286185Y-116236185D01*
X135365537Y-116139494D01*
X135424502Y-116029180D01*
X135460812Y-115909482D01*
X135473072Y-115785000D01*
X135473072Y-115695000D01*
X141377678Y-115695000D01*
X141415000Y-115698676D01*
X141452322Y-115695000D01*
X141452333Y-115695000D01*
X141563986Y-115684003D01*
X141707247Y-115640546D01*
X141839276Y-115569974D01*
X141955001Y-115475001D01*
X141978803Y-115445998D01*
X142561002Y-114863800D01*
X142590001Y-114840001D01*
X142644655Y-114773405D01*
X142663051Y-114965023D01*
X142857870Y-115613006D01*
X143175361Y-116210530D01*
X143184823Y-116224692D01*
X143633519Y-116536876D01*
X145870395Y-114300000D01*
X146229605Y-114300000D01*
X148466481Y-116536876D01*
X148915177Y-116224692D01*
X149235612Y-115628741D01*
X149433626Y-114981727D01*
X149501610Y-114308516D01*
X149436949Y-113634977D01*
X149242130Y-112986994D01*
X148924639Y-112389470D01*
X148915177Y-112375308D01*
X148466481Y-112063124D01*
X146229605Y-114300000D01*
X145870395Y-114300000D01*
X143633519Y-112063124D01*
X143184823Y-112375308D01*
X142864388Y-112971259D01*
X142810000Y-113148973D01*
X142810000Y-111883519D01*
X143813124Y-111883519D01*
X146050000Y-114120395D01*
X148286876Y-111883519D01*
X147974692Y-111434823D01*
X147378741Y-111114388D01*
X146731727Y-110916374D01*
X146058516Y-110848390D01*
X145384977Y-110913051D01*
X144736994Y-111107870D01*
X144139470Y-111425361D01*
X144125308Y-111434823D01*
X143813124Y-111883519D01*
X142810000Y-111883519D01*
X142810000Y-107298072D01*
X143800000Y-107298072D01*
X143973254Y-107281008D01*
X144139850Y-107230472D01*
X144293386Y-107148405D01*
X144427962Y-107037962D01*
X144538405Y-106903386D01*
X144620472Y-106749850D01*
X144647727Y-106660000D01*
X147411928Y-106660000D01*
X147424188Y-106784482D01*
X147460498Y-106904180D01*
X147519463Y-107014494D01*
X147598815Y-107111185D01*
X147695506Y-107190537D01*
X147805820Y-107249502D01*
X147925518Y-107285812D01*
X148050000Y-107298072D01*
X149764250Y-107295000D01*
X149923000Y-107136250D01*
X149923000Y-105537000D01*
X150177000Y-105537000D01*
X150177000Y-107136250D01*
X150335750Y-107295000D01*
X152050000Y-107298072D01*
X152174482Y-107285812D01*
X152294180Y-107249502D01*
X152404494Y-107190537D01*
X152501185Y-107111185D01*
X152580537Y-107014494D01*
X152639502Y-106904180D01*
X152675812Y-106784482D01*
X152688072Y-106660000D01*
X152685000Y-105695750D01*
X152526250Y-105537000D01*
X150177000Y-105537000D01*
X149923000Y-105537000D01*
X147573750Y-105537000D01*
X147415000Y-105695750D01*
X147411928Y-106660000D01*
X144647727Y-106660000D01*
X144671008Y-106583254D01*
X144688072Y-106410000D01*
X144688072Y-104410000D01*
X144671008Y-104236746D01*
X144647728Y-104160000D01*
X147411928Y-104160000D01*
X147415000Y-105124250D01*
X147573750Y-105283000D01*
X149923000Y-105283000D01*
X149923000Y-103683750D01*
X150177000Y-103683750D01*
X150177000Y-105283000D01*
X152526250Y-105283000D01*
X152685000Y-105124250D01*
X152688072Y-104160000D01*
X152675812Y-104035518D01*
X152639502Y-103915820D01*
X152580537Y-103805506D01*
X152501185Y-103708815D01*
X152404494Y-103629463D01*
X152294180Y-103570498D01*
X152174482Y-103534188D01*
X152050000Y-103521928D01*
X150335750Y-103525000D01*
X150177000Y-103683750D01*
X149923000Y-103683750D01*
X149764250Y-103525000D01*
X148050000Y-103521928D01*
X147925518Y-103534188D01*
X147805820Y-103570498D01*
X147695506Y-103629463D01*
X147598815Y-103708815D01*
X147519463Y-103805506D01*
X147460498Y-103915820D01*
X147424188Y-104035518D01*
X147411928Y-104160000D01*
X144647728Y-104160000D01*
X144620472Y-104070150D01*
X144538405Y-103916614D01*
X144427962Y-103782038D01*
X144293386Y-103671595D01*
X144139850Y-103589528D01*
X143973254Y-103538992D01*
X143800000Y-103521928D01*
X143299284Y-103521928D01*
X143646018Y-103175195D01*
X143675002Y-103151409D01*
X143698795Y-103122418D01*
X143698808Y-103122405D01*
X143752788Y-103056629D01*
X143769977Y-103035685D01*
X143769978Y-103035682D01*
X143769982Y-103035678D01*
X143825008Y-102932733D01*
X143840550Y-102903657D01*
X143840551Y-102903653D01*
X143840554Y-102903648D01*
X143843931Y-102892516D01*
X143853975Y-102880277D01*
X143924547Y-102748248D01*
X143968004Y-102604987D01*
X143979001Y-102493334D01*
X143979001Y-102493324D01*
X143982677Y-102456002D01*
X143979001Y-102418679D01*
X143979001Y-101797332D01*
X143982678Y-101759999D01*
X143968004Y-101611013D01*
X143924547Y-101467752D01*
X143904634Y-101430498D01*
X143853975Y-101335723D01*
X143759002Y-101219998D01*
X143729999Y-101196196D01*
X143405805Y-100872002D01*
X143382002Y-100842998D01*
X143266277Y-100748025D01*
X143134248Y-100677453D01*
X142990987Y-100633996D01*
X142879334Y-100622999D01*
X142879323Y-100622999D01*
X142842001Y-100619323D01*
X142810000Y-100622475D01*
X142810000Y-96315010D01*
X144000858Y-96315010D01*
X144038180Y-96318686D01*
X144075502Y-96315010D01*
X144075513Y-96315010D01*
X144187166Y-96304013D01*
X144330427Y-96260556D01*
X144462456Y-96189984D01*
X144578181Y-96095011D01*
X144601984Y-96066007D01*
X144886007Y-95781984D01*
X144915011Y-95758181D01*
X145009984Y-95642456D01*
X145080556Y-95510427D01*
X145124013Y-95367166D01*
X145135010Y-95255513D01*
X145137522Y-95230000D01*
X147411928Y-95230000D01*
X147424188Y-95354482D01*
X147460498Y-95474180D01*
X147519463Y-95584494D01*
X147598815Y-95681185D01*
X147695506Y-95760537D01*
X147805820Y-95819502D01*
X147925518Y-95855812D01*
X148050000Y-95868072D01*
X149764250Y-95865000D01*
X149923000Y-95706250D01*
X149923000Y-94107000D01*
X150177000Y-94107000D01*
X150177000Y-95706250D01*
X150335750Y-95865000D01*
X152050000Y-95868072D01*
X152174482Y-95855812D01*
X152294180Y-95819502D01*
X152404494Y-95760537D01*
X152501185Y-95681185D01*
X152580537Y-95584494D01*
X152639502Y-95474180D01*
X152675812Y-95354482D01*
X152688072Y-95230000D01*
X152685000Y-94265750D01*
X152526250Y-94107000D01*
X150177000Y-94107000D01*
X149923000Y-94107000D01*
X147573750Y-94107000D01*
X147415000Y-94265750D01*
X147411928Y-95230000D01*
X145137522Y-95230000D01*
X145138687Y-95218180D01*
X145135010Y-95180847D01*
X145135010Y-92779153D01*
X145138687Y-92741820D01*
X145137523Y-92730000D01*
X147411928Y-92730000D01*
X147415000Y-93694250D01*
X147573750Y-93853000D01*
X149923000Y-93853000D01*
X149923000Y-92253750D01*
X150177000Y-92253750D01*
X150177000Y-93853000D01*
X152526250Y-93853000D01*
X152685000Y-93694250D01*
X152688072Y-92730000D01*
X152675812Y-92605518D01*
X152639502Y-92485820D01*
X152580537Y-92375506D01*
X152501185Y-92278815D01*
X152404494Y-92199463D01*
X152294180Y-92140498D01*
X152174482Y-92104188D01*
X152050000Y-92091928D01*
X150335750Y-92095000D01*
X150177000Y-92253750D01*
X149923000Y-92253750D01*
X149764250Y-92095000D01*
X148050000Y-92091928D01*
X147925518Y-92104188D01*
X147805820Y-92140498D01*
X147695506Y-92199463D01*
X147598815Y-92278815D01*
X147519463Y-92375506D01*
X147460498Y-92485820D01*
X147424188Y-92605518D01*
X147411928Y-92730000D01*
X145137523Y-92730000D01*
X145124013Y-92592834D01*
X145080556Y-92449573D01*
X145076681Y-92442323D01*
X145009984Y-92317544D01*
X144915011Y-92201819D01*
X144886008Y-92178017D01*
X144601984Y-91893993D01*
X144578181Y-91864989D01*
X144462456Y-91770016D01*
X144330427Y-91699444D01*
X144187166Y-91655987D01*
X144075513Y-91644990D01*
X144075502Y-91644990D01*
X144038180Y-91641314D01*
X144000858Y-91644990D01*
X142810000Y-91644990D01*
X142810000Y-91126991D01*
X144981193Y-88955799D01*
X145010191Y-88932001D01*
X145105164Y-88816276D01*
X145175736Y-88684247D01*
X145219193Y-88540986D01*
X145233867Y-88392000D01*
X145219193Y-88243014D01*
X145175736Y-88099753D01*
X145105164Y-87967724D01*
X145010191Y-87851999D01*
X144894466Y-87757026D01*
X144762437Y-87686454D01*
X144619176Y-87642997D01*
X144507523Y-87632000D01*
X144470190Y-87628323D01*
X144432857Y-87632000D01*
X139976303Y-87632000D01*
X139815672Y-87471370D01*
X139815672Y-86646399D01*
X139798608Y-86473145D01*
X139748072Y-86306549D01*
X139666005Y-86153013D01*
X139555562Y-86018438D01*
X139420987Y-85907995D01*
X139267451Y-85825928D01*
X139100855Y-85775392D01*
X138927601Y-85758328D01*
X137627599Y-85758328D01*
X137454345Y-85775392D01*
X137287749Y-85825928D01*
X137134213Y-85907995D01*
X136999638Y-86018438D01*
X136926136Y-86108000D01*
X136922189Y-86108000D01*
X136803745Y-86072071D01*
X136650000Y-86056928D01*
X135961730Y-86056928D01*
X134501202Y-84596400D01*
X136739528Y-84596400D01*
X136751788Y-84720882D01*
X136788098Y-84840580D01*
X136847063Y-84950894D01*
X136926415Y-85047585D01*
X137023106Y-85126937D01*
X137133420Y-85185902D01*
X137253118Y-85222212D01*
X137377600Y-85234472D01*
X137991850Y-85231400D01*
X138150600Y-85072650D01*
X138150600Y-84060900D01*
X136901350Y-84060900D01*
X136742600Y-84219650D01*
X136739528Y-84596400D01*
X134501202Y-84596400D01*
X134052012Y-84147210D01*
X134094962Y-84111962D01*
X134205405Y-83977386D01*
X134287472Y-83823850D01*
X134338008Y-83657254D01*
X134355072Y-83484000D01*
X134355072Y-83271400D01*
X136739528Y-83271400D01*
X136742600Y-83648150D01*
X136901350Y-83806900D01*
X138150600Y-83806900D01*
X138150600Y-82795150D01*
X138404600Y-82795150D01*
X138404600Y-83806900D01*
X138424600Y-83806900D01*
X138424600Y-84060900D01*
X138404600Y-84060900D01*
X138404600Y-85072650D01*
X138563350Y-85231400D01*
X139177600Y-85234472D01*
X139302082Y-85222212D01*
X139421780Y-85185902D01*
X139532094Y-85126937D01*
X139628785Y-85047585D01*
X139708137Y-84950894D01*
X139767102Y-84840580D01*
X139803412Y-84720882D01*
X139815672Y-84596400D01*
X139813189Y-84291920D01*
X139960150Y-84370472D01*
X140126746Y-84421008D01*
X140300000Y-84438072D01*
X141290001Y-84438072D01*
X141290001Y-85948915D01*
X141244774Y-86058102D01*
X141205000Y-86258061D01*
X141205000Y-86461939D01*
X141244774Y-86661898D01*
X141322795Y-86850256D01*
X141436063Y-87019774D01*
X141580226Y-87163937D01*
X141749744Y-87277205D01*
X141938102Y-87355226D01*
X142138061Y-87395000D01*
X142341939Y-87395000D01*
X142541898Y-87355226D01*
X142730256Y-87277205D01*
X142899774Y-87163937D01*
X143043937Y-87019774D01*
X143157205Y-86850256D01*
X143235226Y-86661898D01*
X143275000Y-86461939D01*
X143275000Y-86258061D01*
X143235226Y-86058102D01*
X143157205Y-85869744D01*
X143043937Y-85700226D01*
X142899774Y-85556063D01*
X142810000Y-85496078D01*
X142810000Y-84438072D01*
X143800000Y-84438072D01*
X143973254Y-84421008D01*
X144139850Y-84370472D01*
X144293386Y-84288405D01*
X144427962Y-84177962D01*
X144538405Y-84043386D01*
X144620472Y-83889850D01*
X144647727Y-83800000D01*
X147411928Y-83800000D01*
X147424188Y-83924482D01*
X147460498Y-84044180D01*
X147519463Y-84154494D01*
X147598815Y-84251185D01*
X147695506Y-84330537D01*
X147805820Y-84389502D01*
X147925518Y-84425812D01*
X148050000Y-84438072D01*
X149764250Y-84435000D01*
X149923000Y-84276250D01*
X149923000Y-82677000D01*
X150177000Y-82677000D01*
X150177000Y-84276250D01*
X150335750Y-84435000D01*
X152050000Y-84438072D01*
X152174482Y-84425812D01*
X152294180Y-84389502D01*
X152404494Y-84330537D01*
X152501185Y-84251185D01*
X152580537Y-84154494D01*
X152639502Y-84044180D01*
X152675812Y-83924482D01*
X152688072Y-83800000D01*
X152685000Y-82835750D01*
X152526250Y-82677000D01*
X150177000Y-82677000D01*
X149923000Y-82677000D01*
X147573750Y-82677000D01*
X147415000Y-82835750D01*
X147411928Y-83800000D01*
X144647727Y-83800000D01*
X144671008Y-83723254D01*
X144688072Y-83550000D01*
X144688072Y-81550000D01*
X144671008Y-81376746D01*
X144647728Y-81300000D01*
X147411928Y-81300000D01*
X147415000Y-82264250D01*
X147573750Y-82423000D01*
X149923000Y-82423000D01*
X149923000Y-80823750D01*
X150177000Y-80823750D01*
X150177000Y-82423000D01*
X152526250Y-82423000D01*
X152685000Y-82264250D01*
X152688072Y-81300000D01*
X152675812Y-81175518D01*
X152639502Y-81055820D01*
X152580537Y-80945506D01*
X152501185Y-80848815D01*
X152404494Y-80769463D01*
X152294180Y-80710498D01*
X152174482Y-80674188D01*
X152050000Y-80661928D01*
X150335750Y-80665000D01*
X150177000Y-80823750D01*
X149923000Y-80823750D01*
X149764250Y-80665000D01*
X148050000Y-80661928D01*
X147925518Y-80674188D01*
X147805820Y-80710498D01*
X147695506Y-80769463D01*
X147598815Y-80848815D01*
X147519463Y-80945506D01*
X147460498Y-81055820D01*
X147424188Y-81175518D01*
X147411928Y-81300000D01*
X144647728Y-81300000D01*
X144620472Y-81210150D01*
X144538405Y-81056614D01*
X144427962Y-80922038D01*
X144293386Y-80811595D01*
X144139850Y-80729528D01*
X143973254Y-80678992D01*
X143800000Y-80661928D01*
X140300000Y-80661928D01*
X140126746Y-80678992D01*
X139960150Y-80729528D01*
X139806614Y-80811595D01*
X139672038Y-80922038D01*
X139561595Y-81056614D01*
X139479528Y-81210150D01*
X139428992Y-81376746D01*
X139411928Y-81550000D01*
X139411928Y-82678909D01*
X139302082Y-82645588D01*
X139177600Y-82633328D01*
X138563350Y-82636400D01*
X138404600Y-82795150D01*
X138150600Y-82795150D01*
X137991850Y-82636400D01*
X137377600Y-82633328D01*
X137253118Y-82645588D01*
X137133420Y-82681898D01*
X137023106Y-82740863D01*
X136926415Y-82820215D01*
X136847063Y-82916906D01*
X136788098Y-83027220D01*
X136751788Y-83146918D01*
X136739528Y-83271400D01*
X134355072Y-83271400D01*
X134355072Y-82684000D01*
X134338008Y-82510746D01*
X134287472Y-82344150D01*
X134205405Y-82190614D01*
X134094962Y-82056038D01*
X133960386Y-81945595D01*
X133806850Y-81863528D01*
X133640254Y-81812992D01*
X133467000Y-81795928D01*
X132217000Y-81795928D01*
X132043746Y-81812992D01*
X131877150Y-81863528D01*
X131723614Y-81945595D01*
X131650000Y-82006008D01*
X131650000Y-81061992D01*
X131723614Y-81122405D01*
X131877150Y-81204472D01*
X132043746Y-81255008D01*
X132217000Y-81272072D01*
X133467000Y-81272072D01*
X133640254Y-81255008D01*
X133806850Y-81204472D01*
X133960386Y-81122405D01*
X134094962Y-81011962D01*
X134205405Y-80877386D01*
X134287472Y-80723850D01*
X134338008Y-80557254D01*
X134355072Y-80384000D01*
X134355072Y-79584000D01*
X134338008Y-79410746D01*
X134294922Y-79268708D01*
X134390000Y-79278072D01*
X135390000Y-79278072D01*
X135514482Y-79265812D01*
X135634180Y-79229502D01*
X135744494Y-79170537D01*
X135841185Y-79091185D01*
X135890000Y-79031704D01*
X135938815Y-79091185D01*
X136035506Y-79170537D01*
X136130001Y-79221046D01*
X136130001Y-79803927D01*
X136072310Y-79861618D01*
X135992958Y-79958309D01*
X135938502Y-80039808D01*
X135879536Y-80150125D01*
X135842027Y-80240681D01*
X135805718Y-80360377D01*
X135786596Y-80456510D01*
X135774336Y-80580991D01*
X135774336Y-80605550D01*
X135771928Y-80630000D01*
X135771928Y-81130000D01*
X135784188Y-81254482D01*
X135820498Y-81374180D01*
X135879463Y-81484494D01*
X135958815Y-81581185D01*
X136055506Y-81660537D01*
X136165820Y-81719502D01*
X136285518Y-81755812D01*
X136410000Y-81768072D01*
X137910000Y-81768072D01*
X138034482Y-81755812D01*
X138154180Y-81719502D01*
X138264494Y-81660537D01*
X138361185Y-81581185D01*
X138440537Y-81484494D01*
X138499502Y-81374180D01*
X138535812Y-81254482D01*
X138548072Y-81130000D01*
X138548072Y-80630000D01*
X138545664Y-80605550D01*
X138545664Y-80580991D01*
X138533404Y-80456510D01*
X138514282Y-80360377D01*
X138477973Y-80240681D01*
X138440464Y-80150125D01*
X138381498Y-80039808D01*
X138327042Y-79958309D01*
X138247690Y-79861618D01*
X138178382Y-79792310D01*
X138081691Y-79712958D01*
X138000192Y-79658502D01*
X137889875Y-79599536D01*
X137799319Y-79562027D01*
X137679623Y-79525718D01*
X137650000Y-79519826D01*
X137650000Y-79221046D01*
X137744494Y-79170537D01*
X137841185Y-79091185D01*
X137920537Y-78994494D01*
X137979502Y-78884180D01*
X138015812Y-78764482D01*
X138028072Y-78640000D01*
X138028072Y-76140000D01*
X138021817Y-76076481D01*
X143813124Y-76076481D01*
X144125308Y-76525177D01*
X144721259Y-76845612D01*
X145368273Y-77043626D01*
X146041484Y-77111610D01*
X146715023Y-77046949D01*
X147363006Y-76852130D01*
X147960530Y-76534639D01*
X147974692Y-76525177D01*
X148286876Y-76076481D01*
X146050000Y-73839605D01*
X143813124Y-76076481D01*
X138021817Y-76076481D01*
X138015812Y-76015518D01*
X137995644Y-75949032D01*
X138002998Y-75955203D01*
X138005102Y-75956360D01*
X138006953Y-75957891D01*
X138063639Y-75988541D01*
X138120150Y-76019608D01*
X138122442Y-76020335D01*
X138124552Y-76021476D01*
X138186084Y-76040524D01*
X138247580Y-76060031D01*
X138249968Y-76060299D01*
X138252262Y-76061009D01*
X138316366Y-76067746D01*
X138380436Y-76074933D01*
X138385050Y-76074965D01*
X138385218Y-76074983D01*
X138385386Y-76074968D01*
X138390000Y-76075000D01*
X140390000Y-76075000D01*
X140454145Y-76068710D01*
X140518356Y-76062867D01*
X140520662Y-76062188D01*
X140523051Y-76061954D01*
X140584723Y-76043334D01*
X140646606Y-76025121D01*
X140648736Y-76024008D01*
X140651033Y-76023314D01*
X140707886Y-75993084D01*
X140765081Y-75963184D01*
X140766955Y-75961677D01*
X140769073Y-75960551D01*
X140818986Y-75919843D01*
X140869269Y-75879414D01*
X140870813Y-75877573D01*
X140872674Y-75876056D01*
X140913766Y-75826384D01*
X140955203Y-75777002D01*
X140956360Y-75774898D01*
X140957891Y-75773047D01*
X140988541Y-75716361D01*
X141019608Y-75659850D01*
X141020335Y-75657558D01*
X141021476Y-75655448D01*
X141040524Y-75593916D01*
X141060031Y-75532420D01*
X141060299Y-75530032D01*
X141061009Y-75527738D01*
X141067746Y-75463634D01*
X141074933Y-75399564D01*
X141074965Y-75394950D01*
X141074983Y-75394782D01*
X141074968Y-75394614D01*
X141075000Y-75390000D01*
X141075000Y-73651484D01*
X142598390Y-73651484D01*
X142663051Y-74325023D01*
X142857870Y-74973006D01*
X143175361Y-75570530D01*
X143184823Y-75584692D01*
X143633519Y-75896876D01*
X145870395Y-73660000D01*
X146229605Y-73660000D01*
X148466481Y-75896876D01*
X148915177Y-75584692D01*
X149235612Y-74988741D01*
X149433626Y-74341727D01*
X149501610Y-73668516D01*
X149436949Y-72994977D01*
X149242130Y-72346994D01*
X148924639Y-71749470D01*
X148915177Y-71735308D01*
X148466481Y-71423124D01*
X146229605Y-73660000D01*
X145870395Y-73660000D01*
X143633519Y-71423124D01*
X143184823Y-71735308D01*
X142864388Y-72331259D01*
X142666374Y-72978273D01*
X142598390Y-73651484D01*
X141075000Y-73651484D01*
X141075000Y-71390000D01*
X141068710Y-71325855D01*
X141062867Y-71261644D01*
X141062188Y-71259338D01*
X141061954Y-71256949D01*
X141057900Y-71243519D01*
X143813124Y-71243519D01*
X146050000Y-73480395D01*
X148286876Y-71243519D01*
X147974692Y-70794823D01*
X147378741Y-70474388D01*
X146731727Y-70276374D01*
X146058516Y-70208390D01*
X145384977Y-70273051D01*
X144736994Y-70467870D01*
X144139470Y-70785361D01*
X144125308Y-70794823D01*
X143813124Y-71243519D01*
X141057900Y-71243519D01*
X141043334Y-71195277D01*
X141025121Y-71133394D01*
X141024008Y-71131264D01*
X141023314Y-71128967D01*
X140993084Y-71072114D01*
X140963184Y-71014919D01*
X140961677Y-71013045D01*
X140960551Y-71010927D01*
X140919843Y-70961014D01*
X140879414Y-70910731D01*
X140877573Y-70909187D01*
X140876056Y-70907326D01*
X140826384Y-70866234D01*
X140777002Y-70824797D01*
X140774898Y-70823640D01*
X140773047Y-70822109D01*
X140716361Y-70791459D01*
X140659850Y-70760392D01*
X140657558Y-70759665D01*
X140655448Y-70758524D01*
X140593916Y-70739476D01*
X140532420Y-70719969D01*
X140530032Y-70719701D01*
X140527738Y-70718991D01*
X140463634Y-70712254D01*
X140399564Y-70705067D01*
X140394950Y-70705035D01*
X140394782Y-70705017D01*
X140394614Y-70705032D01*
X140390000Y-70705000D01*
X138390000Y-70705000D01*
X138325855Y-70711290D01*
X138261644Y-70717133D01*
X138259338Y-70717812D01*
X138256949Y-70718046D01*
X138195277Y-70736666D01*
X138133394Y-70754879D01*
X138131264Y-70755992D01*
X138128967Y-70756686D01*
X138072114Y-70786916D01*
X138014919Y-70816816D01*
X138013045Y-70818323D01*
X138010927Y-70819449D01*
X137961014Y-70860157D01*
X137910731Y-70900586D01*
X137909187Y-70902427D01*
X137907326Y-70903944D01*
X137866234Y-70953616D01*
X137824797Y-71002998D01*
X137823640Y-71005102D01*
X137822109Y-71006953D01*
X137791459Y-71063639D01*
X137760392Y-71120150D01*
X137759665Y-71122442D01*
X137758524Y-71124552D01*
X137739476Y-71186084D01*
X137719969Y-71247580D01*
X137719701Y-71249968D01*
X137718991Y-71252262D01*
X137712254Y-71316366D01*
X137705067Y-71380436D01*
X137705035Y-71385050D01*
X137705017Y-71385218D01*
X137705032Y-71385386D01*
X137705000Y-71390000D01*
X137705000Y-75390000D01*
X137711290Y-75454145D01*
X137717133Y-75518356D01*
X137717812Y-75520662D01*
X137718046Y-75523051D01*
X137736666Y-75584723D01*
X137743845Y-75609116D01*
X137634180Y-75550498D01*
X137514482Y-75514188D01*
X137390000Y-75501928D01*
X136390000Y-75501928D01*
X136265518Y-75514188D01*
X136145820Y-75550498D01*
X136035506Y-75609463D01*
X135938815Y-75688815D01*
X135890000Y-75748296D01*
X135841185Y-75688815D01*
X135744494Y-75609463D01*
X135634180Y-75550498D01*
X135514482Y-75514188D01*
X135390000Y-75501928D01*
X134550502Y-75501928D01*
X134599226Y-75384298D01*
X134639000Y-75184339D01*
X134639000Y-74980461D01*
X134599226Y-74780502D01*
X134521205Y-74592144D01*
X134407937Y-74422626D01*
X134263774Y-74278463D01*
X134094256Y-74165195D01*
X133905898Y-74087174D01*
X133705939Y-74047400D01*
X133502061Y-74047400D01*
X133302102Y-74087174D01*
X133113744Y-74165195D01*
X132944226Y-74278463D01*
X132900289Y-74322400D01*
X126899920Y-74322400D01*
X126862597Y-74318724D01*
X126825274Y-74322400D01*
X126825265Y-74322400D01*
X126713612Y-74333397D01*
X126570351Y-74376854D01*
X126438321Y-74447426D01*
X126354681Y-74516068D01*
X126322597Y-74542399D01*
X126298799Y-74571397D01*
X126075000Y-74795196D01*
X126075000Y-71390000D01*
X126068710Y-71325855D01*
X126062867Y-71261644D01*
X126062188Y-71259338D01*
X126061954Y-71256949D01*
X126043334Y-71195277D01*
X126025121Y-71133394D01*
X126024008Y-71131264D01*
X126023314Y-71128967D01*
X125993084Y-71072114D01*
X125963184Y-71014919D01*
X125961677Y-71013045D01*
X125960551Y-71010927D01*
X125919843Y-70961014D01*
X125879414Y-70910731D01*
X125877573Y-70909187D01*
X125876056Y-70907326D01*
X125826384Y-70866234D01*
X125777002Y-70824797D01*
X125774898Y-70823640D01*
X125773047Y-70822109D01*
X125716361Y-70791459D01*
X125659850Y-70760392D01*
X125657558Y-70759665D01*
X125655448Y-70758524D01*
X125593916Y-70739476D01*
X125532420Y-70719969D01*
X125530032Y-70719701D01*
X125527738Y-70718991D01*
X125463634Y-70712254D01*
X125399564Y-70705067D01*
X125394950Y-70705035D01*
X125394782Y-70705017D01*
X125394614Y-70705032D01*
X125390000Y-70705000D01*
X123390000Y-70705000D01*
X123325855Y-70711290D01*
X123261644Y-70717133D01*
X123259338Y-70717812D01*
X123256949Y-70718046D01*
X123195277Y-70736666D01*
X123133394Y-70754879D01*
X123131264Y-70755992D01*
X123128967Y-70756686D01*
X123072114Y-70786916D01*
X123014919Y-70816816D01*
X123013045Y-70818323D01*
X123010927Y-70819449D01*
X122961014Y-70860157D01*
X122910731Y-70900586D01*
X122909187Y-70902427D01*
X122907326Y-70903944D01*
X122866234Y-70953616D01*
X122824797Y-71002998D01*
X122823640Y-71005102D01*
X122822109Y-71006953D01*
X122791459Y-71063639D01*
X122760392Y-71120150D01*
X122759665Y-71122442D01*
X122758524Y-71124552D01*
X122739476Y-71186084D01*
X122719969Y-71247580D01*
X122719701Y-71249968D01*
X122718991Y-71252262D01*
X122712254Y-71316366D01*
X122705067Y-71380436D01*
X122705035Y-71385050D01*
X122705017Y-71385218D01*
X122705032Y-71385386D01*
X122705000Y-71390000D01*
X122705000Y-72788930D01*
X122572130Y-72346994D01*
X122254639Y-71749470D01*
X122245177Y-71735308D01*
X121796481Y-71423124D01*
X119559605Y-73660000D01*
X121796481Y-75896876D01*
X122245177Y-75584692D01*
X122565612Y-74988741D01*
X122705000Y-74533288D01*
X122705000Y-75390000D01*
X122711290Y-75454145D01*
X122717133Y-75518356D01*
X122717812Y-75520662D01*
X122718046Y-75523051D01*
X122736666Y-75584723D01*
X122754879Y-75646606D01*
X122755992Y-75648736D01*
X122756686Y-75651033D01*
X122786916Y-75707886D01*
X122816816Y-75765081D01*
X122818323Y-75766955D01*
X122819449Y-75769073D01*
X122860157Y-75818986D01*
X122900586Y-75869269D01*
X122902427Y-75870813D01*
X122903944Y-75872674D01*
X122953616Y-75913766D01*
X123002998Y-75955203D01*
X123005102Y-75956360D01*
X123006953Y-75957891D01*
X123063639Y-75988541D01*
X123120150Y-76019608D01*
X123122442Y-76020335D01*
X123124552Y-76021476D01*
X123186084Y-76040524D01*
X123247580Y-76060031D01*
X123249968Y-76060299D01*
X123252262Y-76061009D01*
X123316366Y-76067746D01*
X123380436Y-76074933D01*
X123385050Y-76074965D01*
X123385218Y-76074983D01*
X123385386Y-76074968D01*
X123390000Y-76075000D01*
X124795196Y-76075000D01*
X122633999Y-78236198D01*
X122605001Y-78259996D01*
X122581203Y-78288994D01*
X122581202Y-78288995D01*
X122510027Y-78375721D01*
X122439455Y-78507751D01*
X122395999Y-78651012D01*
X122381325Y-78799997D01*
X122385002Y-78837329D01*
X122385002Y-79811138D01*
X122367743Y-79803989D01*
X122071184Y-79745000D01*
X121768816Y-79745000D01*
X121472257Y-79803989D01*
X121192905Y-79919701D01*
X120941495Y-80087688D01*
X120727688Y-80301495D01*
X120559701Y-80552905D01*
X120443989Y-80832257D01*
X120385000Y-81128816D01*
X120385000Y-81431184D01*
X120443989Y-81727743D01*
X120559701Y-82007095D01*
X120727688Y-82258505D01*
X120794127Y-82324944D01*
X120775820Y-82330498D01*
X120665506Y-82389463D01*
X120568815Y-82468815D01*
X120489463Y-82565506D01*
X120430498Y-82675820D01*
X120394188Y-82795518D01*
X120381928Y-82920000D01*
X120381928Y-84720000D01*
X120394188Y-84844482D01*
X120430498Y-84964180D01*
X120489463Y-85074494D01*
X120568815Y-85171185D01*
X120665506Y-85250537D01*
X120775820Y-85309502D01*
X120895518Y-85345812D01*
X121020000Y-85358072D01*
X122021249Y-85358072D01*
X122018795Y-85361744D01*
X121940774Y-85550102D01*
X121901000Y-85750061D01*
X121901000Y-85953939D01*
X121939004Y-86145000D01*
X121773740Y-86145000D01*
X121486842Y-86202068D01*
X121216589Y-86314010D01*
X120973368Y-86476525D01*
X120766525Y-86683368D01*
X120644805Y-86865534D01*
X120575178Y-86748645D01*
X120380269Y-86532412D01*
X120146920Y-86358359D01*
X119884099Y-86233175D01*
X119736890Y-86188524D01*
X119507000Y-86309845D01*
X119507000Y-87503000D01*
X119527000Y-87503000D01*
X119527000Y-87757000D01*
X119507000Y-87757000D01*
X119507000Y-87777000D01*
X119253000Y-87777000D01*
X119253000Y-87757000D01*
X119233000Y-87757000D01*
X119233000Y-87503000D01*
X119253000Y-87503000D01*
X119253000Y-86309845D01*
X119023110Y-86188524D01*
X118875901Y-86233175D01*
X118613080Y-86358359D01*
X118379731Y-86532412D01*
X118303966Y-86616466D01*
X118279502Y-86535820D01*
X118220537Y-86425506D01*
X118141185Y-86328815D01*
X118044494Y-86249463D01*
X117934180Y-86190498D01*
X117814482Y-86154188D01*
X117690000Y-86141928D01*
X115990000Y-86141928D01*
X115865518Y-86154188D01*
X115745820Y-86190498D01*
X115635506Y-86249463D01*
X115538815Y-86328815D01*
X115459463Y-86425506D01*
X115400498Y-86535820D01*
X115364188Y-86655518D01*
X115351928Y-86780000D01*
X112420000Y-86780000D01*
X112420000Y-84720000D01*
X115301928Y-84720000D01*
X115314188Y-84844482D01*
X115350498Y-84964180D01*
X115409463Y-85074494D01*
X115488815Y-85171185D01*
X115585506Y-85250537D01*
X115695820Y-85309502D01*
X115815518Y-85345812D01*
X115940000Y-85358072D01*
X116554250Y-85355000D01*
X116713000Y-85196250D01*
X116713000Y-83947000D01*
X116967000Y-83947000D01*
X116967000Y-85196250D01*
X117125750Y-85355000D01*
X117740000Y-85358072D01*
X117864482Y-85345812D01*
X117984180Y-85309502D01*
X118094494Y-85250537D01*
X118191185Y-85171185D01*
X118270537Y-85074494D01*
X118329502Y-84964180D01*
X118365812Y-84844482D01*
X118378072Y-84720000D01*
X118375000Y-84105750D01*
X118216250Y-83947000D01*
X116967000Y-83947000D01*
X116713000Y-83947000D01*
X115463750Y-83947000D01*
X115305000Y-84105750D01*
X115301928Y-84720000D01*
X112420000Y-84720000D01*
X112420000Y-82920000D01*
X115301928Y-82920000D01*
X115305000Y-83534250D01*
X115463750Y-83693000D01*
X116713000Y-83693000D01*
X116713000Y-83673000D01*
X116967000Y-83673000D01*
X116967000Y-83693000D01*
X118216250Y-83693000D01*
X118375000Y-83534250D01*
X118378072Y-82920000D01*
X118365812Y-82795518D01*
X118329502Y-82675820D01*
X118270537Y-82565506D01*
X118191185Y-82468815D01*
X118094494Y-82389463D01*
X117984180Y-82330498D01*
X117965873Y-82324944D01*
X118032312Y-82258505D01*
X118200299Y-82007095D01*
X118316011Y-81727743D01*
X118375000Y-81431184D01*
X118375000Y-81128816D01*
X118316011Y-80832257D01*
X118200299Y-80552905D01*
X118032312Y-80301495D01*
X117818505Y-80087688D01*
X117567095Y-79919701D01*
X117287743Y-79803989D01*
X116991184Y-79745000D01*
X116688816Y-79745000D01*
X116392257Y-79803989D01*
X116112905Y-79919701D01*
X115861495Y-80087688D01*
X115647688Y-80301495D01*
X115479701Y-80552905D01*
X115363989Y-80832257D01*
X115305000Y-81128816D01*
X115305000Y-81431184D01*
X115363989Y-81727743D01*
X115479701Y-82007095D01*
X115647688Y-82258505D01*
X115714127Y-82324944D01*
X115695820Y-82330498D01*
X115585506Y-82389463D01*
X115488815Y-82468815D01*
X115409463Y-82565506D01*
X115350498Y-82675820D01*
X115314188Y-82795518D01*
X115301928Y-82920000D01*
X112420000Y-82920000D01*
X112420000Y-76076481D01*
X117143124Y-76076481D01*
X117455308Y-76525177D01*
X118051259Y-76845612D01*
X118698273Y-77043626D01*
X119371484Y-77111610D01*
X120045023Y-77046949D01*
X120693006Y-76852130D01*
X121290530Y-76534639D01*
X121304692Y-76525177D01*
X121616876Y-76076481D01*
X119380000Y-73839605D01*
X117143124Y-76076481D01*
X112420000Y-76076481D01*
X112420000Y-73683920D01*
X112422353Y-73651484D01*
X115928390Y-73651484D01*
X115993051Y-74325023D01*
X116187870Y-74973006D01*
X116505361Y-75570530D01*
X116514823Y-75584692D01*
X116963519Y-75896876D01*
X119200395Y-73660000D01*
X116963519Y-71423124D01*
X116514823Y-71735308D01*
X116194388Y-72331259D01*
X115996374Y-72978273D01*
X115928390Y-73651484D01*
X112422353Y-73651484D01*
X112494617Y-72655530D01*
X112711739Y-71672102D01*
X112874114Y-71243519D01*
X117143124Y-71243519D01*
X119380000Y-73480395D01*
X121616876Y-71243519D01*
X121304692Y-70794823D01*
X120708741Y-70474388D01*
X120061727Y-70276374D01*
X119388516Y-70208390D01*
X118714977Y-70273051D01*
X118066994Y-70467870D01*
X117469470Y-70785361D01*
X117455308Y-70794823D01*
X117143124Y-71243519D01*
X112874114Y-71243519D01*
X113068546Y-70730325D01*
X113557575Y-69849905D01*
X114168569Y-69049313D01*
X114888732Y-68345306D01*
X115702987Y-67752630D01*
X116594269Y-67283704D01*
X117543900Y-66948353D01*
X118535692Y-66752873D01*
X119400164Y-66700000D01*
X146026080Y-66700000D01*
X147054470Y-66774617D01*
%TA.AperFunction,Conductor*%
D28*
G36*
X147054470Y-66774617D02*
G01*
X148037898Y-66991739D01*
X148979675Y-67348546D01*
X149860095Y-67837575D01*
X150660687Y-68448569D01*
X151364694Y-69168732D01*
X151957370Y-69982987D01*
X152426296Y-70874269D01*
X152761647Y-71823900D01*
X152957127Y-72815692D01*
X153010000Y-73680164D01*
X153010001Y-114276080D01*
X152935382Y-115304470D01*
X152718262Y-116287896D01*
X152361454Y-117229675D01*
X151872424Y-118110095D01*
X151261435Y-118910684D01*
X150541268Y-119614694D01*
X149727013Y-120207370D01*
X148835731Y-120676296D01*
X147886099Y-121011647D01*
X146894309Y-121207127D01*
X146029835Y-121260000D01*
X119403906Y-121260000D01*
X118375530Y-121185382D01*
X117392104Y-120968262D01*
X116450325Y-120611454D01*
X115569905Y-120122424D01*
X114769316Y-119511435D01*
X114065306Y-118791268D01*
X113472630Y-117977013D01*
X113003704Y-117085731D01*
X112873308Y-116716481D01*
X117143124Y-116716481D01*
X117455308Y-117165177D01*
X118051259Y-117485612D01*
X118698273Y-117683626D01*
X119371484Y-117751610D01*
X120045023Y-117686949D01*
X120693006Y-117492130D01*
X121290530Y-117174639D01*
X121304692Y-117165177D01*
X121616876Y-116716481D01*
X143813124Y-116716481D01*
X144125308Y-117165177D01*
X144721259Y-117485612D01*
X145368273Y-117683626D01*
X146041484Y-117751610D01*
X146715023Y-117686949D01*
X147363006Y-117492130D01*
X147960530Y-117174639D01*
X147974692Y-117165177D01*
X148286876Y-116716481D01*
X146050000Y-114479605D01*
X143813124Y-116716481D01*
X121616876Y-116716481D01*
X119380000Y-114479605D01*
X117143124Y-116716481D01*
X112873308Y-116716481D01*
X112668353Y-116136099D01*
X112472873Y-115144309D01*
X112420713Y-114291484D01*
X115928390Y-114291484D01*
X115993051Y-114965023D01*
X116187870Y-115613006D01*
X116505361Y-116210530D01*
X116514823Y-116224692D01*
X116963519Y-116536876D01*
X119200395Y-114300000D01*
X119559605Y-114300000D01*
X121796481Y-116536876D01*
X122245177Y-116224692D01*
X122565612Y-115628741D01*
X122668702Y-115291891D01*
X124923519Y-115291891D01*
X125020843Y-115566252D01*
X125169822Y-115816355D01*
X125364731Y-116032588D01*
X125598080Y-116206641D01*
X125860901Y-116331825D01*
X126008110Y-116376476D01*
X126238000Y-116255155D01*
X126238000Y-115062000D01*
X125044186Y-115062000D01*
X124923519Y-115291891D01*
X122668702Y-115291891D01*
X122763626Y-114981727D01*
X122804385Y-114578109D01*
X124923519Y-114578109D01*
X125044186Y-114808000D01*
X126238000Y-114808000D01*
X126238000Y-113614845D01*
X126008110Y-113493524D01*
X125860901Y-113538175D01*
X125598080Y-113663359D01*
X125364731Y-113837412D01*
X125169822Y-114053645D01*
X125020843Y-114303748D01*
X124923519Y-114578109D01*
X122804385Y-114578109D01*
X122831610Y-114308516D01*
X122766949Y-113634977D01*
X122572130Y-112986994D01*
X122420701Y-112702000D01*
X129009928Y-112702000D01*
X129022188Y-112826482D01*
X129058498Y-112946180D01*
X129117463Y-113056494D01*
X129196815Y-113153185D01*
X129293506Y-113232537D01*
X129403820Y-113291502D01*
X129523518Y-113327812D01*
X129648000Y-113340072D01*
X129762250Y-113337000D01*
X129921000Y-113178250D01*
X129921000Y-112379000D01*
X129171750Y-112379000D01*
X129013000Y-112537750D01*
X129009928Y-112702000D01*
X122420701Y-112702000D01*
X122254639Y-112389470D01*
X122245177Y-112375308D01*
X121796481Y-112063124D01*
X119559605Y-114300000D01*
X119200395Y-114300000D01*
X116963519Y-112063124D01*
X116514823Y-112375308D01*
X116194388Y-112971259D01*
X115996374Y-113618273D01*
X115928390Y-114291484D01*
X112420713Y-114291484D01*
X112420000Y-114279835D01*
X112420000Y-111883519D01*
X117143124Y-111883519D01*
X119380000Y-114120395D01*
X121616876Y-111883519D01*
X121304692Y-111434823D01*
X120748936Y-111136000D01*
X122612928Y-111136000D01*
X122625188Y-111260482D01*
X122661498Y-111380180D01*
X122720463Y-111490494D01*
X122799815Y-111587185D01*
X122896506Y-111666537D01*
X123006820Y-111725502D01*
X123126518Y-111761812D01*
X123251000Y-111774072D01*
X123627750Y-111771000D01*
X123786500Y-111612250D01*
X123786500Y-110363000D01*
X124040500Y-110363000D01*
X124040500Y-111612250D01*
X124199250Y-111771000D01*
X124576000Y-111774072D01*
X124700482Y-111761812D01*
X124820180Y-111725502D01*
X124930494Y-111666537D01*
X125027185Y-111587185D01*
X125106537Y-111490494D01*
X125165502Y-111380180D01*
X125201812Y-111260482D01*
X125214072Y-111136000D01*
X125211000Y-110521750D01*
X125052250Y-110363000D01*
X124040500Y-110363000D01*
X123786500Y-110363000D01*
X122774750Y-110363000D01*
X122616000Y-110521750D01*
X122612928Y-111136000D01*
X120748936Y-111136000D01*
X120708741Y-111114388D01*
X120061727Y-110916374D01*
X119388516Y-110848390D01*
X118714977Y-110913051D01*
X118066994Y-111107870D01*
X117469470Y-111425361D01*
X117455308Y-111434823D01*
X117143124Y-111883519D01*
X112420000Y-111883519D01*
X112420000Y-108306891D01*
X116414519Y-108306891D01*
X116511843Y-108581252D01*
X116660822Y-108831355D01*
X116855731Y-109047588D01*
X117089080Y-109221641D01*
X117351901Y-109346825D01*
X117499110Y-109391476D01*
X117729000Y-109270155D01*
X117729000Y-108077000D01*
X116535186Y-108077000D01*
X116414519Y-108306891D01*
X112420000Y-108306891D01*
X112420000Y-107593109D01*
X116414519Y-107593109D01*
X116535186Y-107823000D01*
X117729000Y-107823000D01*
X117729000Y-106629845D01*
X117983000Y-106629845D01*
X117983000Y-107823000D01*
X118003000Y-107823000D01*
X118003000Y-108077000D01*
X117983000Y-108077000D01*
X117983000Y-109270155D01*
X118212890Y-109391476D01*
X118360099Y-109346825D01*
X118622920Y-109221641D01*
X118856269Y-109047588D01*
X118932034Y-108963534D01*
X118956498Y-109044180D01*
X119015463Y-109154494D01*
X119094815Y-109251185D01*
X119191506Y-109330537D01*
X119301820Y-109389502D01*
X119421518Y-109425812D01*
X119546000Y-109438072D01*
X121246000Y-109438072D01*
X121370482Y-109425812D01*
X121490180Y-109389502D01*
X121600494Y-109330537D01*
X121697185Y-109251185D01*
X121776537Y-109154494D01*
X121835502Y-109044180D01*
X121871812Y-108924482D01*
X121884072Y-108800000D01*
X121884072Y-108710000D01*
X122625224Y-108710000D01*
X122628992Y-108748254D01*
X122679528Y-108914850D01*
X122717810Y-108986470D01*
X122661498Y-109091820D01*
X122625188Y-109211518D01*
X122612928Y-109336000D01*
X122616000Y-109950250D01*
X122774750Y-110109000D01*
X123786500Y-110109000D01*
X123786500Y-110089000D01*
X124040500Y-110089000D01*
X124040500Y-110109000D01*
X125052250Y-110109000D01*
X125211000Y-109950250D01*
X125214072Y-109336000D01*
X125201812Y-109211518D01*
X125165502Y-109091820D01*
X125106537Y-108981506D01*
X125093400Y-108965498D01*
X125120472Y-108914850D01*
X125171008Y-108748254D01*
X125188072Y-108575000D01*
X125188072Y-107325000D01*
X125171008Y-107151746D01*
X125120472Y-106985150D01*
X125038405Y-106831614D01*
X124927962Y-106697038D01*
X124793386Y-106586595D01*
X124639850Y-106504528D01*
X124473254Y-106453992D01*
X124300000Y-106436928D01*
X123500000Y-106436928D01*
X123326746Y-106453992D01*
X123160150Y-106504528D01*
X123006614Y-106586595D01*
X122872038Y-106697038D01*
X122761595Y-106831614D01*
X122679528Y-106985150D01*
X122628992Y-107151746D01*
X122625224Y-107190000D01*
X121884072Y-107190000D01*
X121884072Y-107100000D01*
X121871812Y-106975518D01*
X121835502Y-106855820D01*
X121776537Y-106745506D01*
X121697185Y-106648815D01*
X121600494Y-106569463D01*
X121490180Y-106510498D01*
X121370482Y-106474188D01*
X121246000Y-106461928D01*
X119546000Y-106461928D01*
X119421518Y-106474188D01*
X119301820Y-106510498D01*
X119191506Y-106569463D01*
X119094815Y-106648815D01*
X119015463Y-106745506D01*
X118956498Y-106855820D01*
X118932034Y-106936466D01*
X118856269Y-106852412D01*
X118622920Y-106678359D01*
X118360099Y-106553175D01*
X118212890Y-106508524D01*
X117983000Y-106629845D01*
X117729000Y-106629845D01*
X117499110Y-106508524D01*
X117351901Y-106553175D01*
X117089080Y-106678359D01*
X116855731Y-106852412D01*
X116660822Y-107068645D01*
X116511843Y-107318748D01*
X116414519Y-107593109D01*
X112420000Y-107593109D01*
X112420000Y-94400000D01*
X115351928Y-94400000D01*
X115355000Y-94964250D01*
X115513750Y-95123000D01*
X116713000Y-95123000D01*
X116713000Y-93923750D01*
X116554250Y-93765000D01*
X115990000Y-93761928D01*
X115865518Y-93774188D01*
X115745820Y-93810498D01*
X115635506Y-93869463D01*
X115538815Y-93948815D01*
X115459463Y-94045506D01*
X115400498Y-94155820D01*
X115364188Y-94275518D01*
X115351928Y-94400000D01*
X112420000Y-94400000D01*
X112420000Y-86780000D01*
X115351928Y-86780000D01*
X115351928Y-88480000D01*
X115364188Y-88604482D01*
X115400498Y-88724180D01*
X115459463Y-88834494D01*
X115538815Y-88931185D01*
X115635506Y-89010537D01*
X115745820Y-89069502D01*
X115818380Y-89091513D01*
X115686525Y-89223368D01*
X115524010Y-89466589D01*
X115412068Y-89736842D01*
X115355000Y-90023740D01*
X115355000Y-90316260D01*
X115412068Y-90603158D01*
X115524010Y-90873411D01*
X115686525Y-91116632D01*
X115893368Y-91323475D01*
X116136589Y-91485990D01*
X116406842Y-91597932D01*
X116693740Y-91655000D01*
X116986260Y-91655000D01*
X117168939Y-91618663D01*
X117192795Y-91676256D01*
X117306063Y-91845774D01*
X117450226Y-91989937D01*
X117619744Y-92103205D01*
X117808102Y-92181226D01*
X118008061Y-92221000D01*
X118211939Y-92221000D01*
X118411898Y-92181226D01*
X118595920Y-92105001D01*
X120707677Y-92105001D01*
X120744999Y-92108677D01*
X120782321Y-92105001D01*
X120782332Y-92105001D01*
X120893985Y-92094004D01*
X121037246Y-92050547D01*
X121169275Y-91979975D01*
X121285000Y-91885002D01*
X121308803Y-91855998D01*
X121553592Y-91611209D01*
X121773740Y-91655000D01*
X122066260Y-91655000D01*
X122353158Y-91597932D01*
X122476175Y-91546977D01*
X123679000Y-92749803D01*
X123679000Y-92811939D01*
X123718774Y-93011898D01*
X123796795Y-93200256D01*
X123910063Y-93369774D01*
X124054226Y-93513937D01*
X124223744Y-93627205D01*
X124412102Y-93705226D01*
X124462001Y-93715151D01*
X124462000Y-96713198D01*
X123405000Y-97770198D01*
X123405000Y-97662998D01*
X123240815Y-97662998D01*
X123361481Y-97433109D01*
X123264157Y-97158748D01*
X123115178Y-96908645D01*
X122920269Y-96692412D01*
X122689120Y-96520000D01*
X122920269Y-96347588D01*
X123115178Y-96131355D01*
X123264157Y-95881252D01*
X123361481Y-95606891D01*
X123240814Y-95377000D01*
X122047000Y-95377000D01*
X122047000Y-97663000D01*
X122067000Y-97663000D01*
X122067000Y-97917000D01*
X122047000Y-97917000D01*
X122047000Y-97937000D01*
X121793000Y-97937000D01*
X121793000Y-97917000D01*
X121773000Y-97917000D01*
X121773000Y-97663000D01*
X121793000Y-97663000D01*
X121793000Y-95377000D01*
X121773000Y-95377000D01*
X121773000Y-95123000D01*
X121793000Y-95123000D01*
X121793000Y-93929845D01*
X122047000Y-93929845D01*
X122047000Y-95123000D01*
X123240814Y-95123000D01*
X123361481Y-94893109D01*
X123264157Y-94618748D01*
X123115178Y-94368645D01*
X122920269Y-94152412D01*
X122686920Y-93978359D01*
X122424099Y-93853175D01*
X122276890Y-93808524D01*
X122047000Y-93929845D01*
X121793000Y-93929845D01*
X121563110Y-93808524D01*
X121415901Y-93853175D01*
X121153080Y-93978359D01*
X120919731Y-94152412D01*
X120724822Y-94368645D01*
X120655195Y-94485534D01*
X120533475Y-94303368D01*
X120326632Y-94096525D01*
X120083411Y-93934010D01*
X119813158Y-93822068D01*
X119526260Y-93765000D01*
X119233740Y-93765000D01*
X118946842Y-93822068D01*
X118676589Y-93934010D01*
X118433368Y-94096525D01*
X118301513Y-94228380D01*
X118279502Y-94155820D01*
X118220537Y-94045506D01*
X118141185Y-93948815D01*
X118044494Y-93869463D01*
X117934180Y-93810498D01*
X117814482Y-93774188D01*
X117690000Y-93761928D01*
X117125750Y-93765000D01*
X116967000Y-93923750D01*
X116967000Y-95123000D01*
X116987000Y-95123000D01*
X116987000Y-95377000D01*
X116967000Y-95377000D01*
X116967000Y-95397000D01*
X116713000Y-95397000D01*
X116713000Y-95377000D01*
X115513750Y-95377000D01*
X115355000Y-95535750D01*
X115351928Y-96100000D01*
X115364188Y-96224482D01*
X115400498Y-96344180D01*
X115459463Y-96454494D01*
X115538815Y-96551185D01*
X115635506Y-96630537D01*
X115745820Y-96689502D01*
X115818380Y-96711513D01*
X115686525Y-96843368D01*
X115524010Y-97086589D01*
X115412068Y-97356842D01*
X115355000Y-97643740D01*
X115355000Y-97936260D01*
X115412068Y-98223158D01*
X115524010Y-98493411D01*
X115686525Y-98736632D01*
X115893368Y-98943475D01*
X116136589Y-99105990D01*
X116406842Y-99217932D01*
X116693740Y-99275000D01*
X116986260Y-99275000D01*
X117273158Y-99217932D01*
X117543411Y-99105990D01*
X117786632Y-98943475D01*
X117993475Y-98736632D01*
X118110000Y-98562240D01*
X118226525Y-98736632D01*
X118433368Y-98943475D01*
X118676589Y-99105990D01*
X118946842Y-99217932D01*
X119233740Y-99275000D01*
X119526260Y-99275000D01*
X119813158Y-99217932D01*
X120083411Y-99105990D01*
X120326632Y-98943475D01*
X120533475Y-98736632D01*
X120655195Y-98554466D01*
X120724822Y-98671355D01*
X120919731Y-98887588D01*
X121153080Y-99061641D01*
X121415901Y-99186825D01*
X121563110Y-99231476D01*
X121792998Y-99110156D01*
X121792998Y-99275000D01*
X121900199Y-99275000D01*
X119746408Y-101428791D01*
X119526260Y-101385000D01*
X119233740Y-101385000D01*
X118946842Y-101442068D01*
X118676589Y-101554010D01*
X118433368Y-101716525D01*
X118301513Y-101848380D01*
X118279502Y-101775820D01*
X118220537Y-101665506D01*
X118141185Y-101568815D01*
X118044494Y-101489463D01*
X117934180Y-101430498D01*
X117814482Y-101394188D01*
X117690000Y-101381928D01*
X115990000Y-101381928D01*
X115865518Y-101394188D01*
X115745820Y-101430498D01*
X115635506Y-101489463D01*
X115538815Y-101568815D01*
X115459463Y-101665506D01*
X115400498Y-101775820D01*
X115364188Y-101895518D01*
X115351928Y-102020000D01*
X115351928Y-103720000D01*
X115364188Y-103844482D01*
X115400498Y-103964180D01*
X115459463Y-104074494D01*
X115538815Y-104171185D01*
X115635506Y-104250537D01*
X115745820Y-104309502D01*
X115865518Y-104345812D01*
X115990000Y-104358072D01*
X117253270Y-104358072D01*
X117546201Y-104651003D01*
X117569999Y-104680001D01*
X117685724Y-104774974D01*
X117817753Y-104845546D01*
X117961014Y-104889003D01*
X118072667Y-104900000D01*
X118072676Y-104900000D01*
X118109999Y-104903676D01*
X118147322Y-104900000D01*
X123413224Y-104900000D01*
X123416992Y-104938254D01*
X123467528Y-105104850D01*
X123549595Y-105258386D01*
X123660038Y-105392962D01*
X123794614Y-105503405D01*
X123948150Y-105585472D01*
X124114746Y-105636008D01*
X124288000Y-105653072D01*
X125213000Y-105653072D01*
X125386254Y-105636008D01*
X125552850Y-105585472D01*
X125706386Y-105503405D01*
X125840962Y-105392962D01*
X125951405Y-105258386D01*
X125964039Y-105234750D01*
X125982444Y-105295426D01*
X126053016Y-105427456D01*
X126124191Y-105514182D01*
X126147990Y-105543181D01*
X126176988Y-105566979D01*
X127046936Y-106436928D01*
X126600000Y-106436928D01*
X126426746Y-106453992D01*
X126260150Y-106504528D01*
X126106614Y-106586595D01*
X125972038Y-106697038D01*
X125861595Y-106831614D01*
X125779528Y-106985150D01*
X125728992Y-107151746D01*
X125711928Y-107325000D01*
X125711928Y-108575000D01*
X125728992Y-108748254D01*
X125779528Y-108914850D01*
X125861595Y-109068386D01*
X125885182Y-109097127D01*
X125805528Y-109246149D01*
X125754992Y-109412745D01*
X125737928Y-109585999D01*
X125737928Y-110886001D01*
X125754992Y-111059255D01*
X125805528Y-111225851D01*
X125887595Y-111379387D01*
X125998038Y-111513962D01*
X126132613Y-111624405D01*
X126286149Y-111706472D01*
X126452745Y-111757008D01*
X126625999Y-111774072D01*
X127451001Y-111774072D01*
X127496137Y-111769627D01*
X127514499Y-111792001D01*
X127543497Y-111815799D01*
X127630223Y-111886974D01*
X127717119Y-111933421D01*
X127762253Y-111957546D01*
X127905514Y-112001003D01*
X128017167Y-112012000D01*
X128017177Y-112012000D01*
X128054500Y-112015676D01*
X128091822Y-112012000D01*
X129058750Y-112012000D01*
X129171750Y-112125000D01*
X129921000Y-112125000D01*
X129921000Y-112105000D01*
X130175000Y-112105000D01*
X130175000Y-112125000D01*
X130924250Y-112125000D01*
X131083000Y-111966250D01*
X131083691Y-111929322D01*
X131103001Y-111958222D01*
X131247164Y-112102385D01*
X131416682Y-112215653D01*
X131605040Y-112293674D01*
X131718881Y-112316318D01*
X130977768Y-113057431D01*
X130978537Y-113056494D01*
X131037502Y-112946180D01*
X131073812Y-112826482D01*
X131086072Y-112702000D01*
X131083000Y-112537750D01*
X130924250Y-112379000D01*
X130175000Y-112379000D01*
X130175000Y-113178250D01*
X130333750Y-113337000D01*
X130448000Y-113340072D01*
X130572482Y-113327812D01*
X130692180Y-113291502D01*
X130802494Y-113232537D01*
X130846144Y-113196714D01*
X130810026Y-113240724D01*
X130758565Y-113337000D01*
X130739454Y-113372754D01*
X130695997Y-113516015D01*
X130685000Y-113627668D01*
X130685000Y-113627678D01*
X130681927Y-113658875D01*
X130498368Y-113781525D01*
X130291525Y-113988368D01*
X130175000Y-114162760D01*
X130058475Y-113988368D01*
X129851632Y-113781525D01*
X129608411Y-113619010D01*
X129338158Y-113507068D01*
X129051260Y-113450000D01*
X128758740Y-113450000D01*
X128471842Y-113507068D01*
X128201589Y-113619010D01*
X127958368Y-113781525D01*
X127751525Y-113988368D01*
X127629805Y-114170534D01*
X127560178Y-114053645D01*
X127365269Y-113837412D01*
X127131920Y-113663359D01*
X126869099Y-113538175D01*
X126721890Y-113493524D01*
X126492000Y-113614845D01*
X126492000Y-114808000D01*
X126512000Y-114808000D01*
X126512000Y-115062000D01*
X126492000Y-115062000D01*
X126492000Y-116255155D01*
X126721890Y-116376476D01*
X126869099Y-116331825D01*
X127131920Y-116206641D01*
X127365269Y-116032588D01*
X127560178Y-115816355D01*
X127629805Y-115699466D01*
X127751525Y-115881632D01*
X127958368Y-116088475D01*
X128201589Y-116250990D01*
X128471842Y-116362932D01*
X128758740Y-116420000D01*
X129051260Y-116420000D01*
X129338158Y-116362932D01*
X129608411Y-116250990D01*
X129851632Y-116088475D01*
X130058475Y-115881632D01*
X130175000Y-115707240D01*
X130291525Y-115881632D01*
X130498368Y-116088475D01*
X130741589Y-116250990D01*
X131011842Y-116362932D01*
X131298740Y-116420000D01*
X131591260Y-116420000D01*
X131878158Y-116362932D01*
X132148411Y-116250990D01*
X132391632Y-116088475D01*
X132523487Y-115956620D01*
X132545498Y-116029180D01*
X132604463Y-116139494D01*
X132683815Y-116236185D01*
X132780506Y-116315537D01*
X132890820Y-116374502D01*
X133010518Y-116410812D01*
X133135000Y-116423072D01*
X134835000Y-116423072D01*
X134959482Y-116410812D01*
X135079180Y-116374502D01*
X135189494Y-116315537D01*
X135286185Y-116236185D01*
X135365537Y-116139494D01*
X135424502Y-116029180D01*
X135460812Y-115909482D01*
X135473072Y-115785000D01*
X135473072Y-115695000D01*
X141377678Y-115695000D01*
X141415000Y-115698676D01*
X141452322Y-115695000D01*
X141452333Y-115695000D01*
X141563986Y-115684003D01*
X141707247Y-115640546D01*
X141839276Y-115569974D01*
X141955001Y-115475001D01*
X141978803Y-115445998D01*
X142561002Y-114863800D01*
X142590001Y-114840001D01*
X142644655Y-114773405D01*
X142663051Y-114965023D01*
X142857870Y-115613006D01*
X143175361Y-116210530D01*
X143184823Y-116224692D01*
X143633519Y-116536876D01*
X145870395Y-114300000D01*
X146229605Y-114300000D01*
X148466481Y-116536876D01*
X148915177Y-116224692D01*
X149235612Y-115628741D01*
X149433626Y-114981727D01*
X149501610Y-114308516D01*
X149436949Y-113634977D01*
X149242130Y-112986994D01*
X148924639Y-112389470D01*
X148915177Y-112375308D01*
X148466481Y-112063124D01*
X146229605Y-114300000D01*
X145870395Y-114300000D01*
X143633519Y-112063124D01*
X143184823Y-112375308D01*
X142864388Y-112971259D01*
X142810000Y-113148973D01*
X142810000Y-111883519D01*
X143813124Y-111883519D01*
X146050000Y-114120395D01*
X148286876Y-111883519D01*
X147974692Y-111434823D01*
X147378741Y-111114388D01*
X146731727Y-110916374D01*
X146058516Y-110848390D01*
X145384977Y-110913051D01*
X144736994Y-111107870D01*
X144139470Y-111425361D01*
X144125308Y-111434823D01*
X143813124Y-111883519D01*
X142810000Y-111883519D01*
X142810000Y-107298072D01*
X143800000Y-107298072D01*
X143973254Y-107281008D01*
X144139850Y-107230472D01*
X144293386Y-107148405D01*
X144427962Y-107037962D01*
X144538405Y-106903386D01*
X144620472Y-106749850D01*
X144647727Y-106660000D01*
X147411928Y-106660000D01*
X147424188Y-106784482D01*
X147460498Y-106904180D01*
X147519463Y-107014494D01*
X147598815Y-107111185D01*
X147695506Y-107190537D01*
X147805820Y-107249502D01*
X147925518Y-107285812D01*
X148050000Y-107298072D01*
X149764250Y-107295000D01*
X149923000Y-107136250D01*
X149923000Y-105537000D01*
X150177000Y-105537000D01*
X150177000Y-107136250D01*
X150335750Y-107295000D01*
X152050000Y-107298072D01*
X152174482Y-107285812D01*
X152294180Y-107249502D01*
X152404494Y-107190537D01*
X152501185Y-107111185D01*
X152580537Y-107014494D01*
X152639502Y-106904180D01*
X152675812Y-106784482D01*
X152688072Y-106660000D01*
X152685000Y-105695750D01*
X152526250Y-105537000D01*
X150177000Y-105537000D01*
X149923000Y-105537000D01*
X147573750Y-105537000D01*
X147415000Y-105695750D01*
X147411928Y-106660000D01*
X144647727Y-106660000D01*
X144671008Y-106583254D01*
X144688072Y-106410000D01*
X144688072Y-104410000D01*
X144671008Y-104236746D01*
X144647728Y-104160000D01*
X147411928Y-104160000D01*
X147415000Y-105124250D01*
X147573750Y-105283000D01*
X149923000Y-105283000D01*
X149923000Y-103683750D01*
X150177000Y-103683750D01*
X150177000Y-105283000D01*
X152526250Y-105283000D01*
X152685000Y-105124250D01*
X152688072Y-104160000D01*
X152675812Y-104035518D01*
X152639502Y-103915820D01*
X152580537Y-103805506D01*
X152501185Y-103708815D01*
X152404494Y-103629463D01*
X152294180Y-103570498D01*
X152174482Y-103534188D01*
X152050000Y-103521928D01*
X150335750Y-103525000D01*
X150177000Y-103683750D01*
X149923000Y-103683750D01*
X149764250Y-103525000D01*
X148050000Y-103521928D01*
X147925518Y-103534188D01*
X147805820Y-103570498D01*
X147695506Y-103629463D01*
X147598815Y-103708815D01*
X147519463Y-103805506D01*
X147460498Y-103915820D01*
X147424188Y-104035518D01*
X147411928Y-104160000D01*
X144647728Y-104160000D01*
X144620472Y-104070150D01*
X144538405Y-103916614D01*
X144427962Y-103782038D01*
X144293386Y-103671595D01*
X144139850Y-103589528D01*
X143973254Y-103538992D01*
X143800000Y-103521928D01*
X143299284Y-103521928D01*
X143646018Y-103175195D01*
X143675002Y-103151409D01*
X143698795Y-103122418D01*
X143698808Y-103122405D01*
X143752788Y-103056629D01*
X143769977Y-103035685D01*
X143769978Y-103035682D01*
X143769982Y-103035678D01*
X143825008Y-102932733D01*
X143840550Y-102903657D01*
X143840551Y-102903653D01*
X143840554Y-102903648D01*
X143843931Y-102892516D01*
X143853975Y-102880277D01*
X143924547Y-102748248D01*
X143968004Y-102604987D01*
X143979001Y-102493334D01*
X143979001Y-102493324D01*
X143982677Y-102456002D01*
X143979001Y-102418679D01*
X143979001Y-101797332D01*
X143982678Y-101759999D01*
X143968004Y-101611013D01*
X143924547Y-101467752D01*
X143904634Y-101430498D01*
X143853975Y-101335723D01*
X143759002Y-101219998D01*
X143729999Y-101196196D01*
X143405805Y-100872002D01*
X143382002Y-100842998D01*
X143266277Y-100748025D01*
X143134248Y-100677453D01*
X142990987Y-100633996D01*
X142879334Y-100622999D01*
X142879323Y-100622999D01*
X142842001Y-100619323D01*
X142810000Y-100622475D01*
X142810000Y-96315010D01*
X144000858Y-96315010D01*
X144038180Y-96318686D01*
X144075502Y-96315010D01*
X144075513Y-96315010D01*
X144187166Y-96304013D01*
X144330427Y-96260556D01*
X144462456Y-96189984D01*
X144578181Y-96095011D01*
X144601984Y-96066007D01*
X144886007Y-95781984D01*
X144915011Y-95758181D01*
X145009984Y-95642456D01*
X145080556Y-95510427D01*
X145124013Y-95367166D01*
X145135010Y-95255513D01*
X145137522Y-95230000D01*
X147411928Y-95230000D01*
X147424188Y-95354482D01*
X147460498Y-95474180D01*
X147519463Y-95584494D01*
X147598815Y-95681185D01*
X147695506Y-95760537D01*
X147805820Y-95819502D01*
X147925518Y-95855812D01*
X148050000Y-95868072D01*
X149764250Y-95865000D01*
X149923000Y-95706250D01*
X149923000Y-94107000D01*
X150177000Y-94107000D01*
X150177000Y-95706250D01*
X150335750Y-95865000D01*
X152050000Y-95868072D01*
X152174482Y-95855812D01*
X152294180Y-95819502D01*
X152404494Y-95760537D01*
X152501185Y-95681185D01*
X152580537Y-95584494D01*
X152639502Y-95474180D01*
X152675812Y-95354482D01*
X152688072Y-95230000D01*
X152685000Y-94265750D01*
X152526250Y-94107000D01*
X150177000Y-94107000D01*
X149923000Y-94107000D01*
X147573750Y-94107000D01*
X147415000Y-94265750D01*
X147411928Y-95230000D01*
X145137522Y-95230000D01*
X145138687Y-95218180D01*
X145135010Y-95180847D01*
X145135010Y-92779153D01*
X145138687Y-92741820D01*
X145137523Y-92730000D01*
X147411928Y-92730000D01*
X147415000Y-93694250D01*
X147573750Y-93853000D01*
X149923000Y-93853000D01*
X149923000Y-92253750D01*
X150177000Y-92253750D01*
X150177000Y-93853000D01*
X152526250Y-93853000D01*
X152685000Y-93694250D01*
X152688072Y-92730000D01*
X152675812Y-92605518D01*
X152639502Y-92485820D01*
X152580537Y-92375506D01*
X152501185Y-92278815D01*
X152404494Y-92199463D01*
X152294180Y-92140498D01*
X152174482Y-92104188D01*
X152050000Y-92091928D01*
X150335750Y-92095000D01*
X150177000Y-92253750D01*
X149923000Y-92253750D01*
X149764250Y-92095000D01*
X148050000Y-92091928D01*
X147925518Y-92104188D01*
X147805820Y-92140498D01*
X147695506Y-92199463D01*
X147598815Y-92278815D01*
X147519463Y-92375506D01*
X147460498Y-92485820D01*
X147424188Y-92605518D01*
X147411928Y-92730000D01*
X145137523Y-92730000D01*
X145124013Y-92592834D01*
X145080556Y-92449573D01*
X145076681Y-92442323D01*
X145009984Y-92317544D01*
X144915011Y-92201819D01*
X144886008Y-92178017D01*
X144601984Y-91893993D01*
X144578181Y-91864989D01*
X144462456Y-91770016D01*
X144330427Y-91699444D01*
X144187166Y-91655987D01*
X144075513Y-91644990D01*
X144075502Y-91644990D01*
X144038180Y-91641314D01*
X144000858Y-91644990D01*
X142810000Y-91644990D01*
X142810000Y-91126991D01*
X144981193Y-88955799D01*
X145010191Y-88932001D01*
X145105164Y-88816276D01*
X145175736Y-88684247D01*
X145219193Y-88540986D01*
X145233867Y-88392000D01*
X145219193Y-88243014D01*
X145175736Y-88099753D01*
X145105164Y-87967724D01*
X145010191Y-87851999D01*
X144894466Y-87757026D01*
X144762437Y-87686454D01*
X144619176Y-87642997D01*
X144507523Y-87632000D01*
X144470190Y-87628323D01*
X144432857Y-87632000D01*
X139976303Y-87632000D01*
X139815672Y-87471370D01*
X139815672Y-86646399D01*
X139798608Y-86473145D01*
X139748072Y-86306549D01*
X139666005Y-86153013D01*
X139555562Y-86018438D01*
X139420987Y-85907995D01*
X139267451Y-85825928D01*
X139100855Y-85775392D01*
X138927601Y-85758328D01*
X137627599Y-85758328D01*
X137454345Y-85775392D01*
X137287749Y-85825928D01*
X137134213Y-85907995D01*
X136999638Y-86018438D01*
X136926136Y-86108000D01*
X136922189Y-86108000D01*
X136803745Y-86072071D01*
X136650000Y-86056928D01*
X135961730Y-86056928D01*
X134501202Y-84596400D01*
X136739528Y-84596400D01*
X136751788Y-84720882D01*
X136788098Y-84840580D01*
X136847063Y-84950894D01*
X136926415Y-85047585D01*
X137023106Y-85126937D01*
X137133420Y-85185902D01*
X137253118Y-85222212D01*
X137377600Y-85234472D01*
X137991850Y-85231400D01*
X138150600Y-85072650D01*
X138150600Y-84060900D01*
X136901350Y-84060900D01*
X136742600Y-84219650D01*
X136739528Y-84596400D01*
X134501202Y-84596400D01*
X134052012Y-84147210D01*
X134094962Y-84111962D01*
X134205405Y-83977386D01*
X134287472Y-83823850D01*
X134338008Y-83657254D01*
X134355072Y-83484000D01*
X134355072Y-83271400D01*
X136739528Y-83271400D01*
X136742600Y-83648150D01*
X136901350Y-83806900D01*
X138150600Y-83806900D01*
X138150600Y-82795150D01*
X138404600Y-82795150D01*
X138404600Y-83806900D01*
X138424600Y-83806900D01*
X138424600Y-84060900D01*
X138404600Y-84060900D01*
X138404600Y-85072650D01*
X138563350Y-85231400D01*
X139177600Y-85234472D01*
X139302082Y-85222212D01*
X139421780Y-85185902D01*
X139532094Y-85126937D01*
X139628785Y-85047585D01*
X139708137Y-84950894D01*
X139767102Y-84840580D01*
X139803412Y-84720882D01*
X139815672Y-84596400D01*
X139813189Y-84291920D01*
X139960150Y-84370472D01*
X140126746Y-84421008D01*
X140300000Y-84438072D01*
X141290001Y-84438072D01*
X141290001Y-85948915D01*
X141244774Y-86058102D01*
X141205000Y-86258061D01*
X141205000Y-86461939D01*
X141244774Y-86661898D01*
X141322795Y-86850256D01*
X141436063Y-87019774D01*
X141580226Y-87163937D01*
X141749744Y-87277205D01*
X141938102Y-87355226D01*
X142138061Y-87395000D01*
X142341939Y-87395000D01*
X142541898Y-87355226D01*
X142730256Y-87277205D01*
X142899774Y-87163937D01*
X143043937Y-87019774D01*
X143157205Y-86850256D01*
X143235226Y-86661898D01*
X143275000Y-86461939D01*
X143275000Y-86258061D01*
X143235226Y-86058102D01*
X143157205Y-85869744D01*
X143043937Y-85700226D01*
X142899774Y-85556063D01*
X142810000Y-85496078D01*
X142810000Y-84438072D01*
X143800000Y-84438072D01*
X143973254Y-84421008D01*
X144139850Y-84370472D01*
X144293386Y-84288405D01*
X144427962Y-84177962D01*
X144538405Y-84043386D01*
X144620472Y-83889850D01*
X144647727Y-83800000D01*
X147411928Y-83800000D01*
X147424188Y-83924482D01*
X147460498Y-84044180D01*
X147519463Y-84154494D01*
X147598815Y-84251185D01*
X147695506Y-84330537D01*
X147805820Y-84389502D01*
X147925518Y-84425812D01*
X148050000Y-84438072D01*
X149764250Y-84435000D01*
X149923000Y-84276250D01*
X149923000Y-82677000D01*
X150177000Y-82677000D01*
X150177000Y-84276250D01*
X150335750Y-84435000D01*
X152050000Y-84438072D01*
X152174482Y-84425812D01*
X152294180Y-84389502D01*
X152404494Y-84330537D01*
X152501185Y-84251185D01*
X152580537Y-84154494D01*
X152639502Y-84044180D01*
X152675812Y-83924482D01*
X152688072Y-83800000D01*
X152685000Y-82835750D01*
X152526250Y-82677000D01*
X150177000Y-82677000D01*
X149923000Y-82677000D01*
X147573750Y-82677000D01*
X147415000Y-82835750D01*
X147411928Y-83800000D01*
X144647727Y-83800000D01*
X144671008Y-83723254D01*
X144688072Y-83550000D01*
X144688072Y-81550000D01*
X144671008Y-81376746D01*
X144647728Y-81300000D01*
X147411928Y-81300000D01*
X147415000Y-82264250D01*
X147573750Y-82423000D01*
X149923000Y-82423000D01*
X149923000Y-80823750D01*
X150177000Y-80823750D01*
X150177000Y-82423000D01*
X152526250Y-82423000D01*
X152685000Y-82264250D01*
X152688072Y-81300000D01*
X152675812Y-81175518D01*
X152639502Y-81055820D01*
X152580537Y-80945506D01*
X152501185Y-80848815D01*
X152404494Y-80769463D01*
X152294180Y-80710498D01*
X152174482Y-80674188D01*
X152050000Y-80661928D01*
X150335750Y-80665000D01*
X150177000Y-80823750D01*
X149923000Y-80823750D01*
X149764250Y-80665000D01*
X148050000Y-80661928D01*
X147925518Y-80674188D01*
X147805820Y-80710498D01*
X147695506Y-80769463D01*
X147598815Y-80848815D01*
X147519463Y-80945506D01*
X147460498Y-81055820D01*
X147424188Y-81175518D01*
X147411928Y-81300000D01*
X144647728Y-81300000D01*
X144620472Y-81210150D01*
X144538405Y-81056614D01*
X144427962Y-80922038D01*
X144293386Y-80811595D01*
X144139850Y-80729528D01*
X143973254Y-80678992D01*
X143800000Y-80661928D01*
X140300000Y-80661928D01*
X140126746Y-80678992D01*
X139960150Y-80729528D01*
X139806614Y-80811595D01*
X139672038Y-80922038D01*
X139561595Y-81056614D01*
X139479528Y-81210150D01*
X139428992Y-81376746D01*
X139411928Y-81550000D01*
X139411928Y-82678909D01*
X139302082Y-82645588D01*
X139177600Y-82633328D01*
X138563350Y-82636400D01*
X138404600Y-82795150D01*
X138150600Y-82795150D01*
X137991850Y-82636400D01*
X137377600Y-82633328D01*
X137253118Y-82645588D01*
X137133420Y-82681898D01*
X137023106Y-82740863D01*
X136926415Y-82820215D01*
X136847063Y-82916906D01*
X136788098Y-83027220D01*
X136751788Y-83146918D01*
X136739528Y-83271400D01*
X134355072Y-83271400D01*
X134355072Y-82684000D01*
X134338008Y-82510746D01*
X134287472Y-82344150D01*
X134205405Y-82190614D01*
X134094962Y-82056038D01*
X133960386Y-81945595D01*
X133806850Y-81863528D01*
X133640254Y-81812992D01*
X133467000Y-81795928D01*
X132217000Y-81795928D01*
X132043746Y-81812992D01*
X131877150Y-81863528D01*
X131723614Y-81945595D01*
X131650000Y-82006008D01*
X131650000Y-81061992D01*
X131723614Y-81122405D01*
X131877150Y-81204472D01*
X132043746Y-81255008D01*
X132217000Y-81272072D01*
X133467000Y-81272072D01*
X133640254Y-81255008D01*
X133806850Y-81204472D01*
X133960386Y-81122405D01*
X134094962Y-81011962D01*
X134205405Y-80877386D01*
X134287472Y-80723850D01*
X134338008Y-80557254D01*
X134355072Y-80384000D01*
X134355072Y-79584000D01*
X134338008Y-79410746D01*
X134294922Y-79268708D01*
X134390000Y-79278072D01*
X135390000Y-79278072D01*
X135514482Y-79265812D01*
X135634180Y-79229502D01*
X135744494Y-79170537D01*
X135841185Y-79091185D01*
X135890000Y-79031704D01*
X135938815Y-79091185D01*
X136035506Y-79170537D01*
X136130001Y-79221046D01*
X136130001Y-79803927D01*
X136072310Y-79861618D01*
X135992958Y-79958309D01*
X135938502Y-80039808D01*
X135879536Y-80150125D01*
X135842027Y-80240681D01*
X135805718Y-80360377D01*
X135786596Y-80456510D01*
X135774336Y-80580991D01*
X135774336Y-80605550D01*
X135771928Y-80630000D01*
X135771928Y-81130000D01*
X135784188Y-81254482D01*
X135820498Y-81374180D01*
X135879463Y-81484494D01*
X135958815Y-81581185D01*
X136055506Y-81660537D01*
X136165820Y-81719502D01*
X136285518Y-81755812D01*
X136410000Y-81768072D01*
X137910000Y-81768072D01*
X138034482Y-81755812D01*
X138154180Y-81719502D01*
X138264494Y-81660537D01*
X138361185Y-81581185D01*
X138440537Y-81484494D01*
X138499502Y-81374180D01*
X138535812Y-81254482D01*
X138548072Y-81130000D01*
X138548072Y-80630000D01*
X138545664Y-80605550D01*
X138545664Y-80580991D01*
X138533404Y-80456510D01*
X138514282Y-80360377D01*
X138477973Y-80240681D01*
X138440464Y-80150125D01*
X138381498Y-80039808D01*
X138327042Y-79958309D01*
X138247690Y-79861618D01*
X138178382Y-79792310D01*
X138081691Y-79712958D01*
X138000192Y-79658502D01*
X137889875Y-79599536D01*
X137799319Y-79562027D01*
X137679623Y-79525718D01*
X137650000Y-79519826D01*
X137650000Y-79221046D01*
X137744494Y-79170537D01*
X137841185Y-79091185D01*
X137920537Y-78994494D01*
X137979502Y-78884180D01*
X138015812Y-78764482D01*
X138028072Y-78640000D01*
X138028072Y-76140000D01*
X138021817Y-76076481D01*
X143813124Y-76076481D01*
X144125308Y-76525177D01*
X144721259Y-76845612D01*
X145368273Y-77043626D01*
X146041484Y-77111610D01*
X146715023Y-77046949D01*
X147363006Y-76852130D01*
X147960530Y-76534639D01*
X147974692Y-76525177D01*
X148286876Y-76076481D01*
X146050000Y-73839605D01*
X143813124Y-76076481D01*
X138021817Y-76076481D01*
X138015812Y-76015518D01*
X137995644Y-75949032D01*
X138002998Y-75955203D01*
X138005102Y-75956360D01*
X138006953Y-75957891D01*
X138063639Y-75988541D01*
X138120150Y-76019608D01*
X138122442Y-76020335D01*
X138124552Y-76021476D01*
X138186084Y-76040524D01*
X138247580Y-76060031D01*
X138249968Y-76060299D01*
X138252262Y-76061009D01*
X138316366Y-76067746D01*
X138380436Y-76074933D01*
X138385050Y-76074965D01*
X138385218Y-76074983D01*
X138385386Y-76074968D01*
X138390000Y-76075000D01*
X140390000Y-76075000D01*
X140454145Y-76068710D01*
X140518356Y-76062867D01*
X140520662Y-76062188D01*
X140523051Y-76061954D01*
X140584723Y-76043334D01*
X140646606Y-76025121D01*
X140648736Y-76024008D01*
X140651033Y-76023314D01*
X140707886Y-75993084D01*
X140765081Y-75963184D01*
X140766955Y-75961677D01*
X140769073Y-75960551D01*
X140818986Y-75919843D01*
X140869269Y-75879414D01*
X140870813Y-75877573D01*
X140872674Y-75876056D01*
X140913766Y-75826384D01*
X140955203Y-75777002D01*
X140956360Y-75774898D01*
X140957891Y-75773047D01*
X140988541Y-75716361D01*
X141019608Y-75659850D01*
X141020335Y-75657558D01*
X141021476Y-75655448D01*
X141040524Y-75593916D01*
X141060031Y-75532420D01*
X141060299Y-75530032D01*
X141061009Y-75527738D01*
X141067746Y-75463634D01*
X141074933Y-75399564D01*
X141074965Y-75394950D01*
X141074983Y-75394782D01*
X141074968Y-75394614D01*
X141075000Y-75390000D01*
X141075000Y-73651484D01*
X142598390Y-73651484D01*
X142663051Y-74325023D01*
X142857870Y-74973006D01*
X143175361Y-75570530D01*
X143184823Y-75584692D01*
X143633519Y-75896876D01*
X145870395Y-73660000D01*
X146229605Y-73660000D01*
X148466481Y-75896876D01*
X148915177Y-75584692D01*
X149235612Y-74988741D01*
X149433626Y-74341727D01*
X149501610Y-73668516D01*
X149436949Y-72994977D01*
X149242130Y-72346994D01*
X148924639Y-71749470D01*
X148915177Y-71735308D01*
X148466481Y-71423124D01*
X146229605Y-73660000D01*
X145870395Y-73660000D01*
X143633519Y-71423124D01*
X143184823Y-71735308D01*
X142864388Y-72331259D01*
X142666374Y-72978273D01*
X142598390Y-73651484D01*
X141075000Y-73651484D01*
X141075000Y-71390000D01*
X141068710Y-71325855D01*
X141062867Y-71261644D01*
X141062188Y-71259338D01*
X141061954Y-71256949D01*
X141057900Y-71243519D01*
X143813124Y-71243519D01*
X146050000Y-73480395D01*
X148286876Y-71243519D01*
X147974692Y-70794823D01*
X147378741Y-70474388D01*
X146731727Y-70276374D01*
X146058516Y-70208390D01*
X145384977Y-70273051D01*
X144736994Y-70467870D01*
X144139470Y-70785361D01*
X144125308Y-70794823D01*
X143813124Y-71243519D01*
X141057900Y-71243519D01*
X141043334Y-71195277D01*
X141025121Y-71133394D01*
X141024008Y-71131264D01*
X141023314Y-71128967D01*
X140993084Y-71072114D01*
X140963184Y-71014919D01*
X140961677Y-71013045D01*
X140960551Y-71010927D01*
X140919843Y-70961014D01*
X140879414Y-70910731D01*
X140877573Y-70909187D01*
X140876056Y-70907326D01*
X140826384Y-70866234D01*
X140777002Y-70824797D01*
X140774898Y-70823640D01*
X140773047Y-70822109D01*
X140716361Y-70791459D01*
X140659850Y-70760392D01*
X140657558Y-70759665D01*
X140655448Y-70758524D01*
X140593916Y-70739476D01*
X140532420Y-70719969D01*
X140530032Y-70719701D01*
X140527738Y-70718991D01*
X140463634Y-70712254D01*
X140399564Y-70705067D01*
X140394950Y-70705035D01*
X140394782Y-70705017D01*
X140394614Y-70705032D01*
X140390000Y-70705000D01*
X138390000Y-70705000D01*
X138325855Y-70711290D01*
X138261644Y-70717133D01*
X138259338Y-70717812D01*
X138256949Y-70718046D01*
X138195277Y-70736666D01*
X138133394Y-70754879D01*
X138131264Y-70755992D01*
X138128967Y-70756686D01*
X138072114Y-70786916D01*
X138014919Y-70816816D01*
X138013045Y-70818323D01*
X138010927Y-70819449D01*
X137961014Y-70860157D01*
X137910731Y-70900586D01*
X137909187Y-70902427D01*
X137907326Y-70903944D01*
X137866234Y-70953616D01*
X137824797Y-71002998D01*
X137823640Y-71005102D01*
X137822109Y-71006953D01*
X137791459Y-71063639D01*
X137760392Y-71120150D01*
X137759665Y-71122442D01*
X137758524Y-71124552D01*
X137739476Y-71186084D01*
X137719969Y-71247580D01*
X137719701Y-71249968D01*
X137718991Y-71252262D01*
X137712254Y-71316366D01*
X137705067Y-71380436D01*
X137705035Y-71385050D01*
X137705017Y-71385218D01*
X137705032Y-71385386D01*
X137705000Y-71390000D01*
X137705000Y-75390000D01*
X137711290Y-75454145D01*
X137717133Y-75518356D01*
X137717812Y-75520662D01*
X137718046Y-75523051D01*
X137736666Y-75584723D01*
X137743845Y-75609116D01*
X137634180Y-75550498D01*
X137514482Y-75514188D01*
X137390000Y-75501928D01*
X136390000Y-75501928D01*
X136265518Y-75514188D01*
X136145820Y-75550498D01*
X136035506Y-75609463D01*
X135938815Y-75688815D01*
X135890000Y-75748296D01*
X135841185Y-75688815D01*
X135744494Y-75609463D01*
X135634180Y-75550498D01*
X135514482Y-75514188D01*
X135390000Y-75501928D01*
X134550502Y-75501928D01*
X134599226Y-75384298D01*
X134639000Y-75184339D01*
X134639000Y-74980461D01*
X134599226Y-74780502D01*
X134521205Y-74592144D01*
X134407937Y-74422626D01*
X134263774Y-74278463D01*
X134094256Y-74165195D01*
X133905898Y-74087174D01*
X133705939Y-74047400D01*
X133502061Y-74047400D01*
X133302102Y-74087174D01*
X133113744Y-74165195D01*
X132944226Y-74278463D01*
X132900289Y-74322400D01*
X126899920Y-74322400D01*
X126862597Y-74318724D01*
X126825274Y-74322400D01*
X126825265Y-74322400D01*
X126713612Y-74333397D01*
X126570351Y-74376854D01*
X126438321Y-74447426D01*
X126354681Y-74516068D01*
X126322597Y-74542399D01*
X126298799Y-74571397D01*
X126075000Y-74795196D01*
X126075000Y-71390000D01*
X126068710Y-71325855D01*
X126062867Y-71261644D01*
X126062188Y-71259338D01*
X126061954Y-71256949D01*
X126043334Y-71195277D01*
X126025121Y-71133394D01*
X126024008Y-71131264D01*
X126023314Y-71128967D01*
X125993084Y-71072114D01*
X125963184Y-71014919D01*
X125961677Y-71013045D01*
X125960551Y-71010927D01*
X125919843Y-70961014D01*
X125879414Y-70910731D01*
X125877573Y-70909187D01*
X125876056Y-70907326D01*
X125826384Y-70866234D01*
X125777002Y-70824797D01*
X125774898Y-70823640D01*
X125773047Y-70822109D01*
X125716361Y-70791459D01*
X125659850Y-70760392D01*
X125657558Y-70759665D01*
X125655448Y-70758524D01*
X125593916Y-70739476D01*
X125532420Y-70719969D01*
X125530032Y-70719701D01*
X125527738Y-70718991D01*
X125463634Y-70712254D01*
X125399564Y-70705067D01*
X125394950Y-70705035D01*
X125394782Y-70705017D01*
X125394614Y-70705032D01*
X125390000Y-70705000D01*
X123390000Y-70705000D01*
X123325855Y-70711290D01*
X123261644Y-70717133D01*
X123259338Y-70717812D01*
X123256949Y-70718046D01*
X123195277Y-70736666D01*
X123133394Y-70754879D01*
X123131264Y-70755992D01*
X123128967Y-70756686D01*
X123072114Y-70786916D01*
X123014919Y-70816816D01*
X123013045Y-70818323D01*
X123010927Y-70819449D01*
X122961014Y-70860157D01*
X122910731Y-70900586D01*
X122909187Y-70902427D01*
X122907326Y-70903944D01*
X122866234Y-70953616D01*
X122824797Y-71002998D01*
X122823640Y-71005102D01*
X122822109Y-71006953D01*
X122791459Y-71063639D01*
X122760392Y-71120150D01*
X122759665Y-71122442D01*
X122758524Y-71124552D01*
X122739476Y-71186084D01*
X122719969Y-71247580D01*
X122719701Y-71249968D01*
X122718991Y-71252262D01*
X122712254Y-71316366D01*
X122705067Y-71380436D01*
X122705035Y-71385050D01*
X122705017Y-71385218D01*
X122705032Y-71385386D01*
X122705000Y-71390000D01*
X122705000Y-72788930D01*
X122572130Y-72346994D01*
X122254639Y-71749470D01*
X122245177Y-71735308D01*
X121796481Y-71423124D01*
X119559605Y-73660000D01*
X121796481Y-75896876D01*
X122245177Y-75584692D01*
X122565612Y-74988741D01*
X122705000Y-74533288D01*
X122705000Y-75390000D01*
X122711290Y-75454145D01*
X122717133Y-75518356D01*
X122717812Y-75520662D01*
X122718046Y-75523051D01*
X122736666Y-75584723D01*
X122754879Y-75646606D01*
X122755992Y-75648736D01*
X122756686Y-75651033D01*
X122786916Y-75707886D01*
X122816816Y-75765081D01*
X122818323Y-75766955D01*
X122819449Y-75769073D01*
X122860157Y-75818986D01*
X122900586Y-75869269D01*
X122902427Y-75870813D01*
X122903944Y-75872674D01*
X122953616Y-75913766D01*
X123002998Y-75955203D01*
X123005102Y-75956360D01*
X123006953Y-75957891D01*
X123063639Y-75988541D01*
X123120150Y-76019608D01*
X123122442Y-76020335D01*
X123124552Y-76021476D01*
X123186084Y-76040524D01*
X123247580Y-76060031D01*
X123249968Y-76060299D01*
X123252262Y-76061009D01*
X123316366Y-76067746D01*
X123380436Y-76074933D01*
X123385050Y-76074965D01*
X123385218Y-76074983D01*
X123385386Y-76074968D01*
X123390000Y-76075000D01*
X124795196Y-76075000D01*
X122633999Y-78236198D01*
X122605001Y-78259996D01*
X122581203Y-78288994D01*
X122581202Y-78288995D01*
X122510027Y-78375721D01*
X122439455Y-78507751D01*
X122395999Y-78651012D01*
X122381325Y-78799997D01*
X122385002Y-78837329D01*
X122385002Y-79811138D01*
X122367743Y-79803989D01*
X122071184Y-79745000D01*
X121768816Y-79745000D01*
X121472257Y-79803989D01*
X121192905Y-79919701D01*
X120941495Y-80087688D01*
X120727688Y-80301495D01*
X120559701Y-80552905D01*
X120443989Y-80832257D01*
X120385000Y-81128816D01*
X120385000Y-81431184D01*
X120443989Y-81727743D01*
X120559701Y-82007095D01*
X120727688Y-82258505D01*
X120794127Y-82324944D01*
X120775820Y-82330498D01*
X120665506Y-82389463D01*
X120568815Y-82468815D01*
X120489463Y-82565506D01*
X120430498Y-82675820D01*
X120394188Y-82795518D01*
X120381928Y-82920000D01*
X120381928Y-84720000D01*
X120394188Y-84844482D01*
X120430498Y-84964180D01*
X120489463Y-85074494D01*
X120568815Y-85171185D01*
X120665506Y-85250537D01*
X120775820Y-85309502D01*
X120895518Y-85345812D01*
X121020000Y-85358072D01*
X122021249Y-85358072D01*
X122018795Y-85361744D01*
X121940774Y-85550102D01*
X121901000Y-85750061D01*
X121901000Y-85953939D01*
X121939004Y-86145000D01*
X121773740Y-86145000D01*
X121486842Y-86202068D01*
X121216589Y-86314010D01*
X120973368Y-86476525D01*
X120766525Y-86683368D01*
X120644805Y-86865534D01*
X120575178Y-86748645D01*
X120380269Y-86532412D01*
X120146920Y-86358359D01*
X119884099Y-86233175D01*
X119736890Y-86188524D01*
X119507000Y-86309845D01*
X119507000Y-87503000D01*
X119527000Y-87503000D01*
X119527000Y-87757000D01*
X119507000Y-87757000D01*
X119507000Y-87777000D01*
X119253000Y-87777000D01*
X119253000Y-87757000D01*
X119233000Y-87757000D01*
X119233000Y-87503000D01*
X119253000Y-87503000D01*
X119253000Y-86309845D01*
X119023110Y-86188524D01*
X118875901Y-86233175D01*
X118613080Y-86358359D01*
X118379731Y-86532412D01*
X118303966Y-86616466D01*
X118279502Y-86535820D01*
X118220537Y-86425506D01*
X118141185Y-86328815D01*
X118044494Y-86249463D01*
X117934180Y-86190498D01*
X117814482Y-86154188D01*
X117690000Y-86141928D01*
X115990000Y-86141928D01*
X115865518Y-86154188D01*
X115745820Y-86190498D01*
X115635506Y-86249463D01*
X115538815Y-86328815D01*
X115459463Y-86425506D01*
X115400498Y-86535820D01*
X115364188Y-86655518D01*
X115351928Y-86780000D01*
X112420000Y-86780000D01*
X112420000Y-84720000D01*
X115301928Y-84720000D01*
X115314188Y-84844482D01*
X115350498Y-84964180D01*
X115409463Y-85074494D01*
X115488815Y-85171185D01*
X115585506Y-85250537D01*
X115695820Y-85309502D01*
X115815518Y-85345812D01*
X115940000Y-85358072D01*
X116554250Y-85355000D01*
X116713000Y-85196250D01*
X116713000Y-83947000D01*
X116967000Y-83947000D01*
X116967000Y-85196250D01*
X117125750Y-85355000D01*
X117740000Y-85358072D01*
X117864482Y-85345812D01*
X117984180Y-85309502D01*
X118094494Y-85250537D01*
X118191185Y-85171185D01*
X118270537Y-85074494D01*
X118329502Y-84964180D01*
X118365812Y-84844482D01*
X118378072Y-84720000D01*
X118375000Y-84105750D01*
X118216250Y-83947000D01*
X116967000Y-83947000D01*
X116713000Y-83947000D01*
X115463750Y-83947000D01*
X115305000Y-84105750D01*
X115301928Y-84720000D01*
X112420000Y-84720000D01*
X112420000Y-82920000D01*
X115301928Y-82920000D01*
X115305000Y-83534250D01*
X115463750Y-83693000D01*
X116713000Y-83693000D01*
X116713000Y-83673000D01*
X116967000Y-83673000D01*
X116967000Y-83693000D01*
X118216250Y-83693000D01*
X118375000Y-83534250D01*
X118378072Y-82920000D01*
X118365812Y-82795518D01*
X118329502Y-82675820D01*
X118270537Y-82565506D01*
X118191185Y-82468815D01*
X118094494Y-82389463D01*
X117984180Y-82330498D01*
X117965873Y-82324944D01*
X118032312Y-82258505D01*
X118200299Y-82007095D01*
X118316011Y-81727743D01*
X118375000Y-81431184D01*
X118375000Y-81128816D01*
X118316011Y-80832257D01*
X118200299Y-80552905D01*
X118032312Y-80301495D01*
X117818505Y-80087688D01*
X117567095Y-79919701D01*
X117287743Y-79803989D01*
X116991184Y-79745000D01*
X116688816Y-79745000D01*
X116392257Y-79803989D01*
X116112905Y-79919701D01*
X115861495Y-80087688D01*
X115647688Y-80301495D01*
X115479701Y-80552905D01*
X115363989Y-80832257D01*
X115305000Y-81128816D01*
X115305000Y-81431184D01*
X115363989Y-81727743D01*
X115479701Y-82007095D01*
X115647688Y-82258505D01*
X115714127Y-82324944D01*
X115695820Y-82330498D01*
X115585506Y-82389463D01*
X115488815Y-82468815D01*
X115409463Y-82565506D01*
X115350498Y-82675820D01*
X115314188Y-82795518D01*
X115301928Y-82920000D01*
X112420000Y-82920000D01*
X112420000Y-76076481D01*
X117143124Y-76076481D01*
X117455308Y-76525177D01*
X118051259Y-76845612D01*
X118698273Y-77043626D01*
X119371484Y-77111610D01*
X120045023Y-77046949D01*
X120693006Y-76852130D01*
X121290530Y-76534639D01*
X121304692Y-76525177D01*
X121616876Y-76076481D01*
X119380000Y-73839605D01*
X117143124Y-76076481D01*
X112420000Y-76076481D01*
X112420000Y-73683920D01*
X112422353Y-73651484D01*
X115928390Y-73651484D01*
X115993051Y-74325023D01*
X116187870Y-74973006D01*
X116505361Y-75570530D01*
X116514823Y-75584692D01*
X116963519Y-75896876D01*
X119200395Y-73660000D01*
X116963519Y-71423124D01*
X116514823Y-71735308D01*
X116194388Y-72331259D01*
X115996374Y-72978273D01*
X115928390Y-73651484D01*
X112422353Y-73651484D01*
X112494617Y-72655530D01*
X112711739Y-71672102D01*
X112874114Y-71243519D01*
X117143124Y-71243519D01*
X119380000Y-73480395D01*
X121616876Y-71243519D01*
X121304692Y-70794823D01*
X120708741Y-70474388D01*
X120061727Y-70276374D01*
X119388516Y-70208390D01*
X118714977Y-70273051D01*
X118066994Y-70467870D01*
X117469470Y-70785361D01*
X117455308Y-70794823D01*
X117143124Y-71243519D01*
X112874114Y-71243519D01*
X113068546Y-70730325D01*
X113557575Y-69849905D01*
X114168569Y-69049313D01*
X114888732Y-68345306D01*
X115702987Y-67752630D01*
X116594269Y-67283704D01*
X117543900Y-66948353D01*
X118535692Y-66752873D01*
X119400164Y-66700000D01*
X146026080Y-66700000D01*
X147054470Y-66774617D01*
G37*
%TD.AperFunction*%
D27*
X126824127Y-97946941D02*
X126803764Y-97996102D01*
X126763990Y-98196061D01*
X126763990Y-98399939D01*
X126803764Y-98599898D01*
X126881785Y-98788256D01*
X126995053Y-98957774D01*
X127139216Y-99101937D01*
X127308734Y-99215205D01*
X127497092Y-99293226D01*
X127697051Y-99333000D01*
X127759189Y-99333000D01*
X129267191Y-100841003D01*
X129290989Y-100870001D01*
X129319987Y-100893799D01*
X129406713Y-100964974D01*
X129487725Y-101008276D01*
X129538743Y-101035546D01*
X129682004Y-101079003D01*
X129793657Y-101090000D01*
X129793667Y-101090000D01*
X129830990Y-101093676D01*
X129868313Y-101090000D01*
X130577289Y-101090000D01*
X130621226Y-101133937D01*
X130790744Y-101247205D01*
X130979102Y-101325226D01*
X131179061Y-101365000D01*
X131382939Y-101365000D01*
X131582898Y-101325226D01*
X131771256Y-101247205D01*
X131940774Y-101133937D01*
X132084937Y-100989774D01*
X132198205Y-100820256D01*
X132276226Y-100631898D01*
X132316000Y-100431939D01*
X132316000Y-100312072D01*
X132593000Y-100312072D01*
X132717482Y-100299812D01*
X132837180Y-100263502D01*
X132947494Y-100204537D01*
X132960379Y-100193963D01*
X133058038Y-100312962D01*
X133192614Y-100423405D01*
X133346150Y-100505472D01*
X133512746Y-100556008D01*
X133686000Y-100573072D01*
X134486000Y-100573072D01*
X134659254Y-100556008D01*
X134825850Y-100505472D01*
X134979386Y-100423405D01*
X135113962Y-100312962D01*
X135224405Y-100178386D01*
X135306472Y-100024850D01*
X135357008Y-99858254D01*
X135374072Y-99685000D01*
X135374072Y-99632770D01*
X135414001Y-99600001D01*
X135437803Y-99570998D01*
X135675801Y-99333000D01*
X135737939Y-99333000D01*
X135897928Y-99301176D01*
X135897928Y-99685000D01*
X135914992Y-99858254D01*
X135965528Y-100024850D01*
X136047595Y-100178386D01*
X136158038Y-100312962D01*
X136292614Y-100423405D01*
X136446150Y-100505472D01*
X136612746Y-100556008D01*
X136786000Y-100573072D01*
X137586000Y-100573072D01*
X137759254Y-100556008D01*
X137925850Y-100505472D01*
X138079386Y-100423405D01*
X138213962Y-100312962D01*
X138324405Y-100178386D01*
X138406472Y-100024850D01*
X138457008Y-99858254D01*
X138474072Y-99685000D01*
X138474072Y-99098873D01*
X141459000Y-102083802D01*
X141459000Y-102209939D01*
X141498774Y-102409898D01*
X141535833Y-102499366D01*
X140960209Y-103074990D01*
X140099153Y-103074990D01*
X140061820Y-103071313D01*
X140024487Y-103074990D01*
X139912834Y-103085987D01*
X139769573Y-103129444D01*
X139637544Y-103200016D01*
X139521819Y-103294989D01*
X139498016Y-103323993D01*
X139213993Y-103608016D01*
X139184989Y-103631819D01*
X139146266Y-103679004D01*
X139090016Y-103747544D01*
X139038201Y-103844482D01*
X139019444Y-103879574D01*
X138975987Y-104022835D01*
X138964990Y-104134488D01*
X138964990Y-104134498D01*
X138961314Y-104171820D01*
X138964990Y-104209143D01*
X138964991Y-105070207D01*
X135784004Y-108251195D01*
X135755000Y-108274998D01*
X135699872Y-108342173D01*
X135660027Y-108390723D01*
X135621394Y-108462999D01*
X134947322Y-108462999D01*
X134909999Y-108459323D01*
X134872677Y-108462999D01*
X134872666Y-108462999D01*
X134761013Y-108473996D01*
X134617752Y-108517453D01*
X134485723Y-108588025D01*
X134369998Y-108682998D01*
X134346195Y-108712002D01*
X134334002Y-108724195D01*
X134304998Y-108747998D01*
X134261830Y-108800599D01*
X134210025Y-108863723D01*
X134179560Y-108920718D01*
X134070000Y-108909928D01*
X133955750Y-108913000D01*
X133797000Y-109071750D01*
X133797000Y-109871000D01*
X133817000Y-109871000D01*
X133817000Y-110017696D01*
X133753011Y-110023998D01*
X133609750Y-110067455D01*
X133523000Y-110113824D01*
X133523000Y-109871000D01*
X133543000Y-109871000D01*
X133543000Y-109071750D01*
X133384250Y-108913000D01*
X133327496Y-108911474D01*
X133377008Y-108748254D01*
X133394072Y-108575000D01*
X133394072Y-107325000D01*
X133377008Y-107151746D01*
X133326472Y-106985150D01*
X133244405Y-106831614D01*
X133133962Y-106697038D01*
X132999386Y-106586595D01*
X132845850Y-106504528D01*
X132679254Y-106453992D01*
X132506000Y-106436928D01*
X131706000Y-106436928D01*
X131532746Y-106453992D01*
X131366150Y-106504528D01*
X131212614Y-106586595D01*
X131078038Y-106697038D01*
X130967595Y-106831614D01*
X130909428Y-106940436D01*
X130207984Y-106238993D01*
X130184181Y-106209989D01*
X130068456Y-106115016D01*
X129936427Y-106044444D01*
X129793166Y-106000987D01*
X129681513Y-105989990D01*
X129681502Y-105989990D01*
X129644180Y-105986314D01*
X129606858Y-105989990D01*
X128749603Y-105989990D01*
X128387622Y-105628009D01*
X128527850Y-105585472D01*
X128681386Y-105503405D01*
X128815962Y-105392962D01*
X128926405Y-105258386D01*
X129008472Y-105104850D01*
X129059008Y-104938254D01*
X129076072Y-104765000D01*
X129076072Y-103515000D01*
X129059008Y-103341746D01*
X129008472Y-103175150D01*
X128926405Y-103021614D01*
X128815962Y-102887038D01*
X128681386Y-102776595D01*
X128527850Y-102694528D01*
X128361254Y-102643992D01*
X128188000Y-102626928D01*
X127263000Y-102626928D01*
X127089746Y-102643992D01*
X126923150Y-102694528D01*
X126769614Y-102776595D01*
X126737638Y-102802836D01*
X126293803Y-102359002D01*
X126270001Y-102329999D01*
X126154276Y-102235026D01*
X126022247Y-102164454D01*
X125878986Y-102120997D01*
X125767333Y-102110000D01*
X125767322Y-102110000D01*
X125730000Y-102106324D01*
X125692678Y-102110000D01*
X123198178Y-102110000D01*
X123073475Y-101923368D01*
X122866632Y-101716525D01*
X122644933Y-101568390D01*
X122671092Y-101579226D01*
X122871051Y-101619000D01*
X123074929Y-101619000D01*
X123274888Y-101579226D01*
X123463246Y-101501205D01*
X123632764Y-101387937D01*
X123676701Y-101344000D01*
X127396399Y-101344000D01*
X130791000Y-104738602D01*
X130791000Y-104800739D01*
X130830774Y-105000698D01*
X130908795Y-105189056D01*
X131022063Y-105358574D01*
X131166226Y-105502737D01*
X131335744Y-105616005D01*
X131524102Y-105694026D01*
X131724061Y-105733800D01*
X131927939Y-105733800D01*
X132127898Y-105694026D01*
X132316256Y-105616005D01*
X132485774Y-105502737D01*
X132629937Y-105358574D01*
X132743205Y-105189056D01*
X132821226Y-105000698D01*
X132861000Y-104800739D01*
X132861000Y-104596861D01*
X132821226Y-104396902D01*
X132743205Y-104208544D01*
X132629937Y-104039026D01*
X132485774Y-103894863D01*
X132316256Y-103781595D01*
X132127898Y-103703574D01*
X131927939Y-103663800D01*
X131865802Y-103663800D01*
X128275004Y-100073003D01*
X128251201Y-100043999D01*
X128135476Y-99949026D01*
X128003447Y-99878454D01*
X127860186Y-99834997D01*
X127748533Y-99824000D01*
X127748522Y-99824000D01*
X127711200Y-99820324D01*
X127673878Y-99824000D01*
X123676701Y-99824000D01*
X123632764Y-99780063D01*
X123579997Y-99744805D01*
X125733004Y-97591798D01*
X125762001Y-97568001D01*
X125856974Y-97452276D01*
X125927546Y-97320247D01*
X125971003Y-97176986D01*
X125978460Y-97101273D01*
X126824127Y-97946941D01*
%TA.AperFunction,Conductor*%
D28*
G36*
X126824127Y-97946941D02*
G01*
X126803764Y-97996102D01*
X126763990Y-98196061D01*
X126763990Y-98399939D01*
X126803764Y-98599898D01*
X126881785Y-98788256D01*
X126995053Y-98957774D01*
X127139216Y-99101937D01*
X127308734Y-99215205D01*
X127497092Y-99293226D01*
X127697051Y-99333000D01*
X127759189Y-99333000D01*
X129267191Y-100841003D01*
X129290989Y-100870001D01*
X129319987Y-100893799D01*
X129406713Y-100964974D01*
X129487725Y-101008276D01*
X129538743Y-101035546D01*
X129682004Y-101079003D01*
X129793657Y-101090000D01*
X129793667Y-101090000D01*
X129830990Y-101093676D01*
X129868313Y-101090000D01*
X130577289Y-101090000D01*
X130621226Y-101133937D01*
X130790744Y-101247205D01*
X130979102Y-101325226D01*
X131179061Y-101365000D01*
X131382939Y-101365000D01*
X131582898Y-101325226D01*
X131771256Y-101247205D01*
X131940774Y-101133937D01*
X132084937Y-100989774D01*
X132198205Y-100820256D01*
X132276226Y-100631898D01*
X132316000Y-100431939D01*
X132316000Y-100312072D01*
X132593000Y-100312072D01*
X132717482Y-100299812D01*
X132837180Y-100263502D01*
X132947494Y-100204537D01*
X132960379Y-100193963D01*
X133058038Y-100312962D01*
X133192614Y-100423405D01*
X133346150Y-100505472D01*
X133512746Y-100556008D01*
X133686000Y-100573072D01*
X134486000Y-100573072D01*
X134659254Y-100556008D01*
X134825850Y-100505472D01*
X134979386Y-100423405D01*
X135113962Y-100312962D01*
X135224405Y-100178386D01*
X135306472Y-100024850D01*
X135357008Y-99858254D01*
X135374072Y-99685000D01*
X135374072Y-99632770D01*
X135414001Y-99600001D01*
X135437803Y-99570998D01*
X135675801Y-99333000D01*
X135737939Y-99333000D01*
X135897928Y-99301176D01*
X135897928Y-99685000D01*
X135914992Y-99858254D01*
X135965528Y-100024850D01*
X136047595Y-100178386D01*
X136158038Y-100312962D01*
X136292614Y-100423405D01*
X136446150Y-100505472D01*
X136612746Y-100556008D01*
X136786000Y-100573072D01*
X137586000Y-100573072D01*
X137759254Y-100556008D01*
X137925850Y-100505472D01*
X138079386Y-100423405D01*
X138213962Y-100312962D01*
X138324405Y-100178386D01*
X138406472Y-100024850D01*
X138457008Y-99858254D01*
X138474072Y-99685000D01*
X138474072Y-99098873D01*
X141459000Y-102083802D01*
X141459000Y-102209939D01*
X141498774Y-102409898D01*
X141535833Y-102499366D01*
X140960209Y-103074990D01*
X140099153Y-103074990D01*
X140061820Y-103071313D01*
X140024487Y-103074990D01*
X139912834Y-103085987D01*
X139769573Y-103129444D01*
X139637544Y-103200016D01*
X139521819Y-103294989D01*
X139498016Y-103323993D01*
X139213993Y-103608016D01*
X139184989Y-103631819D01*
X139146266Y-103679004D01*
X139090016Y-103747544D01*
X139038201Y-103844482D01*
X139019444Y-103879574D01*
X138975987Y-104022835D01*
X138964990Y-104134488D01*
X138964990Y-104134498D01*
X138961314Y-104171820D01*
X138964990Y-104209143D01*
X138964991Y-105070207D01*
X135784004Y-108251195D01*
X135755000Y-108274998D01*
X135699872Y-108342173D01*
X135660027Y-108390723D01*
X135621394Y-108462999D01*
X134947322Y-108462999D01*
X134909999Y-108459323D01*
X134872677Y-108462999D01*
X134872666Y-108462999D01*
X134761013Y-108473996D01*
X134617752Y-108517453D01*
X134485723Y-108588025D01*
X134369998Y-108682998D01*
X134346195Y-108712002D01*
X134334002Y-108724195D01*
X134304998Y-108747998D01*
X134261830Y-108800599D01*
X134210025Y-108863723D01*
X134179560Y-108920718D01*
X134070000Y-108909928D01*
X133955750Y-108913000D01*
X133797000Y-109071750D01*
X133797000Y-109871000D01*
X133817000Y-109871000D01*
X133817000Y-110017696D01*
X133753011Y-110023998D01*
X133609750Y-110067455D01*
X133523000Y-110113824D01*
X133523000Y-109871000D01*
X133543000Y-109871000D01*
X133543000Y-109071750D01*
X133384250Y-108913000D01*
X133327496Y-108911474D01*
X133377008Y-108748254D01*
X133394072Y-108575000D01*
X133394072Y-107325000D01*
X133377008Y-107151746D01*
X133326472Y-106985150D01*
X133244405Y-106831614D01*
X133133962Y-106697038D01*
X132999386Y-106586595D01*
X132845850Y-106504528D01*
X132679254Y-106453992D01*
X132506000Y-106436928D01*
X131706000Y-106436928D01*
X131532746Y-106453992D01*
X131366150Y-106504528D01*
X131212614Y-106586595D01*
X131078038Y-106697038D01*
X130967595Y-106831614D01*
X130909428Y-106940436D01*
X130207984Y-106238993D01*
X130184181Y-106209989D01*
X130068456Y-106115016D01*
X129936427Y-106044444D01*
X129793166Y-106000987D01*
X129681513Y-105989990D01*
X129681502Y-105989990D01*
X129644180Y-105986314D01*
X129606858Y-105989990D01*
X128749603Y-105989990D01*
X128387622Y-105628009D01*
X128527850Y-105585472D01*
X128681386Y-105503405D01*
X128815962Y-105392962D01*
X128926405Y-105258386D01*
X129008472Y-105104850D01*
X129059008Y-104938254D01*
X129076072Y-104765000D01*
X129076072Y-103515000D01*
X129059008Y-103341746D01*
X129008472Y-103175150D01*
X128926405Y-103021614D01*
X128815962Y-102887038D01*
X128681386Y-102776595D01*
X128527850Y-102694528D01*
X128361254Y-102643992D01*
X128188000Y-102626928D01*
X127263000Y-102626928D01*
X127089746Y-102643992D01*
X126923150Y-102694528D01*
X126769614Y-102776595D01*
X126737638Y-102802836D01*
X126293803Y-102359002D01*
X126270001Y-102329999D01*
X126154276Y-102235026D01*
X126022247Y-102164454D01*
X125878986Y-102120997D01*
X125767333Y-102110000D01*
X125767322Y-102110000D01*
X125730000Y-102106324D01*
X125692678Y-102110000D01*
X123198178Y-102110000D01*
X123073475Y-101923368D01*
X122866632Y-101716525D01*
X122644933Y-101568390D01*
X122671092Y-101579226D01*
X122871051Y-101619000D01*
X123074929Y-101619000D01*
X123274888Y-101579226D01*
X123463246Y-101501205D01*
X123632764Y-101387937D01*
X123676701Y-101344000D01*
X127396399Y-101344000D01*
X130791000Y-104738602D01*
X130791000Y-104800739D01*
X130830774Y-105000698D01*
X130908795Y-105189056D01*
X131022063Y-105358574D01*
X131166226Y-105502737D01*
X131335744Y-105616005D01*
X131524102Y-105694026D01*
X131724061Y-105733800D01*
X131927939Y-105733800D01*
X132127898Y-105694026D01*
X132316256Y-105616005D01*
X132485774Y-105502737D01*
X132629937Y-105358574D01*
X132743205Y-105189056D01*
X132821226Y-105000698D01*
X132861000Y-104800739D01*
X132861000Y-104596861D01*
X132821226Y-104396902D01*
X132743205Y-104208544D01*
X132629937Y-104039026D01*
X132485774Y-103894863D01*
X132316256Y-103781595D01*
X132127898Y-103703574D01*
X131927939Y-103663800D01*
X131865802Y-103663800D01*
X128275004Y-100073003D01*
X128251201Y-100043999D01*
X128135476Y-99949026D01*
X128003447Y-99878454D01*
X127860186Y-99834997D01*
X127748533Y-99824000D01*
X127748522Y-99824000D01*
X127711200Y-99820324D01*
X127673878Y-99824000D01*
X123676701Y-99824000D01*
X123632764Y-99780063D01*
X123579997Y-99744805D01*
X125733004Y-97591798D01*
X125762001Y-97568001D01*
X125856974Y-97452276D01*
X125927546Y-97320247D01*
X125971003Y-97176986D01*
X125978460Y-97101273D01*
X126824127Y-97946941D01*
G37*
%TD.AperFunction*%
D27*
X131436815Y-94060185D02*
X131533506Y-94139537D01*
X131643820Y-94198502D01*
X131760841Y-94234000D01*
X131643820Y-94269498D01*
X131533506Y-94328463D01*
X131436815Y-94407815D01*
X131362103Y-94498853D01*
X131224250Y-94361000D01*
X131142141Y-94361000D01*
X131102494Y-94328463D01*
X130992180Y-94269498D01*
X130875159Y-94234000D01*
X130992180Y-94198502D01*
X131102494Y-94139537D01*
X131142141Y-94107000D01*
X131224250Y-94107000D01*
X131362103Y-93969147D01*
X131436815Y-94060185D01*
%TA.AperFunction,Conductor*%
D28*
G36*
X131436815Y-94060185D02*
G01*
X131533506Y-94139537D01*
X131643820Y-94198502D01*
X131760841Y-94234000D01*
X131643820Y-94269498D01*
X131533506Y-94328463D01*
X131436815Y-94407815D01*
X131362103Y-94498853D01*
X131224250Y-94361000D01*
X131142141Y-94361000D01*
X131102494Y-94328463D01*
X130992180Y-94269498D01*
X130875159Y-94234000D01*
X130992180Y-94198502D01*
X131102494Y-94139537D01*
X131142141Y-94107000D01*
X131224250Y-94107000D01*
X131362103Y-93969147D01*
X131436815Y-94060185D01*
G37*
%TD.AperFunction*%
D27*
X132971014Y-90284003D02*
X133082667Y-90295000D01*
X133082676Y-90295000D01*
X133119999Y-90298676D01*
X133157322Y-90295000D01*
X134303141Y-90295000D01*
X134271916Y-90353418D01*
X134227071Y-90501255D01*
X134211928Y-90655000D01*
X134211928Y-90955000D01*
X134227071Y-91108745D01*
X134271916Y-91256582D01*
X134344742Y-91392829D01*
X134442749Y-91512251D01*
X134562171Y-91610258D01*
X134698418Y-91683084D01*
X134846255Y-91727929D01*
X134855000Y-91728790D01*
X134855000Y-91795939D01*
X134894774Y-91995898D01*
X134972795Y-92184256D01*
X135086063Y-92353774D01*
X135198999Y-92466710D01*
X135147463Y-92529506D01*
X135088498Y-92639820D01*
X135052188Y-92759518D01*
X135039928Y-92884000D01*
X135039928Y-93255415D01*
X134928755Y-93301464D01*
X134822180Y-93244498D01*
X134702482Y-93208188D01*
X134578000Y-93195928D01*
X134164729Y-93195928D01*
X133741804Y-92773002D01*
X133718001Y-92743999D01*
X133602276Y-92649026D01*
X133470247Y-92578454D01*
X133452818Y-92573167D01*
X133399185Y-92507815D01*
X133302494Y-92428463D01*
X133192180Y-92369498D01*
X133072482Y-92333188D01*
X132948000Y-92320928D01*
X132080641Y-92320928D01*
X132686012Y-91715557D01*
X132715011Y-91691759D01*
X132809984Y-91576034D01*
X132880556Y-91444005D01*
X132924013Y-91300744D01*
X132935010Y-91189091D01*
X132935010Y-91189082D01*
X132938686Y-91151759D01*
X132935010Y-91114436D01*
X132935010Y-90273081D01*
X132971014Y-90284003D01*
%TA.AperFunction,Conductor*%
D28*
G36*
X132971014Y-90284003D02*
G01*
X133082667Y-90295000D01*
X133082676Y-90295000D01*
X133119999Y-90298676D01*
X133157322Y-90295000D01*
X134303141Y-90295000D01*
X134271916Y-90353418D01*
X134227071Y-90501255D01*
X134211928Y-90655000D01*
X134211928Y-90955000D01*
X134227071Y-91108745D01*
X134271916Y-91256582D01*
X134344742Y-91392829D01*
X134442749Y-91512251D01*
X134562171Y-91610258D01*
X134698418Y-91683084D01*
X134846255Y-91727929D01*
X134855000Y-91728790D01*
X134855000Y-91795939D01*
X134894774Y-91995898D01*
X134972795Y-92184256D01*
X135086063Y-92353774D01*
X135198999Y-92466710D01*
X135147463Y-92529506D01*
X135088498Y-92639820D01*
X135052188Y-92759518D01*
X135039928Y-92884000D01*
X135039928Y-93255415D01*
X134928755Y-93301464D01*
X134822180Y-93244498D01*
X134702482Y-93208188D01*
X134578000Y-93195928D01*
X134164729Y-93195928D01*
X133741804Y-92773002D01*
X133718001Y-92743999D01*
X133602276Y-92649026D01*
X133470247Y-92578454D01*
X133452818Y-92573167D01*
X133399185Y-92507815D01*
X133302494Y-92428463D01*
X133192180Y-92369498D01*
X133072482Y-92333188D01*
X132948000Y-92320928D01*
X132080641Y-92320928D01*
X132686012Y-91715557D01*
X132715011Y-91691759D01*
X132809984Y-91576034D01*
X132880556Y-91444005D01*
X132924013Y-91300744D01*
X132935010Y-91189091D01*
X132935010Y-91189082D01*
X132938686Y-91151759D01*
X132935010Y-91114436D01*
X132935010Y-90273081D01*
X132971014Y-90284003D01*
G37*
%TD.AperFunction*%
D27*
X123912128Y-88614800D02*
X123929192Y-88788054D01*
X123979728Y-88954650D01*
X124061795Y-89108186D01*
X124172238Y-89242762D01*
X124306814Y-89353205D01*
X124460350Y-89435272D01*
X124626946Y-89485808D01*
X124800200Y-89502872D01*
X126050200Y-89502872D01*
X126223454Y-89485808D01*
X126390050Y-89435272D01*
X126543586Y-89353205D01*
X126678162Y-89242762D01*
X126788605Y-89108186D01*
X126870672Y-88954650D01*
X126887856Y-88898000D01*
X127247006Y-88898000D01*
X127284328Y-88901676D01*
X127321650Y-88898000D01*
X127321661Y-88898000D01*
X127402121Y-88890075D01*
X126271997Y-90020200D01*
X126242999Y-90043998D01*
X126219201Y-90072996D01*
X126219200Y-90072997D01*
X126148025Y-90159723D01*
X126077453Y-90291753D01*
X126069192Y-90318987D01*
X126033997Y-90435013D01*
X126029521Y-90480454D01*
X126019323Y-90583999D01*
X126023000Y-90621331D01*
X126022999Y-91473199D01*
X125481955Y-92014244D01*
X125373774Y-91906063D01*
X125204256Y-91792795D01*
X125015898Y-91714774D01*
X124815939Y-91675000D01*
X124753803Y-91675000D01*
X123403351Y-90324550D01*
X123405000Y-90316260D01*
X123405000Y-90023740D01*
X123347932Y-89736842D01*
X123235990Y-89466589D01*
X123115916Y-89286885D01*
X123912128Y-88490674D01*
X123912128Y-88614800D01*
%TA.AperFunction,Conductor*%
D28*
G36*
X123912128Y-88614800D02*
G01*
X123929192Y-88788054D01*
X123979728Y-88954650D01*
X124061795Y-89108186D01*
X124172238Y-89242762D01*
X124306814Y-89353205D01*
X124460350Y-89435272D01*
X124626946Y-89485808D01*
X124800200Y-89502872D01*
X126050200Y-89502872D01*
X126223454Y-89485808D01*
X126390050Y-89435272D01*
X126543586Y-89353205D01*
X126678162Y-89242762D01*
X126788605Y-89108186D01*
X126870672Y-88954650D01*
X126887856Y-88898000D01*
X127247006Y-88898000D01*
X127284328Y-88901676D01*
X127321650Y-88898000D01*
X127321661Y-88898000D01*
X127402121Y-88890075D01*
X126271997Y-90020200D01*
X126242999Y-90043998D01*
X126219201Y-90072996D01*
X126219200Y-90072997D01*
X126148025Y-90159723D01*
X126077453Y-90291753D01*
X126069192Y-90318987D01*
X126033997Y-90435013D01*
X126029521Y-90480454D01*
X126019323Y-90583999D01*
X126023000Y-90621331D01*
X126022999Y-91473199D01*
X125481955Y-92014244D01*
X125373774Y-91906063D01*
X125204256Y-91792795D01*
X125015898Y-91714774D01*
X124815939Y-91675000D01*
X124753803Y-91675000D01*
X123403351Y-90324550D01*
X123405000Y-90316260D01*
X123405000Y-90023740D01*
X123347932Y-89736842D01*
X123235990Y-89466589D01*
X123115916Y-89286885D01*
X123912128Y-88490674D01*
X123912128Y-88614800D01*
G37*
%TD.AperFunction*%
D27*
X119507000Y-90043000D02*
X119527000Y-90043000D01*
X119527000Y-90297000D01*
X119507000Y-90297000D01*
X119507000Y-90317000D01*
X119253000Y-90317000D01*
X119253000Y-90297000D01*
X119233000Y-90297000D01*
X119233000Y-90043000D01*
X119253000Y-90043000D01*
X119253000Y-90023000D01*
X119507000Y-90023000D01*
X119507000Y-90043000D01*
%TA.AperFunction,Conductor*%
D28*
G36*
X119507000Y-90043000D02*
G01*
X119527000Y-90043000D01*
X119527000Y-90297000D01*
X119507000Y-90297000D01*
X119507000Y-90317000D01*
X119253000Y-90317000D01*
X119253000Y-90297000D01*
X119233000Y-90297000D01*
X119233000Y-90043000D01*
X119253000Y-90043000D01*
X119253000Y-90023000D01*
X119507000Y-90023000D01*
X119507000Y-90043000D01*
G37*
%TD.AperFunction*%
D27*
X131396528Y-83823850D02*
X131478595Y-83977386D01*
X131589038Y-84111962D01*
X131723614Y-84222405D01*
X131877150Y-84304472D01*
X132043746Y-84355008D01*
X132170247Y-84367467D01*
X132207026Y-84436276D01*
X132258050Y-84498448D01*
X132302000Y-84552001D01*
X132330998Y-84575799D01*
X134281216Y-86526018D01*
X134271916Y-86543418D01*
X134227071Y-86691255D01*
X134211928Y-86845000D01*
X134211928Y-87145000D01*
X134212153Y-87147282D01*
X134070015Y-87242255D01*
X133925852Y-87386418D01*
X133812584Y-87555936D01*
X133734563Y-87744294D01*
X133694789Y-87944253D01*
X133694789Y-88148131D01*
X133734563Y-88348090D01*
X133812584Y-88536448D01*
X133925852Y-88705966D01*
X133994886Y-88775000D01*
X133434802Y-88775000D01*
X132413804Y-87754003D01*
X132390001Y-87724999D01*
X132373650Y-87711580D01*
X132356270Y-87679064D01*
X132380537Y-87649494D01*
X132439502Y-87539180D01*
X132475812Y-87419482D01*
X132488072Y-87295000D01*
X132485000Y-87280750D01*
X132326250Y-87122000D01*
X131002000Y-87122000D01*
X131002000Y-87142000D01*
X130748000Y-87142000D01*
X130748000Y-87122000D01*
X130728000Y-87122000D01*
X130728000Y-86868000D01*
X130748000Y-86868000D01*
X130748000Y-86218750D01*
X131002000Y-86218750D01*
X131002000Y-86868000D01*
X132326250Y-86868000D01*
X132485000Y-86709250D01*
X132488072Y-86695000D01*
X132475812Y-86570518D01*
X132439502Y-86450820D01*
X132380537Y-86340506D01*
X132301185Y-86243815D01*
X132204494Y-86164463D01*
X132094180Y-86105498D01*
X131974482Y-86069188D01*
X131850000Y-86056928D01*
X131160750Y-86060000D01*
X131002000Y-86218750D01*
X130748000Y-86218750D01*
X130660056Y-86130806D01*
X130710552Y-86008900D01*
X130750326Y-85808941D01*
X130750326Y-85605063D01*
X130710552Y-85405104D01*
X130632531Y-85216746D01*
X130519263Y-85047228D01*
X130375100Y-84903065D01*
X130265421Y-84829780D01*
X131367394Y-83727808D01*
X131396528Y-83823850D01*
%TA.AperFunction,Conductor*%
D28*
G36*
X131396528Y-83823850D02*
G01*
X131478595Y-83977386D01*
X131589038Y-84111962D01*
X131723614Y-84222405D01*
X131877150Y-84304472D01*
X132043746Y-84355008D01*
X132170247Y-84367467D01*
X132207026Y-84436276D01*
X132258050Y-84498448D01*
X132302000Y-84552001D01*
X132330998Y-84575799D01*
X134281216Y-86526018D01*
X134271916Y-86543418D01*
X134227071Y-86691255D01*
X134211928Y-86845000D01*
X134211928Y-87145000D01*
X134212153Y-87147282D01*
X134070015Y-87242255D01*
X133925852Y-87386418D01*
X133812584Y-87555936D01*
X133734563Y-87744294D01*
X133694789Y-87944253D01*
X133694789Y-88148131D01*
X133734563Y-88348090D01*
X133812584Y-88536448D01*
X133925852Y-88705966D01*
X133994886Y-88775000D01*
X133434802Y-88775000D01*
X132413804Y-87754003D01*
X132390001Y-87724999D01*
X132373650Y-87711580D01*
X132356270Y-87679064D01*
X132380537Y-87649494D01*
X132439502Y-87539180D01*
X132475812Y-87419482D01*
X132488072Y-87295000D01*
X132485000Y-87280750D01*
X132326250Y-87122000D01*
X131002000Y-87122000D01*
X131002000Y-87142000D01*
X130748000Y-87142000D01*
X130748000Y-87122000D01*
X130728000Y-87122000D01*
X130728000Y-86868000D01*
X130748000Y-86868000D01*
X130748000Y-86218750D01*
X131002000Y-86218750D01*
X131002000Y-86868000D01*
X132326250Y-86868000D01*
X132485000Y-86709250D01*
X132488072Y-86695000D01*
X132475812Y-86570518D01*
X132439502Y-86450820D01*
X132380537Y-86340506D01*
X132301185Y-86243815D01*
X132204494Y-86164463D01*
X132094180Y-86105498D01*
X131974482Y-86069188D01*
X131850000Y-86056928D01*
X131160750Y-86060000D01*
X131002000Y-86218750D01*
X130748000Y-86218750D01*
X130660056Y-86130806D01*
X130710552Y-86008900D01*
X130750326Y-85808941D01*
X130750326Y-85605063D01*
X130710552Y-85405104D01*
X130632531Y-85216746D01*
X130519263Y-85047228D01*
X130375100Y-84903065D01*
X130265421Y-84829780D01*
X131367394Y-83727808D01*
X131396528Y-83823850D01*
G37*
%TD.AperFunction*%
%TD*%
M02*
