M48
; DRILL file {KiCad 5.1.10} date Sun Oct  3 15:02:48 2021
; FORMAT={-:-/ absolute / inch / decimal}
; #@! TF.CreationDate,2021-10-03T15:02:48+02:00
; #@! TF.GenerationSoftware,Kicad,Pcbnew,5.1.10
; #@! TF.FileFunction,Plated,1,2,PTH
FMAT,2
INCH
T1C0.0157
T2C0.0354
T3C0.0394
T4C0.1260
%
G90
G05
T1
X4.79Y-3.08
X4.8395Y-3.9993
X4.8798Y-3.7102
X4.88Y-3.21
X4.8929Y-3.779
X4.91Y-3.42
X4.94Y-3.47
X4.94Y-3.99
X4.95Y-3.8
X4.95Y-3.9
X4.9502Y-3.65
X4.986Y-3.528
X5.0107Y-3.7246
X5.02Y-3.58
X5.03Y-4.1
X5.0315Y-3.87
X5.039Y-3.01
X5.04Y-4.19
X5.0501Y-3.725
X5.06Y-3.42
X5.06Y-4.35
X5.0825Y-4.131
X5.1069Y-3.3743
X5.12Y-4.42
X5.125Y-3.75
X5.1607Y-3.6282
X5.171Y-3.9
X5.1932Y-4.3818
X5.201Y-4.25
X5.2056Y-3.7106
X5.2074Y-3.8167
X5.21Y-4.32
X5.2107Y-3.6218
X5.23Y-3.15
X5.23Y-3.46
X5.26Y-2.956
X5.2695Y-3.7011
X5.27Y-4.16
X5.275Y-3.775
X5.3Y-4.4094
X5.3043Y-3.4664
X5.325Y-3.05
X5.33Y-3.71
X5.3309Y-3.9379
X5.34Y-3.87
X5.34Y-4.341
X5.344Y-4.219
X5.35Y-3.52
X5.35Y-3.61
X5.35Y-3.7868
X5.4215Y-3.775
X5.43Y-4.15
X5.44Y-3.42
X5.525Y-4.425
X5.55Y-4.025
X5.6Y-3.4
T2
X4.6Y-3.2
X4.6Y-3.3
X4.8Y-3.2
X4.8Y-3.3
T3
X4.57Y-3.46
X4.57Y-3.56
X4.57Y-3.77
X4.57Y-3.87
X4.6Y-4.05
X4.64Y-4.25
X4.67Y-3.46
X4.67Y-3.56
X4.67Y-3.77
X4.67Y-3.87
X4.7Y-4.05
X4.74Y-4.25
X4.77Y-3.46
X4.77Y-3.56
X4.77Y-3.77
X4.77Y-3.87
X4.8Y-4.05
X4.975Y-4.525
X5.075Y-4.525
X5.175Y-4.525
X5.275Y-4.525
T4
X4.6Y-2.79
X4.65Y-4.6
X5.85Y-4.6
X5.86Y-2.79
T0
M30
