M48
; DRILL file {KiCad (6.0.1)} date Thu 20 Jan 2022 11:15:25 CET
; FORMAT={-:-/ absolute / inch / decimal}
; #@! TF.CreationDate,2022-01-20T11:15:25+01:00
; #@! TF.GenerationSoftware,Kicad,Pcbnew,(6.0.1)
; #@! TF.FileFunction,Plated,1,4,PTH
FMAT,2
INCH
; #@! TA.AperFunction,Plated,PTH,ViaDrill
T1C0.0118
; #@! TA.AperFunction,Plated,PTH,ViaDrill
T2C0.0157
; #@! TA.AperFunction,Plated,PTH,ComponentDrill
T3C0.0197
; #@! TA.AperFunction,Plated,PTH,ComponentDrill
T4C0.0315
; #@! TA.AperFunction,Plated,PTH,ComponentDrill
T5C0.0394
; #@! TA.AperFunction,Plated,PTH,ComponentDrill
T6C0.0433
; #@! TA.AperFunction,Plated,PTH,ComponentDrill
T7C0.0984
%
G90
G05
T1
X5.5965Y-3.2776
X5.7278Y-3.2206
X5.7402Y-3.9055
X5.7913Y-3.5886
X5.7914Y-3.6515
X5.7934Y-3.6201
X5.8179Y-3.2244
X5.8717Y-3.3015
X5.8954Y-3.8346
X5.9528Y-3.6575
X5.9528Y-3.811
X5.9843Y-3.6575
X6.0118Y-3.4331
X6.0157Y-3.6575
X6.0709Y-3.685
X6.1243Y-3.4629
X6.2717Y-3.497
X6.5827Y-3.0945
T2
X4.9252Y-3.9331
X4.9252Y-4.0
X4.9252Y-4.0669
X4.9606Y-4.4055
X4.9698Y-3.0472
X4.9961Y-3.374
X5.0295Y-4.3504
X5.0295Y-4.4685
X5.0295Y-4.5433
X5.0295Y-4.6161
X5.0295Y-4.6949
X5.0295Y-4.7638
X5.0295Y-4.8425
X5.0315Y-3.4921
X5.0512Y-3.9331
X5.0512Y-4.0669
X5.0709Y-3.3543
X5.0827Y-3.0472
X5.0866Y-3.6969
X5.1181Y-3.4646
X5.1181Y-3.5394
X5.1181Y-4.3504
X5.1181Y-4.4685
X5.1181Y-4.5433
X5.1181Y-4.6161
X5.1181Y-4.6949
X5.1181Y-4.7638
X5.1181Y-4.8425
X5.126Y-4.122
X5.1772Y-3.6732
X5.1772Y-4.0197
X5.1955Y-3.0472
X5.1969Y-3.4094
X5.1969Y-3.4646
X5.1969Y-3.5394
X5.2067Y-4.3504
X5.2067Y-4.4685
X5.2067Y-4.5433
X5.2067Y-4.6161
X5.2067Y-4.6949
X5.2067Y-4.7638
X5.2067Y-4.8425
X5.2402Y-3.6732
X5.248Y-3.2132
X5.248Y-3.2756
X5.248Y-3.3346
X5.2559Y-4.872
X5.2795Y-3.4088
X5.2795Y-3.4646
X5.2795Y-3.5394
X5.2835Y-3.8268
X5.2835Y-3.9252
X5.2835Y-4.122
X5.2874Y-4.0197
X5.2953Y-4.6161
X5.2953Y-4.6949
X5.2953Y-4.7638
X5.3084Y-3.0472
X5.3268Y-3.4094
X5.3386Y-3.5551
X5.3445Y-4.7638
X5.374Y-4.8228
X5.374Y-4.872
X5.374Y-4.9213
X5.378Y-3.214
X5.3819Y-3.3051
X5.3819Y-3.8268
X5.3858Y-4.2795
X5.3898Y-3.3504
X5.3976Y-4.0197
X5.4134Y-4.8228
X5.4134Y-4.9213
X5.4173Y-3.689
X5.4429Y-4.7244
X5.4488Y-4.0945
X5.4528Y-4.8228
X5.4528Y-4.9213
X5.4685Y-3.5276
X5.4685Y-3.689
X5.4803Y-3.8268
X5.4803Y-3.9213
X5.5118Y-4.3406
X5.5118Y-4.3799
X5.5118Y-4.7244
X5.561Y-4.3799
X5.5669Y-3.2205
X5.5709Y-3.0315
X5.5709Y-4.5866
X5.5709Y-4.622
X5.5709Y-4.7244
X5.5709Y-4.7638
X5.5709Y-4.8031
X5.5866Y-3.378
X5.6102Y-3.5601
X5.6102Y-4.3799
X5.6166Y-4.1102
X5.6201Y-4.5866
X5.6201Y-4.7638
X5.6201Y-4.8031
X5.6299Y-3.0906
X5.6594Y-4.3799
X5.6693Y-3.5601
X5.6693Y-4.5866
X5.6693Y-4.622
X5.6693Y-4.7244
X5.6693Y-4.7638
X5.6693Y-4.8031
X5.689Y-3.1594
X5.6929Y-3.4961
X5.7008Y-3.9055
X5.7038Y-3.7106
X5.7087Y-3.002
X5.7087Y-4.0315
X5.7087Y-4.3406
X5.7087Y-4.3799
X5.748Y-4.5866
X5.748Y-4.622
X5.748Y-4.7244
X5.748Y-4.7638
X5.748Y-4.8031
X5.7677Y-4.3406
X5.7677Y-4.3799
X5.8169Y-4.3799
X5.8174Y-4.1102
X5.8504Y-4.0669
X5.8642Y-4.5453
X5.8661Y-4.3799
X5.8819Y-2.9685
X5.8907Y-4.2008
X5.9154Y-4.3799
X5.9291Y-4.6772
X5.9291Y-4.7638
X5.9449Y-2.9134
X5.9449Y-3.0217
X5.9449Y-3.1201
X5.9547Y-4.311
X5.9547Y-4.3504
X5.9646Y-4.4449
X5.9941Y-4.311
X5.9941Y-4.3504
X6.0433Y-3.126
X6.0536Y-4.1235
X6.0561Y-3.2205
X6.063Y-2.9134
X6.063Y-3.0236
X6.0748Y-4.0394
X6.0913Y-4.7087
X6.0945Y-4.4449
X6.122Y-4.2913
X6.1614Y-3.9941
X6.1654Y-3.685
X6.1732Y-4.3307
X6.1866Y-4.7087
X6.1866Y-4.7953
X6.1988Y-4.0335
X6.2008Y-3.5955
X6.2047Y-3.7185
X6.2165Y-3.5256
X6.2441Y-4.0
X6.2638Y-3.8189
X6.2638Y-3.8976
X6.2638Y-4.065
X6.2677Y-3.5384
X6.2819Y-4.7087
X6.2835Y-3.7795
X6.2835Y-3.8583
X6.2972Y-4.3287
X6.2992Y-3.4222
X6.3104Y-4.065
X6.311Y-3.2835
X6.3346Y-3.3937
X6.3366Y-4.5059
X6.3465Y-3.7756
X6.3504Y-3.0236
X6.357Y-4.065
X6.3583Y-3.6457
X6.3858Y-4.2874
X6.3898Y-4.5669
X6.4035Y-4.065
X6.4291Y-3.8228
X6.4331Y-3.689
X6.4331Y-4.4173
X6.437Y-3.5728
X6.4665Y-4.6457
X6.4724Y-4.0118
X6.4764Y-3.6417
X6.4764Y-3.7795
X6.4843Y-3.4764
X6.5079Y-3.9321
X6.5315Y-4.2874
X6.5433Y-3.0945
X6.5433Y-3.2795
X6.5472Y-3.8465
X6.5591Y-3.5354
X6.5591Y-3.6772
X6.563Y-3.9213
X6.563Y-4.5472
X6.6063Y-4.1142
X6.6142Y-4.315
X6.6201Y-4.4035
X6.622Y-3.2795
X6.6256Y-3.0932
X6.6417Y-3.4331
X6.6614Y-4.2108
X6.6614Y-4.7087
X6.6673Y-4.0118
X6.7165Y-3.3652
X6.7244Y-3.9213
X6.7323Y-3.4331
X6.7323Y-3.8543
X6.7461Y-4.313
X6.7539Y-4.3996
X6.7874Y-3.8661
X6.7996Y-3.5201
X6.8346Y-3.6614
X6.8346Y-3.7165
T3
X4.7785Y-2.8543
X4.7835Y-4.9016
X4.8002Y-2.8021
X4.8002Y-2.9065
X4.8051Y-4.8494
X4.8051Y-4.9538
X4.8524Y-2.7805
X4.8524Y-2.9281
X4.8573Y-4.8278
X4.8573Y-4.9754
X4.9046Y-2.8021
X4.9046Y-2.9065
X4.9095Y-4.8494
X4.9095Y-4.9538
X4.9262Y-2.8543
X4.9311Y-4.9016
X6.4813Y-4.9016
X6.5029Y-4.8494
X6.5029Y-4.9538
X6.5551Y-4.8278
X6.5551Y-4.9754
X6.6073Y-4.8494
X6.6073Y-4.9538
X6.6289Y-4.9016
X6.7963Y-2.8543
X6.8179Y-2.8021
X6.8179Y-2.9065
X6.8701Y-2.7805
X6.8701Y-2.9281
X6.9223Y-2.8021
X6.9223Y-2.9065
X6.9439Y-2.8543
T4
X5.3209Y-3.748
X5.5138Y-3.748
X6.1122Y-4.6339
X6.1909Y-4.6339
X6.2697Y-4.6339
T5
X4.8081Y-3.188
X4.8081Y-3.288
X4.8081Y-3.388
X4.8081Y-3.488
X4.8081Y-3.588
X4.8081Y-3.688
X4.8081Y-3.788
X4.812Y-4.5354
X4.815Y-4.6929
X4.9081Y-3.188
X4.9081Y-3.288
X4.9081Y-3.388
X4.9081Y-3.488
X4.9081Y-3.588
X4.9081Y-3.688
X4.9081Y-3.788
X4.912Y-4.5354
X4.915Y-4.6929
X5.4675Y-2.8163
X5.4675Y-2.9163
X5.5675Y-2.8163
X5.5675Y-2.9163
X5.6675Y-2.8163
X5.6675Y-2.9163
X5.8213Y-2.8159
X5.9213Y-2.8159
X6.0213Y-2.8159
X6.1782Y-2.8163
X6.1782Y-2.9163
X6.2782Y-2.8163
X6.2782Y-2.9163
X6.4348Y-2.8159
X6.4348Y-2.9159
X6.5348Y-2.8159
X6.5348Y-2.9159
X6.6348Y-2.8159
X6.6348Y-2.9159
X6.8317Y-4.1545
X6.8317Y-4.2545
X6.8317Y-4.3545
X6.8317Y-4.4545
X6.8317Y-4.5545
X6.8317Y-4.6545
X6.8317Y-4.7545
X6.8317Y-4.8545
X6.9291Y-3.3937
X6.9291Y-3.4937
X6.9291Y-3.5937
X6.9291Y-3.6937
X6.9291Y-3.7937
X6.9291Y-3.8937
X6.9291Y-3.9937
X6.9317Y-4.1545
X6.9317Y-4.2545
X6.9317Y-4.3545
X6.9317Y-4.4545
X6.9317Y-4.5545
X6.9317Y-4.6545
X6.9317Y-4.7545
X6.9317Y-4.8545
T6
X6.1811Y-3.1043
X6.1811Y-3.2815
X6.437Y-3.1043
X6.437Y-3.2815
T7
X4.8524Y-2.8543
X4.8573Y-4.9016
X6.5551Y-4.9016
X6.8701Y-2.8543
T0
M30
