%TF.GenerationSoftware,KiCad,Pcbnew,(6.0.1)*%
%TF.CreationDate,2022-01-20T11:15:23+01:00*%
%TF.ProjectId,LogicBoard_Avr,4c6f6769-6342-46f6-9172-645f4176722e,rev?*%
%TF.SameCoordinates,Original*%
%TF.FileFunction,Soldermask,Top*%
%TF.FilePolarity,Negative*%
%FSLAX46Y46*%
G04 Gerber Fmt 4.6, Leading zero omitted, Abs format (unit mm)*
G04 Created by KiCad (PCBNEW (6.0.1)) date 2022-01-20 11:15:23*
%MOMM*%
%LPD*%
G01*
G04 APERTURE LIST*
G04 Aperture macros list*
%AMRoundRect*
0 Rectangle with rounded corners*
0 $1 Rounding radius*
0 $2 $3 $4 $5 $6 $7 $8 $9 X,Y pos of 4 corners*
0 Add a 4 corners polygon primitive as box body*
4,1,4,$2,$3,$4,$5,$6,$7,$8,$9,$2,$3,0*
0 Add four circle primitives for the rounded corners*
1,1,$1+$1,$2,$3*
1,1,$1+$1,$4,$5*
1,1,$1+$1,$6,$7*
1,1,$1+$1,$8,$9*
0 Add four rect primitives between the rounded corners*
20,1,$1+$1,$2,$3,$4,$5,0*
20,1,$1+$1,$4,$5,$6,$7,0*
20,1,$1+$1,$6,$7,$8,$9,0*
20,1,$1+$1,$8,$9,$2,$3,0*%
%AMFreePoly0*
4,1,22,0.500000,-0.750000,0.000000,-0.750000,0.000000,-0.745033,-0.079941,-0.743568,-0.215256,-0.701293,-0.333266,-0.622738,-0.424486,-0.514219,-0.481581,-0.384460,-0.499164,-0.250000,-0.500000,-0.250000,-0.500000,0.250000,-0.499164,0.250000,-0.499963,0.256109,-0.478152,0.396186,-0.417904,0.524511,-0.324060,0.630769,-0.204165,0.706417,-0.067858,0.745374,0.000000,0.744959,0.000000,0.750000,
0.500000,0.750000,0.500000,-0.750000,0.500000,-0.750000,$1*%
%AMFreePoly1*
4,1,20,0.000000,0.744959,0.073905,0.744508,0.209726,0.703889,0.328688,0.626782,0.421226,0.519385,0.479903,0.390333,0.500000,0.250000,0.500000,-0.250000,0.499851,-0.262216,0.476331,-0.402017,0.414519,-0.529596,0.319384,-0.634700,0.198574,-0.708877,0.061801,-0.746166,0.000000,-0.745033,0.000000,-0.750000,-0.500000,-0.750000,-0.500000,0.750000,0.000000,0.750000,0.000000,0.744959,
0.000000,0.744959,$1*%
G04 Aperture macros list end*
%ADD10C,1.200000*%
%ADD11R,1.150000X1.150000*%
%ADD12C,1.150000*%
%ADD13FreePoly0,90.000000*%
%ADD14FreePoly1,90.000000*%
%ADD15RoundRect,0.250000X0.400000X0.625000X-0.400000X0.625000X-0.400000X-0.625000X0.400000X-0.625000X0*%
%ADD16R,1.700000X1.700000*%
%ADD17O,1.700000X1.700000*%
%ADD18RoundRect,0.250000X-0.400000X-0.625000X0.400000X-0.625000X0.400000X0.625000X-0.400000X0.625000X0*%
%ADD19RoundRect,0.160000X-0.197500X-0.160000X0.197500X-0.160000X0.197500X0.160000X-0.197500X0.160000X0*%
%ADD20R,0.700000X0.510000*%
%ADD21C,1.000000*%
%ADD22C,5.000000*%
%ADD23C,0.800000*%
%ADD24R,1.600000X0.550000*%
%ADD25R,0.550000X1.600000*%
%ADD26C,2.000000*%
%ADD27R,2.000000X1.500000*%
%ADD28R,2.000000X3.800000*%
%ADD29RoundRect,0.250000X-1.712500X-0.550000X1.712500X-0.550000X1.712500X0.550000X-1.712500X0.550000X0*%
%ADD30RoundRect,0.250000X0.650000X-0.325000X0.650000X0.325000X-0.650000X0.325000X-0.650000X-0.325000X0*%
%ADD31RoundRect,0.250000X0.325000X0.650000X-0.325000X0.650000X-0.325000X-0.650000X0.325000X-0.650000X0*%
%ADD32RoundRect,0.250000X-0.650000X0.325000X-0.650000X-0.325000X0.650000X-0.325000X0.650000X0.325000X0*%
%ADD33R,2.000000X1.800000*%
%ADD34RoundRect,0.137500X-0.662500X-0.137500X0.662500X-0.137500X0.662500X0.137500X-0.662500X0.137500X0*%
%ADD35RoundRect,0.250000X-0.325000X-0.650000X0.325000X-0.650000X0.325000X0.650000X-0.325000X0.650000X0*%
%ADD36RoundRect,0.225000X-0.225000X-0.250000X0.225000X-0.250000X0.225000X0.250000X-0.225000X0.250000X0*%
%ADD37R,4.500000X2.000000*%
%ADD38C,1.500000*%
G04 APERTURE END LIST*
D10*
%TO.C,J10*%
X153250002Y-120100000D03*
X161249985Y-120100000D03*
D11*
X155250000Y-117700000D03*
D12*
X157250001Y-117700000D03*
X159250000Y-117700000D03*
%TD*%
D13*
%TO.C,JP3*%
X171000000Y-89850000D03*
D14*
X171000000Y-88550000D03*
%TD*%
D15*
%TO.C,R3*%
X124900000Y-109400000D03*
X121800000Y-109400000D03*
%TD*%
D16*
%TO.C,J11*%
X122300000Y-119200000D03*
D17*
X124840000Y-119200000D03*
%TD*%
D16*
%TO.C,J2*%
X147860000Y-71525000D03*
D17*
X150400000Y-71525000D03*
X152940000Y-71525000D03*
%TD*%
D15*
%TO.C,R4*%
X124900000Y-111900000D03*
X121800000Y-111900000D03*
%TD*%
D18*
%TO.C,R2*%
X135450000Y-81635000D03*
X138550000Y-81635000D03*
%TD*%
D19*
%TO.C,R9*%
X153802500Y-96000000D03*
X154997500Y-96000000D03*
%TD*%
D20*
%TO.C,U3*%
X139160000Y-120950000D03*
X139160000Y-120000000D03*
X139160000Y-119050000D03*
X136840000Y-119050000D03*
X136840000Y-120950000D03*
%TD*%
D21*
%TO.C,TP6*%
X159650000Y-104900000D03*
%TD*%
D13*
%TO.C,JP4*%
X168400000Y-93300000D03*
D14*
X168400000Y-92000000D03*
%TD*%
D13*
%TO.C,JP5*%
X171000000Y-93300000D03*
D14*
X171000000Y-92000000D03*
%TD*%
D16*
%TO.C,J6*%
X138875000Y-74075000D03*
D17*
X138875000Y-71535000D03*
X141415000Y-74075000D03*
X141415000Y-71535000D03*
X143955000Y-74075000D03*
X143955000Y-71535000D03*
%TD*%
D16*
%TO.C,J12*%
X122225000Y-115200000D03*
D17*
X124765000Y-115200000D03*
%TD*%
D19*
%TO.C,R10*%
X153802500Y-98000000D03*
X154997500Y-98000000D03*
%TD*%
D22*
%TO.C,H2*%
X174500000Y-72500000D03*
D23*
X176375000Y-72500000D03*
X172625000Y-72500000D03*
X174500000Y-70625000D03*
X173174175Y-73825825D03*
X173174175Y-71174175D03*
X175825825Y-71174175D03*
X174500000Y-74375000D03*
X175825825Y-73825825D03*
%TD*%
D24*
%TO.C,U1*%
X145800000Y-87200000D03*
X145800000Y-88000000D03*
X145800000Y-88800000D03*
X145800000Y-89600000D03*
X145800000Y-90400000D03*
X145800000Y-91200000D03*
X145800000Y-92000000D03*
X145800000Y-92800000D03*
D25*
X147250000Y-94250000D03*
X148050000Y-94250000D03*
X148850000Y-94250000D03*
X149650000Y-94250000D03*
X150450000Y-94250000D03*
X151250000Y-94250000D03*
X152050000Y-94250000D03*
X152850000Y-94250000D03*
D24*
X154300000Y-92800000D03*
X154300000Y-92000000D03*
X154300000Y-91200000D03*
X154300000Y-90400000D03*
X154300000Y-89600000D03*
X154300000Y-88800000D03*
X154300000Y-88000000D03*
X154300000Y-87200000D03*
D25*
X152850000Y-85750000D03*
X152050000Y-85750000D03*
X151250000Y-85750000D03*
X150450000Y-85750000D03*
X149650000Y-85750000D03*
X148850000Y-85750000D03*
X148050000Y-85750000D03*
X147250000Y-85750000D03*
%TD*%
D13*
%TO.C,JP1*%
X161500000Y-91650000D03*
D14*
X161500000Y-90350000D03*
%TD*%
D13*
%TO.C,JP6*%
X168400000Y-96850000D03*
D14*
X168400000Y-95550000D03*
%TD*%
D26*
%TO.C,SW1*%
X163500000Y-78850000D03*
X157000000Y-78850000D03*
X163500000Y-83350000D03*
X157000000Y-83350000D03*
%TD*%
D13*
%TO.C,JP7*%
X171000000Y-96850000D03*
D14*
X171000000Y-95550000D03*
%TD*%
D15*
%TO.C,R1*%
X131750000Y-81635000D03*
X128650000Y-81635000D03*
%TD*%
D27*
%TO.C,U4*%
X148950000Y-121100000D03*
D28*
X142650000Y-118800000D03*
D27*
X148950000Y-118800000D03*
X148950000Y-116500000D03*
%TD*%
D23*
%TO.C,H4*%
X124700825Y-125825825D03*
X121500000Y-124500000D03*
X124700825Y-123174175D03*
X122049175Y-125825825D03*
X123375000Y-122625000D03*
X125250000Y-124500000D03*
X123375000Y-126375000D03*
D22*
X123375000Y-124500000D03*
D23*
X122049175Y-123174175D03*
%TD*%
D29*
%TO.C,C12*%
X142512500Y-110000000D03*
X148687500Y-110000000D03*
%TD*%
D30*
%TO.C,C4*%
X137000000Y-90275000D03*
X137000000Y-87325000D03*
%TD*%
D22*
%TO.C,H3*%
X166500000Y-124500000D03*
D23*
X166500000Y-122625000D03*
X168375000Y-124500000D03*
X167825825Y-123174175D03*
X166500000Y-126375000D03*
X167825825Y-125825825D03*
X165174175Y-123174175D03*
X165174175Y-125825825D03*
X164625000Y-124500000D03*
%TD*%
D21*
%TO.C,TP1*%
X176050000Y-83000000D03*
%TD*%
D23*
%TO.C,H1*%
X121924175Y-73825825D03*
X125125000Y-72500000D03*
X123250000Y-70625000D03*
X121375000Y-72500000D03*
X124575825Y-73825825D03*
X121924175Y-71174175D03*
D22*
X123250000Y-72500000D03*
D23*
X123250000Y-74375000D03*
X124575825Y-71174175D03*
%TD*%
D31*
%TO.C,C14*%
X137475000Y-123800000D03*
X134525000Y-123800000D03*
%TD*%
D16*
%TO.C,J1*%
X159467500Y-74075000D03*
D17*
X156927500Y-74075000D03*
X159467500Y-71535000D03*
X156927500Y-71535000D03*
%TD*%
D19*
%TO.C,R8*%
X153802500Y-97000000D03*
X154997500Y-97000000D03*
%TD*%
D30*
%TO.C,C9*%
X138400000Y-105075000D03*
X138400000Y-102125000D03*
%TD*%
%TO.C,C6*%
X128800000Y-86675000D03*
X128800000Y-83725000D03*
%TD*%
D21*
%TO.C,TP5*%
X164550000Y-104900000D03*
%TD*%
D32*
%TO.C,C5*%
X159000000Y-91525000D03*
X159000000Y-94475000D03*
%TD*%
D33*
%TO.C,X1*%
X135600000Y-104740000D03*
X135600000Y-99660000D03*
X131600000Y-99660000D03*
X131600000Y-104740000D03*
%TD*%
D18*
%TO.C,R6*%
X149450000Y-76800000D03*
X152550000Y-76800000D03*
%TD*%
D16*
%TO.C,J4*%
X176000000Y-86200000D03*
D17*
X176000000Y-88740000D03*
X176000000Y-91280000D03*
X176000000Y-93820000D03*
X176000000Y-96360000D03*
X176000000Y-98900000D03*
X176000000Y-101440000D03*
%TD*%
D15*
%TO.C,R5*%
X152450000Y-81800000D03*
X149350000Y-81800000D03*
%TD*%
D30*
%TO.C,C10*%
X129200000Y-95675000D03*
X129200000Y-92725000D03*
%TD*%
D21*
%TO.C,TP3*%
X157200000Y-104900000D03*
%TD*%
D34*
%TO.C,U2*%
X131950000Y-83865000D03*
X131950000Y-85135000D03*
X138450000Y-85135000D03*
X138450000Y-83865000D03*
%TD*%
D21*
%TO.C,TP4*%
X162100000Y-104900000D03*
%TD*%
D16*
%TO.C,J9*%
X173525000Y-105525000D03*
D17*
X176065000Y-105525000D03*
X173525000Y-108065000D03*
X176065000Y-108065000D03*
X173525000Y-110605000D03*
X176065000Y-110605000D03*
X173525000Y-113145000D03*
X176065000Y-113145000D03*
X173525000Y-115685000D03*
X176065000Y-115685000D03*
X173525000Y-118225000D03*
X176065000Y-118225000D03*
X173525000Y-120765000D03*
X176065000Y-120765000D03*
X173525000Y-123305000D03*
X176065000Y-123305000D03*
%TD*%
D21*
%TO.C,TP2*%
X152700000Y-102400000D03*
%TD*%
D16*
%TO.C,J3*%
X122125000Y-80975000D03*
D17*
X124665000Y-80975000D03*
X122125000Y-83515000D03*
X124665000Y-83515000D03*
X122125000Y-86055000D03*
X124665000Y-86055000D03*
X122125000Y-88595000D03*
X124665000Y-88595000D03*
X122125000Y-91135000D03*
X124665000Y-91135000D03*
X122125000Y-93675000D03*
X124665000Y-93675000D03*
X122125000Y-96215000D03*
X124665000Y-96215000D03*
%TD*%
D35*
%TO.C,C8*%
X140825000Y-85800000D03*
X143775000Y-85800000D03*
%TD*%
D31*
%TO.C,C11*%
X140875000Y-99600000D03*
X137925000Y-99600000D03*
%TD*%
D35*
%TO.C,C3*%
X122125000Y-77400000D03*
X125075000Y-77400000D03*
%TD*%
D19*
%TO.C,R7*%
X153800000Y-99000000D03*
X154995000Y-99000000D03*
%TD*%
D35*
%TO.C,C13*%
X143687500Y-104400000D03*
X146637500Y-104400000D03*
%TD*%
D16*
%TO.C,J5*%
X168525000Y-71525000D03*
D17*
X168525000Y-74065000D03*
X165985000Y-71525000D03*
X165985000Y-74065000D03*
X163445000Y-71525000D03*
X163445000Y-74065000D03*
%TD*%
D13*
%TO.C,JP2*%
X168400000Y-89850000D03*
D14*
X168400000Y-88550000D03*
%TD*%
D35*
%TO.C,C7*%
X143725000Y-99200000D03*
X146675000Y-99200000D03*
%TD*%
D36*
%TO.C,L1*%
X138925000Y-88400000D03*
X140475000Y-88400000D03*
%TD*%
D30*
%TO.C,C2*%
X156600000Y-92500000D03*
X156600000Y-89550000D03*
%TD*%
D32*
%TO.C,C1*%
X142500000Y-88525000D03*
X142500000Y-91475000D03*
%TD*%
D37*
%TO.C,Y1*%
X133350000Y-95200000D03*
D38*
X135150000Y-95200000D03*
D37*
X141850000Y-95200000D03*
D38*
X140050000Y-95200000D03*
%TD*%
D35*
%TO.C,C16*%
X149325000Y-79400000D03*
X152275000Y-79400000D03*
%TD*%
M02*
