%TF.GenerationSoftware,KiCad,Pcbnew,(6.0.1)*%
%TF.CreationDate,2022-01-20T11:15:23+01:00*%
%TF.ProjectId,LogicBoard_Avr,4c6f6769-6342-46f6-9172-645f4176722e,rev?*%
%TF.SameCoordinates,Original*%
%TF.FileFunction,Soldermask,Bot*%
%TF.FilePolarity,Negative*%
%FSLAX46Y46*%
G04 Gerber Fmt 4.6, Leading zero omitted, Abs format (unit mm)*
G04 Created by KiCad (PCBNEW (6.0.1)) date 2022-01-20 11:15:23*
%MOMM*%
%LPD*%
G01*
G04 APERTURE LIST*
%ADD10C,1.200000*%
%ADD11R,1.150000X1.150000*%
%ADD12C,1.150000*%
%ADD13R,1.700000X1.700000*%
%ADD14O,1.700000X1.700000*%
%ADD15C,5.000000*%
%ADD16C,0.800000*%
%ADD17C,2.000000*%
%ADD18C,1.500000*%
G04 APERTURE END LIST*
D10*
%TO.C,J10*%
X153250002Y-120100000D03*
X161249985Y-120100000D03*
D11*
X155250000Y-117700000D03*
D12*
X157250001Y-117700000D03*
X159250000Y-117700000D03*
%TD*%
D13*
%TO.C,J11*%
X122300000Y-119200000D03*
D14*
X124840000Y-119200000D03*
%TD*%
D13*
%TO.C,J2*%
X147860000Y-71525000D03*
D14*
X150400000Y-71525000D03*
X152940000Y-71525000D03*
%TD*%
D13*
%TO.C,J6*%
X138875000Y-74075000D03*
D14*
X138875000Y-71535000D03*
X141415000Y-74075000D03*
X141415000Y-71535000D03*
X143955000Y-74075000D03*
X143955000Y-71535000D03*
%TD*%
D13*
%TO.C,J12*%
X122225000Y-115200000D03*
D14*
X124765000Y-115200000D03*
%TD*%
D15*
%TO.C,H2*%
X174500000Y-72500000D03*
D16*
X176375000Y-72500000D03*
X172625000Y-72500000D03*
X174500000Y-70625000D03*
X173174175Y-73825825D03*
X173174175Y-71174175D03*
X175825825Y-71174175D03*
X174500000Y-74375000D03*
X175825825Y-73825825D03*
%TD*%
D17*
%TO.C,SW1*%
X163500000Y-78850000D03*
X157000000Y-78850000D03*
X163500000Y-83350000D03*
X157000000Y-83350000D03*
%TD*%
D16*
%TO.C,H4*%
X124700825Y-125825825D03*
X121500000Y-124500000D03*
X124700825Y-123174175D03*
X122049175Y-125825825D03*
X123375000Y-122625000D03*
X125250000Y-124500000D03*
X123375000Y-126375000D03*
D15*
X123375000Y-124500000D03*
D16*
X122049175Y-123174175D03*
%TD*%
D15*
%TO.C,H3*%
X166500000Y-124500000D03*
D16*
X166500000Y-122625000D03*
X168375000Y-124500000D03*
X167825825Y-123174175D03*
X166500000Y-126375000D03*
X167825825Y-125825825D03*
X165174175Y-123174175D03*
X165174175Y-125825825D03*
X164625000Y-124500000D03*
%TD*%
%TO.C,H1*%
X121924175Y-73825825D03*
X125125000Y-72500000D03*
X123250000Y-70625000D03*
X121375000Y-72500000D03*
X124575825Y-73825825D03*
X121924175Y-71174175D03*
D15*
X123250000Y-72500000D03*
D16*
X123250000Y-74375000D03*
X124575825Y-71174175D03*
%TD*%
D13*
%TO.C,J1*%
X159467500Y-74075000D03*
D14*
X156927500Y-74075000D03*
X159467500Y-71535000D03*
X156927500Y-71535000D03*
%TD*%
D13*
%TO.C,J4*%
X176000000Y-86200000D03*
D14*
X176000000Y-88740000D03*
X176000000Y-91280000D03*
X176000000Y-93820000D03*
X176000000Y-96360000D03*
X176000000Y-98900000D03*
X176000000Y-101440000D03*
%TD*%
D13*
%TO.C,J9*%
X173525000Y-105525000D03*
D14*
X176065000Y-105525000D03*
X173525000Y-108065000D03*
X176065000Y-108065000D03*
X173525000Y-110605000D03*
X176065000Y-110605000D03*
X173525000Y-113145000D03*
X176065000Y-113145000D03*
X173525000Y-115685000D03*
X176065000Y-115685000D03*
X173525000Y-118225000D03*
X176065000Y-118225000D03*
X173525000Y-120765000D03*
X176065000Y-120765000D03*
X173525000Y-123305000D03*
X176065000Y-123305000D03*
%TD*%
D13*
%TO.C,J3*%
X122125000Y-80975000D03*
D14*
X124665000Y-80975000D03*
X122125000Y-83515000D03*
X124665000Y-83515000D03*
X122125000Y-86055000D03*
X124665000Y-86055000D03*
X122125000Y-88595000D03*
X124665000Y-88595000D03*
X122125000Y-91135000D03*
X124665000Y-91135000D03*
X122125000Y-93675000D03*
X124665000Y-93675000D03*
X122125000Y-96215000D03*
X124665000Y-96215000D03*
%TD*%
D13*
%TO.C,J5*%
X168525000Y-71525000D03*
D14*
X168525000Y-74065000D03*
X165985000Y-71525000D03*
X165985000Y-74065000D03*
X163445000Y-71525000D03*
X163445000Y-74065000D03*
%TD*%
D18*
%TO.C,Y1*%
X135150000Y-95200000D03*
X140050000Y-95200000D03*
%TD*%
M02*
